<?xml version="1.0"?>
<svg xmlns="http://www.w3.org/2000/svg"
xmlns:xlink="http://www.w3.org/1999/xlink" xmlns:cml="http://www.xml-cml.org/schema" width="235.21" height="286.694" x="0" y="0" font-family="sans-serif" stroke="rgb(0,0,0)" stroke-width="1" >
<line x1="180.3" y1="114.5" x2="190.0" y2="131.5"/>
<line x1="189.9" y1="149.9" x2="174.8" y2="176.1"/>
<line x1="174.8" y1="176.1" x2="195.2" y2="211.4"/>
<line x1="195.2" y1="211.4" x2="180.1" y2="237.5"/>
<line x1="80.8" y1="73.1" x2="50.6" y2="73.9"/>
<line x1="99.6" y1="105.3" x2="99.6" y2="142.6"/>
<line x1="99.6" y1="142.6" x2="75.7" y2="156.4"/>
<line x1="99.6" y1="142.6" x2="131.9" y2="161.2"/>
<line x1="131.9" y1="161.2" x2="131.9" y2="188.8"/>
<line x1="180.0" y1="96.7" x2="189.0" y2="80.8"/>
<line x1="189.0" y1="63.8" x2="175.1" y2="40.0"/>
<line x1="181.7" y1="65.5" x2="171.9" y2="48.8"/>
<line x1="175.1" y1="40.0" x2="147.2" y2="40.0"/>
<line x1="137.3" y1="57.0" x2="137.3" y2="105.3"/>
<line x1="137.3" y1="105.3" x2="165.3" y2="105.3"/>
<line x1="94.7" y1="48.6" x2="80.8" y2="73.1"/>
<line x1="99.9" y1="54.1" x2="90.0" y2="71.5"/>
<line x1="80.8" y1="73.1" x2="99.6" y2="105.3"/>
<line x1="99.6" y1="105.3" x2="137.3" y2="105.3"/>
<line x1="127.5" y1="40.0" x2="109.4" y2="40.0"/>
<text x="171.458619" y="113.620483" fill="rgb(12,12,255)"  stroke="rgb(12,12,255)" stroke-width="1" font-size="16" >N</text>
<text x="189.210396" y="145.550665" fill="rgb(12,12,255)"  stroke="rgb(12,12,255)" stroke-width="1" font-size="16" >NH</text>
<text x="159.221615" y="251.493876" fill="rgb(255,12,12)"  stroke="rgb(255,12,12)" stroke-width="1" font-size="16" >HO</text>
<text x="187.924461" y="80.472283" fill="rgb(12,12,255)"  stroke="rgb(12,12,255)" stroke-width="1" font-size="16" >N</text>
<text x="131.349571" y="48.320000" fill="rgb(12,12,255)"  stroke="rgb(12,12,255)" stroke-width="1" font-size="16" >N</text>
<text x="96.029205" y="48.320000" fill="rgb(12,12,255)"  stroke="rgb(12,12,255)" stroke-width="1" font-size="16" >N</text>
<text x="24.400000" y="79.024138" fill="rgb(124,127,175)"  stroke="rgb(124,127,175)" stroke-width="1" font-size="16" >R</text>
<text x="51.745046" y="166.018287" fill="rgb(255,12,12)"  stroke="rgb(255,12,12)" stroke-width="1" font-size="16" >HO</text>
<text x="125.913365" y="203.296824" fill="rgb(102,102,102)"  stroke="rgb(102,102,102)" stroke-width="1" font-size="16" >CH</text>
<text x="149.913365" y="208.096824" fill="rgb(102,102,102)"  stroke="rgb(102,102,102)" stroke-width="1" font-size="13" >3</text>
<text x="175.058619" y="105.300483" fill="rgb(255,0,0)"  stroke="rgb(255,0,0)" stroke-width="1" font-size="12" >1</text>
<text x="195.210396" y="140.750665" fill="rgb(255,0,0)"  stroke="rgb(255,0,0)" stroke-width="1" font-size="12" >2</text>
<text x="174.821615" y="176.065069" fill="rgb(255,0,0)"  stroke="rgb(255,0,0)" stroke-width="1" font-size="12" >3</text>
<text x="195.210396" y="211.379472" fill="rgb(255,0,0)"  stroke="rgb(255,0,0)" stroke-width="1" font-size="12" >4</text>
<text x="174.821615" y="246.693876" fill="rgb(255,0,0)"  stroke="rgb(255,0,0)" stroke-width="1" font-size="12" >5</text>
<text x="193.924461" y="72.152283" fill="rgb(255,0,0)"  stroke="rgb(255,0,0)" stroke-width="1" font-size="12" >6</text>
<text x="175.058619" y="40.000000" fill="rgb(255,0,0)"  stroke="rgb(255,0,0)" stroke-width="1" font-size="12" >7</text>
<text x="137.349571" y="40.000000" fill="rgb(255,0,0)"  stroke="rgb(255,0,0)" stroke-width="1" font-size="12" >8</text>
<text x="99.629205" y="40.000000" fill="rgb(255,0,0)"  stroke="rgb(255,0,0)" stroke-width="1" font-size="12" >9</text>
<text x="80.763364" y="73.148200" fill="rgb(255,0,0)"  stroke="rgb(255,0,0)" stroke-width="1" font-size="12" >10</text>
<text x="40.000000" y="74.224138" fill="rgb(255,0,0)"  stroke="rgb(255,0,0)" stroke-width="1" font-size="12" >11</text>
<text x="99.629205" y="105.300483" fill="rgb(255,0,0)"  stroke="rgb(255,0,0)" stroke-width="1" font-size="12" >12</text>
<text x="99.629205" y="142.579019" fill="rgb(255,0,0)"  stroke="rgb(255,0,0)" stroke-width="1" font-size="12" >13</text>
<text x="67.345046" y="161.218287" fill="rgb(255,0,0)"  stroke="rgb(255,0,0)" stroke-width="1" font-size="12" >14</text>
<text x="131.913365" y="161.218287" fill="rgb(255,0,0)"  stroke="rgb(255,0,0)" stroke-width="1" font-size="12" >15</text>
<text x="131.913365" y="198.496824" fill="rgb(255,0,0)"  stroke="rgb(255,0,0)" stroke-width="1" font-size="12" >16</text>
<text x="137.349571" y="105.300483" fill="rgb(255,0,0)"  stroke="rgb(255,0,0)" stroke-width="1" font-size="12" >17</text>
<text font-size="18.000000" fill ="black" font-family="sans-serif"
x="140.000000" y="20.000000" ></text>
<title> - OBDepict</title>
</svg>
