<?xml version="1.0"?>
<svg xmlns="http://www.w3.org/2000/svg"
xmlns:xlink="http://www.w3.org/1999/xlink" xmlns:cml="http://www.xml-cml.org/schema" x="0" y="0" font-family="sans-serif" stroke="rgb(0,0,0)" stroke-width="1" viewBox="0 0 345.659 181.553" width="276.5272" height="145.2424">
<line x1="290.6" y1="115.1" x2="300.4" y2="132.3"/>
<line x1="190.3" y1="73.4" x2="152.7" y2="73.4"/>
<line x1="152.7" y1="73.4" x2="133.9" y2="106.0"/>
<line x1="133.9" y1="106.0" x2="96.4" y2="106.0"/>
<line x1="96.4" y1="106.0" x2="82.5" y2="130.0"/>
<line x1="67.8" y1="138.5" x2="49.8" y2="138.5"/>
<line x1="209.3" y1="105.8" x2="193.9" y2="132.1"/>
<line x1="290.3" y1="97.1" x2="299.4" y2="81.1"/>
<line x1="299.4" y1="64.0" x2="285.3" y2="40.0"/>
<line x1="292.1" y1="65.7" x2="282.2" y2="48.8"/>
<line x1="285.3" y1="40.0" x2="257.2" y2="40.0"/>
<line x1="247.3" y1="57.1" x2="247.3" y2="105.8"/>
<line x1="247.3" y1="105.8" x2="275.5" y2="105.8"/>
<line x1="204.4" y1="48.7" x2="190.3" y2="73.4"/>
<line x1="209.6" y1="54.1" x2="199.5" y2="71.8"/>
<line x1="190.3" y1="73.4" x2="209.3" y2="105.8"/>
<line x1="209.3" y1="105.8" x2="247.3" y2="105.8"/>
<line x1="237.5" y1="40.0" x2="219.2" y2="40.0"/>
<text x="281.746931" y="114.140273" fill="rgb(12,12,255)"  stroke="rgb(12,12,255)" stroke-width="1" font-size="16" >N</text>
<text x="299.659115" y="146.352637" fill="rgb(124,127,175)"  stroke="rgb(124,127,175)" stroke-width="1" font-size="16" >R</text>
<text x="298.362944" y="80.728214" fill="rgb(12,12,255)"  stroke="rgb(12,12,255)" stroke-width="1" font-size="16" >N</text>
<text x="241.337720" y="48.320000" fill="rgb(12,12,255)"  stroke="rgb(12,12,255)" stroke-width="1" font-size="16" >N</text>
<text x="205.717101" y="48.320000" fill="rgb(12,12,255)"  stroke="rgb(12,12,255)" stroke-width="1" font-size="16" >N</text>
<text x="71.575272" y="143.294339" fill="rgb(12,12,255)"  stroke="rgb(12,12,255)" stroke-width="1" font-size="16" >NH</text>
<text x="16.400000" y="143.294339" fill="rgb(102,102,102)"  stroke="rgb(102,102,102)" stroke-width="1" font-size="16" >H</text>
<text x="28.400000" y="148.094339" fill="rgb(102,102,102)"  stroke="rgb(102,102,102)" stroke-width="1" font-size="13" >3</text>
<text x="34.900000" y="143.294339" fill="rgb(102,102,102)"  stroke="rgb(102,102,102)" stroke-width="1" font-size="16" >C</text>
<text x="172.925499" y="146.075821" fill="rgb(124,127,175)"  stroke="rgb(124,127,175)" stroke-width="1" font-size="16" >R</text>
<text x="285.346931" y="105.820273" fill="rgb(255,0,0)"  stroke="rgb(255,0,0)" stroke-width="1" font-size="12" >1</text>
<text x="305.659115" y="141.552637" fill="rgb(255,0,0)"  stroke="rgb(255,0,0)" stroke-width="1" font-size="12" >2</text>
<text x="304.362944" y="72.408214" fill="rgb(255,0,0)"  stroke="rgb(255,0,0)" stroke-width="1" font-size="12" >3</text>
<text x="285.346931" y="40.000000" fill="rgb(255,0,0)"  stroke="rgb(255,0,0)" stroke-width="1" font-size="12" >4</text>
<text x="247.337720" y="40.000000" fill="rgb(255,0,0)"  stroke="rgb(255,0,0)" stroke-width="1" font-size="12" >5</text>
<text x="209.317101" y="40.000000" fill="rgb(255,0,0)"  stroke="rgb(255,0,0)" stroke-width="1" font-size="12" >6</text>
<text x="190.301088" y="73.412059" fill="rgb(255,0,0)"  stroke="rgb(255,0,0)" stroke-width="1" font-size="12" >7</text>
<text x="152.725816" y="73.412059" fill="rgb(255,0,0)"  stroke="rgb(255,0,0)" stroke-width="1" font-size="12" >8</text>
<text x="133.938180" y="105.953199" fill="rgb(255,0,0)"  stroke="rgb(255,0,0)" stroke-width="1" font-size="12" >9</text>
<text x="96.362908" y="105.953199" fill="rgb(255,0,0)"  stroke="rgb(255,0,0)" stroke-width="1" font-size="12" >10</text>
<text x="77.575272" y="138.494339" fill="rgb(255,0,0)"  stroke="rgb(255,0,0)" stroke-width="1" font-size="12" >11</text>
<text x="40.000000" y="138.494339" fill="rgb(255,0,0)"  stroke="rgb(255,0,0)" stroke-width="1" font-size="12" >12</text>
<text x="209.317101" y="105.820273" fill="rgb(255,0,0)"  stroke="rgb(255,0,0)" stroke-width="1" font-size="12" >13</text>
<text x="188.525499" y="141.275821" fill="rgb(255,0,0)"  stroke="rgb(255,0,0)" stroke-width="1" font-size="12" >14</text>
<text x="247.337720" y="105.820273" fill="rgb(255,0,0)"  stroke="rgb(255,0,0)" stroke-width="1" font-size="12" >15</text>
<text font-size="18.000000" fill ="black" font-family="sans-serif"
x="140.000000" y="20.000000" ></text>
<title> - OBDepict</title>
</svg>
