<?xml version="1.0"?>
<svg xmlns="http://www.w3.org/2000/svg"
xmlns:xlink="http://www.w3.org/1999/xlink" xmlns:cml="http://www.xml-cml.org/schema" width="288.39" height="287.437" x="0" y="0" font-family="sans-serif" stroke="rgb(0,0,0)" stroke-width="1" >
<line x1="233.4" y1="114.8" x2="243.1" y2="131.9"/>
<line x1="243.1" y1="150.3" x2="227.9" y2="176.6"/>
<line x1="227.9" y1="176.6" x2="248.4" y2="212.0"/>
<line x1="248.4" y1="212.0" x2="233.2" y2="238.2"/>
<line x1="133.5" y1="73.3" x2="96.1" y2="73.3"/>
<line x1="96.1" y1="73.3" x2="77.4" y2="105.7"/>
<line x1="77.4" y1="108.7" x2="49.7" y2="108.7"/>
<line x1="77.4" y1="102.7" x2="49.7" y2="102.7"/>
<line x1="77.4" y1="105.7" x2="96.1" y2="138.1"/>
<line x1="96.1" y1="138.1" x2="82.3" y2="162.0"/>
<line x1="152.5" y1="105.5" x2="137.1" y2="131.7"/>
<line x1="233.1" y1="96.9" x2="242.2" y2="80.9"/>
<line x1="242.2" y1="63.9" x2="228.2" y2="40.0"/>
<line x1="234.8" y1="65.6" x2="225.0" y2="48.8"/>
<line x1="228.2" y1="40.0" x2="200.2" y2="40.0"/>
<line x1="190.3" y1="57.0" x2="190.3" y2="105.5"/>
<line x1="190.3" y1="105.5" x2="218.3" y2="105.5"/>
<line x1="147.5" y1="48.6" x2="133.5" y2="73.3"/>
<line x1="152.7" y1="54.1" x2="142.8" y2="71.6"/>
<line x1="133.5" y1="73.3" x2="152.5" y2="105.5"/>
<line x1="152.5" y1="105.5" x2="190.3" y2="105.5"/>
<line x1="180.5" y1="40.0" x2="162.3" y2="40.0"/>
<text x="224.565393" y="113.855156" fill="rgb(12,12,255)"  stroke="rgb(12,12,255)" stroke-width="1" font-size="16" >N</text>
<text x="242.389589" y="145.912737" fill="rgb(12,12,255)"  stroke="rgb(12,12,255)" stroke-width="1" font-size="16" >NH</text>
<text x="212.327537" y="252.236681" fill="rgb(255,12,12)"  stroke="rgb(255,12,12)" stroke-width="1" font-size="16" >HO</text>
<text x="241.099033" y="80.587830" fill="rgb(12,12,255)"  stroke="rgb(12,12,255)" stroke-width="1" font-size="16" >N</text>
<text x="184.320828" y="48.320000" fill="rgb(12,12,255)"  stroke="rgb(12,12,255)" stroke-width="1" font-size="16" >N</text>
<text x="148.864905" y="48.320000" fill="rgb(12,12,255)"  stroke="rgb(12,12,255)" stroke-width="1" font-size="16" >N</text>
<text x="36.400000" y="110.467507" fill="rgb(255,12,12)"  stroke="rgb(255,12,12)" stroke-width="1" font-size="16" >O</text>
<text x="53.812506" y="175.267867" fill="rgb(102,102,102)"  stroke="rgb(102,102,102)" stroke-width="1" font-size="16" >H</text>
<text x="65.812506" y="180.067867" fill="rgb(102,102,102)"  stroke="rgb(102,102,102)" stroke-width="1" font-size="13" >3</text>
<text x="72.312506" y="175.267867" fill="rgb(102,102,102)"  stroke="rgb(102,102,102)" stroke-width="1" font-size="16" >C</text>
<text x="116.163366" y="145.637120" fill="rgb(124,127,175)"  stroke="rgb(124,127,175)" stroke-width="1" font-size="16" >R</text>
<text x="228.165393" y="105.535156" fill="rgb(255,0,0)"  stroke="rgb(255,0,0)" stroke-width="1" font-size="12" >1</text>
<text x="248.389589" y="141.112737" fill="rgb(255,0,0)"  stroke="rgb(255,0,0)" stroke-width="1" font-size="12" >2</text>
<text x="227.927537" y="176.554051" fill="rgb(255,0,0)"  stroke="rgb(255,0,0)" stroke-width="1" font-size="12" >3</text>
<text x="248.389589" y="211.995366" fill="rgb(255,0,0)"  stroke="rgb(255,0,0)" stroke-width="1" font-size="12" >4</text>
<text x="227.927537" y="247.436681" fill="rgb(255,0,0)"  stroke="rgb(255,0,0)" stroke-width="1" font-size="12" >5</text>
<text x="247.099033" y="72.267830" fill="rgb(255,0,0)"  stroke="rgb(255,0,0)" stroke-width="1" font-size="12" >6</text>
<text x="228.165393" y="40.000000" fill="rgb(255,0,0)"  stroke="rgb(255,0,0)" stroke-width="1" font-size="12" >7</text>
<text x="190.320828" y="40.000000" fill="rgb(255,0,0)"  stroke="rgb(255,0,0)" stroke-width="1" font-size="12" >8</text>
<text x="152.464905" y="40.000000" fill="rgb(255,0,0)"  stroke="rgb(255,0,0)" stroke-width="1" font-size="12" >9</text>
<text x="133.531264" y="73.267326" fill="rgb(255,0,0)"  stroke="rgb(255,0,0)" stroke-width="1" font-size="12" >10</text>
<text x="96.118759" y="73.267326" fill="rgb(255,0,0)"  stroke="rgb(255,0,0)" stroke-width="1" font-size="12" >11</text>
<text x="77.412506" y="105.667507" fill="rgb(255,0,0)"  stroke="rgb(255,0,0)" stroke-width="1" font-size="12" >12</text>
<text x="40.000000" y="105.667507" fill="rgb(255,0,0)"  stroke="rgb(255,0,0)" stroke-width="1" font-size="12" >13</text>
<text x="96.118759" y="138.067687" fill="rgb(255,0,0)"  stroke="rgb(255,0,0)" stroke-width="1" font-size="12" >14</text>
<text x="77.412506" y="170.467867" fill="rgb(255,0,0)"  stroke="rgb(255,0,0)" stroke-width="1" font-size="12" >15</text>
<text x="152.464905" y="105.535156" fill="rgb(255,0,0)"  stroke="rgb(255,0,0)" stroke-width="1" font-size="12" >16</text>
<text x="131.763366" y="140.837120" fill="rgb(255,0,0)"  stroke="rgb(255,0,0)" stroke-width="1" font-size="12" >17</text>
<text x="190.320828" y="105.535156" fill="rgb(255,0,0)"  stroke="rgb(255,0,0)" stroke-width="1" font-size="12" >18</text>
<text font-size="18.000000" fill ="black" font-family="sans-serif"
x="140.000000" y="20.000000" ></text>
<title> - OBDepict</title>
</svg>
