<?xml version="1.0"?>
<svg xmlns="http://www.w3.org/2000/svg"
xmlns:xlink="http://www.w3.org/1999/xlink" xmlns:cml="http://www.xml-cml.org/schema" x="0" y="0" font-family="sans-serif" stroke="rgb(0,0,0)" stroke-width="1" viewBox="0 0 291.76 260.648" width="233.408" height="208.5184">
<line x1="236.6" y1="116.0" x2="246.4" y2="133.3"/>
<line x1="135.0" y1="73.8" x2="97.0" y2="73.8"/>
<line x1="97.0" y1="73.8" x2="83.0" y2="49.4"/>
<line x1="97.0" y1="73.8" x2="78.0" y2="106.7"/>
<line x1="78.0" y1="106.7" x2="49.9" y2="106.7"/>
<line x1="154.3" y1="106.6" x2="154.3" y2="144.6"/>
<line x1="154.3" y1="144.6" x2="187.2" y2="163.6"/>
<line x1="187.2" y1="163.6" x2="187.2" y2="191.8"/>
<line x1="195.8" y1="206.6" x2="211.6" y2="215.7"/>
<line x1="236.2" y1="97.8" x2="245.4" y2="81.6"/>
<line x1="245.4" y1="64.3" x2="231.2" y2="40.0"/>
<line x1="238.1" y1="66.0" x2="228.0" y2="48.8"/>
<line x1="231.2" y1="40.0" x2="202.8" y2="40.0"/>
<line x1="192.8" y1="57.3" x2="192.8" y2="106.6"/>
<line x1="192.8" y1="106.6" x2="221.2" y2="106.6"/>
<line x1="149.3" y1="48.8" x2="135.0" y2="73.8"/>
<line x1="154.5" y1="54.2" x2="144.3" y2="72.2"/>
<line x1="135.0" y1="73.8" x2="154.3" y2="106.6"/>
<line x1="154.3" y1="106.6" x2="192.8" y2="106.6"/>
<line x1="182.8" y1="40.0" x2="164.3" y2="40.0"/>
<text x="227.608503" y="114.915025" fill="rgb(12,12,255)"  stroke="rgb(12,12,255)" stroke-width="1" font-size="16" >N</text>
<text x="245.759776" y="147.547986" fill="rgb(124,127,175)"  stroke="rgb(124,127,175)" stroke-width="1" font-size="16" >R</text>
<text x="244.448349" y="81.109682" fill="rgb(12,12,255)"  stroke="rgb(12,12,255)" stroke-width="1" font-size="16" >N</text>
<text x="186.751896" y="48.320000" fill="rgb(12,12,255)"  stroke="rgb(12,12,255)" stroke-width="1" font-size="16" >N</text>
<text x="150.683747" y="48.320000" fill="rgb(12,12,255)"  stroke="rgb(12,12,255)" stroke-width="1" font-size="16" >N</text>
<text x="62.417561" y="49.201170" fill="rgb(255,12,12)"  stroke="rgb(255,12,12)" stroke-width="1" font-size="16" >HO</text>
<text x="16.400000" y="111.529516" fill="rgb(102,102,102)"  stroke="rgb(102,102,102)" stroke-width="1" font-size="16" >H</text>
<text x="28.400000" y="116.329516" fill="rgb(102,102,102)"  stroke="rgb(102,102,102)" stroke-width="1" font-size="13" >3</text>
<text x="34.900000" y="111.529516" fill="rgb(102,102,102)"  stroke="rgb(102,102,102)" stroke-width="1" font-size="16" >C</text>
<text x="171.607920" y="206.438927" fill="rgb(12,12,255)"  stroke="rgb(12,12,255)" stroke-width="1" font-size="16" >HN</text>
<text x="214.132094" y="225.447707" fill="rgb(102,102,102)"  stroke="rgb(102,102,102)" stroke-width="1" font-size="16" >CH</text>
<text x="238.132094" y="230.247707" fill="rgb(102,102,102)"  stroke="rgb(102,102,102)" stroke-width="1" font-size="13" >3</text>
<text x="231.208503" y="106.595025" fill="rgb(255,0,0)"  stroke="rgb(255,0,0)" stroke-width="1" font-size="12" >1</text>
<text x="251.759776" y="142.747986" fill="rgb(255,0,0)"  stroke="rgb(255,0,0)" stroke-width="1" font-size="12" >2</text>
<text x="250.448349" y="72.789682" fill="rgb(255,0,0)"  stroke="rgb(255,0,0)" stroke-width="1" font-size="12" >3</text>
<text x="231.208503" y="40.000000" fill="rgb(255,0,0)"  stroke="rgb(255,0,0)" stroke-width="1" font-size="12" >4</text>
<text x="192.751896" y="40.000000" fill="rgb(255,0,0)"  stroke="rgb(255,0,0)" stroke-width="1" font-size="12" >5</text>
<text x="154.283747" y="40.000000" fill="rgb(255,0,0)"  stroke="rgb(255,0,0)" stroke-width="1" font-size="12" >6</text>
<text x="135.043902" y="73.805343" fill="rgb(255,0,0)"  stroke="rgb(255,0,0)" stroke-width="1" font-size="12" >7</text>
<text x="97.026341" y="73.805343" fill="rgb(255,0,0)"  stroke="rgb(255,0,0)" stroke-width="1" font-size="12" >8</text>
<text x="78.017561" y="40.881170" fill="rgb(255,0,0)"  stroke="rgb(255,0,0)" stroke-width="1" font-size="12" >9</text>
<text x="78.017561" y="106.729516" fill="rgb(255,0,0)"  stroke="rgb(255,0,0)" stroke-width="1" font-size="12" >10</text>
<text x="40.000000" y="106.729516" fill="rgb(255,0,0)"  stroke="rgb(255,0,0)" stroke-width="1" font-size="12" >11</text>
<text x="154.283747" y="106.595025" fill="rgb(255,0,0)"  stroke="rgb(255,0,0)" stroke-width="1" font-size="12" >12</text>
<text x="154.283747" y="144.612586" fill="rgb(255,0,0)"  stroke="rgb(255,0,0)" stroke-width="1" font-size="12" >13</text>
<text x="187.207920" y="163.621366" fill="rgb(255,0,0)"  stroke="rgb(255,0,0)" stroke-width="1" font-size="12" >14</text>
<text x="187.207920" y="201.638927" fill="rgb(255,0,0)"  stroke="rgb(255,0,0)" stroke-width="1" font-size="12" >15</text>
<text x="220.132094" y="220.647707" fill="rgb(255,0,0)"  stroke="rgb(255,0,0)" stroke-width="1" font-size="12" >16</text>
<text x="192.751896" y="106.595025" fill="rgb(255,0,0)"  stroke="rgb(255,0,0)" stroke-width="1" font-size="12" >17</text>
<text font-size="18.000000" fill ="black" font-family="sans-serif"
x="140.000000" y="20.000000" ></text>
<title> - OBDepict</title>
</svg>
