<?xml version="1.0"?>
<svg xmlns="http://www.w3.org/2000/svg"
xmlns:xlink="http://www.w3.org/1999/xlink" xmlns:cml="http://www.xml-cml.org/schema" x="0" y="0" font-family="sans-serif" stroke="rgb(0,0,0)" stroke-width="1" viewBox="0 0 370.531 318.858" width="296.4248" height="255.0864">
<line x1="313.9" y1="116.4" x2="329.2" y2="143.3"/>
<line x1="329.2" y1="143.3" x2="313.8" y2="170.0"/>
<line x1="313.8" y1="188.9" x2="323.8" y2="206.2"/>
<line x1="211.9" y1="74.0" x2="173.7" y2="74.0"/>
<line x1="173.7" y1="74.0" x2="154.6" y2="107.1"/>
<line x1="154.6" y1="107.1" x2="116.4" y2="107.1"/>
<line x1="116.4" y1="107.1" x2="97.3" y2="140.2"/>
<line x1="97.3" y1="140.2" x2="69.0" y2="140.2"/>
<line x1="54.1" y1="148.8" x2="45.0" y2="164.6"/>
<line x1="231.3" y1="106.9" x2="231.3" y2="145.1"/>
<line x1="231.3" y1="145.1" x2="264.4" y2="164.2"/>
<line x1="264.4" y1="164.2" x2="264.4" y2="202.4"/>
<line x1="264.4" y1="202.4" x2="297.4" y2="221.5"/>
<line x1="297.4" y1="221.5" x2="297.4" y2="249.8"/>
<line x1="306.0" y1="264.7" x2="321.9" y2="273.9"/>
<line x1="313.6" y1="98.1" x2="322.9" y2="81.8"/>
<line x1="322.9" y1="64.4" x2="308.6" y2="40.0"/>
<line x1="315.6" y1="66.1" x2="305.4" y2="48.8"/>
<line x1="308.6" y1="40.0" x2="280.0" y2="40.0"/>
<line x1="269.9" y1="57.4" x2="269.9" y2="106.9"/>
<line x1="269.9" y1="106.9" x2="298.5" y2="106.9"/>
<line x1="226.2" y1="48.8" x2="211.9" y2="74.0"/>
<line x1="231.5" y1="54.2" x2="221.2" y2="72.3"/>
<line x1="211.9" y1="74.0" x2="231.3" y2="106.9"/>
<line x1="231.3" y1="106.9" x2="269.9" y2="106.9"/>
<line x1="259.9" y1="40.0" x2="241.3" y2="40.0"/>
<text x="304.974707" y="115.246721" fill="rgb(12,12,255)"  stroke="rgb(12,12,255)" stroke-width="1" font-size="16" >N</text>
<text x="292.731801" y="187.773622" fill="rgb(12,12,255)"  stroke="rgb(12,12,255)" stroke-width="1" font-size="16" >HN</text>
<text x="323.228342" y="220.447493" fill="rgb(102,102,102)"  stroke="rgb(102,102,102)" stroke-width="1" font-size="16" >CH</text>
<text x="347.228342" y="225.247493" fill="rgb(102,102,102)"  stroke="rgb(102,102,102)" stroke-width="1" font-size="13" >3</text>
<text x="321.910382" y="81.273001" fill="rgb(12,12,255)"  stroke="rgb(12,12,255)" stroke-width="1" font-size="16" >N</text>
<text x="263.926556" y="48.320000" fill="rgb(12,12,255)"  stroke="rgb(12,12,255)" stroke-width="1" font-size="16" >N</text>
<text x="227.666805" y="48.320000" fill="rgb(12,12,255)"  stroke="rgb(12,12,255)" stroke-width="1" font-size="16" >N</text>
<text x="43.503459" y="148.470043" fill="rgb(12,12,255)"  stroke="rgb(12,12,255)" stroke-width="1" font-size="16" >HN</text>
<text x="16.400000" y="178.038205" fill="rgb(102,102,102)"  stroke="rgb(102,102,102)" stroke-width="1" font-size="16" >H</text>
<text x="28.400000" y="182.838205" fill="rgb(102,102,102)"  stroke="rgb(102,102,102)" stroke-width="1" font-size="13" >3</text>
<text x="34.900000" y="178.038205" fill="rgb(102,102,102)"  stroke="rgb(102,102,102)" stroke-width="1" font-size="16" >C</text>
<text x="281.843128" y="264.554392" fill="rgb(12,12,255)"  stroke="rgb(12,12,255)" stroke-width="1" font-size="16" >HN</text>
<text x="324.531290" y="283.657851" fill="rgb(102,102,102)"  stroke="rgb(102,102,102)" stroke-width="1" font-size="16" >CH</text>
<text x="348.531290" y="288.457851" fill="rgb(102,102,102)"  stroke="rgb(102,102,102)" stroke-width="1" font-size="13" >3</text>
<text x="308.574707" y="106.926721" fill="rgb(255,0,0)"  stroke="rgb(255,0,0)" stroke-width="1" font-size="12" >1</text>
<text x="329.228342" y="143.259751" fill="rgb(255,0,0)"  stroke="rgb(255,0,0)" stroke-width="1" font-size="12" >2</text>
<text x="308.331801" y="179.453622" fill="rgb(255,0,0)"  stroke="rgb(255,0,0)" stroke-width="1" font-size="12" >3</text>
<text x="329.228342" y="215.647493" fill="rgb(255,0,0)"  stroke="rgb(255,0,0)" stroke-width="1" font-size="12" >4</text>
<text x="327.910382" y="72.953001" fill="rgb(255,0,0)"  stroke="rgb(255,0,0)" stroke-width="1" font-size="12" >5</text>
<text x="308.574707" y="40.000000" fill="rgb(255,0,0)"  stroke="rgb(255,0,0)" stroke-width="1" font-size="12" >6</text>
<text x="269.926556" y="40.000000" fill="rgb(255,0,0)"  stroke="rgb(255,0,0)" stroke-width="1" font-size="12" >7</text>
<text x="231.266805" y="40.000000" fill="rgb(255,0,0)"  stroke="rgb(255,0,0)" stroke-width="1" font-size="12" >8</text>
<text x="211.931130" y="73.973720" fill="rgb(255,0,0)"  stroke="rgb(255,0,0)" stroke-width="1" font-size="12" >9</text>
<text x="173.724213" y="73.973720" fill="rgb(255,0,0)"  stroke="rgb(255,0,0)" stroke-width="1" font-size="12" >10</text>
<text x="154.620754" y="107.061882" fill="rgb(255,0,0)"  stroke="rgb(255,0,0)" stroke-width="1" font-size="12" >11</text>
<text x="116.413836" y="107.061882" fill="rgb(255,0,0)"  stroke="rgb(255,0,0)" stroke-width="1" font-size="12" >12</text>
<text x="97.310377" y="140.150043" fill="rgb(255,0,0)"  stroke="rgb(255,0,0)" stroke-width="1" font-size="12" >13</text>
<text x="59.103459" y="140.150043" fill="rgb(255,0,0)"  stroke="rgb(255,0,0)" stroke-width="1" font-size="12" >14</text>
<text x="40.000000" y="173.238205" fill="rgb(255,0,0)"  stroke="rgb(255,0,0)" stroke-width="1" font-size="12" >15</text>
<text x="231.266805" y="106.926721" fill="rgb(255,0,0)"  stroke="rgb(255,0,0)" stroke-width="1" font-size="12" >16</text>
<text x="231.266805" y="145.133639" fill="rgb(255,0,0)"  stroke="rgb(255,0,0)" stroke-width="1" font-size="12" >17</text>
<text x="264.354967" y="164.237098" fill="rgb(255,0,0)"  stroke="rgb(255,0,0)" stroke-width="1" font-size="12" >18</text>
<text x="264.354967" y="202.444016" fill="rgb(255,0,0)"  stroke="rgb(255,0,0)" stroke-width="1" font-size="12" >19</text>
<text x="297.443128" y="221.547475" fill="rgb(255,0,0)"  stroke="rgb(255,0,0)" stroke-width="1" font-size="12" >20</text>
<text x="297.443128" y="259.754392" fill="rgb(255,0,0)"  stroke="rgb(255,0,0)" stroke-width="1" font-size="12" >21</text>
<text x="330.531290" y="278.857851" fill="rgb(255,0,0)"  stroke="rgb(255,0,0)" stroke-width="1" font-size="12" >22</text>
<text x="269.926556" y="106.926721" fill="rgb(255,0,0)"  stroke="rgb(255,0,0)" stroke-width="1" font-size="12" >23</text>
<text font-size="18.000000" fill ="black" font-family="sans-serif"
x="140.000000" y="20.000000" ></text>
<title> - OBDepict</title>
</svg>
