<?xml version="1.0"?>
<svg xmlns="http://www.w3.org/2000/svg"
xmlns:xlink="http://www.w3.org/1999/xlink" xmlns:cml="http://www.xml-cml.org/schema" width="281.416" height="287.197" x="0" y="0" font-family="sans-serif" stroke="rgb(0,0,0)" stroke-width="1" >
<line x1="185.6" y1="114.7" x2="200.5" y2="141.0"/>
<line x1="200.5" y1="141.0" x2="185.4" y2="167.2"/>
<line x1="185.4" y1="185.6" x2="200.5" y2="211.8"/>
<line x1="200.5" y1="211.8" x2="185.4" y2="238.0"/>
<line x1="200.5" y1="211.8" x2="230.8" y2="211.8"/>
<line x1="85.8" y1="73.2" x2="55.6" y2="74.0"/>
<line x1="104.7" y1="105.5" x2="104.7" y2="142.8"/>
<line x1="104.7" y1="142.8" x2="72.4" y2="161.5"/>
<line x1="72.4" y1="161.5" x2="58.5" y2="185.5"/>
<line x1="72.4" y1="161.5" x2="86.2" y2="185.5"/>
<line x1="72.4" y1="161.5" x2="48.4" y2="147.7"/>
<line x1="185.3" y1="96.8" x2="194.3" y2="80.9"/>
<line x1="194.3" y1="63.9" x2="180.3" y2="40.0"/>
<line x1="187.0" y1="65.5" x2="177.2" y2="48.8"/>
<line x1="180.3" y1="40.0" x2="152.4" y2="40.0"/>
<line x1="142.5" y1="57.0" x2="142.5" y2="105.5"/>
<line x1="142.5" y1="105.5" x2="170.5" y2="105.5"/>
<line x1="99.8" y1="48.6" x2="85.8" y2="73.2"/>
<line x1="105.0" y1="54.1" x2="95.0" y2="71.6"/>
<line x1="85.8" y1="73.2" x2="104.7" y2="105.5"/>
<line x1="104.7" y1="105.5" x2="142.5" y2="105.5"/>
<line x1="132.7" y1="40.0" x2="114.6" y2="40.0"/>
<text x="176.738739" y="113.779542" fill="rgb(12,12,255)"  stroke="rgb(12,12,255)" stroke-width="1" font-size="16" >N</text>
<text x="176.501157" y="181.196496" fill="rgb(255,12,12)"  stroke="rgb(255,12,12)" stroke-width="1" font-size="16" >O</text>
<text x="156.501157" y="251.997341" fill="rgb(102,102,102)"  stroke="rgb(102,102,102)" stroke-width="1" font-size="16" >H</text>
<text x="168.501157" y="256.797341" fill="rgb(102,102,102)"  stroke="rgb(102,102,102)" stroke-width="1" font-size="13" >3</text>
<text x="175.001157" y="251.997341" fill="rgb(102,102,102)"  stroke="rgb(102,102,102)" stroke-width="1" font-size="16" >C</text>
<text x="235.416488" y="220.116918" fill="rgb(102,102,102)"  stroke="rgb(102,102,102)" stroke-width="1" font-size="16" >CH</text>
<text x="259.416488" y="227.796918" fill="rgb(102,102,102)"  stroke="rgb(102,102,102)" stroke-width="1" font-size="13" >3</text>
<text x="193.250534" y="80.550599" fill="rgb(12,12,255)"  stroke="rgb(12,12,255)" stroke-width="1" font-size="16" >N</text>
<text x="136.537839" y="48.320000" fill="rgb(12,12,255)"  stroke="rgb(12,12,255)" stroke-width="1" font-size="16" >N</text>
<text x="101.125594" y="48.320000" fill="rgb(12,12,255)"  stroke="rgb(12,12,255)" stroke-width="1" font-size="16" >N</text>
<text x="29.351144" y="79.107501" fill="rgb(124,127,175)"  stroke="rgb(124,127,175)" stroke-width="1" font-size="16" >R</text>
<text x="30.078127" y="198.676348" fill="rgb(102,102,102)"  stroke="rgb(102,102,102)" stroke-width="1" font-size="16" >H</text>
<text x="42.078127" y="203.476348" fill="rgb(102,102,102)"  stroke="rgb(102,102,102)" stroke-width="1" font-size="13" >3</text>
<text x="48.578127" y="198.676348" fill="rgb(102,102,102)"  stroke="rgb(102,102,102)" stroke-width="1" font-size="16" >C</text>
<text x="85.047467" y="198.676348" fill="rgb(102,102,102)"  stroke="rgb(102,102,102)" stroke-width="1" font-size="16" >CH</text>
<text x="109.047467" y="203.476348" fill="rgb(102,102,102)"  stroke="rgb(102,102,102)" stroke-width="1" font-size="13" >3</text>
<text x="24.400000" y="151.148881" fill="rgb(255,12,12)"  stroke="rgb(255,12,12)" stroke-width="1" font-size="16" >HO</text>
<text x="180.338739" y="105.459542" fill="rgb(255,0,0)"  stroke="rgb(255,0,0)" stroke-width="1" font-size="12" >1</text>
<text x="200.539601" y="140.996073" fill="rgb(255,0,0)"  stroke="rgb(255,0,0)" stroke-width="1" font-size="12" >2</text>
<text x="180.101157" y="176.396496" fill="rgb(255,0,0)"  stroke="rgb(255,0,0)" stroke-width="1" font-size="12" >3</text>
<text x="200.539601" y="211.796918" fill="rgb(255,0,0)"  stroke="rgb(255,0,0)" stroke-width="1" font-size="12" >4</text>
<text x="180.101157" y="247.197341" fill="rgb(255,0,0)"  stroke="rgb(255,0,0)" stroke-width="1" font-size="12" >5</text>
<text x="241.416488" y="211.796918" fill="rgb(255,0,0)"  stroke="rgb(255,0,0)" stroke-width="1" font-size="12" >6</text>
<text x="199.250534" y="72.230599" fill="rgb(255,0,0)"  stroke="rgb(255,0,0)" stroke-width="1" font-size="12" >7</text>
<text x="180.338739" y="40.000000" fill="rgb(255,0,0)"  stroke="rgb(255,0,0)" stroke-width="1" font-size="12" >8</text>
<text x="142.537839" y="40.000000" fill="rgb(255,0,0)"  stroke="rgb(255,0,0)" stroke-width="1" font-size="12" >9</text>
<text x="104.725594" y="40.000000" fill="rgb(255,0,0)"  stroke="rgb(255,0,0)" stroke-width="1" font-size="12" >10</text>
<text x="85.813799" y="73.228942" fill="rgb(255,0,0)"  stroke="rgb(255,0,0)" stroke-width="1" font-size="12" >11</text>
<text x="44.951144" y="74.307501" fill="rgb(255,0,0)"  stroke="rgb(255,0,0)" stroke-width="1" font-size="12" >12</text>
<text x="104.725594" y="105.459542" fill="rgb(255,0,0)"  stroke="rgb(255,0,0)" stroke-width="1" font-size="12" >13</text>
<text x="104.725594" y="142.828881" fill="rgb(255,0,0)"  stroke="rgb(255,0,0)" stroke-width="1" font-size="12" >14</text>
<text x="72.362797" y="161.513551" fill="rgb(255,0,0)"  stroke="rgb(255,0,0)" stroke-width="1" font-size="12" >15</text>
<text x="53.678127" y="193.876348" fill="rgb(255,0,0)"  stroke="rgb(255,0,0)" stroke-width="1" font-size="12" >16</text>
<text x="91.047467" y="193.876348" fill="rgb(255,0,0)"  stroke="rgb(255,0,0)" stroke-width="1" font-size="12" >17</text>
<text x="40.000000" y="142.828881" fill="rgb(255,0,0)"  stroke="rgb(255,0,0)" stroke-width="1" font-size="12" >18</text>
<text x="142.537839" y="105.459542" fill="rgb(255,0,0)"  stroke="rgb(255,0,0)" stroke-width="1" font-size="12" >19</text>
<text font-size="18.000000" fill ="black" font-family="sans-serif"
x="140.000000" y="20.000000" ></text>
<title> - OBDepict</title>
</svg>
