<?xml version="1.0"?>
<svg xmlns="http://www.w3.org/2000/svg"
xmlns:xlink="http://www.w3.org/1999/xlink" xmlns:cml="http://www.xml-cml.org/schema" width="366.658" height="361.704" x="0" y="0" font-family="sans-serif" stroke="rgb(0,0,0)" stroke-width="1" >
<line x1="311.5" y1="115.7" x2="326.7" y2="142.3"/>
<line x1="326.7" y1="142.3" x2="305.9" y2="178.2"/>
<line x1="305.9" y1="178.2" x2="326.7" y2="214.1"/>
<line x1="326.7" y1="214.1" x2="305.9" y2="250.0"/>
<line x1="305.9" y1="250.0" x2="321.3" y2="276.5"/>
<line x1="321.3" y1="295.2" x2="311.3" y2="312.4"/>
<line x1="210.4" y1="73.7" x2="172.5" y2="73.7"/>
<line x1="172.5" y1="73.7" x2="153.6" y2="106.5"/>
<line x1="153.6" y1="106.5" x2="115.7" y2="106.5"/>
<line x1="115.7" y1="106.5" x2="96.8" y2="139.3"/>
<line x1="96.8" y1="139.3" x2="68.8" y2="139.3"/>
<line x1="54.0" y1="147.8" x2="44.9" y2="163.5"/>
<line x1="229.6" y1="106.3" x2="229.6" y2="144.2"/>
<line x1="229.6" y1="144.2" x2="205.3" y2="158.2"/>
<line x1="229.6" y1="144.2" x2="262.4" y2="163.1"/>
<line x1="262.4" y1="163.1" x2="262.4" y2="191.2"/>
<line x1="311.2" y1="97.6" x2="320.4" y2="81.4"/>
<line x1="320.4" y1="64.2" x2="306.2" y2="40.0"/>
<line x1="313.0" y1="65.9" x2="303.0" y2="48.8"/>
<line x1="306.2" y1="40.0" x2="277.8" y2="40.0"/>
<line x1="267.9" y1="57.2" x2="267.9" y2="106.3"/>
<line x1="267.9" y1="106.3" x2="296.2" y2="106.3"/>
<line x1="224.6" y1="48.8" x2="210.4" y2="73.7"/>
<line x1="229.8" y1="54.2" x2="219.6" y2="72.0"/>
<line x1="210.4" y1="73.7" x2="229.6" y2="106.3"/>
<line x1="229.6" y1="106.3" x2="267.9" y2="106.3"/>
<line x1="257.9" y1="40.0" x2="239.5" y2="40.0"/>
<text x="302.588221" y="114.652027" fill="rgb(12,12,255)"  stroke="rgb(12,12,255)" stroke-width="1" font-size="16" >N</text>
<text x="320.658332" y="294.151256" fill="rgb(12,12,255)"  stroke="rgb(12,12,255)" stroke-width="1" font-size="16" >NH</text>
<text x="282.347472" y="326.503518" fill="rgb(102,102,102)"  stroke="rgb(102,102,102)" stroke-width="1" font-size="16" >H</text>
<text x="294.347472" y="331.303518" fill="rgb(102,102,102)"  stroke="rgb(102,102,102)" stroke-width="1" font-size="13" >3</text>
<text x="300.847472" y="326.503518" fill="rgb(102,102,102)"  stroke="rgb(102,102,102)" stroke-width="1" font-size="16" >C</text>
<text x="319.352084" y="80.980189" fill="rgb(12,12,255)"  stroke="rgb(12,12,255)" stroke-width="1" font-size="16" >N</text>
<text x="261.883487" y="48.320000" fill="rgb(12,12,255)"  stroke="rgb(12,12,255)" stroke-width="1" font-size="16" >N</text>
<text x="225.967257" y="48.320000" fill="rgb(12,12,255)"  stroke="rgb(12,12,255)" stroke-width="1" font-size="16" >N</text>
<text x="43.333710" y="147.580135" fill="rgb(12,12,255)"  stroke="rgb(12,12,255)" stroke-width="1" font-size="16" >HN</text>
<text x="16.400000" y="176.854284" fill="rgb(102,102,102)"  stroke="rgb(102,102,102)" stroke-width="1" font-size="16" >H</text>
<text x="28.400000" y="181.654284" fill="rgb(102,102,102)"  stroke="rgb(102,102,102)" stroke-width="1" font-size="13" >3</text>
<text x="34.900000" y="176.854284" fill="rgb(102,102,102)"  stroke="rgb(102,102,102)" stroke-width="1" font-size="16" >C</text>
<text x="181.173109" y="167.933158" fill="rgb(255,12,12)"  stroke="rgb(255,12,12)" stroke-width="1" font-size="16" >HO</text>
<text x="256.361405" y="205.800579" fill="rgb(102,102,102)"  stroke="rgb(102,102,102)" stroke-width="1" font-size="16" >CH</text>
<text x="280.361405" y="210.600579" fill="rgb(102,102,102)"  stroke="rgb(102,102,102)" stroke-width="1" font-size="13" >3</text>
<text x="306.188221" y="106.332027" fill="rgb(255,0,0)"  stroke="rgb(255,0,0)" stroke-width="1" font-size="12" >1</text>
<text x="326.658332" y="142.342211" fill="rgb(255,0,0)"  stroke="rgb(255,0,0)" stroke-width="1" font-size="12" >2</text>
<text x="305.947472" y="178.214473" fill="rgb(255,0,0)"  stroke="rgb(255,0,0)" stroke-width="1" font-size="12" >3</text>
<text x="326.658332" y="214.086734" fill="rgb(255,0,0)"  stroke="rgb(255,0,0)" stroke-width="1" font-size="12" >4</text>
<text x="305.947472" y="249.958995" fill="rgb(255,0,0)"  stroke="rgb(255,0,0)" stroke-width="1" font-size="12" >5</text>
<text x="326.658332" y="285.831256" fill="rgb(255,0,0)"  stroke="rgb(255,0,0)" stroke-width="1" font-size="12" >6</text>
<text x="305.947472" y="321.703518" fill="rgb(255,0,0)"  stroke="rgb(255,0,0)" stroke-width="1" font-size="12" >7</text>
<text x="325.352084" y="72.660189" fill="rgb(255,0,0)"  stroke="rgb(255,0,0)" stroke-width="1" font-size="12" >8</text>
<text x="306.188221" y="40.000000" fill="rgb(255,0,0)"  stroke="rgb(255,0,0)" stroke-width="1" font-size="12" >9</text>
<text x="267.883487" y="40.000000" fill="rgb(255,0,0)"  stroke="rgb(255,0,0)" stroke-width="1" font-size="12" >10</text>
<text x="229.567257" y="40.000000" fill="rgb(255,0,0)"  stroke="rgb(255,0,0)" stroke-width="1" font-size="12" >11</text>
<text x="210.403394" y="73.671838" fill="rgb(255,0,0)"  stroke="rgb(255,0,0)" stroke-width="1" font-size="12" >12</text>
<text x="172.535973" y="73.671838" fill="rgb(255,0,0)"  stroke="rgb(255,0,0)" stroke-width="1" font-size="12" >13</text>
<text x="153.602263" y="106.465987" fill="rgb(255,0,0)"  stroke="rgb(255,0,0)" stroke-width="1" font-size="12" >14</text>
<text x="115.734842" y="106.465987" fill="rgb(255,0,0)"  stroke="rgb(255,0,0)" stroke-width="1" font-size="12" >15</text>
<text x="96.801131" y="139.260135" fill="rgb(255,0,0)"  stroke="rgb(255,0,0)" stroke-width="1" font-size="12" >16</text>
<text x="58.933710" y="139.260135" fill="rgb(255,0,0)"  stroke="rgb(255,0,0)" stroke-width="1" font-size="12" >17</text>
<text x="40.000000" y="172.054284" fill="rgb(255,0,0)"  stroke="rgb(255,0,0)" stroke-width="1" font-size="12" >18</text>
<text x="229.567257" y="106.332027" fill="rgb(255,0,0)"  stroke="rgb(255,0,0)" stroke-width="1" font-size="12" >19</text>
<text x="229.567257" y="144.199448" fill="rgb(255,0,0)"  stroke="rgb(255,0,0)" stroke-width="1" font-size="12" >20</text>
<text x="196.773109" y="163.133158" fill="rgb(255,0,0)"  stroke="rgb(255,0,0)" stroke-width="1" font-size="12" >21</text>
<text x="262.361405" y="163.133158" fill="rgb(255,0,0)"  stroke="rgb(255,0,0)" stroke-width="1" font-size="12" >22</text>
<text x="262.361405" y="201.000579" fill="rgb(255,0,0)"  stroke="rgb(255,0,0)" stroke-width="1" font-size="12" >23</text>
<text x="267.883487" y="106.332027" fill="rgb(255,0,0)"  stroke="rgb(255,0,0)" stroke-width="1" font-size="12" >24</text>
<text font-size="18.000000" fill ="black" font-family="sans-serif"
x="140.000000" y="20.000000" ></text>
<title> - OBDepict</title>
</svg>
