<?xml version="1.0"?>
<svg xmlns="http://www.w3.org/2000/svg"
xmlns:xlink="http://www.w3.org/1999/xlink" xmlns:cml="http://www.xml-cml.org/schema" width="235.968" height="258.001" x="0" y="0" font-family="sans-serif" stroke="rgb(0,0,0)" stroke-width="1" >
<line x1="181.0" y1="114.9" x2="196.0" y2="141.2"/>
<line x1="196.0" y1="141.2" x2="180.8" y2="167.5"/>
<line x1="180.8" y1="186.0" x2="190.6" y2="203.0"/>
<line x1="81.0" y1="73.3" x2="50.7" y2="74.1"/>
<line x1="99.9" y1="105.6" x2="99.9" y2="133.3"/>
<line x1="108.4" y1="147.9" x2="132.4" y2="161.8"/>
<line x1="132.4" y1="161.8" x2="132.4" y2="199.3"/>
<line x1="132.4" y1="199.3" x2="108.4" y2="213.1"/>
<line x1="132.4" y1="199.3" x2="156.4" y2="213.1"/>
<line x1="180.6" y1="97.0" x2="189.7" y2="81.0"/>
<line x1="189.7" y1="63.9" x2="175.7" y2="40.0"/>
<line x1="182.4" y1="65.6" x2="172.5" y2="48.8"/>
<line x1="175.7" y1="40.0" x2="147.7" y2="40.0"/>
<line x1="137.8" y1="57.1" x2="137.8" y2="105.6"/>
<line x1="137.8" y1="105.6" x2="165.9" y2="105.6"/>
<line x1="95.0" y1="48.7" x2="81.0" y2="73.3"/>
<line x1="100.2" y1="54.1" x2="90.2" y2="71.7"/>
<line x1="81.0" y1="73.3" x2="99.9" y2="105.6"/>
<line x1="99.9" y1="105.6" x2="137.8" y2="105.6"/>
<line x1="128.0" y1="40.0" x2="109.8" y2="40.0"/>
<text x="172.118177" y="113.939377" fill="rgb(12,12,255)"  stroke="rgb(12,12,255)" stroke-width="1" font-size="16" >N</text>
<text x="159.880015" y="181.529541" fill="rgb(12,12,255)"  stroke="rgb(12,12,255)" stroke-width="1" font-size="16" >HN</text>
<text x="189.968364" y="217.016402" fill="rgb(102,102,102)"  stroke="rgb(102,102,102)" stroke-width="1" font-size="16" >CH</text>
<text x="213.968364" y="221.816402" fill="rgb(102,102,102)"  stroke="rgb(102,102,102)" stroke-width="1" font-size="13" >3</text>
<text x="188.676149" y="80.629298" fill="rgb(12,12,255)"  stroke="rgb(12,12,255)" stroke-width="1" font-size="16" >N</text>
<text x="131.824977" y="48.320000" fill="rgb(12,12,255)"  stroke="rgb(12,12,255)" stroke-width="1" font-size="16" >N</text>
<text x="96.320404" y="48.320000" fill="rgb(12,12,255)"  stroke="rgb(12,12,255)" stroke-width="1" font-size="16" >N</text>
<text x="24.400000" y="79.191271" fill="rgb(124,127,175)"  stroke="rgb(124,127,175)" stroke-width="1" font-size="16" >R</text>
<text x="84.320404" y="147.879963" fill="rgb(12,12,255)"  stroke="rgb(12,12,255)" stroke-width="1" font-size="16" >HN</text>
<text x="84.320404" y="222.801134" fill="rgb(255,12,12)"  stroke="rgb(255,12,12)" stroke-width="1" font-size="16" >HO</text>
<text x="158.804042" y="222.801134" fill="rgb(102,102,102)"  stroke="rgb(102,102,102)" stroke-width="1" font-size="16" >CH</text>
<text x="182.804042" y="227.601134" fill="rgb(102,102,102)"  stroke="rgb(102,102,102)" stroke-width="1" font-size="13" >3</text>
<text x="175.718177" y="105.619377" fill="rgb(255,0,0)"  stroke="rgb(255,0,0)" stroke-width="1" font-size="12" >1</text>
<text x="195.968364" y="141.242680" fill="rgb(255,0,0)"  stroke="rgb(255,0,0)" stroke-width="1" font-size="12" >2</text>
<text x="175.480015" y="176.729541" fill="rgb(255,0,0)"  stroke="rgb(255,0,0)" stroke-width="1" font-size="12" >3</text>
<text x="195.968364" y="212.216402" fill="rgb(255,0,0)"  stroke="rgb(255,0,0)" stroke-width="1" font-size="12" >4</text>
<text x="194.676149" y="72.309298" fill="rgb(255,0,0)"  stroke="rgb(255,0,0)" stroke-width="1" font-size="12" >5</text>
<text x="175.718177" y="40.000000" fill="rgb(255,0,0)"  stroke="rgb(255,0,0)" stroke-width="1" font-size="12" >6</text>
<text x="137.824977" y="40.000000" fill="rgb(255,0,0)"  stroke="rgb(255,0,0)" stroke-width="1" font-size="12" >7</text>
<text x="99.920404" y="40.000000" fill="rgb(255,0,0)"  stroke="rgb(255,0,0)" stroke-width="1" font-size="12" >8</text>
<text x="80.962431" y="73.310079" fill="rgb(255,0,0)"  stroke="rgb(255,0,0)" stroke-width="1" font-size="12" >9</text>
<text x="40.000000" y="74.391271" fill="rgb(255,0,0)"  stroke="rgb(255,0,0)" stroke-width="1" font-size="12" >10</text>
<text x="99.920404" y="105.619377" fill="rgb(255,0,0)"  stroke="rgb(255,0,0)" stroke-width="1" font-size="12" >11</text>
<text x="99.920404" y="143.079963" fill="rgb(255,0,0)"  stroke="rgb(255,0,0)" stroke-width="1" font-size="12" >12</text>
<text x="132.362223" y="161.810256" fill="rgb(255,0,0)"  stroke="rgb(255,0,0)" stroke-width="1" font-size="12" >13</text>
<text x="132.362223" y="199.270841" fill="rgb(255,0,0)"  stroke="rgb(255,0,0)" stroke-width="1" font-size="12" >14</text>
<text x="99.920404" y="218.001134" fill="rgb(255,0,0)"  stroke="rgb(255,0,0)" stroke-width="1" font-size="12" >15</text>
<text x="164.804042" y="218.001134" fill="rgb(255,0,0)"  stroke="rgb(255,0,0)" stroke-width="1" font-size="12" >16</text>
<text x="137.824977" y="105.619377" fill="rgb(255,0,0)"  stroke="rgb(255,0,0)" stroke-width="1" font-size="12" >17</text>
<text font-size="18.000000" fill ="black" font-family="sans-serif"
x="140.000000" y="20.000000" ></text>
<title> - OBDepict</title>
</svg>
