<?xml version="1.0"?>
<svg xmlns="http://www.w3.org/2000/svg"
xmlns:xlink="http://www.w3.org/1999/xlink" xmlns:cml="http://www.xml-cml.org/schema" width="311.372" height="261.12" x="0" y="0" font-family="sans-serif" stroke="rgb(0,0,0)" stroke-width="1" >
<line x1="256.1" y1="116.2" x2="266.0" y2="133.6"/>
<line x1="154.4" y1="73.9" x2="116.2" y2="73.9"/>
<line x1="116.2" y1="73.9" x2="102.1" y2="98.3"/>
<line x1="87.3" y1="106.9" x2="59.1" y2="106.9"/>
<line x1="59.1" y1="106.9" x2="45.0" y2="82.5"/>
<line x1="59.1" y1="106.9" x2="45.0" y2="131.3"/>
<line x1="173.6" y1="106.8" x2="173.6" y2="144.9"/>
<line x1="173.6" y1="144.9" x2="206.7" y2="163.9"/>
<line x1="206.7" y1="163.9" x2="206.7" y2="202.1"/>
<line x1="206.7" y1="202.1" x2="231.1" y2="216.2"/>
<line x1="255.8" y1="98.0" x2="265.0" y2="81.7"/>
<line x1="265.0" y1="64.3" x2="250.8" y2="40.0"/>
<line x1="257.7" y1="66.1" x2="247.6" y2="48.8"/>
<line x1="250.8" y1="40.0" x2="222.2" y2="40.0"/>
<line x1="212.2" y1="57.4" x2="212.2" y2="106.8"/>
<line x1="212.2" y1="106.8" x2="240.7" y2="106.8"/>
<line x1="168.6" y1="48.8" x2="154.4" y2="73.9"/>
<line x1="173.8" y1="54.2" x2="163.6" y2="72.2"/>
<line x1="154.4" y1="73.9" x2="173.6" y2="106.8"/>
<line x1="173.6" y1="106.8" x2="212.2" y2="106.8"/>
<line x1="202.2" y1="40.0" x2="183.7" y2="40.0"/>
<text x="247.167064" y="115.089191" fill="rgb(12,12,255)"  stroke="rgb(12,12,255)" stroke-width="1" font-size="16" >N</text>
<text x="265.372085" y="147.816702" fill="rgb(124,127,175)"  stroke="rgb(124,127,175)" stroke-width="1" font-size="16" >R</text>
<text x="264.057227" y="81.195437" fill="rgb(12,12,255)"  stroke="rgb(12,12,255)" stroke-width="1" font-size="16" >N</text>
<text x="206.209881" y="48.320000" fill="rgb(12,12,255)"  stroke="rgb(12,12,255)" stroke-width="1" font-size="16" >N</text>
<text x="170.041126" y="48.320000" fill="rgb(12,12,255)"  stroke="rgb(12,12,255)" stroke-width="1" font-size="16" >N</text>
<text x="91.175482" y="111.704034" fill="rgb(255,12,12)"  stroke="rgb(255,12,12)" stroke-width="1" font-size="16" >O</text>
<text x="16.400000" y="82.213754" fill="rgb(102,102,102)"  stroke="rgb(102,102,102)" stroke-width="1" font-size="16" >H</text>
<text x="28.400000" y="89.893754" fill="rgb(102,102,102)"  stroke="rgb(102,102,102)" stroke-width="1" font-size="13" >3</text>
<text x="34.900000" y="82.213754" fill="rgb(102,102,102)"  stroke="rgb(102,102,102)" stroke-width="1" font-size="16" >C</text>
<text x="16.400000" y="144.714313" fill="rgb(102,102,102)"  stroke="rgb(102,102,102)" stroke-width="1" font-size="16" >H</text>
<text x="28.400000" y="149.514313" fill="rgb(102,102,102)"  stroke="rgb(102,102,102)" stroke-width="1" font-size="13" >3</text>
<text x="34.900000" y="144.714313" fill="rgb(102,102,102)"  stroke="rgb(102,102,102)" stroke-width="1" font-size="16" >C</text>
<text x="233.661686" y="225.920154" fill="rgb(102,102,102)"  stroke="rgb(102,102,102)" stroke-width="1" font-size="16" >CH</text>
<text x="257.661686" y="230.720154" fill="rgb(102,102,102)"  stroke="rgb(102,102,102)" stroke-width="1" font-size="13" >3</text>
<text x="250.767064" y="106.769191" fill="rgb(255,0,0)"  stroke="rgb(255,0,0)" stroke-width="1" font-size="12" >1</text>
<text x="271.372085" y="143.016702" fill="rgb(255,0,0)"  stroke="rgb(255,0,0)" stroke-width="1" font-size="12" >2</text>
<text x="270.057227" y="72.875437" fill="rgb(255,0,0)"  stroke="rgb(255,0,0)" stroke-width="1" font-size="12" >3</text>
<text x="250.767064" y="40.000000" fill="rgb(255,0,0)"  stroke="rgb(255,0,0)" stroke-width="1" font-size="12" >4</text>
<text x="212.209881" y="40.000000" fill="rgb(255,0,0)"  stroke="rgb(255,0,0)" stroke-width="1" font-size="12" >5</text>
<text x="173.641126" y="40.000000" fill="rgb(255,0,0)"  stroke="rgb(255,0,0)" stroke-width="1" font-size="12" >6</text>
<text x="154.350963" y="73.893754" fill="rgb(255,0,0)"  stroke="rgb(255,0,0)" stroke-width="1" font-size="12" >7</text>
<text x="116.233976" y="73.893754" fill="rgb(255,0,0)"  stroke="rgb(255,0,0)" stroke-width="1" font-size="12" >8</text>
<text x="97.175482" y="106.904034" fill="rgb(255,0,0)"  stroke="rgb(255,0,0)" stroke-width="1" font-size="12" >9</text>
<text x="59.058494" y="106.904034" fill="rgb(255,0,0)"  stroke="rgb(255,0,0)" stroke-width="1" font-size="12" >10</text>
<text x="40.000000" y="73.893754" fill="rgb(255,0,0)"  stroke="rgb(255,0,0)" stroke-width="1" font-size="12" >11</text>
<text x="40.000000" y="139.914313" fill="rgb(255,0,0)"  stroke="rgb(255,0,0)" stroke-width="1" font-size="12" >12</text>
<text x="173.641126" y="106.769191" fill="rgb(255,0,0)"  stroke="rgb(255,0,0)" stroke-width="1" font-size="12" >13</text>
<text x="173.641126" y="144.886179" fill="rgb(255,0,0)"  stroke="rgb(255,0,0)" stroke-width="1" font-size="12" >14</text>
<text x="206.651406" y="163.944673" fill="rgb(255,0,0)"  stroke="rgb(255,0,0)" stroke-width="1" font-size="12" >15</text>
<text x="206.651406" y="202.061660" fill="rgb(255,0,0)"  stroke="rgb(255,0,0)" stroke-width="1" font-size="12" >16</text>
<text x="239.661686" y="221.120154" fill="rgb(255,0,0)"  stroke="rgb(255,0,0)" stroke-width="1" font-size="12" >17</text>
<text x="212.209881" y="106.769191" fill="rgb(255,0,0)"  stroke="rgb(255,0,0)" stroke-width="1" font-size="12" >18</text>
<text font-size="18.000000" fill ="black" font-family="sans-serif"
x="140.000000" y="20.000000" ></text>
<title> - OBDepict</title>
</svg>
