<?xml version="1.0"?>
<svg xmlns="http://www.w3.org/2000/svg"
xmlns:xlink="http://www.w3.org/1999/xlink" xmlns:cml="http://www.xml-cml.org/schema" width="372.923" height="241.785" x="0" y="0" font-family="sans-serif" stroke="rgb(0,0,0)" stroke-width="1" >
<line x1="255.8" y1="116.1" x2="271.0" y2="142.8"/>
<line x1="271.0" y1="142.8" x2="301.8" y2="143.3"/>
<line x1="317.9" y1="152.8" x2="327.6" y2="170.3"/>
<line x1="154.2" y1="73.8" x2="116.1" y2="73.8"/>
<line x1="116.1" y1="73.8" x2="97.1" y2="106.8"/>
<line x1="97.1" y1="106.8" x2="59.0" y2="106.8"/>
<line x1="56.4" y1="108.3" x2="42.3" y2="83.9"/>
<line x1="61.6" y1="105.3" x2="47.5" y2="80.9"/>
<line x1="59.0" y1="106.8" x2="44.9" y2="131.2"/>
<line x1="173.4" y1="106.7" x2="173.4" y2="144.7"/>
<line x1="173.4" y1="144.7" x2="206.4" y2="163.7"/>
<line x1="209.4" y1="163.7" x2="209.4" y2="191.9"/>
<line x1="203.4" y1="163.7" x2="203.4" y2="191.9"/>
<line x1="206.4" y1="163.7" x2="239.3" y2="144.7"/>
<line x1="239.3" y1="144.7" x2="263.7" y2="158.8"/>
<line x1="255.4" y1="97.9" x2="264.7" y2="81.6"/>
<line x1="264.7" y1="64.3" x2="250.4" y2="40.0"/>
<line x1="257.3" y1="66.0" x2="247.2" y2="48.8"/>
<line x1="250.4" y1="40.0" x2="221.9" y2="40.0"/>
<line x1="211.9" y1="57.3" x2="211.9" y2="106.7"/>
<line x1="211.9" y1="106.7" x2="240.4" y2="106.7"/>
<line x1="168.4" y1="48.8" x2="154.2" y2="73.8"/>
<line x1="173.6" y1="54.2" x2="163.4" y2="72.2"/>
<line x1="154.2" y1="73.8" x2="173.4" y2="106.7"/>
<line x1="173.4" y1="106.7" x2="211.9" y2="106.7"/>
<line x1="201.9" y1="40.0" x2="183.4" y2="40.0"/>
<text x="246.806883" y="114.975089" fill="rgb(12,12,255)"  stroke="rgb(12,12,255)" stroke-width="1" font-size="16" >N</text>
<text x="306.596416" y="151.718257" fill="rgb(12,12,255)"  stroke="rgb(12,12,255)" stroke-width="1" font-size="16" >NH</text>
<text x="326.923381" y="184.520796" fill="rgb(102,102,102)"  stroke="rgb(102,102,102)" stroke-width="1" font-size="16" >CH</text>
<text x="350.923381" y="189.320796" fill="rgb(102,102,102)"  stroke="rgb(102,102,102)" stroke-width="1" font-size="13" >3</text>
<text x="263.664081" y="81.139256" fill="rgb(12,12,255)"  stroke="rgb(12,12,255)" stroke-width="1" font-size="16" >N</text>
<text x="205.915591" y="48.320000" fill="rgb(12,12,255)"  stroke="rgb(12,12,255)" stroke-width="1" font-size="16" >N</text>
<text x="169.812747" y="48.320000" fill="rgb(12,12,255)"  stroke="rgb(12,12,255)" stroke-width="1" font-size="16" >N</text>
<text x="36.400000" y="82.155833" fill="rgb(255,12,12)"  stroke="rgb(255,12,12)" stroke-width="1" font-size="16" >O</text>
<text x="16.400000" y="144.543569" fill="rgb(102,102,102)"  stroke="rgb(102,102,102)" stroke-width="1" font-size="16" >H</text>
<text x="28.400000" y="149.343569" fill="rgb(102,102,102)"  stroke="rgb(102,102,102)" stroke-width="1" font-size="13" >3</text>
<text x="34.900000" y="144.543569" fill="rgb(102,102,102)"  stroke="rgb(102,102,102)" stroke-width="1" font-size="16" >C</text>
<text x="200.366615" y="206.584713" fill="rgb(255,12,12)"  stroke="rgb(255,12,12)" stroke-width="1" font-size="16" >O</text>
<text x="266.274352" y="168.532863" fill="rgb(102,102,102)"  stroke="rgb(102,102,102)" stroke-width="1" font-size="16" >CH</text>
<text x="290.274352" y="173.332863" fill="rgb(102,102,102)"  stroke="rgb(102,102,102)" stroke-width="1" font-size="13" >3</text>
<text x="250.406883" y="106.655089" fill="rgb(255,0,0)"  stroke="rgb(255,0,0)" stroke-width="1" font-size="12" >1</text>
<text x="270.976692" y="142.840656" fill="rgb(255,0,0)"  stroke="rgb(255,0,0)" stroke-width="1" font-size="12" >2</text>
<text x="312.596416" y="143.398257" fill="rgb(255,0,0)"  stroke="rgb(255,0,0)" stroke-width="1" font-size="12" >3</text>
<text x="332.923381" y="179.720796" fill="rgb(255,0,0)"  stroke="rgb(255,0,0)" stroke-width="1" font-size="12" >4</text>
<text x="269.664081" y="72.819256" fill="rgb(255,0,0)"  stroke="rgb(255,0,0)" stroke-width="1" font-size="12" >5</text>
<text x="250.406883" y="40.000000" fill="rgb(255,0,0)"  stroke="rgb(255,0,0)" stroke-width="1" font-size="12" >6</text>
<text x="211.915591" y="40.000000" fill="rgb(255,0,0)"  stroke="rgb(255,0,0)" stroke-width="1" font-size="12" >7</text>
<text x="173.412747" y="40.000000" fill="rgb(255,0,0)"  stroke="rgb(255,0,0)" stroke-width="1" font-size="12" >8</text>
<text x="154.155548" y="73.835833" fill="rgb(255,0,0)"  stroke="rgb(255,0,0)" stroke-width="1" font-size="12" >9</text>
<text x="116.103699" y="73.835833" fill="rgb(255,0,0)"  stroke="rgb(255,0,0)" stroke-width="1" font-size="12" >10</text>
<text x="97.077774" y="106.789701" fill="rgb(255,0,0)"  stroke="rgb(255,0,0)" stroke-width="1" font-size="12" >11</text>
<text x="59.025925" y="106.789701" fill="rgb(255,0,0)"  stroke="rgb(255,0,0)" stroke-width="1" font-size="12" >12</text>
<text x="40.000000" y="73.835833" fill="rgb(255,0,0)"  stroke="rgb(255,0,0)" stroke-width="1" font-size="12" >13</text>
<text x="40.000000" y="139.743569" fill="rgb(255,0,0)"  stroke="rgb(255,0,0)" stroke-width="1" font-size="12" >14</text>
<text x="173.412747" y="106.655089" fill="rgb(255,0,0)"  stroke="rgb(255,0,0)" stroke-width="1" font-size="12" >15</text>
<text x="173.412747" y="144.706938" fill="rgb(255,0,0)"  stroke="rgb(255,0,0)" stroke-width="1" font-size="12" >16</text>
<text x="206.366615" y="163.732863" fill="rgb(255,0,0)"  stroke="rgb(255,0,0)" stroke-width="1" font-size="12" >17</text>
<text x="206.366615" y="201.784713" fill="rgb(255,0,0)"  stroke="rgb(255,0,0)" stroke-width="1" font-size="12" >18</text>
<text x="239.320483" y="144.706938" fill="rgb(255,0,0)"  stroke="rgb(255,0,0)" stroke-width="1" font-size="12" >19</text>
<text x="272.274352" y="163.732863" fill="rgb(255,0,0)"  stroke="rgb(255,0,0)" stroke-width="1" font-size="12" >20</text>
<text x="211.915591" y="106.655089" fill="rgb(255,0,0)"  stroke="rgb(255,0,0)" stroke-width="1" font-size="12" >21</text>
<text font-size="18.000000" fill ="black" font-family="sans-serif"
x="140.000000" y="20.000000" ></text>
<title> - OBDepict</title>
</svg>
