<?xml version="1.0"?>
<svg xmlns="http://www.w3.org/2000/svg"
xmlns:xlink="http://www.w3.org/1999/xlink" xmlns:cml="http://www.xml-cml.org/schema" x="0" y="0" font-family="sans-serif" stroke="rgb(0,0,0)" stroke-width="1" viewBox="0 0 287.241 356.785" width="229.7928" height="285.428">
<line x1="232.4" y1="114.4" x2="247.2" y2="140.6"/>
<line x1="247.2" y1="140.6" x2="226.9" y2="175.8"/>
<line x1="226.9" y1="175.8" x2="247.2" y2="211.0"/>
<line x1="247.2" y1="211.0" x2="226.9" y2="246.3"/>
<line x1="226.9" y1="246.3" x2="241.9" y2="272.4"/>
<line x1="241.9" y1="290.7" x2="232.2" y2="307.6"/>
<line x1="133.0" y1="73.1" x2="95.8" y2="73.1"/>
<line x1="95.8" y1="73.1" x2="82.0" y2="49.2"/>
<line x1="95.8" y1="73.1" x2="77.2" y2="105.3"/>
<line x1="77.2" y1="105.3" x2="49.7" y2="105.3"/>
<line x1="151.8" y1="105.2" x2="136.6" y2="131.2"/>
<line x1="232.0" y1="96.6" x2="241.1" y2="80.7"/>
<line x1="241.1" y1="63.7" x2="227.1" y2="40.0"/>
<line x1="233.7" y1="65.4" x2="224.0" y2="48.8"/>
<line x1="227.1" y1="40.0" x2="199.3" y2="40.0"/>
<line x1="189.5" y1="56.9" x2="189.5" y2="105.2"/>
<line x1="189.5" y1="105.2" x2="217.3" y2="105.2"/>
<line x1="146.9" y1="48.6" x2="133.0" y2="73.1"/>
<line x1="152.1" y1="54.1" x2="142.2" y2="71.4"/>
<line x1="133.0" y1="73.1" x2="151.8" y2="105.2"/>
<line x1="151.8" y1="105.2" x2="189.5" y2="105.2"/>
<line x1="179.7" y1="40.0" x2="161.6" y2="40.0"/>
<text x="223.527838" y="113.493791" fill="rgb(12,12,255)"  stroke="rgb(12,12,255)" stroke-width="1" font-size="16" >N</text>
<text x="241.240517" y="286.338752" fill="rgb(12,12,255)"  stroke="rgb(12,12,255)" stroke-width="1" font-size="16" >NH</text>
<text x="203.291293" y="321.584641" fill="rgb(102,102,102)"  stroke="rgb(102,102,102)" stroke-width="1" font-size="16" >H</text>
<text x="215.291293" y="326.384641" fill="rgb(102,102,102)"  stroke="rgb(102,102,102)" stroke-width="1" font-size="13" >3</text>
<text x="221.791293" y="321.584641" fill="rgb(102,102,102)"  stroke="rgb(102,102,102)" stroke-width="1" font-size="16" >C</text>
<text x="239.957077" y="80.409903" fill="rgb(12,12,255)"  stroke="rgb(12,12,255)" stroke-width="1" font-size="16" >N</text>
<text x="183.491950" y="48.320000" fill="rgb(12,12,255)"  stroke="rgb(12,12,255)" stroke-width="1" font-size="16" >N</text>
<text x="148.244767" y="48.320000" fill="rgb(12,12,255)"  stroke="rgb(12,12,255)" stroke-width="1" font-size="16" >N</text>
<text x="61.606211" y="49.182364" fill="rgb(255,12,12)"  stroke="rgb(255,12,12)" stroke-width="1" font-size="16" >HO</text>
<text x="16.400000" y="110.105412" fill="rgb(102,102,102)"  stroke="rgb(102,102,102)" stroke-width="1" font-size="16" >H</text>
<text x="28.400000" y="114.905412" fill="rgb(102,102,102)"  stroke="rgb(102,102,102)" stroke-width="1" font-size="13" >3</text>
<text x="34.900000" y="110.105412" fill="rgb(102,102,102)"  stroke="rgb(102,102,102)" stroke-width="1" font-size="16" >C</text>
<text x="115.657377" y="145.081098" fill="rgb(124,127,175)"  stroke="rgb(124,127,175)" stroke-width="1" font-size="16" >R</text>
<text x="227.127838" y="105.173791" fill="rgb(255,0,0)"  stroke="rgb(255,0,0)" stroke-width="1" font-size="12" >1</text>
<text x="247.240517" y="140.555195" fill="rgb(255,0,0)"  stroke="rgb(255,0,0)" stroke-width="1" font-size="12" >2</text>
<text x="226.891293" y="175.801085" fill="rgb(255,0,0)"  stroke="rgb(255,0,0)" stroke-width="1" font-size="12" >3</text>
<text x="247.240517" y="211.046974" fill="rgb(255,0,0)"  stroke="rgb(255,0,0)" stroke-width="1" font-size="12" >4</text>
<text x="226.891293" y="246.292863" fill="rgb(255,0,0)"  stroke="rgb(255,0,0)" stroke-width="1" font-size="12" >5</text>
<text x="247.240517" y="281.538752" fill="rgb(255,0,0)"  stroke="rgb(255,0,0)" stroke-width="1" font-size="12" >6</text>
<text x="226.891293" y="316.784641" fill="rgb(255,0,0)"  stroke="rgb(255,0,0)" stroke-width="1" font-size="12" >7</text>
<text x="245.957077" y="72.089903" fill="rgb(255,0,0)"  stroke="rgb(255,0,0)" stroke-width="1" font-size="12" >8</text>
<text x="227.127838" y="40.000000" fill="rgb(255,0,0)"  stroke="rgb(255,0,0)" stroke-width="1" font-size="12" >9</text>
<text x="189.491950" y="40.000000" fill="rgb(255,0,0)"  stroke="rgb(255,0,0)" stroke-width="1" font-size="12" >10</text>
<text x="151.844767" y="40.000000" fill="rgb(255,0,0)"  stroke="rgb(255,0,0)" stroke-width="1" font-size="12" >11</text>
<text x="133.015528" y="73.083888" fill="rgb(255,0,0)"  stroke="rgb(255,0,0)" stroke-width="1" font-size="12" >12</text>
<text x="95.809317" y="73.083888" fill="rgb(255,0,0)"  stroke="rgb(255,0,0)" stroke-width="1" font-size="12" >13</text>
<text x="77.206211" y="40.862364" fill="rgb(255,0,0)"  stroke="rgb(255,0,0)" stroke-width="1" font-size="12" >14</text>
<text x="77.206211" y="105.305412" fill="rgb(255,0,0)"  stroke="rgb(255,0,0)" stroke-width="1" font-size="12" >15</text>
<text x="40.000000" y="105.305412" fill="rgb(255,0,0)"  stroke="rgb(255,0,0)" stroke-width="1" font-size="12" >16</text>
<text x="151.844767" y="105.173791" fill="rgb(255,0,0)"  stroke="rgb(255,0,0)" stroke-width="1" font-size="12" >17</text>
<text x="131.257377" y="140.281098" fill="rgb(255,0,0)"  stroke="rgb(255,0,0)" stroke-width="1" font-size="12" >18</text>
<text x="189.491950" y="105.173791" fill="rgb(255,0,0)"  stroke="rgb(255,0,0)" stroke-width="1" font-size="12" >19</text>
<text font-size="18.000000" fill ="black" font-family="sans-serif"
x="140.000000" y="20.000000" ></text>
<title> - OBDepict</title>
</svg>
