<?xml version="1.0"?>
<svg xmlns="http://www.w3.org/2000/svg"
xmlns:xlink="http://www.w3.org/1999/xlink" xmlns:cml="http://www.xml-cml.org/schema" width="240.932" height="252.216" x="0" y="0" font-family="sans-serif" stroke="rgb(0,0,0)" stroke-width="1" >
<line x1="185.9" y1="114.9" x2="195.7" y2="132.0"/>
<line x1="195.6" y1="150.5" x2="180.4" y2="176.7"/>
<line x1="180.4" y1="176.7" x2="195.6" y2="203.0"/>
<line x1="85.9" y1="73.3" x2="55.6" y2="74.1"/>
<line x1="104.9" y1="105.6" x2="104.9" y2="143.1"/>
<line x1="104.9" y1="143.1" x2="72.4" y2="161.8"/>
<line x1="72.4" y1="161.8" x2="58.6" y2="185.8"/>
<line x1="72.4" y1="161.8" x2="86.3" y2="185.8"/>
<line x1="72.4" y1="161.8" x2="48.4" y2="147.9"/>
<line x1="185.6" y1="97.0" x2="194.7" y2="81.0"/>
<line x1="194.7" y1="63.9" x2="180.7" y2="40.0"/>
<line x1="187.4" y1="65.6" x2="177.5" y2="48.8"/>
<line x1="180.7" y1="40.0" x2="152.6" y2="40.0"/>
<line x1="142.8" y1="57.1" x2="142.8" y2="105.6"/>
<line x1="142.8" y1="105.6" x2="170.8" y2="105.6"/>
<line x1="100.0" y1="48.7" x2="85.9" y2="73.3"/>
<line x1="105.1" y1="54.1" x2="95.2" y2="71.7"/>
<line x1="85.9" y1="73.3" x2="104.9" y2="105.6"/>
<line x1="104.9" y1="105.6" x2="142.8" y2="105.6"/>
<line x1="132.9" y1="40.0" x2="114.7" y2="40.0"/>
<text x="177.081410" y="113.939377" fill="rgb(12,12,255)"  stroke="rgb(12,12,255)" stroke-width="1" font-size="16" >N</text>
<text x="194.931598" y="146.042680" fill="rgb(12,12,255)"  stroke="rgb(12,12,255)" stroke-width="1" font-size="16" >NH</text>
<text x="194.931598" y="217.016402" fill="rgb(102,102,102)"  stroke="rgb(102,102,102)" stroke-width="1" font-size="16" >CH</text>
<text x="218.931598" y="221.816402" fill="rgb(102,102,102)"  stroke="rgb(102,102,102)" stroke-width="1" font-size="13" >3</text>
<text x="193.639383" y="80.629298" fill="rgb(12,12,255)"  stroke="rgb(12,12,255)" stroke-width="1" font-size="16" >N</text>
<text x="136.788210" y="48.320000" fill="rgb(12,12,255)"  stroke="rgb(12,12,255)" stroke-width="1" font-size="16" >N</text>
<text x="101.283638" y="48.320000" fill="rgb(12,12,255)"  stroke="rgb(12,12,255)" stroke-width="1" font-size="16" >N</text>
<text x="29.363234" y="79.191271" fill="rgb(124,127,175)"  stroke="rgb(124,127,175)" stroke-width="1" font-size="16" >R</text>
<text x="30.111526" y="199.052074" fill="rgb(102,102,102)"  stroke="rgb(102,102,102)" stroke-width="1" font-size="16" >H</text>
<text x="42.111526" y="203.852074" fill="rgb(102,102,102)"  stroke="rgb(102,102,102)" stroke-width="1" font-size="13" >3</text>
<text x="48.611526" y="199.052074" fill="rgb(102,102,102)"  stroke="rgb(102,102,102)" stroke-width="1" font-size="16" >C</text>
<text x="85.172112" y="199.052074" fill="rgb(102,102,102)"  stroke="rgb(102,102,102)" stroke-width="1" font-size="16" >CH</text>
<text x="109.172112" y="203.852074" fill="rgb(102,102,102)"  stroke="rgb(102,102,102)" stroke-width="1" font-size="13" >3</text>
<text x="24.400000" y="151.399963" fill="rgb(255,12,12)"  stroke="rgb(255,12,12)" stroke-width="1" font-size="16" >HO</text>
<text x="180.681410" y="105.619377" fill="rgb(255,0,0)"  stroke="rgb(255,0,0)" stroke-width="1" font-size="12" >1</text>
<text x="200.931598" y="141.242680" fill="rgb(255,0,0)"  stroke="rgb(255,0,0)" stroke-width="1" font-size="12" >2</text>
<text x="180.443249" y="176.729541" fill="rgb(255,0,0)"  stroke="rgb(255,0,0)" stroke-width="1" font-size="12" >3</text>
<text x="200.931598" y="212.216402" fill="rgb(255,0,0)"  stroke="rgb(255,0,0)" stroke-width="1" font-size="12" >4</text>
<text x="199.639383" y="72.309298" fill="rgb(255,0,0)"  stroke="rgb(255,0,0)" stroke-width="1" font-size="12" >5</text>
<text x="180.681410" y="40.000000" fill="rgb(255,0,0)"  stroke="rgb(255,0,0)" stroke-width="1" font-size="12" >6</text>
<text x="142.788210" y="40.000000" fill="rgb(255,0,0)"  stroke="rgb(255,0,0)" stroke-width="1" font-size="12" >7</text>
<text x="104.883638" y="40.000000" fill="rgb(255,0,0)"  stroke="rgb(255,0,0)" stroke-width="1" font-size="12" >8</text>
<text x="85.925665" y="73.310079" fill="rgb(255,0,0)"  stroke="rgb(255,0,0)" stroke-width="1" font-size="12" >9</text>
<text x="44.963234" y="74.391271" fill="rgb(255,0,0)"  stroke="rgb(255,0,0)" stroke-width="1" font-size="12" >10</text>
<text x="104.883638" y="105.619377" fill="rgb(255,0,0)"  stroke="rgb(255,0,0)" stroke-width="1" font-size="12" >11</text>
<text x="104.883638" y="143.079963" fill="rgb(255,0,0)"  stroke="rgb(255,0,0)" stroke-width="1" font-size="12" >12</text>
<text x="72.441819" y="161.810256" fill="rgb(255,0,0)"  stroke="rgb(255,0,0)" stroke-width="1" font-size="12" >13</text>
<text x="53.711526" y="194.252074" fill="rgb(255,0,0)"  stroke="rgb(255,0,0)" stroke-width="1" font-size="12" >14</text>
<text x="91.172112" y="194.252074" fill="rgb(255,0,0)"  stroke="rgb(255,0,0)" stroke-width="1" font-size="12" >15</text>
<text x="40.000000" y="143.079963" fill="rgb(255,0,0)"  stroke="rgb(255,0,0)" stroke-width="1" font-size="12" >16</text>
<text x="142.788210" y="105.619377" fill="rgb(255,0,0)"  stroke="rgb(255,0,0)" stroke-width="1" font-size="12" >17</text>
<text font-size="18.000000" fill ="black" font-family="sans-serif"
x="140.000000" y="20.000000" ></text>
<title> - OBDepict</title>
</svg>
