<?xml version="1.0"?>
<svg xmlns="http://www.w3.org/2000/svg"
xmlns:xlink="http://www.w3.org/1999/xlink" xmlns:cml="http://www.xml-cml.org/schema" width="290.923" height="361.704" x="0" y="0" font-family="sans-serif" stroke="rgb(0,0,0)" stroke-width="1" >
<line x1="235.8" y1="246.0" x2="250.9" y2="219.4"/>
<line x1="250.9" y1="219.4" x2="230.2" y2="183.5"/>
<line x1="230.2" y1="183.5" x2="250.9" y2="147.6"/>
<line x1="250.9" y1="147.6" x2="230.2" y2="111.7"/>
<line x1="230.2" y1="111.7" x2="245.5" y2="85.2"/>
<line x1="245.5" y1="66.5" x2="235.6" y2="49.3"/>
<line x1="134.7" y1="288.0" x2="96.8" y2="288.0"/>
<line x1="96.8" y1="288.0" x2="77.9" y2="255.2"/>
<line x1="77.9" y1="258.2" x2="49.8" y2="258.2"/>
<line x1="77.9" y1="252.2" x2="49.8" y2="252.2"/>
<line x1="77.9" y1="255.2" x2="96.8" y2="222.4"/>
<line x1="96.8" y1="222.4" x2="82.8" y2="198.2"/>
<line x1="153.8" y1="255.4" x2="153.8" y2="217.5"/>
<line x1="153.8" y1="217.5" x2="186.6" y2="198.6"/>
<line x1="186.6" y1="198.6" x2="200.6" y2="174.3"/>
<line x1="186.6" y1="198.6" x2="172.6" y2="174.3"/>
<line x1="186.6" y1="198.6" x2="210.9" y2="212.6"/>
<line x1="235.4" y1="264.1" x2="244.6" y2="280.3"/>
<line x1="244.6" y1="297.5" x2="230.5" y2="321.7"/>
<line x1="237.3" y1="295.8" x2="227.3" y2="312.9"/>
<line x1="230.5" y1="321.7" x2="202.1" y2="321.7"/>
<line x1="192.1" y1="304.5" x2="192.1" y2="255.4"/>
<line x1="192.1" y1="255.4" x2="220.5" y2="255.4"/>
<line x1="148.8" y1="312.9" x2="134.7" y2="288.0"/>
<line x1="154.1" y1="307.5" x2="143.9" y2="289.7"/>
<line x1="134.7" y1="288.0" x2="153.8" y2="255.4"/>
<line x1="153.8" y1="255.4" x2="192.1" y2="255.4"/>
<line x1="182.2" y1="321.7" x2="163.8" y2="321.7"/>
<text x="226.853379" y="260.171491" fill="rgb(12,12,255)"  stroke="rgb(12,12,255)" stroke-width="1" font-size="16" >N</text>
<text x="244.923490" y="84.192261" fill="rgb(12,12,255)"  stroke="rgb(12,12,255)" stroke-width="1" font-size="16" >NH</text>
<text x="206.612631" y="48.320000" fill="rgb(102,102,102)"  stroke="rgb(102,102,102)" stroke-width="1" font-size="16" >H</text>
<text x="218.612631" y="56.000000" fill="rgb(102,102,102)"  stroke="rgb(102,102,102)" stroke-width="1" font-size="13" >3</text>
<text x="225.112631" y="48.320000" fill="rgb(102,102,102)"  stroke="rgb(102,102,102)" stroke-width="1" font-size="16" >C</text>
<text x="243.617242" y="293.843329" fill="rgb(12,12,255)"  stroke="rgb(12,12,255)" stroke-width="1" font-size="16" >N</text>
<text x="186.148645" y="326.503518" fill="rgb(12,12,255)"  stroke="rgb(12,12,255)" stroke-width="1" font-size="16" >N</text>
<text x="150.232415" y="326.503518" fill="rgb(12,12,255)"  stroke="rgb(12,12,255)" stroke-width="1" font-size="16" >N</text>
<text x="36.400000" y="263.557531" fill="rgb(255,12,12)"  stroke="rgb(255,12,12)" stroke-width="1" font-size="16" >O</text>
<text x="54.267421" y="197.969234" fill="rgb(102,102,102)"  stroke="rgb(102,102,102)" stroke-width="1" font-size="16" >H</text>
<text x="66.267421" y="205.649234" fill="rgb(102,102,102)"  stroke="rgb(102,102,102)" stroke-width="1" font-size="13" >3</text>
<text x="72.767421" y="197.969234" fill="rgb(102,102,102)"  stroke="rgb(102,102,102)" stroke-width="1" font-size="16" >C</text>
<text x="199.560274" y="174.096211" fill="rgb(102,102,102)"  stroke="rgb(102,102,102)" stroke-width="1" font-size="16" >CH</text>
<text x="223.560274" y="181.776211" fill="rgb(102,102,102)"  stroke="rgb(102,102,102)" stroke-width="1" font-size="13" >3</text>
<text x="144.092853" y="174.096211" fill="rgb(102,102,102)"  stroke="rgb(102,102,102)" stroke-width="1" font-size="16" >H</text>
<text x="156.092853" y="181.776211" fill="rgb(102,102,102)"  stroke="rgb(102,102,102)" stroke-width="1" font-size="13" >3</text>
<text x="162.592853" y="174.096211" fill="rgb(102,102,102)"  stroke="rgb(102,102,102)" stroke-width="1" font-size="16" >C</text>
<text x="213.420712" y="222.304070" fill="rgb(255,12,12)"  stroke="rgb(255,12,12)" stroke-width="1" font-size="16" >OH</text>
<text x="230.453379" y="255.371491" fill="rgb(255,0,0)"  stroke="rgb(255,0,0)" stroke-width="1" font-size="12" >1</text>
<text x="250.923490" y="219.361306" fill="rgb(255,0,0)"  stroke="rgb(255,0,0)" stroke-width="1" font-size="12" >2</text>
<text x="230.212631" y="183.489045" fill="rgb(255,0,0)"  stroke="rgb(255,0,0)" stroke-width="1" font-size="12" >3</text>
<text x="250.923490" y="147.616784" fill="rgb(255,0,0)"  stroke="rgb(255,0,0)" stroke-width="1" font-size="12" >4</text>
<text x="230.212631" y="111.744523" fill="rgb(255,0,0)"  stroke="rgb(255,0,0)" stroke-width="1" font-size="12" >5</text>
<text x="250.923490" y="75.872261" fill="rgb(255,0,0)"  stroke="rgb(255,0,0)" stroke-width="1" font-size="12" >6</text>
<text x="230.212631" y="40.000000" fill="rgb(255,0,0)"  stroke="rgb(255,0,0)" stroke-width="1" font-size="12" >7</text>
<text x="249.617242" y="289.043329" fill="rgb(255,0,0)"  stroke="rgb(255,0,0)" stroke-width="1" font-size="12" >8</text>
<text x="230.453379" y="321.703518" fill="rgb(255,0,0)"  stroke="rgb(255,0,0)" stroke-width="1" font-size="12" >9</text>
<text x="192.148645" y="321.703518" fill="rgb(255,0,0)"  stroke="rgb(255,0,0)" stroke-width="1" font-size="12" >10</text>
<text x="153.832415" y="321.703518" fill="rgb(255,0,0)"  stroke="rgb(255,0,0)" stroke-width="1" font-size="12" >11</text>
<text x="134.668552" y="288.031679" fill="rgb(255,0,0)"  stroke="rgb(255,0,0)" stroke-width="1" font-size="12" >12</text>
<text x="96.801131" y="288.031679" fill="rgb(255,0,0)"  stroke="rgb(255,0,0)" stroke-width="1" font-size="12" >13</text>
<text x="77.867421" y="255.237531" fill="rgb(255,0,0)"  stroke="rgb(255,0,0)" stroke-width="1" font-size="12" >14</text>
<text x="40.000000" y="255.237531" fill="rgb(255,0,0)"  stroke="rgb(255,0,0)" stroke-width="1" font-size="12" >15</text>
<text x="96.801131" y="222.443382" fill="rgb(255,0,0)"  stroke="rgb(255,0,0)" stroke-width="1" font-size="12" >16</text>
<text x="77.867421" y="189.649234" fill="rgb(255,0,0)"  stroke="rgb(255,0,0)" stroke-width="1" font-size="12" >17</text>
<text x="153.832415" y="255.371491" fill="rgb(255,0,0)"  stroke="rgb(255,0,0)" stroke-width="1" font-size="12" >18</text>
<text x="153.832415" y="217.504070" fill="rgb(255,0,0)"  stroke="rgb(255,0,0)" stroke-width="1" font-size="12" >19</text>
<text x="186.626564" y="198.570359" fill="rgb(255,0,0)"  stroke="rgb(255,0,0)" stroke-width="1" font-size="12" >20</text>
<text x="205.560274" y="165.776211" fill="rgb(255,0,0)"  stroke="rgb(255,0,0)" stroke-width="1" font-size="12" >21</text>
<text x="167.692853" y="165.776211" fill="rgb(255,0,0)"  stroke="rgb(255,0,0)" stroke-width="1" font-size="12" >22</text>
<text x="219.420712" y="217.504070" fill="rgb(255,0,0)"  stroke="rgb(255,0,0)" stroke-width="1" font-size="12" >23</text>
<text x="192.148645" y="255.371491" fill="rgb(255,0,0)"  stroke="rgb(255,0,0)" stroke-width="1" font-size="12" >24</text>
<text font-size="18.000000" fill ="black" font-family="sans-serif"
x="140.000000" y="20.000000" ></text>
<title> - OBDepict</title>
</svg>
