<?xml version="1.0"?>
<svg xmlns="http://www.w3.org/2000/svg"
xmlns:xlink="http://www.w3.org/1999/xlink" xmlns:cml="http://www.xml-cml.org/schema" x="0" y="0" font-family="sans-serif" stroke="rgb(0,0,0)" stroke-width="1" viewBox="0 0 389.605 290.27" width="311.684" height="232.216">
<line x1="293.0" y1="115.8" x2="308.1" y2="142.5"/>
<line x1="308.1" y1="142.5" x2="292.8" y2="169.1"/>
<line x1="292.8" y1="187.8" x2="308.1" y2="214.3"/>
<line x1="308.1" y1="214.3" x2="292.8" y2="240.9"/>
<line x1="308.1" y1="214.3" x2="338.8" y2="214.3"/>
<line x1="191.7" y1="73.7" x2="153.8" y2="73.7"/>
<line x1="153.8" y1="73.7" x2="134.8" y2="106.6"/>
<line x1="134.8" y1="106.6" x2="96.9" y2="106.6"/>
<line x1="96.9" y1="106.6" x2="77.9" y2="139.4"/>
<line x1="77.9" y1="139.4" x2="49.9" y2="139.4"/>
<line x1="210.9" y1="106.4" x2="210.9" y2="144.4"/>
<line x1="210.9" y1="144.4" x2="243.7" y2="163.3"/>
<line x1="243.7" y1="163.3" x2="243.7" y2="201.2"/>
<line x1="245.2" y1="203.8" x2="220.9" y2="217.9"/>
<line x1="242.2" y1="198.6" x2="217.9" y2="212.7"/>
<line x1="243.7" y1="201.2" x2="268.0" y2="215.3"/>
<line x1="292.6" y1="97.7" x2="301.8" y2="81.5"/>
<line x1="301.8" y1="64.2" x2="287.6" y2="40.0"/>
<line x1="294.5" y1="65.9" x2="284.4" y2="48.8"/>
<line x1="287.6" y1="40.0" x2="259.2" y2="40.0"/>
<line x1="249.3" y1="57.3" x2="249.3" y2="106.4"/>
<line x1="249.3" y1="106.4" x2="277.6" y2="106.4"/>
<line x1="205.9" y1="48.8" x2="191.7" y2="73.7"/>
<line x1="211.1" y1="54.2" x2="200.9" y2="72.1"/>
<line x1="191.7" y1="73.7" x2="210.9" y2="106.4"/>
<line x1="210.9" y1="106.4" x2="249.3" y2="106.4"/>
<line x1="239.3" y1="40.0" x2="220.9" y2="40.0"/>
<text x="284.021227" y="114.750408" fill="rgb(12,12,255)"  stroke="rgb(12,12,255)" stroke-width="1" font-size="16" >N</text>
<text x="283.780122" y="186.739466" fill="rgb(255,12,12)"  stroke="rgb(255,12,12)" stroke-width="1" font-size="16" >O</text>
<text x="263.780122" y="255.070397" fill="rgb(102,102,102)"  stroke="rgb(102,102,102)" stroke-width="1" font-size="16" >H</text>
<text x="275.780122" y="259.870397" fill="rgb(102,102,102)"  stroke="rgb(102,102,102)" stroke-width="1" font-size="13" >3</text>
<text x="282.280122" y="255.070397" fill="rgb(102,102,102)"  stroke="rgb(102,102,102)" stroke-width="1" font-size="16" >C</text>
<text x="343.604853" y="219.144931" fill="rgb(102,102,102)"  stroke="rgb(102,102,102)" stroke-width="1" font-size="16" >CH</text>
<text x="367.604853" y="223.944931" fill="rgb(102,102,102)"  stroke="rgb(102,102,102)" stroke-width="1" font-size="13" >3</text>
<text x="300.813513" y="81.028629" fill="rgb(12,12,255)"  stroke="rgb(12,12,255)" stroke-width="1" font-size="16" >N</text>
<text x="243.259681" y="48.320000" fill="rgb(12,12,255)"  stroke="rgb(12,12,255)" stroke-width="1" font-size="16" >N</text>
<text x="207.286622" y="48.320000" fill="rgb(12,12,255)"  stroke="rgb(12,12,255)" stroke-width="1" font-size="16" >N</text>
<text x="16.400000" y="144.207353" fill="rgb(102,102,102)"  stroke="rgb(102,102,102)" stroke-width="1" font-size="16" >H</text>
<text x="28.400000" y="149.007353" fill="rgb(102,102,102)"  stroke="rgb(102,102,102)" stroke-width="1" font-size="13" >3</text>
<text x="34.900000" y="144.207353" fill="rgb(102,102,102)"  stroke="rgb(102,102,102)" stroke-width="1" font-size="16" >C</text>
<text x="207.286622" y="225.001160" fill="rgb(255,12,12)"  stroke="rgb(255,12,12)" stroke-width="1" font-size="16" >O</text>
<text x="270.572197" y="225.001160" fill="rgb(102,102,102)"  stroke="rgb(102,102,102)" stroke-width="1" font-size="16" >CH</text>
<text x="294.572197" y="229.801160" fill="rgb(102,102,102)"  stroke="rgb(102,102,102)" stroke-width="1" font-size="13" >3</text>
<text x="287.621227" y="106.430408" fill="rgb(255,0,0)"  stroke="rgb(255,0,0)" stroke-width="1" font-size="12" >1</text>
<text x="308.121699" y="142.494001" fill="rgb(255,0,0)"  stroke="rgb(255,0,0)" stroke-width="1" font-size="12" >2</text>
<text x="287.380122" y="178.419466" fill="rgb(255,0,0)"  stroke="rgb(255,0,0)" stroke-width="1" font-size="12" >3</text>
<text x="308.121699" y="214.344931" fill="rgb(255,0,0)"  stroke="rgb(255,0,0)" stroke-width="1" font-size="12" >4</text>
<text x="287.380122" y="250.270397" fill="rgb(255,0,0)"  stroke="rgb(255,0,0)" stroke-width="1" font-size="12" >5</text>
<text x="349.604853" y="214.344931" fill="rgb(255,0,0)"  stroke="rgb(255,0,0)" stroke-width="1" font-size="12" >6</text>
<text x="306.813513" y="72.708629" fill="rgb(255,0,0)"  stroke="rgb(255,0,0)" stroke-width="1" font-size="12" >7</text>
<text x="287.621227" y="40.000000" fill="rgb(255,0,0)"  stroke="rgb(255,0,0)" stroke-width="1" font-size="12" >8</text>
<text x="249.259681" y="40.000000" fill="rgb(255,0,0)"  stroke="rgb(255,0,0)" stroke-width="1" font-size="12" >9</text>
<text x="210.886622" y="40.000000" fill="rgb(255,0,0)"  stroke="rgb(255,0,0)" stroke-width="1" font-size="12" >10</text>
<text x="191.694337" y="73.721779" fill="rgb(255,0,0)"  stroke="rgb(255,0,0)" stroke-width="1" font-size="12" >11</text>
<text x="153.770752" y="73.721779" fill="rgb(255,0,0)"  stroke="rgb(255,0,0)" stroke-width="1" font-size="12" >12</text>
<text x="134.808960" y="106.564566" fill="rgb(255,0,0)"  stroke="rgb(255,0,0)" stroke-width="1" font-size="12" >13</text>
<text x="96.885376" y="106.564566" fill="rgb(255,0,0)"  stroke="rgb(255,0,0)" stroke-width="1" font-size="12" >14</text>
<text x="77.923584" y="139.407353" fill="rgb(255,0,0)"  stroke="rgb(255,0,0)" stroke-width="1" font-size="12" >15</text>
<text x="40.000000" y="139.407353" fill="rgb(255,0,0)"  stroke="rgb(255,0,0)" stroke-width="1" font-size="12" >16</text>
<text x="210.886622" y="106.430408" fill="rgb(255,0,0)"  stroke="rgb(255,0,0)" stroke-width="1" font-size="12" >17</text>
<text x="210.886622" y="144.353992" fill="rgb(255,0,0)"  stroke="rgb(255,0,0)" stroke-width="1" font-size="12" >18</text>
<text x="243.729410" y="163.315784" fill="rgb(255,0,0)"  stroke="rgb(255,0,0)" stroke-width="1" font-size="12" >19</text>
<text x="243.729410" y="201.239368" fill="rgb(255,0,0)"  stroke="rgb(255,0,0)" stroke-width="1" font-size="12" >20</text>
<text x="210.886622" y="220.201160" fill="rgb(255,0,0)"  stroke="rgb(255,0,0)" stroke-width="1" font-size="12" >21</text>
<text x="276.572197" y="220.201160" fill="rgb(255,0,0)"  stroke="rgb(255,0,0)" stroke-width="1" font-size="12" >22</text>
<text x="249.259681" y="106.430408" fill="rgb(255,0,0)"  stroke="rgb(255,0,0)" stroke-width="1" font-size="12" >23</text>
<text font-size="18.000000" fill ="black" font-family="sans-serif"
x="140.000000" y="20.000000" ></text>
<title> - OBDepict</title>
</svg>
