<?xml version="1.0"?>
<svg xmlns="http://www.w3.org/2000/svg"
xmlns:xlink="http://www.w3.org/1999/xlink" xmlns:cml="http://www.xml-cml.org/schema" width="308.84" height="289.03" x="0" y="0" font-family="sans-serif" stroke="rgb(0,0,0)" stroke-width="1" >
<line x1="253.8" y1="115.4" x2="268.8" y2="141.9"/>
<line x1="268.8" y1="141.9" x2="248.2" y2="177.6"/>
<line x1="248.2" y1="177.6" x2="268.8" y2="213.3"/>
<line x1="268.8" y1="213.3" x2="253.6" y2="239.7"/>
<line x1="153.1" y1="73.5" x2="125.2" y2="73.5"/>
<line x1="110.5" y1="82.0" x2="96.5" y2="106.2"/>
<line x1="96.5" y1="106.2" x2="58.8" y2="106.2"/>
<line x1="58.8" y1="106.2" x2="44.9" y2="130.3"/>
<line x1="172.2" y1="106.0" x2="172.2" y2="133.9"/>
<line x1="180.7" y1="148.6" x2="204.8" y2="162.6"/>
<line x1="204.8" y1="162.6" x2="204.8" y2="190.5"/>
<line x1="253.4" y1="97.3" x2="262.6" y2="81.2"/>
<line x1="262.6" y1="64.1" x2="248.5" y2="40.0"/>
<line x1="255.2" y1="65.8" x2="245.3" y2="48.8"/>
<line x1="248.5" y1="40.0" x2="220.2" y2="40.0"/>
<line x1="210.3" y1="57.2" x2="210.3" y2="106.0"/>
<line x1="210.3" y1="106.0" x2="238.5" y2="106.0"/>
<line x1="167.2" y1="48.7" x2="153.1" y2="73.5"/>
<line x1="172.4" y1="54.1" x2="162.3" y2="71.9"/>
<line x1="153.1" y1="73.5" x2="172.2" y2="106.0"/>
<line x1="172.2" y1="106.0" x2="210.3" y2="106.0"/>
<line x1="200.4" y1="40.0" x2="182.1" y2="40.0"/>
<text x="244.860924" y="114.358626" fill="rgb(12,12,255)"  stroke="rgb(12,12,255)" stroke-width="1" font-size="16" >N</text>
<text x="224.621241" y="253.830300" fill="rgb(102,102,102)"  stroke="rgb(102,102,102)" stroke-width="1" font-size="16" >H</text>
<text x="236.621241" y="258.630300" fill="rgb(102,102,102)"  stroke="rgb(102,102,102)" stroke-width="1" font-size="13" >3</text>
<text x="243.121241" y="253.830300" fill="rgb(102,102,102)"  stroke="rgb(102,102,102)" stroke-width="1" font-size="16" >C</text>
<text x="261.540021" y="80.835725" fill="rgb(12,12,255)"  stroke="rgb(12,12,255)" stroke-width="1" font-size="16" >N</text>
<text x="204.325620" y="48.320000" fill="rgb(12,12,255)"  stroke="rgb(12,12,255)" stroke-width="1" font-size="16" >N</text>
<text x="168.578872" y="48.320000" fill="rgb(12,12,255)"  stroke="rgb(12,12,255)" stroke-width="1" font-size="16" >N</text>
<text x="99.799850" y="81.842900" fill="rgb(12,12,255)"  stroke="rgb(12,12,255)" stroke-width="1" font-size="16" >HN</text>
<text x="24.400000" y="143.621086" fill="rgb(255,12,12)"  stroke="rgb(255,12,12)" stroke-width="1" font-size="16" >HO</text>
<text x="156.578872" y="148.538551" fill="rgb(12,12,255)"  stroke="rgb(12,12,255)" stroke-width="1" font-size="16" >HN</text>
<text x="198.827964" y="205.088438" fill="rgb(102,102,102)"  stroke="rgb(102,102,102)" stroke-width="1" font-size="16" >CH</text>
<text x="222.827964" y="209.888438" fill="rgb(102,102,102)"  stroke="rgb(102,102,102)" stroke-width="1" font-size="13" >3</text>
<text x="248.460924" y="106.038626" fill="rgb(255,0,0)"  stroke="rgb(255,0,0)" stroke-width="1" font-size="12" >1</text>
<text x="268.840492" y="141.889529" fill="rgb(255,0,0)"  stroke="rgb(255,0,0)" stroke-width="1" font-size="12" >2</text>
<text x="248.221241" y="177.603119" fill="rgb(255,0,0)"  stroke="rgb(255,0,0)" stroke-width="1" font-size="12" >3</text>
<text x="268.840492" y="213.316710" fill="rgb(255,0,0)"  stroke="rgb(255,0,0)" stroke-width="1" font-size="12" >4</text>
<text x="248.221241" y="249.030300" fill="rgb(255,0,0)"  stroke="rgb(255,0,0)" stroke-width="1" font-size="12" >5</text>
<text x="267.540021" y="72.515725" fill="rgb(255,0,0)"  stroke="rgb(255,0,0)" stroke-width="1" font-size="12" >6</text>
<text x="248.460924" y="40.000000" fill="rgb(255,0,0)"  stroke="rgb(255,0,0)" stroke-width="1" font-size="12" >7</text>
<text x="210.325620" y="40.000000" fill="rgb(255,0,0)"  stroke="rgb(255,0,0)" stroke-width="1" font-size="12" >8</text>
<text x="172.178872" y="40.000000" fill="rgb(255,0,0)"  stroke="rgb(255,0,0)" stroke-width="1" font-size="12" >9</text>
<text x="153.099775" y="73.522900" fill="rgb(255,0,0)"  stroke="rgb(255,0,0)" stroke-width="1" font-size="12" >10</text>
<text x="115.399850" y="73.522900" fill="rgb(255,0,0)"  stroke="rgb(255,0,0)" stroke-width="1" font-size="12" >11</text>
<text x="96.549887" y="106.171993" fill="rgb(255,0,0)"  stroke="rgb(255,0,0)" stroke-width="1" font-size="12" >12</text>
<text x="58.849962" y="106.171993" fill="rgb(255,0,0)"  stroke="rgb(255,0,0)" stroke-width="1" font-size="12" >13</text>
<text x="40.000000" y="138.821086" fill="rgb(255,0,0)"  stroke="rgb(255,0,0)" stroke-width="1" font-size="12" >14</text>
<text x="172.178872" y="106.038626" fill="rgb(255,0,0)"  stroke="rgb(255,0,0)" stroke-width="1" font-size="12" >15</text>
<text x="172.178872" y="143.738551" fill="rgb(255,0,0)"  stroke="rgb(255,0,0)" stroke-width="1" font-size="12" >16</text>
<text x="204.827964" y="162.588513" fill="rgb(255,0,0)"  stroke="rgb(255,0,0)" stroke-width="1" font-size="12" >17</text>
<text x="204.827964" y="200.288438" fill="rgb(255,0,0)"  stroke="rgb(255,0,0)" stroke-width="1" font-size="12" >18</text>
<text x="210.325620" y="106.038626" fill="rgb(255,0,0)"  stroke="rgb(255,0,0)" stroke-width="1" font-size="12" >19</text>
<text font-size="18.000000" fill ="black" font-family="sans-serif"
x="140.000000" y="20.000000" ></text>
<title> - OBDepict</title>
</svg>
