<?xml version="1.0"?>
<svg xmlns="http://www.w3.org/2000/svg"
xmlns:xlink="http://www.w3.org/1999/xlink" xmlns:cml="http://www.xml-cml.org/schema" width="368.666" height="255.306" x="0" y="0" font-family="sans-serif" stroke="rgb(0,0,0)" stroke-width="1" >
<line x1="313.4" y1="116.2" x2="323.3" y2="133.6"/>
<line x1="323.2" y1="152.5" x2="307.8" y2="179.2"/>
<line x1="307.8" y1="179.2" x2="323.2" y2="205.9"/>
<line x1="211.6" y1="73.9" x2="173.5" y2="73.9"/>
<line x1="173.5" y1="73.9" x2="154.4" y2="106.9"/>
<line x1="154.4" y1="106.9" x2="116.3" y2="106.9"/>
<line x1="116.3" y1="106.9" x2="97.2" y2="140.0"/>
<line x1="97.2" y1="140.0" x2="69.0" y2="140.0"/>
<line x1="54.1" y1="148.5" x2="45.0" y2="164.4"/>
<line x1="230.9" y1="106.8" x2="230.9" y2="144.9"/>
<line x1="230.9" y1="144.9" x2="197.9" y2="164.0"/>
<line x1="197.9" y1="164.0" x2="183.8" y2="188.4"/>
<line x1="197.9" y1="164.0" x2="212.0" y2="188.4"/>
<line x1="197.9" y1="164.0" x2="173.4" y2="149.9"/>
<line x1="313.1" y1="98.0" x2="322.3" y2="81.7"/>
<line x1="322.3" y1="64.3" x2="308.1" y2="40.0"/>
<line x1="315.0" y1="66.1" x2="304.9" y2="48.8"/>
<line x1="308.1" y1="40.0" x2="279.5" y2="40.0"/>
<line x1="269.5" y1="57.4" x2="269.5" y2="106.8"/>
<line x1="269.5" y1="106.8" x2="298.0" y2="106.8"/>
<line x1="225.9" y1="48.8" x2="211.6" y2="73.9"/>
<line x1="231.1" y1="54.2" x2="220.8" y2="72.3"/>
<line x1="211.6" y1="73.9" x2="230.9" y2="106.8"/>
<line x1="230.9" y1="106.8" x2="269.5" y2="106.8"/>
<line x1="259.4" y1="40.0" x2="240.9" y2="40.0"/>
<text x="304.452273" y="115.116534" fill="rgb(12,12,255)"  stroke="rgb(12,12,255)" stroke-width="1" font-size="16" >N</text>
<text x="322.665732" y="147.858889" fill="rgb(12,12,255)"  stroke="rgb(12,12,255)" stroke-width="1" font-size="16" >NH</text>
<text x="322.665732" y="220.105821" fill="rgb(102,102,102)"  stroke="rgb(102,102,102)" stroke-width="1" font-size="16" >CH</text>
<text x="346.665732" y="224.905821" fill="rgb(102,102,102)"  stroke="rgb(102,102,102)" stroke-width="1" font-size="13" >3</text>
<text x="321.350336" y="81.208900" fill="rgb(12,12,255)"  stroke="rgb(12,12,255)" stroke-width="1" font-size="16" >N</text>
<text x="263.479300" y="48.320000" fill="rgb(12,12,255)"  stroke="rgb(12,12,255)" stroke-width="1" font-size="16" >N</text>
<text x="227.294751" y="48.320000" fill="rgb(12,12,255)"  stroke="rgb(12,12,255)" stroke-width="1" font-size="16" >N</text>
<text x="43.466299" y="148.275230" fill="rgb(12,12,255)"  stroke="rgb(12,12,255)" stroke-width="1" font-size="16" >HN</text>
<text x="16.400000" y="177.779028" fill="rgb(102,102,102)"  stroke="rgb(102,102,102)" stroke-width="1" font-size="16" >H</text>
<text x="28.400000" y="182.579028" fill="rgb(102,102,102)"  stroke="rgb(102,102,102)" stroke-width="1" font-size="13" >3</text>
<text x="34.900000" y="177.779028" fill="rgb(102,102,102)"  stroke="rgb(102,102,102)" stroke-width="1" font-size="16" >C</text>
<text x="155.204654" y="201.819228" fill="rgb(102,102,102)"  stroke="rgb(102,102,102)" stroke-width="1" font-size="16" >H</text>
<text x="167.204654" y="206.619228" fill="rgb(102,102,102)"  stroke="rgb(102,102,102)" stroke-width="1" font-size="13" >3</text>
<text x="173.704654" y="201.819228" fill="rgb(102,102,102)"  stroke="rgb(102,102,102)" stroke-width="1" font-size="16" >C</text>
<text x="210.937252" y="201.819228" fill="rgb(102,102,102)"  stroke="rgb(102,102,102)" stroke-width="1" font-size="16" >CH</text>
<text x="234.937252" y="206.619228" fill="rgb(102,102,102)"  stroke="rgb(102,102,102)" stroke-width="1" font-size="13" >3</text>
<text x="149.247155" y="153.249132" fill="rgb(255,12,12)"  stroke="rgb(255,12,12)" stroke-width="1" font-size="16" >HO</text>
<text x="308.052273" y="106.796534" fill="rgb(255,0,0)"  stroke="rgb(255,0,0)" stroke-width="1" font-size="12" >1</text>
<text x="328.665732" y="143.058889" fill="rgb(255,0,0)"  stroke="rgb(255,0,0)" stroke-width="1" font-size="12" >2</text>
<text x="307.809839" y="179.182355" fill="rgb(255,0,0)"  stroke="rgb(255,0,0)" stroke-width="1" font-size="12" >3</text>
<text x="328.665732" y="215.305821" fill="rgb(255,0,0)"  stroke="rgb(255,0,0)" stroke-width="1" font-size="12" >4</text>
<text x="327.350336" y="72.888900" fill="rgb(255,0,0)"  stroke="rgb(255,0,0)" stroke-width="1" font-size="12" >5</text>
<text x="308.052273" y="40.000000" fill="rgb(255,0,0)"  stroke="rgb(255,0,0)" stroke-width="1" font-size="12" >6</text>
<text x="269.479300" y="40.000000" fill="rgb(255,0,0)"  stroke="rgb(255,0,0)" stroke-width="1" font-size="12" >7</text>
<text x="230.894751" y="40.000000" fill="rgb(255,0,0)"  stroke="rgb(255,0,0)" stroke-width="1" font-size="12" >8</text>
<text x="211.596688" y="73.907634" fill="rgb(255,0,0)"  stroke="rgb(255,0,0)" stroke-width="1" font-size="12" >9</text>
<text x="173.464091" y="73.907634" fill="rgb(255,0,0)"  stroke="rgb(255,0,0)" stroke-width="1" font-size="12" >10</text>
<text x="154.397792" y="106.931432" fill="rgb(255,0,0)"  stroke="rgb(255,0,0)" stroke-width="1" font-size="12" >11</text>
<text x="116.265195" y="106.931432" fill="rgb(255,0,0)"  stroke="rgb(255,0,0)" stroke-width="1" font-size="12" >12</text>
<text x="97.198896" y="139.955230" fill="rgb(255,0,0)"  stroke="rgb(255,0,0)" stroke-width="1" font-size="12" >13</text>
<text x="59.066299" y="139.955230" fill="rgb(255,0,0)"  stroke="rgb(255,0,0)" stroke-width="1" font-size="12" >14</text>
<text x="40.000000" y="172.979028" fill="rgb(255,0,0)"  stroke="rgb(255,0,0)" stroke-width="1" font-size="12" >15</text>
<text x="230.894751" y="106.796534" fill="rgb(255,0,0)"  stroke="rgb(255,0,0)" stroke-width="1" font-size="12" >16</text>
<text x="230.894751" y="144.929132" fill="rgb(255,0,0)"  stroke="rgb(255,0,0)" stroke-width="1" font-size="12" >17</text>
<text x="197.870953" y="163.995430" fill="rgb(255,0,0)"  stroke="rgb(255,0,0)" stroke-width="1" font-size="12" >18</text>
<text x="178.804654" y="197.019228" fill="rgb(255,0,0)"  stroke="rgb(255,0,0)" stroke-width="1" font-size="12" >19</text>
<text x="216.937252" y="197.019228" fill="rgb(255,0,0)"  stroke="rgb(255,0,0)" stroke-width="1" font-size="12" >20</text>
<text x="164.847155" y="144.929132" fill="rgb(255,0,0)"  stroke="rgb(255,0,0)" stroke-width="1" font-size="12" >21</text>
<text x="269.479300" y="106.796534" fill="rgb(255,0,0)"  stroke="rgb(255,0,0)" stroke-width="1" font-size="12" >22</text>
<text font-size="18.000000" fill ="black" font-family="sans-serif"
x="140.000000" y="20.000000" ></text>
<title> - OBDepict</title>
</svg>
