<?xml version="1.0"?>
<svg xmlns="http://www.w3.org/2000/svg"
xmlns:xlink="http://www.w3.org/1999/xlink" xmlns:cml="http://www.xml-cml.org/schema" width="234.909" height="356.785" x="0" y="0" font-family="sans-serif" stroke="rgb(0,0,0)" stroke-width="1" >
<line x1="180.0" y1="114.4" x2="194.9" y2="140.6"/>
<line x1="194.9" y1="140.6" x2="174.6" y2="175.8"/>
<line x1="174.6" y1="175.8" x2="194.9" y2="211.0"/>
<line x1="194.9" y1="211.0" x2="174.6" y2="246.3"/>
<line x1="174.6" y1="246.3" x2="189.6" y2="272.4"/>
<line x1="189.6" y1="290.7" x2="179.9" y2="307.6"/>
<line x1="80.7" y1="73.1" x2="50.6" y2="73.9"/>
<line x1="99.5" y1="105.2" x2="99.5" y2="142.4"/>
<line x1="99.5" y1="142.4" x2="131.7" y2="161.0"/>
<line x1="131.7" y1="161.0" x2="131.7" y2="188.5"/>
<line x1="140.1" y1="203.0" x2="155.6" y2="212.0"/>
<line x1="179.7" y1="96.6" x2="188.7" y2="80.7"/>
<line x1="188.7" y1="63.7" x2="174.8" y2="40.0"/>
<line x1="181.4" y1="65.4" x2="171.6" y2="48.8"/>
<line x1="174.8" y1="40.0" x2="146.9" y2="40.0"/>
<line x1="137.2" y1="56.9" x2="137.2" y2="105.2"/>
<line x1="137.2" y1="105.2" x2="165.0" y2="105.2"/>
<line x1="94.6" y1="48.6" x2="80.7" y2="73.1"/>
<line x1="99.8" y1="54.1" x2="89.9" y2="71.4"/>
<line x1="80.7" y1="73.1" x2="99.5" y2="105.2"/>
<line x1="99.5" y1="105.2" x2="137.2" y2="105.2"/>
<line x1="127.4" y1="40.0" x2="109.3" y2="40.0"/>
<text x="171.196588" y="113.493791" fill="rgb(12,12,255)"  stroke="rgb(12,12,255)" stroke-width="1" font-size="16" >N</text>
<text x="188.909267" y="286.338752" fill="rgb(12,12,255)"  stroke="rgb(12,12,255)" stroke-width="1" font-size="16" >NH</text>
<text x="150.960044" y="321.584641" fill="rgb(102,102,102)"  stroke="rgb(102,102,102)" stroke-width="1" font-size="16" >H</text>
<text x="162.960044" y="326.384641" fill="rgb(102,102,102)"  stroke="rgb(102,102,102)" stroke-width="1" font-size="13" >3</text>
<text x="169.460044" y="321.584641" fill="rgb(102,102,102)"  stroke="rgb(102,102,102)" stroke-width="1" font-size="16" >C</text>
<text x="187.625827" y="80.409903" fill="rgb(12,12,255)"  stroke="rgb(12,12,255)" stroke-width="1" font-size="16" >N</text>
<text x="131.160700" y="48.320000" fill="rgb(12,12,255)"  stroke="rgb(12,12,255)" stroke-width="1" font-size="16" >N</text>
<text x="95.913517" y="48.320000" fill="rgb(12,12,255)"  stroke="rgb(12,12,255)" stroke-width="1" font-size="16" >N</text>
<text x="24.400000" y="78.957738" fill="rgb(124,127,175)"  stroke="rgb(124,127,175)" stroke-width="1" font-size="16" >R</text>
<text x="116.135041" y="202.989319" fill="rgb(12,12,255)"  stroke="rgb(12,12,255)" stroke-width="1" font-size="16" >HN</text>
<text x="157.956565" y="221.592425" fill="rgb(102,102,102)"  stroke="rgb(102,102,102)" stroke-width="1" font-size="16" >CH</text>
<text x="181.956565" y="226.392425" fill="rgb(102,102,102)"  stroke="rgb(102,102,102)" stroke-width="1" font-size="13" >3</text>
<text x="174.796588" y="105.173791" fill="rgb(255,0,0)"  stroke="rgb(255,0,0)" stroke-width="1" font-size="12" >1</text>
<text x="194.909267" y="140.555195" fill="rgb(255,0,0)"  stroke="rgb(255,0,0)" stroke-width="1" font-size="12" >2</text>
<text x="174.560044" y="175.801085" fill="rgb(255,0,0)"  stroke="rgb(255,0,0)" stroke-width="1" font-size="12" >3</text>
<text x="194.909267" y="211.046974" fill="rgb(255,0,0)"  stroke="rgb(255,0,0)" stroke-width="1" font-size="12" >4</text>
<text x="174.560044" y="246.292863" fill="rgb(255,0,0)"  stroke="rgb(255,0,0)" stroke-width="1" font-size="12" >5</text>
<text x="194.909267" y="281.538752" fill="rgb(255,0,0)"  stroke="rgb(255,0,0)" stroke-width="1" font-size="12" >6</text>
<text x="174.560044" y="316.784641" fill="rgb(255,0,0)"  stroke="rgb(255,0,0)" stroke-width="1" font-size="12" >7</text>
<text x="193.625827" y="72.089903" fill="rgb(255,0,0)"  stroke="rgb(255,0,0)" stroke-width="1" font-size="12" >8</text>
<text x="174.796588" y="40.000000" fill="rgb(255,0,0)"  stroke="rgb(255,0,0)" stroke-width="1" font-size="12" >9</text>
<text x="137.160700" y="40.000000" fill="rgb(255,0,0)"  stroke="rgb(255,0,0)" stroke-width="1" font-size="12" >10</text>
<text x="99.513517" y="40.000000" fill="rgb(255,0,0)"  stroke="rgb(255,0,0)" stroke-width="1" font-size="12" >11</text>
<text x="80.684278" y="73.083888" fill="rgb(255,0,0)"  stroke="rgb(255,0,0)" stroke-width="1" font-size="12" >12</text>
<text x="40.000000" y="74.157738" fill="rgb(255,0,0)"  stroke="rgb(255,0,0)" stroke-width="1" font-size="12" >13</text>
<text x="99.513517" y="105.173791" fill="rgb(255,0,0)"  stroke="rgb(255,0,0)" stroke-width="1" font-size="12" >14</text>
<text x="99.513517" y="142.380002" fill="rgb(255,0,0)"  stroke="rgb(255,0,0)" stroke-width="1" font-size="12" >15</text>
<text x="131.735041" y="160.983108" fill="rgb(255,0,0)"  stroke="rgb(255,0,0)" stroke-width="1" font-size="12" >16</text>
<text x="131.735041" y="198.189319" fill="rgb(255,0,0)"  stroke="rgb(255,0,0)" stroke-width="1" font-size="12" >17</text>
<text x="163.956565" y="216.792425" fill="rgb(255,0,0)"  stroke="rgb(255,0,0)" stroke-width="1" font-size="12" >18</text>
<text x="137.160700" y="105.173791" fill="rgb(255,0,0)"  stroke="rgb(255,0,0)" stroke-width="1" font-size="12" >19</text>
<text font-size="18.000000" fill ="black" font-family="sans-serif"
x="140.000000" y="20.000000" ></text>
<title> - OBDepict</title>
</svg>
