<?xml version="1.0"?>
<svg xmlns="http://www.w3.org/2000/svg"
xmlns:xlink="http://www.w3.org/1999/xlink" xmlns:cml="http://www.xml-cml.org/schema" width="288.454" height="181.144" x="0" y="0" font-family="sans-serif" stroke="rgb(0,0,0)" stroke-width="1" >
<line x1="233.5" y1="114.8" x2="243.2" y2="131.9"/>
<line x1="133.6" y1="73.3" x2="96.1" y2="73.3"/>
<line x1="96.1" y1="73.3" x2="82.3" y2="49.3"/>
<line x1="96.1" y1="73.3" x2="77.4" y2="105.7"/>
<line x1="77.4" y1="105.7" x2="49.7" y2="105.7"/>
<line x1="152.5" y1="105.6" x2="137.2" y2="131.7"/>
<line x1="233.1" y1="96.9" x2="242.2" y2="80.9"/>
<line x1="242.2" y1="63.9" x2="228.2" y2="40.0"/>
<line x1="234.9" y1="65.6" x2="225.0" y2="48.8"/>
<line x1="228.2" y1="40.0" x2="200.2" y2="40.0"/>
<line x1="190.4" y1="57.0" x2="190.4" y2="105.6"/>
<line x1="190.4" y1="105.6" x2="218.4" y2="105.6"/>
<line x1="147.6" y1="48.7" x2="133.6" y2="73.3"/>
<line x1="152.8" y1="54.1" x2="142.8" y2="71.6"/>
<line x1="133.6" y1="73.3" x2="152.5" y2="105.6"/>
<line x1="152.5" y1="105.6" x2="190.4" y2="105.6"/>
<line x1="180.5" y1="40.0" x2="162.3" y2="40.0"/>
<text x="224.623372" y="113.875349" fill="rgb(12,12,255)"  stroke="rgb(12,12,255)" stroke-width="1" font-size="16" >N</text>
<text x="242.453800" y="145.943893" fill="rgb(124,127,175)"  stroke="rgb(124,127,175)" stroke-width="1" font-size="16" >R</text>
<text x="241.162846" y="80.597773" fill="rgb(12,12,255)"  stroke="rgb(12,12,255)" stroke-width="1" font-size="16" >N</text>
<text x="184.367146" y="48.320000" fill="rgb(12,12,255)"  stroke="rgb(12,12,255)" stroke-width="1" font-size="16" >N</text>
<text x="148.899558" y="48.320000" fill="rgb(12,12,255)"  stroke="rgb(12,12,255)" stroke-width="1" font-size="16" >N</text>
<text x="61.824034" y="49.187413" fill="rgb(255,12,12)"  stroke="rgb(255,12,12)" stroke-width="1" font-size="16" >HO</text>
<text x="16.400000" y="110.487741" fill="rgb(102,102,102)"  stroke="rgb(102,102,102)" stroke-width="1" font-size="16" >H</text>
<text x="28.400000" y="115.287741" fill="rgb(102,102,102)"  stroke="rgb(102,102,102)" stroke-width="1" font-size="13" >3</text>
<text x="34.900000" y="110.487741" fill="rgb(102,102,102)"  stroke="rgb(102,102,102)" stroke-width="1" font-size="16" >C</text>
<text x="116.191641" y="145.668191" fill="rgb(124,127,175)"  stroke="rgb(124,127,175)" stroke-width="1" font-size="16" >R</text>
<text x="228.223372" y="105.555349" fill="rgb(255,0,0)"  stroke="rgb(255,0,0)" stroke-width="1" font-size="12" >1</text>
<text x="248.453800" y="141.143893" fill="rgb(255,0,0)"  stroke="rgb(255,0,0)" stroke-width="1" font-size="12" >2</text>
<text x="247.162846" y="72.277773" fill="rgb(255,0,0)"  stroke="rgb(255,0,0)" stroke-width="1" font-size="12" >3</text>
<text x="228.223372" y="40.000000" fill="rgb(255,0,0)"  stroke="rgb(255,0,0)" stroke-width="1" font-size="12" >4</text>
<text x="190.367146" y="40.000000" fill="rgb(255,0,0)"  stroke="rgb(255,0,0)" stroke-width="1" font-size="12" >5</text>
<text x="152.499558" y="40.000000" fill="rgb(255,0,0)"  stroke="rgb(255,0,0)" stroke-width="1" font-size="12" >6</text>
<text x="133.560084" y="73.277577" fill="rgb(255,0,0)"  stroke="rgb(255,0,0)" stroke-width="1" font-size="12" >7</text>
<text x="96.136050" y="73.277577" fill="rgb(255,0,0)"  stroke="rgb(255,0,0)" stroke-width="1" font-size="12" >8</text>
<text x="77.424034" y="40.867413" fill="rgb(255,0,0)"  stroke="rgb(255,0,0)" stroke-width="1" font-size="12" >9</text>
<text x="77.424034" y="105.687741" fill="rgb(255,0,0)"  stroke="rgb(255,0,0)" stroke-width="1" font-size="12" >10</text>
<text x="40.000000" y="105.687741" fill="rgb(255,0,0)"  stroke="rgb(255,0,0)" stroke-width="1" font-size="12" >11</text>
<text x="152.499558" y="105.555349" fill="rgb(255,0,0)"  stroke="rgb(255,0,0)" stroke-width="1" font-size="12" >12</text>
<text x="131.791641" y="140.868191" fill="rgb(255,0,0)"  stroke="rgb(255,0,0)" stroke-width="1" font-size="12" >13</text>
<text x="190.367146" y="105.555349" fill="rgb(255,0,0)"  stroke="rgb(255,0,0)" stroke-width="1" font-size="12" >14</text>
<text font-size="18.000000" fill ="black" font-family="sans-serif"
x="140.000000" y="20.000000" ></text>
<title> - OBDepict</title>
</svg>
