<?xml version="1.0"?>
<svg xmlns="http://www.w3.org/2000/svg"
xmlns:xlink="http://www.w3.org/1999/xlink" xmlns:cml="http://www.xml-cml.org/schema" width="237.773" height="314.977" x="0" y="0" font-family="sans-serif" stroke="rgb(0,0,0)" stroke-width="1" >
<line x1="181.5" y1="115.1" x2="196.5" y2="141.6"/>
<line x1="196.5" y1="141.6" x2="181.3" y2="167.9"/>
<line x1="181.3" y1="186.4" x2="191.1" y2="203.5"/>
<line x1="81.1" y1="73.4" x2="50.7" y2="74.2"/>
<line x1="100.1" y1="105.8" x2="100.1" y2="143.4"/>
<line x1="100.1" y1="143.4" x2="132.7" y2="162.2"/>
<line x1="132.7" y1="162.2" x2="132.7" y2="199.8"/>
<line x1="132.7" y1="199.8" x2="165.2" y2="218.6"/>
<line x1="165.2" y1="218.6" x2="165.2" y2="246.4"/>
<line x1="173.7" y1="261.1" x2="189.3" y2="270.1"/>
<line x1="181.1" y1="97.1" x2="190.2" y2="81.1"/>
<line x1="190.2" y1="64.0" x2="176.2" y2="40.0"/>
<line x1="182.9" y1="65.7" x2="173.0" y2="48.8"/>
<line x1="176.2" y1="40.0" x2="148.0" y2="40.0"/>
<line x1="138.2" y1="57.1" x2="138.2" y2="105.8"/>
<line x1="138.2" y1="105.8" x2="166.3" y2="105.8"/>
<line x1="95.2" y1="48.7" x2="81.1" y2="73.4"/>
<line x1="100.4" y1="54.1" x2="90.3" y2="71.8"/>
<line x1="81.1" y1="73.4" x2="100.1" y2="105.8"/>
<line x1="100.1" y1="105.8" x2="138.2" y2="105.8"/>
<line x1="128.3" y1="40.0" x2="110.0" y2="40.0"/>
<text x="172.573177" y="114.159369" fill="rgb(12,12,255)"  stroke="rgb(12,12,255)" stroke-width="1" font-size="16" >N</text>
<text x="160.334217" y="185.507932" fill="rgb(12,12,255)"  stroke="rgb(12,12,255)" stroke-width="1" font-size="16" >HN</text>
<text x="190.491254" y="217.593764" fill="rgb(102,102,102)"  stroke="rgb(102,102,102)" stroke-width="1" font-size="16" >CH</text>
<text x="214.491254" y="222.393764" fill="rgb(102,102,102)"  stroke="rgb(102,102,102)" stroke-width="1" font-size="13" >3</text>
<text x="189.194707" y="80.737616" fill="rgb(12,12,255)"  stroke="rgb(12,12,255)" stroke-width="1" font-size="16" >N</text>
<text x="132.152938" y="48.320000" fill="rgb(12,12,255)"  stroke="rgb(12,12,255)" stroke-width="1" font-size="16" >N</text>
<text x="96.521289" y="48.320000" fill="rgb(12,12,255)"  stroke="rgb(12,12,255)" stroke-width="1" font-size="16" >N</text>
<text x="24.400000" y="79.306569" fill="rgb(124,127,175)"  stroke="rgb(124,127,175)" stroke-width="1" font-size="16" >R</text>
<text x="149.622452" y="260.984063" fill="rgb(12,12,255)"  stroke="rgb(12,12,255)" stroke-width="1" font-size="16" >HN</text>
<text x="191.773033" y="279.777150" fill="rgb(102,102,102)"  stroke="rgb(102,102,102)" stroke-width="1" font-size="16" >CH</text>
<text x="215.773033" y="284.577150" fill="rgb(102,102,102)"  stroke="rgb(102,102,102)" stroke-width="1" font-size="13" >3</text>
<text x="176.173177" y="105.839369" fill="rgb(255,0,0)"  stroke="rgb(255,0,0)" stroke-width="1" font-size="12" >1</text>
<text x="196.491254" y="141.582099" fill="rgb(255,0,0)"  stroke="rgb(255,0,0)" stroke-width="1" font-size="12" >2</text>
<text x="175.934217" y="177.187932" fill="rgb(255,0,0)"  stroke="rgb(255,0,0)" stroke-width="1" font-size="12" >3</text>
<text x="196.491254" y="212.793764" fill="rgb(255,0,0)"  stroke="rgb(255,0,0)" stroke-width="1" font-size="12" >4</text>
<text x="195.194707" y="72.417616" fill="rgb(255,0,0)"  stroke="rgb(255,0,0)" stroke-width="1" font-size="12" >5</text>
<text x="176.173177" y="40.000000" fill="rgb(255,0,0)"  stroke="rgb(255,0,0)" stroke-width="1" font-size="12" >6</text>
<text x="138.152938" y="40.000000" fill="rgb(255,0,0)"  stroke="rgb(255,0,0)" stroke-width="1" font-size="12" >7</text>
<text x="100.121289" y="40.000000" fill="rgb(255,0,0)"  stroke="rgb(255,0,0)" stroke-width="1" font-size="12" >8</text>
<text x="81.099760" y="73.421752" fill="rgb(255,0,0)"  stroke="rgb(255,0,0)" stroke-width="1" font-size="12" >9</text>
<text x="40.000000" y="74.506569" fill="rgb(255,0,0)"  stroke="rgb(255,0,0)" stroke-width="1" font-size="12" >10</text>
<text x="100.121289" y="105.839369" fill="rgb(255,0,0)"  stroke="rgb(255,0,0)" stroke-width="1" font-size="12" >11</text>
<text x="100.121289" y="143.425542" fill="rgb(255,0,0)"  stroke="rgb(255,0,0)" stroke-width="1" font-size="12" >12</text>
<text x="132.671871" y="162.218629" fill="rgb(255,0,0)"  stroke="rgb(255,0,0)" stroke-width="1" font-size="12" >13</text>
<text x="132.671871" y="199.804803" fill="rgb(255,0,0)"  stroke="rgb(255,0,0)" stroke-width="1" font-size="12" >14</text>
<text x="165.222452" y="218.597889" fill="rgb(255,0,0)"  stroke="rgb(255,0,0)" stroke-width="1" font-size="12" >15</text>
<text x="165.222452" y="256.184063" fill="rgb(255,0,0)"  stroke="rgb(255,0,0)" stroke-width="1" font-size="12" >16</text>
<text x="197.773033" y="274.977150" fill="rgb(255,0,0)"  stroke="rgb(255,0,0)" stroke-width="1" font-size="12" >17</text>
<text x="138.152938" y="105.839369" fill="rgb(255,0,0)"  stroke="rgb(255,0,0)" stroke-width="1" font-size="12" >18</text>
<text font-size="18.000000" fill ="black" font-family="sans-serif"
x="140.000000" y="20.000000" ></text>
<title> - OBDepict</title>
</svg>
