<?xml version="1.0"?>
<svg xmlns="http://www.w3.org/2000/svg"
xmlns:xlink="http://www.w3.org/1999/xlink" xmlns:cml="http://www.xml-cml.org/schema" width="332.719" height="290.27" x="0" y="0" font-family="sans-serif" stroke="rgb(0,0,0)" stroke-width="1" >
<line x1="236.1" y1="115.8" x2="251.2" y2="142.5"/>
<line x1="251.2" y1="142.5" x2="235.9" y2="169.1"/>
<line x1="235.9" y1="187.8" x2="251.2" y2="214.3"/>
<line x1="251.2" y1="214.3" x2="235.9" y2="240.9"/>
<line x1="251.2" y1="214.3" x2="281.9" y2="214.3"/>
<line x1="134.8" y1="73.7" x2="96.9" y2="73.7"/>
<line x1="96.9" y1="73.7" x2="77.9" y2="106.6"/>
<line x1="77.9" y1="109.6" x2="49.9" y2="109.6"/>
<line x1="77.9" y1="103.6" x2="49.9" y2="103.6"/>
<line x1="77.9" y1="106.6" x2="96.9" y2="139.4"/>
<line x1="96.9" y1="139.4" x2="82.9" y2="163.7"/>
<line x1="154.0" y1="106.4" x2="154.0" y2="134.5"/>
<line x1="162.5" y1="149.3" x2="186.8" y2="163.3"/>
<line x1="186.8" y1="163.3" x2="186.8" y2="201.2"/>
<line x1="186.8" y1="201.2" x2="162.5" y2="215.3"/>
<line x1="186.8" y1="201.2" x2="211.1" y2="215.3"/>
<line x1="235.7" y1="97.7" x2="244.9" y2="81.5"/>
<line x1="244.9" y1="64.2" x2="230.7" y2="40.0"/>
<line x1="237.6" y1="65.9" x2="227.6" y2="48.8"/>
<line x1="230.7" y1="40.0" x2="202.3" y2="40.0"/>
<line x1="192.4" y1="57.3" x2="192.4" y2="106.4"/>
<line x1="192.4" y1="106.4" x2="220.8" y2="106.4"/>
<line x1="149.0" y1="48.8" x2="134.8" y2="73.7"/>
<line x1="154.2" y1="54.2" x2="144.0" y2="72.1"/>
<line x1="134.8" y1="73.7" x2="154.0" y2="106.4"/>
<line x1="154.0" y1="106.4" x2="192.4" y2="106.4"/>
<line x1="182.4" y1="40.0" x2="164.0" y2="40.0"/>
<text x="227.135851" y="114.750408" fill="rgb(12,12,255)"  stroke="rgb(12,12,255)" stroke-width="1" font-size="16" >N</text>
<text x="226.894745" y="186.739466" fill="rgb(255,12,12)"  stroke="rgb(255,12,12)" stroke-width="1" font-size="16" >O</text>
<text x="206.894745" y="255.070397" fill="rgb(102,102,102)"  stroke="rgb(102,102,102)" stroke-width="1" font-size="16" >H</text>
<text x="218.894745" y="259.870397" fill="rgb(102,102,102)"  stroke="rgb(102,102,102)" stroke-width="1" font-size="13" >3</text>
<text x="225.394745" y="255.070397" fill="rgb(102,102,102)"  stroke="rgb(102,102,102)" stroke-width="1" font-size="16" >C</text>
<text x="286.719477" y="219.144931" fill="rgb(102,102,102)"  stroke="rgb(102,102,102)" stroke-width="1" font-size="16" >CH</text>
<text x="310.719477" y="223.944931" fill="rgb(102,102,102)"  stroke="rgb(102,102,102)" stroke-width="1" font-size="13" >3</text>
<text x="243.928136" y="81.028629" fill="rgb(12,12,255)"  stroke="rgb(12,12,255)" stroke-width="1" font-size="16" >N</text>
<text x="186.374305" y="48.320000" fill="rgb(12,12,255)"  stroke="rgb(12,12,255)" stroke-width="1" font-size="16" >N</text>
<text x="150.401246" y="48.320000" fill="rgb(12,12,255)"  stroke="rgb(12,12,255)" stroke-width="1" font-size="16" >N</text>
<text x="36.400000" y="111.364566" fill="rgb(255,12,12)"  stroke="rgb(255,12,12)" stroke-width="1" font-size="16" >O</text>
<text x="54.323584" y="177.050141" fill="rgb(102,102,102)"  stroke="rgb(102,102,102)" stroke-width="1" font-size="16" >H</text>
<text x="66.323584" y="181.850141" fill="rgb(102,102,102)"  stroke="rgb(102,102,102)" stroke-width="1" font-size="13" >3</text>
<text x="72.823584" y="177.050141" fill="rgb(102,102,102)"  stroke="rgb(102,102,102)" stroke-width="1" font-size="16" >C</text>
<text x="138.401246" y="149.153992" fill="rgb(12,12,255)"  stroke="rgb(12,12,255)" stroke-width="1" font-size="16" >HN</text>
<text x="138.401246" y="225.001160" fill="rgb(255,12,12)"  stroke="rgb(255,12,12)" stroke-width="1" font-size="16" >HO</text>
<text x="213.686821" y="225.001160" fill="rgb(102,102,102)"  stroke="rgb(102,102,102)" stroke-width="1" font-size="16" >CH</text>
<text x="237.686821" y="229.801160" fill="rgb(102,102,102)"  stroke="rgb(102,102,102)" stroke-width="1" font-size="13" >3</text>
<text x="230.735851" y="106.430408" fill="rgb(255,0,0)"  stroke="rgb(255,0,0)" stroke-width="1" font-size="12" >1</text>
<text x="251.236322" y="142.494001" fill="rgb(255,0,0)"  stroke="rgb(255,0,0)" stroke-width="1" font-size="12" >2</text>
<text x="230.494745" y="178.419466" fill="rgb(255,0,0)"  stroke="rgb(255,0,0)" stroke-width="1" font-size="12" >3</text>
<text x="251.236322" y="214.344931" fill="rgb(255,0,0)"  stroke="rgb(255,0,0)" stroke-width="1" font-size="12" >4</text>
<text x="230.494745" y="250.270397" fill="rgb(255,0,0)"  stroke="rgb(255,0,0)" stroke-width="1" font-size="12" >5</text>
<text x="292.719477" y="214.344931" fill="rgb(255,0,0)"  stroke="rgb(255,0,0)" stroke-width="1" font-size="12" >6</text>
<text x="249.928136" y="72.708629" fill="rgb(255,0,0)"  stroke="rgb(255,0,0)" stroke-width="1" font-size="12" >7</text>
<text x="230.735851" y="40.000000" fill="rgb(255,0,0)"  stroke="rgb(255,0,0)" stroke-width="1" font-size="12" >8</text>
<text x="192.374305" y="40.000000" fill="rgb(255,0,0)"  stroke="rgb(255,0,0)" stroke-width="1" font-size="12" >9</text>
<text x="154.001246" y="40.000000" fill="rgb(255,0,0)"  stroke="rgb(255,0,0)" stroke-width="1" font-size="12" >10</text>
<text x="134.808960" y="73.721779" fill="rgb(255,0,0)"  stroke="rgb(255,0,0)" stroke-width="1" font-size="12" >11</text>
<text x="96.885376" y="73.721779" fill="rgb(255,0,0)"  stroke="rgb(255,0,0)" stroke-width="1" font-size="12" >12</text>
<text x="77.923584" y="106.564566" fill="rgb(255,0,0)"  stroke="rgb(255,0,0)" stroke-width="1" font-size="12" >13</text>
<text x="40.000000" y="106.564566" fill="rgb(255,0,0)"  stroke="rgb(255,0,0)" stroke-width="1" font-size="12" >14</text>
<text x="96.885376" y="139.407353" fill="rgb(255,0,0)"  stroke="rgb(255,0,0)" stroke-width="1" font-size="12" >15</text>
<text x="77.923584" y="172.250141" fill="rgb(255,0,0)"  stroke="rgb(255,0,0)" stroke-width="1" font-size="12" >16</text>
<text x="154.001246" y="106.430408" fill="rgb(255,0,0)"  stroke="rgb(255,0,0)" stroke-width="1" font-size="12" >17</text>
<text x="154.001246" y="144.353992" fill="rgb(255,0,0)"  stroke="rgb(255,0,0)" stroke-width="1" font-size="12" >18</text>
<text x="186.844033" y="163.315784" fill="rgb(255,0,0)"  stroke="rgb(255,0,0)" stroke-width="1" font-size="12" >19</text>
<text x="186.844033" y="201.239368" fill="rgb(255,0,0)"  stroke="rgb(255,0,0)" stroke-width="1" font-size="12" >20</text>
<text x="154.001246" y="220.201160" fill="rgb(255,0,0)"  stroke="rgb(255,0,0)" stroke-width="1" font-size="12" >21</text>
<text x="219.686821" y="220.201160" fill="rgb(255,0,0)"  stroke="rgb(255,0,0)" stroke-width="1" font-size="12" >22</text>
<text x="192.374305" y="106.430408" fill="rgb(255,0,0)"  stroke="rgb(255,0,0)" stroke-width="1" font-size="12" >23</text>
<text font-size="18.000000" fill ="black" font-family="sans-serif"
x="140.000000" y="20.000000" ></text>
<title> - OBDepict</title>
</svg>
