<?xml version="1.0"?>
<svg xmlns="http://www.w3.org/2000/svg"
xmlns:xlink="http://www.w3.org/1999/xlink" xmlns:cml="http://www.xml-cml.org/schema" width="327.639" height="322.234" x="0" y="0" font-family="sans-serif" stroke="rgb(0,0,0)" stroke-width="1" >
<line x1="231.0" y1="147.8" x2="246.2" y2="174.5"/>
<line x1="246.2" y1="174.5" x2="225.4" y2="210.4"/>
<line x1="225.4" y1="210.4" x2="246.2" y2="246.3"/>
<line x1="248.8" y1="247.8" x2="233.4" y2="274.4"/>
<line x1="243.6" y1="244.8" x2="228.2" y2="271.4"/>
<line x1="246.2" y1="246.3" x2="276.9" y2="246.3"/>
<line x1="129.7" y1="105.7" x2="91.8" y2="105.7"/>
<line x1="91.8" y1="105.7" x2="72.8" y2="72.8"/>
<line x1="72.8" y1="72.8" x2="48.5" y2="58.8"/>
<line x1="72.8" y1="72.8" x2="48.5" y2="86.9"/>
<line x1="72.8" y1="72.8" x2="86.9" y2="48.5"/>
<line x1="148.9" y1="138.4" x2="148.9" y2="176.3"/>
<line x1="148.9" y1="176.3" x2="116.1" y2="195.3"/>
<line x1="116.1" y1="195.3" x2="102.0" y2="219.6"/>
<line x1="116.1" y1="195.3" x2="130.1" y2="219.6"/>
<line x1="116.1" y1="195.3" x2="91.8" y2="181.2"/>
<line x1="230.6" y1="129.6" x2="239.9" y2="113.4"/>
<line x1="239.9" y1="96.2" x2="225.7" y2="72.0"/>
<line x1="232.5" y1="97.9" x2="222.5" y2="80.8"/>
<line x1="225.7" y1="72.0" x2="197.3" y2="72.0"/>
<line x1="187.3" y1="89.2" x2="187.3" y2="138.4"/>
<line x1="187.3" y1="138.4" x2="215.7" y2="138.4"/>
<line x1="143.9" y1="80.7" x2="129.7" y2="105.7"/>
<line x1="149.1" y1="86.1" x2="139.0" y2="104.0"/>
<line x1="129.7" y1="105.7" x2="148.9" y2="138.4"/>
<line x1="148.9" y1="138.4" x2="187.3" y2="138.4"/>
<line x1="177.3" y1="72.0" x2="158.9" y2="72.0"/>
<text x="222.055054" y="146.714203" fill="rgb(12,12,255)"  stroke="rgb(12,12,255)" stroke-width="1" font-size="16" >N</text>
<text x="221.813948" y="287.034192" fill="rgb(255,12,12)"  stroke="rgb(255,12,12)" stroke-width="1" font-size="16" >O</text>
<text x="281.638680" y="254.628727" fill="rgb(102,102,102)"  stroke="rgb(102,102,102)" stroke-width="1" font-size="16" >CH</text>
<text x="305.638680" y="262.308727" fill="rgb(102,102,102)"  stroke="rgb(102,102,102)" stroke-width="1" font-size="13" >3</text>
<text x="238.847340" y="112.992424" fill="rgb(12,12,255)"  stroke="rgb(12,12,255)" stroke-width="1" font-size="16" >N</text>
<text x="181.293508" y="80.283796" fill="rgb(12,12,255)"  stroke="rgb(12,12,255)" stroke-width="1" font-size="16" >N</text>
<text x="145.320449" y="80.283796" fill="rgb(12,12,255)"  stroke="rgb(12,12,255)" stroke-width="1" font-size="16" >N</text>
<text x="16.400000" y="62.200995" fill="rgb(102,102,102)"  stroke="rgb(102,102,102)" stroke-width="1" font-size="16" >H</text>
<text x="28.400000" y="69.880995" fill="rgb(102,102,102)"  stroke="rgb(102,102,102)" stroke-width="1" font-size="13" >3</text>
<text x="34.900000" y="62.200995" fill="rgb(102,102,102)"  stroke="rgb(102,102,102)" stroke-width="1" font-size="16" >C</text>
<text x="16.400000" y="96.604579" fill="rgb(102,102,102)"  stroke="rgb(102,102,102)" stroke-width="1" font-size="16" >H</text>
<text x="28.400000" y="101.404579" fill="rgb(102,102,102)"  stroke="rgb(102,102,102)" stroke-width="1" font-size="13" >3</text>
<text x="34.900000" y="96.604579" fill="rgb(102,102,102)"  stroke="rgb(102,102,102)" stroke-width="1" font-size="16" >C</text>
<text x="85.804579" y="48.320000" fill="rgb(255,12,12)"  stroke="rgb(255,12,12)" stroke-width="1" font-size="16" >OH</text>
<text x="73.515870" y="232.922367" fill="rgb(102,102,102)"  stroke="rgb(102,102,102)" stroke-width="1" font-size="16" >H</text>
<text x="85.515870" y="237.722367" fill="rgb(102,102,102)"  stroke="rgb(102,102,102)" stroke-width="1" font-size="13" >3</text>
<text x="92.015870" y="232.922367" fill="rgb(102,102,102)"  stroke="rgb(102,102,102)" stroke-width="1" font-size="16" >C</text>
<text x="129.039454" y="232.922367" fill="rgb(102,102,102)"  stroke="rgb(102,102,102)" stroke-width="1" font-size="16" >CH</text>
<text x="153.039454" y="237.722367" fill="rgb(102,102,102)"  stroke="rgb(102,102,102)" stroke-width="1" font-size="13" >3</text>
<text x="67.634875" y="184.637787" fill="rgb(255,12,12)"  stroke="rgb(255,12,12)" stroke-width="1" font-size="16" >HO</text>
<text x="225.655054" y="138.394203" fill="rgb(255,0,0)"  stroke="rgb(255,0,0)" stroke-width="1" font-size="12" >1</text>
<text x="246.155526" y="174.457796" fill="rgb(255,0,0)"  stroke="rgb(255,0,0)" stroke-width="1" font-size="12" >2</text>
<text x="225.413948" y="210.383262" fill="rgb(255,0,0)"  stroke="rgb(255,0,0)" stroke-width="1" font-size="12" >3</text>
<text x="246.155526" y="246.308727" fill="rgb(255,0,0)"  stroke="rgb(255,0,0)" stroke-width="1" font-size="12" >4</text>
<text x="225.413948" y="282.234192" fill="rgb(255,0,0)"  stroke="rgb(255,0,0)" stroke-width="1" font-size="12" >5</text>
<text x="287.638680" y="246.308727" fill="rgb(255,0,0)"  stroke="rgb(255,0,0)" stroke-width="1" font-size="12" >6</text>
<text x="244.847340" y="104.672424" fill="rgb(255,0,0)"  stroke="rgb(255,0,0)" stroke-width="1" font-size="12" >7</text>
<text x="225.655054" y="71.963796" fill="rgb(255,0,0)"  stroke="rgb(255,0,0)" stroke-width="1" font-size="12" >8</text>
<text x="187.293508" y="71.963796" fill="rgb(255,0,0)"  stroke="rgb(255,0,0)" stroke-width="1" font-size="12" >9</text>
<text x="148.920449" y="71.963796" fill="rgb(255,0,0)"  stroke="rgb(255,0,0)" stroke-width="1" font-size="12" >10</text>
<text x="129.728163" y="105.685575" fill="rgb(255,0,0)"  stroke="rgb(255,0,0)" stroke-width="1" font-size="12" >11</text>
<text x="91.804579" y="105.685575" fill="rgb(255,0,0)"  stroke="rgb(255,0,0)" stroke-width="1" font-size="12" >12</text>
<text x="72.842787" y="72.842787" fill="rgb(255,0,0)"  stroke="rgb(255,0,0)" stroke-width="1" font-size="12" >13</text>
<text x="40.000000" y="53.880995" fill="rgb(255,0,0)"  stroke="rgb(255,0,0)" stroke-width="1" font-size="12" >14</text>
<text x="40.000000" y="91.804579" fill="rgb(255,0,0)"  stroke="rgb(255,0,0)" stroke-width="1" font-size="12" >15</text>
<text x="91.804579" y="40.000000" fill="rgb(255,0,0)"  stroke="rgb(255,0,0)" stroke-width="1" font-size="12" >16</text>
<text x="148.920449" y="138.394203" fill="rgb(255,0,0)"  stroke="rgb(255,0,0)" stroke-width="1" font-size="12" >17</text>
<text x="148.920449" y="176.317787" fill="rgb(255,0,0)"  stroke="rgb(255,0,0)" stroke-width="1" font-size="12" >18</text>
<text x="116.077662" y="195.279580" fill="rgb(255,0,0)"  stroke="rgb(255,0,0)" stroke-width="1" font-size="12" >19</text>
<text x="97.115870" y="228.122367" fill="rgb(255,0,0)"  stroke="rgb(255,0,0)" stroke-width="1" font-size="12" >20</text>
<text x="135.039454" y="228.122367" fill="rgb(255,0,0)"  stroke="rgb(255,0,0)" stroke-width="1" font-size="12" >21</text>
<text x="83.234875" y="176.317787" fill="rgb(255,0,0)"  stroke="rgb(255,0,0)" stroke-width="1" font-size="12" >22</text>
<text x="187.293508" y="138.394203" fill="rgb(255,0,0)"  stroke="rgb(255,0,0)" stroke-width="1" font-size="12" >23</text>
<text font-size="18.000000" fill ="black" font-family="sans-serif"
x="140.000000" y="20.000000" ></text>
<title> - OBDepict</title>
</svg>
