<?xml version="1.0"?>
<svg xmlns="http://www.w3.org/2000/svg"
xmlns:xlink="http://www.w3.org/1999/xlink" xmlns:cml="http://www.xml-cml.org/schema" x="0" y="0" font-family="sans-serif" stroke="rgb(0,0,0)" stroke-width="1" viewBox="0 0 307.166 181.144" width="245.7328" height="144.9152">
<line x1="252.2" y1="114.8" x2="261.9" y2="131.9"/>
<line x1="152.3" y1="73.3" x2="114.8" y2="73.3"/>
<line x1="114.8" y1="73.3" x2="96.1" y2="105.7"/>
<line x1="96.1" y1="105.7" x2="68.4" y2="105.7"/>
<line x1="53.8" y1="114.1" x2="44.9" y2="129.7"/>
<line x1="171.2" y1="105.6" x2="155.9" y2="131.7"/>
<line x1="251.9" y1="96.9" x2="261.0" y2="80.9"/>
<line x1="261.0" y1="63.9" x2="246.9" y2="40.0"/>
<line x1="253.6" y1="65.6" x2="243.8" y2="48.8"/>
<line x1="246.9" y1="40.0" x2="218.9" y2="40.0"/>
<line x1="209.1" y1="57.0" x2="209.1" y2="105.6"/>
<line x1="209.1" y1="105.6" x2="237.1" y2="105.6"/>
<line x1="166.3" y1="48.7" x2="152.3" y2="73.3"/>
<line x1="171.5" y1="54.1" x2="161.5" y2="71.6"/>
<line x1="152.3" y1="73.3" x2="171.2" y2="105.6"/>
<line x1="171.2" y1="105.6" x2="209.1" y2="105.6"/>
<line x1="199.2" y1="40.0" x2="181.1" y2="40.0"/>
<text x="243.335389" y="113.875349" fill="rgb(12,12,255)"  stroke="rgb(12,12,255)" stroke-width="1" font-size="16" >N</text>
<text x="261.165817" y="145.943893" fill="rgb(124,127,175)"  stroke="rgb(124,127,175)" stroke-width="1" font-size="16" >R</text>
<text x="259.874863" y="80.597773" fill="rgb(12,12,255)"  stroke="rgb(12,12,255)" stroke-width="1" font-size="16" >N</text>
<text x="203.079163" y="48.320000" fill="rgb(12,12,255)"  stroke="rgb(12,12,255)" stroke-width="1" font-size="16" >N</text>
<text x="167.611575" y="48.320000" fill="rgb(12,12,255)"  stroke="rgb(12,12,255)" stroke-width="1" font-size="16" >N</text>
<text x="43.112017" y="114.007741" fill="rgb(12,12,255)"  stroke="rgb(12,12,255)" stroke-width="1" font-size="16" >HN</text>
<text x="16.400000" y="142.897905" fill="rgb(102,102,102)"  stroke="rgb(102,102,102)" stroke-width="1" font-size="16" >H</text>
<text x="28.400000" y="147.697905" fill="rgb(102,102,102)"  stroke="rgb(102,102,102)" stroke-width="1" font-size="13" >3</text>
<text x="34.900000" y="142.897905" fill="rgb(102,102,102)"  stroke="rgb(102,102,102)" stroke-width="1" font-size="16" >C</text>
<text x="134.903658" y="145.668191" fill="rgb(124,127,175)"  stroke="rgb(124,127,175)" stroke-width="1" font-size="16" >R</text>
<text x="246.935389" y="105.555349" fill="rgb(255,0,0)"  stroke="rgb(255,0,0)" stroke-width="1" font-size="12" >1</text>
<text x="267.165817" y="141.143893" fill="rgb(255,0,0)"  stroke="rgb(255,0,0)" stroke-width="1" font-size="12" >2</text>
<text x="265.874863" y="72.277773" fill="rgb(255,0,0)"  stroke="rgb(255,0,0)" stroke-width="1" font-size="12" >3</text>
<text x="246.935389" y="40.000000" fill="rgb(255,0,0)"  stroke="rgb(255,0,0)" stroke-width="1" font-size="12" >4</text>
<text x="209.079163" y="40.000000" fill="rgb(255,0,0)"  stroke="rgb(255,0,0)" stroke-width="1" font-size="12" >5</text>
<text x="171.211575" y="40.000000" fill="rgb(255,0,0)"  stroke="rgb(255,0,0)" stroke-width="1" font-size="12" >6</text>
<text x="152.272101" y="73.277577" fill="rgb(255,0,0)"  stroke="rgb(255,0,0)" stroke-width="1" font-size="12" >7</text>
<text x="114.848067" y="73.277577" fill="rgb(255,0,0)"  stroke="rgb(255,0,0)" stroke-width="1" font-size="12" >8</text>
<text x="96.136050" y="105.687741" fill="rgb(255,0,0)"  stroke="rgb(255,0,0)" stroke-width="1" font-size="12" >9</text>
<text x="58.712017" y="105.687741" fill="rgb(255,0,0)"  stroke="rgb(255,0,0)" stroke-width="1" font-size="12" >10</text>
<text x="40.000000" y="138.097905" fill="rgb(255,0,0)"  stroke="rgb(255,0,0)" stroke-width="1" font-size="12" >11</text>
<text x="171.211575" y="105.555349" fill="rgb(255,0,0)"  stroke="rgb(255,0,0)" stroke-width="1" font-size="12" >12</text>
<text x="150.503658" y="140.868191" fill="rgb(255,0,0)"  stroke="rgb(255,0,0)" stroke-width="1" font-size="12" >13</text>
<text x="209.079163" y="105.555349" fill="rgb(255,0,0)"  stroke="rgb(255,0,0)" stroke-width="1" font-size="12" >14</text>
<text font-size="18.000000" fill ="black" font-family="sans-serif"
x="140.000000" y="20.000000" ></text>
<title> - OBDepict</title>
</svg>
