<?xml version="1.0"?>
<svg xmlns="http://www.w3.org/2000/svg"
xmlns:xlink="http://www.w3.org/1999/xlink" xmlns:cml="http://www.xml-cml.org/schema" x="0" y="0" font-family="sans-serif" stroke="rgb(0,0,0)" stroke-width="1" viewBox="0 0 348.555 290.61" width="278.844" height="232.488">
<line x1="293.4" y1="115.9" x2="308.6" y2="142.7"/>
<line x1="308.6" y1="142.7" x2="287.8" y2="178.6"/>
<line x1="287.8" y1="178.6" x2="303.2" y2="205.3"/>
<line x1="303.2" y1="224.0" x2="293.2" y2="241.3"/>
<line x1="191.9" y1="73.8" x2="154.0" y2="73.8"/>
<line x1="154.0" y1="73.8" x2="135.0" y2="106.7"/>
<line x1="135.0" y1="106.7" x2="97.0" y2="106.7"/>
<line x1="97.0" y1="106.7" x2="82.9" y2="131.0"/>
<line x1="68.1" y1="139.6" x2="49.9" y2="139.6"/>
<line x1="211.2" y1="106.5" x2="211.2" y2="144.5"/>
<line x1="211.2" y1="144.5" x2="235.5" y2="158.6"/>
<line x1="244.1" y1="173.4" x2="244.1" y2="201.5"/>
<line x1="244.1" y1="201.5" x2="219.7" y2="215.6"/>
<line x1="244.1" y1="201.5" x2="268.4" y2="215.6"/>
<line x1="293.0" y1="97.8" x2="302.2" y2="81.5"/>
<line x1="302.2" y1="64.2" x2="288.0" y2="40.0"/>
<line x1="294.9" y1="66.0" x2="284.8" y2="48.8"/>
<line x1="288.0" y1="40.0" x2="259.6" y2="40.0"/>
<line x1="249.6" y1="57.3" x2="249.6" y2="106.5"/>
<line x1="249.6" y1="106.5" x2="278.0" y2="106.5"/>
<line x1="206.2" y1="48.8" x2="191.9" y2="73.8"/>
<line x1="211.4" y1="54.2" x2="201.2" y2="72.1"/>
<line x1="191.9" y1="73.8" x2="211.2" y2="106.5"/>
<line x1="211.2" y1="106.5" x2="249.6" y2="106.5"/>
<line x1="239.6" y1="40.0" x2="221.2" y2="40.0"/>
<text x="284.421067" y="114.857675" fill="rgb(12,12,255)"  stroke="rgb(12,12,255)" stroke-width="1" font-size="16" >N</text>
<text x="302.554642" y="219.426451" fill="rgb(12,12,255)"  stroke="rgb(12,12,255)" stroke-width="1" font-size="16" >NH</text>
<text x="264.179573" y="255.409926" fill="rgb(102,102,102)"  stroke="rgb(102,102,102)" stroke-width="1" font-size="16" >H</text>
<text x="276.179573" y="260.209926" fill="rgb(102,102,102)"  stroke="rgb(102,102,102)" stroke-width="1" font-size="13" >3</text>
<text x="282.679573" y="255.409926" fill="rgb(102,102,102)"  stroke="rgb(102,102,102)" stroke-width="1" font-size="16" >C</text>
<text x="301.244344" y="81.081444" fill="rgb(12,12,255)"  stroke="rgb(12,12,255)" stroke-width="1" font-size="16" >N</text>
<text x="243.597578" y="48.320000" fill="rgb(12,12,255)"  stroke="rgb(12,12,255)" stroke-width="1" font-size="16" >N</text>
<text x="207.562558" y="48.320000" fill="rgb(12,12,255)"  stroke="rgb(12,12,255)" stroke-width="1" font-size="16" >N</text>
<text x="71.984820" y="144.367869" fill="rgb(12,12,255)"  stroke="rgb(12,12,255)" stroke-width="1" font-size="16" >NH</text>
<text x="16.400000" y="144.367869" fill="rgb(102,102,102)"  stroke="rgb(102,102,102)" stroke-width="1" font-size="16" >H</text>
<text x="28.400000" y="149.167869" fill="rgb(102,102,102)"  stroke="rgb(102,102,102)" stroke-width="1" font-size="13" >3</text>
<text x="34.900000" y="144.367869" fill="rgb(102,102,102)"  stroke="rgb(102,102,102)" stroke-width="1" font-size="16" >C</text>
<text x="238.058377" y="171.834905" fill="rgb(255,12,12)"  stroke="rgb(255,12,12)" stroke-width="1" font-size="16" >O</text>
<text x="187.562558" y="225.292136" fill="rgb(102,102,102)"  stroke="rgb(102,102,102)" stroke-width="1" font-size="16" >H</text>
<text x="199.562558" y="230.092136" fill="rgb(102,102,102)"  stroke="rgb(102,102,102)" stroke-width="1" font-size="13" >3</text>
<text x="206.062558" y="225.292136" fill="rgb(102,102,102)"  stroke="rgb(102,102,102)" stroke-width="1" font-size="16" >C</text>
<text x="270.954197" y="225.292136" fill="rgb(102,102,102)"  stroke="rgb(102,102,102)" stroke-width="1" font-size="16" >CH</text>
<text x="294.954197" y="230.092136" fill="rgb(102,102,102)"  stroke="rgb(102,102,102)" stroke-width="1" font-size="13" >3</text>
<text x="288.021067" y="106.537675" fill="rgb(255,0,0)"  stroke="rgb(255,0,0)" stroke-width="1" font-size="12" >1</text>
<text x="308.554642" y="142.659500" fill="rgb(255,0,0)"  stroke="rgb(255,0,0)" stroke-width="1" font-size="12" >2</text>
<text x="287.779573" y="178.642976" fill="rgb(255,0,0)"  stroke="rgb(255,0,0)" stroke-width="1" font-size="12" >3</text>
<text x="308.554642" y="214.626451" fill="rgb(255,0,0)"  stroke="rgb(255,0,0)" stroke-width="1" font-size="12" >4</text>
<text x="287.779573" y="250.609926" fill="rgb(255,0,0)"  stroke="rgb(255,0,0)" stroke-width="1" font-size="12" >5</text>
<text x="307.244344" y="72.761444" fill="rgb(255,0,0)"  stroke="rgb(255,0,0)" stroke-width="1" font-size="12" >6</text>
<text x="288.021067" y="40.000000" fill="rgb(255,0,0)"  stroke="rgb(255,0,0)" stroke-width="1" font-size="12" >7</text>
<text x="249.597578" y="40.000000" fill="rgb(255,0,0)"  stroke="rgb(255,0,0)" stroke-width="1" font-size="12" >8</text>
<text x="211.162558" y="40.000000" fill="rgb(255,0,0)"  stroke="rgb(255,0,0)" stroke-width="1" font-size="12" >9</text>
<text x="191.939282" y="73.776230" fill="rgb(255,0,0)"  stroke="rgb(255,0,0)" stroke-width="1" font-size="12" >10</text>
<text x="153.954461" y="73.776230" fill="rgb(255,0,0)"  stroke="rgb(255,0,0)" stroke-width="1" font-size="12" >11</text>
<text x="134.962051" y="106.672050" fill="rgb(255,0,0)"  stroke="rgb(255,0,0)" stroke-width="1" font-size="12" >12</text>
<text x="96.977231" y="106.672050" fill="rgb(255,0,0)"  stroke="rgb(255,0,0)" stroke-width="1" font-size="12" >13</text>
<text x="77.984820" y="139.567869" fill="rgb(255,0,0)"  stroke="rgb(255,0,0)" stroke-width="1" font-size="12" >14</text>
<text x="40.000000" y="139.567869" fill="rgb(255,0,0)"  stroke="rgb(255,0,0)" stroke-width="1" font-size="12" >15</text>
<text x="211.162558" y="106.537675" fill="rgb(255,0,0)"  stroke="rgb(255,0,0)" stroke-width="1" font-size="12" >16</text>
<text x="211.162558" y="144.522495" fill="rgb(255,0,0)"  stroke="rgb(255,0,0)" stroke-width="1" font-size="12" >17</text>
<text x="244.058377" y="163.514905" fill="rgb(255,0,0)"  stroke="rgb(255,0,0)" stroke-width="1" font-size="12" >18</text>
<text x="244.058377" y="201.499726" fill="rgb(255,0,0)"  stroke="rgb(255,0,0)" stroke-width="1" font-size="12" >19</text>
<text x="211.162558" y="220.492136" fill="rgb(255,0,0)"  stroke="rgb(255,0,0)" stroke-width="1" font-size="12" >20</text>
<text x="276.954197" y="220.492136" fill="rgb(255,0,0)"  stroke="rgb(255,0,0)" stroke-width="1" font-size="12" >21</text>
<text x="249.597578" y="106.537675" fill="rgb(255,0,0)"  stroke="rgb(255,0,0)" stroke-width="1" font-size="12" >22</text>
<text font-size="18.000000" fill ="black" font-family="sans-serif"
x="140.000000" y="20.000000" ></text>
<title> - OBDepict</title>
</svg>
