<?xml version="1.0"?>
<svg xmlns="http://www.w3.org/2000/svg"
xmlns:xlink="http://www.w3.org/1999/xlink" xmlns:cml="http://www.xml-cml.org/schema" width="235.103" height="238.387" x="0" y="0" font-family="sans-serif" stroke="rgb(0,0,0)" stroke-width="1" >
<line x1="180.2" y1="114.5" x2="189.9" y2="131.5"/>
<line x1="80.7" y1="73.1" x2="50.6" y2="73.9"/>
<line x1="99.6" y1="105.3" x2="99.6" y2="132.8"/>
<line x1="108.0" y1="147.4" x2="131.8" y2="161.1"/>
<line x1="131.8" y1="161.1" x2="131.8" y2="188.7"/>
<line x1="179.9" y1="96.6" x2="188.9" y2="80.7"/>
<line x1="188.9" y1="63.8" x2="175.0" y2="40.0"/>
<line x1="181.6" y1="65.5" x2="171.8" y2="48.8"/>
<line x1="175.0" y1="40.0" x2="147.1" y2="40.0"/>
<line x1="137.3" y1="57.0" x2="137.3" y2="105.3"/>
<line x1="137.3" y1="105.3" x2="165.2" y2="105.3"/>
<line x1="94.7" y1="48.6" x2="80.7" y2="73.1"/>
<line x1="99.9" y1="54.1" x2="90.0" y2="71.5"/>
<line x1="80.7" y1="73.1" x2="99.6" y2="105.3"/>
<line x1="99.6" y1="105.3" x2="137.3" y2="105.3"/>
<line x1="127.5" y1="40.0" x2="109.4" y2="40.0"/>
<text x="171.364920" y="113.575179" fill="rgb(12,12,255)"  stroke="rgb(12,12,255)" stroke-width="1" font-size="16" >N</text>
<text x="189.102716" y="145.480767" fill="rgb(124,127,175)"  stroke="rgb(124,127,175)" stroke-width="1" font-size="16" >R</text>
<text x="187.817673" y="80.449977" fill="rgb(12,12,255)"  stroke="rgb(12,12,255)" stroke-width="1" font-size="16" >N</text>
<text x="131.282033" y="48.320000" fill="rgb(12,12,255)"  stroke="rgb(12,12,255)" stroke-width="1" font-size="16" >N</text>
<text x="95.987837" y="48.320000" fill="rgb(12,12,255)"  stroke="rgb(12,12,255)" stroke-width="1" font-size="16" >N</text>
<text x="24.400000" y="79.000394" fill="rgb(124,127,175)"  stroke="rgb(124,127,175)" stroke-width="1" font-size="16" >R</text>
<text x="83.987837" y="147.307853" fill="rgb(12,12,255)"  stroke="rgb(12,12,255)" stroke-width="1" font-size="16" >HN</text>
<text x="125.849598" y="203.186863" fill="rgb(102,102,102)"  stroke="rgb(102,102,102)" stroke-width="1" font-size="16" >CH</text>
<text x="149.849598" y="207.986863" fill="rgb(102,102,102)"  stroke="rgb(102,102,102)" stroke-width="1" font-size="13" >3</text>
<text x="174.964920" y="105.255179" fill="rgb(255,0,0)"  stroke="rgb(255,0,0)" stroke-width="1" font-size="12" >1</text>
<text x="195.102716" y="140.680767" fill="rgb(255,0,0)"  stroke="rgb(255,0,0)" stroke-width="1" font-size="12" >2</text>
<text x="193.817673" y="72.129977" fill="rgb(255,0,0)"  stroke="rgb(255,0,0)" stroke-width="1" font-size="12" >3</text>
<text x="174.964920" y="40.000000" fill="rgb(255,0,0)"  stroke="rgb(255,0,0)" stroke-width="1" font-size="12" >4</text>
<text x="137.282033" y="40.000000" fill="rgb(255,0,0)"  stroke="rgb(255,0,0)" stroke-width="1" font-size="12" >5</text>
<text x="99.587837" y="40.000000" fill="rgb(255,0,0)"  stroke="rgb(255,0,0)" stroke-width="1" font-size="12" >6</text>
<text x="80.735084" y="73.125203" fill="rgb(255,0,0)"  stroke="rgb(255,0,0)" stroke-width="1" font-size="12" >7</text>
<text x="40.000000" y="74.200394" fill="rgb(255,0,0)"  stroke="rgb(255,0,0)" stroke-width="1" font-size="12" >8</text>
<text x="99.587837" y="105.255179" fill="rgb(255,0,0)"  stroke="rgb(255,0,0)" stroke-width="1" font-size="12" >9</text>
<text x="99.587837" y="142.507853" fill="rgb(255,0,0)"  stroke="rgb(255,0,0)" stroke-width="1" font-size="12" >10</text>
<text x="131.849598" y="161.134190" fill="rgb(255,0,0)"  stroke="rgb(255,0,0)" stroke-width="1" font-size="12" >11</text>
<text x="131.849598" y="198.386863" fill="rgb(255,0,0)"  stroke="rgb(255,0,0)" stroke-width="1" font-size="12" >12</text>
<text x="137.282033" y="105.255179" fill="rgb(255,0,0)"  stroke="rgb(255,0,0)" stroke-width="1" font-size="12" >13</text>
<text font-size="18.000000" fill ="black" font-family="sans-serif"
x="140.000000" y="20.000000" ></text>
<title> - OBDepict</title>
</svg>
