<?xml version="1.0"?>
<svg xmlns="http://www.w3.org/2000/svg"
xmlns:xlink="http://www.w3.org/1999/xlink" xmlns:cml="http://www.xml-cml.org/schema" width="333.127" height="254.626" x="0" y="0" font-family="sans-serif" stroke="rgb(0,0,0)" stroke-width="1" >
<line x1="236.4" y1="138.7" x2="251.6" y2="112.0"/>
<line x1="251.6" y1="112.0" x2="282.3" y2="111.8"/>
<line x1="251.6" y1="112.0" x2="230.8" y2="76.0"/>
<line x1="230.8" y1="76.0" x2="246.2" y2="49.4"/>
<line x1="135.0" y1="180.9" x2="97.0" y2="180.9"/>
<line x1="97.0" y1="180.9" x2="78.0" y2="148.0"/>
<line x1="78.0" y1="151.0" x2="49.9" y2="151.0"/>
<line x1="78.0" y1="145.0" x2="49.9" y2="145.0"/>
<line x1="78.0" y1="148.0" x2="97.0" y2="115.1"/>
<line x1="97.0" y1="115.1" x2="82.9" y2="90.7"/>
<line x1="154.2" y1="148.1" x2="154.2" y2="110.1"/>
<line x1="154.2" y1="110.1" x2="187.1" y2="91.1"/>
<line x1="187.1" y1="91.1" x2="201.1" y2="66.8"/>
<line x1="187.1" y1="91.1" x2="173.0" y2="66.8"/>
<line x1="187.1" y1="91.1" x2="211.4" y2="105.2"/>
<line x1="236.0" y1="156.9" x2="245.3" y2="173.1"/>
<line x1="245.3" y1="190.4" x2="231.0" y2="214.6"/>
<line x1="237.9" y1="188.6" x2="227.9" y2="205.8"/>
<line x1="231.0" y1="214.6" x2="202.6" y2="214.6"/>
<line x1="192.6" y1="197.3" x2="192.6" y2="148.1"/>
<line x1="192.6" y1="148.1" x2="221.1" y2="148.1"/>
<line x1="149.2" y1="205.8" x2="135.0" y2="180.9"/>
<line x1="154.4" y1="200.4" x2="144.2" y2="182.5"/>
<line x1="135.0" y1="180.9" x2="154.2" y2="148.1"/>
<line x1="154.2" y1="148.1" x2="192.6" y2="148.1"/>
<line x1="182.6" y1="214.6" x2="164.2" y2="214.6"/>
<text x="227.443837" y="152.888776" fill="rgb(12,12,255)"  stroke="rgb(12,12,255)" stroke-width="1" font-size="16" >N</text>
<text x="287.126617" y="120.008635" fill="rgb(255,12,12)"  stroke="rgb(255,12,12)" stroke-width="1" font-size="16" >OH</text>
<text x="245.577411" y="48.320000" fill="rgb(102,102,102)"  stroke="rgb(102,102,102)" stroke-width="1" font-size="16" >CH</text>
<text x="269.577411" y="56.000000" fill="rgb(102,102,102)"  stroke="rgb(102,102,102)" stroke-width="1" font-size="13" >3</text>
<text x="244.267113" y="186.665006" fill="rgb(12,12,255)"  stroke="rgb(12,12,255)" stroke-width="1" font-size="16" >N</text>
<text x="186.620348" y="219.426451" fill="rgb(12,12,255)"  stroke="rgb(12,12,255)" stroke-width="1" font-size="16" >N</text>
<text x="150.585327" y="219.426451" fill="rgb(12,12,255)"  stroke="rgb(12,12,255)" stroke-width="1" font-size="16" >N</text>
<text x="36.400000" y="156.274401" fill="rgb(255,12,12)"  stroke="rgb(255,12,12)" stroke-width="1" font-size="16" >O</text>
<text x="54.384820" y="90.482762" fill="rgb(102,102,102)"  stroke="rgb(102,102,102)" stroke-width="1" font-size="16" >H</text>
<text x="66.384820" y="98.162762" fill="rgb(102,102,102)"  stroke="rgb(102,102,102)" stroke-width="1" font-size="13" >3</text>
<text x="72.884820" y="90.482762" fill="rgb(102,102,102)"  stroke="rgb(102,102,102)" stroke-width="1" font-size="16" >C</text>
<text x="200.073557" y="66.535726" fill="rgb(102,102,102)"  stroke="rgb(102,102,102)" stroke-width="1" font-size="16" >CH</text>
<text x="224.073557" y="74.215726" fill="rgb(102,102,102)"  stroke="rgb(102,102,102)" stroke-width="1" font-size="13" >3</text>
<text x="144.488736" y="66.535726" fill="rgb(102,102,102)"  stroke="rgb(102,102,102)" stroke-width="1" font-size="16" >H</text>
<text x="156.488736" y="74.215726" fill="rgb(102,102,102)"  stroke="rgb(102,102,102)" stroke-width="1" font-size="13" >3</text>
<text x="162.988736" y="66.535726" fill="rgb(102,102,102)"  stroke="rgb(102,102,102)" stroke-width="1" font-size="16" >C</text>
<text x="213.976966" y="114.903956" fill="rgb(255,12,12)"  stroke="rgb(255,12,12)" stroke-width="1" font-size="16" >OH</text>
<text x="231.043837" y="148.088776" fill="rgb(255,0,0)"  stroke="rgb(255,0,0)" stroke-width="1" font-size="12" >1</text>
<text x="251.577411" y="111.966950" fill="rgb(255,0,0)"  stroke="rgb(255,0,0)" stroke-width="1" font-size="12" >2</text>
<text x="293.126617" y="111.688635" fill="rgb(255,0,0)"  stroke="rgb(255,0,0)" stroke-width="1" font-size="12" >3</text>
<text x="230.802342" y="75.983475" fill="rgb(255,0,0)"  stroke="rgb(255,0,0)" stroke-width="1" font-size="12" >4</text>
<text x="251.577411" y="40.000000" fill="rgb(255,0,0)"  stroke="rgb(255,0,0)" stroke-width="1" font-size="12" >5</text>
<text x="250.267113" y="181.865006" fill="rgb(255,0,0)"  stroke="rgb(255,0,0)" stroke-width="1" font-size="12" >6</text>
<text x="231.043837" y="214.626451" fill="rgb(255,0,0)"  stroke="rgb(255,0,0)" stroke-width="1" font-size="12" >7</text>
<text x="192.620348" y="214.626451" fill="rgb(255,0,0)"  stroke="rgb(255,0,0)" stroke-width="1" font-size="12" >8</text>
<text x="154.185327" y="214.626451" fill="rgb(255,0,0)"  stroke="rgb(255,0,0)" stroke-width="1" font-size="12" >9</text>
<text x="134.962051" y="180.850220" fill="rgb(255,0,0)"  stroke="rgb(255,0,0)" stroke-width="1" font-size="12" >10</text>
<text x="96.977231" y="180.850220" fill="rgb(255,0,0)"  stroke="rgb(255,0,0)" stroke-width="1" font-size="12" >11</text>
<text x="77.984820" y="147.954401" fill="rgb(255,0,0)"  stroke="rgb(255,0,0)" stroke-width="1" font-size="12" >12</text>
<text x="40.000000" y="147.954401" fill="rgb(255,0,0)"  stroke="rgb(255,0,0)" stroke-width="1" font-size="12" >13</text>
<text x="96.977231" y="115.058582" fill="rgb(255,0,0)"  stroke="rgb(255,0,0)" stroke-width="1" font-size="12" >14</text>
<text x="77.984820" y="82.162762" fill="rgb(255,0,0)"  stroke="rgb(255,0,0)" stroke-width="1" font-size="12" >15</text>
<text x="154.185327" y="148.088776" fill="rgb(255,0,0)"  stroke="rgb(255,0,0)" stroke-width="1" font-size="12" >16</text>
<text x="154.185327" y="110.103956" fill="rgb(255,0,0)"  stroke="rgb(255,0,0)" stroke-width="1" font-size="12" >17</text>
<text x="187.081147" y="91.111546" fill="rgb(255,0,0)"  stroke="rgb(255,0,0)" stroke-width="1" font-size="12" >18</text>
<text x="206.073557" y="58.215726" fill="rgb(255,0,0)"  stroke="rgb(255,0,0)" stroke-width="1" font-size="12" >19</text>
<text x="168.088736" y="58.215726" fill="rgb(255,0,0)"  stroke="rgb(255,0,0)" stroke-width="1" font-size="12" >20</text>
<text x="219.976966" y="110.103956" fill="rgb(255,0,0)"  stroke="rgb(255,0,0)" stroke-width="1" font-size="12" >21</text>
<text x="192.620348" y="148.088776" fill="rgb(255,0,0)"  stroke="rgb(255,0,0)" stroke-width="1" font-size="12" >22</text>
<text font-size="18.000000" fill ="black" font-family="sans-serif"
x="140.000000" y="20.000000" ></text>
<title> - OBDepict</title>
</svg>
