<?xml version="1.0"?>
<svg xmlns="http://www.w3.org/2000/svg"
xmlns:xlink="http://www.w3.org/1999/xlink" xmlns:cml="http://www.xml-cml.org/schema" width="450.561" height="288.216" x="0" y="0" font-family="sans-serif" stroke="rgb(0,0,0)" stroke-width="1" >
<line x1="230.7" y1="147.6" x2="245.9" y2="174.3"/>
<line x1="245.9" y1="174.3" x2="287.3" y2="174.8"/>
<line x1="287.3" y1="174.8" x2="307.5" y2="211.0"/>
<line x1="307.5" y1="211.0" x2="348.9" y2="211.5"/>
<line x1="348.9" y1="211.5" x2="363.9" y2="238.3"/>
<line x1="379.9" y1="247.8" x2="399.8" y2="248.1"/>
<line x1="129.6" y1="105.6" x2="91.7" y2="105.6"/>
<line x1="91.7" y1="105.6" x2="72.8" y2="72.8"/>
<line x1="72.8" y1="72.8" x2="48.5" y2="58.8"/>
<line x1="72.8" y1="72.8" x2="48.5" y2="86.8"/>
<line x1="72.8" y1="72.8" x2="86.8" y2="48.5"/>
<line x1="148.8" y1="138.2" x2="148.8" y2="176.1"/>
<line x1="148.8" y1="176.1" x2="181.6" y2="195.0"/>
<line x1="184.6" y1="195.0" x2="184.6" y2="223.1"/>
<line x1="178.6" y1="195.0" x2="178.6" y2="223.1"/>
<line x1="181.6" y1="195.0" x2="214.3" y2="176.1"/>
<line x1="214.3" y1="176.1" x2="238.6" y2="190.1"/>
<line x1="230.4" y1="129.5" x2="239.6" y2="113.3"/>
<line x1="239.6" y1="96.1" x2="225.4" y2="71.9"/>
<line x1="232.2" y1="97.8" x2="222.2" y2="80.7"/>
<line x1="225.4" y1="71.9" x2="197.0" y2="71.9"/>
<line x1="187.1" y1="89.2" x2="187.1" y2="138.2"/>
<line x1="187.1" y1="138.2" x2="215.4" y2="138.2"/>
<line x1="143.8" y1="80.7" x2="129.6" y2="105.6"/>
<line x1="149.0" y1="86.1" x2="138.8" y2="103.9"/>
<line x1="129.6" y1="105.6" x2="148.8" y2="138.2"/>
<line x1="148.8" y1="138.2" x2="187.1" y2="138.2"/>
<line x1="177.1" y1="71.9" x2="158.7" y2="71.9"/>
<text x="221.780106" y="146.568486" fill="rgb(12,12,255)"  stroke="rgb(12,12,255)" stroke-width="1" font-size="16" >N</text>
<text x="353.543113" y="252.461450" fill="rgb(12,12,255)"  stroke="rgb(12,12,255)" stroke-width="1" font-size="16" >HN</text>
<text x="404.561115" y="253.016349" fill="rgb(102,102,102)"  stroke="rgb(102,102,102)" stroke-width="1" font-size="16" >CH</text>
<text x="428.561115" y="257.816349" fill="rgb(102,102,102)"  stroke="rgb(102,102,102)" stroke-width="1" font-size="13" >3</text>
<text x="238.543969" y="112.896647" fill="rgb(12,12,255)"  stroke="rgb(12,12,255)" stroke-width="1" font-size="16" >N</text>
<text x="181.075373" y="80.236459" fill="rgb(12,12,255)"  stroke="rgb(12,12,255)" stroke-width="1" font-size="16" >N</text>
<text x="145.159143" y="80.236459" fill="rgb(12,12,255)"  stroke="rgb(12,12,255)" stroke-width="1" font-size="16" >N</text>
<text x="16.400000" y="62.180438" fill="rgb(102,102,102)"  stroke="rgb(102,102,102)" stroke-width="1" font-size="16" >H</text>
<text x="28.400000" y="69.860438" fill="rgb(102,102,102)"  stroke="rgb(102,102,102)" stroke-width="1" font-size="13" >3</text>
<text x="34.900000" y="62.180438" fill="rgb(102,102,102)"  stroke="rgb(102,102,102)" stroke-width="1" font-size="16" >C</text>
<text x="16.400000" y="96.527859" fill="rgb(102,102,102)"  stroke="rgb(102,102,102)" stroke-width="1" font-size="16" >H</text>
<text x="28.400000" y="101.327859" fill="rgb(102,102,102)"  stroke="rgb(102,102,102)" stroke-width="1" font-size="13" >3</text>
<text x="34.900000" y="96.527859" fill="rgb(102,102,102)"  stroke="rgb(102,102,102)" stroke-width="1" font-size="16" >C</text>
<text x="85.727859" y="48.320000" fill="rgb(255,12,12)"  stroke="rgb(255,12,12)" stroke-width="1" font-size="16" >OH</text>
<text x="175.553291" y="237.717038" fill="rgb(255,12,12)"  stroke="rgb(255,12,12)" stroke-width="1" font-size="16" >O</text>
<text x="241.141588" y="199.849617" fill="rgb(102,102,102)"  stroke="rgb(102,102,102)" stroke-width="1" font-size="16" >CH</text>
<text x="265.141588" y="204.649617" fill="rgb(102,102,102)"  stroke="rgb(102,102,102)" stroke-width="1" font-size="13" >3</text>
<text x="225.380106" y="138.248486" fill="rgb(255,0,0)"  stroke="rgb(255,0,0)" stroke-width="1" font-size="12" >1</text>
<text x="245.850218" y="174.258670" fill="rgb(255,0,0)"  stroke="rgb(255,0,0)" stroke-width="1" font-size="12" >2</text>
<text x="287.268220" y="174.813568" fill="rgb(255,0,0)"  stroke="rgb(255,0,0)" stroke-width="1" font-size="12" >3</text>
<text x="307.496665" y="210.960060" fill="rgb(255,0,0)"  stroke="rgb(255,0,0)" stroke-width="1" font-size="12" >4</text>
<text x="348.914668" y="211.514959" fill="rgb(255,0,0)"  stroke="rgb(255,0,0)" stroke-width="1" font-size="12" >5</text>
<text x="369.143113" y="247.661450" fill="rgb(255,0,0)"  stroke="rgb(255,0,0)" stroke-width="1" font-size="12" >6</text>
<text x="410.561115" y="248.216349" fill="rgb(255,0,0)"  stroke="rgb(255,0,0)" stroke-width="1" font-size="12" >7</text>
<text x="244.543969" y="104.576647" fill="rgb(255,0,0)"  stroke="rgb(255,0,0)" stroke-width="1" font-size="12" >8</text>
<text x="225.380106" y="71.916459" fill="rgb(255,0,0)"  stroke="rgb(255,0,0)" stroke-width="1" font-size="12" >9</text>
<text x="187.075373" y="71.916459" fill="rgb(255,0,0)"  stroke="rgb(255,0,0)" stroke-width="1" font-size="12" >10</text>
<text x="148.759143" y="71.916459" fill="rgb(255,0,0)"  stroke="rgb(255,0,0)" stroke-width="1" font-size="12" >11</text>
<text x="129.595280" y="105.588297" fill="rgb(255,0,0)"  stroke="rgb(255,0,0)" stroke-width="1" font-size="12" >12</text>
<text x="91.727859" y="105.588297" fill="rgb(255,0,0)"  stroke="rgb(255,0,0)" stroke-width="1" font-size="12" >13</text>
<text x="72.794148" y="72.794148" fill="rgb(255,0,0)"  stroke="rgb(255,0,0)" stroke-width="1" font-size="12" >14</text>
<text x="40.000000" y="53.860438" fill="rgb(255,0,0)"  stroke="rgb(255,0,0)" stroke-width="1" font-size="12" >15</text>
<text x="40.000000" y="91.727859" fill="rgb(255,0,0)"  stroke="rgb(255,0,0)" stroke-width="1" font-size="12" >16</text>
<text x="91.727859" y="40.000000" fill="rgb(255,0,0)"  stroke="rgb(255,0,0)" stroke-width="1" font-size="12" >17</text>
<text x="148.759143" y="138.248486" fill="rgb(255,0,0)"  stroke="rgb(255,0,0)" stroke-width="1" font-size="12" >18</text>
<text x="148.759143" y="176.115907" fill="rgb(255,0,0)"  stroke="rgb(255,0,0)" stroke-width="1" font-size="12" >19</text>
<text x="181.553291" y="195.049617" fill="rgb(255,0,0)"  stroke="rgb(255,0,0)" stroke-width="1" font-size="12" >20</text>
<text x="181.553291" y="232.917038" fill="rgb(255,0,0)"  stroke="rgb(255,0,0)" stroke-width="1" font-size="12" >21</text>
<text x="214.347440" y="176.115907" fill="rgb(255,0,0)"  stroke="rgb(255,0,0)" stroke-width="1" font-size="12" >22</text>
<text x="247.141588" y="195.049617" fill="rgb(255,0,0)"  stroke="rgb(255,0,0)" stroke-width="1" font-size="12" >23</text>
<text x="187.075373" y="138.248486" fill="rgb(255,0,0)"  stroke="rgb(255,0,0)" stroke-width="1" font-size="12" >24</text>
<text font-size="18.000000" fill ="black" font-family="sans-serif"
x="140.000000" y="20.000000" ></text>
<title> - OBDepict</title>
</svg>
