<?xml version="1.0"?>
<svg xmlns="http://www.w3.org/2000/svg"
xmlns:xlink="http://www.w3.org/1999/xlink" xmlns:cml="http://www.xml-cml.org/schema" x="0" y="0" font-family="sans-serif" stroke="rgb(0,0,0)" stroke-width="1" viewBox="0 0 286.816 285.87" width="229.4528" height="228.696">
<line x1="232.0" y1="114.2" x2="246.8" y2="140.3"/>
<line x1="246.8" y1="140.3" x2="226.5" y2="175.5"/>
<line x1="226.5" y1="175.5" x2="246.8" y2="210.7"/>
<line x1="246.8" y1="210.7" x2="231.8" y2="236.7"/>
<line x1="132.8" y1="73.0" x2="105.3" y2="73.0"/>
<line x1="90.9" y1="81.4" x2="77.1" y2="105.2"/>
<line x1="77.1" y1="105.2" x2="49.7" y2="105.2"/>
<line x1="151.6" y1="105.0" x2="136.4" y2="131.0"/>
<line x1="231.6" y1="96.5" x2="240.6" y2="80.6"/>
<line x1="240.6" y1="63.7" x2="226.7" y2="40.0"/>
<line x1="233.3" y1="65.4" x2="223.6" y2="48.8"/>
<line x1="226.7" y1="40.0" x2="199.0" y2="40.0"/>
<line x1="189.2" y1="56.9" x2="189.2" y2="105.0"/>
<line x1="189.2" y1="105.0" x2="217.0" y2="105.0"/>
<line x1="146.7" y1="48.6" x2="132.8" y2="73.0"/>
<line x1="151.9" y1="54.1" x2="142.1" y2="71.4"/>
<line x1="132.8" y1="73.0" x2="151.6" y2="105.0"/>
<line x1="151.6" y1="105.0" x2="189.2" y2="105.0"/>
<line x1="179.4" y1="40.0" x2="161.4" y2="40.0"/>
<text x="223.144217" y="113.360182" fill="rgb(12,12,255)"  stroke="rgb(12,12,255)" stroke-width="1" font-size="16" >N</text>
<text x="202.908158" y="250.669953" fill="rgb(102,102,102)"  stroke="rgb(102,102,102)" stroke-width="1" font-size="16" >H</text>
<text x="214.908158" y="255.469953" fill="rgb(102,102,102)"  stroke="rgb(102,102,102)" stroke-width="1" font-size="13" >3</text>
<text x="221.408158" y="250.669953" fill="rgb(102,102,102)"  stroke="rgb(102,102,102)" stroke-width="1" font-size="16" >C</text>
<text x="239.534856" y="80.344117" fill="rgb(12,12,255)"  stroke="rgb(12,12,255)" stroke-width="1" font-size="16" >N</text>
<text x="183.185485" y="48.320000" fill="rgb(12,12,255)"  stroke="rgb(12,12,255)" stroke-width="1" font-size="16" >N</text>
<text x="148.015480" y="48.320000" fill="rgb(12,12,255)"  stroke="rgb(12,12,255)" stroke-width="1" font-size="16" >N</text>
<text x="80.094905" y="81.336065" fill="rgb(12,12,255)"  stroke="rgb(12,12,255)" stroke-width="1" font-size="16" >HN</text>
<text x="16.400000" y="109.971533" fill="rgb(102,102,102)"  stroke="rgb(102,102,102)" stroke-width="1" font-size="16" >H</text>
<text x="28.400000" y="114.771533" fill="rgb(102,102,102)"  stroke="rgb(102,102,102)" stroke-width="1" font-size="13" >3</text>
<text x="34.900000" y="109.971533" fill="rgb(102,102,102)"  stroke="rgb(102,102,102)" stroke-width="1" font-size="16" >C</text>
<text x="115.470296" y="144.875518" fill="rgb(124,127,175)"  stroke="rgb(124,127,175)" stroke-width="1" font-size="16" >R</text>
<text x="226.744217" y="105.040182" fill="rgb(255,0,0)"  stroke="rgb(255,0,0)" stroke-width="1" font-size="12" >1</text>
<text x="246.815665" y="140.349053" fill="rgb(255,0,0)"  stroke="rgb(255,0,0)" stroke-width="1" font-size="12" >2</text>
<text x="226.508158" y="175.522686" fill="rgb(255,0,0)"  stroke="rgb(255,0,0)" stroke-width="1" font-size="12" >3</text>
<text x="246.815665" y="210.696320" fill="rgb(255,0,0)"  stroke="rgb(255,0,0)" stroke-width="1" font-size="12" >4</text>
<text x="226.508158" y="245.869953" fill="rgb(255,0,0)"  stroke="rgb(255,0,0)" stroke-width="1" font-size="12" >5</text>
<text x="245.534856" y="72.024117" fill="rgb(255,0,0)"  stroke="rgb(255,0,0)" stroke-width="1" font-size="12" >6</text>
<text x="226.744217" y="40.000000" fill="rgb(255,0,0)"  stroke="rgb(255,0,0)" stroke-width="1" font-size="12" >7</text>
<text x="189.185485" y="40.000000" fill="rgb(255,0,0)"  stroke="rgb(255,0,0)" stroke-width="1" font-size="12" >8</text>
<text x="151.615480" y="40.000000" fill="rgb(255,0,0)"  stroke="rgb(255,0,0)" stroke-width="1" font-size="12" >9</text>
<text x="132.824841" y="73.016065" fill="rgb(255,0,0)"  stroke="rgb(255,0,0)" stroke-width="1" font-size="12" >10</text>
<text x="95.694905" y="73.016065" fill="rgb(255,0,0)"  stroke="rgb(255,0,0)" stroke-width="1" font-size="12" >11</text>
<text x="77.129937" y="105.171533" fill="rgb(255,0,0)"  stroke="rgb(255,0,0)" stroke-width="1" font-size="12" >12</text>
<text x="40.000000" y="105.171533" fill="rgb(255,0,0)"  stroke="rgb(255,0,0)" stroke-width="1" font-size="12" >13</text>
<text x="151.615480" y="105.040182" fill="rgb(255,0,0)"  stroke="rgb(255,0,0)" stroke-width="1" font-size="12" >14</text>
<text x="131.070296" y="140.075518" fill="rgb(255,0,0)"  stroke="rgb(255,0,0)" stroke-width="1" font-size="12" >15</text>
<text x="189.185485" y="105.040182" fill="rgb(255,0,0)"  stroke="rgb(255,0,0)" stroke-width="1" font-size="12" >16</text>
<text font-size="18.000000" fill ="black" font-family="sans-serif"
x="140.000000" y="20.000000" ></text>
<title> - OBDepict</title>
</svg>
