<?xml version="1.0"?>
<svg xmlns="http://www.w3.org/2000/svg"
xmlns:xlink="http://www.w3.org/1999/xlink" xmlns:cml="http://www.xml-cml.org/schema" x="0" y="0" font-family="sans-serif" stroke="rgb(0,0,0)" stroke-width="1" viewBox="0 0 292.815 261.547" width="234.252" height="209.2376">
<line x1="237.5" y1="116.4" x2="247.4" y2="133.8"/>
<line x1="135.5" y1="74.0" x2="97.3" y2="74.0"/>
<line x1="97.3" y1="74.0" x2="78.2" y2="107.1"/>
<line x1="78.2" y1="110.1" x2="49.9" y2="110.1"/>
<line x1="78.2" y1="104.1" x2="49.9" y2="104.1"/>
<line x1="78.2" y1="107.1" x2="97.3" y2="140.2"/>
<line x1="97.3" y1="140.2" x2="83.2" y2="164.6"/>
<line x1="154.9" y1="106.9" x2="154.9" y2="145.1"/>
<line x1="154.9" y1="145.1" x2="187.9" y2="164.2"/>
<line x1="187.9" y1="164.2" x2="187.9" y2="202.4"/>
<line x1="189.4" y1="205.0" x2="165.0" y2="219.2"/>
<line x1="186.4" y1="199.8" x2="162.0" y2="214.0"/>
<line x1="187.9" y1="202.4" x2="212.4" y2="216.6"/>
<line x1="237.2" y1="98.1" x2="246.5" y2="81.8"/>
<line x1="246.5" y1="64.4" x2="232.2" y2="40.0"/>
<line x1="239.2" y1="66.1" x2="229.0" y2="48.8"/>
<line x1="232.2" y1="40.0" x2="203.6" y2="40.0"/>
<line x1="193.5" y1="57.4" x2="193.5" y2="106.9"/>
<line x1="193.5" y1="106.9" x2="222.1" y2="106.9"/>
<line x1="149.8" y1="48.8" x2="135.5" y2="74.0"/>
<line x1="155.0" y1="54.2" x2="144.7" y2="72.3"/>
<line x1="135.5" y1="74.0" x2="154.9" y2="106.9"/>
<line x1="154.9" y1="106.9" x2="193.5" y2="106.9"/>
<line x1="183.5" y1="40.0" x2="164.9" y2="40.0"/>
<text x="228.560872" y="115.246721" fill="rgb(12,12,255)"  stroke="rgb(12,12,255)" stroke-width="1" font-size="16" >N</text>
<text x="246.814506" y="148.059751" fill="rgb(124,127,175)"  stroke="rgb(124,127,175)" stroke-width="1" font-size="16" >R</text>
<text x="245.496546" y="81.273001" fill="rgb(12,12,255)"  stroke="rgb(12,12,255)" stroke-width="1" font-size="16" >N</text>
<text x="187.512720" y="48.320000" fill="rgb(12,12,255)"  stroke="rgb(12,12,255)" stroke-width="1" font-size="16" >N</text>
<text x="151.252970" y="48.320000" fill="rgb(12,12,255)"  stroke="rgb(12,12,255)" stroke-width="1" font-size="16" >N</text>
<text x="36.400000" y="111.861882" fill="rgb(255,12,12)"  stroke="rgb(255,12,12)" stroke-width="1" font-size="16" >O</text>
<text x="54.606918" y="178.038205" fill="rgb(102,102,102)"  stroke="rgb(102,102,102)" stroke-width="1" font-size="16" >H</text>
<text x="66.606918" y="182.838205" fill="rgb(102,102,102)"  stroke="rgb(102,102,102)" stroke-width="1" font-size="13" >3</text>
<text x="73.106918" y="178.038205" fill="rgb(102,102,102)"  stroke="rgb(102,102,102)" stroke-width="1" font-size="16" >C</text>
<text x="151.252970" y="226.347475" fill="rgb(255,12,12)"  stroke="rgb(255,12,12)" stroke-width="1" font-size="16" >O</text>
<text x="215.029293" y="226.347475" fill="rgb(102,102,102)"  stroke="rgb(102,102,102)" stroke-width="1" font-size="16" >CH</text>
<text x="239.029293" y="231.147475" fill="rgb(102,102,102)"  stroke="rgb(102,102,102)" stroke-width="1" font-size="13" >3</text>
<text x="232.160872" y="106.926721" fill="rgb(255,0,0)"  stroke="rgb(255,0,0)" stroke-width="1" font-size="12" >1</text>
<text x="252.814506" y="143.259751" fill="rgb(255,0,0)"  stroke="rgb(255,0,0)" stroke-width="1" font-size="12" >2</text>
<text x="251.496546" y="72.953001" fill="rgb(255,0,0)"  stroke="rgb(255,0,0)" stroke-width="1" font-size="12" >3</text>
<text x="232.160872" y="40.000000" fill="rgb(255,0,0)"  stroke="rgb(255,0,0)" stroke-width="1" font-size="12" >4</text>
<text x="193.512720" y="40.000000" fill="rgb(255,0,0)"  stroke="rgb(255,0,0)" stroke-width="1" font-size="12" >5</text>
<text x="154.852970" y="40.000000" fill="rgb(255,0,0)"  stroke="rgb(255,0,0)" stroke-width="1" font-size="12" >6</text>
<text x="135.517295" y="73.973720" fill="rgb(255,0,0)"  stroke="rgb(255,0,0)" stroke-width="1" font-size="12" >7</text>
<text x="97.310377" y="73.973720" fill="rgb(255,0,0)"  stroke="rgb(255,0,0)" stroke-width="1" font-size="12" >8</text>
<text x="78.206918" y="107.061882" fill="rgb(255,0,0)"  stroke="rgb(255,0,0)" stroke-width="1" font-size="12" >9</text>
<text x="40.000000" y="107.061882" fill="rgb(255,0,0)"  stroke="rgb(255,0,0)" stroke-width="1" font-size="12" >10</text>
<text x="97.310377" y="140.150043" fill="rgb(255,0,0)"  stroke="rgb(255,0,0)" stroke-width="1" font-size="12" >11</text>
<text x="78.206918" y="173.238205" fill="rgb(255,0,0)"  stroke="rgb(255,0,0)" stroke-width="1" font-size="12" >12</text>
<text x="154.852970" y="106.926721" fill="rgb(255,0,0)"  stroke="rgb(255,0,0)" stroke-width="1" font-size="12" >13</text>
<text x="154.852970" y="145.133639" fill="rgb(255,0,0)"  stroke="rgb(255,0,0)" stroke-width="1" font-size="12" >14</text>
<text x="187.941131" y="164.237098" fill="rgb(255,0,0)"  stroke="rgb(255,0,0)" stroke-width="1" font-size="12" >15</text>
<text x="187.941131" y="202.444016" fill="rgb(255,0,0)"  stroke="rgb(255,0,0)" stroke-width="1" font-size="12" >16</text>
<text x="154.852970" y="221.547475" fill="rgb(255,0,0)"  stroke="rgb(255,0,0)" stroke-width="1" font-size="12" >17</text>
<text x="221.029293" y="221.547475" fill="rgb(255,0,0)"  stroke="rgb(255,0,0)" stroke-width="1" font-size="12" >18</text>
<text x="193.512720" y="106.926721" fill="rgb(255,0,0)"  stroke="rgb(255,0,0)" stroke-width="1" font-size="12" >19</text>
<text font-size="18.000000" fill ="black" font-family="sans-serif"
x="140.000000" y="20.000000" ></text>
<title> - OBDepict</title>
</svg>
