<?xml version="1.0"?>
<svg xmlns="http://www.w3.org/2000/svg"
xmlns:xlink="http://www.w3.org/1999/xlink" xmlns:cml="http://www.xml-cml.org/schema" width="305.844" height="356.785" x="0" y="0" font-family="sans-serif" stroke="rgb(0,0,0)" stroke-width="1" >
<line x1="251.0" y1="114.4" x2="265.8" y2="140.6"/>
<line x1="265.8" y1="140.6" x2="245.5" y2="175.8"/>
<line x1="245.5" y1="175.8" x2="265.8" y2="211.0"/>
<line x1="265.8" y1="211.0" x2="245.5" y2="246.3"/>
<line x1="245.5" y1="246.3" x2="260.6" y2="272.4"/>
<line x1="260.6" y1="290.7" x2="250.8" y2="307.6"/>
<line x1="151.6" y1="73.1" x2="114.4" y2="73.1"/>
<line x1="114.4" y1="73.1" x2="95.8" y2="105.3"/>
<line x1="95.8" y1="105.3" x2="58.6" y2="105.3"/>
<line x1="58.6" y1="105.3" x2="44.8" y2="129.1"/>
<line x1="170.4" y1="105.2" x2="155.2" y2="131.2"/>
<line x1="250.6" y1="96.6" x2="259.7" y2="80.7"/>
<line x1="259.7" y1="63.7" x2="245.7" y2="40.0"/>
<line x1="252.3" y1="65.4" x2="242.6" y2="48.8"/>
<line x1="245.7" y1="40.0" x2="217.9" y2="40.0"/>
<line x1="208.1" y1="56.9" x2="208.1" y2="105.2"/>
<line x1="208.1" y1="105.2" x2="235.9" y2="105.2"/>
<line x1="165.6" y1="48.6" x2="151.6" y2="73.1"/>
<line x1="170.7" y1="54.1" x2="160.8" y2="71.4"/>
<line x1="151.6" y1="73.1" x2="170.4" y2="105.2"/>
<line x1="170.4" y1="105.2" x2="208.1" y2="105.2"/>
<line x1="198.3" y1="40.0" x2="180.2" y2="40.0"/>
<text x="242.130943" y="113.493791" fill="rgb(12,12,255)"  stroke="rgb(12,12,255)" stroke-width="1" font-size="16" >N</text>
<text x="259.843623" y="286.338752" fill="rgb(12,12,255)"  stroke="rgb(12,12,255)" stroke-width="1" font-size="16" >NH</text>
<text x="221.894399" y="321.584641" fill="rgb(102,102,102)"  stroke="rgb(102,102,102)" stroke-width="1" font-size="16" >H</text>
<text x="233.894399" y="326.384641" fill="rgb(102,102,102)"  stroke="rgb(102,102,102)" stroke-width="1" font-size="13" >3</text>
<text x="240.394399" y="321.584641" fill="rgb(102,102,102)"  stroke="rgb(102,102,102)" stroke-width="1" font-size="16" >C</text>
<text x="258.560183" y="80.409903" fill="rgb(12,12,255)"  stroke="rgb(12,12,255)" stroke-width="1" font-size="16" >N</text>
<text x="202.095055" y="48.320000" fill="rgb(12,12,255)"  stroke="rgb(12,12,255)" stroke-width="1" font-size="16" >N</text>
<text x="166.847872" y="48.320000" fill="rgb(12,12,255)"  stroke="rgb(12,12,255)" stroke-width="1" font-size="16" >N</text>
<text x="16.400000" y="142.326936" fill="rgb(102,102,102)"  stroke="rgb(102,102,102)" stroke-width="1" font-size="16" >H</text>
<text x="28.400000" y="147.126936" fill="rgb(102,102,102)"  stroke="rgb(102,102,102)" stroke-width="1" font-size="13" >3</text>
<text x="34.900000" y="142.326936" fill="rgb(102,102,102)"  stroke="rgb(102,102,102)" stroke-width="1" font-size="16" >C</text>
<text x="134.260483" y="145.081098" fill="rgb(124,127,175)"  stroke="rgb(124,127,175)" stroke-width="1" font-size="16" >R</text>
<text x="245.730943" y="105.173791" fill="rgb(255,0,0)"  stroke="rgb(255,0,0)" stroke-width="1" font-size="12" >1</text>
<text x="265.843623" y="140.555195" fill="rgb(255,0,0)"  stroke="rgb(255,0,0)" stroke-width="1" font-size="12" >2</text>
<text x="245.494399" y="175.801085" fill="rgb(255,0,0)"  stroke="rgb(255,0,0)" stroke-width="1" font-size="12" >3</text>
<text x="265.843623" y="211.046974" fill="rgb(255,0,0)"  stroke="rgb(255,0,0)" stroke-width="1" font-size="12" >4</text>
<text x="245.494399" y="246.292863" fill="rgb(255,0,0)"  stroke="rgb(255,0,0)" stroke-width="1" font-size="12" >5</text>
<text x="265.843623" y="281.538752" fill="rgb(255,0,0)"  stroke="rgb(255,0,0)" stroke-width="1" font-size="12" >6</text>
<text x="245.494399" y="316.784641" fill="rgb(255,0,0)"  stroke="rgb(255,0,0)" stroke-width="1" font-size="12" >7</text>
<text x="264.560183" y="72.089903" fill="rgb(255,0,0)"  stroke="rgb(255,0,0)" stroke-width="1" font-size="12" >8</text>
<text x="245.730943" y="40.000000" fill="rgb(255,0,0)"  stroke="rgb(255,0,0)" stroke-width="1" font-size="12" >9</text>
<text x="208.095055" y="40.000000" fill="rgb(255,0,0)"  stroke="rgb(255,0,0)" stroke-width="1" font-size="12" >10</text>
<text x="170.447872" y="40.000000" fill="rgb(255,0,0)"  stroke="rgb(255,0,0)" stroke-width="1" font-size="12" >11</text>
<text x="151.618633" y="73.083888" fill="rgb(255,0,0)"  stroke="rgb(255,0,0)" stroke-width="1" font-size="12" >12</text>
<text x="114.412422" y="73.083888" fill="rgb(255,0,0)"  stroke="rgb(255,0,0)" stroke-width="1" font-size="12" >13</text>
<text x="95.809317" y="105.305412" fill="rgb(255,0,0)"  stroke="rgb(255,0,0)" stroke-width="1" font-size="12" >14</text>
<text x="58.603106" y="105.305412" fill="rgb(255,0,0)"  stroke="rgb(255,0,0)" stroke-width="1" font-size="12" >15</text>
<text x="40.000000" y="137.526936" fill="rgb(255,0,0)"  stroke="rgb(255,0,0)" stroke-width="1" font-size="12" >16</text>
<text x="170.447872" y="105.173791" fill="rgb(255,0,0)"  stroke="rgb(255,0,0)" stroke-width="1" font-size="12" >17</text>
<text x="149.860483" y="140.281098" fill="rgb(255,0,0)"  stroke="rgb(255,0,0)" stroke-width="1" font-size="12" >18</text>
<text x="208.095055" y="105.173791" fill="rgb(255,0,0)"  stroke="rgb(255,0,0)" stroke-width="1" font-size="12" >19</text>
<text font-size="18.000000" fill ="black" font-family="sans-serif"
x="140.000000" y="20.000000" ></text>
<title> - OBDepict</title>
</svg>
