<?xml version="1.0"?>
<svg xmlns="http://www.w3.org/2000/svg"
xmlns:xlink="http://www.w3.org/1999/xlink" xmlns:cml="http://www.xml-cml.org/schema" x="0" y="0" font-family="sans-serif" stroke="rgb(0,0,0)" stroke-width="1" viewBox="0 0 291.236 326.196" width="232.9888" height="260.9568">
<line x1="236.1" y1="210.4" x2="251.2" y2="183.7"/>
<line x1="251.2" y1="183.7" x2="230.5" y2="147.8"/>
<line x1="230.5" y1="147.8" x2="251.2" y2="111.9"/>
<line x1="251.2" y1="111.9" x2="230.5" y2="75.9"/>
<line x1="230.5" y1="75.9" x2="245.8" y2="49.3"/>
<line x1="134.8" y1="252.5" x2="96.9" y2="252.5"/>
<line x1="96.9" y1="252.5" x2="77.9" y2="219.6"/>
<line x1="77.9" y1="222.6" x2="49.9" y2="222.6"/>
<line x1="77.9" y1="216.6" x2="49.9" y2="216.6"/>
<line x1="77.9" y1="219.6" x2="96.9" y2="186.8"/>
<line x1="96.9" y1="186.8" x2="82.9" y2="162.5"/>
<line x1="154.0" y1="219.8" x2="154.0" y2="181.8"/>
<line x1="154.0" y1="181.8" x2="186.8" y2="162.9"/>
<line x1="186.8" y1="162.9" x2="200.9" y2="138.6"/>
<line x1="186.8" y1="162.9" x2="172.8" y2="138.6"/>
<line x1="186.8" y1="162.9" x2="211.1" y2="176.9"/>
<line x1="235.7" y1="228.5" x2="244.9" y2="244.7"/>
<line x1="244.9" y1="262.0" x2="230.7" y2="286.2"/>
<line x1="237.6" y1="260.3" x2="227.6" y2="277.4"/>
<line x1="230.7" y1="286.2" x2="202.3" y2="286.2"/>
<line x1="192.4" y1="268.9" x2="192.4" y2="219.8"/>
<line x1="192.4" y1="219.8" x2="220.8" y2="219.8"/>
<line x1="149.0" y1="277.4" x2="134.8" y2="252.5"/>
<line x1="154.2" y1="272.0" x2="144.0" y2="254.1"/>
<line x1="134.8" y1="252.5" x2="154.0" y2="219.8"/>
<line x1="154.0" y1="219.8" x2="192.4" y2="219.8"/>
<line x1="182.4" y1="286.2" x2="164.0" y2="286.2"/>
<text x="227.135851" y="224.565454" fill="rgb(12,12,255)"  stroke="rgb(12,12,255)" stroke-width="1" font-size="16" >N</text>
<text x="245.236322" y="48.320000" fill="rgb(102,102,102)"  stroke="rgb(102,102,102)" stroke-width="1" font-size="16" >CH</text>
<text x="269.236322" y="56.000000" fill="rgb(102,102,102)"  stroke="rgb(102,102,102)" stroke-width="1" font-size="13" >3</text>
<text x="243.928136" y="258.287233" fill="rgb(12,12,255)"  stroke="rgb(12,12,255)" stroke-width="1" font-size="16" >N</text>
<text x="186.374305" y="290.995862" fill="rgb(12,12,255)"  stroke="rgb(12,12,255)" stroke-width="1" font-size="16" >N</text>
<text x="150.401246" y="290.995862" fill="rgb(12,12,255)"  stroke="rgb(12,12,255)" stroke-width="1" font-size="16" >N</text>
<text x="36.400000" y="224.431296" fill="rgb(255,12,12)"  stroke="rgb(255,12,12)" stroke-width="1" font-size="16" >O</text>
<text x="54.323584" y="162.265721" fill="rgb(102,102,102)"  stroke="rgb(102,102,102)" stroke-width="1" font-size="16" >H</text>
<text x="66.323584" y="169.945721" fill="rgb(102,102,102)"  stroke="rgb(102,102,102)" stroke-width="1" font-size="13" >3</text>
<text x="72.823584" y="162.265721" fill="rgb(102,102,102)"  stroke="rgb(102,102,102)" stroke-width="1" font-size="16" >C</text>
<text x="199.805826" y="138.357291" fill="rgb(102,102,102)"  stroke="rgb(102,102,102)" stroke-width="1" font-size="16" >CH</text>
<text x="223.805826" y="146.037291" fill="rgb(102,102,102)"  stroke="rgb(102,102,102)" stroke-width="1" font-size="13" >3</text>
<text x="144.282241" y="138.357291" fill="rgb(102,102,102)"  stroke="rgb(102,102,102)" stroke-width="1" font-size="16" >H</text>
<text x="156.282241" y="146.037291" fill="rgb(102,102,102)"  stroke="rgb(102,102,102)" stroke-width="1" font-size="13" >3</text>
<text x="162.782241" y="138.357291" fill="rgb(102,102,102)"  stroke="rgb(102,102,102)" stroke-width="1" font-size="16" >C</text>
<text x="213.686821" y="186.641870" fill="rgb(255,12,12)"  stroke="rgb(255,12,12)" stroke-width="1" font-size="16" >OH</text>
<text x="230.735851" y="219.765454" fill="rgb(255,0,0)"  stroke="rgb(255,0,0)" stroke-width="1" font-size="12" >1</text>
<text x="251.236322" y="183.701861" fill="rgb(255,0,0)"  stroke="rgb(255,0,0)" stroke-width="1" font-size="12" >2</text>
<text x="230.494745" y="147.776396" fill="rgb(255,0,0)"  stroke="rgb(255,0,0)" stroke-width="1" font-size="12" >3</text>
<text x="251.236322" y="111.850931" fill="rgb(255,0,0)"  stroke="rgb(255,0,0)" stroke-width="1" font-size="12" >4</text>
<text x="230.494745" y="75.925465" fill="rgb(255,0,0)"  stroke="rgb(255,0,0)" stroke-width="1" font-size="12" >5</text>
<text x="251.236322" y="40.000000" fill="rgb(255,0,0)"  stroke="rgb(255,0,0)" stroke-width="1" font-size="12" >6</text>
<text x="249.928136" y="253.487233" fill="rgb(255,0,0)"  stroke="rgb(255,0,0)" stroke-width="1" font-size="12" >7</text>
<text x="230.735851" y="286.195862" fill="rgb(255,0,0)"  stroke="rgb(255,0,0)" stroke-width="1" font-size="12" >8</text>
<text x="192.374305" y="286.195862" fill="rgb(255,0,0)"  stroke="rgb(255,0,0)" stroke-width="1" font-size="12" >9</text>
<text x="154.001246" y="286.195862" fill="rgb(255,0,0)"  stroke="rgb(255,0,0)" stroke-width="1" font-size="12" >10</text>
<text x="134.808960" y="252.474083" fill="rgb(255,0,0)"  stroke="rgb(255,0,0)" stroke-width="1" font-size="12" >11</text>
<text x="96.885376" y="252.474083" fill="rgb(255,0,0)"  stroke="rgb(255,0,0)" stroke-width="1" font-size="12" >12</text>
<text x="77.923584" y="219.631296" fill="rgb(255,0,0)"  stroke="rgb(255,0,0)" stroke-width="1" font-size="12" >13</text>
<text x="40.000000" y="219.631296" fill="rgb(255,0,0)"  stroke="rgb(255,0,0)" stroke-width="1" font-size="12" >14</text>
<text x="96.885376" y="186.788509" fill="rgb(255,0,0)"  stroke="rgb(255,0,0)" stroke-width="1" font-size="12" >15</text>
<text x="77.923584" y="153.945721" fill="rgb(255,0,0)"  stroke="rgb(255,0,0)" stroke-width="1" font-size="12" >16</text>
<text x="154.001246" y="219.765454" fill="rgb(255,0,0)"  stroke="rgb(255,0,0)" stroke-width="1" font-size="12" >17</text>
<text x="154.001246" y="181.841870" fill="rgb(255,0,0)"  stroke="rgb(255,0,0)" stroke-width="1" font-size="12" >18</text>
<text x="186.844033" y="162.880078" fill="rgb(255,0,0)"  stroke="rgb(255,0,0)" stroke-width="1" font-size="12" >19</text>
<text x="205.805826" y="130.037291" fill="rgb(255,0,0)"  stroke="rgb(255,0,0)" stroke-width="1" font-size="12" >20</text>
<text x="167.882241" y="130.037291" fill="rgb(255,0,0)"  stroke="rgb(255,0,0)" stroke-width="1" font-size="12" >21</text>
<text x="219.686821" y="181.841870" fill="rgb(255,0,0)"  stroke="rgb(255,0,0)" stroke-width="1" font-size="12" >22</text>
<text x="192.374305" y="219.765454" fill="rgb(255,0,0)"  stroke="rgb(255,0,0)" stroke-width="1" font-size="12" >23</text>
<text font-size="18.000000" fill ="black" font-family="sans-serif"
x="140.000000" y="20.000000" ></text>
<title> - OBDepict</title>
</svg>
