<?xml version="1.0"?>
<svg xmlns="http://www.w3.org/2000/svg"
xmlns:xlink="http://www.w3.org/1999/xlink" xmlns:cml="http://www.xml-cml.org/schema" width="390.524" height="350.052" x="0" y="0" font-family="sans-serif" stroke="rgb(0,0,0)" stroke-width="1" >
<line x1="231.7" y1="148.2" x2="246.9" y2="175.0"/>
<line x1="246.9" y1="175.0" x2="288.6" y2="175.5"/>
<line x1="288.6" y1="175.5" x2="308.9" y2="211.9"/>
<line x1="308.9" y1="211.9" x2="339.7" y2="212.3"/>
<line x1="130.1" y1="105.9" x2="92.0" y2="105.9"/>
<line x1="92.0" y1="105.9" x2="73.0" y2="73.0"/>
<line x1="73.0" y1="73.0" x2="48.6" y2="58.9"/>
<line x1="73.0" y1="73.0" x2="48.6" y2="87.0"/>
<line x1="73.0" y1="73.0" x2="87.0" y2="48.6"/>
<line x1="149.3" y1="138.8" x2="149.3" y2="176.8"/>
<line x1="149.3" y1="176.8" x2="182.3" y2="195.9"/>
<line x1="182.3" y1="195.9" x2="182.3" y2="233.9"/>
<line x1="182.3" y1="233.9" x2="215.3" y2="253.0"/>
<line x1="215.3" y1="253.0" x2="215.3" y2="281.1"/>
<line x1="223.8" y1="296.0" x2="239.6" y2="305.1"/>
<line x1="231.4" y1="130.0" x2="240.6" y2="113.7"/>
<line x1="240.6" y1="96.4" x2="226.3" y2="72.1"/>
<line x1="233.3" y1="98.1" x2="223.2" y2="80.9"/>
<line x1="226.3" y1="72.1" x2="197.9" y2="72.1"/>
<line x1="187.8" y1="89.4" x2="187.8" y2="138.8"/>
<line x1="187.8" y1="138.8" x2="216.3" y2="138.8"/>
<line x1="144.3" y1="80.9" x2="130.1" y2="105.9"/>
<line x1="149.5" y1="86.3" x2="139.3" y2="104.3"/>
<line x1="130.1" y1="105.9" x2="149.3" y2="138.8"/>
<line x1="149.3" y1="138.8" x2="187.8" y2="138.8"/>
<line x1="177.8" y1="72.1" x2="159.3" y2="72.1"/>
<text x="222.746003" y="147.080396" fill="rgb(12,12,255)"  stroke="rgb(12,12,255)" stroke-width="1" font-size="16" >N</text>
<text x="344.524224" y="217.208613" fill="rgb(102,102,102)"  stroke="rgb(102,102,102)" stroke-width="1" font-size="16" >CH</text>
<text x="368.524224" y="222.008613" fill="rgb(102,102,102)"  stroke="rgb(102,102,102)" stroke-width="1" font-size="13" >3</text>
<text x="239.609717" y="113.233115" fill="rgb(12,12,255)"  stroke="rgb(12,12,255)" stroke-width="1" font-size="16" >N</text>
<text x="181.841688" y="80.402755" fill="rgb(12,12,255)"  stroke="rgb(12,12,255)" stroke-width="1" font-size="16" >N</text>
<text x="145.725817" y="80.402755" fill="rgb(12,12,255)"  stroke="rgb(12,12,255)" stroke-width="1" font-size="16" >N</text>
<text x="16.400000" y="62.252656" fill="rgb(102,102,102)"  stroke="rgb(102,102,102)" stroke-width="1" font-size="16" >H</text>
<text x="28.400000" y="69.932656" fill="rgb(102,102,102)"  stroke="rgb(102,102,102)" stroke-width="1" font-size="13" >3</text>
<text x="34.900000" y="62.252656" fill="rgb(102,102,102)"  stroke="rgb(102,102,102)" stroke-width="1" font-size="16" >C</text>
<text x="16.400000" y="96.797380" fill="rgb(102,102,102)"  stroke="rgb(102,102,102)" stroke-width="1" font-size="16" >H</text>
<text x="28.400000" y="101.597380" fill="rgb(102,102,102)"  stroke="rgb(102,102,102)" stroke-width="1" font-size="13" >3</text>
<text x="34.900000" y="96.797380" fill="rgb(102,102,102)"  stroke="rgb(102,102,102)" stroke-width="1" font-size="16" >C</text>
<text x="85.997380" y="48.320000" fill="rgb(255,12,12)"  stroke="rgb(255,12,12)" stroke-width="1" font-size="16" >OH</text>
<text x="199.655853" y="295.819291" fill="rgb(12,12,255)"  stroke="rgb(12,12,255)" stroke-width="1" font-size="16" >HN</text>
<text x="242.220870" y="314.851653" fill="rgb(102,102,102)"  stroke="rgb(102,102,102)" stroke-width="1" font-size="16" >CH</text>
<text x="266.220870" y="319.651653" fill="rgb(102,102,102)"  stroke="rgb(102,102,102)" stroke-width="1" font-size="13" >3</text>
<text x="226.346003" y="138.760396" fill="rgb(255,0,0)"  stroke="rgb(255,0,0)" stroke-width="1" font-size="12" >1</text>
<text x="246.922771" y="174.958206" fill="rgb(255,0,0)"  stroke="rgb(255,0,0)" stroke-width="1" font-size="12" >2</text>
<text x="288.556577" y="175.515996" fill="rgb(255,0,0)"  stroke="rgb(255,0,0)" stroke-width="1" font-size="12" >3</text>
<text x="308.890419" y="211.850823" fill="rgb(255,0,0)"  stroke="rgb(255,0,0)" stroke-width="1" font-size="12" >4</text>
<text x="350.524224" y="212.408613" fill="rgb(255,0,0)"  stroke="rgb(255,0,0)" stroke-width="1" font-size="12" >5</text>
<text x="245.609717" y="104.913115" fill="rgb(255,0,0)"  stroke="rgb(255,0,0)" stroke-width="1" font-size="12" >6</text>
<text x="226.346003" y="72.082755" fill="rgb(255,0,0)"  stroke="rgb(255,0,0)" stroke-width="1" font-size="12" >7</text>
<text x="187.841688" y="72.082755" fill="rgb(255,0,0)"  stroke="rgb(255,0,0)" stroke-width="1" font-size="12" >8</text>
<text x="149.325817" y="72.082755" fill="rgb(255,0,0)"  stroke="rgb(255,0,0)" stroke-width="1" font-size="12" >9</text>
<text x="130.062103" y="105.930036" fill="rgb(255,0,0)"  stroke="rgb(255,0,0)" stroke-width="1" font-size="12" >10</text>
<text x="91.997380" y="105.930036" fill="rgb(255,0,0)"  stroke="rgb(255,0,0)" stroke-width="1" font-size="12" >11</text>
<text x="72.965018" y="72.965018" fill="rgb(255,0,0)"  stroke="rgb(255,0,0)" stroke-width="1" font-size="12" >12</text>
<text x="40.000000" y="53.932656" fill="rgb(255,0,0)"  stroke="rgb(255,0,0)" stroke-width="1" font-size="12" >13</text>
<text x="40.000000" y="91.997380" fill="rgb(255,0,0)"  stroke="rgb(255,0,0)" stroke-width="1" font-size="12" >14</text>
<text x="91.997380" y="40.000000" fill="rgb(255,0,0)"  stroke="rgb(255,0,0)" stroke-width="1" font-size="12" >15</text>
<text x="149.325817" y="138.760396" fill="rgb(255,0,0)"  stroke="rgb(255,0,0)" stroke-width="1" font-size="12" >16</text>
<text x="149.325817" y="176.825119" fill="rgb(255,0,0)"  stroke="rgb(255,0,0)" stroke-width="1" font-size="12" >17</text>
<text x="182.290835" y="195.857481" fill="rgb(255,0,0)"  stroke="rgb(255,0,0)" stroke-width="1" font-size="12" >18</text>
<text x="182.290835" y="233.922205" fill="rgb(255,0,0)"  stroke="rgb(255,0,0)" stroke-width="1" font-size="12" >19</text>
<text x="215.255853" y="252.954567" fill="rgb(255,0,0)"  stroke="rgb(255,0,0)" stroke-width="1" font-size="12" >20</text>
<text x="215.255853" y="291.019291" fill="rgb(255,0,0)"  stroke="rgb(255,0,0)" stroke-width="1" font-size="12" >21</text>
<text x="248.220870" y="310.051653" fill="rgb(255,0,0)"  stroke="rgb(255,0,0)" stroke-width="1" font-size="12" >22</text>
<text x="187.841688" y="138.760396" fill="rgb(255,0,0)"  stroke="rgb(255,0,0)" stroke-width="1" font-size="12" >23</text>
<text font-size="18.000000" fill ="black" font-family="sans-serif"
x="140.000000" y="20.000000" ></text>
<title> - OBDepict</title>
</svg>
