<?xml version="1.0"?>
<svg xmlns="http://www.w3.org/2000/svg"
xmlns:xlink="http://www.w3.org/1999/xlink" xmlns:cml="http://www.xml-cml.org/schema" x="0" y="0" font-family="sans-serif" stroke="rgb(0,0,0)" stroke-width="1" viewBox="0 0 310.098 241.169" width="248.0784" height="192.9352">
<line x1="254.9" y1="115.8" x2="264.8" y2="133.1"/>
<line x1="153.7" y1="73.7" x2="115.8" y2="73.7"/>
<line x1="115.8" y1="73.7" x2="96.9" y2="106.5"/>
<line x1="96.9" y1="106.5" x2="59.0" y2="106.5"/>
<line x1="59.0" y1="106.5" x2="44.9" y2="130.8"/>
<line x1="172.9" y1="106.4" x2="172.9" y2="144.3"/>
<line x1="172.9" y1="144.3" x2="197.2" y2="158.3"/>
<line x1="205.7" y1="173.1" x2="205.7" y2="191.3"/>
<line x1="254.6" y1="97.6" x2="263.8" y2="81.5"/>
<line x1="263.8" y1="64.2" x2="249.6" y2="40.0"/>
<line x1="256.5" y1="65.9" x2="246.4" y2="48.8"/>
<line x1="249.6" y1="40.0" x2="221.2" y2="40.0"/>
<line x1="211.3" y1="57.3" x2="211.3" y2="106.4"/>
<line x1="211.3" y1="106.4" x2="239.6" y2="106.4"/>
<line x1="167.9" y1="48.8" x2="153.7" y2="73.7"/>
<line x1="173.1" y1="54.2" x2="162.9" y2="72.1"/>
<line x1="153.7" y1="73.7" x2="172.9" y2="106.4"/>
<line x1="172.9" y1="106.4" x2="211.3" y2="106.4"/>
<line x1="201.3" y1="40.0" x2="182.9" y2="40.0"/>
<text x="246.006208" y="114.721442" fill="rgb(12,12,255)"  stroke="rgb(12,12,255)" stroke-width="1" font-size="16" >N</text>
<text x="264.097741" y="147.249310" fill="rgb(124,127,175)"  stroke="rgb(124,127,175)" stroke-width="1" font-size="16" >R</text>
<text x="262.790125" y="81.014367" fill="rgb(12,12,255)"  stroke="rgb(12,12,255)" stroke-width="1" font-size="16" >N</text>
<text x="205.261389" y="48.320000" fill="rgb(12,12,255)"  stroke="rgb(12,12,255)" stroke-width="1" font-size="16" >N</text>
<text x="169.305062" y="48.320000" fill="rgb(12,12,255)"  stroke="rgb(12,12,255)" stroke-width="1" font-size="16" >N</text>
<text x="16.400000" y="144.164009" fill="rgb(102,102,102)"  stroke="rgb(102,102,102)" stroke-width="1" font-size="16" >H</text>
<text x="28.400000" y="148.964009" fill="rgb(102,102,102)"  stroke="rgb(102,102,102)" stroke-width="1" font-size="13" >3</text>
<text x="34.900000" y="144.164009" fill="rgb(102,102,102)"  stroke="rgb(102,102,102)" stroke-width="1" font-size="16" >C</text>
<text x="199.733529" y="171.582014" fill="rgb(12,12,255)"  stroke="rgb(12,12,255)" stroke-width="1" font-size="16" >NH</text>
<text x="199.733529" y="205.969062" fill="rgb(102,102,102)"  stroke="rgb(102,102,102)" stroke-width="1" font-size="16" >CH</text>
<text x="223.733529" y="210.769062" fill="rgb(102,102,102)"  stroke="rgb(102,102,102)" stroke-width="1" font-size="13" >3</text>
<text x="249.606208" y="106.401442" fill="rgb(255,0,0)"  stroke="rgb(255,0,0)" stroke-width="1" font-size="12" >1</text>
<text x="270.097741" y="142.449310" fill="rgb(255,0,0)"  stroke="rgb(255,0,0)" stroke-width="1" font-size="12" >2</text>
<text x="268.790125" y="72.694367" fill="rgb(255,0,0)"  stroke="rgb(255,0,0)" stroke-width="1" font-size="12" >3</text>
<text x="249.606208" y="40.000000" fill="rgb(255,0,0)"  stroke="rgb(255,0,0)" stroke-width="1" font-size="12" >4</text>
<text x="211.261389" y="40.000000" fill="rgb(255,0,0)"  stroke="rgb(255,0,0)" stroke-width="1" font-size="12" >5</text>
<text x="172.905062" y="40.000000" fill="rgb(255,0,0)"  stroke="rgb(255,0,0)" stroke-width="1" font-size="12" >6</text>
<text x="153.721145" y="73.707075" fill="rgb(255,0,0)"  stroke="rgb(255,0,0)" stroke-width="1" font-size="12" >7</text>
<text x="115.814097" y="73.707075" fill="rgb(255,0,0)"  stroke="rgb(255,0,0)" stroke-width="1" font-size="12" >8</text>
<text x="96.860572" y="106.535542" fill="rgb(255,0,0)"  stroke="rgb(255,0,0)" stroke-width="1" font-size="12" >9</text>
<text x="58.953524" y="106.535542" fill="rgb(255,0,0)"  stroke="rgb(255,0,0)" stroke-width="1" font-size="12" >10</text>
<text x="40.000000" y="139.364009" fill="rgb(255,0,0)"  stroke="rgb(255,0,0)" stroke-width="1" font-size="12" >11</text>
<text x="172.905062" y="106.401442" fill="rgb(255,0,0)"  stroke="rgb(255,0,0)" stroke-width="1" font-size="12" >12</text>
<text x="172.905062" y="144.308490" fill="rgb(255,0,0)"  stroke="rgb(255,0,0)" stroke-width="1" font-size="12" >13</text>
<text x="205.733529" y="163.262014" fill="rgb(255,0,0)"  stroke="rgb(255,0,0)" stroke-width="1" font-size="12" >14</text>
<text x="205.733529" y="201.169062" fill="rgb(255,0,0)"  stroke="rgb(255,0,0)" stroke-width="1" font-size="12" >15</text>
<text x="211.261389" y="106.401442" fill="rgb(255,0,0)"  stroke="rgb(255,0,0)" stroke-width="1" font-size="12" >16</text>
<text font-size="18.000000" fill ="black" font-family="sans-serif"
x="140.000000" y="20.000000" ></text>
<title> - OBDepict</title>
</svg>
