<?xml version="1.0"?>
<svg xmlns="http://www.w3.org/2000/svg"
xmlns:xlink="http://www.w3.org/1999/xlink" xmlns:cml="http://www.xml-cml.org/schema" x="0" y="0" font-family="sans-serif" stroke="rgb(0,0,0)" stroke-width="1" viewBox="0 0 309.857 259.934" width="247.8856" height="207.9472">
<line x1="254.7" y1="115.7" x2="269.9" y2="142.3"/>
<line x1="269.9" y1="142.3" x2="254.5" y2="168.9"/>
<line x1="254.5" y1="187.5" x2="264.5" y2="204.8"/>
<line x1="153.6" y1="73.7" x2="115.7" y2="73.7"/>
<line x1="115.7" y1="73.7" x2="96.8" y2="106.5"/>
<line x1="96.8" y1="106.5" x2="68.8" y2="106.5"/>
<line x1="54.0" y1="115.0" x2="44.9" y2="130.7"/>
<line x1="172.8" y1="106.3" x2="172.8" y2="134.4"/>
<line x1="181.3" y1="149.1" x2="205.6" y2="163.1"/>
<line x1="205.6" y1="163.1" x2="205.6" y2="201.0"/>
<line x1="205.6" y1="201.0" x2="229.8" y2="215.0"/>
<line x1="254.4" y1="97.6" x2="263.6" y2="81.4"/>
<line x1="263.6" y1="64.2" x2="249.4" y2="40.0"/>
<line x1="256.2" y1="65.9" x2="246.2" y2="48.8"/>
<line x1="249.4" y1="40.0" x2="221.0" y2="40.0"/>
<line x1="211.1" y1="57.2" x2="211.1" y2="106.3"/>
<line x1="211.1" y1="106.3" x2="239.4" y2="106.3"/>
<line x1="167.8" y1="48.8" x2="153.6" y2="73.7"/>
<line x1="173.0" y1="54.2" x2="162.8" y2="72.0"/>
<line x1="153.6" y1="73.7" x2="172.8" y2="106.3"/>
<line x1="172.8" y1="106.3" x2="211.1" y2="106.3"/>
<line x1="201.1" y1="40.0" x2="182.7" y2="40.0"/>
<text x="245.787089" y="114.652027" fill="rgb(12,12,255)"  stroke="rgb(12,12,255)" stroke-width="1" font-size="16" >N</text>
<text x="233.546341" y="183.014473" fill="rgb(12,12,255)"  stroke="rgb(12,12,255)" stroke-width="1" font-size="16" >HN</text>
<text x="263.857201" y="218.886734" fill="rgb(102,102,102)"  stroke="rgb(102,102,102)" stroke-width="1" font-size="16" >CH</text>
<text x="287.857201" y="223.686734" fill="rgb(102,102,102)"  stroke="rgb(102,102,102)" stroke-width="1" font-size="13" >3</text>
<text x="262.550952" y="80.980189" fill="rgb(12,12,255)"  stroke="rgb(12,12,255)" stroke-width="1" font-size="16" >N</text>
<text x="205.082355" y="48.320000" fill="rgb(12,12,255)"  stroke="rgb(12,12,255)" stroke-width="1" font-size="16" >N</text>
<text x="169.166126" y="48.320000" fill="rgb(12,12,255)"  stroke="rgb(12,12,255)" stroke-width="1" font-size="16" >N</text>
<text x="43.333710" y="114.785987" fill="rgb(12,12,255)"  stroke="rgb(12,12,255)" stroke-width="1" font-size="16" >HN</text>
<text x="16.400000" y="144.060135" fill="rgb(102,102,102)"  stroke="rgb(102,102,102)" stroke-width="1" font-size="16" >H</text>
<text x="28.400000" y="148.860135" fill="rgb(102,102,102)"  stroke="rgb(102,102,102)" stroke-width="1" font-size="13" >3</text>
<text x="34.900000" y="144.060135" fill="rgb(102,102,102)"  stroke="rgb(102,102,102)" stroke-width="1" font-size="16" >C</text>
<text x="157.166126" y="148.999448" fill="rgb(12,12,255)"  stroke="rgb(12,12,255)" stroke-width="1" font-size="16" >HN</text>
<text x="232.354423" y="224.734290" fill="rgb(255,12,12)"  stroke="rgb(255,12,12)" stroke-width="1" font-size="16" >OH</text>
<text x="249.387089" y="106.332027" fill="rgb(255,0,0)"  stroke="rgb(255,0,0)" stroke-width="1" font-size="12" >1</text>
<text x="269.857201" y="142.342211" fill="rgb(255,0,0)"  stroke="rgb(255,0,0)" stroke-width="1" font-size="12" >2</text>
<text x="249.146341" y="178.214473" fill="rgb(255,0,0)"  stroke="rgb(255,0,0)" stroke-width="1" font-size="12" >3</text>
<text x="269.857201" y="214.086734" fill="rgb(255,0,0)"  stroke="rgb(255,0,0)" stroke-width="1" font-size="12" >4</text>
<text x="268.550952" y="72.660189" fill="rgb(255,0,0)"  stroke="rgb(255,0,0)" stroke-width="1" font-size="12" >5</text>
<text x="249.387089" y="40.000000" fill="rgb(255,0,0)"  stroke="rgb(255,0,0)" stroke-width="1" font-size="12" >6</text>
<text x="211.082355" y="40.000000" fill="rgb(255,0,0)"  stroke="rgb(255,0,0)" stroke-width="1" font-size="12" >7</text>
<text x="172.766126" y="40.000000" fill="rgb(255,0,0)"  stroke="rgb(255,0,0)" stroke-width="1" font-size="12" >8</text>
<text x="153.602263" y="73.671838" fill="rgb(255,0,0)"  stroke="rgb(255,0,0)" stroke-width="1" font-size="12" >9</text>
<text x="115.734842" y="73.671838" fill="rgb(255,0,0)"  stroke="rgb(255,0,0)" stroke-width="1" font-size="12" >10</text>
<text x="96.801131" y="106.465987" fill="rgb(255,0,0)"  stroke="rgb(255,0,0)" stroke-width="1" font-size="12" >11</text>
<text x="58.933710" y="106.465987" fill="rgb(255,0,0)"  stroke="rgb(255,0,0)" stroke-width="1" font-size="12" >12</text>
<text x="40.000000" y="139.260135" fill="rgb(255,0,0)"  stroke="rgb(255,0,0)" stroke-width="1" font-size="12" >13</text>
<text x="172.766126" y="106.332027" fill="rgb(255,0,0)"  stroke="rgb(255,0,0)" stroke-width="1" font-size="12" >14</text>
<text x="172.766126" y="144.199448" fill="rgb(255,0,0)"  stroke="rgb(255,0,0)" stroke-width="1" font-size="12" >15</text>
<text x="205.560274" y="163.133158" fill="rgb(255,0,0)"  stroke="rgb(255,0,0)" stroke-width="1" font-size="12" >16</text>
<text x="205.560274" y="201.000579" fill="rgb(255,0,0)"  stroke="rgb(255,0,0)" stroke-width="1" font-size="12" >17</text>
<text x="238.354423" y="219.934290" fill="rgb(255,0,0)"  stroke="rgb(255,0,0)" stroke-width="1" font-size="12" >18</text>
<text x="211.082355" y="106.332027" fill="rgb(255,0,0)"  stroke="rgb(255,0,0)" stroke-width="1" font-size="12" >19</text>
<text font-size="18.000000" fill ="black" font-family="sans-serif"
x="140.000000" y="20.000000" ></text>
<title> - OBDepict</title>
</svg>
