<?xml version="1.0"?>
<svg xmlns="http://www.w3.org/2000/svg"
xmlns:xlink="http://www.w3.org/1999/xlink" xmlns:cml="http://www.xml-cml.org/schema" x="0" y="0" font-family="sans-serif" stroke="rgb(0,0,0)" stroke-width="1" viewBox="0 0 291.951 254.935" width="233.5608" height="203.948">
<line x1="236.7" y1="138.9" x2="252.0" y2="112.1"/>
<line x1="252.0" y1="112.1" x2="236.6" y2="85.4"/>
<line x1="236.6" y1="66.7" x2="246.5" y2="49.4"/>
<line x1="135.1" y1="181.1" x2="97.1" y2="181.1"/>
<line x1="97.1" y1="181.1" x2="78.1" y2="148.1"/>
<line x1="78.1" y1="151.1" x2="49.9" y2="151.1"/>
<line x1="78.1" y1="145.1" x2="49.9" y2="145.1"/>
<line x1="78.1" y1="148.1" x2="97.1" y2="115.2"/>
<line x1="97.1" y1="115.2" x2="83.0" y2="90.8"/>
<line x1="154.4" y1="148.3" x2="154.4" y2="110.2"/>
<line x1="154.4" y1="110.2" x2="187.3" y2="91.2"/>
<line x1="187.3" y1="91.2" x2="201.4" y2="66.8"/>
<line x1="187.3" y1="91.2" x2="173.3" y2="66.8"/>
<line x1="187.3" y1="91.2" x2="211.7" y2="105.3"/>
<line x1="236.4" y1="157.1" x2="245.6" y2="173.3"/>
<line x1="245.6" y1="190.6" x2="231.4" y2="214.9"/>
<line x1="238.3" y1="188.9" x2="228.2" y2="206.1"/>
<line x1="231.4" y1="214.9" x2="202.9" y2="214.9"/>
<line x1="192.9" y1="197.6" x2="192.9" y2="148.3"/>
<line x1="192.9" y1="148.3" x2="221.4" y2="148.3"/>
<line x1="149.4" y1="206.1" x2="135.1" y2="181.1"/>
<line x1="154.6" y1="200.7" x2="144.4" y2="182.8"/>
<line x1="135.1" y1="181.1" x2="154.4" y2="148.3"/>
<line x1="154.4" y1="148.3" x2="192.9" y2="148.3"/>
<line x1="182.9" y1="214.9" x2="164.4" y2="214.9"/>
<text x="227.780958" y="153.079513" fill="rgb(12,12,255)"  stroke="rgb(12,12,255)" stroke-width="1" font-size="16" >N</text>
<text x="215.539038" y="80.846973" fill="rgb(12,12,255)"  stroke="rgb(12,12,255)" stroke-width="1" font-size="16" >HN</text>
<text x="245.950767" y="48.320000" fill="rgb(102,102,102)"  stroke="rgb(102,102,102)" stroke-width="1" font-size="16" >CH</text>
<text x="269.950767" y="56.000000" fill="rgb(102,102,102)"  stroke="rgb(102,102,102)" stroke-width="1" font-size="13" >3</text>
<text x="244.638157" y="186.915346" fill="rgb(12,12,255)"  stroke="rgb(12,12,255)" stroke-width="1" font-size="16" >N</text>
<text x="186.889666" y="219.734602" fill="rgb(12,12,255)"  stroke="rgb(12,12,255)" stroke-width="1" font-size="16" >N</text>
<text x="150.786822" y="219.734602" fill="rgb(12,12,255)"  stroke="rgb(12,12,255)" stroke-width="1" font-size="16" >N</text>
<text x="36.400000" y="156.464901" fill="rgb(255,12,12)"  stroke="rgb(255,12,12)" stroke-width="1" font-size="16" >O</text>
<text x="54.451849" y="90.557164" fill="rgb(102,102,102)"  stroke="rgb(102,102,102)" stroke-width="1" font-size="16" >H</text>
<text x="66.451849" y="98.237164" fill="rgb(102,102,102)"  stroke="rgb(102,102,102)" stroke-width="1" font-size="13" >3</text>
<text x="72.951849" y="90.557164" fill="rgb(102,102,102)"  stroke="rgb(102,102,102)" stroke-width="1" font-size="16" >C</text>
<text x="200.366615" y="66.567870" fill="rgb(102,102,102)"  stroke="rgb(102,102,102)" stroke-width="1" font-size="16" >CH</text>
<text x="224.366615" y="74.247870" fill="rgb(102,102,102)"  stroke="rgb(102,102,102)" stroke-width="1" font-size="13" >3</text>
<text x="144.714765" y="66.567870" fill="rgb(102,102,102)"  stroke="rgb(102,102,102)" stroke-width="1" font-size="16" >H</text>
<text x="156.714765" y="74.247870" fill="rgb(102,102,102)"  stroke="rgb(102,102,102)" stroke-width="1" font-size="13" >3</text>
<text x="163.214765" y="66.567870" fill="rgb(102,102,102)"  stroke="rgb(102,102,102)" stroke-width="1" font-size="16" >C</text>
<text x="214.294559" y="115.027663" fill="rgb(255,12,12)"  stroke="rgb(255,12,12)" stroke-width="1" font-size="16" >OH</text>
<text x="231.380958" y="148.279513" fill="rgb(255,0,0)"  stroke="rgb(255,0,0)" stroke-width="1" font-size="12" >1</text>
<text x="251.950767" y="112.093945" fill="rgb(255,0,0)"  stroke="rgb(255,0,0)" stroke-width="1" font-size="12" >2</text>
<text x="231.139038" y="76.046973" fill="rgb(255,0,0)"  stroke="rgb(255,0,0)" stroke-width="1" font-size="12" >3</text>
<text x="251.950767" y="40.000000" fill="rgb(255,0,0)"  stroke="rgb(255,0,0)" stroke-width="1" font-size="12" >4</text>
<text x="250.638157" y="182.115346" fill="rgb(255,0,0)"  stroke="rgb(255,0,0)" stroke-width="1" font-size="12" >5</text>
<text x="231.380958" y="214.934602" fill="rgb(255,0,0)"  stroke="rgb(255,0,0)" stroke-width="1" font-size="12" >6</text>
<text x="192.889666" y="214.934602" fill="rgb(255,0,0)"  stroke="rgb(255,0,0)" stroke-width="1" font-size="12" >7</text>
<text x="154.386822" y="214.934602" fill="rgb(255,0,0)"  stroke="rgb(255,0,0)" stroke-width="1" font-size="12" >8</text>
<text x="135.129624" y="181.098769" fill="rgb(255,0,0)"  stroke="rgb(255,0,0)" stroke-width="1" font-size="12" >9</text>
<text x="97.077774" y="181.098769" fill="rgb(255,0,0)"  stroke="rgb(255,0,0)" stroke-width="1" font-size="12" >10</text>
<text x="78.051849" y="148.144901" fill="rgb(255,0,0)"  stroke="rgb(255,0,0)" stroke-width="1" font-size="12" >11</text>
<text x="40.000000" y="148.144901" fill="rgb(255,0,0)"  stroke="rgb(255,0,0)" stroke-width="1" font-size="12" >12</text>
<text x="97.077774" y="115.191032" fill="rgb(255,0,0)"  stroke="rgb(255,0,0)" stroke-width="1" font-size="12" >13</text>
<text x="78.051849" y="82.237164" fill="rgb(255,0,0)"  stroke="rgb(255,0,0)" stroke-width="1" font-size="12" >14</text>
<text x="154.386822" y="148.279513" fill="rgb(255,0,0)"  stroke="rgb(255,0,0)" stroke-width="1" font-size="12" >15</text>
<text x="154.386822" y="110.227663" fill="rgb(255,0,0)"  stroke="rgb(255,0,0)" stroke-width="1" font-size="12" >16</text>
<text x="187.340690" y="91.201738" fill="rgb(255,0,0)"  stroke="rgb(255,0,0)" stroke-width="1" font-size="12" >17</text>
<text x="206.366615" y="58.247870" fill="rgb(255,0,0)"  stroke="rgb(255,0,0)" stroke-width="1" font-size="12" >18</text>
<text x="168.314765" y="58.247870" fill="rgb(255,0,0)"  stroke="rgb(255,0,0)" stroke-width="1" font-size="12" >19</text>
<text x="220.294559" y="110.227663" fill="rgb(255,0,0)"  stroke="rgb(255,0,0)" stroke-width="1" font-size="12" >20</text>
<text x="192.889666" y="148.279513" fill="rgb(255,0,0)"  stroke="rgb(255,0,0)" stroke-width="1" font-size="12" >21</text>
<text font-size="18.000000" fill ="black" font-family="sans-serif"
x="140.000000" y="20.000000" ></text>
<title> - OBDepict</title>
</svg>
