<?xml version="1.0"?>
<svg xmlns="http://www.w3.org/2000/svg"
xmlns:xlink="http://www.w3.org/1999/xlink" xmlns:cml="http://www.xml-cml.org/schema" x="0" y="0" font-family="sans-serif" stroke="rgb(0,0,0)" stroke-width="1" viewBox="0 0 337.297 257.568" width="269.8376" height="206.0544">
<line x1="180.6" y1="114.7" x2="195.6" y2="141.0"/>
<line x1="195.6" y1="141.0" x2="236.5" y2="141.5"/>
<line x1="233.9" y1="140.0" x2="249.4" y2="114.0"/>
<line x1="239.0" y1="143.1" x2="254.5" y2="117.1"/>
<line x1="236.5" y1="141.5" x2="256.4" y2="177.2"/>
<line x1="256.4" y1="177.2" x2="286.7" y2="177.6"/>
<line x1="80.9" y1="73.2" x2="50.6" y2="74.0"/>
<line x1="99.8" y1="105.5" x2="99.8" y2="133.1"/>
<line x1="108.2" y1="147.7" x2="132.1" y2="161.5"/>
<line x1="132.1" y1="161.5" x2="132.1" y2="198.9"/>
<line x1="132.1" y1="198.9" x2="108.2" y2="212.7"/>
<line x1="132.1" y1="198.9" x2="156.1" y2="212.7"/>
<line x1="180.3" y1="96.8" x2="189.4" y2="80.9"/>
<line x1="189.4" y1="63.9" x2="175.4" y2="40.0"/>
<line x1="182.0" y1="65.5" x2="172.2" y2="48.8"/>
<line x1="175.4" y1="40.0" x2="147.4" y2="40.0"/>
<line x1="137.6" y1="57.0" x2="137.6" y2="105.5"/>
<line x1="137.6" y1="105.5" x2="165.6" y2="105.5"/>
<line x1="94.9" y1="48.6" x2="80.9" y2="73.2"/>
<line x1="100.0" y1="54.1" x2="90.1" y2="71.6"/>
<line x1="80.9" y1="73.2" x2="99.8" y2="105.5"/>
<line x1="99.8" y1="105.5" x2="137.6" y2="105.5"/>
<line x1="127.8" y1="40.0" x2="109.6" y2="40.0"/>
<text x="171.787595" y="113.779542" fill="rgb(12,12,255)"  stroke="rgb(12,12,255)" stroke-width="1" font-size="16" >N</text>
<text x="251.372520" y="114.740227" fill="rgb(255,12,12)"  stroke="rgb(255,12,12)" stroke-width="1" font-size="16" >O</text>
<text x="291.297269" y="182.562318" fill="rgb(102,102,102)"  stroke="rgb(102,102,102)" stroke-width="1" font-size="16" >CH</text>
<text x="315.297269" y="187.362318" fill="rgb(102,102,102)"  stroke="rgb(102,102,102)" stroke-width="1" font-size="13" >3</text>
<text x="188.299390" y="80.550599" fill="rgb(12,12,255)"  stroke="rgb(12,12,255)" stroke-width="1" font-size="16" >N</text>
<text x="131.586695" y="48.320000" fill="rgb(12,12,255)"  stroke="rgb(12,12,255)" stroke-width="1" font-size="16" >N</text>
<text x="96.174450" y="48.320000" fill="rgb(12,12,255)"  stroke="rgb(12,12,255)" stroke-width="1" font-size="16" >N</text>
<text x="24.400000" y="79.107501" fill="rgb(124,127,175)"  stroke="rgb(124,127,175)" stroke-width="1" font-size="16" >R</text>
<text x="84.174450" y="147.628881" fill="rgb(12,12,255)"  stroke="rgb(12,12,255)" stroke-width="1" font-size="16" >HN</text>
<text x="84.174450" y="222.367559" fill="rgb(255,12,12)"  stroke="rgb(255,12,12)" stroke-width="1" font-size="16" >HO</text>
<text x="158.500044" y="222.367559" fill="rgb(102,102,102)"  stroke="rgb(102,102,102)" stroke-width="1" font-size="16" >CH</text>
<text x="182.500044" y="227.167559" fill="rgb(102,102,102)"  stroke="rgb(102,102,102)" stroke-width="1" font-size="13" >3</text>
<text x="175.387595" y="105.459542" fill="rgb(255,0,0)"  stroke="rgb(255,0,0)" stroke-width="1" font-size="12" >1</text>
<text x="195.588457" y="140.996073" fill="rgb(255,0,0)"  stroke="rgb(255,0,0)" stroke-width="1" font-size="12" >2</text>
<text x="236.461676" y="141.543673" fill="rgb(255,0,0)"  stroke="rgb(255,0,0)" stroke-width="1" font-size="12" >3</text>
<text x="257.372520" y="106.420227" fill="rgb(255,0,0)"  stroke="rgb(255,0,0)" stroke-width="1" font-size="12" >4</text>
<text x="256.424050" y="177.214719" fill="rgb(255,0,0)"  stroke="rgb(255,0,0)" stroke-width="1" font-size="12" >5</text>
<text x="297.297269" y="177.762318" fill="rgb(255,0,0)"  stroke="rgb(255,0,0)" stroke-width="1" font-size="12" >6</text>
<text x="194.299390" y="72.230599" fill="rgb(255,0,0)"  stroke="rgb(255,0,0)" stroke-width="1" font-size="12" >7</text>
<text x="175.387595" y="40.000000" fill="rgb(255,0,0)"  stroke="rgb(255,0,0)" stroke-width="1" font-size="12" >8</text>
<text x="137.586695" y="40.000000" fill="rgb(255,0,0)"  stroke="rgb(255,0,0)" stroke-width="1" font-size="12" >9</text>
<text x="99.774450" y="40.000000" fill="rgb(255,0,0)"  stroke="rgb(255,0,0)" stroke-width="1" font-size="12" >10</text>
<text x="80.862655" y="73.228942" fill="rgb(255,0,0)"  stroke="rgb(255,0,0)" stroke-width="1" font-size="12" >11</text>
<text x="40.000000" y="74.307501" fill="rgb(255,0,0)"  stroke="rgb(255,0,0)" stroke-width="1" font-size="12" >12</text>
<text x="99.774450" y="105.459542" fill="rgb(255,0,0)"  stroke="rgb(255,0,0)" stroke-width="1" font-size="12" >13</text>
<text x="99.774450" y="142.828881" fill="rgb(255,0,0)"  stroke="rgb(255,0,0)" stroke-width="1" font-size="12" >14</text>
<text x="132.137247" y="161.513551" fill="rgb(255,0,0)"  stroke="rgb(255,0,0)" stroke-width="1" font-size="12" >15</text>
<text x="132.137247" y="198.882890" fill="rgb(255,0,0)"  stroke="rgb(255,0,0)" stroke-width="1" font-size="12" >16</text>
<text x="99.774450" y="217.567559" fill="rgb(255,0,0)"  stroke="rgb(255,0,0)" stroke-width="1" font-size="12" >17</text>
<text x="164.500044" y="217.567559" fill="rgb(255,0,0)"  stroke="rgb(255,0,0)" stroke-width="1" font-size="12" >18</text>
<text x="137.586695" y="105.459542" fill="rgb(255,0,0)"  stroke="rgb(255,0,0)" stroke-width="1" font-size="12" >19</text>
<text font-size="18.000000" fill ="black" font-family="sans-serif"
x="140.000000" y="20.000000" ></text>
<title> - OBDepict</title>
</svg>
