<?xml version="1.0"?>
<svg xmlns="http://www.w3.org/2000/svg"
xmlns:xlink="http://www.w3.org/1999/xlink" xmlns:cml="http://www.xml-cml.org/schema" width="397.801" height="294.713" x="0" y="0" font-family="sans-serif" stroke="rgb(0,0,0)" stroke-width="1" >
<line x1="180.5" y1="114.6" x2="195.4" y2="140.9"/>
<line x1="195.4" y1="140.9" x2="236.3" y2="141.4"/>
<line x1="236.3" y1="141.4" x2="256.2" y2="177.1"/>
<line x1="256.2" y1="177.1" x2="297.0" y2="177.6"/>
<line x1="297.0" y1="177.6" x2="311.8" y2="204.0"/>
<line x1="327.6" y1="213.4" x2="347.2" y2="213.7"/>
<line x1="80.8" y1="73.2" x2="50.6" y2="74.0"/>
<line x1="99.7" y1="105.4" x2="99.7" y2="142.7"/>
<line x1="99.7" y1="142.7" x2="132.0" y2="161.4"/>
<line x1="132.0" y1="161.4" x2="132.0" y2="198.7"/>
<line x1="132.0" y1="198.7" x2="156.0" y2="212.5"/>
<line x1="164.4" y1="227.1" x2="164.4" y2="245.0"/>
<line x1="180.2" y1="96.8" x2="189.2" y2="80.8"/>
<line x1="189.2" y1="63.8" x2="175.2" y2="40.0"/>
<line x1="181.9" y1="65.5" x2="172.1" y2="48.8"/>
<line x1="175.2" y1="40.0" x2="147.3" y2="40.0"/>
<line x1="137.5" y1="57.0" x2="137.5" y2="105.4"/>
<line x1="137.5" y1="105.4" x2="165.4" y2="105.4"/>
<line x1="94.8" y1="48.6" x2="80.8" y2="73.2"/>
<line x1="100.0" y1="54.1" x2="90.0" y2="71.5"/>
<line x1="80.8" y1="73.2" x2="99.7" y2="105.4"/>
<line x1="99.7" y1="105.4" x2="137.5" y2="105.4"/>
<line x1="127.7" y1="40.0" x2="109.5" y2="40.0"/>
<text x="171.646409" y="113.711279" fill="rgb(12,12,255)"  stroke="rgb(12,12,255)" stroke-width="1" font-size="16" >N</text>
<text x="301.370510" y="218.052504" fill="rgb(12,12,255)"  stroke="rgb(12,12,255)" stroke-width="1" font-size="16" >HN</text>
<text x="351.801105" y="218.599532" fill="rgb(102,102,102)"  stroke="rgb(102,102,102)" stroke-width="1" font-size="16" >CH</text>
<text x="375.801105" y="223.399532" fill="rgb(102,102,102)"  stroke="rgb(102,102,102)" stroke-width="1" font-size="13" >3</text>
<text x="188.138482" y="80.516988" fill="rgb(12,12,255)"  stroke="rgb(12,12,255)" stroke-width="1" font-size="16" >N</text>
<text x="131.484929" y="48.320000" fill="rgb(12,12,255)"  stroke="rgb(12,12,255)" stroke-width="1" font-size="16" >N</text>
<text x="96.112116" y="48.320000" fill="rgb(12,12,255)"  stroke="rgb(12,12,255)" stroke-width="1" font-size="16" >N</text>
<text x="24.400000" y="79.071724" fill="rgb(124,127,175)"  stroke="rgb(124,127,175)" stroke-width="1" font-size="16" >R</text>
<text x="158.370213" y="225.702388" fill="rgb(12,12,255)"  stroke="rgb(12,12,255)" stroke-width="1" font-size="16" >NH</text>
<text x="158.370213" y="259.512757" fill="rgb(102,102,102)"  stroke="rgb(102,102,102)" stroke-width="1" font-size="16" >CH</text>
<text x="182.370213" y="264.312757" fill="rgb(102,102,102)"  stroke="rgb(102,102,102)" stroke-width="1" font-size="13" >3</text>
<text x="175.246409" y="105.391279" fill="rgb(255,0,0)"  stroke="rgb(255,0,0)" stroke-width="1" font-size="12" >1</text>
<text x="195.426205" y="140.890752" fill="rgb(255,0,0)"  stroke="rgb(255,0,0)" stroke-width="1" font-size="12" >2</text>
<text x="236.256801" y="141.437781" fill="rgb(255,0,0)"  stroke="rgb(255,0,0)" stroke-width="1" font-size="12" >3</text>
<text x="256.198357" y="177.071628" fill="rgb(255,0,0)"  stroke="rgb(255,0,0)" stroke-width="1" font-size="12" >4</text>
<text x="297.028953" y="177.618656" fill="rgb(255,0,0)"  stroke="rgb(255,0,0)" stroke-width="1" font-size="12" >5</text>
<text x="316.970510" y="213.252504" fill="rgb(255,0,0)"  stroke="rgb(255,0,0)" stroke-width="1" font-size="12" >6</text>
<text x="357.801105" y="213.799532" fill="rgb(255,0,0)"  stroke="rgb(255,0,0)" stroke-width="1" font-size="12" >7</text>
<text x="194.138482" y="72.196988" fill="rgb(255,0,0)"  stroke="rgb(255,0,0)" stroke-width="1" font-size="12" >8</text>
<text x="175.246409" y="40.000000" fill="rgb(255,0,0)"  stroke="rgb(255,0,0)" stroke-width="1" font-size="12" >9</text>
<text x="137.484929" y="40.000000" fill="rgb(255,0,0)"  stroke="rgb(255,0,0)" stroke-width="1" font-size="12" >10</text>
<text x="99.712116" y="40.000000" fill="rgb(255,0,0)"  stroke="rgb(255,0,0)" stroke-width="1" font-size="12" >11</text>
<text x="80.820043" y="73.194290" fill="rgb(255,0,0)"  stroke="rgb(255,0,0)" stroke-width="1" font-size="12" >12</text>
<text x="40.000000" y="74.271724" fill="rgb(255,0,0)"  stroke="rgb(255,0,0)" stroke-width="1" font-size="12" >13</text>
<text x="99.712116" y="105.391279" fill="rgb(255,0,0)"  stroke="rgb(255,0,0)" stroke-width="1" font-size="12" >14</text>
<text x="99.712116" y="142.721648" fill="rgb(255,0,0)"  stroke="rgb(255,0,0)" stroke-width="1" font-size="12" >15</text>
<text x="132.041164" y="161.386833" fill="rgb(255,0,0)"  stroke="rgb(255,0,0)" stroke-width="1" font-size="12" >16</text>
<text x="132.041164" y="198.717203" fill="rgb(255,0,0)"  stroke="rgb(255,0,0)" stroke-width="1" font-size="12" >17</text>
<text x="164.370213" y="217.382388" fill="rgb(255,0,0)"  stroke="rgb(255,0,0)" stroke-width="1" font-size="12" >18</text>
<text x="164.370213" y="254.712757" fill="rgb(255,0,0)"  stroke="rgb(255,0,0)" stroke-width="1" font-size="12" >19</text>
<text x="137.484929" y="105.391279" fill="rgb(255,0,0)"  stroke="rgb(255,0,0)" stroke-width="1" font-size="12" >20</text>
<text font-size="18.000000" fill ="black" font-family="sans-serif"
x="140.000000" y="20.000000" ></text>
<title> - OBDepict</title>
</svg>
