<?xml version="1.0"?>
<svg xmlns="http://www.w3.org/2000/svg"
xmlns:xlink="http://www.w3.org/1999/xlink" xmlns:cml="http://www.xml-cml.org/schema" x="0" y="0" font-family="sans-serif" stroke="rgb(0,0,0)" stroke-width="1" viewBox="0 0 309.214 253.6" width="247.3712" height="202.88">
<line x1="254.1" y1="115.5" x2="269.2" y2="142.1"/>
<line x1="269.2" y1="142.1" x2="253.9" y2="168.5"/>
<line x1="253.9" y1="187.1" x2="263.8" y2="204.3"/>
<line x1="153.3" y1="73.6" x2="125.3" y2="73.6"/>
<line x1="110.6" y1="82.1" x2="96.6" y2="106.3"/>
<line x1="96.6" y1="106.3" x2="58.9" y2="106.3"/>
<line x1="58.9" y1="106.3" x2="44.9" y2="130.5"/>
<line x1="172.4" y1="106.1" x2="172.4" y2="143.9"/>
<line x1="172.4" y1="143.9" x2="196.6" y2="157.9"/>
<line x1="205.1" y1="172.6" x2="205.1" y2="190.7"/>
<line x1="253.8" y1="97.4" x2="262.9" y2="81.3"/>
<line x1="262.9" y1="64.1" x2="248.8" y2="40.0"/>
<line x1="255.6" y1="65.8" x2="245.6" y2="48.8"/>
<line x1="248.8" y1="40.0" x2="220.5" y2="40.0"/>
<line x1="210.6" y1="57.2" x2="210.6" y2="106.1"/>
<line x1="210.6" y1="106.1" x2="238.9" y2="106.1"/>
<line x1="167.4" y1="48.7" x2="153.3" y2="73.6"/>
<line x1="172.6" y1="54.1" x2="162.5" y2="71.9"/>
<line x1="153.3" y1="73.6" x2="172.4" y2="106.1"/>
<line x1="172.4" y1="106.1" x2="210.6" y2="106.1"/>
<line x1="200.7" y1="40.0" x2="182.3" y2="40.0"/>
<text x="245.201188" y="114.466418" fill="rgb(12,12,255)"  stroke="rgb(12,12,255)" stroke-width="1" font-size="16" >N</text>
<text x="232.961113" y="186.147724" fill="rgb(12,12,255)"  stroke="rgb(12,12,255)" stroke-width="1" font-size="16" >HN</text>
<text x="263.214021" y="218.399609" fill="rgb(102,102,102)"  stroke="rgb(102,102,102)" stroke-width="1" font-size="16" >CH</text>
<text x="287.214021" y="223.199609" fill="rgb(102,102,102)"  stroke="rgb(102,102,102)" stroke-width="1" font-size="13" >3</text>
<text x="261.911427" y="80.888800" fill="rgb(12,12,255)"  stroke="rgb(12,12,255)" stroke-width="1" font-size="16" >N</text>
<text x="204.603637" y="48.320000" fill="rgb(12,12,255)"  stroke="rgb(12,12,255)" stroke-width="1" font-size="16" >N</text>
<text x="168.794623" y="48.320000" fill="rgb(12,12,255)"  stroke="rgb(12,12,255)" stroke-width="1" font-size="16" >N</text>
<text x="99.922923" y="81.897619" fill="rgb(12,12,255)"  stroke="rgb(12,12,255)" stroke-width="1" font-size="16" >HN</text>
<text x="24.400000" y="143.782388" fill="rgb(255,12,12)"  stroke="rgb(255,12,12)" stroke-width="1" font-size="16" >HO</text>
<text x="199.097008" y="171.108610" fill="rgb(12,12,255)"  stroke="rgb(12,12,255)" stroke-width="1" font-size="16" >NH</text>
<text x="199.097008" y="205.350072" fill="rgb(102,102,102)"  stroke="rgb(102,102,102)" stroke-width="1" font-size="16" >CH</text>
<text x="223.097008" y="210.150072" fill="rgb(102,102,102)"  stroke="rgb(102,102,102)" stroke-width="1" font-size="13" >3</text>
<text x="248.801188" y="106.146418" fill="rgb(255,0,0)"  stroke="rgb(255,0,0)" stroke-width="1" font-size="12" >1</text>
<text x="269.214021" y="142.055840" fill="rgb(255,0,0)"  stroke="rgb(255,0,0)" stroke-width="1" font-size="12" >2</text>
<text x="248.561113" y="177.827724" fill="rgb(255,0,0)"  stroke="rgb(255,0,0)" stroke-width="1" font-size="12" >3</text>
<text x="269.214021" y="213.599609" fill="rgb(255,0,0)"  stroke="rgb(255,0,0)" stroke-width="1" font-size="12" >4</text>
<text x="267.911427" y="72.568800" fill="rgb(255,0,0)"  stroke="rgb(255,0,0)" stroke-width="1" font-size="12" >5</text>
<text x="248.801188" y="40.000000" fill="rgb(255,0,0)"  stroke="rgb(255,0,0)" stroke-width="1" font-size="12" >6</text>
<text x="210.603637" y="40.000000" fill="rgb(255,0,0)"  stroke="rgb(255,0,0)" stroke-width="1" font-size="12" >7</text>
<text x="172.394623" y="40.000000" fill="rgb(255,0,0)"  stroke="rgb(255,0,0)" stroke-width="1" font-size="12" >8</text>
<text x="153.284384" y="73.577619" fill="rgb(255,0,0)"  stroke="rgb(255,0,0)" stroke-width="1" font-size="12" >9</text>
<text x="115.522923" y="73.577619" fill="rgb(255,0,0)"  stroke="rgb(255,0,0)" stroke-width="1" font-size="12" >10</text>
<text x="96.642192" y="106.280003" fill="rgb(255,0,0)"  stroke="rgb(255,0,0)" stroke-width="1" font-size="12" >11</text>
<text x="58.880731" y="106.280003" fill="rgb(255,0,0)"  stroke="rgb(255,0,0)" stroke-width="1" font-size="12" >12</text>
<text x="40.000000" y="138.982388" fill="rgb(255,0,0)"  stroke="rgb(255,0,0)" stroke-width="1" font-size="12" >13</text>
<text x="172.394623" y="106.146418" fill="rgb(255,0,0)"  stroke="rgb(255,0,0)" stroke-width="1" font-size="12" >14</text>
<text x="172.394623" y="143.907880" fill="rgb(255,0,0)"  stroke="rgb(255,0,0)" stroke-width="1" font-size="12" >15</text>
<text x="205.097008" y="162.788610" fill="rgb(255,0,0)"  stroke="rgb(255,0,0)" stroke-width="1" font-size="12" >16</text>
<text x="205.097008" y="200.550072" fill="rgb(255,0,0)"  stroke="rgb(255,0,0)" stroke-width="1" font-size="12" >17</text>
<text x="210.603637" y="106.146418" fill="rgb(255,0,0)"  stroke="rgb(255,0,0)" stroke-width="1" font-size="12" >18</text>
<text font-size="18.000000" fill ="black" font-family="sans-serif"
x="140.000000" y="20.000000" ></text>
<title> - OBDepict</title>
</svg>
