<?xml version="1.0"?>
<svg xmlns="http://www.w3.org/2000/svg"
xmlns:xlink="http://www.w3.org/1999/xlink" xmlns:cml="http://www.xml-cml.org/schema" width="363.453" height="358.553" x="0" y="0" font-family="sans-serif" stroke="rgb(0,0,0)" stroke-width="1" >
<line x1="308.5" y1="114.8" x2="323.5" y2="141.2"/>
<line x1="323.5" y1="141.2" x2="303.0" y2="176.7"/>
<line x1="303.0" y1="176.7" x2="323.5" y2="212.1"/>
<line x1="323.5" y1="212.1" x2="303.0" y2="247.6"/>
<line x1="303.0" y1="247.6" x2="318.1" y2="273.9"/>
<line x1="318.1" y1="292.3" x2="308.3" y2="309.3"/>
<line x1="208.5" y1="73.3" x2="171.1" y2="73.3"/>
<line x1="171.1" y1="73.3" x2="152.3" y2="105.7"/>
<line x1="152.3" y1="105.7" x2="114.9" y2="105.7"/>
<line x1="114.9" y1="105.7" x2="96.2" y2="138.2"/>
<line x1="96.2" y1="138.2" x2="68.5" y2="138.2"/>
<line x1="53.9" y1="146.6" x2="44.9" y2="162.1"/>
<line x1="227.4" y1="105.6" x2="212.1" y2="131.7"/>
<line x1="308.1" y1="96.9" x2="317.2" y2="81.0"/>
<line x1="317.2" y1="63.9" x2="303.2" y2="40.0"/>
<line x1="309.9" y1="65.6" x2="300.0" y2="48.8"/>
<line x1="303.2" y1="40.0" x2="275.2" y2="40.0"/>
<line x1="265.3" y1="57.1" x2="265.3" y2="105.6"/>
<line x1="265.3" y1="105.6" x2="293.4" y2="105.6"/>
<line x1="222.5" y1="48.7" x2="208.5" y2="73.3"/>
<line x1="227.7" y1="54.1" x2="217.7" y2="71.6"/>
<line x1="208.5" y1="73.3" x2="227.4" y2="105.6"/>
<line x1="227.4" y1="105.6" x2="265.3" y2="105.6"/>
<line x1="255.5" y1="40.0" x2="237.3" y2="40.0"/>
<text x="299.611527" y="113.910258" fill="rgb(12,12,255)"  stroke="rgb(12,12,255)" stroke-width="1" font-size="16" >N</text>
<text x="317.452728" y="291.402208" fill="rgb(12,12,255)"  stroke="rgb(12,12,255)" stroke-width="1" font-size="16" >NH</text>
<text x="279.373471" y="323.353321" fill="rgb(102,102,102)"  stroke="rgb(102,102,102)" stroke-width="1" font-size="16" >H</text>
<text x="291.373471" y="328.153321" fill="rgb(102,102,102)"  stroke="rgb(102,102,102)" stroke-width="1" font-size="13" >3</text>
<text x="297.873471" y="323.353321" fill="rgb(102,102,102)"  stroke="rgb(102,102,102)" stroke-width="1" font-size="16" >C</text>
<text x="316.161087" y="80.614961" fill="rgb(12,12,255)"  stroke="rgb(12,12,255)" stroke-width="1" font-size="16" >N</text>
<text x="259.335142" y="48.320000" fill="rgb(12,12,255)"  stroke="rgb(12,12,255)" stroke-width="1" font-size="16" >N</text>
<text x="223.847390" y="48.320000" fill="rgb(12,12,255)"  stroke="rgb(12,12,255)" stroke-width="1" font-size="16" >N</text>
<text x="43.121981" y="146.470142" fill="rgb(12,12,255)"  stroke="rgb(12,12,255)" stroke-width="1" font-size="16" >HN</text>
<text x="16.400000" y="175.377565" fill="rgb(102,102,102)"  stroke="rgb(102,102,102)" stroke-width="1" font-size="16" >H</text>
<text x="28.400000" y="180.177565" fill="rgb(102,102,102)"  stroke="rgb(102,102,102)" stroke-width="1" font-size="13" >3</text>
<text x="34.900000" y="175.377565" fill="rgb(102,102,102)"  stroke="rgb(102,102,102)" stroke-width="1" font-size="16" >C</text>
<text x="191.128445" y="145.721904" fill="rgb(124,127,175)"  stroke="rgb(124,127,175)" stroke-width="1" font-size="16" >R</text>
<text x="303.211527" y="105.590258" fill="rgb(255,0,0)"  stroke="rgb(255,0,0)" stroke-width="1" font-size="12" >1</text>
<text x="323.452728" y="141.197753" fill="rgb(255,0,0)"  stroke="rgb(255,0,0)" stroke-width="1" font-size="12" >2</text>
<text x="302.973471" y="176.668866" fill="rgb(255,0,0)"  stroke="rgb(255,0,0)" stroke-width="1" font-size="12" >3</text>
<text x="323.452728" y="212.139980" fill="rgb(255,0,0)"  stroke="rgb(255,0,0)" stroke-width="1" font-size="12" >4</text>
<text x="302.973471" y="247.611094" fill="rgb(255,0,0)"  stroke="rgb(255,0,0)" stroke-width="1" font-size="12" >5</text>
<text x="323.452728" y="283.082208" fill="rgb(255,0,0)"  stroke="rgb(255,0,0)" stroke-width="1" font-size="12" >6</text>
<text x="302.973471" y="318.553321" fill="rgb(255,0,0)"  stroke="rgb(255,0,0)" stroke-width="1" font-size="12" >7</text>
<text x="322.161087" y="72.294961" fill="rgb(255,0,0)"  stroke="rgb(255,0,0)" stroke-width="1" font-size="12" >8</text>
<text x="303.211527" y="40.000000" fill="rgb(255,0,0)"  stroke="rgb(255,0,0)" stroke-width="1" font-size="12" >9</text>
<text x="265.335142" y="40.000000" fill="rgb(255,0,0)"  stroke="rgb(255,0,0)" stroke-width="1" font-size="12" >10</text>
<text x="227.447390" y="40.000000" fill="rgb(255,0,0)"  stroke="rgb(255,0,0)" stroke-width="1" font-size="12" >11</text>
<text x="208.497830" y="73.295297" fill="rgb(255,0,0)"  stroke="rgb(255,0,0)" stroke-width="1" font-size="12" >12</text>
<text x="171.053868" y="73.295297" fill="rgb(255,0,0)"  stroke="rgb(255,0,0)" stroke-width="1" font-size="12" >13</text>
<text x="152.331887" y="105.722720" fill="rgb(255,0,0)"  stroke="rgb(255,0,0)" stroke-width="1" font-size="12" >14</text>
<text x="114.887924" y="105.722720" fill="rgb(255,0,0)"  stroke="rgb(255,0,0)" stroke-width="1" font-size="12" >15</text>
<text x="96.165943" y="138.150142" fill="rgb(255,0,0)"  stroke="rgb(255,0,0)" stroke-width="1" font-size="12" >16</text>
<text x="58.721981" y="138.150142" fill="rgb(255,0,0)"  stroke="rgb(255,0,0)" stroke-width="1" font-size="12" >17</text>
<text x="40.000000" y="170.577565" fill="rgb(255,0,0)"  stroke="rgb(255,0,0)" stroke-width="1" font-size="12" >18</text>
<text x="227.447390" y="105.590258" fill="rgb(255,0,0)"  stroke="rgb(255,0,0)" stroke-width="1" font-size="12" >19</text>
<text x="206.728445" y="140.921904" fill="rgb(255,0,0)"  stroke="rgb(255,0,0)" stroke-width="1" font-size="12" >20</text>
<text x="265.335142" y="105.590258" fill="rgb(255,0,0)"  stroke="rgb(255,0,0)" stroke-width="1" font-size="12" >21</text>
<text font-size="18.000000" fill ="black" font-family="sans-serif"
x="140.000000" y="20.000000" ></text>
<title> - OBDepict</title>
</svg>
