<?xml version="1.0"?>
<svg xmlns="http://www.w3.org/2000/svg"
xmlns:xlink="http://www.w3.org/1999/xlink" xmlns:cml="http://www.xml-cml.org/schema" width="329.026" height="287.197" x="0" y="0" font-family="sans-serif" stroke="rgb(0,0,0)" stroke-width="1" >
<line x1="233.2" y1="114.7" x2="248.1" y2="141.0"/>
<line x1="248.1" y1="141.0" x2="227.7" y2="176.4"/>
<line x1="227.7" y1="176.4" x2="248.1" y2="211.8"/>
<line x1="250.7" y1="213.3" x2="235.6" y2="239.5"/>
<line x1="245.6" y1="210.3" x2="230.4" y2="236.5"/>
<line x1="248.1" y1="211.8" x2="278.4" y2="211.8"/>
<line x1="133.4" y1="73.2" x2="96.1" y2="73.2"/>
<line x1="96.1" y1="73.2" x2="77.4" y2="105.6"/>
<line x1="77.4" y1="108.6" x2="49.7" y2="108.6"/>
<line x1="77.4" y1="102.6" x2="49.7" y2="102.6"/>
<line x1="77.4" y1="105.6" x2="96.1" y2="138.0"/>
<line x1="96.1" y1="138.0" x2="82.2" y2="161.9"/>
<line x1="152.3" y1="105.5" x2="137.0" y2="131.6"/>
<line x1="232.9" y1="96.8" x2="241.9" y2="80.9"/>
<line x1="241.9" y1="63.9" x2="227.9" y2="40.0"/>
<line x1="234.6" y1="65.5" x2="224.8" y2="48.8"/>
<line x1="227.9" y1="40.0" x2="200.0" y2="40.0"/>
<line x1="190.1" y1="57.0" x2="190.1" y2="105.5"/>
<line x1="190.1" y1="105.5" x2="218.1" y2="105.5"/>
<line x1="147.4" y1="48.6" x2="133.4" y2="73.2"/>
<line x1="152.6" y1="54.1" x2="142.6" y2="71.6"/>
<line x1="133.4" y1="73.2" x2="152.3" y2="105.5"/>
<line x1="152.3" y1="105.5" x2="190.1" y2="105.5"/>
<line x1="180.3" y1="40.0" x2="162.2" y2="40.0"/>
<text x="224.348288" y="113.779542" fill="rgb(12,12,255)"  stroke="rgb(12,12,255)" stroke-width="1" font-size="16" >N</text>
<text x="224.110706" y="251.997341" fill="rgb(255,12,12)"  stroke="rgb(255,12,12)" stroke-width="1" font-size="16" >O</text>
<text x="283.026037" y="220.116918" fill="rgb(102,102,102)"  stroke="rgb(102,102,102)" stroke-width="1" font-size="16" >CH</text>
<text x="307.026037" y="227.796918" fill="rgb(102,102,102)"  stroke="rgb(102,102,102)" stroke-width="1" font-size="13" >3</text>
<text x="240.860082" y="80.550599" fill="rgb(12,12,255)"  stroke="rgb(12,12,255)" stroke-width="1" font-size="16" >N</text>
<text x="184.147388" y="48.320000" fill="rgb(12,12,255)"  stroke="rgb(12,12,255)" stroke-width="1" font-size="16" >N</text>
<text x="148.735143" y="48.320000" fill="rgb(12,12,255)"  stroke="rgb(12,12,255)" stroke-width="1" font-size="16" >N</text>
<text x="36.400000" y="110.391739" fill="rgb(255,12,12)"  stroke="rgb(255,12,12)" stroke-width="1" font-size="16" >O</text>
<text x="53.769339" y="175.117334" fill="rgb(102,102,102)"  stroke="rgb(102,102,102)" stroke-width="1" font-size="16" >H</text>
<text x="65.769339" y="179.917334" fill="rgb(102,102,102)"  stroke="rgb(102,102,102)" stroke-width="1" font-size="13" >3</text>
<text x="72.269339" y="175.117334" fill="rgb(102,102,102)"  stroke="rgb(102,102,102)" stroke-width="1" font-size="16" >C</text>
<text x="116.057489" y="145.520774" fill="rgb(124,127,175)"  stroke="rgb(124,127,175)" stroke-width="1" font-size="16" >R</text>
<text x="227.948288" y="105.459542" fill="rgb(255,0,0)"  stroke="rgb(255,0,0)" stroke-width="1" font-size="12" >1</text>
<text x="248.149150" y="140.996073" fill="rgb(255,0,0)"  stroke="rgb(255,0,0)" stroke-width="1" font-size="12" >2</text>
<text x="227.710706" y="176.396496" fill="rgb(255,0,0)"  stroke="rgb(255,0,0)" stroke-width="1" font-size="12" >3</text>
<text x="248.149150" y="211.796918" fill="rgb(255,0,0)"  stroke="rgb(255,0,0)" stroke-width="1" font-size="12" >4</text>
<text x="227.710706" y="247.197341" fill="rgb(255,0,0)"  stroke="rgb(255,0,0)" stroke-width="1" font-size="12" >5</text>
<text x="289.026037" y="211.796918" fill="rgb(255,0,0)"  stroke="rgb(255,0,0)" stroke-width="1" font-size="12" >6</text>
<text x="246.860082" y="72.230599" fill="rgb(255,0,0)"  stroke="rgb(255,0,0)" stroke-width="1" font-size="12" >7</text>
<text x="227.948288" y="40.000000" fill="rgb(255,0,0)"  stroke="rgb(255,0,0)" stroke-width="1" font-size="12" >8</text>
<text x="190.147388" y="40.000000" fill="rgb(255,0,0)"  stroke="rgb(255,0,0)" stroke-width="1" font-size="12" >9</text>
<text x="152.335143" y="40.000000" fill="rgb(255,0,0)"  stroke="rgb(255,0,0)" stroke-width="1" font-size="12" >10</text>
<text x="133.423348" y="73.228942" fill="rgb(255,0,0)"  stroke="rgb(255,0,0)" stroke-width="1" font-size="12" >11</text>
<text x="96.054009" y="73.228942" fill="rgb(255,0,0)"  stroke="rgb(255,0,0)" stroke-width="1" font-size="12" >12</text>
<text x="77.369339" y="105.591739" fill="rgb(255,0,0)"  stroke="rgb(255,0,0)" stroke-width="1" font-size="12" >13</text>
<text x="40.000000" y="105.591739" fill="rgb(255,0,0)"  stroke="rgb(255,0,0)" stroke-width="1" font-size="12" >14</text>
<text x="96.054009" y="137.954537" fill="rgb(255,0,0)"  stroke="rgb(255,0,0)" stroke-width="1" font-size="12" >15</text>
<text x="77.369339" y="170.317334" fill="rgb(255,0,0)"  stroke="rgb(255,0,0)" stroke-width="1" font-size="12" >16</text>
<text x="152.335143" y="105.459542" fill="rgb(255,0,0)"  stroke="rgb(255,0,0)" stroke-width="1" font-size="12" >17</text>
<text x="131.657489" y="140.720774" fill="rgb(255,0,0)"  stroke="rgb(255,0,0)" stroke-width="1" font-size="12" >18</text>
<text x="190.147388" y="105.459542" fill="rgb(255,0,0)"  stroke="rgb(255,0,0)" stroke-width="1" font-size="12" >19</text>
<text font-size="18.000000" fill ="black" font-family="sans-serif"
x="140.000000" y="20.000000" ></text>
<title> - OBDepict</title>
</svg>
