<?xml version="1.0"?>
<svg xmlns="http://www.w3.org/2000/svg"
xmlns:xlink="http://www.w3.org/1999/xlink" xmlns:cml="http://www.xml-cml.org/schema" x="0" y="0" font-family="sans-serif" stroke="rgb(0,0,0)" stroke-width="1" viewBox="0 0 238.292 315.75" width="190.6336" height="252.6">
<line x1="181.9" y1="115.4" x2="191.7" y2="132.6"/>
<line x1="81.2" y1="73.5" x2="50.7" y2="74.3"/>
<line x1="100.3" y1="106.1" x2="100.3" y2="143.8"/>
<line x1="100.3" y1="143.8" x2="133.0" y2="162.6"/>
<line x1="133.0" y1="162.6" x2="133.0" y2="200.3"/>
<line x1="133.0" y1="200.3" x2="165.6" y2="219.2"/>
<line x1="165.6" y1="219.2" x2="165.6" y2="247.1"/>
<line x1="174.1" y1="261.8" x2="189.8" y2="270.8"/>
<line x1="181.6" y1="97.3" x2="190.7" y2="81.2"/>
<line x1="190.7" y1="64.1" x2="176.6" y2="40.0"/>
<line x1="183.4" y1="65.8" x2="173.4" y2="48.8"/>
<line x1="176.6" y1="40.0" x2="148.4" y2="40.0"/>
<line x1="138.5" y1="57.2" x2="138.5" y2="106.1"/>
<line x1="138.5" y1="106.1" x2="166.7" y2="106.1"/>
<line x1="95.4" y1="48.7" x2="81.2" y2="73.5"/>
<line x1="100.6" y1="54.1" x2="90.5" y2="71.9"/>
<line x1="81.2" y1="73.5" x2="100.3" y2="106.1"/>
<line x1="100.3" y1="106.1" x2="138.5" y2="106.1"/>
<line x1="128.6" y1="40.0" x2="110.2" y2="40.0"/>
<text x="173.020841" y="114.375813" fill="rgb(12,12,255)"  stroke="rgb(12,12,255)" stroke-width="1" font-size="16" >N</text>
<text x="191.005712" y="146.716046" fill="rgb(124,127,175)"  stroke="rgb(124,127,175)" stroke-width="1" font-size="16" >R</text>
<text x="189.704903" y="80.844188" fill="rgb(12,12,255)"  stroke="rgb(12,12,255)" stroke-width="1" font-size="16" >N</text>
<text x="132.475612" y="48.320000" fill="rgb(12,12,255)"  stroke="rgb(12,12,255)" stroke-width="1" font-size="16" >N</text>
<text x="96.718936" y="48.320000" fill="rgb(12,12,255)"  stroke="rgb(12,12,255)" stroke-width="1" font-size="16" >N</text>
<text x="24.400000" y="79.420008" fill="rgb(124,127,175)"  stroke="rgb(124,127,175)" stroke-width="1" font-size="16" >R</text>
<text x="150.034115" y="261.694759" fill="rgb(12,12,255)"  stroke="rgb(12,12,255)" stroke-width="1" font-size="16" >HN</text>
<text x="192.291705" y="280.549628" fill="rgb(102,102,102)"  stroke="rgb(102,102,102)" stroke-width="1" font-size="16" >CH</text>
<text x="216.291705" y="285.349628" fill="rgb(102,102,102)"  stroke="rgb(102,102,102)" stroke-width="1" font-size="13" >3</text>
<text x="176.620841" y="106.055813" fill="rgb(255,0,0)"  stroke="rgb(255,0,0)" stroke-width="1" font-size="12" >1</text>
<text x="197.005712" y="141.916046" fill="rgb(255,0,0)"  stroke="rgb(255,0,0)" stroke-width="1" font-size="12" >2</text>
<text x="195.704903" y="72.524188" fill="rgb(255,0,0)"  stroke="rgb(255,0,0)" stroke-width="1" font-size="12" >3</text>
<text x="176.620841" y="40.000000" fill="rgb(255,0,0)"  stroke="rgb(255,0,0)" stroke-width="1" font-size="12" >4</text>
<text x="138.475612" y="40.000000" fill="rgb(255,0,0)"  stroke="rgb(255,0,0)" stroke-width="1" font-size="12" >5</text>
<text x="100.318936" y="40.000000" fill="rgb(255,0,0)"  stroke="rgb(255,0,0)" stroke-width="1" font-size="12" >6</text>
<text x="81.234873" y="73.531625" fill="rgb(255,0,0)"  stroke="rgb(255,0,0)" stroke-width="1" font-size="12" >7</text>
<text x="40.000000" y="74.620008" fill="rgb(255,0,0)"  stroke="rgb(255,0,0)" stroke-width="1" font-size="12" >8</text>
<text x="100.318936" y="106.055813" fill="rgb(255,0,0)"  stroke="rgb(255,0,0)" stroke-width="1" font-size="12" >9</text>
<text x="100.318936" y="143.765549" fill="rgb(255,0,0)"  stroke="rgb(255,0,0)" stroke-width="1" font-size="12" >10</text>
<text x="132.976526" y="162.620418" fill="rgb(255,0,0)"  stroke="rgb(255,0,0)" stroke-width="1" font-size="12" >11</text>
<text x="132.976526" y="200.330154" fill="rgb(255,0,0)"  stroke="rgb(255,0,0)" stroke-width="1" font-size="12" >12</text>
<text x="165.634115" y="219.185023" fill="rgb(255,0,0)"  stroke="rgb(255,0,0)" stroke-width="1" font-size="12" >13</text>
<text x="165.634115" y="256.894759" fill="rgb(255,0,0)"  stroke="rgb(255,0,0)" stroke-width="1" font-size="12" >14</text>
<text x="198.291705" y="275.749628" fill="rgb(255,0,0)"  stroke="rgb(255,0,0)" stroke-width="1" font-size="12" >15</text>
<text x="138.475612" y="106.055813" fill="rgb(255,0,0)"  stroke="rgb(255,0,0)" stroke-width="1" font-size="12" >16</text>
<text font-size="18.000000" fill ="black" font-family="sans-serif"
x="140.000000" y="20.000000" ></text>
<title> - OBDepict</title>
</svg>
