<?xml version="1.0"?>
<svg xmlns="http://www.w3.org/2000/svg"
xmlns:xlink="http://www.w3.org/1999/xlink" xmlns:cml="http://www.xml-cml.org/schema" width="293.701" height="318.393" x="0" y="0" font-family="sans-serif" stroke="rgb(0,0,0)" stroke-width="1" >
<line x1="237.1" y1="116.2" x2="247.0" y2="133.6"/>
<line x1="247.0" y1="152.5" x2="231.5" y2="179.2"/>
<line x1="231.5" y1="179.2" x2="247.0" y2="205.9"/>
<line x1="135.3" y1="73.9" x2="97.2" y2="73.9"/>
<line x1="97.2" y1="73.9" x2="78.1" y2="106.9"/>
<line x1="78.1" y1="109.9" x2="49.9" y2="109.9"/>
<line x1="78.1" y1="103.9" x2="49.9" y2="103.9"/>
<line x1="78.1" y1="106.9" x2="97.2" y2="140.0"/>
<line x1="97.2" y1="140.0" x2="83.1" y2="164.4"/>
<line x1="154.6" y1="106.8" x2="154.6" y2="144.9"/>
<line x1="154.6" y1="144.9" x2="187.7" y2="164.0"/>
<line x1="187.7" y1="164.0" x2="187.7" y2="202.1"/>
<line x1="187.7" y1="202.1" x2="220.7" y2="221.2"/>
<line x1="220.7" y1="221.2" x2="220.7" y2="249.4"/>
<line x1="229.3" y1="264.3" x2="245.1" y2="273.4"/>
<line x1="236.8" y1="98.0" x2="246.1" y2="81.7"/>
<line x1="246.1" y1="64.3" x2="231.8" y2="40.0"/>
<line x1="238.8" y1="66.1" x2="228.6" y2="48.8"/>
<line x1="231.8" y1="40.0" x2="203.2" y2="40.0"/>
<line x1="193.2" y1="57.4" x2="193.2" y2="106.8"/>
<line x1="193.2" y1="106.8" x2="221.8" y2="106.8"/>
<line x1="149.6" y1="48.8" x2="135.3" y2="73.9"/>
<line x1="154.8" y1="54.2" x2="144.6" y2="72.3"/>
<line x1="135.3" y1="73.9" x2="154.6" y2="106.8"/>
<line x1="154.6" y1="106.8" x2="193.2" y2="106.8"/>
<line x1="183.2" y1="40.0" x2="164.7" y2="40.0"/>
<text x="228.187078" y="115.116534" fill="rgb(12,12,255)"  stroke="rgb(12,12,255)" stroke-width="1" font-size="16" >N</text>
<text x="246.400537" y="147.858889" fill="rgb(12,12,255)"  stroke="rgb(12,12,255)" stroke-width="1" font-size="16" >NH</text>
<text x="246.400537" y="220.105821" fill="rgb(102,102,102)"  stroke="rgb(102,102,102)" stroke-width="1" font-size="16" >CH</text>
<text x="270.400537" y="224.905821" fill="rgb(102,102,102)"  stroke="rgb(102,102,102)" stroke-width="1" font-size="13" >3</text>
<text x="245.085141" y="81.208900" fill="rgb(12,12,255)"  stroke="rgb(12,12,255)" stroke-width="1" font-size="16" >N</text>
<text x="187.214105" y="48.320000" fill="rgb(12,12,255)"  stroke="rgb(12,12,255)" stroke-width="1" font-size="16" >N</text>
<text x="151.029556" y="48.320000" fill="rgb(12,12,255)"  stroke="rgb(12,12,255)" stroke-width="1" font-size="16" >N</text>
<text x="36.400000" y="111.731432" fill="rgb(255,12,12)"  stroke="rgb(255,12,12)" stroke-width="1" font-size="16" >O</text>
<text x="54.532597" y="177.779028" fill="rgb(102,102,102)"  stroke="rgb(102,102,102)" stroke-width="1" font-size="16" >H</text>
<text x="66.532597" y="182.579028" fill="rgb(102,102,102)"  stroke="rgb(102,102,102)" stroke-width="1" font-size="13" >3</text>
<text x="73.032597" y="177.779028" fill="rgb(102,102,102)"  stroke="rgb(102,102,102)" stroke-width="1" font-size="16" >C</text>
<text x="205.077152" y="264.126924" fill="rgb(12,12,255)"  stroke="rgb(12,12,255)" stroke-width="1" font-size="16" >HN</text>
<text x="247.700950" y="283.193222" fill="rgb(102,102,102)"  stroke="rgb(102,102,102)" stroke-width="1" font-size="16" >CH</text>
<text x="271.700950" y="287.993222" fill="rgb(102,102,102)"  stroke="rgb(102,102,102)" stroke-width="1" font-size="13" >3</text>
<text x="231.787078" y="106.796534" fill="rgb(255,0,0)"  stroke="rgb(255,0,0)" stroke-width="1" font-size="12" >1</text>
<text x="252.400537" y="143.058889" fill="rgb(255,0,0)"  stroke="rgb(255,0,0)" stroke-width="1" font-size="12" >2</text>
<text x="231.544644" y="179.182355" fill="rgb(255,0,0)"  stroke="rgb(255,0,0)" stroke-width="1" font-size="12" >3</text>
<text x="252.400537" y="215.305821" fill="rgb(255,0,0)"  stroke="rgb(255,0,0)" stroke-width="1" font-size="12" >4</text>
<text x="251.085141" y="72.888900" fill="rgb(255,0,0)"  stroke="rgb(255,0,0)" stroke-width="1" font-size="12" >5</text>
<text x="231.787078" y="40.000000" fill="rgb(255,0,0)"  stroke="rgb(255,0,0)" stroke-width="1" font-size="12" >6</text>
<text x="193.214105" y="40.000000" fill="rgb(255,0,0)"  stroke="rgb(255,0,0)" stroke-width="1" font-size="12" >7</text>
<text x="154.629556" y="40.000000" fill="rgb(255,0,0)"  stroke="rgb(255,0,0)" stroke-width="1" font-size="12" >8</text>
<text x="135.331493" y="73.907634" fill="rgb(255,0,0)"  stroke="rgb(255,0,0)" stroke-width="1" font-size="12" >9</text>
<text x="97.198896" y="73.907634" fill="rgb(255,0,0)"  stroke="rgb(255,0,0)" stroke-width="1" font-size="12" >10</text>
<text x="78.132597" y="106.931432" fill="rgb(255,0,0)"  stroke="rgb(255,0,0)" stroke-width="1" font-size="12" >11</text>
<text x="40.000000" y="106.931432" fill="rgb(255,0,0)"  stroke="rgb(255,0,0)" stroke-width="1" font-size="12" >12</text>
<text x="97.198896" y="139.955230" fill="rgb(255,0,0)"  stroke="rgb(255,0,0)" stroke-width="1" font-size="12" >13</text>
<text x="78.132597" y="172.979028" fill="rgb(255,0,0)"  stroke="rgb(255,0,0)" stroke-width="1" font-size="12" >14</text>
<text x="154.629556" y="106.796534" fill="rgb(255,0,0)"  stroke="rgb(255,0,0)" stroke-width="1" font-size="12" >15</text>
<text x="154.629556" y="144.929132" fill="rgb(255,0,0)"  stroke="rgb(255,0,0)" stroke-width="1" font-size="12" >16</text>
<text x="187.653354" y="163.995430" fill="rgb(255,0,0)"  stroke="rgb(255,0,0)" stroke-width="1" font-size="12" >17</text>
<text x="187.653354" y="202.128028" fill="rgb(255,0,0)"  stroke="rgb(255,0,0)" stroke-width="1" font-size="12" >18</text>
<text x="220.677152" y="221.194326" fill="rgb(255,0,0)"  stroke="rgb(255,0,0)" stroke-width="1" font-size="12" >19</text>
<text x="220.677152" y="259.326924" fill="rgb(255,0,0)"  stroke="rgb(255,0,0)" stroke-width="1" font-size="12" >20</text>
<text x="253.700950" y="278.393222" fill="rgb(255,0,0)"  stroke="rgb(255,0,0)" stroke-width="1" font-size="12" >21</text>
<text x="193.214105" y="106.796534" fill="rgb(255,0,0)"  stroke="rgb(255,0,0)" stroke-width="1" font-size="12" >22</text>
<text font-size="18.000000" fill ="black" font-family="sans-serif"
x="140.000000" y="20.000000" ></text>
<title> - OBDepict</title>
</svg>
