<?xml version="1.0"?>
<svg xmlns="http://www.w3.org/2000/svg"
xmlns:xlink="http://www.w3.org/1999/xlink" xmlns:cml="http://www.xml-cml.org/schema" width="289.296" height="211.035" x="0" y="0" font-family="sans-serif" stroke="rgb(0,0,0)" stroke-width="1" >
<line x1="234.3" y1="115.1" x2="244.0" y2="132.3"/>
<line x1="133.9" y1="73.4" x2="96.4" y2="73.4"/>
<line x1="96.4" y1="73.4" x2="77.6" y2="106.0"/>
<line x1="77.6" y1="109.0" x2="49.8" y2="109.0"/>
<line x1="77.6" y1="103.0" x2="49.8" y2="103.0"/>
<line x1="77.6" y1="106.0" x2="96.4" y2="138.5"/>
<line x1="96.4" y1="138.5" x2="82.5" y2="162.6"/>
<line x1="153.0" y1="105.8" x2="137.6" y2="132.1"/>
<line x1="233.9" y1="97.1" x2="243.1" y2="81.1"/>
<line x1="243.1" y1="64.0" x2="229.0" y2="40.0"/>
<line x1="235.7" y1="65.7" x2="225.8" y2="48.8"/>
<line x1="229.0" y1="40.0" x2="200.9" y2="40.0"/>
<line x1="191.0" y1="57.1" x2="191.0" y2="105.8"/>
<line x1="191.0" y1="105.8" x2="219.1" y2="105.8"/>
<line x1="148.0" y1="48.7" x2="133.9" y2="73.4"/>
<line x1="153.2" y1="54.1" x2="143.2" y2="71.8"/>
<line x1="133.9" y1="73.4" x2="153.0" y2="105.8"/>
<line x1="153.0" y1="105.8" x2="191.0" y2="105.8"/>
<line x1="181.1" y1="40.0" x2="162.8" y2="40.0"/>
<text x="225.384023" y="114.140273" fill="rgb(12,12,255)"  stroke="rgb(12,12,255)" stroke-width="1" font-size="16" >N</text>
<text x="243.296207" y="146.352637" fill="rgb(124,127,175)"  stroke="rgb(124,127,175)" stroke-width="1" font-size="16" >R</text>
<text x="242.000036" y="80.728214" fill="rgb(12,12,255)"  stroke="rgb(12,12,255)" stroke-width="1" font-size="16" >N</text>
<text x="184.974812" y="48.320000" fill="rgb(12,12,255)"  stroke="rgb(12,12,255)" stroke-width="1" font-size="16" >N</text>
<text x="149.354193" y="48.320000" fill="rgb(12,12,255)"  stroke="rgb(12,12,255)" stroke-width="1" font-size="16" >N</text>
<text x="36.400000" y="110.753199" fill="rgb(255,12,12)"  stroke="rgb(255,12,12)" stroke-width="1" font-size="16" >O</text>
<text x="53.975272" y="175.835479" fill="rgb(102,102,102)"  stroke="rgb(102,102,102)" stroke-width="1" font-size="16" >H</text>
<text x="65.975272" y="180.635479" fill="rgb(102,102,102)"  stroke="rgb(102,102,102)" stroke-width="1" font-size="13" >3</text>
<text x="72.475272" y="175.835479" fill="rgb(102,102,102)"  stroke="rgb(102,102,102)" stroke-width="1" font-size="16" >C</text>
<text x="116.562590" y="146.075821" fill="rgb(124,127,175)"  stroke="rgb(124,127,175)" stroke-width="1" font-size="16" >R</text>
<text x="228.984023" y="105.820273" fill="rgb(255,0,0)"  stroke="rgb(255,0,0)" stroke-width="1" font-size="12" >1</text>
<text x="249.296207" y="141.552637" fill="rgb(255,0,0)"  stroke="rgb(255,0,0)" stroke-width="1" font-size="12" >2</text>
<text x="248.000036" y="72.408214" fill="rgb(255,0,0)"  stroke="rgb(255,0,0)" stroke-width="1" font-size="12" >3</text>
<text x="228.984023" y="40.000000" fill="rgb(255,0,0)"  stroke="rgb(255,0,0)" stroke-width="1" font-size="12" >4</text>
<text x="190.974812" y="40.000000" fill="rgb(255,0,0)"  stroke="rgb(255,0,0)" stroke-width="1" font-size="12" >5</text>
<text x="152.954193" y="40.000000" fill="rgb(255,0,0)"  stroke="rgb(255,0,0)" stroke-width="1" font-size="12" >6</text>
<text x="133.938180" y="73.412059" fill="rgb(255,0,0)"  stroke="rgb(255,0,0)" stroke-width="1" font-size="12" >7</text>
<text x="96.362908" y="73.412059" fill="rgb(255,0,0)"  stroke="rgb(255,0,0)" stroke-width="1" font-size="12" >8</text>
<text x="77.575272" y="105.953199" fill="rgb(255,0,0)"  stroke="rgb(255,0,0)" stroke-width="1" font-size="12" >9</text>
<text x="40.000000" y="105.953199" fill="rgb(255,0,0)"  stroke="rgb(255,0,0)" stroke-width="1" font-size="12" >10</text>
<text x="96.362908" y="138.494339" fill="rgb(255,0,0)"  stroke="rgb(255,0,0)" stroke-width="1" font-size="12" >11</text>
<text x="77.575272" y="171.035479" fill="rgb(255,0,0)"  stroke="rgb(255,0,0)" stroke-width="1" font-size="12" >12</text>
<text x="152.954193" y="105.820273" fill="rgb(255,0,0)"  stroke="rgb(255,0,0)" stroke-width="1" font-size="12" >13</text>
<text x="132.162590" y="141.275821" fill="rgb(255,0,0)"  stroke="rgb(255,0,0)" stroke-width="1" font-size="12" >14</text>
<text x="190.974812" y="105.820273" fill="rgb(255,0,0)"  stroke="rgb(255,0,0)" stroke-width="1" font-size="12" >15</text>
<text font-size="18.000000" fill ="black" font-family="sans-serif"
x="140.000000" y="20.000000" ></text>
<title> - OBDepict</title>
</svg>
