<?xml version="1.0"?>
<svg xmlns="http://www.w3.org/2000/svg"
xmlns:xlink="http://www.w3.org/1999/xlink" xmlns:cml="http://www.xml-cml.org/schema" width="289.357" height="288.4" x="0" y="0" font-family="sans-serif" stroke="rgb(0,0,0)" stroke-width="1" >
<line x1="234.3" y1="115.1" x2="244.1" y2="132.3"/>
<line x1="244.0" y1="150.8" x2="228.8" y2="177.2"/>
<line x1="228.8" y1="177.2" x2="249.4" y2="212.8"/>
<line x1="249.4" y1="212.8" x2="234.1" y2="239.1"/>
<line x1="134.0" y1="73.4" x2="96.4" y2="73.4"/>
<line x1="96.4" y1="73.4" x2="82.5" y2="97.5"/>
<line x1="67.8" y1="106.0" x2="49.8" y2="106.0"/>
<line x1="153.0" y1="105.8" x2="153.0" y2="133.7"/>
<line x1="161.5" y1="148.3" x2="185.5" y2="162.2"/>
<line x1="185.5" y1="162.2" x2="185.5" y2="190.0"/>
<line x1="234.0" y1="97.1" x2="243.1" y2="81.1"/>
<line x1="243.1" y1="64.0" x2="229.0" y2="40.0"/>
<line x1="235.8" y1="65.7" x2="225.9" y2="48.8"/>
<line x1="229.0" y1="40.0" x2="200.9" y2="40.0"/>
<line x1="191.0" y1="57.1" x2="191.0" y2="105.8"/>
<line x1="191.0" y1="105.8" x2="219.2" y2="105.8"/>
<line x1="148.0" y1="48.7" x2="134.0" y2="73.4"/>
<line x1="153.2" y1="54.1" x2="143.2" y2="71.8"/>
<line x1="134.0" y1="73.4" x2="153.0" y2="105.8"/>
<line x1="153.0" y1="105.8" x2="191.0" y2="105.8"/>
<line x1="181.1" y1="40.0" x2="162.9" y2="40.0"/>
<text x="225.438851" y="114.159369" fill="rgb(12,12,255)"  stroke="rgb(12,12,255)" stroke-width="1" font-size="16" >N</text>
<text x="243.356928" y="146.382099" fill="rgb(12,12,255)"  stroke="rgb(12,12,255)" stroke-width="1" font-size="16" >NH</text>
<text x="213.199891" y="253.199596" fill="rgb(255,12,12)"  stroke="rgb(255,12,12)" stroke-width="1" font-size="16" >HO</text>
<text x="242.060381" y="80.737616" fill="rgb(12,12,255)"  stroke="rgb(12,12,255)" stroke-width="1" font-size="16" >N</text>
<text x="185.018613" y="48.320000" fill="rgb(12,12,255)"  stroke="rgb(12,12,255)" stroke-width="1" font-size="16" >N</text>
<text x="149.386964" y="48.320000" fill="rgb(12,12,255)"  stroke="rgb(12,12,255)" stroke-width="1" font-size="16" >N</text>
<text x="71.586174" y="110.772333" fill="rgb(12,12,255)"  stroke="rgb(12,12,255)" stroke-width="1" font-size="16" >NH</text>
<text x="16.400000" y="110.772333" fill="rgb(102,102,102)"  stroke="rgb(102,102,102)" stroke-width="1" font-size="16" >H</text>
<text x="28.400000" y="115.572333" fill="rgb(102,102,102)"  stroke="rgb(102,102,102)" stroke-width="1" font-size="13" >3</text>
<text x="34.900000" y="110.772333" fill="rgb(102,102,102)"  stroke="rgb(102,102,102)" stroke-width="1" font-size="16" >C</text>
<text x="137.386964" y="148.225542" fill="rgb(12,12,255)"  stroke="rgb(12,12,255)" stroke-width="1" font-size="16" >HN</text>
<text x="179.537545" y="204.604803" fill="rgb(102,102,102)"  stroke="rgb(102,102,102)" stroke-width="1" font-size="16" >CH</text>
<text x="203.537545" y="209.404803" fill="rgb(102,102,102)"  stroke="rgb(102,102,102)" stroke-width="1" font-size="13" >3</text>
<text x="229.038851" y="105.839369" fill="rgb(255,0,0)"  stroke="rgb(255,0,0)" stroke-width="1" font-size="12" >1</text>
<text x="249.356928" y="141.582099" fill="rgb(255,0,0)"  stroke="rgb(255,0,0)" stroke-width="1" font-size="12" >2</text>
<text x="228.799891" y="177.187932" fill="rgb(255,0,0)"  stroke="rgb(255,0,0)" stroke-width="1" font-size="12" >3</text>
<text x="249.356928" y="212.793764" fill="rgb(255,0,0)"  stroke="rgb(255,0,0)" stroke-width="1" font-size="12" >4</text>
<text x="228.799891" y="248.399596" fill="rgb(255,0,0)"  stroke="rgb(255,0,0)" stroke-width="1" font-size="12" >5</text>
<text x="248.060381" y="72.417616" fill="rgb(255,0,0)"  stroke="rgb(255,0,0)" stroke-width="1" font-size="12" >6</text>
<text x="229.038851" y="40.000000" fill="rgb(255,0,0)"  stroke="rgb(255,0,0)" stroke-width="1" font-size="12" >7</text>
<text x="191.018613" y="40.000000" fill="rgb(255,0,0)"  stroke="rgb(255,0,0)" stroke-width="1" font-size="12" >8</text>
<text x="152.986964" y="40.000000" fill="rgb(255,0,0)"  stroke="rgb(255,0,0)" stroke-width="1" font-size="12" >9</text>
<text x="133.965434" y="73.421752" fill="rgb(255,0,0)"  stroke="rgb(255,0,0)" stroke-width="1" font-size="12" >10</text>
<text x="96.379260" y="73.421752" fill="rgb(255,0,0)"  stroke="rgb(255,0,0)" stroke-width="1" font-size="12" >11</text>
<text x="77.586174" y="105.972333" fill="rgb(255,0,0)"  stroke="rgb(255,0,0)" stroke-width="1" font-size="12" >12</text>
<text x="40.000000" y="105.972333" fill="rgb(255,0,0)"  stroke="rgb(255,0,0)" stroke-width="1" font-size="12" >13</text>
<text x="152.986964" y="105.839369" fill="rgb(255,0,0)"  stroke="rgb(255,0,0)" stroke-width="1" font-size="12" >14</text>
<text x="152.986964" y="143.425542" fill="rgb(255,0,0)"  stroke="rgb(255,0,0)" stroke-width="1" font-size="12" >15</text>
<text x="185.537545" y="162.218629" fill="rgb(255,0,0)"  stroke="rgb(255,0,0)" stroke-width="1" font-size="12" >16</text>
<text x="185.537545" y="199.804803" fill="rgb(255,0,0)"  stroke="rgb(255,0,0)" stroke-width="1" font-size="12" >17</text>
<text x="191.018613" y="105.839369" fill="rgb(255,0,0)"  stroke="rgb(255,0,0)" stroke-width="1" font-size="12" >18</text>
<text font-size="18.000000" fill ="black" font-family="sans-serif"
x="140.000000" y="20.000000" ></text>
<title> - OBDepict</title>
</svg>
