<?xml version="1.0"?>
<svg xmlns="http://www.w3.org/2000/svg"
xmlns:xlink="http://www.w3.org/1999/xlink" xmlns:cml="http://www.xml-cml.org/schema" x="0" y="0" font-family="sans-serif" stroke="rgb(0,0,0)" stroke-width="1" viewBox="0 0 308.084 181.553" width="246.4672" height="145.2424">
<line x1="253.1" y1="115.1" x2="262.8" y2="132.3"/>
<line x1="152.7" y1="73.4" x2="115.2" y2="73.4"/>
<line x1="115.2" y1="73.4" x2="101.2" y2="97.5"/>
<line x1="86.6" y1="106.0" x2="58.8" y2="106.0"/>
<line x1="58.8" y1="106.0" x2="44.9" y2="81.9"/>
<line x1="58.8" y1="106.0" x2="44.9" y2="130.0"/>
<line x1="171.7" y1="105.8" x2="156.4" y2="132.1"/>
<line x1="252.7" y1="97.1" x2="261.8" y2="81.1"/>
<line x1="261.8" y1="64.0" x2="247.8" y2="40.0"/>
<line x1="254.5" y1="65.7" x2="244.6" y2="48.8"/>
<line x1="247.8" y1="40.0" x2="219.6" y2="40.0"/>
<line x1="209.8" y1="57.1" x2="209.8" y2="105.8"/>
<line x1="209.8" y1="105.8" x2="237.9" y2="105.8"/>
<line x1="166.8" y1="48.7" x2="152.7" y2="73.4"/>
<line x1="172.0" y1="54.1" x2="162.0" y2="71.8"/>
<line x1="152.7" y1="73.4" x2="171.7" y2="105.8"/>
<line x1="171.7" y1="105.8" x2="209.8" y2="105.8"/>
<line x1="199.9" y1="40.0" x2="181.6" y2="40.0"/>
<text x="244.171659" y="114.140273" fill="rgb(12,12,255)"  stroke="rgb(12,12,255)" stroke-width="1" font-size="16" >N</text>
<text x="262.083843" y="146.352637" fill="rgb(124,127,175)"  stroke="rgb(124,127,175)" stroke-width="1" font-size="16" >R</text>
<text x="260.787672" y="80.728214" fill="rgb(12,12,255)"  stroke="rgb(12,12,255)" stroke-width="1" font-size="16" >N</text>
<text x="203.762448" y="48.320000" fill="rgb(12,12,255)"  stroke="rgb(12,12,255)" stroke-width="1" font-size="16" >N</text>
<text x="168.141829" y="48.320000" fill="rgb(12,12,255)"  stroke="rgb(12,12,255)" stroke-width="1" font-size="16" >N</text>
<text x="90.362908" y="110.753199" fill="rgb(255,12,12)"  stroke="rgb(255,12,12)" stroke-width="1" font-size="16" >O</text>
<text x="16.400000" y="81.732059" fill="rgb(102,102,102)"  stroke="rgb(102,102,102)" stroke-width="1" font-size="16" >H</text>
<text x="28.400000" y="89.412059" fill="rgb(102,102,102)"  stroke="rgb(102,102,102)" stroke-width="1" font-size="13" >3</text>
<text x="34.900000" y="81.732059" fill="rgb(102,102,102)"  stroke="rgb(102,102,102)" stroke-width="1" font-size="16" >C</text>
<text x="16.400000" y="143.294339" fill="rgb(102,102,102)"  stroke="rgb(102,102,102)" stroke-width="1" font-size="16" >H</text>
<text x="28.400000" y="148.094339" fill="rgb(102,102,102)"  stroke="rgb(102,102,102)" stroke-width="1" font-size="13" >3</text>
<text x="34.900000" y="143.294339" fill="rgb(102,102,102)"  stroke="rgb(102,102,102)" stroke-width="1" font-size="16" >C</text>
<text x="135.350226" y="146.075821" fill="rgb(124,127,175)"  stroke="rgb(124,127,175)" stroke-width="1" font-size="16" >R</text>
<text x="247.771659" y="105.820273" fill="rgb(255,0,0)"  stroke="rgb(255,0,0)" stroke-width="1" font-size="12" >1</text>
<text x="268.083843" y="141.552637" fill="rgb(255,0,0)"  stroke="rgb(255,0,0)" stroke-width="1" font-size="12" >2</text>
<text x="266.787672" y="72.408214" fill="rgb(255,0,0)"  stroke="rgb(255,0,0)" stroke-width="1" font-size="12" >3</text>
<text x="247.771659" y="40.000000" fill="rgb(255,0,0)"  stroke="rgb(255,0,0)" stroke-width="1" font-size="12" >4</text>
<text x="209.762448" y="40.000000" fill="rgb(255,0,0)"  stroke="rgb(255,0,0)" stroke-width="1" font-size="12" >5</text>
<text x="171.741829" y="40.000000" fill="rgb(255,0,0)"  stroke="rgb(255,0,0)" stroke-width="1" font-size="12" >6</text>
<text x="152.725816" y="73.412059" fill="rgb(255,0,0)"  stroke="rgb(255,0,0)" stroke-width="1" font-size="12" >7</text>
<text x="115.150544" y="73.412059" fill="rgb(255,0,0)"  stroke="rgb(255,0,0)" stroke-width="1" font-size="12" >8</text>
<text x="96.362908" y="105.953199" fill="rgb(255,0,0)"  stroke="rgb(255,0,0)" stroke-width="1" font-size="12" >9</text>
<text x="58.787636" y="105.953199" fill="rgb(255,0,0)"  stroke="rgb(255,0,0)" stroke-width="1" font-size="12" >10</text>
<text x="40.000000" y="73.412059" fill="rgb(255,0,0)"  stroke="rgb(255,0,0)" stroke-width="1" font-size="12" >11</text>
<text x="40.000000" y="138.494339" fill="rgb(255,0,0)"  stroke="rgb(255,0,0)" stroke-width="1" font-size="12" >12</text>
<text x="171.741829" y="105.820273" fill="rgb(255,0,0)"  stroke="rgb(255,0,0)" stroke-width="1" font-size="12" >13</text>
<text x="150.950226" y="141.275821" fill="rgb(255,0,0)"  stroke="rgb(255,0,0)" stroke-width="1" font-size="12" >14</text>
<text x="209.762448" y="105.820273" fill="rgb(255,0,0)"  stroke="rgb(255,0,0)" stroke-width="1" font-size="12" >15</text>
<text font-size="18.000000" fill ="black" font-family="sans-serif"
x="140.000000" y="20.000000" ></text>
<title> - OBDepict</title>
</svg>
