<?xml version="1.0"?>
<svg xmlns="http://www.w3.org/2000/svg"
xmlns:xlink="http://www.w3.org/1999/xlink" xmlns:cml="http://www.xml-cml.org/schema" x="0" y="0" font-family="sans-serif" stroke="rgb(0,0,0)" stroke-width="1" viewBox="0 0 287.015 250.861" width="229.612" height="200.6888">
<line x1="232.1" y1="114.3" x2="247.0" y2="140.4"/>
<line x1="247.0" y1="140.4" x2="232.0" y2="166.5"/>
<line x1="232.0" y1="184.8" x2="241.7" y2="201.7"/>
<line x1="132.9" y1="73.0" x2="105.4" y2="73.0"/>
<line x1="90.9" y1="81.4" x2="77.2" y2="105.2"/>
<line x1="77.2" y1="105.2" x2="49.7" y2="105.2"/>
<line x1="151.7" y1="105.1" x2="136.5" y2="131.1"/>
<line x1="231.8" y1="96.5" x2="240.8" y2="80.6"/>
<line x1="240.8" y1="63.7" x2="226.9" y2="40.0"/>
<line x1="233.5" y1="65.4" x2="223.8" y2="48.8"/>
<line x1="226.9" y1="40.0" x2="199.1" y2="40.0"/>
<line x1="189.3" y1="56.9" x2="189.3" y2="105.1"/>
<line x1="189.3" y1="105.1" x2="217.1" y2="105.1"/>
<line x1="146.8" y1="48.6" x2="132.9" y2="73.0"/>
<line x1="152.0" y1="54.1" x2="142.1" y2="71.4"/>
<line x1="132.9" y1="73.0" x2="151.7" y2="105.1"/>
<line x1="151.7" y1="105.1" x2="189.3" y2="105.1"/>
<line x1="179.6" y1="40.0" x2="161.5" y2="40.0"/>
<text x="223.323843" y="113.422743" fill="rgb(12,12,255)"  stroke="rgb(12,12,255)" stroke-width="1" font-size="16" >N</text>
<text x="211.087557" y="183.973043" fill="rgb(12,12,255)"  stroke="rgb(12,12,255)" stroke-width="1" font-size="16" >HN</text>
<text x="241.014597" y="215.660510" fill="rgb(102,102,102)"  stroke="rgb(102,102,102)" stroke-width="1" font-size="16" >CH</text>
<text x="265.014597" y="220.460510" fill="rgb(102,102,102)"  stroke="rgb(102,102,102)" stroke-width="1" font-size="13" >3</text>
<text x="239.732556" y="80.374921" fill="rgb(12,12,255)"  stroke="rgb(12,12,255)" stroke-width="1" font-size="16" >N</text>
<text x="183.328984" y="48.320000" fill="rgb(12,12,255)"  stroke="rgb(12,12,255)" stroke-width="1" font-size="16" >N</text>
<text x="148.122841" y="48.320000" fill="rgb(12,12,255)"  stroke="rgb(12,12,255)" stroke-width="1" font-size="16" >N</text>
<text x="80.148477" y="81.367822" fill="rgb(12,12,255)"  stroke="rgb(12,12,255)" stroke-width="1" font-size="16" >HN</text>
<text x="16.400000" y="110.034221" fill="rgb(102,102,102)"  stroke="rgb(102,102,102)" stroke-width="1" font-size="16" >H</text>
<text x="28.400000" y="114.834221" fill="rgb(102,102,102)"  stroke="rgb(102,102,102)" stroke-width="1" font-size="13" >3</text>
<text x="34.900000" y="110.034221" fill="rgb(102,102,102)"  stroke="rgb(102,102,102)" stroke-width="1" font-size="16" >C</text>
<text x="115.557895" y="144.971779" fill="rgb(124,127,175)"  stroke="rgb(124,127,175)" stroke-width="1" font-size="16" >R</text>
<text x="226.923843" y="105.102743" fill="rgb(255,0,0)"  stroke="rgb(255,0,0)" stroke-width="1" font-size="12" >1</text>
<text x="247.014597" y="140.445577" fill="rgb(255,0,0)"  stroke="rgb(255,0,0)" stroke-width="1" font-size="12" >2</text>
<text x="226.687557" y="175.653043" fill="rgb(255,0,0)"  stroke="rgb(255,0,0)" stroke-width="1" font-size="12" >3</text>
<text x="247.014597" y="210.860510" fill="rgb(255,0,0)"  stroke="rgb(255,0,0)" stroke-width="1" font-size="12" >4</text>
<text x="245.732556" y="72.054921" fill="rgb(255,0,0)"  stroke="rgb(255,0,0)" stroke-width="1" font-size="12" >5</text>
<text x="226.923843" y="40.000000" fill="rgb(255,0,0)"  stroke="rgb(255,0,0)" stroke-width="1" font-size="12" >6</text>
<text x="189.328984" y="40.000000" fill="rgb(255,0,0)"  stroke="rgb(255,0,0)" stroke-width="1" font-size="12" >7</text>
<text x="151.722841" y="40.000000" fill="rgb(255,0,0)"  stroke="rgb(255,0,0)" stroke-width="1" font-size="12" >8</text>
<text x="132.914128" y="73.047822" fill="rgb(255,0,0)"  stroke="rgb(255,0,0)" stroke-width="1" font-size="12" >9</text>
<text x="95.748477" y="73.047822" fill="rgb(255,0,0)"  stroke="rgb(255,0,0)" stroke-width="1" font-size="12" >10</text>
<text x="77.165651" y="105.234221" fill="rgb(255,0,0)"  stroke="rgb(255,0,0)" stroke-width="1" font-size="12" >11</text>
<text x="40.000000" y="105.234221" fill="rgb(255,0,0)"  stroke="rgb(255,0,0)" stroke-width="1" font-size="12" >12</text>
<text x="151.722841" y="105.102743" fill="rgb(255,0,0)"  stroke="rgb(255,0,0)" stroke-width="1" font-size="12" >13</text>
<text x="131.157895" y="140.171779" fill="rgb(255,0,0)"  stroke="rgb(255,0,0)" stroke-width="1" font-size="12" >14</text>
<text x="189.328984" y="105.102743" fill="rgb(255,0,0)"  stroke="rgb(255,0,0)" stroke-width="1" font-size="12" >15</text>
<text font-size="18.000000" fill ="black" font-family="sans-serif"
x="140.000000" y="20.000000" ></text>
<title> - OBDepict</title>
</svg>
