<?xml version="1.0"?>
<svg xmlns="http://www.w3.org/2000/svg"
xmlns:xlink="http://www.w3.org/1999/xlink" xmlns:cml="http://www.xml-cml.org/schema" x="0" y="0" font-family="sans-serif" stroke="rgb(0,0,0)" stroke-width="1" viewBox="0 0 452.112 317.58" width="361.6896" height="254.064">
<line x1="293.5" y1="116.0" x2="308.7" y2="142.7"/>
<line x1="308.7" y1="142.7" x2="350.2" y2="143.3"/>
<line x1="350.2" y1="143.3" x2="370.5" y2="179.5"/>
<line x1="370.6" y1="176.5" x2="401.3" y2="177.0"/>
<line x1="370.5" y1="182.5" x2="401.3" y2="183.0"/>
<line x1="370.5" y1="179.5" x2="354.8" y2="206.0"/>
<line x1="192.0" y1="73.8" x2="154.0" y2="73.8"/>
<line x1="154.0" y1="73.8" x2="135.0" y2="106.7"/>
<line x1="135.0" y1="106.7" x2="97.0" y2="106.7"/>
<line x1="97.0" y1="106.7" x2="82.9" y2="131.1"/>
<line x1="68.1" y1="139.6" x2="49.9" y2="139.6"/>
<line x1="211.2" y1="106.6" x2="211.2" y2="144.6"/>
<line x1="211.2" y1="144.6" x2="244.2" y2="163.6"/>
<line x1="244.2" y1="163.6" x2="244.2" y2="201.6"/>
<line x1="244.2" y1="201.6" x2="277.1" y2="220.6"/>
<line x1="277.1" y1="220.6" x2="277.1" y2="248.7"/>
<line x1="285.6" y1="263.5" x2="301.4" y2="272.6"/>
<line x1="293.1" y1="97.8" x2="302.4" y2="81.6"/>
<line x1="302.4" y1="64.3" x2="288.1" y2="40.0"/>
<line x1="295.0" y1="66.0" x2="285.0" y2="48.8"/>
<line x1="288.1" y1="40.0" x2="259.7" y2="40.0"/>
<line x1="249.7" y1="57.3" x2="249.7" y2="106.6"/>
<line x1="249.7" y1="106.6" x2="278.1" y2="106.6"/>
<line x1="206.2" y1="48.8" x2="192.0" y2="73.8"/>
<line x1="211.5" y1="54.2" x2="201.2" y2="72.1"/>
<line x1="192.0" y1="73.8" x2="211.2" y2="106.6"/>
<line x1="211.2" y1="106.6" x2="249.7" y2="106.6"/>
<line x1="239.7" y1="40.0" x2="221.2" y2="40.0"/>
<text x="284.536461" y="114.888632" fill="rgb(12,12,255)"  stroke="rgb(12,12,255)" stroke-width="1" font-size="16" >N</text>
<text x="406.111667" y="184.896444" fill="rgb(255,12,12)"  stroke="rgb(255,12,12)" stroke-width="1" font-size="16" >O</text>
<text x="325.680788" y="220.058114" fill="rgb(102,102,102)"  stroke="rgb(102,102,102)" stroke-width="1" font-size="16" >H</text>
<text x="337.680788" y="224.858114" fill="rgb(102,102,102)"  stroke="rgb(102,102,102)" stroke-width="1" font-size="13" >3</text>
<text x="344.180788" y="220.058114" fill="rgb(102,102,102)"  stroke="rgb(102,102,102)" stroke-width="1" font-size="16" >C</text>
<text x="301.368681" y="81.096687" fill="rgb(12,12,255)"  stroke="rgb(12,12,255)" stroke-width="1" font-size="16" >N</text>
<text x="243.695095" y="48.320000" fill="rgb(12,12,255)"  stroke="rgb(12,12,255)" stroke-width="1" font-size="16" >N</text>
<text x="207.642192" y="48.320000" fill="rgb(12,12,255)"  stroke="rgb(12,12,255)" stroke-width="1" font-size="16" >N</text>
<text x="72.002493" y="144.414194" fill="rgb(12,12,255)"  stroke="rgb(12,12,255)" stroke-width="1" font-size="16" >NH</text>
<text x="16.400000" y="144.414194" fill="rgb(102,102,102)"  stroke="rgb(102,102,102)" stroke-width="1" font-size="16" >H</text>
<text x="28.400000" y="149.214194" fill="rgb(102,102,102)"  stroke="rgb(102,102,102)" stroke-width="1" font-size="13" >3</text>
<text x="34.900000" y="144.414194" fill="rgb(102,102,102)"  stroke="rgb(102,102,102)" stroke-width="1" font-size="16" >C</text>
<text x="261.464441" y="263.378604" fill="rgb(12,12,255)"  stroke="rgb(12,12,255)" stroke-width="1" font-size="16" >HN</text>
<text x="303.975566" y="282.379851" fill="rgb(102,102,102)"  stroke="rgb(102,102,102)" stroke-width="1" font-size="16" >CH</text>
<text x="327.975566" y="287.179851" fill="rgb(102,102,102)"  stroke="rgb(102,102,102)" stroke-width="1" font-size="13" >3</text>
<text x="288.136461" y="106.568632" fill="rgb(255,0,0)"  stroke="rgb(255,0,0)" stroke-width="1" font-size="12" >1</text>
<text x="308.679589" y="142.707264" fill="rgb(255,0,0)"  stroke="rgb(255,0,0)" stroke-width="1" font-size="12" >2</text>
<text x="350.245329" y="143.264141" fill="rgb(255,0,0)"  stroke="rgb(255,0,0)" stroke-width="1" font-size="12" >3</text>
<text x="370.545928" y="179.539567" fill="rgb(255,0,0)"  stroke="rgb(255,0,0)" stroke-width="1" font-size="12" >4</text>
<text x="412.111667" y="180.096444" fill="rgb(255,0,0)"  stroke="rgb(255,0,0)" stroke-width="1" font-size="12" >5</text>
<text x="349.280788" y="215.258114" fill="rgb(255,0,0)"  stroke="rgb(255,0,0)" stroke-width="1" font-size="12" >6</text>
<text x="307.368681" y="72.776687" fill="rgb(255,0,0)"  stroke="rgb(255,0,0)" stroke-width="1" font-size="12" >7</text>
<text x="288.136461" y="40.000000" fill="rgb(255,0,0)"  stroke="rgb(255,0,0)" stroke-width="1" font-size="12" >8</text>
<text x="249.695095" y="40.000000" fill="rgb(255,0,0)"  stroke="rgb(255,0,0)" stroke-width="1" font-size="12" >9</text>
<text x="211.242192" y="40.000000" fill="rgb(255,0,0)"  stroke="rgb(255,0,0)" stroke-width="1" font-size="12" >10</text>
<text x="192.009972" y="73.791945" fill="rgb(255,0,0)"  stroke="rgb(255,0,0)" stroke-width="1" font-size="12" >11</text>
<text x="154.007479" y="73.791945" fill="rgb(255,0,0)"  stroke="rgb(255,0,0)" stroke-width="1" font-size="12" >12</text>
<text x="135.006233" y="106.703069" fill="rgb(255,0,0)"  stroke="rgb(255,0,0)" stroke-width="1" font-size="12" >13</text>
<text x="97.003740" y="106.703069" fill="rgb(255,0,0)"  stroke="rgb(255,0,0)" stroke-width="1" font-size="12" >14</text>
<text x="78.002493" y="139.614194" fill="rgb(255,0,0)"  stroke="rgb(255,0,0)" stroke-width="1" font-size="12" >15</text>
<text x="40.000000" y="139.614194" fill="rgb(255,0,0)"  stroke="rgb(255,0,0)" stroke-width="1" font-size="12" >16</text>
<text x="211.242192" y="106.568632" fill="rgb(255,0,0)"  stroke="rgb(255,0,0)" stroke-width="1" font-size="12" >17</text>
<text x="211.242192" y="144.571125" fill="rgb(255,0,0)"  stroke="rgb(255,0,0)" stroke-width="1" font-size="12" >18</text>
<text x="244.153317" y="163.572371" fill="rgb(255,0,0)"  stroke="rgb(255,0,0)" stroke-width="1" font-size="12" >19</text>
<text x="244.153317" y="201.574865" fill="rgb(255,0,0)"  stroke="rgb(255,0,0)" stroke-width="1" font-size="12" >20</text>
<text x="277.064441" y="220.576111" fill="rgb(255,0,0)"  stroke="rgb(255,0,0)" stroke-width="1" font-size="12" >21</text>
<text x="277.064441" y="258.578604" fill="rgb(255,0,0)"  stroke="rgb(255,0,0)" stroke-width="1" font-size="12" >22</text>
<text x="309.975566" y="277.579851" fill="rgb(255,0,0)"  stroke="rgb(255,0,0)" stroke-width="1" font-size="12" >23</text>
<text x="249.695095" y="106.568632" fill="rgb(255,0,0)"  stroke="rgb(255,0,0)" stroke-width="1" font-size="12" >24</text>
<text font-size="18.000000" fill ="black" font-family="sans-serif"
x="140.000000" y="20.000000" ></text>
<title> - OBDepict</title>
</svg>
