<?xml version="1.0"?>
<svg xmlns="http://www.w3.org/2000/svg"
xmlns:xlink="http://www.w3.org/1999/xlink" xmlns:cml="http://www.xml-cml.org/schema" x="0" y="0" font-family="sans-serif" stroke="rgb(0,0,0)" stroke-width="1" viewBox="0 0 286.017 322.071" width="228.8136" height="257.6568">
<line x1="230.9" y1="147.7" x2="240.7" y2="165.0"/>
<line x1="240.6" y1="183.7" x2="225.3" y2="210.3"/>
<line x1="225.3" y1="210.3" x2="246.0" y2="246.2"/>
<line x1="246.0" y1="246.2" x2="230.7" y2="272.7"/>
<line x1="129.7" y1="105.6" x2="91.8" y2="105.6"/>
<line x1="91.8" y1="105.6" x2="72.8" y2="72.8"/>
<line x1="72.8" y1="72.8" x2="48.5" y2="58.8"/>
<line x1="72.8" y1="72.8" x2="48.5" y2="86.8"/>
<line x1="72.8" y1="72.8" x2="86.8" y2="48.5"/>
<line x1="148.8" y1="138.3" x2="148.8" y2="176.2"/>
<line x1="148.8" y1="176.2" x2="181.7" y2="195.2"/>
<line x1="181.7" y1="195.2" x2="181.7" y2="223.2"/>
<line x1="190.2" y1="238.0" x2="206.0" y2="247.1"/>
<line x1="230.5" y1="129.6" x2="239.7" y2="113.4"/>
<line x1="239.7" y1="96.1" x2="225.5" y2="71.9"/>
<line x1="232.4" y1="97.9" x2="222.4" y2="80.8"/>
<line x1="225.5" y1="71.9" x2="197.2" y2="71.9"/>
<line x1="187.2" y1="89.2" x2="187.2" y2="138.3"/>
<line x1="187.2" y1="138.3" x2="215.6" y2="138.3"/>
<line x1="143.9" y1="80.7" x2="129.7" y2="105.6"/>
<line x1="149.1" y1="86.1" x2="138.9" y2="104.0"/>
<line x1="129.7" y1="105.6" x2="148.8" y2="138.3"/>
<line x1="148.8" y1="138.3" x2="187.2" y2="138.3"/>
<line x1="177.2" y1="71.9" x2="158.8" y2="71.9"/>
<text x="221.929977" y="146.647914" fill="rgb(12,12,255)"  stroke="rgb(12,12,255)" stroke-width="1" font-size="16" >N</text>
<text x="240.016637" y="179.167211" fill="rgb(12,12,255)"  stroke="rgb(12,12,255)" stroke-width="1" font-size="16" >NH</text>
<text x="209.689034" y="286.870997" fill="rgb(255,12,12)"  stroke="rgb(255,12,12)" stroke-width="1" font-size="16" >HO</text>
<text x="238.709332" y="112.948854" fill="rgb(12,12,255)"  stroke="rgb(12,12,255)" stroke-width="1" font-size="16" >N</text>
<text x="181.194275" y="80.262261" fill="rgb(12,12,255)"  stroke="rgb(12,12,255)" stroke-width="1" font-size="16" >N</text>
<text x="145.247069" y="80.262261" fill="rgb(12,12,255)"  stroke="rgb(12,12,255)" stroke-width="1" font-size="16" >N</text>
<text x="16.400000" y="62.191643" fill="rgb(102,102,102)"  stroke="rgb(102,102,102)" stroke-width="1" font-size="16" >H</text>
<text x="28.400000" y="69.871643" fill="rgb(102,102,102)"  stroke="rgb(102,102,102)" stroke-width="1" font-size="13" >3</text>
<text x="34.900000" y="62.191643" fill="rgb(102,102,102)"  stroke="rgb(102,102,102)" stroke-width="1" font-size="16" >C</text>
<text x="16.400000" y="96.569678" fill="rgb(102,102,102)"  stroke="rgb(102,102,102)" stroke-width="1" font-size="16" >H</text>
<text x="28.400000" y="101.369678" fill="rgb(102,102,102)"  stroke="rgb(102,102,102)" stroke-width="1" font-size="13" >3</text>
<text x="34.900000" y="96.569678" fill="rgb(102,102,102)"  stroke="rgb(102,102,102)" stroke-width="1" font-size="16" >C</text>
<text x="85.769678" y="48.320000" fill="rgb(255,12,12)"  stroke="rgb(255,12,12)" stroke-width="1" font-size="16" >OH</text>
<text x="166.067730" y="237.873001" fill="rgb(12,12,255)"  stroke="rgb(12,12,255)" stroke-width="1" font-size="16" >HN</text>
<text x="208.488391" y="256.822019" fill="rgb(102,102,102)"  stroke="rgb(102,102,102)" stroke-width="1" font-size="16" >CH</text>
<text x="232.488391" y="261.622019" fill="rgb(102,102,102)"  stroke="rgb(102,102,102)" stroke-width="1" font-size="13" >3</text>
<text x="225.529977" y="138.327914" fill="rgb(255,0,0)"  stroke="rgb(255,0,0)" stroke-width="1" font-size="12" >1</text>
<text x="246.016637" y="174.367211" fill="rgb(255,0,0)"  stroke="rgb(255,0,0)" stroke-width="1" font-size="12" >2</text>
<text x="225.289034" y="210.268473" fill="rgb(255,0,0)"  stroke="rgb(255,0,0)" stroke-width="1" font-size="12" >3</text>
<text x="246.016637" y="246.169735" fill="rgb(255,0,0)"  stroke="rgb(255,0,0)" stroke-width="1" font-size="12" >4</text>
<text x="225.289034" y="282.070997" fill="rgb(255,0,0)"  stroke="rgb(255,0,0)" stroke-width="1" font-size="12" >5</text>
<text x="244.709332" y="104.628854" fill="rgb(255,0,0)"  stroke="rgb(255,0,0)" stroke-width="1" font-size="12" >6</text>
<text x="225.529977" y="71.942261" fill="rgb(255,0,0)"  stroke="rgb(255,0,0)" stroke-width="1" font-size="12" >7</text>
<text x="187.194275" y="71.942261" fill="rgb(255,0,0)"  stroke="rgb(255,0,0)" stroke-width="1" font-size="12" >8</text>
<text x="148.847069" y="71.942261" fill="rgb(255,0,0)"  stroke="rgb(255,0,0)" stroke-width="1" font-size="12" >9</text>
<text x="129.667713" y="105.641322" fill="rgb(255,0,0)"  stroke="rgb(255,0,0)" stroke-width="1" font-size="12" >10</text>
<text x="91.769678" y="105.641322" fill="rgb(255,0,0)"  stroke="rgb(255,0,0)" stroke-width="1" font-size="12" >11</text>
<text x="72.820661" y="72.820661" fill="rgb(255,0,0)"  stroke="rgb(255,0,0)" stroke-width="1" font-size="12" >12</text>
<text x="40.000000" y="53.871643" fill="rgb(255,0,0)"  stroke="rgb(255,0,0)" stroke-width="1" font-size="12" >13</text>
<text x="40.000000" y="91.769678" fill="rgb(255,0,0)"  stroke="rgb(255,0,0)" stroke-width="1" font-size="12" >14</text>
<text x="91.769678" y="40.000000" fill="rgb(255,0,0)"  stroke="rgb(255,0,0)" stroke-width="1" font-size="12" >15</text>
<text x="148.847069" y="138.327914" fill="rgb(255,0,0)"  stroke="rgb(255,0,0)" stroke-width="1" font-size="12" >16</text>
<text x="148.847069" y="176.225949" fill="rgb(255,0,0)"  stroke="rgb(255,0,0)" stroke-width="1" font-size="12" >17</text>
<text x="181.667730" y="195.174967" fill="rgb(255,0,0)"  stroke="rgb(255,0,0)" stroke-width="1" font-size="12" >18</text>
<text x="181.667730" y="233.073001" fill="rgb(255,0,0)"  stroke="rgb(255,0,0)" stroke-width="1" font-size="12" >19</text>
<text x="214.488391" y="252.022019" fill="rgb(255,0,0)"  stroke="rgb(255,0,0)" stroke-width="1" font-size="12" >20</text>
<text x="187.194275" y="138.327914" fill="rgb(255,0,0)"  stroke="rgb(255,0,0)" stroke-width="1" font-size="12" >21</text>
<text font-size="18.000000" fill ="black" font-family="sans-serif"
x="140.000000" y="20.000000" ></text>
<title> - OBDepict</title>
</svg>
