<?xml version="1.0"?>
<svg xmlns="http://www.w3.org/2000/svg"
xmlns:xlink="http://www.w3.org/1999/xlink" xmlns:cml="http://www.xml-cml.org/schema" x="0" y="0" font-family="sans-serif" stroke="rgb(0,0,0)" stroke-width="1" viewBox="0 0 310.57 290.61" width="248.456" height="232.488">
<line x1="255.4" y1="115.9" x2="270.6" y2="142.7"/>
<line x1="270.6" y1="142.7" x2="249.8" y2="178.6"/>
<line x1="249.8" y1="178.6" x2="265.2" y2="205.3"/>
<line x1="265.2" y1="224.0" x2="255.2" y2="241.3"/>
<line x1="154.0" y1="73.8" x2="125.8" y2="73.8"/>
<line x1="111.0" y1="82.3" x2="97.0" y2="106.7"/>
<line x1="97.0" y1="106.7" x2="59.0" y2="106.7"/>
<line x1="59.0" y1="106.7" x2="44.9" y2="82.3"/>
<line x1="59.0" y1="106.7" x2="44.9" y2="131.0"/>
<line x1="173.2" y1="106.5" x2="173.2" y2="144.5"/>
<line x1="173.2" y1="144.5" x2="197.5" y2="158.6"/>
<line x1="206.1" y1="173.4" x2="206.1" y2="201.5"/>
<line x1="206.1" y1="201.5" x2="181.7" y2="215.6"/>
<line x1="206.1" y1="201.5" x2="230.4" y2="215.6"/>
<line x1="255.0" y1="97.8" x2="264.3" y2="81.5"/>
<line x1="264.3" y1="64.2" x2="250.0" y2="40.0"/>
<line x1="256.9" y1="66.0" x2="246.9" y2="48.8"/>
<line x1="250.0" y1="40.0" x2="221.6" y2="40.0"/>
<line x1="211.6" y1="57.3" x2="211.6" y2="106.5"/>
<line x1="211.6" y1="106.5" x2="240.0" y2="106.5"/>
<line x1="168.2" y1="48.8" x2="154.0" y2="73.8"/>
<line x1="173.4" y1="54.2" x2="163.2" y2="72.1"/>
<line x1="154.0" y1="73.8" x2="173.2" y2="106.5"/>
<line x1="173.2" y1="106.5" x2="211.6" y2="106.5"/>
<line x1="201.6" y1="40.0" x2="183.2" y2="40.0"/>
<text x="246.436247" y="114.857675" fill="rgb(12,12,255)"  stroke="rgb(12,12,255)" stroke-width="1" font-size="16" >N</text>
<text x="264.569822" y="219.426451" fill="rgb(12,12,255)"  stroke="rgb(12,12,255)" stroke-width="1" font-size="16" >NH</text>
<text x="226.194753" y="255.409926" fill="rgb(102,102,102)"  stroke="rgb(102,102,102)" stroke-width="1" font-size="16" >H</text>
<text x="238.194753" y="260.209926" fill="rgb(102,102,102)"  stroke="rgb(102,102,102)" stroke-width="1" font-size="13" >3</text>
<text x="244.694753" y="255.409926" fill="rgb(102,102,102)"  stroke="rgb(102,102,102)" stroke-width="1" font-size="16" >C</text>
<text x="263.259523" y="81.081444" fill="rgb(12,12,255)"  stroke="rgb(12,12,255)" stroke-width="1" font-size="16" >N</text>
<text x="205.612758" y="48.320000" fill="rgb(12,12,255)"  stroke="rgb(12,12,255)" stroke-width="1" font-size="16" >N</text>
<text x="169.577737" y="48.320000" fill="rgb(12,12,255)"  stroke="rgb(12,12,255)" stroke-width="1" font-size="16" >N</text>
<text x="100.369641" y="82.096230" fill="rgb(12,12,255)"  stroke="rgb(12,12,255)" stroke-width="1" font-size="16" >HN</text>
<text x="24.400000" y="82.096230" fill="rgb(255,12,12)"  stroke="rgb(255,12,12)" stroke-width="1" font-size="16" >HO</text>
<text x="16.400000" y="144.367869" fill="rgb(102,102,102)"  stroke="rgb(102,102,102)" stroke-width="1" font-size="16" >H</text>
<text x="28.400000" y="149.167869" fill="rgb(102,102,102)"  stroke="rgb(102,102,102)" stroke-width="1" font-size="13" >3</text>
<text x="34.900000" y="144.367869" fill="rgb(102,102,102)"  stroke="rgb(102,102,102)" stroke-width="1" font-size="16" >C</text>
<text x="200.073557" y="171.834905" fill="rgb(255,12,12)"  stroke="rgb(255,12,12)" stroke-width="1" font-size="16" >O</text>
<text x="149.577737" y="225.292136" fill="rgb(102,102,102)"  stroke="rgb(102,102,102)" stroke-width="1" font-size="16" >H</text>
<text x="161.577737" y="230.092136" fill="rgb(102,102,102)"  stroke="rgb(102,102,102)" stroke-width="1" font-size="13" >3</text>
<text x="168.077737" y="225.292136" fill="rgb(102,102,102)"  stroke="rgb(102,102,102)" stroke-width="1" font-size="16" >C</text>
<text x="232.969376" y="225.292136" fill="rgb(102,102,102)"  stroke="rgb(102,102,102)" stroke-width="1" font-size="16" >CH</text>
<text x="256.969376" y="230.092136" fill="rgb(102,102,102)"  stroke="rgb(102,102,102)" stroke-width="1" font-size="13" >3</text>
<text x="250.036247" y="106.537675" fill="rgb(255,0,0)"  stroke="rgb(255,0,0)" stroke-width="1" font-size="12" >1</text>
<text x="270.569822" y="142.659500" fill="rgb(255,0,0)"  stroke="rgb(255,0,0)" stroke-width="1" font-size="12" >2</text>
<text x="249.794753" y="178.642976" fill="rgb(255,0,0)"  stroke="rgb(255,0,0)" stroke-width="1" font-size="12" >3</text>
<text x="270.569822" y="214.626451" fill="rgb(255,0,0)"  stroke="rgb(255,0,0)" stroke-width="1" font-size="12" >4</text>
<text x="249.794753" y="250.609926" fill="rgb(255,0,0)"  stroke="rgb(255,0,0)" stroke-width="1" font-size="12" >5</text>
<text x="269.259523" y="72.761444" fill="rgb(255,0,0)"  stroke="rgb(255,0,0)" stroke-width="1" font-size="12" >6</text>
<text x="250.036247" y="40.000000" fill="rgb(255,0,0)"  stroke="rgb(255,0,0)" stroke-width="1" font-size="12" >7</text>
<text x="211.612758" y="40.000000" fill="rgb(255,0,0)"  stroke="rgb(255,0,0)" stroke-width="1" font-size="12" >8</text>
<text x="173.177737" y="40.000000" fill="rgb(255,0,0)"  stroke="rgb(255,0,0)" stroke-width="1" font-size="12" >9</text>
<text x="153.954461" y="73.776230" fill="rgb(255,0,0)"  stroke="rgb(255,0,0)" stroke-width="1" font-size="12" >10</text>
<text x="115.969641" y="73.776230" fill="rgb(255,0,0)"  stroke="rgb(255,0,0)" stroke-width="1" font-size="12" >11</text>
<text x="96.977231" y="106.672050" fill="rgb(255,0,0)"  stroke="rgb(255,0,0)" stroke-width="1" font-size="12" >12</text>
<text x="58.992410" y="106.672050" fill="rgb(255,0,0)"  stroke="rgb(255,0,0)" stroke-width="1" font-size="12" >13</text>
<text x="40.000000" y="73.776230" fill="rgb(255,0,0)"  stroke="rgb(255,0,0)" stroke-width="1" font-size="12" >14</text>
<text x="40.000000" y="139.567869" fill="rgb(255,0,0)"  stroke="rgb(255,0,0)" stroke-width="1" font-size="12" >15</text>
<text x="173.177737" y="106.537675" fill="rgb(255,0,0)"  stroke="rgb(255,0,0)" stroke-width="1" font-size="12" >16</text>
<text x="173.177737" y="144.522495" fill="rgb(255,0,0)"  stroke="rgb(255,0,0)" stroke-width="1" font-size="12" >17</text>
<text x="206.073557" y="163.514905" fill="rgb(255,0,0)"  stroke="rgb(255,0,0)" stroke-width="1" font-size="12" >18</text>
<text x="206.073557" y="201.499726" fill="rgb(255,0,0)"  stroke="rgb(255,0,0)" stroke-width="1" font-size="12" >19</text>
<text x="173.177737" y="220.492136" fill="rgb(255,0,0)"  stroke="rgb(255,0,0)" stroke-width="1" font-size="12" >20</text>
<text x="238.969376" y="220.492136" fill="rgb(255,0,0)"  stroke="rgb(255,0,0)" stroke-width="1" font-size="12" >21</text>
<text x="211.612758" y="106.537675" fill="rgb(255,0,0)"  stroke="rgb(255,0,0)" stroke-width="1" font-size="12" >22</text>
<text font-size="18.000000" fill ="black" font-family="sans-serif"
x="140.000000" y="20.000000" ></text>
<title> - OBDepict</title>
</svg>
