<?xml version="1.0"?>
<svg xmlns="http://www.w3.org/2000/svg"
xmlns:xlink="http://www.w3.org/1999/xlink" xmlns:cml="http://www.xml-cml.org/schema" x="0" y="0" font-family="sans-serif" stroke="rgb(0,0,0)" stroke-width="1" viewBox="0 0 364.529 252.794" width="291.6232" height="202.2352">
<line x1="309.5" y1="115.1" x2="324.5" y2="141.6"/>
<line x1="324.5" y1="141.6" x2="309.3" y2="167.9"/>
<line x1="309.3" y1="186.4" x2="319.2" y2="203.5"/>
<line x1="209.1" y1="73.4" x2="171.6" y2="73.4"/>
<line x1="171.6" y1="73.4" x2="152.8" y2="106.0"/>
<line x1="152.8" y1="106.0" x2="115.2" y2="106.0"/>
<line x1="115.2" y1="106.0" x2="96.4" y2="138.5"/>
<line x1="96.4" y1="138.5" x2="68.6" y2="138.5"/>
<line x1="53.9" y1="147.0" x2="44.9" y2="162.6"/>
<line x1="228.2" y1="105.8" x2="212.8" y2="132.1"/>
<line x1="309.2" y1="97.1" x2="318.3" y2="81.1"/>
<line x1="318.3" y1="64.0" x2="304.2" y2="40.0"/>
<line x1="310.9" y1="65.7" x2="301.0" y2="48.8"/>
<line x1="304.2" y1="40.0" x2="276.1" y2="40.0"/>
<line x1="266.2" y1="57.1" x2="266.2" y2="105.8"/>
<line x1="266.2" y1="105.8" x2="294.3" y2="105.8"/>
<line x1="223.2" y1="48.7" x2="209.1" y2="73.4"/>
<line x1="228.4" y1="54.1" x2="218.4" y2="71.8"/>
<line x1="209.1" y1="73.4" x2="228.2" y2="105.8"/>
<line x1="228.2" y1="105.8" x2="266.2" y2="105.8"/>
<line x1="256.3" y1="40.0" x2="238.0" y2="40.0"/>
<text x="300.611199" y="114.159369" fill="rgb(12,12,255)"  stroke="rgb(12,12,255)" stroke-width="1" font-size="16" >N</text>
<text x="288.372239" y="181.987932" fill="rgb(12,12,255)"  stroke="rgb(12,12,255)" stroke-width="1" font-size="16" >HN</text>
<text x="318.529275" y="217.593764" fill="rgb(102,102,102)"  stroke="rgb(102,102,102)" stroke-width="1" font-size="16" >CH</text>
<text x="342.529275" y="222.393764" fill="rgb(102,102,102)"  stroke="rgb(102,102,102)" stroke-width="1" font-size="13" >3</text>
<text x="317.232728" y="80.737616" fill="rgb(12,12,255)"  stroke="rgb(12,12,255)" stroke-width="1" font-size="16" >N</text>
<text x="260.190960" y="48.320000" fill="rgb(12,12,255)"  stroke="rgb(12,12,255)" stroke-width="1" font-size="16" >N</text>
<text x="224.559311" y="48.320000" fill="rgb(12,12,255)"  stroke="rgb(12,12,255)" stroke-width="1" font-size="16" >N</text>
<text x="43.193087" y="146.842915" fill="rgb(12,12,255)"  stroke="rgb(12,12,255)" stroke-width="1" font-size="16" >HN</text>
<text x="16.400000" y="175.873496" fill="rgb(102,102,102)"  stroke="rgb(102,102,102)" stroke-width="1" font-size="16" >H</text>
<text x="28.400000" y="180.673496" fill="rgb(102,102,102)"  stroke="rgb(102,102,102)" stroke-width="1" font-size="13" >3</text>
<text x="34.900000" y="175.873496" fill="rgb(102,102,102)"  stroke="rgb(102,102,102)" stroke-width="1" font-size="16" >C</text>
<text x="191.761676" y="146.105203" fill="rgb(124,127,175)"  stroke="rgb(124,127,175)" stroke-width="1" font-size="16" >R</text>
<text x="304.211199" y="105.839369" fill="rgb(255,0,0)"  stroke="rgb(255,0,0)" stroke-width="1" font-size="12" >1</text>
<text x="324.529275" y="141.582099" fill="rgb(255,0,0)"  stroke="rgb(255,0,0)" stroke-width="1" font-size="12" >2</text>
<text x="303.972239" y="177.187932" fill="rgb(255,0,0)"  stroke="rgb(255,0,0)" stroke-width="1" font-size="12" >3</text>
<text x="324.529275" y="212.793764" fill="rgb(255,0,0)"  stroke="rgb(255,0,0)" stroke-width="1" font-size="12" >4</text>
<text x="323.232728" y="72.417616" fill="rgb(255,0,0)"  stroke="rgb(255,0,0)" stroke-width="1" font-size="12" >5</text>
<text x="304.211199" y="40.000000" fill="rgb(255,0,0)"  stroke="rgb(255,0,0)" stroke-width="1" font-size="12" >6</text>
<text x="266.190960" y="40.000000" fill="rgb(255,0,0)"  stroke="rgb(255,0,0)" stroke-width="1" font-size="12" >7</text>
<text x="228.159311" y="40.000000" fill="rgb(255,0,0)"  stroke="rgb(255,0,0)" stroke-width="1" font-size="12" >8</text>
<text x="209.137781" y="73.421752" fill="rgb(255,0,0)"  stroke="rgb(255,0,0)" stroke-width="1" font-size="12" >9</text>
<text x="171.551608" y="73.421752" fill="rgb(255,0,0)"  stroke="rgb(255,0,0)" stroke-width="1" font-size="12" >10</text>
<text x="152.758521" y="105.972333" fill="rgb(255,0,0)"  stroke="rgb(255,0,0)" stroke-width="1" font-size="12" >11</text>
<text x="115.172347" y="105.972333" fill="rgb(255,0,0)"  stroke="rgb(255,0,0)" stroke-width="1" font-size="12" >12</text>
<text x="96.379260" y="138.522915" fill="rgb(255,0,0)"  stroke="rgb(255,0,0)" stroke-width="1" font-size="12" >13</text>
<text x="58.793087" y="138.522915" fill="rgb(255,0,0)"  stroke="rgb(255,0,0)" stroke-width="1" font-size="12" >14</text>
<text x="40.000000" y="171.073496" fill="rgb(255,0,0)"  stroke="rgb(255,0,0)" stroke-width="1" font-size="12" >15</text>
<text x="228.159311" y="105.839369" fill="rgb(255,0,0)"  stroke="rgb(255,0,0)" stroke-width="1" font-size="12" >16</text>
<text x="207.361676" y="141.305203" fill="rgb(255,0,0)"  stroke="rgb(255,0,0)" stroke-width="1" font-size="12" >17</text>
<text x="266.190960" y="105.839369" fill="rgb(255,0,0)"  stroke="rgb(255,0,0)" stroke-width="1" font-size="12" >18</text>
<text font-size="18.000000" fill ="black" font-family="sans-serif"
x="140.000000" y="20.000000" ></text>
<title> - OBDepict</title>
</svg>
