<?xml version="1.0"?>
<svg xmlns="http://www.w3.org/2000/svg"
xmlns:xlink="http://www.w3.org/1999/xlink" xmlns:cml="http://www.xml-cml.org/schema" width="385.432" height="251.995" x="0" y="0" font-family="sans-serif" stroke="rgb(0,0,0)" stroke-width="1" >
<line x1="289.5" y1="114.8" x2="304.5" y2="141.1"/>
<line x1="304.5" y1="141.1" x2="334.8" y2="141.3"/>
<line x1="304.5" y1="141.1" x2="284.0" y2="176.6"/>
<line x1="284.0" y1="176.6" x2="299.2" y2="202.8"/>
<line x1="189.7" y1="73.3" x2="152.2" y2="73.3"/>
<line x1="152.2" y1="73.3" x2="133.5" y2="105.7"/>
<line x1="133.5" y1="105.7" x2="96.1" y2="105.7"/>
<line x1="96.1" y1="105.7" x2="77.4" y2="138.1"/>
<line x1="77.4" y1="138.1" x2="49.7" y2="138.1"/>
<line x1="208.6" y1="105.5" x2="193.3" y2="131.7"/>
<line x1="289.2" y1="96.9" x2="298.3" y2="80.9"/>
<line x1="298.3" y1="63.9" x2="284.3" y2="40.0"/>
<line x1="290.9" y1="65.6" x2="281.1" y2="48.8"/>
<line x1="284.3" y1="40.0" x2="256.3" y2="40.0"/>
<line x1="246.4" y1="57.0" x2="246.4" y2="105.5"/>
<line x1="246.4" y1="105.5" x2="274.4" y2="105.5"/>
<line x1="203.7" y1="48.6" x2="189.7" y2="73.3"/>
<line x1="208.8" y1="54.1" x2="198.9" y2="71.6"/>
<line x1="189.7" y1="73.3" x2="208.6" y2="105.5"/>
<line x1="208.6" y1="105.5" x2="246.4" y2="105.5"/>
<line x1="236.6" y1="40.0" x2="218.4" y2="40.0"/>
<text x="280.684151" y="113.855156" fill="rgb(12,12,255)"  stroke="rgb(12,12,255)" stroke-width="1" font-size="16" >N</text>
<text x="339.431535" y="146.186859" fill="rgb(255,12,12)"  stroke="rgb(255,12,12)" stroke-width="1" font-size="16" >OH</text>
<text x="298.508348" y="216.795366" fill="rgb(102,102,102)"  stroke="rgb(102,102,102)" stroke-width="1" font-size="16" >CH</text>
<text x="322.508348" y="221.595366" fill="rgb(102,102,102)"  stroke="rgb(102,102,102)" stroke-width="1" font-size="13" >3</text>
<text x="297.217792" y="80.587830" fill="rgb(12,12,255)"  stroke="rgb(12,12,255)" stroke-width="1" font-size="16" >N</text>
<text x="240.439586" y="48.320000" fill="rgb(12,12,255)"  stroke="rgb(12,12,255)" stroke-width="1" font-size="16" >N</text>
<text x="204.983663" y="48.320000" fill="rgb(12,12,255)"  stroke="rgb(12,12,255)" stroke-width="1" font-size="16" >N</text>
<text x="16.400000" y="142.867687" fill="rgb(102,102,102)"  stroke="rgb(102,102,102)" stroke-width="1" font-size="16" >H</text>
<text x="28.400000" y="147.667687" fill="rgb(102,102,102)"  stroke="rgb(102,102,102)" stroke-width="1" font-size="13" >3</text>
<text x="34.900000" y="142.867687" fill="rgb(102,102,102)"  stroke="rgb(102,102,102)" stroke-width="1" font-size="16" >C</text>
<text x="172.282124" y="145.637120" fill="rgb(124,127,175)"  stroke="rgb(124,127,175)" stroke-width="1" font-size="16" >R</text>
<text x="284.284151" y="105.535156" fill="rgb(255,0,0)"  stroke="rgb(255,0,0)" stroke-width="1" font-size="12" >1</text>
<text x="304.508348" y="141.112737" fill="rgb(255,0,0)"  stroke="rgb(255,0,0)" stroke-width="1" font-size="12" >2</text>
<text x="345.431535" y="141.386859" fill="rgb(255,0,0)"  stroke="rgb(255,0,0)" stroke-width="1" font-size="12" >3</text>
<text x="284.046295" y="176.554051" fill="rgb(255,0,0)"  stroke="rgb(255,0,0)" stroke-width="1" font-size="12" >4</text>
<text x="304.508348" y="211.995366" fill="rgb(255,0,0)"  stroke="rgb(255,0,0)" stroke-width="1" font-size="12" >5</text>
<text x="303.217792" y="72.267830" fill="rgb(255,0,0)"  stroke="rgb(255,0,0)" stroke-width="1" font-size="12" >6</text>
<text x="284.284151" y="40.000000" fill="rgb(255,0,0)"  stroke="rgb(255,0,0)" stroke-width="1" font-size="12" >7</text>
<text x="246.439586" y="40.000000" fill="rgb(255,0,0)"  stroke="rgb(255,0,0)" stroke-width="1" font-size="12" >8</text>
<text x="208.583663" y="40.000000" fill="rgb(255,0,0)"  stroke="rgb(255,0,0)" stroke-width="1" font-size="12" >9</text>
<text x="189.650023" y="73.267326" fill="rgb(255,0,0)"  stroke="rgb(255,0,0)" stroke-width="1" font-size="12" >10</text>
<text x="152.237517" y="73.267326" fill="rgb(255,0,0)"  stroke="rgb(255,0,0)" stroke-width="1" font-size="12" >11</text>
<text x="133.531264" y="105.667507" fill="rgb(255,0,0)"  stroke="rgb(255,0,0)" stroke-width="1" font-size="12" >12</text>
<text x="96.118759" y="105.667507" fill="rgb(255,0,0)"  stroke="rgb(255,0,0)" stroke-width="1" font-size="12" >13</text>
<text x="77.412506" y="138.067687" fill="rgb(255,0,0)"  stroke="rgb(255,0,0)" stroke-width="1" font-size="12" >14</text>
<text x="40.000000" y="138.067687" fill="rgb(255,0,0)"  stroke="rgb(255,0,0)" stroke-width="1" font-size="12" >15</text>
<text x="208.583663" y="105.535156" fill="rgb(255,0,0)"  stroke="rgb(255,0,0)" stroke-width="1" font-size="12" >16</text>
<text x="187.882124" y="140.837120" fill="rgb(255,0,0)"  stroke="rgb(255,0,0)" stroke-width="1" font-size="12" >17</text>
<text x="246.439586" y="105.535156" fill="rgb(255,0,0)"  stroke="rgb(255,0,0)" stroke-width="1" font-size="12" >18</text>
<text font-size="18.000000" fill ="black" font-family="sans-serif"
x="140.000000" y="20.000000" ></text>
<title> - OBDepict</title>
</svg>
