<?xml version="1.0"?>
<svg xmlns="http://www.w3.org/2000/svg"
xmlns:xlink="http://www.w3.org/1999/xlink" xmlns:cml="http://www.xml-cml.org/schema" x="0" y="0" font-family="sans-serif" stroke="rgb(0,0,0)" stroke-width="1" viewBox="0 0 532.297 256.662" width="425.8376" height="205.3296">
<line x1="312.1" y1="115.9" x2="327.2" y2="142.6"/>
<line x1="327.2" y1="142.6" x2="368.8" y2="143.1"/>
<line x1="368.8" y1="143.1" x2="389.0" y2="179.3"/>
<line x1="389.0" y1="179.3" x2="430.5" y2="179.9"/>
<line x1="430.5" y1="179.9" x2="445.5" y2="206.7"/>
<line x1="461.6" y1="216.3" x2="481.5" y2="216.5"/>
<line x1="210.8" y1="73.7" x2="172.8" y2="73.7"/>
<line x1="172.8" y1="73.7" x2="153.8" y2="106.6"/>
<line x1="153.8" y1="106.6" x2="115.9" y2="106.6"/>
<line x1="115.9" y1="106.6" x2="96.9" y2="139.5"/>
<line x1="96.9" y1="139.5" x2="68.8" y2="139.5"/>
<line x1="54.0" y1="148.0" x2="44.9" y2="163.8"/>
<line x1="230.0" y1="106.5" x2="230.0" y2="144.4"/>
<line x1="230.0" y1="144.4" x2="262.8" y2="163.4"/>
<line x1="265.8" y1="163.4" x2="265.8" y2="191.5"/>
<line x1="259.8" y1="163.4" x2="259.8" y2="191.5"/>
<line x1="262.8" y1="163.4" x2="295.7" y2="144.4"/>
<line x1="295.7" y1="144.4" x2="320.0" y2="158.5"/>
<line x1="311.7" y1="97.7" x2="320.9" y2="81.5"/>
<line x1="320.9" y1="64.2" x2="306.7" y2="40.0"/>
<line x1="313.6" y1="66.0" x2="303.6" y2="48.8"/>
<line x1="306.7" y1="40.0" x2="278.3" y2="40.0"/>
<line x1="268.4" y1="57.3" x2="268.4" y2="106.5"/>
<line x1="268.4" y1="106.5" x2="296.8" y2="106.5"/>
<line x1="225.0" y1="48.8" x2="210.8" y2="73.7"/>
<line x1="230.2" y1="54.2" x2="220.0" y2="72.1"/>
<line x1="210.8" y1="73.7" x2="230.0" y2="106.5"/>
<line x1="230.0" y1="106.5" x2="268.4" y2="106.5"/>
<line x1="258.4" y1="40.0" x2="239.9" y2="40.0"/>
<text x="303.135176" y="114.788324" fill="rgb(12,12,255)"  stroke="rgb(12,12,255)" stroke-width="1" font-size="16" >N</text>
<text x="435.193583" y="220.906107" fill="rgb(12,12,255)"  stroke="rgb(12,12,255)" stroke-width="1" font-size="16" >HN</text>
<text x="486.296689" y="221.462146" fill="rgb(102,102,102)"  stroke="rgb(102,102,102)" stroke-width="1" font-size="16" >CH</text>
<text x="510.296689" y="226.262146" fill="rgb(102,102,102)"  stroke="rgb(102,102,102)" stroke-width="1" font-size="13" >3</text>
<text x="319.938416" y="81.047298" fill="rgb(12,12,255)"  stroke="rgb(12,12,255)" stroke-width="1" font-size="16" >N</text>
<text x="262.351735" y="48.320000" fill="rgb(12,12,255)"  stroke="rgb(12,12,255)" stroke-width="1" font-size="16" >N</text>
<text x="226.356774" y="48.320000" fill="rgb(12,12,255)"  stroke="rgb(12,12,255)" stroke-width="1" font-size="16" >N</text>
<text x="43.372615" y="147.784092" fill="rgb(12,12,255)"  stroke="rgb(12,12,255)" stroke-width="1" font-size="16" >HN</text>
<text x="16.400000" y="177.125625" fill="rgb(102,102,102)"  stroke="rgb(102,102,102)" stroke-width="1" font-size="16" >H</text>
<text x="28.400000" y="181.925625" fill="rgb(102,102,102)"  stroke="rgb(102,102,102)" stroke-width="1" font-size="13" >3</text>
<text x="34.900000" y="177.125625" fill="rgb(102,102,102)"  stroke="rgb(102,102,102)" stroke-width="1" font-size="16" >C</text>
<text x="256.818307" y="206.131398" fill="rgb(255,12,12)"  stroke="rgb(255,12,12)" stroke-width="1" font-size="16" >O</text>
<text x="322.541373" y="168.186169" fill="rgb(102,102,102)"  stroke="rgb(102,102,102)" stroke-width="1" font-size="16" >CH</text>
<text x="346.541373" y="172.986169" fill="rgb(102,102,102)"  stroke="rgb(102,102,102)" stroke-width="1" font-size="13" >3</text>
<text x="306.735176" y="106.468324" fill="rgb(255,0,0)"  stroke="rgb(255,0,0)" stroke-width="1" font-size="12" >1</text>
<text x="327.247349" y="142.552501" fill="rgb(255,0,0)"  stroke="rgb(255,0,0)" stroke-width="1" font-size="12" >2</text>
<text x="368.750456" y="143.108540" fill="rgb(255,0,0)"  stroke="rgb(255,0,0)" stroke-width="1" font-size="12" >3</text>
<text x="389.020466" y="179.329304" fill="rgb(255,0,0)"  stroke="rgb(255,0,0)" stroke-width="1" font-size="12" >4</text>
<text x="430.523573" y="179.885343" fill="rgb(255,0,0)"  stroke="rgb(255,0,0)" stroke-width="1" font-size="12" >5</text>
<text x="450.793583" y="216.106107" fill="rgb(255,0,0)"  stroke="rgb(255,0,0)" stroke-width="1" font-size="12" >6</text>
<text x="492.296689" y="216.662146" fill="rgb(255,0,0)"  stroke="rgb(255,0,0)" stroke-width="1" font-size="12" >7</text>
<text x="325.938416" y="72.727298" fill="rgb(255,0,0)"  stroke="rgb(255,0,0)" stroke-width="1" font-size="12" >8</text>
<text x="306.735176" y="40.000000" fill="rgb(255,0,0)"  stroke="rgb(255,0,0)" stroke-width="1" font-size="12" >9</text>
<text x="268.351735" y="40.000000" fill="rgb(255,0,0)"  stroke="rgb(255,0,0)" stroke-width="1" font-size="12" >10</text>
<text x="229.956774" y="40.000000" fill="rgb(255,0,0)"  stroke="rgb(255,0,0)" stroke-width="1" font-size="12" >11</text>
<text x="210.753534" y="73.741026" fill="rgb(255,0,0)"  stroke="rgb(255,0,0)" stroke-width="1" font-size="12" >12</text>
<text x="172.808304" y="73.741026" fill="rgb(255,0,0)"  stroke="rgb(255,0,0)" stroke-width="1" font-size="12" >13</text>
<text x="153.835689" y="106.602559" fill="rgb(255,0,0)"  stroke="rgb(255,0,0)" stroke-width="1" font-size="12" >14</text>
<text x="115.890460" y="106.602559" fill="rgb(255,0,0)"  stroke="rgb(255,0,0)" stroke-width="1" font-size="12" >15</text>
<text x="96.917845" y="139.464092" fill="rgb(255,0,0)"  stroke="rgb(255,0,0)" stroke-width="1" font-size="12" >16</text>
<text x="58.972615" y="139.464092" fill="rgb(255,0,0)"  stroke="rgb(255,0,0)" stroke-width="1" font-size="12" >17</text>
<text x="40.000000" y="172.325625" fill="rgb(255,0,0)"  stroke="rgb(255,0,0)" stroke-width="1" font-size="12" >18</text>
<text x="229.956774" y="106.468324" fill="rgb(255,0,0)"  stroke="rgb(255,0,0)" stroke-width="1" font-size="12" >19</text>
<text x="229.956774" y="144.413554" fill="rgb(255,0,0)"  stroke="rgb(255,0,0)" stroke-width="1" font-size="12" >20</text>
<text x="262.818307" y="163.386169" fill="rgb(255,0,0)"  stroke="rgb(255,0,0)" stroke-width="1" font-size="12" >21</text>
<text x="262.818307" y="201.331398" fill="rgb(255,0,0)"  stroke="rgb(255,0,0)" stroke-width="1" font-size="12" >22</text>
<text x="295.679840" y="144.413554" fill="rgb(255,0,0)"  stroke="rgb(255,0,0)" stroke-width="1" font-size="12" >23</text>
<text x="328.541373" y="163.386169" fill="rgb(255,0,0)"  stroke="rgb(255,0,0)" stroke-width="1" font-size="12" >24</text>
<text x="268.351735" y="106.468324" fill="rgb(255,0,0)"  stroke="rgb(255,0,0)" stroke-width="1" font-size="12" >25</text>
<text font-size="18.000000" fill ="black" font-family="sans-serif"
x="140.000000" y="20.000000" ></text>
<title> - OBDepict</title>
</svg>
