<?xml version="1.0"?>
<svg xmlns="http://www.w3.org/2000/svg"
xmlns:xlink="http://www.w3.org/1999/xlink" xmlns:cml="http://www.xml-cml.org/schema" width="366.89" height="290.129" x="0" y="0" font-family="sans-serif" stroke="rgb(0,0,0)" stroke-width="1" >
<line x1="311.7" y1="115.8" x2="326.9" y2="142.4"/>
<line x1="326.9" y1="142.4" x2="306.2" y2="178.3"/>
<line x1="306.2" y1="178.3" x2="321.5" y2="204.9"/>
<line x1="321.5" y1="223.6" x2="311.6" y2="240.8"/>
<line x1="210.5" y1="73.7" x2="172.6" y2="73.7"/>
<line x1="172.6" y1="73.7" x2="153.7" y2="106.5"/>
<line x1="153.7" y1="106.5" x2="115.8" y2="106.5"/>
<line x1="115.8" y1="106.5" x2="96.8" y2="139.3"/>
<line x1="96.8" y1="139.3" x2="68.8" y2="139.3"/>
<line x1="54.0" y1="147.9" x2="44.9" y2="163.6"/>
<line x1="229.7" y1="106.4" x2="229.7" y2="134.4"/>
<line x1="238.3" y1="149.2" x2="262.5" y2="163.2"/>
<line x1="262.5" y1="163.2" x2="262.5" y2="191.3"/>
<line x1="311.4" y1="97.6" x2="320.6" y2="81.4"/>
<line x1="320.6" y1="64.2" x2="306.4" y2="40.0"/>
<line x1="313.3" y1="65.9" x2="303.2" y2="48.8"/>
<line x1="306.4" y1="40.0" x2="278.0" y2="40.0"/>
<line x1="268.1" y1="57.3" x2="268.1" y2="106.4"/>
<line x1="268.1" y1="106.4" x2="296.4" y2="106.4"/>
<line x1="224.7" y1="48.8" x2="210.5" y2="73.7"/>
<line x1="229.9" y1="54.2" x2="219.8" y2="72.0"/>
<line x1="210.5" y1="73.7" x2="229.7" y2="106.4"/>
<line x1="229.7" y1="106.4" x2="268.1" y2="106.4"/>
<line x1="258.1" y1="40.0" x2="239.7" y2="40.0"/>
<text x="302.803420" y="114.705653" fill="rgb(12,12,255)"  stroke="rgb(12,12,255)" stroke-width="1" font-size="16" >N</text>
<text x="320.890081" y="219.027474" fill="rgb(12,12,255)"  stroke="rgb(12,12,255)" stroke-width="1" font-size="16" >NH</text>
<text x="282.562477" y="254.928736" fill="rgb(102,102,102)"  stroke="rgb(102,102,102)" stroke-width="1" font-size="16" >H</text>
<text x="294.562477" y="259.728736" fill="rgb(102,102,102)"  stroke="rgb(102,102,102)" stroke-width="1" font-size="13" >3</text>
<text x="301.062477" y="254.928736" fill="rgb(102,102,102)"  stroke="rgb(102,102,102)" stroke-width="1" font-size="16" >C</text>
<text x="319.582776" y="81.006593" fill="rgb(12,12,255)"  stroke="rgb(12,12,255)" stroke-width="1" font-size="16" >N</text>
<text x="262.067719" y="48.320000" fill="rgb(12,12,255)"  stroke="rgb(12,12,255)" stroke-width="1" font-size="16" >N</text>
<text x="226.120512" y="48.320000" fill="rgb(12,12,255)"  stroke="rgb(12,12,255)" stroke-width="1" font-size="16" >N</text>
<text x="43.349017" y="147.660382" fill="rgb(12,12,255)"  stroke="rgb(12,12,255)" stroke-width="1" font-size="16" >HN</text>
<text x="16.400000" y="176.961043" fill="rgb(102,102,102)"  stroke="rgb(102,102,102)" stroke-width="1" font-size="16" >H</text>
<text x="28.400000" y="181.761043" fill="rgb(102,102,102)"  stroke="rgb(102,102,102)" stroke-width="1" font-size="13" >3</text>
<text x="34.900000" y="176.961043" fill="rgb(102,102,102)"  stroke="rgb(102,102,102)" stroke-width="1" font-size="16" >C</text>
<text x="214.120512" y="149.083688" fill="rgb(12,12,255)"  stroke="rgb(12,12,255)" stroke-width="1" font-size="16" >HN</text>
<text x="256.541173" y="205.930740" fill="rgb(102,102,102)"  stroke="rgb(102,102,102)" stroke-width="1" font-size="16" >CH</text>
<text x="280.541173" y="210.730740" fill="rgb(102,102,102)"  stroke="rgb(102,102,102)" stroke-width="1" font-size="13" >3</text>
<text x="306.403420" y="106.385653" fill="rgb(255,0,0)"  stroke="rgb(255,0,0)" stroke-width="1" font-size="12" >1</text>
<text x="326.890081" y="142.424950" fill="rgb(255,0,0)"  stroke="rgb(255,0,0)" stroke-width="1" font-size="12" >2</text>
<text x="306.162477" y="178.326212" fill="rgb(255,0,0)"  stroke="rgb(255,0,0)" stroke-width="1" font-size="12" >3</text>
<text x="326.890081" y="214.227474" fill="rgb(255,0,0)"  stroke="rgb(255,0,0)" stroke-width="1" font-size="12" >4</text>
<text x="306.162477" y="250.128736" fill="rgb(255,0,0)"  stroke="rgb(255,0,0)" stroke-width="1" font-size="12" >5</text>
<text x="325.582776" y="72.686593" fill="rgb(255,0,0)"  stroke="rgb(255,0,0)" stroke-width="1" font-size="12" >6</text>
<text x="306.403420" y="40.000000" fill="rgb(255,0,0)"  stroke="rgb(255,0,0)" stroke-width="1" font-size="12" >7</text>
<text x="268.067719" y="40.000000" fill="rgb(255,0,0)"  stroke="rgb(255,0,0)" stroke-width="1" font-size="12" >8</text>
<text x="229.720512" y="40.000000" fill="rgb(255,0,0)"  stroke="rgb(255,0,0)" stroke-width="1" font-size="12" >9</text>
<text x="210.541156" y="73.699060" fill="rgb(255,0,0)"  stroke="rgb(255,0,0)" stroke-width="1" font-size="12" >10</text>
<text x="172.643122" y="73.699060" fill="rgb(255,0,0)"  stroke="rgb(255,0,0)" stroke-width="1" font-size="12" >11</text>
<text x="153.694104" y="106.519721" fill="rgb(255,0,0)"  stroke="rgb(255,0,0)" stroke-width="1" font-size="12" >12</text>
<text x="115.796070" y="106.519721" fill="rgb(255,0,0)"  stroke="rgb(255,0,0)" stroke-width="1" font-size="12" >13</text>
<text x="96.847052" y="139.340382" fill="rgb(255,0,0)"  stroke="rgb(255,0,0)" stroke-width="1" font-size="12" >14</text>
<text x="58.949017" y="139.340382" fill="rgb(255,0,0)"  stroke="rgb(255,0,0)" stroke-width="1" font-size="12" >15</text>
<text x="40.000000" y="172.161043" fill="rgb(255,0,0)"  stroke="rgb(255,0,0)" stroke-width="1" font-size="12" >16</text>
<text x="229.720512" y="106.385653" fill="rgb(255,0,0)"  stroke="rgb(255,0,0)" stroke-width="1" font-size="12" >17</text>
<text x="229.720512" y="144.283688" fill="rgb(255,0,0)"  stroke="rgb(255,0,0)" stroke-width="1" font-size="12" >18</text>
<text x="262.541173" y="163.232705" fill="rgb(255,0,0)"  stroke="rgb(255,0,0)" stroke-width="1" font-size="12" >19</text>
<text x="262.541173" y="201.130740" fill="rgb(255,0,0)"  stroke="rgb(255,0,0)" stroke-width="1" font-size="12" >20</text>
<text x="268.067719" y="106.385653" fill="rgb(255,0,0)"  stroke="rgb(255,0,0)" stroke-width="1" font-size="12" >21</text>
<text font-size="18.000000" fill ="black" font-family="sans-serif"
x="140.000000" y="20.000000" ></text>
<title> - OBDepict</title>
</svg>
