<?xml version="1.0"?>
<svg xmlns="http://www.w3.org/2000/svg"
xmlns:xlink="http://www.w3.org/1999/xlink" xmlns:cml="http://www.xml-cml.org/schema" width="390.756" height="317.969" x="0" y="0" font-family="sans-serif" stroke="rgb(0,0,0)" stroke-width="1" >
<line x1="293.9" y1="116.1" x2="309.1" y2="142.9"/>
<line x1="309.1" y1="142.9" x2="339.9" y2="143.1"/>
<line x1="309.1" y1="142.9" x2="288.3" y2="178.9"/>
<line x1="288.3" y1="178.9" x2="303.7" y2="205.6"/>
<line x1="192.3" y1="73.8" x2="154.2" y2="73.8"/>
<line x1="154.2" y1="73.8" x2="135.2" y2="106.8"/>
<line x1="135.2" y1="106.8" x2="97.1" y2="106.8"/>
<line x1="97.1" y1="106.8" x2="78.1" y2="139.8"/>
<line x1="78.1" y1="139.8" x2="49.9" y2="139.8"/>
<line x1="211.5" y1="106.7" x2="211.5" y2="144.7"/>
<line x1="211.5" y1="144.7" x2="244.5" y2="163.8"/>
<line x1="244.5" y1="163.8" x2="244.5" y2="201.8"/>
<line x1="244.5" y1="201.8" x2="277.5" y2="220.9"/>
<line x1="277.5" y1="220.9" x2="277.5" y2="249.0"/>
<line x1="286.0" y1="263.9" x2="301.8" y2="273.0"/>
<line x1="293.6" y1="97.9" x2="302.8" y2="81.6"/>
<line x1="302.8" y1="64.3" x2="288.5" y2="40.0"/>
<line x1="295.5" y1="66.0" x2="285.4" y2="48.8"/>
<line x1="288.5" y1="40.0" x2="260.0" y2="40.0"/>
<line x1="250.0" y1="57.3" x2="250.0" y2="106.7"/>
<line x1="250.0" y1="106.7" x2="278.5" y2="106.7"/>
<line x1="206.5" y1="48.8" x2="192.3" y2="73.8"/>
<line x1="211.7" y1="54.2" x2="201.5" y2="72.2"/>
<line x1="192.3" y1="73.8" x2="211.5" y2="106.7"/>
<line x1="211.5" y1="106.7" x2="250.0" y2="106.7"/>
<line x1="240.0" y1="40.0" x2="221.5" y2="40.0"/>
<text x="284.942795" y="114.997641" fill="rgb(12,12,255)"  stroke="rgb(12,12,255)" stroke-width="1" font-size="16" >N</text>
<text x="344.756170" y="147.954352" fill="rgb(255,12,12)"  stroke="rgb(255,12,12)" stroke-width="1" font-size="16" >OH</text>
<text x="303.119563" y="219.793788" fill="rgb(102,102,102)"  stroke="rgb(102,102,102)" stroke-width="1" font-size="16" >CH</text>
<text x="327.119563" y="224.593788" fill="rgb(102,102,102)"  stroke="rgb(102,102,102)" stroke-width="1" font-size="13" >3</text>
<text x="301.806508" y="81.150360" fill="rgb(12,12,255)"  stroke="rgb(12,12,255)" stroke-width="1" font-size="16" >N</text>
<text x="244.038480" y="48.320000" fill="rgb(12,12,255)"  stroke="rgb(12,12,255)" stroke-width="1" font-size="16" >N</text>
<text x="207.922609" y="48.320000" fill="rgb(12,12,255)"  stroke="rgb(12,12,255)" stroke-width="1" font-size="16" >N</text>
<text x="16.400000" y="144.577316" fill="rgb(102,102,102)"  stroke="rgb(102,102,102)" stroke-width="1" font-size="16" >H</text>
<text x="28.400000" y="149.377316" fill="rgb(102,102,102)"  stroke="rgb(102,102,102)" stroke-width="1" font-size="13" >3</text>
<text x="34.900000" y="144.577316" fill="rgb(102,102,102)"  stroke="rgb(102,102,102)" stroke-width="1" font-size="16" >C</text>
<text x="261.852644" y="263.736536" fill="rgb(12,12,255)"  stroke="rgb(12,12,255)" stroke-width="1" font-size="16" >HN</text>
<text x="304.417662" y="282.768898" fill="rgb(102,102,102)"  stroke="rgb(102,102,102)" stroke-width="1" font-size="16" >CH</text>
<text x="328.417662" y="287.568898" fill="rgb(102,102,102)"  stroke="rgb(102,102,102)" stroke-width="1" font-size="13" >3</text>
<text x="288.542795" y="106.677641" fill="rgb(255,0,0)"  stroke="rgb(255,0,0)" stroke-width="1" font-size="12" >1</text>
<text x="309.119563" y="142.875451" fill="rgb(255,0,0)"  stroke="rgb(255,0,0)" stroke-width="1" font-size="12" >2</text>
<text x="350.756170" y="143.154352" fill="rgb(255,0,0)"  stroke="rgb(255,0,0)" stroke-width="1" font-size="12" >3</text>
<text x="288.300792" y="178.934620" fill="rgb(255,0,0)"  stroke="rgb(255,0,0)" stroke-width="1" font-size="12" >4</text>
<text x="309.119563" y="214.993788" fill="rgb(255,0,0)"  stroke="rgb(255,0,0)" stroke-width="1" font-size="12" >5</text>
<text x="307.806508" y="72.830360" fill="rgb(255,0,0)"  stroke="rgb(255,0,0)" stroke-width="1" font-size="12" >6</text>
<text x="288.542795" y="40.000000" fill="rgb(255,0,0)"  stroke="rgb(255,0,0)" stroke-width="1" font-size="12" >7</text>
<text x="250.038480" y="40.000000" fill="rgb(255,0,0)"  stroke="rgb(255,0,0)" stroke-width="1" font-size="12" >8</text>
<text x="211.522609" y="40.000000" fill="rgb(255,0,0)"  stroke="rgb(255,0,0)" stroke-width="1" font-size="12" >9</text>
<text x="192.258895" y="73.847281" fill="rgb(255,0,0)"  stroke="rgb(255,0,0)" stroke-width="1" font-size="12" >10</text>
<text x="154.194171" y="73.847281" fill="rgb(255,0,0)"  stroke="rgb(255,0,0)" stroke-width="1" font-size="12" >11</text>
<text x="135.161809" y="106.812298" fill="rgb(255,0,0)"  stroke="rgb(255,0,0)" stroke-width="1" font-size="12" >12</text>
<text x="97.097086" y="106.812298" fill="rgb(255,0,0)"  stroke="rgb(255,0,0)" stroke-width="1" font-size="12" >13</text>
<text x="78.064724" y="139.777316" fill="rgb(255,0,0)"  stroke="rgb(255,0,0)" stroke-width="1" font-size="12" >14</text>
<text x="40.000000" y="139.777316" fill="rgb(255,0,0)"  stroke="rgb(255,0,0)" stroke-width="1" font-size="12" >15</text>
<text x="211.522609" y="106.677641" fill="rgb(255,0,0)"  stroke="rgb(255,0,0)" stroke-width="1" font-size="12" >16</text>
<text x="211.522609" y="144.742364" fill="rgb(255,0,0)"  stroke="rgb(255,0,0)" stroke-width="1" font-size="12" >17</text>
<text x="244.487626" y="163.774726" fill="rgb(255,0,0)"  stroke="rgb(255,0,0)" stroke-width="1" font-size="12" >18</text>
<text x="244.487626" y="201.839450" fill="rgb(255,0,0)"  stroke="rgb(255,0,0)" stroke-width="1" font-size="12" >19</text>
<text x="277.452644" y="220.871812" fill="rgb(255,0,0)"  stroke="rgb(255,0,0)" stroke-width="1" font-size="12" >20</text>
<text x="277.452644" y="258.936536" fill="rgb(255,0,0)"  stroke="rgb(255,0,0)" stroke-width="1" font-size="12" >21</text>
<text x="310.417662" y="277.968898" fill="rgb(255,0,0)"  stroke="rgb(255,0,0)" stroke-width="1" font-size="12" >22</text>
<text x="250.038480" y="106.677641" fill="rgb(255,0,0)"  stroke="rgb(255,0,0)" stroke-width="1" font-size="12" >23</text>
<text font-size="18.000000" fill ="black" font-family="sans-serif"
x="140.000000" y="20.000000" ></text>
<title> - OBDepict</title>
</svg>
