<?xml version="1.0"?>
<svg xmlns="http://www.w3.org/2000/svg"
xmlns:xlink="http://www.w3.org/1999/xlink" xmlns:cml="http://www.xml-cml.org/schema" x="0" y="0" font-family="sans-serif" stroke="rgb(0,0,0)" stroke-width="1" viewBox="0 0 346.787 286.483" width="277.4296" height="229.1864">
<line x1="251.2" y1="114.4" x2="266.1" y2="140.6"/>
<line x1="266.1" y1="140.6" x2="251.0" y2="166.8"/>
<line x1="251.0" y1="185.1" x2="266.1" y2="211.2"/>
<line x1="266.1" y1="211.2" x2="251.0" y2="237.3"/>
<line x1="266.1" y1="211.2" x2="296.2" y2="211.2"/>
<line x1="151.7" y1="73.1" x2="114.5" y2="73.1"/>
<line x1="114.5" y1="73.1" x2="95.9" y2="105.4"/>
<line x1="95.9" y1="105.4" x2="58.6" y2="105.4"/>
<line x1="58.6" y1="105.4" x2="44.8" y2="129.2"/>
<line x1="170.6" y1="105.2" x2="155.3" y2="131.2"/>
<line x1="250.8" y1="96.6" x2="259.9" y2="80.7"/>
<line x1="259.9" y1="63.8" x2="245.9" y2="40.0"/>
<line x1="252.5" y1="65.4" x2="242.7" y2="48.8"/>
<line x1="245.9" y1="40.0" x2="218.0" y2="40.0"/>
<line x1="208.2" y1="57.0" x2="208.2" y2="105.2"/>
<line x1="208.2" y1="105.2" x2="236.1" y2="105.2"/>
<line x1="165.7" y1="48.6" x2="151.7" y2="73.1"/>
<line x1="170.8" y1="54.1" x2="160.9" y2="71.5"/>
<line x1="151.7" y1="73.1" x2="170.6" y2="105.2"/>
<line x1="170.6" y1="105.2" x2="208.2" y2="105.2"/>
<line x1="198.5" y1="40.0" x2="180.4" y2="40.0"/>
<text x="242.320186" y="113.553742" fill="rgb(12,12,255)"  stroke="rgb(12,12,255)" stroke-width="1" font-size="16" >N</text>
<text x="242.083424" y="184.246002" fill="rgb(255,12,12)"  stroke="rgb(255,12,12)" stroke-width="1" font-size="16" >O</text>
<text x="222.083424" y="251.282622" fill="rgb(102,102,102)"  stroke="rgb(102,102,102)" stroke-width="1" font-size="16" >H</text>
<text x="234.083424" y="256.082622" fill="rgb(102,102,102)"  stroke="rgb(102,102,102)" stroke-width="1" font-size="13" >3</text>
<text x="240.583424" y="251.282622" fill="rgb(102,102,102)"  stroke="rgb(102,102,102)" stroke-width="1" font-size="16" >C</text>
<text x="300.787250" y="219.524312" fill="rgb(102,102,102)"  stroke="rgb(102,102,102)" stroke-width="1" font-size="16" >CH</text>
<text x="324.787250" y="227.204312" fill="rgb(102,102,102)"  stroke="rgb(102,102,102)" stroke-width="1" font-size="13" >3</text>
<text x="258.766745" y="80.439421" fill="rgb(12,12,255)"  stroke="rgb(12,12,255)" stroke-width="1" font-size="16" >N</text>
<text x="202.249679" y="48.320000" fill="rgb(12,12,255)"  stroke="rgb(12,12,255)" stroke-width="1" font-size="16" >N</text>
<text x="166.967865" y="48.320000" fill="rgb(12,12,255)"  stroke="rgb(12,12,255)" stroke-width="1" font-size="16" >N</text>
<text x="16.400000" y="142.416647" fill="rgb(102,102,102)"  stroke="rgb(102,102,102)" stroke-width="1" font-size="16" >H</text>
<text x="28.400000" y="147.216647" fill="rgb(102,102,102)"  stroke="rgb(102,102,102)" stroke-width="1" font-size="13" >3</text>
<text x="34.900000" y="142.416647" fill="rgb(102,102,102)"  stroke="rgb(102,102,102)" stroke-width="1" font-size="16" >C</text>
<text x="134.361539" y="145.173343" fill="rgb(124,127,175)"  stroke="rgb(124,127,175)" stroke-width="1" font-size="16" >R</text>
<text x="245.920186" y="105.233742" fill="rgb(255,0,0)"  stroke="rgb(255,0,0)" stroke-width="1" font-size="12" >1</text>
<text x="266.051366" y="140.647692" fill="rgb(255,0,0)"  stroke="rgb(255,0,0)" stroke-width="1" font-size="12" >2</text>
<text x="245.683424" y="175.926002" fill="rgb(255,0,0)"  stroke="rgb(255,0,0)" stroke-width="1" font-size="12" >3</text>
<text x="266.051366" y="211.204312" fill="rgb(255,0,0)"  stroke="rgb(255,0,0)" stroke-width="1" font-size="12" >4</text>
<text x="245.683424" y="246.482622" fill="rgb(255,0,0)"  stroke="rgb(255,0,0)" stroke-width="1" font-size="12" >5</text>
<text x="306.787250" y="211.204312" fill="rgb(255,0,0)"  stroke="rgb(255,0,0)" stroke-width="1" font-size="12" >6</text>
<text x="264.766745" y="72.119421" fill="rgb(255,0,0)"  stroke="rgb(255,0,0)" stroke-width="1" font-size="12" >7</text>
<text x="245.920186" y="40.000000" fill="rgb(255,0,0)"  stroke="rgb(255,0,0)" stroke-width="1" font-size="12" >8</text>
<text x="208.249679" y="40.000000" fill="rgb(255,0,0)"  stroke="rgb(255,0,0)" stroke-width="1" font-size="12" >9</text>
<text x="170.567865" y="40.000000" fill="rgb(255,0,0)"  stroke="rgb(255,0,0)" stroke-width="1" font-size="12" >10</text>
<text x="151.721306" y="73.114321" fill="rgb(255,0,0)"  stroke="rgb(255,0,0)" stroke-width="1" font-size="12" >11</text>
<text x="114.480871" y="73.114321" fill="rgb(255,0,0)"  stroke="rgb(255,0,0)" stroke-width="1" font-size="12" >12</text>
<text x="95.860653" y="105.365484" fill="rgb(255,0,0)"  stroke="rgb(255,0,0)" stroke-width="1" font-size="12" >13</text>
<text x="58.620218" y="105.365484" fill="rgb(255,0,0)"  stroke="rgb(255,0,0)" stroke-width="1" font-size="12" >14</text>
<text x="40.000000" y="137.616647" fill="rgb(255,0,0)"  stroke="rgb(255,0,0)" stroke-width="1" font-size="12" >15</text>
<text x="170.567865" y="105.233742" fill="rgb(255,0,0)"  stroke="rgb(255,0,0)" stroke-width="1" font-size="12" >16</text>
<text x="149.961539" y="140.373343" fill="rgb(255,0,0)"  stroke="rgb(255,0,0)" stroke-width="1" font-size="12" >17</text>
<text x="208.249679" y="105.233742" fill="rgb(255,0,0)"  stroke="rgb(255,0,0)" stroke-width="1" font-size="12" >18</text>
<text font-size="18.000000" fill ="black" font-family="sans-serif"
x="140.000000" y="20.000000" ></text>
<title> - OBDepict</title>
</svg>
