<?xml version="1.0"?>
<svg xmlns="http://www.w3.org/2000/svg"
xmlns:xlink="http://www.w3.org/1999/xlink" xmlns:cml="http://www.xml-cml.org/schema" x="0" y="0" font-family="sans-serif" stroke="rgb(0,0,0)" stroke-width="1" viewBox="0 0 369.847 261.936" width="295.8776" height="209.5488">
<line x1="314.5" y1="116.5" x2="324.5" y2="134.0"/>
<line x1="212.3" y1="74.0" x2="174.0" y2="74.0"/>
<line x1="174.0" y1="74.0" x2="154.9" y2="107.2"/>
<line x1="154.9" y1="107.2" x2="116.6" y2="107.2"/>
<line x1="116.6" y1="107.2" x2="97.4" y2="140.4"/>
<line x1="97.4" y1="140.4" x2="69.1" y2="140.4"/>
<line x1="54.2" y1="149.0" x2="45.0" y2="164.9"/>
<line x1="231.7" y1="107.1" x2="231.7" y2="145.4"/>
<line x1="231.7" y1="145.4" x2="264.8" y2="164.5"/>
<line x1="264.8" y1="164.5" x2="264.8" y2="202.8"/>
<line x1="266.3" y1="205.4" x2="241.8" y2="219.6"/>
<line x1="263.3" y1="200.2" x2="238.8" y2="214.4"/>
<line x1="264.8" y1="202.8" x2="289.4" y2="217.0"/>
<line x1="314.2" y1="98.2" x2="323.5" y2="81.9"/>
<line x1="323.5" y1="64.4" x2="309.1" y2="40.0"/>
<line x1="316.2" y1="66.2" x2="306.0" y2="48.8"/>
<line x1="309.1" y1="40.0" x2="280.5" y2="40.0"/>
<line x1="270.4" y1="57.4" x2="270.4" y2="107.1"/>
<line x1="270.4" y1="107.1" x2="299.1" y2="107.1"/>
<line x1="226.6" y1="48.9" x2="212.3" y2="74.0"/>
<line x1="231.9" y1="54.2" x2="221.5" y2="72.4"/>
<line x1="212.3" y1="74.0" x2="231.7" y2="107.1"/>
<line x1="231.7" y1="107.1" x2="270.4" y2="107.1"/>
<line x1="260.3" y1="40.0" x2="241.7" y2="40.0"/>
<text x="305.549239" y="115.389890" fill="rgb(12,12,255)"  stroke="rgb(12,12,255)" stroke-width="1" font-size="16" >N</text>
<text x="323.847056" y="148.280643" fill="rgb(124,127,175)"  stroke="rgb(124,127,175)" stroke-width="1" font-size="16" >R</text>
<text x="322.526277" y="81.343493" fill="rgb(12,12,255)"  stroke="rgb(12,12,255)" stroke-width="1" font-size="16" >N</text>
<text x="264.418412" y="48.320000" fill="rgb(12,12,255)"  stroke="rgb(12,12,255)" stroke-width="1" font-size="16" >N</text>
<text x="228.075961" y="48.320000" fill="rgb(12,12,255)"  stroke="rgb(12,12,255)" stroke-width="1" font-size="16" >N</text>
<text x="43.544325" y="148.684283" fill="rgb(12,12,255)"  stroke="rgb(12,12,255)" stroke-width="1" font-size="16" >HN</text>
<text x="16.400000" y="178.323226" fill="rgb(102,102,102)"  stroke="rgb(102,102,102)" stroke-width="1" font-size="16" >H</text>
<text x="28.400000" y="183.123226" fill="rgb(102,102,102)"  stroke="rgb(102,102,102)" stroke-width="1" font-size="13" >3</text>
<text x="34.900000" y="178.323226" fill="rgb(102,102,102)"  stroke="rgb(102,102,102)" stroke-width="1" font-size="16" >C</text>
<text x="228.075961" y="226.735839" fill="rgb(255,12,12)"  stroke="rgb(255,12,12)" stroke-width="1" font-size="16" >O</text>
<text x="291.993848" y="226.735839" fill="rgb(102,102,102)"  stroke="rgb(102,102,102)" stroke-width="1" font-size="16" >CH</text>
<text x="315.993848" y="231.535839" fill="rgb(102,102,102)"  stroke="rgb(102,102,102)" stroke-width="1" font-size="13" >3</text>
<text x="309.149239" y="107.069890" fill="rgb(255,0,0)"  stroke="rgb(255,0,0)" stroke-width="1" font-size="12" >1</text>
<text x="329.847056" y="143.480643" fill="rgb(255,0,0)"  stroke="rgb(255,0,0)" stroke-width="1" font-size="12" >2</text>
<text x="328.526277" y="73.023493" fill="rgb(255,0,0)"  stroke="rgb(255,0,0)" stroke-width="1" font-size="12" >3</text>
<text x="309.149239" y="40.000000" fill="rgb(255,0,0)"  stroke="rgb(255,0,0)" stroke-width="1" font-size="12" >4</text>
<text x="270.418412" y="40.000000" fill="rgb(255,0,0)"  stroke="rgb(255,0,0)" stroke-width="1" font-size="12" >5</text>
<text x="231.675961" y="40.000000" fill="rgb(255,0,0)"  stroke="rgb(255,0,0)" stroke-width="1" font-size="12" >6</text>
<text x="212.298923" y="74.046396" fill="rgb(255,0,0)"  stroke="rgb(255,0,0)" stroke-width="1" font-size="12" >7</text>
<text x="174.010274" y="74.046396" fill="rgb(255,0,0)"  stroke="rgb(255,0,0)" stroke-width="1" font-size="12" >8</text>
<text x="154.865949" y="107.205340" fill="rgb(255,0,0)"  stroke="rgb(255,0,0)" stroke-width="1" font-size="12" >9</text>
<text x="116.577299" y="107.205340" fill="rgb(255,0,0)"  stroke="rgb(255,0,0)" stroke-width="1" font-size="12" >10</text>
<text x="97.432974" y="140.364283" fill="rgb(255,0,0)"  stroke="rgb(255,0,0)" stroke-width="1" font-size="12" >11</text>
<text x="59.144325" y="140.364283" fill="rgb(255,0,0)"  stroke="rgb(255,0,0)" stroke-width="1" font-size="12" >12</text>
<text x="40.000000" y="173.523226" fill="rgb(255,0,0)"  stroke="rgb(255,0,0)" stroke-width="1" font-size="12" >13</text>
<text x="231.675961" y="107.069890" fill="rgb(255,0,0)"  stroke="rgb(255,0,0)" stroke-width="1" font-size="12" >14</text>
<text x="231.675961" y="145.358539" fill="rgb(255,0,0)"  stroke="rgb(255,0,0)" stroke-width="1" font-size="12" >15</text>
<text x="264.834904" y="164.502864" fill="rgb(255,0,0)"  stroke="rgb(255,0,0)" stroke-width="1" font-size="12" >16</text>
<text x="264.834904" y="202.791514" fill="rgb(255,0,0)"  stroke="rgb(255,0,0)" stroke-width="1" font-size="12" >17</text>
<text x="231.675961" y="221.935839" fill="rgb(255,0,0)"  stroke="rgb(255,0,0)" stroke-width="1" font-size="12" >18</text>
<text x="297.993848" y="221.935839" fill="rgb(255,0,0)"  stroke="rgb(255,0,0)" stroke-width="1" font-size="12" >19</text>
<text x="270.418412" y="107.069890" fill="rgb(255,0,0)"  stroke="rgb(255,0,0)" stroke-width="1" font-size="12" >20</text>
<text font-size="18.000000" fill ="black" font-family="sans-serif"
x="140.000000" y="20.000000" ></text>
<title> - OBDepict</title>
</svg>
