<?xml version="1.0"?>
<svg xmlns="http://www.w3.org/2000/svg"
xmlns:xlink="http://www.w3.org/1999/xlink" xmlns:cml="http://www.xml-cml.org/schema" width="287.207" height="293.247" x="0" y="0" font-family="sans-serif" stroke="rgb(0,0,0)" stroke-width="1" >
<line x1="232.0" y1="148.3" x2="241.8" y2="165.7"/>
<line x1="130.2" y1="106.0" x2="92.1" y2="106.0"/>
<line x1="92.1" y1="106.0" x2="73.0" y2="73.0"/>
<line x1="73.0" y1="73.0" x2="48.6" y2="58.9"/>
<line x1="73.0" y1="73.0" x2="48.6" y2="87.1"/>
<line x1="73.0" y1="73.0" x2="87.1" y2="48.6"/>
<line x1="149.5" y1="138.9" x2="149.5" y2="177.0"/>
<line x1="149.5" y1="177.0" x2="182.5" y2="196.1"/>
<line x1="182.5" y1="196.1" x2="182.5" y2="224.3"/>
<line x1="191.1" y1="239.1" x2="206.9" y2="248.3"/>
<line x1="231.6" y1="130.1" x2="240.9" y2="113.8"/>
<line x1="240.9" y1="96.5" x2="226.6" y2="72.1"/>
<line x1="233.6" y1="98.2" x2="223.4" y2="80.9"/>
<line x1="226.6" y1="72.1" x2="198.1" y2="72.1"/>
<line x1="188.0" y1="89.5" x2="188.0" y2="138.9"/>
<line x1="188.0" y1="138.9" x2="216.6" y2="138.9"/>
<line x1="144.5" y1="80.9" x2="130.2" y2="106.0"/>
<line x1="149.7" y1="86.3" x2="139.4" y2="104.4"/>
<line x1="130.2" y1="106.0" x2="149.5" y2="138.9"/>
<line x1="149.5" y1="138.9" x2="188.0" y2="138.9"/>
<line x1="178.0" y1="72.1" x2="159.5" y2="72.1"/>
<text x="223.001862" y="147.215997" fill="rgb(12,12,255)"  stroke="rgb(12,12,255)" stroke-width="1" font-size="16" >N</text>
<text x="241.206883" y="179.943507" fill="rgb(124,127,175)"  stroke="rgb(124,127,175)" stroke-width="1" font-size="16" >R</text>
<text x="239.892025" y="113.322242" fill="rgb(12,12,255)"  stroke="rgb(12,12,255)" stroke-width="1" font-size="16" >N</text>
<text x="182.044679" y="80.446805" fill="rgb(12,12,255)"  stroke="rgb(12,12,255)" stroke-width="1" font-size="16" >N</text>
<text x="145.875925" y="80.446805" fill="rgb(12,12,255)"  stroke="rgb(12,12,255)" stroke-width="1" font-size="16" >N</text>
<text x="16.400000" y="62.271786" fill="rgb(102,102,102)"  stroke="rgb(102,102,102)" stroke-width="1" font-size="16" >H</text>
<text x="28.400000" y="69.951786" fill="rgb(102,102,102)"  stroke="rgb(102,102,102)" stroke-width="1" font-size="13" >3</text>
<text x="34.900000" y="62.271786" fill="rgb(102,102,102)"  stroke="rgb(102,102,102)" stroke-width="1" font-size="16" >C</text>
<text x="16.400000" y="96.868774" fill="rgb(102,102,102)"  stroke="rgb(102,102,102)" stroke-width="1" font-size="16" >H</text>
<text x="28.400000" y="101.668774" fill="rgb(102,102,102)"  stroke="rgb(102,102,102)" stroke-width="1" font-size="13" >3</text>
<text x="34.900000" y="96.868774" fill="rgb(102,102,102)"  stroke="rgb(102,102,102)" stroke-width="1" font-size="16" >C</text>
<text x="86.068774" y="48.320000" fill="rgb(255,12,12)"  stroke="rgb(255,12,12)" stroke-width="1" font-size="16" >OH</text>
<text x="166.886204" y="238.988466" fill="rgb(12,12,255)"  stroke="rgb(12,12,255)" stroke-width="1" font-size="16" >HN</text>
<text x="209.496484" y="258.046960" fill="rgb(102,102,102)"  stroke="rgb(102,102,102)" stroke-width="1" font-size="16" >CH</text>
<text x="233.496484" y="262.846960" fill="rgb(102,102,102)"  stroke="rgb(102,102,102)" stroke-width="1" font-size="13" >3</text>
<text x="226.601862" y="138.895997" fill="rgb(255,0,0)"  stroke="rgb(255,0,0)" stroke-width="1" font-size="12" >1</text>
<text x="247.206883" y="175.143507" fill="rgb(255,0,0)"  stroke="rgb(255,0,0)" stroke-width="1" font-size="12" >2</text>
<text x="245.892025" y="105.002242" fill="rgb(255,0,0)"  stroke="rgb(255,0,0)" stroke-width="1" font-size="12" >3</text>
<text x="226.601862" y="72.126805" fill="rgb(255,0,0)"  stroke="rgb(255,0,0)" stroke-width="1" font-size="12" >4</text>
<text x="188.044679" y="72.126805" fill="rgb(255,0,0)"  stroke="rgb(255,0,0)" stroke-width="1" font-size="12" >5</text>
<text x="149.475925" y="72.126805" fill="rgb(255,0,0)"  stroke="rgb(255,0,0)" stroke-width="1" font-size="12" >6</text>
<text x="130.185761" y="106.020559" fill="rgb(255,0,0)"  stroke="rgb(255,0,0)" stroke-width="1" font-size="12" >7</text>
<text x="92.068774" y="106.020559" fill="rgb(255,0,0)"  stroke="rgb(255,0,0)" stroke-width="1" font-size="12" >8</text>
<text x="73.010280" y="73.010280" fill="rgb(255,0,0)"  stroke="rgb(255,0,0)" stroke-width="1" font-size="12" >9</text>
<text x="40.000000" y="53.951786" fill="rgb(255,0,0)"  stroke="rgb(255,0,0)" stroke-width="1" font-size="12" >10</text>
<text x="40.000000" y="92.068774" fill="rgb(255,0,0)"  stroke="rgb(255,0,0)" stroke-width="1" font-size="12" >11</text>
<text x="92.068774" y="40.000000" fill="rgb(255,0,0)"  stroke="rgb(255,0,0)" stroke-width="1" font-size="12" >12</text>
<text x="149.475925" y="138.895997" fill="rgb(255,0,0)"  stroke="rgb(255,0,0)" stroke-width="1" font-size="12" >13</text>
<text x="149.475925" y="177.012984" fill="rgb(255,0,0)"  stroke="rgb(255,0,0)" stroke-width="1" font-size="12" >14</text>
<text x="182.486204" y="196.071478" fill="rgb(255,0,0)"  stroke="rgb(255,0,0)" stroke-width="1" font-size="12" >15</text>
<text x="182.486204" y="234.188466" fill="rgb(255,0,0)"  stroke="rgb(255,0,0)" stroke-width="1" font-size="12" >16</text>
<text x="215.496484" y="253.246960" fill="rgb(255,0,0)"  stroke="rgb(255,0,0)" stroke-width="1" font-size="12" >17</text>
<text x="188.044679" y="138.895997" fill="rgb(255,0,0)"  stroke="rgb(255,0,0)" stroke-width="1" font-size="12" >18</text>
<text font-size="18.000000" fill ="black" font-family="sans-serif"
x="140.000000" y="20.000000" ></text>
<title> - OBDepict</title>
</svg>
