<?xml version="1.0"?>
<svg xmlns="http://www.w3.org/2000/svg"
xmlns:xlink="http://www.w3.org/1999/xlink" xmlns:cml="http://www.xml-cml.org/schema" x="0" y="0" font-family="sans-serif" stroke="rgb(0,0,0)" stroke-width="1" viewBox="0 0 346.489 360.404" width="277.1912" height="288.3232">
<line x1="291.4" y1="115.3" x2="306.5" y2="141.9"/>
<line x1="306.5" y1="141.9" x2="285.9" y2="177.6"/>
<line x1="285.9" y1="177.6" x2="306.5" y2="213.3"/>
<line x1="306.5" y1="213.3" x2="285.9" y2="249.0"/>
<line x1="285.9" y1="249.0" x2="301.1" y2="275.4"/>
<line x1="301.1" y1="294.0" x2="291.2" y2="311.1"/>
<line x1="190.8" y1="73.5" x2="153.1" y2="73.5"/>
<line x1="153.1" y1="73.5" x2="134.2" y2="106.2"/>
<line x1="134.2" y1="106.2" x2="96.5" y2="106.2"/>
<line x1="96.5" y1="106.2" x2="82.6" y2="130.3"/>
<line x1="67.9" y1="138.8" x2="49.8" y2="138.8"/>
<line x1="209.8" y1="106.0" x2="209.8" y2="143.7"/>
<line x1="209.8" y1="143.7" x2="234.0" y2="157.7"/>
<line x1="242.5" y1="172.4" x2="242.5" y2="190.5"/>
<line x1="291.1" y1="97.3" x2="300.2" y2="81.2"/>
<line x1="300.2" y1="64.1" x2="286.1" y2="40.0"/>
<line x1="292.9" y1="65.8" x2="282.9" y2="48.8"/>
<line x1="286.1" y1="40.0" x2="257.9" y2="40.0"/>
<line x1="248.0" y1="57.2" x2="248.0" y2="106.0"/>
<line x1="248.0" y1="106.0" x2="276.2" y2="106.0"/>
<line x1="204.9" y1="48.7" x2="190.8" y2="73.5"/>
<line x1="210.1" y1="54.1" x2="200.0" y2="71.9"/>
<line x1="190.8" y1="73.5" x2="209.8" y2="106.0"/>
<line x1="209.8" y1="106.0" x2="248.0" y2="106.0"/>
<line x1="238.1" y1="40.0" x2="219.8" y2="40.0"/>
<text x="282.513518" y="114.345928" fill="rgb(12,12,255)"  stroke="rgb(12,12,255)" stroke-width="1" font-size="16" >N</text>
<text x="300.489167" y="293.016832" fill="rgb(12,12,255)"  stroke="rgb(12,12,255)" stroke-width="1" font-size="16" >NH</text>
<text x="262.273881" y="325.203555" fill="rgb(102,102,102)"  stroke="rgb(102,102,102)" stroke-width="1" font-size="16" >H</text>
<text x="274.273881" y="330.003555" fill="rgb(102,102,102)"  stroke="rgb(102,102,102)" stroke-width="1" font-size="13" >3</text>
<text x="280.773881" y="325.203555" fill="rgb(102,102,102)"  stroke="rgb(102,102,102)" stroke-width="1" font-size="16" >C</text>
<text x="299.188946" y="80.829473" fill="rgb(12,12,255)"  stroke="rgb(12,12,255)" stroke-width="1" font-size="16" >N</text>
<text x="241.985547" y="48.320000" fill="rgb(12,12,255)"  stroke="rgb(12,12,255)" stroke-width="1" font-size="16" >N</text>
<text x="206.246133" y="48.320000" fill="rgb(12,12,255)"  stroke="rgb(12,12,255)" stroke-width="1" font-size="16" >N</text>
<text x="71.692676" y="143.602085" fill="rgb(12,12,255)"  stroke="rgb(12,12,255)" stroke-width="1" font-size="16" >NH</text>
<text x="16.400000" y="143.602085" fill="rgb(102,102,102)"  stroke="rgb(102,102,102)" stroke-width="1" font-size="16" >H</text>
<text x="28.400000" y="148.402085" fill="rgb(102,102,102)"  stroke="rgb(102,102,102)" stroke-width="1" font-size="13" >3</text>
<text x="34.900000" y="143.602085" fill="rgb(102,102,102)"  stroke="rgb(102,102,102)" stroke-width="1" font-size="16" >C</text>
<text x="236.488948" y="170.884942" fill="rgb(12,12,255)"  stroke="rgb(12,12,255)" stroke-width="1" font-size="16" >NH</text>
<text x="236.488948" y="205.057618" fill="rgb(102,102,102)"  stroke="rgb(102,102,102)" stroke-width="1" font-size="16" >CH</text>
<text x="260.488948" y="209.857618" fill="rgb(102,102,102)"  stroke="rgb(102,102,102)" stroke-width="1" font-size="13" >3</text>
<text x="286.113518" y="106.025928" fill="rgb(255,0,0)"  stroke="rgb(255,0,0)" stroke-width="1" font-size="12" >1</text>
<text x="306.489167" y="141.869938" fill="rgb(255,0,0)"  stroke="rgb(255,0,0)" stroke-width="1" font-size="12" >2</text>
<text x="285.873881" y="177.576661" fill="rgb(255,0,0)"  stroke="rgb(255,0,0)" stroke-width="1" font-size="12" >3</text>
<text x="306.489167" y="213.283385" fill="rgb(255,0,0)"  stroke="rgb(255,0,0)" stroke-width="1" font-size="12" >4</text>
<text x="285.873881" y="248.990108" fill="rgb(255,0,0)"  stroke="rgb(255,0,0)" stroke-width="1" font-size="12" >5</text>
<text x="306.489167" y="284.696832" fill="rgb(255,0,0)"  stroke="rgb(255,0,0)" stroke-width="1" font-size="12" >6</text>
<text x="285.873881" y="320.403555" fill="rgb(255,0,0)"  stroke="rgb(255,0,0)" stroke-width="1" font-size="12" >7</text>
<text x="305.188946" y="72.509473" fill="rgb(255,0,0)"  stroke="rgb(255,0,0)" stroke-width="1" font-size="12" >8</text>
<text x="286.113518" y="40.000000" fill="rgb(255,0,0)"  stroke="rgb(255,0,0)" stroke-width="1" font-size="12" >9</text>
<text x="247.985547" y="40.000000" fill="rgb(255,0,0)"  stroke="rgb(255,0,0)" stroke-width="1" font-size="12" >10</text>
<text x="209.846133" y="40.000000" fill="rgb(255,0,0)"  stroke="rgb(255,0,0)" stroke-width="1" font-size="12" >11</text>
<text x="190.770704" y="73.516455" fill="rgb(255,0,0)"  stroke="rgb(255,0,0)" stroke-width="1" font-size="12" >12</text>
<text x="153.078028" y="73.516455" fill="rgb(255,0,0)"  stroke="rgb(255,0,0)" stroke-width="1" font-size="12" >13</text>
<text x="134.231690" y="106.159270" fill="rgb(255,0,0)"  stroke="rgb(255,0,0)" stroke-width="1" font-size="12" >14</text>
<text x="96.539014" y="106.159270" fill="rgb(255,0,0)"  stroke="rgb(255,0,0)" stroke-width="1" font-size="12" >15</text>
<text x="77.692676" y="138.802085" fill="rgb(255,0,0)"  stroke="rgb(255,0,0)" stroke-width="1" font-size="12" >16</text>
<text x="40.000000" y="138.802085" fill="rgb(255,0,0)"  stroke="rgb(255,0,0)" stroke-width="1" font-size="12" >17</text>
<text x="209.846133" y="106.025928" fill="rgb(255,0,0)"  stroke="rgb(255,0,0)" stroke-width="1" font-size="12" >18</text>
<text x="209.846133" y="143.718604" fill="rgb(255,0,0)"  stroke="rgb(255,0,0)" stroke-width="1" font-size="12" >19</text>
<text x="242.488948" y="162.564942" fill="rgb(255,0,0)"  stroke="rgb(255,0,0)" stroke-width="1" font-size="12" >20</text>
<text x="242.488948" y="200.257618" fill="rgb(255,0,0)"  stroke="rgb(255,0,0)" stroke-width="1" font-size="12" >21</text>
<text x="247.985547" y="106.025928" fill="rgb(255,0,0)"  stroke="rgb(255,0,0)" stroke-width="1" font-size="12" >22</text>
<text font-size="18.000000" fill ="black" font-family="sans-serif"
x="140.000000" y="20.000000" ></text>
<title> - OBDepict</title>
</svg>
