<?xml version="1.0"?>
<svg xmlns="http://www.w3.org/2000/svg"
xmlns:xlink="http://www.w3.org/1999/xlink" xmlns:cml="http://www.xml-cml.org/schema" x="0" y="0" font-family="sans-serif" stroke="rgb(0,0,0)" stroke-width="1" viewBox="0 0 357.207 249.838" width="285.7656" height="199.8704">
<line x1="289.3" y1="114.7" x2="304.2" y2="141.0"/>
<line x1="304.2" y1="141.0" x2="283.8" y2="176.4"/>
<line x1="283.8" y1="176.4" x2="308.5" y2="193.8"/>
<line x1="283.8" y1="176.4" x2="253.6" y2="173.7"/>
<line x1="283.8" y1="176.4" x2="266.4" y2="201.1"/>
<line x1="189.5" y1="73.2" x2="152.1" y2="73.2"/>
<line x1="152.1" y1="73.2" x2="133.4" y2="105.6"/>
<line x1="133.4" y1="105.6" x2="96.1" y2="105.6"/>
<line x1="96.1" y1="105.6" x2="77.4" y2="138.0"/>
<line x1="77.4" y1="138.0" x2="49.7" y2="138.0"/>
<line x1="208.4" y1="105.5" x2="193.1" y2="131.6"/>
<line x1="288.9" y1="96.8" x2="298.0" y2="80.9"/>
<line x1="298.0" y1="63.9" x2="284.0" y2="40.0"/>
<line x1="290.6" y1="65.5" x2="280.8" y2="48.8"/>
<line x1="284.0" y1="40.0" x2="256.0" y2="40.0"/>
<line x1="246.2" y1="57.0" x2="246.2" y2="105.5"/>
<line x1="246.2" y1="105.5" x2="274.2" y2="105.5"/>
<line x1="203.5" y1="48.6" x2="189.5" y2="73.2"/>
<line x1="208.7" y1="54.1" x2="198.7" y2="71.6"/>
<line x1="189.5" y1="73.2" x2="208.4" y2="105.5"/>
<line x1="208.4" y1="105.5" x2="246.2" y2="105.5"/>
<line x1="236.4" y1="40.0" x2="218.2" y2="40.0"/>
<text x="280.402296" y="113.779542" fill="rgb(12,12,255)"  stroke="rgb(12,12,255)" stroke-width="1" font-size="16" >N</text>
<text x="311.206525" y="204.703202" fill="rgb(102,102,102)"  stroke="rgb(102,102,102)" stroke-width="1" font-size="16" >CH</text>
<text x="335.206525" y="209.503202" fill="rgb(102,102,102)"  stroke="rgb(102,102,102)" stroke-width="1" font-size="13" >3</text>
<text x="219.449905" y="181.079995" fill="rgb(102,102,102)"  stroke="rgb(102,102,102)" stroke-width="1" font-size="16" >H</text>
<text x="231.449905" y="188.759995" fill="rgb(102,102,102)"  stroke="rgb(102,102,102)" stroke-width="1" font-size="13" >3</text>
<text x="237.949905" y="181.079995" fill="rgb(102,102,102)"  stroke="rgb(102,102,102)" stroke-width="1" font-size="16" >C</text>
<text x="244.658008" y="214.638305" fill="rgb(255,12,12)"  stroke="rgb(255,12,12)" stroke-width="1" font-size="16" >HO</text>
<text x="296.914091" y="80.550599" fill="rgb(12,12,255)"  stroke="rgb(12,12,255)" stroke-width="1" font-size="16" >N</text>
<text x="240.201396" y="48.320000" fill="rgb(12,12,255)"  stroke="rgb(12,12,255)" stroke-width="1" font-size="16" >N</text>
<text x="204.789152" y="48.320000" fill="rgb(12,12,255)"  stroke="rgb(12,12,255)" stroke-width="1" font-size="16" >N</text>
<text x="16.400000" y="142.754537" fill="rgb(102,102,102)"  stroke="rgb(102,102,102)" stroke-width="1" font-size="16" >H</text>
<text x="28.400000" y="147.554537" fill="rgb(102,102,102)"  stroke="rgb(102,102,102)" stroke-width="1" font-size="13" >3</text>
<text x="34.900000" y="142.754537" fill="rgb(102,102,102)"  stroke="rgb(102,102,102)" stroke-width="1" font-size="16" >C</text>
<text x="172.111498" y="145.520774" fill="rgb(124,127,175)"  stroke="rgb(124,127,175)" stroke-width="1" font-size="16" >R</text>
<text x="284.002296" y="105.459542" fill="rgb(255,0,0)"  stroke="rgb(255,0,0)" stroke-width="1" font-size="12" >1</text>
<text x="304.203158" y="140.996073" fill="rgb(255,0,0)"  stroke="rgb(255,0,0)" stroke-width="1" font-size="12" >2</text>
<text x="283.764715" y="176.396496" fill="rgb(255,0,0)"  stroke="rgb(255,0,0)" stroke-width="1" font-size="12" >3</text>
<text x="317.206525" y="199.903202" fill="rgb(255,0,0)"  stroke="rgb(255,0,0)" stroke-width="1" font-size="12" >4</text>
<text x="243.049905" y="172.759995" fill="rgb(255,0,0)"  stroke="rgb(255,0,0)" stroke-width="1" font-size="12" >5</text>
<text x="260.258008" y="209.838305" fill="rgb(255,0,0)"  stroke="rgb(255,0,0)" stroke-width="1" font-size="12" >6</text>
<text x="302.914091" y="72.230599" fill="rgb(255,0,0)"  stroke="rgb(255,0,0)" stroke-width="1" font-size="12" >7</text>
<text x="284.002296" y="40.000000" fill="rgb(255,0,0)"  stroke="rgb(255,0,0)" stroke-width="1" font-size="12" >8</text>
<text x="246.201396" y="40.000000" fill="rgb(255,0,0)"  stroke="rgb(255,0,0)" stroke-width="1" font-size="12" >9</text>
<text x="208.389152" y="40.000000" fill="rgb(255,0,0)"  stroke="rgb(255,0,0)" stroke-width="1" font-size="12" >10</text>
<text x="189.477357" y="73.228942" fill="rgb(255,0,0)"  stroke="rgb(255,0,0)" stroke-width="1" font-size="12" >11</text>
<text x="152.108018" y="73.228942" fill="rgb(255,0,0)"  stroke="rgb(255,0,0)" stroke-width="1" font-size="12" >12</text>
<text x="133.423348" y="105.591739" fill="rgb(255,0,0)"  stroke="rgb(255,0,0)" stroke-width="1" font-size="12" >13</text>
<text x="96.054009" y="105.591739" fill="rgb(255,0,0)"  stroke="rgb(255,0,0)" stroke-width="1" font-size="12" >14</text>
<text x="77.369339" y="137.954537" fill="rgb(255,0,0)"  stroke="rgb(255,0,0)" stroke-width="1" font-size="12" >15</text>
<text x="40.000000" y="137.954537" fill="rgb(255,0,0)"  stroke="rgb(255,0,0)" stroke-width="1" font-size="12" >16</text>
<text x="208.389152" y="105.459542" fill="rgb(255,0,0)"  stroke="rgb(255,0,0)" stroke-width="1" font-size="12" >17</text>
<text x="187.711498" y="140.720774" fill="rgb(255,0,0)"  stroke="rgb(255,0,0)" stroke-width="1" font-size="12" >18</text>
<text x="246.201396" y="105.459542" fill="rgb(255,0,0)"  stroke="rgb(255,0,0)" stroke-width="1" font-size="12" >19</text>
<text font-size="18.000000" fill ="black" font-family="sans-serif"
x="140.000000" y="20.000000" ></text>
<title> - OBDepict</title>
</svg>
