<?xml version="1.0"?>
<svg xmlns="http://www.w3.org/2000/svg"
xmlns:xlink="http://www.w3.org/1999/xlink" xmlns:cml="http://www.xml-cml.org/schema" x="0" y="0" font-family="sans-serif" stroke="rgb(0,0,0)" stroke-width="1" viewBox="0 0 286.666 273.682" width="229.3328" height="218.9456">
<line x1="231.5" y1="148.0" x2="241.3" y2="165.4"/>
<line x1="130.0" y1="105.8" x2="91.9" y2="105.8"/>
<line x1="91.9" y1="105.8" x2="72.9" y2="72.9"/>
<line x1="72.9" y1="72.9" x2="48.6" y2="58.9"/>
<line x1="72.9" y1="72.9" x2="48.6" y2="87.0"/>
<line x1="72.9" y1="72.9" x2="87.0" y2="48.6"/>
<line x1="149.2" y1="138.6" x2="149.2" y2="176.7"/>
<line x1="149.2" y1="176.7" x2="173.6" y2="190.7"/>
<line x1="182.1" y1="205.5" x2="182.1" y2="223.8"/>
<line x1="231.1" y1="129.8" x2="240.4" y2="113.6"/>
<line x1="240.4" y1="96.3" x2="226.1" y2="72.0"/>
<line x1="233.0" y1="98.1" x2="222.9" y2="80.9"/>
<line x1="226.1" y1="72.0" x2="197.7" y2="72.0"/>
<line x1="187.7" y1="89.4" x2="187.7" y2="138.6"/>
<line x1="187.7" y1="138.6" x2="216.1" y2="138.6"/>
<line x1="144.2" y1="80.8" x2="130.0" y2="105.8"/>
<line x1="149.4" y1="86.2" x2="139.2" y2="104.2"/>
<line x1="130.0" y1="105.8" x2="149.2" y2="138.6"/>
<line x1="149.2" y1="138.6" x2="187.7" y2="138.6"/>
<line x1="177.7" y1="72.0" x2="159.2" y2="72.0"/>
<text x="222.515116" y="146.958029" fill="rgb(12,12,255)"  stroke="rgb(12,12,255)" stroke-width="1" font-size="16" >N</text>
<text x="240.666389" y="179.590989" fill="rgb(124,127,175)"  stroke="rgb(124,127,175)" stroke-width="1" font-size="16" >R</text>
<text x="239.354961" y="113.152686" fill="rgb(12,12,255)"  stroke="rgb(12,12,255)" stroke-width="1" font-size="16" >N</text>
<text x="181.658509" y="80.363004" fill="rgb(12,12,255)"  stroke="rgb(12,12,255)" stroke-width="1" font-size="16" >N</text>
<text x="145.590360" y="80.363004" fill="rgb(12,12,255)"  stroke="rgb(12,12,255)" stroke-width="1" font-size="16" >N</text>
<text x="16.400000" y="62.235393" fill="rgb(102,102,102)"  stroke="rgb(102,102,102)" stroke-width="1" font-size="16" >H</text>
<text x="28.400000" y="69.915393" fill="rgb(102,102,102)"  stroke="rgb(102,102,102)" stroke-width="1" font-size="13" >3</text>
<text x="34.900000" y="62.235393" fill="rgb(102,102,102)"  stroke="rgb(102,102,102)" stroke-width="1" font-size="16" >C</text>
<text x="16.400000" y="96.732954" fill="rgb(102,102,102)"  stroke="rgb(102,102,102)" stroke-width="1" font-size="16" >H</text>
<text x="28.400000" y="101.532954" fill="rgb(102,102,102)"  stroke="rgb(102,102,102)" stroke-width="1" font-size="13" >3</text>
<text x="34.900000" y="96.732954" fill="rgb(102,102,102)"  stroke="rgb(102,102,102)" stroke-width="1" font-size="16" >C</text>
<text x="85.932954" y="48.320000" fill="rgb(255,12,12)"  stroke="rgb(255,12,12)" stroke-width="1" font-size="16" >OH</text>
<text x="176.114533" y="203.984370" fill="rgb(12,12,255)"  stroke="rgb(12,12,255)" stroke-width="1" font-size="16" >NH</text>
<text x="176.114533" y="238.481931" fill="rgb(102,102,102)"  stroke="rgb(102,102,102)" stroke-width="1" font-size="16" >CH</text>
<text x="200.114533" y="243.281931" fill="rgb(102,102,102)"  stroke="rgb(102,102,102)" stroke-width="1" font-size="13" >3</text>
<text x="226.115116" y="138.638029" fill="rgb(255,0,0)"  stroke="rgb(255,0,0)" stroke-width="1" font-size="12" >1</text>
<text x="246.666389" y="174.790989" fill="rgb(255,0,0)"  stroke="rgb(255,0,0)" stroke-width="1" font-size="12" >2</text>
<text x="245.354961" y="104.832686" fill="rgb(255,0,0)"  stroke="rgb(255,0,0)" stroke-width="1" font-size="12" >3</text>
<text x="226.115116" y="72.043004" fill="rgb(255,0,0)"  stroke="rgb(255,0,0)" stroke-width="1" font-size="12" >4</text>
<text x="187.658509" y="72.043004" fill="rgb(255,0,0)"  stroke="rgb(255,0,0)" stroke-width="1" font-size="12" >5</text>
<text x="149.190360" y="72.043004" fill="rgb(255,0,0)"  stroke="rgb(255,0,0)" stroke-width="1" font-size="12" >6</text>
<text x="129.950514" y="105.848347" fill="rgb(255,0,0)"  stroke="rgb(255,0,0)" stroke-width="1" font-size="12" >7</text>
<text x="91.932954" y="105.848347" fill="rgb(255,0,0)"  stroke="rgb(255,0,0)" stroke-width="1" font-size="12" >8</text>
<text x="72.924173" y="72.924173" fill="rgb(255,0,0)"  stroke="rgb(255,0,0)" stroke-width="1" font-size="12" >9</text>
<text x="40.000000" y="53.915393" fill="rgb(255,0,0)"  stroke="rgb(255,0,0)" stroke-width="1" font-size="12" >10</text>
<text x="40.000000" y="91.932954" fill="rgb(255,0,0)"  stroke="rgb(255,0,0)" stroke-width="1" font-size="12" >11</text>
<text x="91.932954" y="40.000000" fill="rgb(255,0,0)"  stroke="rgb(255,0,0)" stroke-width="1" font-size="12" >12</text>
<text x="149.190360" y="138.638029" fill="rgb(255,0,0)"  stroke="rgb(255,0,0)" stroke-width="1" font-size="12" >13</text>
<text x="149.190360" y="176.655590" fill="rgb(255,0,0)"  stroke="rgb(255,0,0)" stroke-width="1" font-size="12" >14</text>
<text x="182.114533" y="195.664370" fill="rgb(255,0,0)"  stroke="rgb(255,0,0)" stroke-width="1" font-size="12" >15</text>
<text x="182.114533" y="233.681931" fill="rgb(255,0,0)"  stroke="rgb(255,0,0)" stroke-width="1" font-size="12" >16</text>
<text x="187.658509" y="138.638029" fill="rgb(255,0,0)"  stroke="rgb(255,0,0)" stroke-width="1" font-size="12" >17</text>
<text font-size="18.000000" fill ="black" font-family="sans-serif"
x="140.000000" y="20.000000" ></text>
<title> - OBDepict</title>
</svg>
