<?xml version="1.0"?>
<svg xmlns="http://www.w3.org/2000/svg"
xmlns:xlink="http://www.w3.org/1999/xlink" xmlns:cml="http://www.xml-cml.org/schema" width="364.134" height="288.11" x="0" y="0" font-family="sans-serif" stroke="rgb(0,0,0)" stroke-width="1" >
<line x1="309.1" y1="115.0" x2="324.1" y2="141.4"/>
<line x1="324.1" y1="141.4" x2="303.6" y2="177.0"/>
<line x1="303.6" y1="177.0" x2="318.8" y2="203.3"/>
<line x1="318.8" y1="221.8" x2="308.9" y2="238.9"/>
<line x1="208.9" y1="73.4" x2="171.4" y2="73.4"/>
<line x1="171.4" y1="73.4" x2="152.6" y2="105.9"/>
<line x1="152.6" y1="105.9" x2="115.1" y2="105.9"/>
<line x1="115.1" y1="105.9" x2="96.3" y2="138.4"/>
<line x1="96.3" y1="138.4" x2="68.5" y2="138.4"/>
<line x1="53.9" y1="146.8" x2="44.9" y2="162.4"/>
<line x1="227.9" y1="105.7" x2="212.5" y2="132.0"/>
<line x1="308.8" y1="97.1" x2="317.9" y2="81.1"/>
<line x1="317.9" y1="64.0" x2="303.8" y2="40.0"/>
<line x1="310.6" y1="65.7" x2="300.7" y2="48.8"/>
<line x1="303.8" y1="40.0" x2="275.7" y2="40.0"/>
<line x1="265.9" y1="57.1" x2="265.9" y2="105.7"/>
<line x1="265.9" y1="105.7" x2="294.0" y2="105.7"/>
<line x1="223.0" y1="48.7" x2="208.9" y2="73.4"/>
<line x1="228.1" y1="54.1" x2="218.1" y2="71.7"/>
<line x1="208.9" y1="73.4" x2="227.9" y2="105.7"/>
<line x1="227.9" y1="105.7" x2="265.9" y2="105.7"/>
<line x1="256.0" y1="40.0" x2="237.8" y2="40.0"/>
<text x="300.243772" y="114.067809" fill="rgb(12,12,255)"  stroke="rgb(12,12,255)" stroke-width="1" font-size="16" >N</text>
<text x="318.133593" y="220.873467" fill="rgb(12,12,255)"  stroke="rgb(12,12,255)" stroke-width="1" font-size="16" >NH</text>
<text x="280.005144" y="252.909784" fill="rgb(102,102,102)"  stroke="rgb(102,102,102)" stroke-width="1" font-size="16" >H</text>
<text x="292.005144" y="257.709784" fill="rgb(102,102,102)"  stroke="rgb(102,102,102)" stroke-width="1" font-size="13" >3</text>
<text x="298.505144" y="252.909784" fill="rgb(102,102,102)"  stroke="rgb(102,102,102)" stroke-width="1" font-size="16" >C</text>
<text x="316.838849" y="80.692535" fill="rgb(12,12,255)"  stroke="rgb(12,12,255)" stroke-width="1" font-size="16" >N</text>
<text x="259.876406" y="48.320000" fill="rgb(12,12,255)"  stroke="rgb(12,12,255)" stroke-width="1" font-size="16" >N</text>
<text x="224.297646" y="48.320000" fill="rgb(12,12,255)"  stroke="rgb(12,12,255)" stroke-width="1" font-size="16" >N</text>
<text x="43.166952" y="146.705903" fill="rgb(12,12,255)"  stroke="rgb(12,12,255)" stroke-width="1" font-size="16" >HN</text>
<text x="16.400000" y="175.691218" fill="rgb(102,102,102)"  stroke="rgb(102,102,102)" stroke-width="1" font-size="16" >H</text>
<text x="28.400000" y="180.491218" fill="rgb(102,102,102)"  stroke="rgb(102,102,102)" stroke-width="1" font-size="13" >3</text>
<text x="34.900000" y="175.691218" fill="rgb(102,102,102)"  stroke="rgb(102,102,102)" stroke-width="1" font-size="16" >C</text>
<text x="191.528934" y="145.964323" fill="rgb(124,127,175)"  stroke="rgb(124,127,175)" stroke-width="1" font-size="16" >R</text>
<text x="303.843772" y="105.747809" fill="rgb(255,0,0)"  stroke="rgb(255,0,0)" stroke-width="1" font-size="12" >1</text>
<text x="324.133593" y="141.440834" fill="rgb(255,0,0)"  stroke="rgb(255,0,0)" stroke-width="1" font-size="12" >2</text>
<text x="303.605144" y="176.997151" fill="rgb(255,0,0)"  stroke="rgb(255,0,0)" stroke-width="1" font-size="12" >3</text>
<text x="324.133593" y="212.553467" fill="rgb(255,0,0)"  stroke="rgb(255,0,0)" stroke-width="1" font-size="12" >4</text>
<text x="303.605144" y="248.109784" fill="rgb(255,0,0)"  stroke="rgb(255,0,0)" stroke-width="1" font-size="12" >5</text>
<text x="322.838849" y="72.372535" fill="rgb(255,0,0)"  stroke="rgb(255,0,0)" stroke-width="1" font-size="12" >6</text>
<text x="303.843772" y="40.000000" fill="rgb(255,0,0)"  stroke="rgb(255,0,0)" stroke-width="1" font-size="12" >7</text>
<text x="265.876406" y="40.000000" fill="rgb(255,0,0)"  stroke="rgb(255,0,0)" stroke-width="1" font-size="12" >8</text>
<text x="227.897646" y="40.000000" fill="rgb(255,0,0)"  stroke="rgb(255,0,0)" stroke-width="1" font-size="12" >9</text>
<text x="208.902569" y="73.375274" fill="rgb(255,0,0)"  stroke="rgb(255,0,0)" stroke-width="1" font-size="12" >10</text>
<text x="171.368665" y="73.375274" fill="rgb(255,0,0)"  stroke="rgb(255,0,0)" stroke-width="1" font-size="12" >11</text>
<text x="152.601712" y="105.880589" fill="rgb(255,0,0)"  stroke="rgb(255,0,0)" stroke-width="1" font-size="12" >12</text>
<text x="115.067808" y="105.880589" fill="rgb(255,0,0)"  stroke="rgb(255,0,0)" stroke-width="1" font-size="12" >13</text>
<text x="96.300856" y="138.385903" fill="rgb(255,0,0)"  stroke="rgb(255,0,0)" stroke-width="1" font-size="12" >14</text>
<text x="58.766952" y="138.385903" fill="rgb(255,0,0)"  stroke="rgb(255,0,0)" stroke-width="1" font-size="12" >15</text>
<text x="40.000000" y="170.891218" fill="rgb(255,0,0)"  stroke="rgb(255,0,0)" stroke-width="1" font-size="12" >16</text>
<text x="227.897646" y="105.747809" fill="rgb(255,0,0)"  stroke="rgb(255,0,0)" stroke-width="1" font-size="12" >17</text>
<text x="207.128934" y="141.164323" fill="rgb(255,0,0)"  stroke="rgb(255,0,0)" stroke-width="1" font-size="12" >18</text>
<text x="265.876406" y="105.747809" fill="rgb(255,0,0)"  stroke="rgb(255,0,0)" stroke-width="1" font-size="12" >19</text>
<text font-size="18.000000" fill ="black" font-family="sans-serif"
x="140.000000" y="20.000000" ></text>
<title> - OBDepict</title>
</svg>
