<?xml version="1.0"?>
<svg xmlns="http://www.w3.org/2000/svg"
xmlns:xlink="http://www.w3.org/1999/xlink" xmlns:cml="http://www.xml-cml.org/schema" x="0" y="0" font-family="sans-serif" stroke="rgb(0,0,0)" stroke-width="1" viewBox="0 0 337.297 252.338" width="269.8376" height="201.8704">
<line x1="180.6" y1="114.7" x2="190.3" y2="131.8"/>
<line x1="206.2" y1="141.1" x2="236.5" y2="141.5"/>
<line x1="236.5" y1="141.5" x2="256.4" y2="177.2"/>
<line x1="256.4" y1="177.2" x2="286.7" y2="177.6"/>
<line x1="256.4" y1="177.2" x2="241.0" y2="203.2"/>
<line x1="80.9" y1="73.2" x2="50.6" y2="74.0"/>
<line x1="99.8" y1="105.5" x2="99.8" y2="142.8"/>
<line x1="99.8" y1="142.8" x2="132.1" y2="161.5"/>
<line x1="135.1" y1="161.5" x2="135.1" y2="189.2"/>
<line x1="129.1" y1="161.5" x2="129.1" y2="189.2"/>
<line x1="132.1" y1="161.5" x2="164.5" y2="142.8"/>
<line x1="164.5" y1="142.8" x2="188.4" y2="156.7"/>
<line x1="180.3" y1="96.8" x2="189.4" y2="80.9"/>
<line x1="189.4" y1="63.9" x2="175.4" y2="40.0"/>
<line x1="182.0" y1="65.5" x2="172.2" y2="48.8"/>
<line x1="175.4" y1="40.0" x2="147.4" y2="40.0"/>
<line x1="137.6" y1="57.0" x2="137.6" y2="105.5"/>
<line x1="137.6" y1="105.5" x2="165.6" y2="105.5"/>
<line x1="94.9" y1="48.6" x2="80.9" y2="73.2"/>
<line x1="100.0" y1="54.1" x2="90.1" y2="71.6"/>
<line x1="80.9" y1="73.2" x2="99.8" y2="105.5"/>
<line x1="99.8" y1="105.5" x2="137.6" y2="105.5"/>
<line x1="127.8" y1="40.0" x2="109.6" y2="40.0"/>
<text x="171.787595" y="113.779542" fill="rgb(12,12,255)"  stroke="rgb(12,12,255)" stroke-width="1" font-size="16" >N</text>
<text x="179.988457" y="145.796073" fill="rgb(12,12,255)"  stroke="rgb(12,12,255)" stroke-width="1" font-size="16" >HN</text>
<text x="291.297269" y="182.562318" fill="rgb(255,12,12)"  stroke="rgb(255,12,12)" stroke-width="1" font-size="16" >OH</text>
<text x="211.913205" y="217.138165" fill="rgb(102,102,102)"  stroke="rgb(102,102,102)" stroke-width="1" font-size="16" >H</text>
<text x="223.913205" y="221.938165" fill="rgb(102,102,102)"  stroke="rgb(102,102,102)" stroke-width="1" font-size="13" >3</text>
<text x="230.413205" y="217.138165" fill="rgb(102,102,102)"  stroke="rgb(102,102,102)" stroke-width="1" font-size="16" >C</text>
<text x="188.299390" y="80.550599" fill="rgb(12,12,255)"  stroke="rgb(12,12,255)" stroke-width="1" font-size="16" >N</text>
<text x="131.586695" y="48.320000" fill="rgb(12,12,255)"  stroke="rgb(12,12,255)" stroke-width="1" font-size="16" >N</text>
<text x="96.174450" y="48.320000" fill="rgb(12,12,255)"  stroke="rgb(12,12,255)" stroke-width="1" font-size="16" >N</text>
<text x="24.400000" y="79.107501" fill="rgb(124,127,175)"  stroke="rgb(124,127,175)" stroke-width="1" font-size="16" >R</text>
<text x="126.137247" y="203.682890" fill="rgb(255,12,12)"  stroke="rgb(255,12,12)" stroke-width="1" font-size="16" >O</text>
<text x="190.862841" y="166.313551" fill="rgb(102,102,102)"  stroke="rgb(102,102,102)" stroke-width="1" font-size="16" >CH</text>
<text x="214.862841" y="171.113551" fill="rgb(102,102,102)"  stroke="rgb(102,102,102)" stroke-width="1" font-size="13" >3</text>
<text x="175.387595" y="105.459542" fill="rgb(255,0,0)"  stroke="rgb(255,0,0)" stroke-width="1" font-size="12" >1</text>
<text x="195.588457" y="140.996073" fill="rgb(255,0,0)"  stroke="rgb(255,0,0)" stroke-width="1" font-size="12" >2</text>
<text x="236.461676" y="141.543673" fill="rgb(255,0,0)"  stroke="rgb(255,0,0)" stroke-width="1" font-size="12" >3</text>
<text x="256.424050" y="177.214719" fill="rgb(255,0,0)"  stroke="rgb(255,0,0)" stroke-width="1" font-size="12" >4</text>
<text x="297.297269" y="177.762318" fill="rgb(255,0,0)"  stroke="rgb(255,0,0)" stroke-width="1" font-size="12" >5</text>
<text x="235.513205" y="212.338165" fill="rgb(255,0,0)"  stroke="rgb(255,0,0)" stroke-width="1" font-size="12" >6</text>
<text x="194.299390" y="72.230599" fill="rgb(255,0,0)"  stroke="rgb(255,0,0)" stroke-width="1" font-size="12" >7</text>
<text x="175.387595" y="40.000000" fill="rgb(255,0,0)"  stroke="rgb(255,0,0)" stroke-width="1" font-size="12" >8</text>
<text x="137.586695" y="40.000000" fill="rgb(255,0,0)"  stroke="rgb(255,0,0)" stroke-width="1" font-size="12" >9</text>
<text x="99.774450" y="40.000000" fill="rgb(255,0,0)"  stroke="rgb(255,0,0)" stroke-width="1" font-size="12" >10</text>
<text x="80.862655" y="73.228942" fill="rgb(255,0,0)"  stroke="rgb(255,0,0)" stroke-width="1" font-size="12" >11</text>
<text x="40.000000" y="74.307501" fill="rgb(255,0,0)"  stroke="rgb(255,0,0)" stroke-width="1" font-size="12" >12</text>
<text x="99.774450" y="105.459542" fill="rgb(255,0,0)"  stroke="rgb(255,0,0)" stroke-width="1" font-size="12" >13</text>
<text x="99.774450" y="142.828881" fill="rgb(255,0,0)"  stroke="rgb(255,0,0)" stroke-width="1" font-size="12" >14</text>
<text x="132.137247" y="161.513551" fill="rgb(255,0,0)"  stroke="rgb(255,0,0)" stroke-width="1" font-size="12" >15</text>
<text x="132.137247" y="198.882890" fill="rgb(255,0,0)"  stroke="rgb(255,0,0)" stroke-width="1" font-size="12" >16</text>
<text x="164.500044" y="142.828881" fill="rgb(255,0,0)"  stroke="rgb(255,0,0)" stroke-width="1" font-size="12" >17</text>
<text x="196.862841" y="161.513551" fill="rgb(255,0,0)"  stroke="rgb(255,0,0)" stroke-width="1" font-size="12" >18</text>
<text x="137.586695" y="105.459542" fill="rgb(255,0,0)"  stroke="rgb(255,0,0)" stroke-width="1" font-size="12" >19</text>
<text font-size="18.000000" fill ="black" font-family="sans-serif"
x="140.000000" y="20.000000" ></text>
<title> - OBDepict</title>
</svg>
