<?xml version="1.0"?>
<svg xmlns="http://www.w3.org/2000/svg"
xmlns:xlink="http://www.w3.org/1999/xlink" xmlns:cml="http://www.xml-cml.org/schema" x="0" y="0" font-family="sans-serif" stroke="rgb(0,0,0)" stroke-width="1" viewBox="0 0 234.592 285.87" width="187.6736" height="228.696">
<line x1="179.7" y1="114.2" x2="194.6" y2="140.3"/>
<line x1="194.6" y1="140.3" x2="174.3" y2="175.5"/>
<line x1="174.3" y1="175.5" x2="194.6" y2="210.7"/>
<line x1="194.6" y1="210.7" x2="179.6" y2="236.7"/>
<line x1="80.6" y1="73.0" x2="50.6" y2="73.8"/>
<line x1="99.4" y1="105.0" x2="99.4" y2="142.2"/>
<line x1="99.4" y1="142.2" x2="123.2" y2="155.9"/>
<line x1="131.5" y1="170.4" x2="131.5" y2="188.2"/>
<line x1="179.4" y1="96.5" x2="188.4" y2="80.6"/>
<line x1="188.4" y1="63.7" x2="174.5" y2="40.0"/>
<line x1="181.1" y1="65.4" x2="171.3" y2="48.8"/>
<line x1="174.5" y1="40.0" x2="146.7" y2="40.0"/>
<line x1="137.0" y1="56.9" x2="137.0" y2="105.0"/>
<line x1="137.0" y1="105.0" x2="164.8" y2="105.0"/>
<line x1="94.5" y1="48.6" x2="80.6" y2="73.0"/>
<line x1="99.7" y1="54.1" x2="89.8" y2="71.4"/>
<line x1="80.6" y1="73.0" x2="99.4" y2="105.0"/>
<line x1="99.4" y1="105.0" x2="137.0" y2="105.0"/>
<line x1="127.2" y1="40.0" x2="109.2" y2="40.0"/>
<text x="170.920249" y="113.360182" fill="rgb(12,12,255)"  stroke="rgb(12,12,255)" stroke-width="1" font-size="16" >N</text>
<text x="150.684189" y="250.669953" fill="rgb(102,102,102)"  stroke="rgb(102,102,102)" stroke-width="1" font-size="16" >H</text>
<text x="162.684189" y="255.469953" fill="rgb(102,102,102)"  stroke="rgb(102,102,102)" stroke-width="1" font-size="13" >3</text>
<text x="169.184189" y="250.669953" fill="rgb(102,102,102)"  stroke="rgb(102,102,102)" stroke-width="1" font-size="16" >C</text>
<text x="187.310887" y="80.344117" fill="rgb(12,12,255)"  stroke="rgb(12,12,255)" stroke-width="1" font-size="16" >N</text>
<text x="130.961516" y="48.320000" fill="rgb(12,12,255)"  stroke="rgb(12,12,255)" stroke-width="1" font-size="16" >N</text>
<text x="95.791512" y="48.320000" fill="rgb(12,12,255)"  stroke="rgb(12,12,255)" stroke-width="1" font-size="16" >N</text>
<text x="24.400000" y="78.887713" fill="rgb(124,127,175)"  stroke="rgb(124,127,175)" stroke-width="1" font-size="16" >R</text>
<text x="125.546980" y="169.055087" fill="rgb(12,12,255)"  stroke="rgb(12,12,255)" stroke-width="1" font-size="16" >NH</text>
<text x="125.546980" y="202.665024" fill="rgb(102,102,102)"  stroke="rgb(102,102,102)" stroke-width="1" font-size="16" >CH</text>
<text x="149.546980" y="207.465024" fill="rgb(102,102,102)"  stroke="rgb(102,102,102)" stroke-width="1" font-size="13" >3</text>
<text x="174.520249" y="105.040182" fill="rgb(255,0,0)"  stroke="rgb(255,0,0)" stroke-width="1" font-size="12" >1</text>
<text x="194.591696" y="140.349053" fill="rgb(255,0,0)"  stroke="rgb(255,0,0)" stroke-width="1" font-size="12" >2</text>
<text x="174.284189" y="175.522686" fill="rgb(255,0,0)"  stroke="rgb(255,0,0)" stroke-width="1" font-size="12" >3</text>
<text x="194.591696" y="210.696320" fill="rgb(255,0,0)"  stroke="rgb(255,0,0)" stroke-width="1" font-size="12" >4</text>
<text x="174.284189" y="245.869953" fill="rgb(255,0,0)"  stroke="rgb(255,0,0)" stroke-width="1" font-size="12" >5</text>
<text x="193.310887" y="72.024117" fill="rgb(255,0,0)"  stroke="rgb(255,0,0)" stroke-width="1" font-size="12" >6</text>
<text x="174.520249" y="40.000000" fill="rgb(255,0,0)"  stroke="rgb(255,0,0)" stroke-width="1" font-size="12" >7</text>
<text x="136.961516" y="40.000000" fill="rgb(255,0,0)"  stroke="rgb(255,0,0)" stroke-width="1" font-size="12" >8</text>
<text x="99.391512" y="40.000000" fill="rgb(255,0,0)"  stroke="rgb(255,0,0)" stroke-width="1" font-size="12" >9</text>
<text x="80.600873" y="73.016065" fill="rgb(255,0,0)"  stroke="rgb(255,0,0)" stroke-width="1" font-size="12" >10</text>
<text x="40.000000" y="74.087713" fill="rgb(255,0,0)"  stroke="rgb(255,0,0)" stroke-width="1" font-size="12" >11</text>
<text x="99.391512" y="105.040182" fill="rgb(255,0,0)"  stroke="rgb(255,0,0)" stroke-width="1" font-size="12" >12</text>
<text x="99.391512" y="142.170119" fill="rgb(255,0,0)"  stroke="rgb(255,0,0)" stroke-width="1" font-size="12" >13</text>
<text x="131.546980" y="160.735087" fill="rgb(255,0,0)"  stroke="rgb(255,0,0)" stroke-width="1" font-size="12" >14</text>
<text x="131.546980" y="197.865024" fill="rgb(255,0,0)"  stroke="rgb(255,0,0)" stroke-width="1" font-size="12" >15</text>
<text x="136.961516" y="105.040182" fill="rgb(255,0,0)"  stroke="rgb(255,0,0)" stroke-width="1" font-size="12" >16</text>
<text font-size="18.000000" fill ="black" font-family="sans-serif"
x="140.000000" y="20.000000" ></text>
<title> - OBDepict</title>
</svg>
