<?xml version="1.0"?>
<svg xmlns="http://www.w3.org/2000/svg"
xmlns:xlink="http://www.w3.org/1999/xlink" xmlns:cml="http://www.xml-cml.org/schema" width="306.542" height="251.576" x="0" y="0" font-family="sans-serif" stroke="rgb(0,0,0)" stroke-width="1" >
<line x1="251.6" y1="114.6" x2="266.5" y2="140.9"/>
<line x1="266.5" y1="140.9" x2="251.4" y2="167.0"/>
<line x1="251.4" y1="185.4" x2="261.2" y2="202.4"/>
<line x1="152.0" y1="73.2" x2="114.6" y2="73.2"/>
<line x1="114.6" y1="73.2" x2="96.0" y2="105.5"/>
<line x1="96.0" y1="105.5" x2="68.4" y2="105.5"/>
<line x1="53.8" y1="113.9" x2="44.9" y2="129.4"/>
<line x1="170.9" y1="105.4" x2="155.6" y2="131.4"/>
<line x1="251.3" y1="96.7" x2="260.3" y2="80.8"/>
<line x1="260.3" y1="63.8" x2="246.4" y2="40.0"/>
<line x1="253.0" y1="65.5" x2="243.2" y2="48.8"/>
<line x1="246.4" y1="40.0" x2="218.4" y2="40.0"/>
<line x1="208.6" y1="57.0" x2="208.6" y2="105.4"/>
<line x1="208.6" y1="105.4" x2="236.6" y2="105.4"/>
<line x1="165.9" y1="48.6" x2="152.0" y2="73.2"/>
<line x1="171.1" y1="54.1" x2="161.2" y2="71.5"/>
<line x1="152.0" y1="73.2" x2="170.9" y2="105.4"/>
<line x1="170.9" y1="105.4" x2="208.6" y2="105.4"/>
<line x1="198.8" y1="40.0" x2="180.7" y2="40.0"/>
<text x="242.766839" y="113.695238" fill="rgb(12,12,255)"  stroke="rgb(12,12,255)" stroke-width="1" font-size="16" >N</text>
<text x="230.529563" y="184.540833" fill="rgb(12,12,255)"  stroke="rgb(12,12,255)" stroke-width="1" font-size="16" >HN</text>
<text x="260.541685" y="216.375664" fill="rgb(102,102,102)"  stroke="rgb(102,102,102)" stroke-width="1" font-size="16" >CH</text>
<text x="284.541685" y="221.175664" fill="rgb(102,102,102)"  stroke="rgb(102,102,102)" stroke-width="1" font-size="13" >3</text>
<text x="259.254278" y="80.509090" fill="rgb(12,12,255)"  stroke="rgb(12,12,255)" stroke-width="1" font-size="16" >N</text>
<text x="202.614622" y="48.320000" fill="rgb(12,12,255)"  stroke="rgb(12,12,255)" stroke-width="1" font-size="16" >N</text>
<text x="167.251075" y="48.320000" fill="rgb(12,12,255)"  stroke="rgb(12,12,255)" stroke-width="1" font-size="16" >N</text>
<text x="43.060606" y="113.827265" fill="rgb(12,12,255)"  stroke="rgb(12,12,255)" stroke-width="1" font-size="16" >HN</text>
<text x="16.400000" y="142.628383" fill="rgb(102,102,102)"  stroke="rgb(102,102,102)" stroke-width="1" font-size="16" >H</text>
<text x="28.400000" y="147.428383" fill="rgb(102,102,102)"  stroke="rgb(102,102,102)" stroke-width="1" font-size="13" >3</text>
<text x="34.900000" y="142.628383" fill="rgb(102,102,102)"  stroke="rgb(102,102,102)" stroke-width="1" font-size="16" >C</text>
<text x="134.600052" y="145.391058" fill="rgb(124,127,175)"  stroke="rgb(124,127,175)" stroke-width="1" font-size="16" >R</text>
<text x="246.366839" y="105.375238" fill="rgb(255,0,0)"  stroke="rgb(255,0,0)" stroke-width="1" font-size="12" >1</text>
<text x="266.541685" y="140.866002" fill="rgb(255,0,0)"  stroke="rgb(255,0,0)" stroke-width="1" font-size="12" >2</text>
<text x="246.129563" y="176.220833" fill="rgb(255,0,0)"  stroke="rgb(255,0,0)" stroke-width="1" font-size="12" >3</text>
<text x="266.541685" y="211.575664" fill="rgb(255,0,0)"  stroke="rgb(255,0,0)" stroke-width="1" font-size="12" >4</text>
<text x="265.254278" y="72.189090" fill="rgb(255,0,0)"  stroke="rgb(255,0,0)" stroke-width="1" font-size="12" >5</text>
<text x="246.366839" y="40.000000" fill="rgb(255,0,0)"  stroke="rgb(255,0,0)" stroke-width="1" font-size="12" >6</text>
<text x="208.614622" y="40.000000" fill="rgb(255,0,0)"  stroke="rgb(255,0,0)" stroke-width="1" font-size="12" >7</text>
<text x="170.851075" y="40.000000" fill="rgb(255,0,0)"  stroke="rgb(255,0,0)" stroke-width="1" font-size="12" >8</text>
<text x="151.963636" y="73.186148" fill="rgb(255,0,0)"  stroke="rgb(255,0,0)" stroke-width="1" font-size="12" >9</text>
<text x="114.642424" y="73.186148" fill="rgb(255,0,0)"  stroke="rgb(255,0,0)" stroke-width="1" font-size="12" >10</text>
<text x="95.981818" y="105.507265" fill="rgb(255,0,0)"  stroke="rgb(255,0,0)" stroke-width="1" font-size="12" >11</text>
<text x="58.660606" y="105.507265" fill="rgb(255,0,0)"  stroke="rgb(255,0,0)" stroke-width="1" font-size="12" >12</text>
<text x="40.000000" y="137.828383" fill="rgb(255,0,0)"  stroke="rgb(255,0,0)" stroke-width="1" font-size="12" >13</text>
<text x="170.851075" y="105.375238" fill="rgb(255,0,0)"  stroke="rgb(255,0,0)" stroke-width="1" font-size="12" >14</text>
<text x="150.200052" y="140.591058" fill="rgb(255,0,0)"  stroke="rgb(255,0,0)" stroke-width="1" font-size="12" >15</text>
<text x="208.614622" y="105.375238" fill="rgb(255,0,0)"  stroke="rgb(255,0,0)" stroke-width="1" font-size="12" >16</text>
<text font-size="18.000000" fill ="black" font-family="sans-serif"
x="140.000000" y="20.000000" ></text>
<title> - OBDepict</title>
</svg>
