<?xml version="1.0"?>
<svg xmlns="http://www.w3.org/2000/svg"
xmlns:xlink="http://www.w3.org/1999/xlink" xmlns:cml="http://www.xml-cml.org/schema" x="0" y="0" font-family="sans-serif" stroke="rgb(0,0,0)" stroke-width="1" viewBox="0 0 286.481 355.771" width="229.1848" height="284.6168">
<line x1="231.7" y1="114.1" x2="246.5" y2="140.2"/>
<line x1="246.5" y1="140.2" x2="226.2" y2="175.3"/>
<line x1="226.2" y1="175.3" x2="246.5" y2="210.4"/>
<line x1="246.5" y1="210.4" x2="226.2" y2="245.5"/>
<line x1="226.2" y1="245.5" x2="241.2" y2="271.5"/>
<line x1="241.2" y1="289.8" x2="231.5" y2="306.6"/>
<line x1="132.7" y1="73.0" x2="105.2" y2="73.0"/>
<line x1="90.8" y1="81.3" x2="77.1" y2="105.1"/>
<line x1="77.1" y1="105.1" x2="49.6" y2="105.1"/>
<line x1="151.4" y1="104.9" x2="136.3" y2="130.8"/>
<line x1="231.3" y1="96.4" x2="240.3" y2="80.5"/>
<line x1="240.3" y1="63.7" x2="226.4" y2="40.0"/>
<line x1="233.0" y1="65.3" x2="223.3" y2="48.8"/>
<line x1="226.4" y1="40.0" x2="198.7" y2="40.0"/>
<line x1="188.9" y1="56.9" x2="188.9" y2="104.9"/>
<line x1="188.9" y1="104.9" x2="216.7" y2="104.9"/>
<line x1="146.6" y1="48.6" x2="132.7" y2="73.0"/>
<line x1="151.7" y1="54.1" x2="141.9" y2="71.3"/>
<line x1="132.7" y1="73.0" x2="151.4" y2="104.9"/>
<line x1="151.4" y1="104.9" x2="188.9" y2="104.9"/>
<line x1="179.2" y1="40.0" x2="161.2" y2="40.0"/>
<text x="222.842468" y="113.255088" fill="rgb(12,12,255)"  stroke="rgb(12,12,255)" stroke-width="1" font-size="16" >N</text>
<text x="240.481483" y="288.974099" fill="rgb(12,12,255)"  stroke="rgb(12,12,255)" stroke-width="1" font-size="16" >NH</text>
<text x="202.606790" y="320.570897" fill="rgb(102,102,102)"  stroke="rgb(102,102,102)" stroke-width="1" font-size="16" >H</text>
<text x="214.606790" y="325.370897" fill="rgb(102,102,102)"  stroke="rgb(102,102,102)" stroke-width="1" font-size="13" >3</text>
<text x="221.106790" y="320.570897" fill="rgb(102,102,102)"  stroke="rgb(102,102,102)" stroke-width="1" font-size="16" >C</text>
<text x="239.202744" y="80.292372" fill="rgb(12,12,255)"  stroke="rgb(12,12,255)" stroke-width="1" font-size="16" >N</text>
<text x="182.944425" y="48.320000" fill="rgb(12,12,255)"  stroke="rgb(12,12,255)" stroke-width="1" font-size="16" >N</text>
<text x="147.835127" y="48.320000" fill="rgb(12,12,255)"  stroke="rgb(12,12,255)" stroke-width="1" font-size="16" >N</text>
<text x="80.004911" y="81.282716" fill="rgb(12,12,255)"  stroke="rgb(12,12,255)" stroke-width="1" font-size="16" >HN</text>
<text x="16.400000" y="109.866226" fill="rgb(102,102,102)"  stroke="rgb(102,102,102)" stroke-width="1" font-size="16" >H</text>
<text x="28.400000" y="114.666226" fill="rgb(102,102,102)"  stroke="rgb(102,102,102)" stroke-width="1" font-size="13" >3</text>
<text x="34.900000" y="109.866226" fill="rgb(102,102,102)"  stroke="rgb(102,102,102)" stroke-width="1" font-size="16" >C</text>
<text x="115.323140" y="144.713811" fill="rgb(124,127,175)"  stroke="rgb(124,127,175)" stroke-width="1" font-size="16" >R</text>
<text x="226.442468" y="104.935088" fill="rgb(255,0,0)"  stroke="rgb(255,0,0)" stroke-width="1" font-size="12" >1</text>
<text x="246.481483" y="140.186904" fill="rgb(255,0,0)"  stroke="rgb(255,0,0)" stroke-width="1" font-size="12" >2</text>
<text x="226.206790" y="175.303703" fill="rgb(255,0,0)"  stroke="rgb(255,0,0)" stroke-width="1" font-size="12" >3</text>
<text x="246.481483" y="210.420502" fill="rgb(255,0,0)"  stroke="rgb(255,0,0)" stroke-width="1" font-size="12" >4</text>
<text x="226.206790" y="245.537300" fill="rgb(255,0,0)"  stroke="rgb(255,0,0)" stroke-width="1" font-size="12" >5</text>
<text x="246.481483" y="280.654099" fill="rgb(255,0,0)"  stroke="rgb(255,0,0)" stroke-width="1" font-size="12" >6</text>
<text x="226.206790" y="315.770897" fill="rgb(255,0,0)"  stroke="rgb(255,0,0)" stroke-width="1" font-size="12" >7</text>
<text x="245.202744" y="71.972372" fill="rgb(255,0,0)"  stroke="rgb(255,0,0)" stroke-width="1" font-size="12" >8</text>
<text x="226.442468" y="40.000000" fill="rgb(255,0,0)"  stroke="rgb(255,0,0)" stroke-width="1" font-size="12" >9</text>
<text x="188.944425" y="40.000000" fill="rgb(255,0,0)"  stroke="rgb(255,0,0)" stroke-width="1" font-size="12" >10</text>
<text x="151.435127" y="40.000000" fill="rgb(255,0,0)"  stroke="rgb(255,0,0)" stroke-width="1" font-size="12" >11</text>
<text x="132.674851" y="72.962716" fill="rgb(255,0,0)"  stroke="rgb(255,0,0)" stroke-width="1" font-size="12" >12</text>
<text x="95.604911" y="72.962716" fill="rgb(255,0,0)"  stroke="rgb(255,0,0)" stroke-width="1" font-size="12" >13</text>
<text x="77.069941" y="105.066226" fill="rgb(255,0,0)"  stroke="rgb(255,0,0)" stroke-width="1" font-size="12" >14</text>
<text x="40.000000" y="105.066226" fill="rgb(255,0,0)"  stroke="rgb(255,0,0)" stroke-width="1" font-size="12" >15</text>
<text x="151.435127" y="104.935088" fill="rgb(255,0,0)"  stroke="rgb(255,0,0)" stroke-width="1" font-size="12" >16</text>
<text x="130.923140" y="139.913811" fill="rgb(255,0,0)"  stroke="rgb(255,0,0)" stroke-width="1" font-size="12" >17</text>
<text x="188.944425" y="104.935088" fill="rgb(255,0,0)"  stroke="rgb(255,0,0)" stroke-width="1" font-size="12" >18</text>
<text font-size="18.000000" fill ="black" font-family="sans-serif"
x="140.000000" y="20.000000" ></text>
<title> - OBDepict</title>
</svg>
