<?xml version="1.0"?>
<svg xmlns="http://www.w3.org/2000/svg"
xmlns:xlink="http://www.w3.org/1999/xlink" xmlns:cml="http://www.xml-cml.org/schema" x="0" y="0" font-family="sans-serif" stroke="rgb(0,0,0)" stroke-width="1" viewBox="0 0 324.3 283.528" width="259.44" height="226.8224">
<line x1="228.4" y1="146.3" x2="243.4" y2="172.6"/>
<line x1="243.4" y1="172.6" x2="273.7" y2="172.8"/>
<line x1="243.4" y1="172.6" x2="222.9" y2="208.1"/>
<line x1="222.9" y1="208.1" x2="238.1" y2="234.3"/>
<line x1="128.5" y1="104.8" x2="91.1" y2="104.8"/>
<line x1="91.1" y1="104.8" x2="72.4" y2="72.4"/>
<line x1="72.4" y1="72.4" x2="48.4" y2="58.6"/>
<line x1="72.4" y1="72.4" x2="48.4" y2="86.2"/>
<line x1="72.4" y1="72.4" x2="86.2" y2="48.4"/>
<line x1="147.5" y1="137.1" x2="132.1" y2="163.2"/>
<line x1="228.1" y1="128.4" x2="237.2" y2="112.5"/>
<line x1="237.2" y1="95.4" x2="223.2" y2="71.5"/>
<line x1="229.8" y1="97.1" x2="220.0" y2="80.4"/>
<line x1="223.2" y1="71.5" x2="195.1" y2="71.5"/>
<line x1="185.3" y1="88.6" x2="185.3" y2="137.1"/>
<line x1="185.3" y1="137.1" x2="213.3" y2="137.1"/>
<line x1="142.5" y1="80.2" x2="128.5" y2="104.8"/>
<line x1="147.7" y1="85.6" x2="137.7" y2="103.1"/>
<line x1="128.5" y1="104.8" x2="147.5" y2="137.1"/>
<line x1="147.5" y1="137.1" x2="185.3" y2="137.1"/>
<line x1="175.5" y1="71.5" x2="157.3" y2="71.5"/>
<text x="219.553067" y="145.388191" fill="rgb(12,12,255)"  stroke="rgb(12,12,255)" stroke-width="1" font-size="16" >N</text>
<text x="278.300451" y="177.719894" fill="rgb(255,12,12)"  stroke="rgb(255,12,12)" stroke-width="1" font-size="16" >OH</text>
<text x="237.377264" y="248.328401" fill="rgb(102,102,102)"  stroke="rgb(102,102,102)" stroke-width="1" font-size="16" >CH</text>
<text x="261.377264" y="253.128401" fill="rgb(102,102,102)"  stroke="rgb(102,102,102)" stroke-width="1" font-size="13" >3</text>
<text x="236.086708" y="112.120864" fill="rgb(12,12,255)"  stroke="rgb(12,12,255)" stroke-width="1" font-size="16" >N</text>
<text x="179.308502" y="79.853035" fill="rgb(12,12,255)"  stroke="rgb(12,12,255)" stroke-width="1" font-size="16" >N</text>
<text x="143.852579" y="79.853035" fill="rgb(12,12,255)"  stroke="rgb(12,12,255)" stroke-width="1" font-size="16" >N</text>
<text x="16.400000" y="62.013928" fill="rgb(102,102,102)"  stroke="rgb(102,102,102)" stroke-width="1" font-size="16" >H</text>
<text x="28.400000" y="69.693928" fill="rgb(102,102,102)"  stroke="rgb(102,102,102)" stroke-width="1" font-size="13" >3</text>
<text x="34.900000" y="62.013928" fill="rgb(102,102,102)"  stroke="rgb(102,102,102)" stroke-width="1" font-size="16" >C</text>
<text x="16.400000" y="95.906433" fill="rgb(102,102,102)"  stroke="rgb(102,102,102)" stroke-width="1" font-size="16" >H</text>
<text x="28.400000" y="100.706433" fill="rgb(102,102,102)"  stroke="rgb(102,102,102)" stroke-width="1" font-size="13" >3</text>
<text x="34.900000" y="95.906433" fill="rgb(102,102,102)"  stroke="rgb(102,102,102)" stroke-width="1" font-size="16" >C</text>
<text x="85.106433" y="48.320000" fill="rgb(255,12,12)"  stroke="rgb(255,12,12)" stroke-width="1" font-size="16" >OH</text>
<text x="111.151040" y="177.170155" fill="rgb(124,127,175)"  stroke="rgb(124,127,175)" stroke-width="1" font-size="16" >R</text>
<text x="223.153067" y="137.068191" fill="rgb(255,0,0)"  stroke="rgb(255,0,0)" stroke-width="1" font-size="12" >1</text>
<text x="243.377264" y="172.645771" fill="rgb(255,0,0)"  stroke="rgb(255,0,0)" stroke-width="1" font-size="12" >2</text>
<text x="284.300451" y="172.919894" fill="rgb(255,0,0)"  stroke="rgb(255,0,0)" stroke-width="1" font-size="12" >3</text>
<text x="222.915211" y="208.087086" fill="rgb(255,0,0)"  stroke="rgb(255,0,0)" stroke-width="1" font-size="12" >4</text>
<text x="243.377264" y="243.528401" fill="rgb(255,0,0)"  stroke="rgb(255,0,0)" stroke-width="1" font-size="12" >5</text>
<text x="242.086708" y="103.800864" fill="rgb(255,0,0)"  stroke="rgb(255,0,0)" stroke-width="1" font-size="12" >6</text>
<text x="223.153067" y="71.533035" fill="rgb(255,0,0)"  stroke="rgb(255,0,0)" stroke-width="1" font-size="12" >7</text>
<text x="185.308502" y="71.533035" fill="rgb(255,0,0)"  stroke="rgb(255,0,0)" stroke-width="1" font-size="12" >8</text>
<text x="147.452579" y="71.533035" fill="rgb(255,0,0)"  stroke="rgb(255,0,0)" stroke-width="1" font-size="12" >9</text>
<text x="128.518939" y="104.800361" fill="rgb(255,0,0)"  stroke="rgb(255,0,0)" stroke-width="1" font-size="12" >10</text>
<text x="91.106433" y="104.800361" fill="rgb(255,0,0)"  stroke="rgb(255,0,0)" stroke-width="1" font-size="12" >11</text>
<text x="72.400180" y="72.400180" fill="rgb(255,0,0)"  stroke="rgb(255,0,0)" stroke-width="1" font-size="12" >12</text>
<text x="40.000000" y="53.693928" fill="rgb(255,0,0)"  stroke="rgb(255,0,0)" stroke-width="1" font-size="12" >13</text>
<text x="40.000000" y="91.106433" fill="rgb(255,0,0)"  stroke="rgb(255,0,0)" stroke-width="1" font-size="12" >14</text>
<text x="91.106433" y="40.000000" fill="rgb(255,0,0)"  stroke="rgb(255,0,0)" stroke-width="1" font-size="12" >15</text>
<text x="147.452579" y="137.068191" fill="rgb(255,0,0)"  stroke="rgb(255,0,0)" stroke-width="1" font-size="12" >16</text>
<text x="126.751040" y="172.370155" fill="rgb(255,0,0)"  stroke="rgb(255,0,0)" stroke-width="1" font-size="12" >17</text>
<text x="185.308502" y="137.068191" fill="rgb(255,0,0)"  stroke="rgb(255,0,0)" stroke-width="1" font-size="12" >18</text>
<text font-size="18.000000" fill ="black" font-family="sans-serif"
x="140.000000" y="20.000000" ></text>
<title> - OBDepict</title>
</svg>
