<?xml version="1.0"?>
<svg xmlns="http://www.w3.org/2000/svg"
xmlns:xlink="http://www.w3.org/1999/xlink" xmlns:cml="http://www.xml-cml.org/schema" x="0" y="0" font-family="sans-serif" stroke="rgb(0,0,0)" stroke-width="1" viewBox="0 0 291.951 260.811" width="233.5608" height="208.6488">
<line x1="236.7" y1="116.1" x2="246.6" y2="133.4"/>
<line x1="246.5" y1="152.2" x2="231.1" y2="178.9"/>
<line x1="231.1" y1="178.9" x2="246.5" y2="205.6"/>
<line x1="135.1" y1="73.8" x2="97.1" y2="73.8"/>
<line x1="97.1" y1="73.8" x2="78.1" y2="106.8"/>
<line x1="78.1" y1="109.8" x2="49.9" y2="109.8"/>
<line x1="78.1" y1="103.8" x2="49.9" y2="103.8"/>
<line x1="78.1" y1="106.8" x2="97.1" y2="139.7"/>
<line x1="97.1" y1="139.7" x2="83.0" y2="164.1"/>
<line x1="154.4" y1="106.7" x2="154.4" y2="144.7"/>
<line x1="154.4" y1="144.7" x2="187.3" y2="163.7"/>
<line x1="187.3" y1="163.7" x2="187.3" y2="201.8"/>
<line x1="188.8" y1="204.4" x2="164.5" y2="218.5"/>
<line x1="185.8" y1="199.2" x2="161.5" y2="213.3"/>
<line x1="187.3" y1="201.8" x2="211.7" y2="215.9"/>
<line x1="236.4" y1="97.9" x2="245.6" y2="81.6"/>
<line x1="245.6" y1="64.3" x2="231.4" y2="40.0"/>
<line x1="238.3" y1="66.0" x2="228.2" y2="48.8"/>
<line x1="231.4" y1="40.0" x2="202.9" y2="40.0"/>
<line x1="192.9" y1="57.3" x2="192.9" y2="106.7"/>
<line x1="192.9" y1="106.7" x2="221.4" y2="106.7"/>
<line x1="149.4" y1="48.8" x2="135.1" y2="73.8"/>
<line x1="154.6" y1="54.2" x2="144.4" y2="72.2"/>
<line x1="135.1" y1="73.8" x2="154.4" y2="106.7"/>
<line x1="154.4" y1="106.7" x2="192.9" y2="106.7"/>
<line x1="182.9" y1="40.0" x2="164.4" y2="40.0"/>
<text x="227.780958" y="114.975089" fill="rgb(12,12,255)"  stroke="rgb(12,12,255)" stroke-width="1" font-size="16" >N</text>
<text x="245.950767" y="147.640656" fill="rgb(12,12,255)"  stroke="rgb(12,12,255)" stroke-width="1" font-size="16" >NH</text>
<text x="245.950767" y="219.734602" fill="rgb(102,102,102)"  stroke="rgb(102,102,102)" stroke-width="1" font-size="16" >CH</text>
<text x="269.950767" y="224.534602" fill="rgb(102,102,102)"  stroke="rgb(102,102,102)" stroke-width="1" font-size="13" >3</text>
<text x="244.638157" y="81.139256" fill="rgb(12,12,255)"  stroke="rgb(12,12,255)" stroke-width="1" font-size="16" >N</text>
<text x="186.889666" y="48.320000" fill="rgb(12,12,255)"  stroke="rgb(12,12,255)" stroke-width="1" font-size="16" >N</text>
<text x="150.786822" y="48.320000" fill="rgb(12,12,255)"  stroke="rgb(12,12,255)" stroke-width="1" font-size="16" >N</text>
<text x="36.400000" y="111.589701" fill="rgb(255,12,12)"  stroke="rgb(255,12,12)" stroke-width="1" font-size="16" >O</text>
<text x="54.451849" y="177.497438" fill="rgb(102,102,102)"  stroke="rgb(102,102,102)" stroke-width="1" font-size="16" >H</text>
<text x="66.451849" y="182.297438" fill="rgb(102,102,102)"  stroke="rgb(102,102,102)" stroke-width="1" font-size="13" >3</text>
<text x="72.951849" y="177.497438" fill="rgb(102,102,102)"  stroke="rgb(102,102,102)" stroke-width="1" font-size="16" >C</text>
<text x="150.786822" y="225.610637" fill="rgb(255,12,12)"  stroke="rgb(255,12,12)" stroke-width="1" font-size="16" >O</text>
<text x="214.294559" y="225.610637" fill="rgb(102,102,102)"  stroke="rgb(102,102,102)" stroke-width="1" font-size="16" >CH</text>
<text x="238.294559" y="230.410637" fill="rgb(102,102,102)"  stroke="rgb(102,102,102)" stroke-width="1" font-size="13" >3</text>
<text x="231.380958" y="106.655089" fill="rgb(255,0,0)"  stroke="rgb(255,0,0)" stroke-width="1" font-size="12" >1</text>
<text x="251.950767" y="142.840656" fill="rgb(255,0,0)"  stroke="rgb(255,0,0)" stroke-width="1" font-size="12" >2</text>
<text x="231.139038" y="178.887629" fill="rgb(255,0,0)"  stroke="rgb(255,0,0)" stroke-width="1" font-size="12" >3</text>
<text x="251.950767" y="214.934602" fill="rgb(255,0,0)"  stroke="rgb(255,0,0)" stroke-width="1" font-size="12" >4</text>
<text x="250.638157" y="72.819256" fill="rgb(255,0,0)"  stroke="rgb(255,0,0)" stroke-width="1" font-size="12" >5</text>
<text x="231.380958" y="40.000000" fill="rgb(255,0,0)"  stroke="rgb(255,0,0)" stroke-width="1" font-size="12" >6</text>
<text x="192.889666" y="40.000000" fill="rgb(255,0,0)"  stroke="rgb(255,0,0)" stroke-width="1" font-size="12" >7</text>
<text x="154.386822" y="40.000000" fill="rgb(255,0,0)"  stroke="rgb(255,0,0)" stroke-width="1" font-size="12" >8</text>
<text x="135.129624" y="73.835833" fill="rgb(255,0,0)"  stroke="rgb(255,0,0)" stroke-width="1" font-size="12" >9</text>
<text x="97.077774" y="73.835833" fill="rgb(255,0,0)"  stroke="rgb(255,0,0)" stroke-width="1" font-size="12" >10</text>
<text x="78.051849" y="106.789701" fill="rgb(255,0,0)"  stroke="rgb(255,0,0)" stroke-width="1" font-size="12" >11</text>
<text x="40.000000" y="106.789701" fill="rgb(255,0,0)"  stroke="rgb(255,0,0)" stroke-width="1" font-size="12" >12</text>
<text x="97.077774" y="139.743569" fill="rgb(255,0,0)"  stroke="rgb(255,0,0)" stroke-width="1" font-size="12" >13</text>
<text x="78.051849" y="172.697438" fill="rgb(255,0,0)"  stroke="rgb(255,0,0)" stroke-width="1" font-size="12" >14</text>
<text x="154.386822" y="106.655089" fill="rgb(255,0,0)"  stroke="rgb(255,0,0)" stroke-width="1" font-size="12" >15</text>
<text x="154.386822" y="144.706938" fill="rgb(255,0,0)"  stroke="rgb(255,0,0)" stroke-width="1" font-size="12" >16</text>
<text x="187.340690" y="163.732863" fill="rgb(255,0,0)"  stroke="rgb(255,0,0)" stroke-width="1" font-size="12" >17</text>
<text x="187.340690" y="201.784713" fill="rgb(255,0,0)"  stroke="rgb(255,0,0)" stroke-width="1" font-size="12" >18</text>
<text x="154.386822" y="220.810637" fill="rgb(255,0,0)"  stroke="rgb(255,0,0)" stroke-width="1" font-size="12" >19</text>
<text x="220.294559" y="220.810637" fill="rgb(255,0,0)"  stroke="rgb(255,0,0)" stroke-width="1" font-size="12" >20</text>
<text x="192.889666" y="106.655089" fill="rgb(255,0,0)"  stroke="rgb(255,0,0)" stroke-width="1" font-size="12" >21</text>
<text font-size="18.000000" fill ="black" font-family="sans-serif"
x="140.000000" y="20.000000" ></text>
<title> - OBDepict</title>
</svg>
