<?xml version="1.0"?>
<svg xmlns="http://www.w3.org/2000/svg"
xmlns:xlink="http://www.w3.org/1999/xlink" xmlns:cml="http://www.xml-cml.org/schema" width="296.146" height="281.335" x="0" y="0" font-family="sans-serif" stroke="rgb(0,0,0)" stroke-width="1" >
<line x1="228.2" y1="146.2" x2="243.1" y2="172.5"/>
<line x1="243.1" y1="172.5" x2="222.7" y2="207.9"/>
<line x1="222.7" y1="207.9" x2="247.5" y2="225.3"/>
<line x1="222.7" y1="207.9" x2="192.6" y2="205.2"/>
<line x1="222.7" y1="207.9" x2="205.3" y2="232.6"/>
<line x1="128.4" y1="104.7" x2="91.0" y2="104.7"/>
<line x1="91.0" y1="104.7" x2="72.4" y2="72.4"/>
<line x1="72.4" y1="72.4" x2="48.4" y2="58.5"/>
<line x1="72.4" y1="72.4" x2="48.4" y2="86.2"/>
<line x1="72.4" y1="72.4" x2="86.2" y2="48.4"/>
<line x1="147.3" y1="137.0" x2="132.0" y2="163.0"/>
<line x1="227.9" y1="128.3" x2="236.9" y2="112.4"/>
<line x1="236.9" y1="95.3" x2="222.9" y2="71.5"/>
<line x1="229.6" y1="97.0" x2="219.8" y2="80.3"/>
<line x1="222.9" y1="71.5" x2="195.0" y2="71.5"/>
<line x1="185.1" y1="88.5" x2="185.1" y2="137.0"/>
<line x1="185.1" y1="137.0" x2="213.1" y2="137.0"/>
<line x1="142.4" y1="80.1" x2="128.4" y2="104.7"/>
<line x1="147.6" y1="85.6" x2="137.6" y2="103.1"/>
<line x1="128.4" y1="104.7" x2="147.3" y2="137.0"/>
<line x1="147.3" y1="137.0" x2="185.1" y2="137.0"/>
<line x1="175.3" y1="71.5" x2="157.2" y2="71.5"/>
<text x="219.341745" y="145.276193" fill="rgb(12,12,255)"  stroke="rgb(12,12,255)" stroke-width="1" font-size="16" >N</text>
<text x="250.145974" y="236.199854" fill="rgb(102,102,102)"  stroke="rgb(102,102,102)" stroke-width="1" font-size="16" >CH</text>
<text x="274.145974" y="240.999854" fill="rgb(102,102,102)"  stroke="rgb(102,102,102)" stroke-width="1" font-size="13" >3</text>
<text x="158.389354" y="212.576647" fill="rgb(102,102,102)"  stroke="rgb(102,102,102)" stroke-width="1" font-size="16" >H</text>
<text x="170.389354" y="220.256647" fill="rgb(102,102,102)"  stroke="rgb(102,102,102)" stroke-width="1" font-size="13" >3</text>
<text x="176.889354" y="212.576647" fill="rgb(102,102,102)"  stroke="rgb(102,102,102)" stroke-width="1" font-size="16" >C</text>
<text x="183.597457" y="246.134957" fill="rgb(255,12,12)"  stroke="rgb(255,12,12)" stroke-width="1" font-size="16" >HO</text>
<text x="235.853540" y="112.047251" fill="rgb(12,12,255)"  stroke="rgb(12,12,255)" stroke-width="1" font-size="16" >N</text>
<text x="179.140845" y="79.816652" fill="rgb(12,12,255)"  stroke="rgb(12,12,255)" stroke-width="1" font-size="16" >N</text>
<text x="143.728601" y="79.816652" fill="rgb(12,12,255)"  stroke="rgb(12,12,255)" stroke-width="1" font-size="16" >N</text>
<text x="16.400000" y="61.998127" fill="rgb(102,102,102)"  stroke="rgb(102,102,102)" stroke-width="1" font-size="16" >H</text>
<text x="28.400000" y="69.678127" fill="rgb(102,102,102)"  stroke="rgb(102,102,102)" stroke-width="1" font-size="13" >3</text>
<text x="34.900000" y="61.998127" fill="rgb(102,102,102)"  stroke="rgb(102,102,102)" stroke-width="1" font-size="16" >C</text>
<text x="16.400000" y="95.847467" fill="rgb(102,102,102)"  stroke="rgb(102,102,102)" stroke-width="1" font-size="16" >H</text>
<text x="28.400000" y="100.647467" fill="rgb(102,102,102)"  stroke="rgb(102,102,102)" stroke-width="1" font-size="13" >3</text>
<text x="34.900000" y="95.847467" fill="rgb(102,102,102)"  stroke="rgb(102,102,102)" stroke-width="1" font-size="16" >C</text>
<text x="85.047467" y="48.320000" fill="rgb(255,12,12)"  stroke="rgb(255,12,12)" stroke-width="1" font-size="16" >OH</text>
<text x="111.050947" y="177.017426" fill="rgb(124,127,175)"  stroke="rgb(124,127,175)" stroke-width="1" font-size="16" >R</text>
<text x="222.941745" y="136.956193" fill="rgb(255,0,0)"  stroke="rgb(255,0,0)" stroke-width="1" font-size="12" >1</text>
<text x="243.142607" y="172.492725" fill="rgb(255,0,0)"  stroke="rgb(255,0,0)" stroke-width="1" font-size="12" >2</text>
<text x="222.704164" y="207.893147" fill="rgb(255,0,0)"  stroke="rgb(255,0,0)" stroke-width="1" font-size="12" >3</text>
<text x="256.145974" y="231.399854" fill="rgb(255,0,0)"  stroke="rgb(255,0,0)" stroke-width="1" font-size="12" >4</text>
<text x="181.989354" y="204.256647" fill="rgb(255,0,0)"  stroke="rgb(255,0,0)" stroke-width="1" font-size="12" >5</text>
<text x="199.197457" y="241.334957" fill="rgb(255,0,0)"  stroke="rgb(255,0,0)" stroke-width="1" font-size="12" >6</text>
<text x="241.853540" y="103.727251" fill="rgb(255,0,0)"  stroke="rgb(255,0,0)" stroke-width="1" font-size="12" >7</text>
<text x="222.941745" y="71.496652" fill="rgb(255,0,0)"  stroke="rgb(255,0,0)" stroke-width="1" font-size="12" >8</text>
<text x="185.140845" y="71.496652" fill="rgb(255,0,0)"  stroke="rgb(255,0,0)" stroke-width="1" font-size="12" >9</text>
<text x="147.328601" y="71.496652" fill="rgb(255,0,0)"  stroke="rgb(255,0,0)" stroke-width="1" font-size="12" >10</text>
<text x="128.416806" y="104.725594" fill="rgb(255,0,0)"  stroke="rgb(255,0,0)" stroke-width="1" font-size="12" >11</text>
<text x="91.047467" y="104.725594" fill="rgb(255,0,0)"  stroke="rgb(255,0,0)" stroke-width="1" font-size="12" >12</text>
<text x="72.362797" y="72.362797" fill="rgb(255,0,0)"  stroke="rgb(255,0,0)" stroke-width="1" font-size="12" >13</text>
<text x="40.000000" y="53.678127" fill="rgb(255,0,0)"  stroke="rgb(255,0,0)" stroke-width="1" font-size="12" >14</text>
<text x="40.000000" y="91.047467" fill="rgb(255,0,0)"  stroke="rgb(255,0,0)" stroke-width="1" font-size="12" >15</text>
<text x="91.047467" y="40.000000" fill="rgb(255,0,0)"  stroke="rgb(255,0,0)" stroke-width="1" font-size="12" >16</text>
<text x="147.328601" y="136.956193" fill="rgb(255,0,0)"  stroke="rgb(255,0,0)" stroke-width="1" font-size="12" >17</text>
<text x="126.650947" y="172.217426" fill="rgb(255,0,0)"  stroke="rgb(255,0,0)" stroke-width="1" font-size="12" >18</text>
<text x="185.140845" y="136.956193" fill="rgb(255,0,0)"  stroke="rgb(255,0,0)" stroke-width="1" font-size="12" >19</text>
<text font-size="18.000000" fill ="black" font-family="sans-serif"
x="140.000000" y="20.000000" ></text>
<title> - OBDepict</title>
</svg>
