<?xml version="1.0"?>
<svg xmlns="http://www.w3.org/2000/svg"
xmlns:xlink="http://www.w3.org/1999/xlink" xmlns:cml="http://www.xml-cml.org/schema" x="0" y="0" font-family="sans-serif" stroke="rgb(0,0,0)" stroke-width="1" viewBox="0 0 348.786 241.639" width="279.0288" height="193.3112">
<line x1="293.6" y1="116.0" x2="303.4" y2="133.3"/>
<line x1="192.1" y1="73.8" x2="154.1" y2="73.8"/>
<line x1="154.1" y1="73.8" x2="135.0" y2="106.7"/>
<line x1="135.0" y1="106.7" x2="97.0" y2="106.7"/>
<line x1="97.0" y1="106.7" x2="78.0" y2="139.7"/>
<line x1="78.0" y1="139.7" x2="49.9" y2="139.7"/>
<line x1="211.3" y1="106.6" x2="211.3" y2="144.6"/>
<line x1="211.3" y1="144.6" x2="235.7" y2="158.7"/>
<line x1="244.2" y1="173.5" x2="244.2" y2="191.8"/>
<line x1="293.2" y1="97.8" x2="302.5" y2="81.6"/>
<line x1="302.5" y1="64.3" x2="288.2" y2="40.0"/>
<line x1="295.1" y1="66.0" x2="285.1" y2="48.8"/>
<line x1="288.2" y1="40.0" x2="259.8" y2="40.0"/>
<line x1="249.8" y1="57.3" x2="249.8" y2="106.6"/>
<line x1="249.8" y1="106.6" x2="278.2" y2="106.6"/>
<line x1="206.3" y1="48.8" x2="192.1" y2="73.8"/>
<line x1="211.5" y1="54.2" x2="201.3" y2="72.2"/>
<line x1="192.1" y1="73.8" x2="211.3" y2="106.6"/>
<line x1="211.3" y1="106.6" x2="249.8" y2="106.6"/>
<line x1="239.8" y1="40.0" x2="221.3" y2="40.0"/>
<text x="284.634844" y="114.915025" fill="rgb(12,12,255)"  stroke="rgb(12,12,255)" stroke-width="1" font-size="16" >N</text>
<text x="302.786117" y="147.547986" fill="rgb(124,127,175)"  stroke="rgb(124,127,175)" stroke-width="1" font-size="16" >R</text>
<text x="301.474690" y="81.109682" fill="rgb(12,12,255)"  stroke="rgb(12,12,255)" stroke-width="1" font-size="16" >N</text>
<text x="243.778237" y="48.320000" fill="rgb(12,12,255)"  stroke="rgb(12,12,255)" stroke-width="1" font-size="16" >N</text>
<text x="207.710088" y="48.320000" fill="rgb(12,12,255)"  stroke="rgb(12,12,255)" stroke-width="1" font-size="16" >N</text>
<text x="16.400000" y="144.453690" fill="rgb(102,102,102)"  stroke="rgb(102,102,102)" stroke-width="1" font-size="16" >H</text>
<text x="28.400000" y="149.253690" fill="rgb(102,102,102)"  stroke="rgb(102,102,102)" stroke-width="1" font-size="13" >3</text>
<text x="34.900000" y="144.453690" fill="rgb(102,102,102)"  stroke="rgb(102,102,102)" stroke-width="1" font-size="16" >C</text>
<text x="238.234261" y="171.941366" fill="rgb(12,12,255)"  stroke="rgb(12,12,255)" stroke-width="1" font-size="16" >NH</text>
<text x="238.234261" y="206.438927" fill="rgb(102,102,102)"  stroke="rgb(102,102,102)" stroke-width="1" font-size="16" >CH</text>
<text x="262.234261" y="211.238927" fill="rgb(102,102,102)"  stroke="rgb(102,102,102)" stroke-width="1" font-size="13" >3</text>
<text x="288.234844" y="106.595025" fill="rgb(255,0,0)"  stroke="rgb(255,0,0)" stroke-width="1" font-size="12" >1</text>
<text x="308.786117" y="142.747986" fill="rgb(255,0,0)"  stroke="rgb(255,0,0)" stroke-width="1" font-size="12" >2</text>
<text x="307.474690" y="72.789682" fill="rgb(255,0,0)"  stroke="rgb(255,0,0)" stroke-width="1" font-size="12" >3</text>
<text x="288.234844" y="40.000000" fill="rgb(255,0,0)"  stroke="rgb(255,0,0)" stroke-width="1" font-size="12" >4</text>
<text x="249.778237" y="40.000000" fill="rgb(255,0,0)"  stroke="rgb(255,0,0)" stroke-width="1" font-size="12" >5</text>
<text x="211.310088" y="40.000000" fill="rgb(255,0,0)"  stroke="rgb(255,0,0)" stroke-width="1" font-size="12" >6</text>
<text x="192.070243" y="73.805343" fill="rgb(255,0,0)"  stroke="rgb(255,0,0)" stroke-width="1" font-size="12" >7</text>
<text x="154.052682" y="73.805343" fill="rgb(255,0,0)"  stroke="rgb(255,0,0)" stroke-width="1" font-size="12" >8</text>
<text x="135.043902" y="106.729516" fill="rgb(255,0,0)"  stroke="rgb(255,0,0)" stroke-width="1" font-size="12" >9</text>
<text x="97.026341" y="106.729516" fill="rgb(255,0,0)"  stroke="rgb(255,0,0)" stroke-width="1" font-size="12" >10</text>
<text x="78.017561" y="139.653690" fill="rgb(255,0,0)"  stroke="rgb(255,0,0)" stroke-width="1" font-size="12" >11</text>
<text x="40.000000" y="139.653690" fill="rgb(255,0,0)"  stroke="rgb(255,0,0)" stroke-width="1" font-size="12" >12</text>
<text x="211.310088" y="106.595025" fill="rgb(255,0,0)"  stroke="rgb(255,0,0)" stroke-width="1" font-size="12" >13</text>
<text x="211.310088" y="144.612586" fill="rgb(255,0,0)"  stroke="rgb(255,0,0)" stroke-width="1" font-size="12" >14</text>
<text x="244.234261" y="163.621366" fill="rgb(255,0,0)"  stroke="rgb(255,0,0)" stroke-width="1" font-size="12" >15</text>
<text x="244.234261" y="201.638927" fill="rgb(255,0,0)"  stroke="rgb(255,0,0)" stroke-width="1" font-size="12" >16</text>
<text x="249.778237" y="106.595025" fill="rgb(255,0,0)"  stroke="rgb(255,0,0)" stroke-width="1" font-size="12" >17</text>
<text font-size="18.000000" fill ="black" font-family="sans-serif"
x="140.000000" y="20.000000" ></text>
<title> - OBDepict</title>
</svg>
