<?xml version="1.0"?>
<svg xmlns="http://www.w3.org/2000/svg"
xmlns:xlink="http://www.w3.org/1999/xlink" xmlns:cml="http://www.xml-cml.org/schema" width="232.251" height="282.753" x="0" y="0" font-family="sans-serif" stroke="rgb(0,0,0)" stroke-width="1" >
<line x1="177.6" y1="113.1" x2="192.3" y2="138.8"/>
<line x1="192.3" y1="138.8" x2="172.3" y2="173.5"/>
<line x1="172.3" y1="173.5" x2="192.3" y2="208.1"/>
<line x1="192.3" y1="208.1" x2="177.5" y2="233.7"/>
<line x1="80.0" y1="72.5" x2="50.4" y2="73.3"/>
<line x1="98.5" y1="104.1" x2="83.5" y2="129.6"/>
<line x1="177.3" y1="95.6" x2="186.2" y2="80.0"/>
<line x1="186.2" y1="63.3" x2="172.5" y2="40.0"/>
<line x1="178.8" y1="65.0" x2="169.3" y2="48.8"/>
<line x1="172.5" y1="40.0" x2="145.1" y2="40.0"/>
<line x1="135.5" y1="56.7" x2="135.5" y2="104.1"/>
<line x1="135.5" y1="104.1" x2="162.9" y2="104.1"/>
<line x1="93.7" y1="48.5" x2="80.0" y2="72.5"/>
<line x1="98.8" y1="54.0" x2="89.2" y2="70.9"/>
<line x1="80.0" y1="72.5" x2="98.5" y2="104.1"/>
<line x1="98.5" y1="104.1" x2="135.5" y2="104.1"/>
<line x1="125.9" y1="40.0" x2="108.1" y2="40.0"/>
<text x="168.883274" y="112.375310" fill="rgb(12,12,255)"  stroke="rgb(12,12,255)" stroke-width="1" font-size="16" >N</text>
<text x="148.650789" y="247.552564" fill="rgb(102,102,102)"  stroke="rgb(102,102,102)" stroke-width="1" font-size="16" >H</text>
<text x="160.650789" y="252.352564" fill="rgb(102,102,102)"  stroke="rgb(102,102,102)" stroke-width="1" font-size="13" >3</text>
<text x="167.150789" y="247.552564" fill="rgb(102,102,102)"  stroke="rgb(102,102,102)" stroke-width="1" font-size="16" >C</text>
<text x="184.989374" y="79.859192" fill="rgb(12,12,255)"  stroke="rgb(12,12,255)" stroke-width="1" font-size="16" >N</text>
<text x="129.493275" y="48.320000" fill="rgb(12,12,255)"  stroke="rgb(12,12,255)" stroke-width="1" font-size="16" >N</text>
<text x="94.892175" y="48.320000" fill="rgb(12,12,255)"  stroke="rgb(12,12,255)" stroke-width="1" font-size="16" >N</text>
<text x="24.400000" y="78.371540" fill="rgb(124,127,175)"  stroke="rgb(124,127,175)" stroke-width="1" font-size="16" >Zn</text>
<text x="62.658096" y="143.360122" fill="rgb(124,127,175)"  stroke="rgb(124,127,175)" stroke-width="1" font-size="16" >Zn</text>
<text x="172.483274" y="104.055310" fill="rgb(255,0,0)"  stroke="rgb(255,0,0)" stroke-width="1" font-size="12" >1</text>
<text x="192.250789" y="138.829515" fill="rgb(255,0,0)"  stroke="rgb(255,0,0)" stroke-width="1" font-size="12" >2</text>
<text x="172.250789" y="173.470531" fill="rgb(255,0,0)"  stroke="rgb(255,0,0)" stroke-width="1" font-size="12" >3</text>
<text x="192.250789" y="208.111548" fill="rgb(255,0,0)"  stroke="rgb(255,0,0)" stroke-width="1" font-size="12" >4</text>
<text x="172.250789" y="242.752564" fill="rgb(255,0,0)"  stroke="rgb(255,0,0)" stroke-width="1" font-size="12" >5</text>
<text x="190.989374" y="71.539192" fill="rgb(255,0,0)"  stroke="rgb(255,0,0)" stroke-width="1" font-size="12" >6</text>
<text x="172.483274" y="40.000000" fill="rgb(255,0,0)"  stroke="rgb(255,0,0)" stroke-width="1" font-size="12" >7</text>
<text x="135.493275" y="40.000000" fill="rgb(255,0,0)"  stroke="rgb(255,0,0)" stroke-width="1" font-size="12" >8</text>
<text x="98.492175" y="40.000000" fill="rgb(255,0,0)"  stroke="rgb(255,0,0)" stroke-width="1" font-size="12" >9</text>
<text x="79.986074" y="72.516118" fill="rgb(255,0,0)"  stroke="rgb(255,0,0)" stroke-width="1" font-size="12" >10</text>
<text x="40.000000" y="73.571540" fill="rgb(255,0,0)"  stroke="rgb(255,0,0)" stroke-width="1" font-size="12" >11</text>
<text x="98.492175" y="104.055310" fill="rgb(255,0,0)"  stroke="rgb(255,0,0)" stroke-width="1" font-size="12" >12</text>
<text x="78.258096" y="138.560122" fill="rgb(255,0,0)"  stroke="rgb(255,0,0)" stroke-width="1" font-size="12" >13</text>
<text x="135.493275" y="104.055310" fill="rgb(255,0,0)"  stroke="rgb(255,0,0)" stroke-width="1" font-size="12" >14</text>
<text font-size="18.000000" fill ="black" font-family="sans-serif"
x="140.000000" y="20.000000" ></text>
<title> - OBDepict</title>
</svg>
