<?xml version="1.0" encoding="UTF-8" standalone="no"?>
<!-- Created with Inkscape (http://www.inkscape.org/) -->
<svg id="svg2" xmlns:rdf="http://www.w3.org/1999/02/22-rdf-syntax-ns#" xmlns="http://www.w3.org/2000/svg" height="134.31" width="168.33" version="1.1" xmlns:cc="http://creativecommons.org/ns#" xmlns:dc="http://purl.org/dc/elements/1.1/">
 <metadata id="metadata7">
  <rdf:RDF>
   <cc:Work rdf:about="">
    <dc:format>image/svg+xml</dc:format>
    <dc:type rdf:resource="http://purl.org/dc/dcmitype/StillImage"/>
    <dc:title/>
   </cc:Work>
  </rdf:RDF>
 </metadata>
 <g id="layer1" transform="translate(-105.10091,-226.18195)">
  <text id="text3001" style="letter-spacing:0px;word-spacing:0px;" font-weight="normal" xml:space="preserve" transform="matrix(0.76226143,-0.64726927,0.64726927,0.76226143,0,0)" font-size="40px" font-style="normal" y="393.90759" x="195.47617" font-family="Sans" line-height="125%" fill="#000000"><tspan id="tspan3003" x="195.47617" y="393.90759"/></text>
  <text id="text3144" style="letter-spacing:0px;word-spacing:0px;" font-weight="normal" xml:space="preserve" transform="matrix(0.76226143,-0.64726927,0.64726927,0.76226143,0,0)" font-size="40px" font-style="normal" y="351.93433" x="-27.991087" font-family="Sans" line-height="125%" fill="#000000"><tspan id="tspan3146" x="-27.991087" y="351.93433"/></text>
  <text id="text4021" style="letter-spacing:0px;word-spacing:0px;" font-weight="normal" xml:space="preserve" font-size="40px" font-style="normal" y="312.3425" x="140.03873" font-family="Sans" line-height="125%" fill="#000000"><tspan id="tspan4023" font-size="20px" dy="0 9.3439102" y="312.3425" x="140.03873">R<tspan id="tspan4027" font-size="14px" dy="6.3134542">2</tspan></tspan></text>
  <text id="text4021-6" style="letter-spacing:0px;word-spacing:0px;" font-weight="normal" xml:space="preserve" font-size="40px" font-style="normal" y="247.10399" x="103.13802" font-family="Sans" line-height="125%" fill="#000000"><tspan id="tspan4023-9" font-size="20px" dy="0" y="247.10399" x="103.13802">R<tspan id="tspan4053" font-size="14px" dy="7.8286834">3</tspan></tspan></text>
  <text id="text4021-3" style="letter-spacing:0px;word-spacing:0px;" font-weight="normal" xml:space="preserve" font-size="40px" font-style="normal" y="354.43585" x="227.34247" font-family="Sans" line-height="125%" fill="#000000"><tspan id="tspan4023-6" font-size="20px" dy="0" y="354.43585" x="227.34247">R<tspan id="tspan4027-6" font-size="14px" dy="6.0609159">1</tspan></tspan></text>
  <text id="text4088" style="letter-spacing:0px;word-spacing:0px;" font-weight="normal" xml:space="preserve" font-size="20px" font-style="normal" y="255.22198" x="209.41183" font-family="Sans" line-height="125%" fill="#000000"><tspan id="tspan4090" x="209.41183" y="255.22198">N</tspan></text>
  <text id="text4088-5" style="letter-spacing:0px;word-spacing:0px;" font-weight="normal" xml:space="preserve" font-size="20px" font-style="normal" y="240.76202" x="178.93137" font-family="Sans" line-height="125%" fill="#000000"><tspan id="tspan4090-9" x="178.93137" y="240.76202">N</tspan></text>
  <text id="text4088-51" style="letter-spacing:0px;word-spacing:0px;" font-weight="normal" xml:space="preserve" font-size="20px" font-style="normal" y="289.38702" x="260.43137" font-family="Sans" line-height="125%" fill="#000000"><tspan id="tspan4090-4" x="260.43137" y="289.38702">N</tspan></text>
  <text id="text4088-3" style="letter-spacing:0px;word-spacing:0px;" font-weight="normal" xml:space="preserve" font-size="20px" font-style="normal" y="311.01202" x="231.93137" font-family="Sans" line-height="125%" fill="#000000"><tspan id="tspan4090-44" x="231.93137" y="311.01202">N</tspan></text>
  <path id="path4161" stroke-linejoin="miter" d="m240.57,317.84,0,20.766m14.459-80.229,6.3968,16.573m-12.503,23.697,14.393-7.9959m-33.523,7.9017-26.214-13.261m-39.413-27.497,16.283-14.538m-24.507,56.698,13.933-15.295m-40.826-34.952,26.618,6.7921m48.279,28.747-34.071-0.58742-14.098-28.196,22.322-19.973m16.306,3.1313,13.375,8.1413m6.3867,10.286-10.691,27.088m22.913-34.03,32.275,0,8.7228,22.389" stroke="#000" stroke-linecap="butt" stroke-width="1.16304541px" fill="none"/>
  <path id="path5256" d="m24.781,23.752c0,0.22437-0.18188,0.40625-0.40625,0.40625s-0.40625-0.18188-0.40625-0.40625c0-0.22436,0.18188-0.40625,0.40625-0.40625s0.40625,0.18188,0.40625,0.40625z" fill-opacity="0.69406391" transform="translate(105.00716,225.9632)" slotRotation="-15" ide="slot2" fill="#00a8ff"/>
  <path id="path5256-9" d="m24.781,23.752c0,0.22437-0.18188,0.40625-0.40625,0.40625s-0.40625-0.18188-0.40625-0.40625c0-0.22436,0.18188-0.40625,0.40625-0.40625s0.40625,0.18188,0.40625,0.40625z" fill-opacity="0.69406391" transform="translate(131.72599,275.93326)" slotRotation="45" ide="slot1" fill="#00a8ff"/>
  <path id="path5256-3" d="m24.781,23.752c0,0.22437-0.18188,0.40625-0.40625,0.40625s-0.40625-0.18188-0.40625-0.40625c0-0.22436,0.18188-0.40625,0.40625-0.40625s0.40625,0.18188,0.40625,0.40625z" fill-opacity="0.69406391" transform="translate(216.17904,314.43194)" slotRotation="90" ide="slot0" fill="#00a8ff"/>
 </g>
</svg>
