<?xml version="1.0"?>
<svg xmlns="http://www.w3.org/2000/svg"
xmlns:xlink="http://www.w3.org/1999/xlink" xmlns:cml="http://www.xml-cml.org/schema" x="0" y="0" font-family="sans-serif" stroke="rgb(0,0,0)" stroke-width="1" viewBox="0 0 367.388 254.53" width="293.9104" height="203.624">
<line x1="312.2" y1="115.9" x2="327.4" y2="142.6"/>
<line x1="327.4" y1="142.6" x2="312.0" y2="169.2"/>
<line x1="312.0" y1="187.9" x2="322.0" y2="205.2"/>
<line x1="210.8" y1="73.8" x2="172.9" y2="73.8"/>
<line x1="172.9" y1="73.8" x2="153.9" y2="106.6"/>
<line x1="153.9" y1="106.6" x2="115.9" y2="106.6"/>
<line x1="115.9" y1="106.6" x2="96.9" y2="139.5"/>
<line x1="96.9" y1="139.5" x2="68.9" y2="139.5"/>
<line x1="54.0" y1="148.1" x2="44.9" y2="163.8"/>
<line x1="230.0" y1="106.5" x2="230.0" y2="144.5"/>
<line x1="230.0" y1="144.5" x2="254.4" y2="158.5"/>
<line x1="262.9" y1="173.3" x2="262.9" y2="191.5"/>
<line x1="311.9" y1="97.7" x2="321.1" y2="81.5"/>
<line x1="321.1" y1="64.2" x2="306.9" y2="40.0"/>
<line x1="313.8" y1="66.0" x2="303.7" y2="48.8"/>
<line x1="306.9" y1="40.0" x2="278.4" y2="40.0"/>
<line x1="268.5" y1="57.3" x2="268.5" y2="106.5"/>
<line x1="268.5" y1="106.5" x2="296.9" y2="106.5"/>
<line x1="225.1" y1="48.8" x2="210.8" y2="73.8"/>
<line x1="230.3" y1="54.2" x2="220.1" y2="72.1"/>
<line x1="210.8" y1="73.8" x2="230.0" y2="106.5"/>
<line x1="230.0" y1="106.5" x2="268.5" y2="106.5"/>
<line x1="258.5" y1="40.0" x2="240.0" y2="40.0"/>
<text x="303.265735" y="114.820858" fill="rgb(12,12,255)"  stroke="rgb(12,12,255)" stroke-width="1" font-size="16" >N</text>
<text x="291.024374" y="183.366262" fill="rgb(12,12,255)"  stroke="rgb(12,12,255)" stroke-width="1" font-size="16" >HN</text>
<text x="321.387948" y="219.329827" fill="rgb(102,102,102)"  stroke="rgb(102,102,102)" stroke-width="1" font-size="16" >CH</text>
<text x="345.387948" y="224.129827" fill="rgb(102,102,102)"  stroke="rgb(102,102,102)" stroke-width="1" font-size="13" >3</text>
<text x="320.078375" y="81.063317" fill="rgb(12,12,255)"  stroke="rgb(12,12,255)" stroke-width="1" font-size="16" >N</text>
<text x="262.463506" y="48.320000" fill="rgb(12,12,255)"  stroke="rgb(12,12,255)" stroke-width="1" font-size="16" >N</text>
<text x="226.449752" y="48.320000" fill="rgb(12,12,255)"  stroke="rgb(12,12,255)" stroke-width="1" font-size="16" >N</text>
<text x="43.381901" y="147.832777" fill="rgb(12,12,255)"  stroke="rgb(12,12,255)" stroke-width="1" font-size="16" >HN</text>
<text x="16.400000" y="177.190394" fill="rgb(102,102,102)"  stroke="rgb(102,102,102)" stroke-width="1" font-size="16" >H</text>
<text x="28.400000" y="181.990394" fill="rgb(102,102,102)"  stroke="rgb(102,102,102)" stroke-width="1" font-size="13" >3</text>
<text x="34.900000" y="177.190394" fill="rgb(102,102,102)"  stroke="rgb(102,102,102)" stroke-width="1" font-size="16" >C</text>
<text x="256.927370" y="171.766563" fill="rgb(12,12,255)"  stroke="rgb(12,12,255)" stroke-width="1" font-size="16" >NH</text>
<text x="256.927370" y="206.210365" fill="rgb(102,102,102)"  stroke="rgb(102,102,102)" stroke-width="1" font-size="16" >CH</text>
<text x="280.927370" y="211.010365" fill="rgb(102,102,102)"  stroke="rgb(102,102,102)" stroke-width="1" font-size="13" >3</text>
<text x="306.865735" y="106.500858" fill="rgb(255,0,0)"  stroke="rgb(255,0,0)" stroke-width="1" font-size="12" >1</text>
<text x="327.387948" y="142.602697" fill="rgb(255,0,0)"  stroke="rgb(255,0,0)" stroke-width="1" font-size="12" >2</text>
<text x="306.624374" y="178.566262" fill="rgb(255,0,0)"  stroke="rgb(255,0,0)" stroke-width="1" font-size="12" >3</text>
<text x="327.387948" y="214.529827" fill="rgb(255,0,0)"  stroke="rgb(255,0,0)" stroke-width="1" font-size="12" >4</text>
<text x="326.078375" y="72.743317" fill="rgb(255,0,0)"  stroke="rgb(255,0,0)" stroke-width="1" font-size="12" >5</text>
<text x="306.865735" y="40.000000" fill="rgb(255,0,0)"  stroke="rgb(255,0,0)" stroke-width="1" font-size="12" >6</text>
<text x="268.463506" y="40.000000" fill="rgb(255,0,0)"  stroke="rgb(255,0,0)" stroke-width="1" font-size="12" >7</text>
<text x="230.049752" y="40.000000" fill="rgb(255,0,0)"  stroke="rgb(255,0,0)" stroke-width="1" font-size="12" >8</text>
<text x="210.837113" y="73.757541" fill="rgb(255,0,0)"  stroke="rgb(255,0,0)" stroke-width="1" font-size="12" >9</text>
<text x="172.873310" y="73.757541" fill="rgb(255,0,0)"  stroke="rgb(255,0,0)" stroke-width="1" font-size="12" >10</text>
<text x="153.891408" y="106.635159" fill="rgb(255,0,0)"  stroke="rgb(255,0,0)" stroke-width="1" font-size="12" >11</text>
<text x="115.927606" y="106.635159" fill="rgb(255,0,0)"  stroke="rgb(255,0,0)" stroke-width="1" font-size="12" >12</text>
<text x="96.945704" y="139.512777" fill="rgb(255,0,0)"  stroke="rgb(255,0,0)" stroke-width="1" font-size="12" >13</text>
<text x="58.981901" y="139.512777" fill="rgb(255,0,0)"  stroke="rgb(255,0,0)" stroke-width="1" font-size="12" >14</text>
<text x="40.000000" y="172.390394" fill="rgb(255,0,0)"  stroke="rgb(255,0,0)" stroke-width="1" font-size="12" >15</text>
<text x="230.049752" y="106.500858" fill="rgb(255,0,0)"  stroke="rgb(255,0,0)" stroke-width="1" font-size="12" >16</text>
<text x="230.049752" y="144.464661" fill="rgb(255,0,0)"  stroke="rgb(255,0,0)" stroke-width="1" font-size="12" >17</text>
<text x="262.927370" y="163.446563" fill="rgb(255,0,0)"  stroke="rgb(255,0,0)" stroke-width="1" font-size="12" >18</text>
<text x="262.927370" y="201.410365" fill="rgb(255,0,0)"  stroke="rgb(255,0,0)" stroke-width="1" font-size="12" >19</text>
<text x="268.463506" y="106.500858" fill="rgb(255,0,0)"  stroke="rgb(255,0,0)" stroke-width="1" font-size="12" >20</text>
<text font-size="18.000000" fill ="black" font-family="sans-serif"
x="140.000000" y="20.000000" ></text>
<title> - OBDepict</title>
</svg>
