<?xml version="1.0"?>
<svg xmlns="http://www.w3.org/2000/svg"
xmlns:xlink="http://www.w3.org/1999/xlink" xmlns:cml="http://www.xml-cml.org/schema" x="0" y="0" font-family="sans-serif" stroke="rgb(0,0,0)" stroke-width="1" viewBox="0 0 404.782 287.848" width="323.8256" height="230.2784">
<line x1="308.8" y1="114.9" x2="318.5" y2="132.0"/>
<line x1="318.4" y1="150.5" x2="303.3" y2="176.8"/>
<line x1="303.3" y1="176.8" x2="323.8" y2="212.3"/>
<line x1="323.8" y1="212.3" x2="308.6" y2="238.6"/>
<line x1="323.8" y1="212.3" x2="354.1" y2="212.3"/>
<line x1="208.7" y1="73.3" x2="171.2" y2="73.3"/>
<line x1="171.2" y1="73.3" x2="152.5" y2="105.8"/>
<line x1="152.5" y1="105.8" x2="115.0" y2="105.8"/>
<line x1="115.0" y1="105.8" x2="96.2" y2="138.3"/>
<line x1="96.2" y1="138.3" x2="68.5" y2="138.3"/>
<line x1="53.9" y1="146.7" x2="44.9" y2="162.3"/>
<line x1="227.7" y1="105.7" x2="212.3" y2="131.8"/>
<line x1="308.4" y1="97.0" x2="317.6" y2="81.0"/>
<line x1="317.6" y1="63.9" x2="303.5" y2="40.0"/>
<line x1="310.2" y1="65.6" x2="300.3" y2="48.8"/>
<line x1="303.5" y1="40.0" x2="275.5" y2="40.0"/>
<line x1="265.6" y1="57.1" x2="265.6" y2="105.7"/>
<line x1="265.6" y1="105.7" x2="293.7" y2="105.7"/>
<line x1="222.7" y1="48.7" x2="208.7" y2="73.3"/>
<line x1="227.9" y1="54.1" x2="217.9" y2="71.7"/>
<line x1="208.7" y1="73.3" x2="227.7" y2="105.7"/>
<line x1="227.7" y1="105.7" x2="265.6" y2="105.7"/>
<line x1="255.7" y1="40.0" x2="237.5" y2="40.0"/>
<text x="299.912218" y="113.985188" fill="rgb(12,12,255)"  stroke="rgb(12,12,255)" stroke-width="1" font-size="16" >N</text>
<text x="317.776542" y="146.113360" fill="rgb(12,12,255)"  stroke="rgb(12,12,255)" stroke-width="1" font-size="16" >NH</text>
<text x="287.673890" y="252.648267" fill="rgb(255,12,12)"  stroke="rgb(255,12,12)" stroke-width="1" font-size="16" >HO</text>
<text x="358.781847" y="217.136631" fill="rgb(102,102,102)"  stroke="rgb(102,102,102)" stroke-width="1" font-size="16" >CH</text>
<text x="382.781847" y="221.936631" fill="rgb(102,102,102)"  stroke="rgb(102,102,102)" stroke-width="1" font-size="13" >3</text>
<text x="316.483425" y="80.651854" fill="rgb(12,12,255)"  stroke="rgb(12,12,255)" stroke-width="1" font-size="16" >N</text>
<text x="259.592563" y="48.320000" fill="rgb(12,12,255)"  stroke="rgb(12,12,255)" stroke-width="1" font-size="16" >N</text>
<text x="224.061528" y="48.320000" fill="rgb(12,12,255)"  stroke="rgb(12,12,255)" stroke-width="1" font-size="16" >N</text>
<text x="43.143369" y="146.582268" fill="rgb(12,12,255)"  stroke="rgb(12,12,255)" stroke-width="1" font-size="16" >HN</text>
<text x="16.400000" y="175.526736" fill="rgb(102,102,102)"  stroke="rgb(102,102,102)" stroke-width="1" font-size="16" >H</text>
<text x="28.400000" y="180.326736" fill="rgb(102,102,102)"  stroke="rgb(102,102,102)" stroke-width="1" font-size="13" >3</text>
<text x="34.900000" y="175.526736" fill="rgb(102,102,102)"  stroke="rgb(102,102,102)" stroke-width="1" font-size="16" >C</text>
<text x="191.318914" y="145.837196" fill="rgb(124,127,175)"  stroke="rgb(124,127,175)" stroke-width="1" font-size="16" >R</text>
<text x="303.512218" y="105.665188" fill="rgb(255,0,0)"  stroke="rgb(255,0,0)" stroke-width="1" font-size="12" >1</text>
<text x="323.776542" y="141.313360" fill="rgb(255,0,0)"  stroke="rgb(255,0,0)" stroke-width="1" font-size="12" >2</text>
<text x="303.273890" y="176.824996" fill="rgb(255,0,0)"  stroke="rgb(255,0,0)" stroke-width="1" font-size="12" >3</text>
<text x="323.776542" y="212.336631" fill="rgb(255,0,0)"  stroke="rgb(255,0,0)" stroke-width="1" font-size="12" >4</text>
<text x="303.273890" y="247.848267" fill="rgb(255,0,0)"  stroke="rgb(255,0,0)" stroke-width="1" font-size="12" >5</text>
<text x="364.781847" y="212.336631" fill="rgb(255,0,0)"  stroke="rgb(255,0,0)" stroke-width="1" font-size="12" >6</text>
<text x="322.483425" y="72.331854" fill="rgb(255,0,0)"  stroke="rgb(255,0,0)" stroke-width="1" font-size="12" >7</text>
<text x="303.512218" y="40.000000" fill="rgb(255,0,0)"  stroke="rgb(255,0,0)" stroke-width="1" font-size="12" >8</text>
<text x="265.592563" y="40.000000" fill="rgb(255,0,0)"  stroke="rgb(255,0,0)" stroke-width="1" font-size="12" >9</text>
<text x="227.661528" y="40.000000" fill="rgb(255,0,0)"  stroke="rgb(255,0,0)" stroke-width="1" font-size="12" >10</text>
<text x="208.690321" y="73.333334" fill="rgb(255,0,0)"  stroke="rgb(255,0,0)" stroke-width="1" font-size="12" >11</text>
<text x="171.203583" y="73.333334" fill="rgb(255,0,0)"  stroke="rgb(255,0,0)" stroke-width="1" font-size="12" >12</text>
<text x="152.460214" y="105.797801" fill="rgb(255,0,0)"  stroke="rgb(255,0,0)" stroke-width="1" font-size="12" >13</text>
<text x="114.973476" y="105.797801" fill="rgb(255,0,0)"  stroke="rgb(255,0,0)" stroke-width="1" font-size="12" >14</text>
<text x="96.230107" y="138.262268" fill="rgb(255,0,0)"  stroke="rgb(255,0,0)" stroke-width="1" font-size="12" >15</text>
<text x="58.743369" y="138.262268" fill="rgb(255,0,0)"  stroke="rgb(255,0,0)" stroke-width="1" font-size="12" >16</text>
<text x="40.000000" y="170.726736" fill="rgb(255,0,0)"  stroke="rgb(255,0,0)" stroke-width="1" font-size="12" >17</text>
<text x="227.661528" y="105.665188" fill="rgb(255,0,0)"  stroke="rgb(255,0,0)" stroke-width="1" font-size="12" >18</text>
<text x="206.918914" y="141.037196" fill="rgb(255,0,0)"  stroke="rgb(255,0,0)" stroke-width="1" font-size="12" >19</text>
<text x="265.592563" y="105.665188" fill="rgb(255,0,0)"  stroke="rgb(255,0,0)" stroke-width="1" font-size="12" >20</text>
<text font-size="18.000000" fill ="black" font-family="sans-serif"
x="140.000000" y="20.000000" ></text>
<title> - OBDepict</title>
</svg>
