<?xml version="1.0"?>
<svg xmlns="http://www.w3.org/2000/svg"
xmlns:xlink="http://www.w3.org/1999/xlink" xmlns:cml="http://www.xml-cml.org/schema" x="0" y="0" font-family="sans-serif" stroke="rgb(0,0,0)" stroke-width="1" viewBox="0 0 350.9 318.393" width="280.72" height="254.7144">
<line x1="294.3" y1="116.2" x2="309.6" y2="143.1"/>
<line x1="309.6" y1="143.1" x2="294.2" y2="169.8"/>
<line x1="294.2" y1="188.6" x2="304.2" y2="205.9"/>
<line x1="192.5" y1="73.9" x2="154.4" y2="73.9"/>
<line x1="154.4" y1="73.9" x2="135.3" y2="106.9"/>
<line x1="135.3" y1="106.9" x2="97.2" y2="106.9"/>
<line x1="97.2" y1="106.9" x2="83.1" y2="131.4"/>
<line x1="68.2" y1="140.0" x2="49.9" y2="140.0"/>
<line x1="211.8" y1="106.8" x2="211.8" y2="144.9"/>
<line x1="211.8" y1="144.9" x2="244.9" y2="164.0"/>
<line x1="244.9" y1="164.0" x2="244.9" y2="202.1"/>
<line x1="244.9" y1="202.1" x2="277.9" y2="221.2"/>
<line x1="277.9" y1="221.2" x2="277.9" y2="249.4"/>
<line x1="286.5" y1="264.3" x2="302.3" y2="273.4"/>
<line x1="294.0" y1="98.0" x2="303.3" y2="81.7"/>
<line x1="303.3" y1="64.3" x2="289.0" y2="40.0"/>
<line x1="295.9" y1="66.1" x2="285.8" y2="48.8"/>
<line x1="289.0" y1="40.0" x2="260.4" y2="40.0"/>
<line x1="250.4" y1="57.4" x2="250.4" y2="106.8"/>
<line x1="250.4" y1="106.8" x2="279.0" y2="106.8"/>
<line x1="206.8" y1="48.8" x2="192.5" y2="73.9"/>
<line x1="212.0" y1="54.2" x2="201.8" y2="72.3"/>
<line x1="192.5" y1="73.9" x2="211.8" y2="106.8"/>
<line x1="211.8" y1="106.8" x2="250.4" y2="106.8"/>
<line x1="240.4" y1="40.0" x2="221.9" y2="40.0"/>
<text x="285.385974" y="115.116534" fill="rgb(12,12,255)"  stroke="rgb(12,12,255)" stroke-width="1" font-size="16" >N</text>
<text x="273.143540" y="187.502355" fill="rgb(12,12,255)"  stroke="rgb(12,12,255)" stroke-width="1" font-size="16" >HN</text>
<text x="303.599433" y="220.105821" fill="rgb(102,102,102)"  stroke="rgb(102,102,102)" stroke-width="1" font-size="16" >CH</text>
<text x="327.599433" y="224.905821" fill="rgb(102,102,102)"  stroke="rgb(102,102,102)" stroke-width="1" font-size="13" >3</text>
<text x="302.284037" y="81.208900" fill="rgb(12,12,255)"  stroke="rgb(12,12,255)" stroke-width="1" font-size="16" >N</text>
<text x="244.413001" y="48.320000" fill="rgb(12,12,255)"  stroke="rgb(12,12,255)" stroke-width="1" font-size="16" >N</text>
<text x="208.228452" y="48.320000" fill="rgb(12,12,255)"  stroke="rgb(12,12,255)" stroke-width="1" font-size="16" >N</text>
<text x="72.132597" y="144.755230" fill="rgb(12,12,255)"  stroke="rgb(12,12,255)" stroke-width="1" font-size="16" >NH</text>
<text x="16.400000" y="144.755230" fill="rgb(102,102,102)"  stroke="rgb(102,102,102)" stroke-width="1" font-size="16" >H</text>
<text x="28.400000" y="149.555230" fill="rgb(102,102,102)"  stroke="rgb(102,102,102)" stroke-width="1" font-size="13" >3</text>
<text x="34.900000" y="144.755230" fill="rgb(102,102,102)"  stroke="rgb(102,102,102)" stroke-width="1" font-size="16" >C</text>
<text x="262.276048" y="264.126924" fill="rgb(12,12,255)"  stroke="rgb(12,12,255)" stroke-width="1" font-size="16" >HN</text>
<text x="304.899846" y="283.193222" fill="rgb(102,102,102)"  stroke="rgb(102,102,102)" stroke-width="1" font-size="16" >CH</text>
<text x="328.899846" y="287.993222" fill="rgb(102,102,102)"  stroke="rgb(102,102,102)" stroke-width="1" font-size="13" >3</text>
<text x="288.985974" y="106.796534" fill="rgb(255,0,0)"  stroke="rgb(255,0,0)" stroke-width="1" font-size="12" >1</text>
<text x="309.599433" y="143.058889" fill="rgb(255,0,0)"  stroke="rgb(255,0,0)" stroke-width="1" font-size="12" >2</text>
<text x="288.743540" y="179.182355" fill="rgb(255,0,0)"  stroke="rgb(255,0,0)" stroke-width="1" font-size="12" >3</text>
<text x="309.599433" y="215.305821" fill="rgb(255,0,0)"  stroke="rgb(255,0,0)" stroke-width="1" font-size="12" >4</text>
<text x="308.284037" y="72.888900" fill="rgb(255,0,0)"  stroke="rgb(255,0,0)" stroke-width="1" font-size="12" >5</text>
<text x="288.985974" y="40.000000" fill="rgb(255,0,0)"  stroke="rgb(255,0,0)" stroke-width="1" font-size="12" >6</text>
<text x="250.413001" y="40.000000" fill="rgb(255,0,0)"  stroke="rgb(255,0,0)" stroke-width="1" font-size="12" >7</text>
<text x="211.828452" y="40.000000" fill="rgb(255,0,0)"  stroke="rgb(255,0,0)" stroke-width="1" font-size="12" >8</text>
<text x="192.530389" y="73.907634" fill="rgb(255,0,0)"  stroke="rgb(255,0,0)" stroke-width="1" font-size="12" >9</text>
<text x="154.397792" y="73.907634" fill="rgb(255,0,0)"  stroke="rgb(255,0,0)" stroke-width="1" font-size="12" >10</text>
<text x="135.331493" y="106.931432" fill="rgb(255,0,0)"  stroke="rgb(255,0,0)" stroke-width="1" font-size="12" >11</text>
<text x="97.198896" y="106.931432" fill="rgb(255,0,0)"  stroke="rgb(255,0,0)" stroke-width="1" font-size="12" >12</text>
<text x="78.132597" y="139.955230" fill="rgb(255,0,0)"  stroke="rgb(255,0,0)" stroke-width="1" font-size="12" >13</text>
<text x="40.000000" y="139.955230" fill="rgb(255,0,0)"  stroke="rgb(255,0,0)" stroke-width="1" font-size="12" >14</text>
<text x="211.828452" y="106.796534" fill="rgb(255,0,0)"  stroke="rgb(255,0,0)" stroke-width="1" font-size="12" >15</text>
<text x="211.828452" y="144.929132" fill="rgb(255,0,0)"  stroke="rgb(255,0,0)" stroke-width="1" font-size="12" >16</text>
<text x="244.852250" y="163.995430" fill="rgb(255,0,0)"  stroke="rgb(255,0,0)" stroke-width="1" font-size="12" >17</text>
<text x="244.852250" y="202.128028" fill="rgb(255,0,0)"  stroke="rgb(255,0,0)" stroke-width="1" font-size="12" >18</text>
<text x="277.876048" y="221.194326" fill="rgb(255,0,0)"  stroke="rgb(255,0,0)" stroke-width="1" font-size="12" >19</text>
<text x="277.876048" y="259.326924" fill="rgb(255,0,0)"  stroke="rgb(255,0,0)" stroke-width="1" font-size="12" >20</text>
<text x="310.899846" y="278.393222" fill="rgb(255,0,0)"  stroke="rgb(255,0,0)" stroke-width="1" font-size="12" >21</text>
<text x="250.413001" y="106.796534" fill="rgb(255,0,0)"  stroke="rgb(255,0,0)" stroke-width="1" font-size="12" >22</text>
<text font-size="18.000000" fill ="black" font-family="sans-serif"
x="140.000000" y="20.000000" ></text>
<title> - OBDepict</title>
</svg>
