<?xml version="1.0"?>
<svg xmlns="http://www.w3.org/2000/svg"
xmlns:xlink="http://www.w3.org/1999/xlink" xmlns:cml="http://www.xml-cml.org/schema" x="0" y="0" font-family="sans-serif" stroke="rgb(0,0,0)" stroke-width="1" viewBox="0 0 411.849 240.482" width="329.4792" height="192.3856">
<line x1="254.0" y1="115.5" x2="269.1" y2="142.0"/>
<line x1="269.1" y1="142.0" x2="310.4" y2="142.6"/>
<line x1="307.8" y1="141.0" x2="323.5" y2="114.8"/>
<line x1="313.0" y1="144.1" x2="328.6" y2="117.8"/>
<line x1="310.4" y1="142.6" x2="330.6" y2="178.6"/>
<line x1="330.6" y1="178.6" x2="361.1" y2="179.0"/>
<line x1="153.2" y1="73.6" x2="125.3" y2="73.6"/>
<line x1="110.6" y1="82.1" x2="96.6" y2="106.3"/>
<line x1="96.6" y1="106.3" x2="58.9" y2="106.3"/>
<line x1="58.9" y1="106.3" x2="44.9" y2="82.1"/>
<line x1="58.9" y1="106.3" x2="44.9" y2="130.4"/>
<line x1="172.3" y1="106.1" x2="172.3" y2="143.9"/>
<line x1="172.3" y1="143.9" x2="196.5" y2="157.8"/>
<line x1="205.0" y1="172.6" x2="205.0" y2="190.7"/>
<line x1="253.7" y1="97.4" x2="262.8" y2="81.3"/>
<line x1="262.8" y1="64.1" x2="248.7" y2="40.0"/>
<line x1="255.5" y1="65.8" x2="245.5" y2="48.8"/>
<line x1="248.7" y1="40.0" x2="220.5" y2="40.0"/>
<line x1="210.5" y1="57.2" x2="210.5" y2="106.1"/>
<line x1="210.5" y1="106.1" x2="238.8" y2="106.1"/>
<line x1="167.4" y1="48.7" x2="153.2" y2="73.6"/>
<line x1="172.6" y1="54.1" x2="162.5" y2="71.9"/>
<line x1="153.2" y1="73.6" x2="172.3" y2="106.1"/>
<line x1="172.3" y1="106.1" x2="210.5" y2="106.1"/>
<line x1="200.6" y1="40.0" x2="182.3" y2="40.0"/>
<text x="245.112701" y="114.438387" fill="rgb(12,12,255)"  stroke="rgb(12,12,255)" stroke-width="1" font-size="16" >N</text>
<text x="325.522798" y="115.408741" fill="rgb(255,12,12)"  stroke="rgb(255,12,12)" stroke-width="1" font-size="16" >O</text>
<text x="365.849385" y="183.948885" fill="rgb(102,102,102)"  stroke="rgb(102,102,102)" stroke-width="1" font-size="16" >CH</text>
<text x="389.849385" y="188.748885" fill="rgb(102,102,102)"  stroke="rgb(102,102,102)" stroke-width="1" font-size="13" >3</text>
<text x="261.814841" y="80.874998" fill="rgb(12,12,255)"  stroke="rgb(12,12,255)" stroke-width="1" font-size="16" >N</text>
<text x="204.531338" y="48.320000" fill="rgb(12,12,255)"  stroke="rgb(12,12,255)" stroke-width="1" font-size="16" >N</text>
<text x="168.738516" y="48.320000" fill="rgb(12,12,255)"  stroke="rgb(12,12,255)" stroke-width="1" font-size="16" >N</text>
<text x="99.890917" y="81.883389" fill="rgb(12,12,255)"  stroke="rgb(12,12,255)" stroke-width="1" font-size="16" >HN</text>
<text x="24.400000" y="81.883389" fill="rgb(255,12,12)"  stroke="rgb(255,12,12)" stroke-width="1" font-size="16" >HO</text>
<text x="16.400000" y="143.740441" fill="rgb(102,102,102)"  stroke="rgb(102,102,102)" stroke-width="1" font-size="16" >H</text>
<text x="28.400000" y="148.540441" fill="rgb(102,102,102)"  stroke="rgb(102,102,102)" stroke-width="1" font-size="13" >3</text>
<text x="34.900000" y="143.740441" fill="rgb(102,102,102)"  stroke="rgb(102,102,102)" stroke-width="1" font-size="16" >C</text>
<text x="199.027042" y="171.056574" fill="rgb(12,12,255)"  stroke="rgb(12,12,255)" stroke-width="1" font-size="16" >NH</text>
<text x="199.027042" y="205.282033" fill="rgb(102,102,102)"  stroke="rgb(102,102,102)" stroke-width="1" font-size="16" >CH</text>
<text x="223.027042" y="210.082033" fill="rgb(102,102,102)"  stroke="rgb(102,102,102)" stroke-width="1" font-size="13" >3</text>
<text x="248.712701" y="106.118387" fill="rgb(255,0,0)"  stroke="rgb(255,0,0)" stroke-width="1" font-size="12" >1</text>
<text x="269.116883" y="142.012590" fill="rgb(255,0,0)"  stroke="rgb(255,0,0)" stroke-width="1" font-size="12" >2</text>
<text x="310.401487" y="142.565701" fill="rgb(255,0,0)"  stroke="rgb(255,0,0)" stroke-width="1" font-size="12" >3</text>
<text x="331.522798" y="107.088741" fill="rgb(255,0,0)"  stroke="rgb(255,0,0)" stroke-width="1" font-size="12" >4</text>
<text x="330.564781" y="178.595773" fill="rgb(255,0,0)"  stroke="rgb(255,0,0)" stroke-width="1" font-size="12" >5</text>
<text x="371.849385" y="179.148885" fill="rgb(255,0,0)"  stroke="rgb(255,0,0)" stroke-width="1" font-size="12" >6</text>
<text x="267.814841" y="72.554998" fill="rgb(255,0,0)"  stroke="rgb(255,0,0)" stroke-width="1" font-size="12" >7</text>
<text x="248.712701" y="40.000000" fill="rgb(255,0,0)"  stroke="rgb(255,0,0)" stroke-width="1" font-size="12" >8</text>
<text x="210.531338" y="40.000000" fill="rgb(255,0,0)"  stroke="rgb(255,0,0)" stroke-width="1" font-size="12" >9</text>
<text x="172.338516" y="40.000000" fill="rgb(255,0,0)"  stroke="rgb(255,0,0)" stroke-width="1" font-size="12" >10</text>
<text x="153.236376" y="73.563389" fill="rgb(255,0,0)"  stroke="rgb(255,0,0)" stroke-width="1" font-size="12" >11</text>
<text x="115.490917" y="73.563389" fill="rgb(255,0,0)"  stroke="rgb(255,0,0)" stroke-width="1" font-size="12" >12</text>
<text x="96.618188" y="106.251915" fill="rgb(255,0,0)"  stroke="rgb(255,0,0)" stroke-width="1" font-size="12" >13</text>
<text x="58.872729" y="106.251915" fill="rgb(255,0,0)"  stroke="rgb(255,0,0)" stroke-width="1" font-size="12" >14</text>
<text x="40.000000" y="73.563389" fill="rgb(255,0,0)"  stroke="rgb(255,0,0)" stroke-width="1" font-size="12" >15</text>
<text x="40.000000" y="138.940441" fill="rgb(255,0,0)"  stroke="rgb(255,0,0)" stroke-width="1" font-size="12" >16</text>
<text x="172.338516" y="106.118387" fill="rgb(255,0,0)"  stroke="rgb(255,0,0)" stroke-width="1" font-size="12" >17</text>
<text x="172.338516" y="143.863845" fill="rgb(255,0,0)"  stroke="rgb(255,0,0)" stroke-width="1" font-size="12" >18</text>
<text x="205.027042" y="162.736574" fill="rgb(255,0,0)"  stroke="rgb(255,0,0)" stroke-width="1" font-size="12" >19</text>
<text x="205.027042" y="200.482033" fill="rgb(255,0,0)"  stroke="rgb(255,0,0)" stroke-width="1" font-size="12" >20</text>
<text x="210.531338" y="106.118387" fill="rgb(255,0,0)"  stroke="rgb(255,0,0)" stroke-width="1" font-size="12" >21</text>
<text font-size="18.000000" fill ="black" font-family="sans-serif"
x="140.000000" y="20.000000" ></text>
<title> - OBDepict</title>
</svg>
