<?xml version="1.0"?>
<svg xmlns="http://www.w3.org/2000/svg"
xmlns:xlink="http://www.w3.org/1999/xlink" xmlns:cml="http://www.xml-cml.org/schema" x="0" y="0" font-family="sans-serif" stroke="rgb(0,0,0)" stroke-width="1" viewBox="0 0 288.803 358.872" width="231.0424" height="287.0976">
<line x1="233.8" y1="114.9" x2="248.8" y2="141.3"/>
<line x1="248.8" y1="141.3" x2="228.3" y2="176.8"/>
<line x1="228.3" y1="176.8" x2="248.8" y2="212.3"/>
<line x1="248.8" y1="212.3" x2="228.3" y2="247.8"/>
<line x1="228.3" y1="247.8" x2="243.5" y2="274.1"/>
<line x1="243.5" y1="292.6" x2="233.6" y2="309.6"/>
<line x1="133.7" y1="73.3" x2="96.2" y2="73.3"/>
<line x1="96.2" y1="73.3" x2="82.4" y2="97.4"/>
<line x1="67.7" y1="105.8" x2="49.7" y2="105.8"/>
<line x1="152.7" y1="105.7" x2="152.7" y2="133.4"/>
<line x1="161.1" y1="148.0" x2="185.2" y2="161.9"/>
<line x1="185.2" y1="161.9" x2="185.2" y2="189.6"/>
<line x1="233.5" y1="97.0" x2="242.6" y2="81.0"/>
<line x1="242.6" y1="63.9" x2="228.5" y2="40.0"/>
<line x1="235.2" y1="65.6" x2="225.4" y2="48.8"/>
<line x1="228.5" y1="40.0" x2="200.5" y2="40.0"/>
<line x1="190.6" y1="57.1" x2="190.6" y2="105.7"/>
<line x1="190.6" y1="105.7" x2="218.7" y2="105.7"/>
<line x1="147.8" y1="48.7" x2="133.7" y2="73.3"/>
<line x1="152.9" y1="54.1" x2="142.9" y2="71.7"/>
<line x1="133.7" y1="73.3" x2="152.7" y2="105.7"/>
<line x1="152.7" y1="105.7" x2="190.6" y2="105.7"/>
<line x1="180.8" y1="40.0" x2="162.6" y2="40.0"/>
<text x="224.938742" y="113.985188" fill="rgb(12,12,255)"  stroke="rgb(12,12,255)" stroke-width="1" font-size="16" >N</text>
<text x="242.803066" y="291.679903" fill="rgb(12,12,255)"  stroke="rgb(12,12,255)" stroke-width="1" font-size="16" >NH</text>
<text x="204.700414" y="323.671538" fill="rgb(102,102,102)"  stroke="rgb(102,102,102)" stroke-width="1" font-size="16" >H</text>
<text x="216.700414" y="328.471538" fill="rgb(102,102,102)"  stroke="rgb(102,102,102)" stroke-width="1" font-size="13" >3</text>
<text x="223.200414" y="323.671538" fill="rgb(102,102,102)"  stroke="rgb(102,102,102)" stroke-width="1" font-size="16" >C</text>
<text x="241.509949" y="80.651854" fill="rgb(12,12,255)"  stroke="rgb(12,12,255)" stroke-width="1" font-size="16" >N</text>
<text x="184.619087" y="48.320000" fill="rgb(12,12,255)"  stroke="rgb(12,12,255)" stroke-width="1" font-size="16" >N</text>
<text x="149.088052" y="48.320000" fill="rgb(12,12,255)"  stroke="rgb(12,12,255)" stroke-width="1" font-size="16" >N</text>
<text x="71.486738" y="110.597801" fill="rgb(12,12,255)"  stroke="rgb(12,12,255)" stroke-width="1" font-size="16" >NH</text>
<text x="16.400000" y="110.597801" fill="rgb(102,102,102)"  stroke="rgb(102,102,102)" stroke-width="1" font-size="16" >H</text>
<text x="28.400000" y="115.397801" fill="rgb(102,102,102)"  stroke="rgb(102,102,102)" stroke-width="1" font-size="13" >3</text>
<text x="34.900000" y="110.597801" fill="rgb(102,102,102)"  stroke="rgb(102,102,102)" stroke-width="1" font-size="16" >C</text>
<text x="137.088052" y="147.951926" fill="rgb(12,12,255)"  stroke="rgb(12,12,255)" stroke-width="1" font-size="16" >HN</text>
<text x="179.152520" y="204.182033" fill="rgb(102,102,102)"  stroke="rgb(102,102,102)" stroke-width="1" font-size="16" >CH</text>
<text x="203.152520" y="208.982033" fill="rgb(102,102,102)"  stroke="rgb(102,102,102)" stroke-width="1" font-size="13" >3</text>
<text x="228.538742" y="105.665188" fill="rgb(255,0,0)"  stroke="rgb(255,0,0)" stroke-width="1" font-size="12" >1</text>
<text x="248.803066" y="141.313360" fill="rgb(255,0,0)"  stroke="rgb(255,0,0)" stroke-width="1" font-size="12" >2</text>
<text x="228.300414" y="176.824996" fill="rgb(255,0,0)"  stroke="rgb(255,0,0)" stroke-width="1" font-size="12" >3</text>
<text x="248.803066" y="212.336631" fill="rgb(255,0,0)"  stroke="rgb(255,0,0)" stroke-width="1" font-size="12" >4</text>
<text x="228.300414" y="247.848267" fill="rgb(255,0,0)"  stroke="rgb(255,0,0)" stroke-width="1" font-size="12" >5</text>
<text x="248.803066" y="283.359903" fill="rgb(255,0,0)"  stroke="rgb(255,0,0)" stroke-width="1" font-size="12" >6</text>
<text x="228.300414" y="318.871538" fill="rgb(255,0,0)"  stroke="rgb(255,0,0)" stroke-width="1" font-size="12" >7</text>
<text x="247.509949" y="72.331854" fill="rgb(255,0,0)"  stroke="rgb(255,0,0)" stroke-width="1" font-size="12" >8</text>
<text x="228.538742" y="40.000000" fill="rgb(255,0,0)"  stroke="rgb(255,0,0)" stroke-width="1" font-size="12" >9</text>
<text x="190.619087" y="40.000000" fill="rgb(255,0,0)"  stroke="rgb(255,0,0)" stroke-width="1" font-size="12" >10</text>
<text x="152.688052" y="40.000000" fill="rgb(255,0,0)"  stroke="rgb(255,0,0)" stroke-width="1" font-size="12" >11</text>
<text x="133.716845" y="73.333334" fill="rgb(255,0,0)"  stroke="rgb(255,0,0)" stroke-width="1" font-size="12" >12</text>
<text x="96.230107" y="73.333334" fill="rgb(255,0,0)"  stroke="rgb(255,0,0)" stroke-width="1" font-size="12" >13</text>
<text x="77.486738" y="105.797801" fill="rgb(255,0,0)"  stroke="rgb(255,0,0)" stroke-width="1" font-size="12" >14</text>
<text x="40.000000" y="105.797801" fill="rgb(255,0,0)"  stroke="rgb(255,0,0)" stroke-width="1" font-size="12" >15</text>
<text x="152.688052" y="105.665188" fill="rgb(255,0,0)"  stroke="rgb(255,0,0)" stroke-width="1" font-size="12" >16</text>
<text x="152.688052" y="143.151926" fill="rgb(255,0,0)"  stroke="rgb(255,0,0)" stroke-width="1" font-size="12" >17</text>
<text x="185.152520" y="161.895295" fill="rgb(255,0,0)"  stroke="rgb(255,0,0)" stroke-width="1" font-size="12" >18</text>
<text x="185.152520" y="199.382033" fill="rgb(255,0,0)"  stroke="rgb(255,0,0)" stroke-width="1" font-size="12" >19</text>
<text x="190.619087" y="105.665188" fill="rgb(255,0,0)"  stroke="rgb(255,0,0)" stroke-width="1" font-size="12" >20</text>
<text font-size="18.000000" fill ="black" font-family="sans-serif"
x="140.000000" y="20.000000" ></text>
<title> - OBDepict</title>
</svg>
