<?xml version="1.0"?>
<svg xmlns="http://www.w3.org/2000/svg"
xmlns:xlink="http://www.w3.org/1999/xlink" xmlns:cml="http://www.xml-cml.org/schema" width="392.977" height="259.355" x="0" y="0" font-family="sans-serif" stroke="rgb(0,0,0)" stroke-width="1" >
<line x1="235.1" y1="115.5" x2="250.2" y2="142.0"/>
<line x1="250.2" y1="142.0" x2="291.5" y2="142.6"/>
<line x1="289.0" y1="141.0" x2="304.6" y2="114.8"/>
<line x1="294.1" y1="144.1" x2="309.7" y2="117.8"/>
<line x1="291.5" y1="142.6" x2="311.7" y2="178.6"/>
<line x1="311.7" y1="178.6" x2="342.2" y2="179.0"/>
<line x1="134.4" y1="73.6" x2="106.4" y2="73.6"/>
<line x1="91.7" y1="82.1" x2="77.7" y2="106.3"/>
<line x1="77.7" y1="106.3" x2="49.8" y2="106.3"/>
<line x1="153.5" y1="106.1" x2="153.5" y2="134.1"/>
<line x1="162.0" y1="148.8" x2="186.2" y2="162.7"/>
<line x1="186.2" y1="162.7" x2="186.2" y2="200.5"/>
<line x1="186.2" y1="200.5" x2="162.0" y2="214.4"/>
<line x1="186.2" y1="200.5" x2="210.3" y2="214.4"/>
<line x1="234.8" y1="97.4" x2="244.0" y2="81.3"/>
<line x1="244.0" y1="64.1" x2="229.8" y2="40.0"/>
<line x1="236.6" y1="65.8" x2="226.7" y2="48.8"/>
<line x1="229.8" y1="40.0" x2="201.6" y2="40.0"/>
<line x1="191.7" y1="57.2" x2="191.7" y2="106.1"/>
<line x1="191.7" y1="106.1" x2="219.9" y2="106.1"/>
<line x1="148.5" y1="48.7" x2="134.4" y2="73.6"/>
<line x1="153.7" y1="54.1" x2="143.6" y2="71.9"/>
<line x1="134.4" y1="73.6" x2="153.5" y2="106.1"/>
<line x1="153.5" y1="106.1" x2="191.7" y2="106.1"/>
<line x1="181.7" y1="40.0" x2="163.4" y2="40.0"/>
<text x="226.239972" y="114.438387" fill="rgb(12,12,255)"  stroke="rgb(12,12,255)" stroke-width="1" font-size="16" >N</text>
<text x="306.650069" y="115.408741" fill="rgb(255,12,12)"  stroke="rgb(255,12,12)" stroke-width="1" font-size="16" >O</text>
<text x="346.976656" y="183.948885" fill="rgb(102,102,102)"  stroke="rgb(102,102,102)" stroke-width="1" font-size="16" >CH</text>
<text x="370.976656" y="188.748885" fill="rgb(102,102,102)"  stroke="rgb(102,102,102)" stroke-width="1" font-size="13" >3</text>
<text x="242.942112" y="80.874998" fill="rgb(12,12,255)"  stroke="rgb(12,12,255)" stroke-width="1" font-size="16" >N</text>
<text x="185.658609" y="48.320000" fill="rgb(12,12,255)"  stroke="rgb(12,12,255)" stroke-width="1" font-size="16" >N</text>
<text x="149.865787" y="48.320000" fill="rgb(12,12,255)"  stroke="rgb(12,12,255)" stroke-width="1" font-size="16" >N</text>
<text x="81.018188" y="81.883389" fill="rgb(12,12,255)"  stroke="rgb(12,12,255)" stroke-width="1" font-size="16" >HN</text>
<text x="16.400000" y="111.051915" fill="rgb(102,102,102)"  stroke="rgb(102,102,102)" stroke-width="1" font-size="16" >H</text>
<text x="28.400000" y="115.851915" fill="rgb(102,102,102)"  stroke="rgb(102,102,102)" stroke-width="1" font-size="13" >3</text>
<text x="34.900000" y="111.051915" fill="rgb(102,102,102)"  stroke="rgb(102,102,102)" stroke-width="1" font-size="16" >C</text>
<text x="137.865787" y="148.663845" fill="rgb(12,12,255)"  stroke="rgb(12,12,255)" stroke-width="1" font-size="16" >HN</text>
<text x="137.865787" y="224.154762" fill="rgb(255,12,12)"  stroke="rgb(255,12,12)" stroke-width="1" font-size="16" >HO</text>
<text x="212.842839" y="224.154762" fill="rgb(102,102,102)"  stroke="rgb(102,102,102)" stroke-width="1" font-size="16" >CH</text>
<text x="236.842839" y="228.954762" fill="rgb(102,102,102)"  stroke="rgb(102,102,102)" stroke-width="1" font-size="13" >3</text>
<text x="229.839972" y="106.118387" fill="rgb(255,0,0)"  stroke="rgb(255,0,0)" stroke-width="1" font-size="12" >1</text>
<text x="250.244154" y="142.012590" fill="rgb(255,0,0)"  stroke="rgb(255,0,0)" stroke-width="1" font-size="12" >2</text>
<text x="291.528758" y="142.565701" fill="rgb(255,0,0)"  stroke="rgb(255,0,0)" stroke-width="1" font-size="12" >3</text>
<text x="312.650069" y="107.088741" fill="rgb(255,0,0)"  stroke="rgb(255,0,0)" stroke-width="1" font-size="12" >4</text>
<text x="311.692052" y="178.595773" fill="rgb(255,0,0)"  stroke="rgb(255,0,0)" stroke-width="1" font-size="12" >5</text>
<text x="352.976656" y="179.148885" fill="rgb(255,0,0)"  stroke="rgb(255,0,0)" stroke-width="1" font-size="12" >6</text>
<text x="248.942112" y="72.554998" fill="rgb(255,0,0)"  stroke="rgb(255,0,0)" stroke-width="1" font-size="12" >7</text>
<text x="229.839972" y="40.000000" fill="rgb(255,0,0)"  stroke="rgb(255,0,0)" stroke-width="1" font-size="12" >8</text>
<text x="191.658609" y="40.000000" fill="rgb(255,0,0)"  stroke="rgb(255,0,0)" stroke-width="1" font-size="12" >9</text>
<text x="153.465787" y="40.000000" fill="rgb(255,0,0)"  stroke="rgb(255,0,0)" stroke-width="1" font-size="12" >10</text>
<text x="134.363646" y="73.563389" fill="rgb(255,0,0)"  stroke="rgb(255,0,0)" stroke-width="1" font-size="12" >11</text>
<text x="96.618188" y="73.563389" fill="rgb(255,0,0)"  stroke="rgb(255,0,0)" stroke-width="1" font-size="12" >12</text>
<text x="77.745459" y="106.251915" fill="rgb(255,0,0)"  stroke="rgb(255,0,0)" stroke-width="1" font-size="12" >13</text>
<text x="40.000000" y="106.251915" fill="rgb(255,0,0)"  stroke="rgb(255,0,0)" stroke-width="1" font-size="12" >14</text>
<text x="153.465787" y="106.118387" fill="rgb(255,0,0)"  stroke="rgb(255,0,0)" stroke-width="1" font-size="12" >15</text>
<text x="153.465787" y="143.863845" fill="rgb(255,0,0)"  stroke="rgb(255,0,0)" stroke-width="1" font-size="12" >16</text>
<text x="186.154313" y="162.736574" fill="rgb(255,0,0)"  stroke="rgb(255,0,0)" stroke-width="1" font-size="12" >17</text>
<text x="186.154313" y="200.482033" fill="rgb(255,0,0)"  stroke="rgb(255,0,0)" stroke-width="1" font-size="12" >18</text>
<text x="153.465787" y="219.354762" fill="rgb(255,0,0)"  stroke="rgb(255,0,0)" stroke-width="1" font-size="12" >19</text>
<text x="218.842839" y="219.354762" fill="rgb(255,0,0)"  stroke="rgb(255,0,0)" stroke-width="1" font-size="12" >20</text>
<text x="191.658609" y="106.118387" fill="rgb(255,0,0)"  stroke="rgb(255,0,0)" stroke-width="1" font-size="12" >21</text>
<text font-size="18.000000" fill ="black" font-family="sans-serif"
x="140.000000" y="20.000000" ></text>
<title> - OBDepict</title>
</svg>
