<?xml version="1.0"?>
<svg xmlns="http://www.w3.org/2000/svg"
xmlns:xlink="http://www.w3.org/1999/xlink" xmlns:cml="http://www.xml-cml.org/schema" width="310.769" height="241.639" x="0" y="0" font-family="sans-serif" stroke="rgb(0,0,0)" stroke-width="1" >
<line x1="255.6" y1="116.0" x2="265.4" y2="133.3"/>
<line x1="154.1" y1="73.8" x2="116.0" y2="73.8"/>
<line x1="116.0" y1="73.8" x2="97.0" y2="106.7"/>
<line x1="97.0" y1="106.7" x2="59.0" y2="106.7"/>
<line x1="59.0" y1="106.7" x2="44.9" y2="131.1"/>
<line x1="173.3" y1="106.6" x2="173.3" y2="144.6"/>
<line x1="173.3" y1="144.6" x2="148.9" y2="158.7"/>
<line x1="173.3" y1="144.6" x2="206.2" y2="163.6"/>
<line x1="206.2" y1="163.6" x2="206.2" y2="191.8"/>
<line x1="255.2" y1="97.8" x2="264.5" y2="81.6"/>
<line x1="264.5" y1="64.3" x2="250.2" y2="40.0"/>
<line x1="257.1" y1="66.0" x2="247.0" y2="48.8"/>
<line x1="250.2" y1="40.0" x2="221.8" y2="40.0"/>
<line x1="211.8" y1="57.3" x2="211.8" y2="106.6"/>
<line x1="211.8" y1="106.6" x2="240.2" y2="106.6"/>
<line x1="168.3" y1="48.8" x2="154.1" y2="73.8"/>
<line x1="173.5" y1="54.2" x2="163.3" y2="72.2"/>
<line x1="154.1" y1="73.8" x2="173.3" y2="106.6"/>
<line x1="173.3" y1="106.6" x2="211.8" y2="106.6"/>
<line x1="201.8" y1="40.0" x2="183.3" y2="40.0"/>
<text x="246.617284" y="114.915025" fill="rgb(12,12,255)"  stroke="rgb(12,12,255)" stroke-width="1" font-size="16" >N</text>
<text x="264.768557" y="147.547986" fill="rgb(124,127,175)"  stroke="rgb(124,127,175)" stroke-width="1" font-size="16" >R</text>
<text x="263.457129" y="81.109682" fill="rgb(12,12,255)"  stroke="rgb(12,12,255)" stroke-width="1" font-size="16" >N</text>
<text x="205.760676" y="48.320000" fill="rgb(12,12,255)"  stroke="rgb(12,12,255)" stroke-width="1" font-size="16" >N</text>
<text x="169.692527" y="48.320000" fill="rgb(12,12,255)"  stroke="rgb(12,12,255)" stroke-width="1" font-size="16" >N</text>
<text x="16.400000" y="144.453690" fill="rgb(102,102,102)"  stroke="rgb(102,102,102)" stroke-width="1" font-size="16" >H</text>
<text x="28.400000" y="149.253690" fill="rgb(102,102,102)"  stroke="rgb(102,102,102)" stroke-width="1" font-size="13" >3</text>
<text x="34.900000" y="144.453690" fill="rgb(102,102,102)"  stroke="rgb(102,102,102)" stroke-width="1" font-size="16" >C</text>
<text x="124.768354" y="168.421366" fill="rgb(255,12,12)"  stroke="rgb(255,12,12)" stroke-width="1" font-size="16" >HO</text>
<text x="200.216701" y="206.438927" fill="rgb(102,102,102)"  stroke="rgb(102,102,102)" stroke-width="1" font-size="16" >CH</text>
<text x="224.216701" y="211.238927" fill="rgb(102,102,102)"  stroke="rgb(102,102,102)" stroke-width="1" font-size="13" >3</text>
<text x="250.217284" y="106.595025" fill="rgb(255,0,0)"  stroke="rgb(255,0,0)" stroke-width="1" font-size="12" >1</text>
<text x="270.768557" y="142.747986" fill="rgb(255,0,0)"  stroke="rgb(255,0,0)" stroke-width="1" font-size="12" >2</text>
<text x="269.457129" y="72.789682" fill="rgb(255,0,0)"  stroke="rgb(255,0,0)" stroke-width="1" font-size="12" >3</text>
<text x="250.217284" y="40.000000" fill="rgb(255,0,0)"  stroke="rgb(255,0,0)" stroke-width="1" font-size="12" >4</text>
<text x="211.760676" y="40.000000" fill="rgb(255,0,0)"  stroke="rgb(255,0,0)" stroke-width="1" font-size="12" >5</text>
<text x="173.292527" y="40.000000" fill="rgb(255,0,0)"  stroke="rgb(255,0,0)" stroke-width="1" font-size="12" >6</text>
<text x="154.052682" y="73.805343" fill="rgb(255,0,0)"  stroke="rgb(255,0,0)" stroke-width="1" font-size="12" >7</text>
<text x="116.035121" y="73.805343" fill="rgb(255,0,0)"  stroke="rgb(255,0,0)" stroke-width="1" font-size="12" >8</text>
<text x="97.026341" y="106.729516" fill="rgb(255,0,0)"  stroke="rgb(255,0,0)" stroke-width="1" font-size="12" >9</text>
<text x="59.008780" y="106.729516" fill="rgb(255,0,0)"  stroke="rgb(255,0,0)" stroke-width="1" font-size="12" >10</text>
<text x="40.000000" y="139.653690" fill="rgb(255,0,0)"  stroke="rgb(255,0,0)" stroke-width="1" font-size="12" >11</text>
<text x="173.292527" y="106.595025" fill="rgb(255,0,0)"  stroke="rgb(255,0,0)" stroke-width="1" font-size="12" >12</text>
<text x="173.292527" y="144.612586" fill="rgb(255,0,0)"  stroke="rgb(255,0,0)" stroke-width="1" font-size="12" >13</text>
<text x="140.368354" y="163.621366" fill="rgb(255,0,0)"  stroke="rgb(255,0,0)" stroke-width="1" font-size="12" >14</text>
<text x="206.216701" y="163.621366" fill="rgb(255,0,0)"  stroke="rgb(255,0,0)" stroke-width="1" font-size="12" >15</text>
<text x="206.216701" y="201.638927" fill="rgb(255,0,0)"  stroke="rgb(255,0,0)" stroke-width="1" font-size="12" >16</text>
<text x="211.760676" y="106.595025" fill="rgb(255,0,0)"  stroke="rgb(255,0,0)" stroke-width="1" font-size="12" >17</text>
<text font-size="18.000000" fill ="black" font-family="sans-serif"
x="140.000000" y="20.000000" ></text>
<title> - OBDepict</title>
</svg>
