<?xml version="1.0"?>
<svg xmlns="http://www.w3.org/2000/svg"
xmlns:xlink="http://www.w3.org/1999/xlink" xmlns:cml="http://www.xml-cml.org/schema" width="240.725" height="287.437" x="0" y="0" font-family="sans-serif" stroke="rgb(0,0,0)" stroke-width="1" >
<line x1="185.8" y1="114.8" x2="195.5" y2="131.9"/>
<line x1="195.4" y1="150.3" x2="180.3" y2="176.6"/>
<line x1="180.3" y1="176.6" x2="200.7" y2="212.0"/>
<line x1="200.7" y1="212.0" x2="185.6" y2="238.2"/>
<line x1="85.9" y1="73.3" x2="55.6" y2="74.1"/>
<line x1="104.8" y1="105.5" x2="104.8" y2="142.9"/>
<line x1="104.8" y1="142.9" x2="72.4" y2="161.7"/>
<line x1="72.4" y1="161.7" x2="58.6" y2="185.6"/>
<line x1="72.4" y1="161.7" x2="86.2" y2="185.6"/>
<line x1="72.4" y1="161.7" x2="48.4" y2="147.8"/>
<line x1="185.4" y1="96.9" x2="194.5" y2="80.9"/>
<line x1="194.5" y1="63.9" x2="180.5" y2="40.0"/>
<line x1="187.2" y1="65.6" x2="177.3" y2="48.8"/>
<line x1="180.5" y1="40.0" x2="152.5" y2="40.0"/>
<line x1="142.7" y1="57.0" x2="142.7" y2="105.5"/>
<line x1="142.7" y1="105.5" x2="170.7" y2="105.5"/>
<line x1="99.9" y1="48.6" x2="85.9" y2="73.3"/>
<line x1="105.1" y1="54.1" x2="95.1" y2="71.6"/>
<line x1="85.9" y1="73.3" x2="104.8" y2="105.5"/>
<line x1="104.8" y1="105.5" x2="142.7" y2="105.5"/>
<line x1="132.8" y1="40.0" x2="114.6" y2="40.0"/>
<text x="176.900849" y="113.855156" fill="rgb(12,12,255)"  stroke="rgb(12,12,255)" stroke-width="1" font-size="16" >N</text>
<text x="194.725045" y="145.912737" fill="rgb(12,12,255)"  stroke="rgb(12,12,255)" stroke-width="1" font-size="16" >NH</text>
<text x="164.662993" y="252.236681" fill="rgb(255,12,12)"  stroke="rgb(255,12,12)" stroke-width="1" font-size="16" >HO</text>
<text x="193.434489" y="80.587830" fill="rgb(12,12,255)"  stroke="rgb(12,12,255)" stroke-width="1" font-size="16" >N</text>
<text x="136.656284" y="48.320000" fill="rgb(12,12,255)"  stroke="rgb(12,12,255)" stroke-width="1" font-size="16" >N</text>
<text x="101.200361" y="48.320000" fill="rgb(12,12,255)"  stroke="rgb(12,12,255)" stroke-width="1" font-size="16" >N</text>
<text x="29.356863" y="79.147130" fill="rgb(124,127,175)"  stroke="rgb(124,127,175)" stroke-width="1" font-size="16" >R</text>
<text x="30.093928" y="198.854095" fill="rgb(102,102,102)"  stroke="rgb(102,102,102)" stroke-width="1" font-size="16" >H</text>
<text x="42.093928" y="203.654095" fill="rgb(102,102,102)"  stroke="rgb(102,102,102)" stroke-width="1" font-size="13" >3</text>
<text x="48.593928" y="198.854095" fill="rgb(102,102,102)"  stroke="rgb(102,102,102)" stroke-width="1" font-size="16" >C</text>
<text x="85.106433" y="198.854095" fill="rgb(102,102,102)"  stroke="rgb(102,102,102)" stroke-width="1" font-size="16" >CH</text>
<text x="109.106433" y="203.654095" fill="rgb(102,102,102)"  stroke="rgb(102,102,102)" stroke-width="1" font-size="13" >3</text>
<text x="24.400000" y="151.267662" fill="rgb(255,12,12)"  stroke="rgb(255,12,12)" stroke-width="1" font-size="16" >HO</text>
<text x="180.500849" y="105.535156" fill="rgb(255,0,0)"  stroke="rgb(255,0,0)" stroke-width="1" font-size="12" >1</text>
<text x="200.725045" y="141.112737" fill="rgb(255,0,0)"  stroke="rgb(255,0,0)" stroke-width="1" font-size="12" >2</text>
<text x="180.262993" y="176.554051" fill="rgb(255,0,0)"  stroke="rgb(255,0,0)" stroke-width="1" font-size="12" >3</text>
<text x="200.725045" y="211.995366" fill="rgb(255,0,0)"  stroke="rgb(255,0,0)" stroke-width="1" font-size="12" >4</text>
<text x="180.262993" y="247.436681" fill="rgb(255,0,0)"  stroke="rgb(255,0,0)" stroke-width="1" font-size="12" >5</text>
<text x="199.434489" y="72.267830" fill="rgb(255,0,0)"  stroke="rgb(255,0,0)" stroke-width="1" font-size="12" >6</text>
<text x="180.500849" y="40.000000" fill="rgb(255,0,0)"  stroke="rgb(255,0,0)" stroke-width="1" font-size="12" >7</text>
<text x="142.656284" y="40.000000" fill="rgb(255,0,0)"  stroke="rgb(255,0,0)" stroke-width="1" font-size="12" >8</text>
<text x="104.800361" y="40.000000" fill="rgb(255,0,0)"  stroke="rgb(255,0,0)" stroke-width="1" font-size="12" >9</text>
<text x="85.866720" y="73.267326" fill="rgb(255,0,0)"  stroke="rgb(255,0,0)" stroke-width="1" font-size="12" >10</text>
<text x="44.956863" y="74.347130" fill="rgb(255,0,0)"  stroke="rgb(255,0,0)" stroke-width="1" font-size="12" >11</text>
<text x="104.800361" y="105.535156" fill="rgb(255,0,0)"  stroke="rgb(255,0,0)" stroke-width="1" font-size="12" >12</text>
<text x="104.800361" y="142.947662" fill="rgb(255,0,0)"  stroke="rgb(255,0,0)" stroke-width="1" font-size="12" >13</text>
<text x="72.400180" y="161.653915" fill="rgb(255,0,0)"  stroke="rgb(255,0,0)" stroke-width="1" font-size="12" >14</text>
<text x="53.693928" y="194.054095" fill="rgb(255,0,0)"  stroke="rgb(255,0,0)" stroke-width="1" font-size="12" >15</text>
<text x="91.106433" y="194.054095" fill="rgb(255,0,0)"  stroke="rgb(255,0,0)" stroke-width="1" font-size="12" >16</text>
<text x="40.000000" y="142.947662" fill="rgb(255,0,0)"  stroke="rgb(255,0,0)" stroke-width="1" font-size="12" >17</text>
<text x="142.656284" y="105.535156" fill="rgb(255,0,0)"  stroke="rgb(255,0,0)" stroke-width="1" font-size="12" >18</text>
<text font-size="18.000000" fill ="black" font-family="sans-serif"
x="140.000000" y="20.000000" ></text>
<title> - OBDepict</title>
</svg>
