<?xml version="1.0"?>
<svg xmlns="http://www.w3.org/2000/svg"
xmlns:xlink="http://www.w3.org/1999/xlink" xmlns:cml="http://www.xml-cml.org/schema" width="413.191" height="297.978" x="0" y="0" font-family="sans-serif" stroke="rgb(0,0,0)" stroke-width="1" >
<line x1="254.9" y1="115.8" x2="270.0" y2="142.4"/>
<line x1="270.0" y1="142.4" x2="311.5" y2="143.0"/>
<line x1="311.5" y1="143.0" x2="331.7" y2="179.2"/>
<line x1="331.7" y1="179.2" x2="362.4" y2="179.6"/>
<line x1="153.7" y1="73.7" x2="115.8" y2="73.7"/>
<line x1="115.8" y1="73.7" x2="96.8" y2="106.5"/>
<line x1="96.8" y1="106.5" x2="68.8" y2="106.5"/>
<line x1="54.0" y1="115.1" x2="44.9" y2="130.8"/>
<line x1="172.9" y1="106.4" x2="172.9" y2="144.3"/>
<line x1="172.9" y1="144.3" x2="205.7" y2="163.2"/>
<line x1="205.7" y1="163.2" x2="205.7" y2="201.1"/>
<line x1="205.7" y1="201.1" x2="238.5" y2="220.1"/>
<line x1="238.5" y1="220.1" x2="238.5" y2="248.1"/>
<line x1="254.5" y1="97.6" x2="263.7" y2="81.4"/>
<line x1="263.7" y1="64.2" x2="249.6" y2="40.0"/>
<line x1="256.4" y1="65.9" x2="246.4" y2="48.8"/>
<line x1="249.6" y1="40.0" x2="221.2" y2="40.0"/>
<line x1="211.2" y1="57.3" x2="211.2" y2="106.4"/>
<line x1="211.2" y1="106.4" x2="239.6" y2="106.4"/>
<line x1="167.9" y1="48.8" x2="153.7" y2="73.7"/>
<line x1="173.1" y1="54.2" x2="162.9" y2="72.0"/>
<line x1="153.7" y1="73.7" x2="172.9" y2="106.4"/>
<line x1="172.9" y1="106.4" x2="211.2" y2="106.4"/>
<line x1="201.3" y1="40.0" x2="182.8" y2="40.0"/>
<text x="245.956368" y="114.705653" fill="rgb(12,12,255)"  stroke="rgb(12,12,255)" stroke-width="1" font-size="16" >N</text>
<text x="367.190801" y="184.511358" fill="rgb(102,102,102)"  stroke="rgb(102,102,102)" stroke-width="1" font-size="16" >CH</text>
<text x="391.190801" y="189.311358" fill="rgb(102,102,102)"  stroke="rgb(102,102,102)" stroke-width="1" font-size="13" >3</text>
<text x="262.735724" y="81.006593" fill="rgb(12,12,255)"  stroke="rgb(12,12,255)" stroke-width="1" font-size="16" >N</text>
<text x="205.220667" y="48.320000" fill="rgb(12,12,255)"  stroke="rgb(12,12,255)" stroke-width="1" font-size="16" >N</text>
<text x="169.273460" y="48.320000" fill="rgb(12,12,255)"  stroke="rgb(12,12,255)" stroke-width="1" font-size="16" >N</text>
<text x="43.349017" y="114.839721" fill="rgb(12,12,255)"  stroke="rgb(12,12,255)" stroke-width="1" font-size="16" >HN</text>
<text x="16.400000" y="144.140382" fill="rgb(102,102,102)"  stroke="rgb(102,102,102)" stroke-width="1" font-size="16" >H</text>
<text x="28.400000" y="148.940382" fill="rgb(102,102,102)"  stroke="rgb(102,102,102)" stroke-width="1" font-size="13" >3</text>
<text x="34.900000" y="144.140382" fill="rgb(102,102,102)"  stroke="rgb(102,102,102)" stroke-width="1" font-size="16" >C</text>
<text x="232.514782" y="262.777792" fill="rgb(102,102,102)"  stroke="rgb(102,102,102)" stroke-width="1" font-size="16" >CH</text>
<text x="256.514782" y="267.577792" fill="rgb(102,102,102)"  stroke="rgb(102,102,102)" stroke-width="1" font-size="13" >3</text>
<text x="249.556368" y="106.385653" fill="rgb(255,0,0)"  stroke="rgb(255,0,0)" stroke-width="1" font-size="12" >1</text>
<text x="270.043028" y="142.424950" fill="rgb(255,0,0)"  stroke="rgb(255,0,0)" stroke-width="1" font-size="12" >2</text>
<text x="311.494515" y="142.980297" fill="rgb(255,0,0)"  stroke="rgb(255,0,0)" stroke-width="1" font-size="12" >3</text>
<text x="331.739314" y="179.156011" fill="rgb(255,0,0)"  stroke="rgb(255,0,0)" stroke-width="1" font-size="12" >4</text>
<text x="373.190801" y="179.711358" fill="rgb(255,0,0)"  stroke="rgb(255,0,0)" stroke-width="1" font-size="12" >5</text>
<text x="268.735724" y="72.686593" fill="rgb(255,0,0)"  stroke="rgb(255,0,0)" stroke-width="1" font-size="12" >6</text>
<text x="249.556368" y="40.000000" fill="rgb(255,0,0)"  stroke="rgb(255,0,0)" stroke-width="1" font-size="12" >7</text>
<text x="211.220667" y="40.000000" fill="rgb(255,0,0)"  stroke="rgb(255,0,0)" stroke-width="1" font-size="12" >8</text>
<text x="172.873460" y="40.000000" fill="rgb(255,0,0)"  stroke="rgb(255,0,0)" stroke-width="1" font-size="12" >9</text>
<text x="153.694104" y="73.699060" fill="rgb(255,0,0)"  stroke="rgb(255,0,0)" stroke-width="1" font-size="12" >10</text>
<text x="115.796070" y="73.699060" fill="rgb(255,0,0)"  stroke="rgb(255,0,0)" stroke-width="1" font-size="12" >11</text>
<text x="96.847052" y="106.519721" fill="rgb(255,0,0)"  stroke="rgb(255,0,0)" stroke-width="1" font-size="12" >12</text>
<text x="58.949017" y="106.519721" fill="rgb(255,0,0)"  stroke="rgb(255,0,0)" stroke-width="1" font-size="12" >13</text>
<text x="40.000000" y="139.340382" fill="rgb(255,0,0)"  stroke="rgb(255,0,0)" stroke-width="1" font-size="12" >14</text>
<text x="172.873460" y="106.385653" fill="rgb(255,0,0)"  stroke="rgb(255,0,0)" stroke-width="1" font-size="12" >15</text>
<text x="172.873460" y="144.283688" fill="rgb(255,0,0)"  stroke="rgb(255,0,0)" stroke-width="1" font-size="12" >16</text>
<text x="205.694121" y="163.232705" fill="rgb(255,0,0)"  stroke="rgb(255,0,0)" stroke-width="1" font-size="12" >17</text>
<text x="205.694121" y="201.130740" fill="rgb(255,0,0)"  stroke="rgb(255,0,0)" stroke-width="1" font-size="12" >18</text>
<text x="238.514782" y="220.079757" fill="rgb(255,0,0)"  stroke="rgb(255,0,0)" stroke-width="1" font-size="12" >19</text>
<text x="238.514782" y="257.977792" fill="rgb(255,0,0)"  stroke="rgb(255,0,0)" stroke-width="1" font-size="12" >20</text>
<text x="211.220667" y="106.385653" fill="rgb(255,0,0)"  stroke="rgb(255,0,0)" stroke-width="1" font-size="12" >21</text>
<text font-size="18.000000" fill ="black" font-family="sans-serif"
x="140.000000" y="20.000000" ></text>
<title> - OBDepict</title>
</svg>
