<?xml version="1.0"?>
<svg xmlns="http://www.w3.org/2000/svg"
xmlns:xlink="http://www.w3.org/1999/xlink" xmlns:cml="http://www.xml-cml.org/schema" x="0" y="0" font-family="sans-serif" stroke="rgb(0,0,0)" stroke-width="1" viewBox="0 0 306.283 286.694" width="245.0264" height="229.3552">
<line x1="251.4" y1="114.5" x2="266.3" y2="140.8"/>
<line x1="266.3" y1="140.8" x2="245.9" y2="176.1"/>
<line x1="245.9" y1="176.1" x2="266.3" y2="211.4"/>
<line x1="266.3" y1="211.4" x2="251.2" y2="237.5"/>
<line x1="151.8" y1="73.1" x2="124.2" y2="73.1"/>
<line x1="109.7" y1="81.5" x2="95.9" y2="105.4"/>
<line x1="95.9" y1="105.4" x2="58.6" y2="105.4"/>
<line x1="58.6" y1="105.4" x2="44.8" y2="129.3"/>
<line x1="170.7" y1="105.3" x2="155.4" y2="131.3"/>
<line x1="251.0" y1="96.7" x2="260.1" y2="80.8"/>
<line x1="260.1" y1="63.8" x2="246.1" y2="40.0"/>
<line x1="252.7" y1="65.5" x2="243.0" y2="48.8"/>
<line x1="246.1" y1="40.0" x2="218.2" y2="40.0"/>
<line x1="208.4" y1="57.0" x2="208.4" y2="105.3"/>
<line x1="208.4" y1="105.3" x2="236.3" y2="105.3"/>
<line x1="165.8" y1="48.6" x2="151.8" y2="73.1"/>
<line x1="171.0" y1="54.1" x2="161.1" y2="71.5"/>
<line x1="151.8" y1="73.1" x2="170.7" y2="105.3"/>
<line x1="170.7" y1="105.3" x2="208.4" y2="105.3"/>
<line x1="198.6" y1="40.0" x2="180.5" y2="40.0"/>
<text x="242.530864" y="113.620483" fill="rgb(12,12,255)"  stroke="rgb(12,12,255)" stroke-width="1" font-size="16" >N</text>
<text x="222.293860" y="251.493876" fill="rgb(102,102,102)"  stroke="rgb(102,102,102)" stroke-width="1" font-size="16" >H</text>
<text x="234.293860" y="256.293876" fill="rgb(102,102,102)"  stroke="rgb(102,102,102)" stroke-width="1" font-size="13" >3</text>
<text x="240.793860" y="251.493876" fill="rgb(102,102,102)"  stroke="rgb(102,102,102)" stroke-width="1" font-size="16" >C</text>
<text x="258.996706" y="80.472283" fill="rgb(12,12,255)"  stroke="rgb(12,12,255)" stroke-width="1" font-size="16" >N</text>
<text x="202.421816" y="48.320000" fill="rgb(12,12,255)"  stroke="rgb(12,12,255)" stroke-width="1" font-size="16" >N</text>
<text x="167.101450" y="48.320000" fill="rgb(12,12,255)"  stroke="rgb(12,12,255)" stroke-width="1" font-size="16" >N</text>
<text x="98.957073" y="81.468200" fill="rgb(12,12,255)"  stroke="rgb(12,12,255)" stroke-width="1" font-size="16" >HN</text>
<text x="24.400000" y="142.516519" fill="rgb(255,12,12)"  stroke="rgb(255,12,12)" stroke-width="1" font-size="16" >HO</text>
<text x="134.474041" y="145.276035" fill="rgb(124,127,175)"  stroke="rgb(124,127,175)" stroke-width="1" font-size="16" >R</text>
<text x="246.130864" y="105.300483" fill="rgb(255,0,0)"  stroke="rgb(255,0,0)" stroke-width="1" font-size="12" >1</text>
<text x="266.282641" y="140.750665" fill="rgb(255,0,0)"  stroke="rgb(255,0,0)" stroke-width="1" font-size="12" >2</text>
<text x="245.893860" y="176.065069" fill="rgb(255,0,0)"  stroke="rgb(255,0,0)" stroke-width="1" font-size="12" >3</text>
<text x="266.282641" y="211.379472" fill="rgb(255,0,0)"  stroke="rgb(255,0,0)" stroke-width="1" font-size="12" >4</text>
<text x="245.893860" y="246.693876" fill="rgb(255,0,0)"  stroke="rgb(255,0,0)" stroke-width="1" font-size="12" >5</text>
<text x="264.996706" y="72.152283" fill="rgb(255,0,0)"  stroke="rgb(255,0,0)" stroke-width="1" font-size="12" >6</text>
<text x="246.130864" y="40.000000" fill="rgb(255,0,0)"  stroke="rgb(255,0,0)" stroke-width="1" font-size="12" >7</text>
<text x="208.421816" y="40.000000" fill="rgb(255,0,0)"  stroke="rgb(255,0,0)" stroke-width="1" font-size="12" >8</text>
<text x="170.701450" y="40.000000" fill="rgb(255,0,0)"  stroke="rgb(255,0,0)" stroke-width="1" font-size="12" >9</text>
<text x="151.835609" y="73.148200" fill="rgb(255,0,0)"  stroke="rgb(255,0,0)" stroke-width="1" font-size="12" >10</text>
<text x="114.557073" y="73.148200" fill="rgb(255,0,0)"  stroke="rgb(255,0,0)" stroke-width="1" font-size="12" >11</text>
<text x="95.917804" y="105.432360" fill="rgb(255,0,0)"  stroke="rgb(255,0,0)" stroke-width="1" font-size="12" >12</text>
<text x="58.639268" y="105.432360" fill="rgb(255,0,0)"  stroke="rgb(255,0,0)" stroke-width="1" font-size="12" >13</text>
<text x="40.000000" y="137.716519" fill="rgb(255,0,0)"  stroke="rgb(255,0,0)" stroke-width="1" font-size="12" >14</text>
<text x="170.701450" y="105.300483" fill="rgb(255,0,0)"  stroke="rgb(255,0,0)" stroke-width="1" font-size="12" >15</text>
<text x="150.074041" y="140.476035" fill="rgb(255,0,0)"  stroke="rgb(255,0,0)" stroke-width="1" font-size="12" >16</text>
<text x="208.421816" y="105.300483" fill="rgb(255,0,0)"  stroke="rgb(255,0,0)" stroke-width="1" font-size="12" >17</text>
<text font-size="18.000000" fill ="black" font-family="sans-serif"
x="140.000000" y="20.000000" ></text>
<title> - OBDepict</title>
</svg>
