<?xml version="1.0"?>
<svg xmlns="http://www.w3.org/2000/svg"
xmlns:xlink="http://www.w3.org/1999/xlink" xmlns:cml="http://www.xml-cml.org/schema" width="287.932" height="357.708" x="0" y="0" font-family="sans-serif" stroke="rgb(0,0,0)" stroke-width="1" >
<line x1="233.0" y1="114.6" x2="247.9" y2="140.9"/>
<line x1="247.9" y1="140.9" x2="227.5" y2="176.3"/>
<line x1="227.5" y1="176.3" x2="247.9" y2="211.6"/>
<line x1="247.9" y1="211.6" x2="227.5" y2="247.0"/>
<line x1="227.5" y1="247.0" x2="242.6" y2="273.2"/>
<line x1="242.6" y1="291.5" x2="232.8" y2="308.5"/>
<line x1="133.3" y1="73.2" x2="96.0" y2="73.2"/>
<line x1="96.0" y1="73.2" x2="77.3" y2="105.5"/>
<line x1="77.3" y1="108.5" x2="49.7" y2="108.5"/>
<line x1="77.3" y1="102.5" x2="49.7" y2="102.5"/>
<line x1="77.3" y1="105.5" x2="96.0" y2="137.9"/>
<line x1="96.0" y1="137.9" x2="82.2" y2="161.8"/>
<line x1="152.2" y1="105.4" x2="136.9" y2="131.5"/>
<line x1="232.7" y1="96.8" x2="241.7" y2="80.8"/>
<line x1="241.7" y1="63.8" x2="227.8" y2="40.0"/>
<line x1="234.4" y1="65.5" x2="224.6" y2="48.8"/>
<line x1="227.8" y1="40.0" x2="199.8" y2="40.0"/>
<line x1="190.0" y1="57.0" x2="190.0" y2="105.4"/>
<line x1="190.0" y1="105.4" x2="217.9" y2="105.4"/>
<line x1="147.3" y1="48.6" x2="133.3" y2="73.2"/>
<line x1="152.5" y1="54.1" x2="142.6" y2="71.5"/>
<line x1="133.3" y1="73.2" x2="152.2" y2="105.4"/>
<line x1="152.2" y1="105.4" x2="190.0" y2="105.4"/>
<line x1="180.2" y1="40.0" x2="162.0" y2="40.0"/>
<text x="224.152291" y="113.711279" fill="rgb(12,12,255)"  stroke="rgb(12,12,255)" stroke-width="1" font-size="16" >N</text>
<text x="241.932087" y="287.144776" fill="rgb(12,12,255)"  stroke="rgb(12,12,255)" stroke-width="1" font-size="16" >NH</text>
<text x="203.914957" y="322.508282" fill="rgb(102,102,102)"  stroke="rgb(102,102,102)" stroke-width="1" font-size="16" >H</text>
<text x="215.914957" y="327.308282" fill="rgb(102,102,102)"  stroke="rgb(102,102,102)" stroke-width="1" font-size="13" >3</text>
<text x="222.414957" y="322.508282" fill="rgb(102,102,102)"  stroke="rgb(102,102,102)" stroke-width="1" font-size="16" >C</text>
<text x="240.644364" y="80.516988" fill="rgb(12,12,255)"  stroke="rgb(12,12,255)" stroke-width="1" font-size="16" >N</text>
<text x="183.990810" y="48.320000" fill="rgb(12,12,255)"  stroke="rgb(12,12,255)" stroke-width="1" font-size="16" >N</text>
<text x="148.617997" y="48.320000" fill="rgb(12,12,255)"  stroke="rgb(12,12,255)" stroke-width="1" font-size="16" >N</text>
<text x="36.400000" y="110.323339" fill="rgb(255,12,12)"  stroke="rgb(255,12,12)" stroke-width="1" font-size="16" >O</text>
<text x="53.730370" y="174.981436" fill="rgb(102,102,102)"  stroke="rgb(102,102,102)" stroke-width="1" font-size="16" >H</text>
<text x="65.730370" y="179.781436" fill="rgb(102,102,102)"  stroke="rgb(102,102,102)" stroke-width="1" font-size="13" >3</text>
<text x="72.230370" y="174.981436" fill="rgb(102,102,102)"  stroke="rgb(102,102,102)" stroke-width="1" font-size="16" >C</text>
<text x="115.961907" y="145.415740" fill="rgb(124,127,175)"  stroke="rgb(124,127,175)" stroke-width="1" font-size="16" >R</text>
<text x="227.752291" y="105.391279" fill="rgb(255,0,0)"  stroke="rgb(255,0,0)" stroke-width="1" font-size="12" >1</text>
<text x="247.932087" y="140.890752" fill="rgb(255,0,0)"  stroke="rgb(255,0,0)" stroke-width="1" font-size="12" >2</text>
<text x="227.514957" y="176.254258" fill="rgb(255,0,0)"  stroke="rgb(255,0,0)" stroke-width="1" font-size="12" >3</text>
<text x="247.932087" y="211.617764" fill="rgb(255,0,0)"  stroke="rgb(255,0,0)" stroke-width="1" font-size="12" >4</text>
<text x="227.514957" y="246.981270" fill="rgb(255,0,0)"  stroke="rgb(255,0,0)" stroke-width="1" font-size="12" >5</text>
<text x="247.932087" y="282.344776" fill="rgb(255,0,0)"  stroke="rgb(255,0,0)" stroke-width="1" font-size="12" >6</text>
<text x="227.514957" y="317.708282" fill="rgb(255,0,0)"  stroke="rgb(255,0,0)" stroke-width="1" font-size="12" >7</text>
<text x="246.644364" y="72.196988" fill="rgb(255,0,0)"  stroke="rgb(255,0,0)" stroke-width="1" font-size="12" >8</text>
<text x="227.752291" y="40.000000" fill="rgb(255,0,0)"  stroke="rgb(255,0,0)" stroke-width="1" font-size="12" >9</text>
<text x="189.990810" y="40.000000" fill="rgb(255,0,0)"  stroke="rgb(255,0,0)" stroke-width="1" font-size="12" >10</text>
<text x="152.217997" y="40.000000" fill="rgb(255,0,0)"  stroke="rgb(255,0,0)" stroke-width="1" font-size="12" >11</text>
<text x="133.325924" y="73.194290" fill="rgb(255,0,0)"  stroke="rgb(255,0,0)" stroke-width="1" font-size="12" >12</text>
<text x="95.995554" y="73.194290" fill="rgb(255,0,0)"  stroke="rgb(255,0,0)" stroke-width="1" font-size="12" >13</text>
<text x="77.330370" y="105.523339" fill="rgb(255,0,0)"  stroke="rgb(255,0,0)" stroke-width="1" font-size="12" >14</text>
<text x="40.000000" y="105.523339" fill="rgb(255,0,0)"  stroke="rgb(255,0,0)" stroke-width="1" font-size="12" >15</text>
<text x="95.995554" y="137.852387" fill="rgb(255,0,0)"  stroke="rgb(255,0,0)" stroke-width="1" font-size="12" >16</text>
<text x="77.330370" y="170.181436" fill="rgb(255,0,0)"  stroke="rgb(255,0,0)" stroke-width="1" font-size="12" >17</text>
<text x="152.217997" y="105.391279" fill="rgb(255,0,0)"  stroke="rgb(255,0,0)" stroke-width="1" font-size="12" >18</text>
<text x="131.561907" y="140.615740" fill="rgb(255,0,0)"  stroke="rgb(255,0,0)" stroke-width="1" font-size="12" >19</text>
<text x="189.990810" y="105.391279" fill="rgb(255,0,0)"  stroke="rgb(255,0,0)" stroke-width="1" font-size="12" >20</text>
<text font-size="18.000000" fill ="black" font-family="sans-serif"
x="140.000000" y="20.000000" ></text>
<title> - OBDepict</title>
</svg>
