<?xml version="1.0"?>
<svg xmlns="http://www.w3.org/2000/svg"
xmlns:xlink="http://www.w3.org/1999/xlink" xmlns:cml="http://www.xml-cml.org/schema" x="0" y="0" font-family="sans-serif" stroke="rgb(0,0,0)" stroke-width="1" viewBox="0 0 338.106 314.356" width="270.4848" height="251.4848">
<line x1="181.1" y1="114.9" x2="196.1" y2="141.3"/>
<line x1="196.1" y1="141.3" x2="237.1" y2="141.9"/>
<line x1="234.5" y1="140.3" x2="250.0" y2="114.3"/>
<line x1="239.7" y1="143.4" x2="255.2" y2="117.3"/>
<line x1="237.1" y1="141.9" x2="257.1" y2="177.6"/>
<line x1="257.1" y1="177.6" x2="287.4" y2="178.1"/>
<line x1="81.0" y1="73.3" x2="50.7" y2="74.1"/>
<line x1="100.0" y1="105.7" x2="100.0" y2="143.2"/>
<line x1="100.0" y1="143.2" x2="132.4" y2="161.9"/>
<line x1="132.4" y1="161.9" x2="132.4" y2="199.4"/>
<line x1="132.4" y1="199.4" x2="164.9" y2="218.1"/>
<line x1="164.9" y1="218.1" x2="164.9" y2="245.9"/>
<line x1="173.3" y1="260.5" x2="188.9" y2="269.5"/>
<line x1="180.7" y1="97.0" x2="189.9" y2="81.0"/>
<line x1="189.9" y1="63.9" x2="175.8" y2="40.0"/>
<line x1="182.5" y1="65.6" x2="172.6" y2="48.8"/>
<line x1="175.8" y1="40.0" x2="147.8" y2="40.0"/>
<line x1="137.9" y1="57.1" x2="137.9" y2="105.7"/>
<line x1="137.9" y1="105.7" x2="166.0" y2="105.7"/>
<line x1="95.0" y1="48.7" x2="81.0" y2="73.3"/>
<line x1="100.2" y1="54.1" x2="90.2" y2="71.7"/>
<line x1="81.0" y1="73.3" x2="100.0" y2="105.7"/>
<line x1="100.0" y1="105.7" x2="137.9" y2="105.7"/>
<line x1="128.0" y1="40.0" x2="109.8" y2="40.0"/>
<text x="172.212925" y="113.985188" fill="rgb(12,12,255)"  stroke="rgb(12,12,255)" stroke-width="1" font-size="16" >N</text>
<text x="252.055413" y="114.948891" fill="rgb(255,12,12)"  stroke="rgb(255,12,12)" stroke-width="1" font-size="16" >O</text>
<text x="292.105588" y="182.995109" fill="rgb(102,102,102)"  stroke="rgb(102,102,102)" stroke-width="1" font-size="16" >CH</text>
<text x="316.105588" y="187.795109" fill="rgb(102,102,102)"  stroke="rgb(102,102,102)" stroke-width="1" font-size="13" >3</text>
<text x="188.784133" y="80.651854" fill="rgb(12,12,255)"  stroke="rgb(12,12,255)" stroke-width="1" font-size="16" >N</text>
<text x="131.893271" y="48.320000" fill="rgb(12,12,255)"  stroke="rgb(12,12,255)" stroke-width="1" font-size="16" >N</text>
<text x="96.362236" y="48.320000" fill="rgb(12,12,255)"  stroke="rgb(12,12,255)" stroke-width="1" font-size="16" >N</text>
<text x="24.400000" y="79.215280" fill="rgb(124,127,175)"  stroke="rgb(124,127,175)" stroke-width="1" font-size="16" >R</text>
<text x="149.291171" y="260.412140" fill="rgb(12,12,255)"  stroke="rgb(12,12,255)" stroke-width="1" font-size="16" >HN</text>
<text x="191.355638" y="279.155508" fill="rgb(102,102,102)"  stroke="rgb(102,102,102)" stroke-width="1" font-size="16" >CH</text>
<text x="215.355638" y="283.955508" fill="rgb(102,102,102)"  stroke="rgb(102,102,102)" stroke-width="1" font-size="13" >3</text>
<text x="175.812925" y="105.665188" fill="rgb(255,0,0)"  stroke="rgb(255,0,0)" stroke-width="1" font-size="12" >1</text>
<text x="196.077250" y="141.313360" fill="rgb(255,0,0)"  stroke="rgb(255,0,0)" stroke-width="1" font-size="12" >2</text>
<text x="237.078875" y="141.862680" fill="rgb(255,0,0)"  stroke="rgb(255,0,0)" stroke-width="1" font-size="12" >3</text>
<text x="258.055413" y="106.628891" fill="rgb(255,0,0)"  stroke="rgb(255,0,0)" stroke-width="1" font-size="12" >4</text>
<text x="257.103963" y="177.645789" fill="rgb(255,0,0)"  stroke="rgb(255,0,0)" stroke-width="1" font-size="12" >5</text>
<text x="298.105588" y="178.195109" fill="rgb(255,0,0)"  stroke="rgb(255,0,0)" stroke-width="1" font-size="12" >6</text>
<text x="194.784133" y="72.331854" fill="rgb(255,0,0)"  stroke="rgb(255,0,0)" stroke-width="1" font-size="12" >7</text>
<text x="175.812925" y="40.000000" fill="rgb(255,0,0)"  stroke="rgb(255,0,0)" stroke-width="1" font-size="12" >8</text>
<text x="137.893271" y="40.000000" fill="rgb(255,0,0)"  stroke="rgb(255,0,0)" stroke-width="1" font-size="12" >9</text>
<text x="99.962236" y="40.000000" fill="rgb(255,0,0)"  stroke="rgb(255,0,0)" stroke-width="1" font-size="12" >10</text>
<text x="80.991028" y="73.333334" fill="rgb(255,0,0)"  stroke="rgb(255,0,0)" stroke-width="1" font-size="12" >11</text>
<text x="40.000000" y="74.415280" fill="rgb(255,0,0)"  stroke="rgb(255,0,0)" stroke-width="1" font-size="12" >12</text>
<text x="99.962236" y="105.665188" fill="rgb(255,0,0)"  stroke="rgb(255,0,0)" stroke-width="1" font-size="12" >13</text>
<text x="99.962236" y="143.151926" fill="rgb(255,0,0)"  stroke="rgb(255,0,0)" stroke-width="1" font-size="12" >14</text>
<text x="132.426703" y="161.895295" fill="rgb(255,0,0)"  stroke="rgb(255,0,0)" stroke-width="1" font-size="12" >15</text>
<text x="132.426703" y="199.382033" fill="rgb(255,0,0)"  stroke="rgb(255,0,0)" stroke-width="1" font-size="12" >16</text>
<text x="164.891171" y="218.125402" fill="rgb(255,0,0)"  stroke="rgb(255,0,0)" stroke-width="1" font-size="12" >17</text>
<text x="164.891171" y="255.612140" fill="rgb(255,0,0)"  stroke="rgb(255,0,0)" stroke-width="1" font-size="12" >18</text>
<text x="197.355638" y="274.355508" fill="rgb(255,0,0)"  stroke="rgb(255,0,0)" stroke-width="1" font-size="12" >19</text>
<text x="137.893271" y="105.665188" fill="rgb(255,0,0)"  stroke="rgb(255,0,0)" stroke-width="1" font-size="12" >20</text>
<text font-size="18.000000" fill ="black" font-family="sans-serif"
x="140.000000" y="20.000000" ></text>
<title> - OBDepict</title>
</svg>
