<?xml version="1.0"?>
<svg xmlns="http://www.w3.org/2000/svg"
xmlns:xlink="http://www.w3.org/1999/xlink" xmlns:cml="http://www.xml-cml.org/schema" x="0" y="0" font-family="sans-serif" stroke="rgb(0,0,0)" stroke-width="1" viewBox="0 0 282.931 389.172" width="226.3448" height="311.3376">
<line x1="228.0" y1="146.1" x2="242.9" y2="172.4"/>
<line x1="242.9" y1="172.4" x2="222.5" y2="207.7"/>
<line x1="222.5" y1="207.7" x2="242.9" y2="243.1"/>
<line x1="242.9" y1="243.1" x2="222.5" y2="278.4"/>
<line x1="222.5" y1="278.4" x2="237.6" y2="304.6"/>
<line x1="237.6" y1="323.0" x2="227.8" y2="340.0"/>
<line x1="128.3" y1="104.7" x2="91.0" y2="104.7"/>
<line x1="91.0" y1="104.7" x2="72.3" y2="72.3"/>
<line x1="72.3" y1="72.3" x2="48.4" y2="58.5"/>
<line x1="72.3" y1="72.3" x2="48.4" y2="86.1"/>
<line x1="72.3" y1="72.3" x2="86.1" y2="48.4"/>
<line x1="147.2" y1="136.9" x2="131.9" y2="162.9"/>
<line x1="227.7" y1="128.2" x2="236.7" y2="112.3"/>
<line x1="236.7" y1="95.3" x2="222.8" y2="71.5"/>
<line x1="229.4" y1="97.0" x2="219.6" y2="80.3"/>
<line x1="222.8" y1="71.5" x2="194.8" y2="71.5"/>
<line x1="185.0" y1="88.5" x2="185.0" y2="136.9"/>
<line x1="185.0" y1="136.9" x2="212.9" y2="136.9"/>
<line x1="142.3" y1="80.1" x2="128.3" y2="104.7"/>
<line x1="147.5" y1="85.6" x2="137.5" y2="103.0"/>
<line x1="128.3" y1="104.7" x2="147.2" y2="136.9"/>
<line x1="147.2" y1="136.9" x2="185.0" y2="136.9"/>
<line x1="175.2" y1="71.5" x2="157.0" y2="71.5"/>
<text x="219.150969" y="145.175085" fill="rgb(12,12,255)"  stroke="rgb(12,12,255)" stroke-width="1" font-size="16" >N</text>
<text x="236.930765" y="322.128583" fill="rgb(12,12,255)"  stroke="rgb(12,12,255)" stroke-width="1" font-size="16" >NH</text>
<text x="198.913636" y="353.972089" fill="rgb(102,102,102)"  stroke="rgb(102,102,102)" stroke-width="1" font-size="16" >H</text>
<text x="210.913636" y="358.772089" fill="rgb(102,102,102)"  stroke="rgb(102,102,102)" stroke-width="1" font-size="13" >3</text>
<text x="217.413636" y="353.972089" fill="rgb(102,102,102)"  stroke="rgb(102,102,102)" stroke-width="1" font-size="16" >C</text>
<text x="235.643042" y="111.980795" fill="rgb(12,12,255)"  stroke="rgb(12,12,255)" stroke-width="1" font-size="16" >N</text>
<text x="178.989489" y="79.783806" fill="rgb(12,12,255)"  stroke="rgb(12,12,255)" stroke-width="1" font-size="16" >N</text>
<text x="143.616676" y="79.783806" fill="rgb(12,12,255)"  stroke="rgb(12,12,255)" stroke-width="1" font-size="16" >N</text>
<text x="16.400000" y="61.983864" fill="rgb(102,102,102)"  stroke="rgb(102,102,102)" stroke-width="1" font-size="16" >H</text>
<text x="28.400000" y="69.663864" fill="rgb(102,102,102)"  stroke="rgb(102,102,102)" stroke-width="1" font-size="13" >3</text>
<text x="34.900000" y="61.983864" fill="rgb(102,102,102)"  stroke="rgb(102,102,102)" stroke-width="1" font-size="16" >C</text>
<text x="16.400000" y="95.794233" fill="rgb(102,102,102)"  stroke="rgb(102,102,102)" stroke-width="1" font-size="16" >H</text>
<text x="28.400000" y="100.594233" fill="rgb(102,102,102)"  stroke="rgb(102,102,102)" stroke-width="1" font-size="13" >3</text>
<text x="34.900000" y="95.794233" fill="rgb(102,102,102)"  stroke="rgb(102,102,102)" stroke-width="1" font-size="16" >C</text>
<text x="84.994233" y="48.320000" fill="rgb(255,12,12)"  stroke="rgb(255,12,12)" stroke-width="1" font-size="16" >OH</text>
<text x="110.960585" y="176.879547" fill="rgb(124,127,175)"  stroke="rgb(124,127,175)" stroke-width="1" font-size="16" >R</text>
<text x="222.750969" y="136.855085" fill="rgb(255,0,0)"  stroke="rgb(255,0,0)" stroke-width="1" font-size="12" >1</text>
<text x="242.930765" y="172.354558" fill="rgb(255,0,0)"  stroke="rgb(255,0,0)" stroke-width="1" font-size="12" >2</text>
<text x="222.513636" y="207.718064" fill="rgb(255,0,0)"  stroke="rgb(255,0,0)" stroke-width="1" font-size="12" >3</text>
<text x="242.930765" y="243.081570" fill="rgb(255,0,0)"  stroke="rgb(255,0,0)" stroke-width="1" font-size="12" >4</text>
<text x="222.513636" y="278.445076" fill="rgb(255,0,0)"  stroke="rgb(255,0,0)" stroke-width="1" font-size="12" >5</text>
<text x="242.930765" y="313.808583" fill="rgb(255,0,0)"  stroke="rgb(255,0,0)" stroke-width="1" font-size="12" >6</text>
<text x="222.513636" y="349.172089" fill="rgb(255,0,0)"  stroke="rgb(255,0,0)" stroke-width="1" font-size="12" >7</text>
<text x="241.643042" y="103.660795" fill="rgb(255,0,0)"  stroke="rgb(255,0,0)" stroke-width="1" font-size="12" >8</text>
<text x="222.750969" y="71.463806" fill="rgb(255,0,0)"  stroke="rgb(255,0,0)" stroke-width="1" font-size="12" >9</text>
<text x="184.989489" y="71.463806" fill="rgb(255,0,0)"  stroke="rgb(255,0,0)" stroke-width="1" font-size="12" >10</text>
<text x="147.216676" y="71.463806" fill="rgb(255,0,0)"  stroke="rgb(255,0,0)" stroke-width="1" font-size="12" >11</text>
<text x="128.324603" y="104.658097" fill="rgb(255,0,0)"  stroke="rgb(255,0,0)" stroke-width="1" font-size="12" >12</text>
<text x="90.994233" y="104.658097" fill="rgb(255,0,0)"  stroke="rgb(255,0,0)" stroke-width="1" font-size="12" >13</text>
<text x="72.329048" y="72.329048" fill="rgb(255,0,0)"  stroke="rgb(255,0,0)" stroke-width="1" font-size="12" >14</text>
<text x="40.000000" y="53.663864" fill="rgb(255,0,0)"  stroke="rgb(255,0,0)" stroke-width="1" font-size="12" >15</text>
<text x="40.000000" y="90.994233" fill="rgb(255,0,0)"  stroke="rgb(255,0,0)" stroke-width="1" font-size="12" >16</text>
<text x="90.994233" y="40.000000" fill="rgb(255,0,0)"  stroke="rgb(255,0,0)" stroke-width="1" font-size="12" >17</text>
<text x="147.216676" y="136.855085" fill="rgb(255,0,0)"  stroke="rgb(255,0,0)" stroke-width="1" font-size="12" >18</text>
<text x="126.560585" y="172.079547" fill="rgb(255,0,0)"  stroke="rgb(255,0,0)" stroke-width="1" font-size="12" >19</text>
<text x="184.989489" y="136.855085" fill="rgb(255,0,0)"  stroke="rgb(255,0,0)" stroke-width="1" font-size="12" >20</text>
<text font-size="18.000000" fill ="black" font-family="sans-serif"
x="140.000000" y="20.000000" ></text>
<title> - OBDepict</title>
</svg>
