<?xml version="1.0"?>
<svg xmlns="http://www.w3.org/2000/svg"
xmlns:xlink="http://www.w3.org/1999/xlink" xmlns:cml="http://www.xml-cml.org/schema" width="323.394" height="284.321" x="0" y="0" font-family="sans-serif" stroke="rgb(0,0,0)" stroke-width="1" >
<line x1="255.0" y1="136.6" x2="270.2" y2="109.9"/>
<line x1="270.2" y1="109.9" x2="249.5" y2="73.9"/>
<line x1="249.5" y1="73.9" x2="274.6" y2="56.3"/>
<line x1="249.5" y1="73.9" x2="218.9" y2="76.7"/>
<line x1="249.5" y1="73.9" x2="231.8" y2="48.8"/>
<line x1="153.8" y1="178.6" x2="115.8" y2="178.6"/>
<line x1="115.8" y1="178.6" x2="96.9" y2="211.5"/>
<line x1="99.5" y1="210.0" x2="113.5" y2="234.3"/>
<line x1="94.3" y1="213.0" x2="108.3" y2="237.3"/>
<line x1="96.9" y1="211.5" x2="59.0" y2="211.5"/>
<line x1="59.0" y1="211.5" x2="44.9" y2="235.8"/>
<line x1="173.0" y1="145.9" x2="173.0" y2="108.0"/>
<line x1="173.0" y1="108.0" x2="140.1" y2="89.0"/>
<line x1="140.1" y1="89.0" x2="126.1" y2="64.7"/>
<line x1="140.1" y1="89.0" x2="154.2" y2="64.7"/>
<line x1="140.1" y1="89.0" x2="115.8" y2="103.1"/>
<line x1="254.7" y1="154.7" x2="263.9" y2="170.9"/>
<line x1="263.9" y1="188.2" x2="249.7" y2="212.4"/>
<line x1="256.6" y1="186.4" x2="246.5" y2="203.5"/>
<line x1="249.7" y1="212.4" x2="221.3" y2="212.4"/>
<line x1="211.3" y1="195.1" x2="211.3" y2="145.9"/>
<line x1="211.3" y1="145.9" x2="239.7" y2="145.9"/>
<line x1="168.0" y1="203.6" x2="153.8" y2="178.6"/>
<line x1="173.2" y1="198.2" x2="163.0" y2="180.3"/>
<line x1="153.8" y1="178.6" x2="173.0" y2="145.9"/>
<line x1="173.0" y1="145.9" x2="211.3" y2="145.9"/>
<line x1="201.4" y1="212.4" x2="182.9" y2="212.4"/>
<text x="246.097643" y="150.726862" fill="rgb(12,12,255)"  stroke="rgb(12,12,255)" stroke-width="1" font-size="16" >N</text>
<text x="277.394341" y="58.402456" fill="rgb(102,102,102)"  stroke="rgb(102,102,102)" stroke-width="1" font-size="16" >CH</text>
<text x="301.394341" y="66.082456" fill="rgb(102,102,102)"  stroke="rgb(102,102,102)" stroke-width="1" font-size="13" >3</text>
<text x="184.537864" y="82.428238" fill="rgb(102,102,102)"  stroke="rgb(102,102,102)" stroke-width="1" font-size="16" >H</text>
<text x="196.537864" y="87.228238" fill="rgb(102,102,102)"  stroke="rgb(102,102,102)" stroke-width="1" font-size="13" >3</text>
<text x="203.037864" y="82.428238" fill="rgb(102,102,102)"  stroke="rgb(102,102,102)" stroke-width="1" font-size="16" >C</text>
<text x="210.001190" y="48.320000" fill="rgb(255,12,12)"  stroke="rgb(255,12,12)" stroke-width="1" font-size="16" >HO</text>
<text x="262.889928" y="184.448640" fill="rgb(12,12,255)"  stroke="rgb(12,12,255)" stroke-width="1" font-size="16" >N</text>
<text x="205.336097" y="217.157269" fill="rgb(12,12,255)"  stroke="rgb(12,12,255)" stroke-width="1" font-size="16" >N</text>
<text x="169.363038" y="217.157269" fill="rgb(12,12,255)"  stroke="rgb(12,12,255)" stroke-width="1" font-size="16" >N</text>
<text x="109.847168" y="249.121065" fill="rgb(255,12,12)"  stroke="rgb(255,12,12)" stroke-width="1" font-size="16" >O</text>
<text x="16.400000" y="249.121065" fill="rgb(102,102,102)"  stroke="rgb(102,102,102)" stroke-width="1" font-size="16" >H</text>
<text x="28.400000" y="253.921065" fill="rgb(102,102,102)"  stroke="rgb(102,102,102)" stroke-width="1" font-size="13" >3</text>
<text x="34.900000" y="249.121065" fill="rgb(102,102,102)"  stroke="rgb(102,102,102)" stroke-width="1" font-size="16" >C</text>
<text x="97.558459" y="64.518698" fill="rgb(102,102,102)"  stroke="rgb(102,102,102)" stroke-width="1" font-size="16" >H</text>
<text x="109.558459" y="72.198698" fill="rgb(102,102,102)"  stroke="rgb(102,102,102)" stroke-width="1" font-size="13" >3</text>
<text x="116.058459" y="64.518698" fill="rgb(102,102,102)"  stroke="rgb(102,102,102)" stroke-width="1" font-size="16" >C</text>
<text x="153.082043" y="64.518698" fill="rgb(102,102,102)"  stroke="rgb(102,102,102)" stroke-width="1" font-size="16" >CH</text>
<text x="177.082043" y="72.198698" fill="rgb(102,102,102)"  stroke="rgb(102,102,102)" stroke-width="1" font-size="13" >3</text>
<text x="91.677464" y="112.803277" fill="rgb(255,12,12)"  stroke="rgb(255,12,12)" stroke-width="1" font-size="16" >HO</text>
<text x="249.697643" y="145.926862" fill="rgb(255,0,0)"  stroke="rgb(255,0,0)" stroke-width="1" font-size="12" >1</text>
<text x="270.198114" y="109.863269" fill="rgb(255,0,0)"  stroke="rgb(255,0,0)" stroke-width="1" font-size="12" >2</text>
<text x="249.456537" y="73.937803" fill="rgb(255,0,0)"  stroke="rgb(255,0,0)" stroke-width="1" font-size="12" >3</text>
<text x="283.394341" y="50.082456" fill="rgb(255,0,0)"  stroke="rgb(255,0,0)" stroke-width="1" font-size="12" >4</text>
<text x="208.137864" y="77.628238" fill="rgb(255,0,0)"  stroke="rgb(255,0,0)" stroke-width="1" font-size="12" >5</text>
<text x="225.601190" y="40.000000" fill="rgb(255,0,0)"  stroke="rgb(255,0,0)" stroke-width="1" font-size="12" >6</text>
<text x="268.889928" y="179.648640" fill="rgb(255,0,0)"  stroke="rgb(255,0,0)" stroke-width="1" font-size="12" >7</text>
<text x="249.697643" y="212.357269" fill="rgb(255,0,0)"  stroke="rgb(255,0,0)" stroke-width="1" font-size="12" >8</text>
<text x="211.336097" y="212.357269" fill="rgb(255,0,0)"  stroke="rgb(255,0,0)" stroke-width="1" font-size="12" >9</text>
<text x="172.963038" y="212.357269" fill="rgb(255,0,0)"  stroke="rgb(255,0,0)" stroke-width="1" font-size="12" >10</text>
<text x="153.770752" y="178.635490" fill="rgb(255,0,0)"  stroke="rgb(255,0,0)" stroke-width="1" font-size="12" >11</text>
<text x="115.847168" y="178.635490" fill="rgb(255,0,0)"  stroke="rgb(255,0,0)" stroke-width="1" font-size="12" >12</text>
<text x="96.885376" y="211.478278" fill="rgb(255,0,0)"  stroke="rgb(255,0,0)" stroke-width="1" font-size="12" >13</text>
<text x="115.847168" y="244.321065" fill="rgb(255,0,0)"  stroke="rgb(255,0,0)" stroke-width="1" font-size="12" >14</text>
<text x="58.961792" y="211.478278" fill="rgb(255,0,0)"  stroke="rgb(255,0,0)" stroke-width="1" font-size="12" >15</text>
<text x="40.000000" y="244.321065" fill="rgb(255,0,0)"  stroke="rgb(255,0,0)" stroke-width="1" font-size="12" >16</text>
<text x="172.963038" y="145.926862" fill="rgb(255,0,0)"  stroke="rgb(255,0,0)" stroke-width="1" font-size="12" >17</text>
<text x="172.963038" y="108.003277" fill="rgb(255,0,0)"  stroke="rgb(255,0,0)" stroke-width="1" font-size="12" >18</text>
<text x="140.120251" y="89.041485" fill="rgb(255,0,0)"  stroke="rgb(255,0,0)" stroke-width="1" font-size="12" >19</text>
<text x="121.158459" y="56.198698" fill="rgb(255,0,0)"  stroke="rgb(255,0,0)" stroke-width="1" font-size="12" >20</text>
<text x="159.082043" y="56.198698" fill="rgb(255,0,0)"  stroke="rgb(255,0,0)" stroke-width="1" font-size="12" >21</text>
<text x="107.277464" y="108.003277" fill="rgb(255,0,0)"  stroke="rgb(255,0,0)" stroke-width="1" font-size="12" >22</text>
<text x="211.336097" y="145.926862" fill="rgb(255,0,0)"  stroke="rgb(255,0,0)" stroke-width="1" font-size="12" >23</text>
<text font-size="18.000000" fill ="black" font-family="sans-serif"
x="140.000000" y="20.000000" ></text>
<title> - OBDepict</title>
</svg>
