<?xml version="1.0"?>
<svg xmlns="http://www.w3.org/2000/svg"
xmlns:xlink="http://www.w3.org/1999/xlink" xmlns:cml="http://www.xml-cml.org/schema" width="371.72" height="319.835" x="0" y="0" font-family="sans-serif" stroke="rgb(0,0,0)" stroke-width="1" >
<line x1="315.1" y1="116.7" x2="325.0" y2="134.2"/>
<line x1="212.6" y1="74.1" x2="174.3" y2="74.1"/>
<line x1="174.3" y1="74.1" x2="155.1" y2="107.3"/>
<line x1="155.1" y1="107.3" x2="116.7" y2="107.3"/>
<line x1="116.7" y1="107.3" x2="97.5" y2="140.6"/>
<line x1="97.5" y1="140.6" x2="69.2" y2="140.6"/>
<line x1="54.2" y1="149.2" x2="45.0" y2="165.1"/>
<line x1="232.0" y1="107.2" x2="232.0" y2="145.6"/>
<line x1="232.0" y1="145.6" x2="265.3" y2="164.7"/>
<line x1="265.3" y1="164.7" x2="265.3" y2="203.1"/>
<line x1="265.3" y1="203.1" x2="298.5" y2="222.3"/>
<line x1="298.5" y1="222.3" x2="298.5" y2="250.7"/>
<line x1="307.1" y1="265.6" x2="323.1" y2="274.8"/>
<line x1="314.7" y1="98.3" x2="324.0" y2="82.0"/>
<line x1="324.0" y1="64.5" x2="309.7" y2="40.0"/>
<line x1="316.7" y1="66.3" x2="306.5" y2="48.8"/>
<line x1="309.7" y1="40.0" x2="281.0" y2="40.0"/>
<line x1="270.9" y1="57.5" x2="270.9" y2="107.2"/>
<line x1="270.9" y1="107.2" x2="299.6" y2="107.2"/>
<line x1="227.0" y1="48.9" x2="212.6" y2="74.1"/>
<line x1="232.2" y1="54.2" x2="221.9" y2="72.5"/>
<line x1="212.6" y1="74.1" x2="232.0" y2="107.2"/>
<line x1="232.0" y1="107.2" x2="270.9" y2="107.2"/>
<line x1="260.8" y1="40.0" x2="242.1" y2="40.0"/>
<text x="306.073678" y="115.520576" fill="rgb(12,12,255)"  stroke="rgb(12,12,255)" stroke-width="1" font-size="16" >N</text>
<text x="324.411824" y="148.482276" fill="rgb(124,127,175)"  stroke="rgb(124,127,175)" stroke-width="1" font-size="16" >R</text>
<text x="323.088472" y="81.407840" fill="rgb(12,12,255)"  stroke="rgb(12,12,255)" stroke-width="1" font-size="16" >N</text>
<text x="264.867384" y="48.320000" fill="rgb(12,12,255)"  stroke="rgb(12,12,255)" stroke-width="1" font-size="16" >N</text>
<text x="228.449443" y="48.320000" fill="rgb(12,12,255)"  stroke="rgb(12,12,255)" stroke-width="1" font-size="16" >N</text>
<text x="43.581628" y="148.879843" fill="rgb(12,12,255)"  stroke="rgb(12,12,255)" stroke-width="1" font-size="16" >HN</text>
<text x="16.400000" y="178.583397" fill="rgb(102,102,102)"  stroke="rgb(102,102,102)" stroke-width="1" font-size="16" >H</text>
<text x="28.400000" y="183.383397" fill="rgb(102,102,102)"  stroke="rgb(102,102,102)" stroke-width="1" font-size="13" >3</text>
<text x="34.900000" y="178.583397" fill="rgb(102,102,102)"  stroke="rgb(102,102,102)" stroke-width="1" font-size="16" >C</text>
<text x="282.896550" y="265.453597" fill="rgb(12,12,255)"  stroke="rgb(12,12,255)" stroke-width="1" font-size="16" >HN</text>
<text x="325.720104" y="284.635225" fill="rgb(102,102,102)"  stroke="rgb(102,102,102)" stroke-width="1" font-size="16" >CH</text>
<text x="349.720104" y="289.435225" fill="rgb(102,102,102)"  stroke="rgb(102,102,102)" stroke-width="1" font-size="13" >3</text>
<text x="309.673678" y="107.200576" fill="rgb(255,0,0)"  stroke="rgb(255,0,0)" stroke-width="1" font-size="12" >1</text>
<text x="330.411824" y="143.682276" fill="rgb(255,0,0)"  stroke="rgb(255,0,0)" stroke-width="1" font-size="12" >2</text>
<text x="329.088472" y="73.087840" fill="rgb(255,0,0)"  stroke="rgb(255,0,0)" stroke-width="1" font-size="12" >3</text>
<text x="309.673678" y="40.000000" fill="rgb(255,0,0)"  stroke="rgb(255,0,0)" stroke-width="1" font-size="12" >4</text>
<text x="270.867384" y="40.000000" fill="rgb(255,0,0)"  stroke="rgb(255,0,0)" stroke-width="1" font-size="12" >5</text>
<text x="232.049443" y="40.000000" fill="rgb(255,0,0)"  stroke="rgb(255,0,0)" stroke-width="1" font-size="12" >6</text>
<text x="212.634649" y="74.112736" fill="rgb(255,0,0)"  stroke="rgb(255,0,0)" stroke-width="1" font-size="12" >7</text>
<text x="174.271394" y="74.112736" fill="rgb(255,0,0)"  stroke="rgb(255,0,0)" stroke-width="1" font-size="12" >8</text>
<text x="155.089766" y="107.336290" fill="rgb(255,0,0)"  stroke="rgb(255,0,0)" stroke-width="1" font-size="12" >9</text>
<text x="116.726511" y="107.336290" fill="rgb(255,0,0)"  stroke="rgb(255,0,0)" stroke-width="1" font-size="12" >10</text>
<text x="97.544883" y="140.559843" fill="rgb(255,0,0)"  stroke="rgb(255,0,0)" stroke-width="1" font-size="12" >11</text>
<text x="59.181628" y="140.559843" fill="rgb(255,0,0)"  stroke="rgb(255,0,0)" stroke-width="1" font-size="12" >12</text>
<text x="40.000000" y="173.783397" fill="rgb(255,0,0)"  stroke="rgb(255,0,0)" stroke-width="1" font-size="12" >13</text>
<text x="232.049443" y="107.200576" fill="rgb(255,0,0)"  stroke="rgb(255,0,0)" stroke-width="1" font-size="12" >14</text>
<text x="232.049443" y="145.563831" fill="rgb(255,0,0)"  stroke="rgb(255,0,0)" stroke-width="1" font-size="12" >15</text>
<text x="265.272996" y="164.745459" fill="rgb(255,0,0)"  stroke="rgb(255,0,0)" stroke-width="1" font-size="12" >16</text>
<text x="265.272996" y="203.108714" fill="rgb(255,0,0)"  stroke="rgb(255,0,0)" stroke-width="1" font-size="12" >17</text>
<text x="298.496550" y="222.290342" fill="rgb(255,0,0)"  stroke="rgb(255,0,0)" stroke-width="1" font-size="12" >18</text>
<text x="298.496550" y="260.653597" fill="rgb(255,0,0)"  stroke="rgb(255,0,0)" stroke-width="1" font-size="12" >19</text>
<text x="331.720104" y="279.835225" fill="rgb(255,0,0)"  stroke="rgb(255,0,0)" stroke-width="1" font-size="12" >20</text>
<text x="270.867384" y="107.200576" fill="rgb(255,0,0)"  stroke="rgb(255,0,0)" stroke-width="1" font-size="12" >21</text>
<text font-size="18.000000" fill ="black" font-family="sans-serif"
x="140.000000" y="20.000000" ></text>
<title> - OBDepict</title>
</svg>
