<?xml version="1.0"?>
<svg xmlns="http://www.w3.org/2000/svg"
xmlns:xlink="http://www.w3.org/1999/xlink" xmlns:cml="http://www.xml-cml.org/schema" width="234.342" height="355.771" x="0" y="0" font-family="sans-serif" stroke="rgb(0,0,0)" stroke-width="1" >
<line x1="179.5" y1="114.1" x2="194.3" y2="140.2"/>
<line x1="194.3" y1="140.2" x2="174.1" y2="175.3"/>
<line x1="174.1" y1="175.3" x2="194.3" y2="210.4"/>
<line x1="194.3" y1="210.4" x2="174.1" y2="245.5"/>
<line x1="174.1" y1="245.5" x2="189.1" y2="271.5"/>
<line x1="189.1" y1="289.8" x2="179.3" y2="306.6"/>
<line x1="80.5" y1="73.0" x2="50.5" y2="73.8"/>
<line x1="99.3" y1="104.9" x2="99.3" y2="132.4"/>
<line x1="107.6" y1="146.8" x2="131.4" y2="160.5"/>
<line x1="131.4" y1="160.5" x2="131.4" y2="188.0"/>
<line x1="179.2" y1="96.4" x2="188.2" y2="80.5"/>
<line x1="188.2" y1="63.7" x2="174.3" y2="40.0"/>
<line x1="180.8" y1="65.3" x2="171.1" y2="48.8"/>
<line x1="174.3" y1="40.0" x2="146.6" y2="40.0"/>
<line x1="136.8" y1="56.9" x2="136.8" y2="104.9"/>
<line x1="136.8" y1="104.9" x2="164.6" y2="104.9"/>
<line x1="94.4" y1="48.6" x2="80.5" y2="73.0"/>
<line x1="99.6" y1="54.1" x2="89.8" y2="71.3"/>
<line x1="80.5" y1="73.0" x2="99.3" y2="104.9"/>
<line x1="99.3" y1="104.9" x2="136.8" y2="104.9"/>
<line x1="127.1" y1="40.0" x2="109.0" y2="40.0"/>
<text x="170.702885" y="113.255088" fill="rgb(12,12,255)"  stroke="rgb(12,12,255)" stroke-width="1" font-size="16" >N</text>
<text x="188.341901" y="288.974099" fill="rgb(12,12,255)"  stroke="rgb(12,12,255)" stroke-width="1" font-size="16" >NH</text>
<text x="150.467207" y="320.570897" fill="rgb(102,102,102)"  stroke="rgb(102,102,102)" stroke-width="1" font-size="16" >H</text>
<text x="162.467207" y="325.370897" fill="rgb(102,102,102)"  stroke="rgb(102,102,102)" stroke-width="1" font-size="13" >3</text>
<text x="168.967207" y="320.570897" fill="rgb(102,102,102)"  stroke="rgb(102,102,102)" stroke-width="1" font-size="16" >C</text>
<text x="187.063161" y="80.292372" fill="rgb(12,12,255)"  stroke="rgb(12,12,255)" stroke-width="1" font-size="16" >N</text>
<text x="130.804842" y="48.320000" fill="rgb(12,12,255)"  stroke="rgb(12,12,255)" stroke-width="1" font-size="16" >N</text>
<text x="95.695544" y="48.320000" fill="rgb(12,12,255)"  stroke="rgb(12,12,255)" stroke-width="1" font-size="16" >N</text>
<text x="24.400000" y="78.832633" fill="rgb(124,127,175)"  stroke="rgb(124,127,175)" stroke-width="1" font-size="16" >R</text>
<text x="83.695544" y="146.805028" fill="rgb(12,12,255)"  stroke="rgb(12,12,255)" stroke-width="1" font-size="16" >HN</text>
<text x="125.399054" y="202.409939" fill="rgb(102,102,102)"  stroke="rgb(102,102,102)" stroke-width="1" font-size="16" >CH</text>
<text x="149.399054" y="207.209939" fill="rgb(102,102,102)"  stroke="rgb(102,102,102)" stroke-width="1" font-size="13" >3</text>
<text x="174.302885" y="104.935088" fill="rgb(255,0,0)"  stroke="rgb(255,0,0)" stroke-width="1" font-size="12" >1</text>
<text x="194.341901" y="140.186904" fill="rgb(255,0,0)"  stroke="rgb(255,0,0)" stroke-width="1" font-size="12" >2</text>
<text x="174.067207" y="175.303703" fill="rgb(255,0,0)"  stroke="rgb(255,0,0)" stroke-width="1" font-size="12" >3</text>
<text x="194.341901" y="210.420502" fill="rgb(255,0,0)"  stroke="rgb(255,0,0)" stroke-width="1" font-size="12" >4</text>
<text x="174.067207" y="245.537300" fill="rgb(255,0,0)"  stroke="rgb(255,0,0)" stroke-width="1" font-size="12" >5</text>
<text x="194.341901" y="280.654099" fill="rgb(255,0,0)"  stroke="rgb(255,0,0)" stroke-width="1" font-size="12" >6</text>
<text x="174.067207" y="315.770897" fill="rgb(255,0,0)"  stroke="rgb(255,0,0)" stroke-width="1" font-size="12" >7</text>
<text x="193.063161" y="71.972372" fill="rgb(255,0,0)"  stroke="rgb(255,0,0)" stroke-width="1" font-size="12" >8</text>
<text x="174.302885" y="40.000000" fill="rgb(255,0,0)"  stroke="rgb(255,0,0)" stroke-width="1" font-size="12" >9</text>
<text x="136.804842" y="40.000000" fill="rgb(255,0,0)"  stroke="rgb(255,0,0)" stroke-width="1" font-size="12" >10</text>
<text x="99.295544" y="40.000000" fill="rgb(255,0,0)"  stroke="rgb(255,0,0)" stroke-width="1" font-size="12" >11</text>
<text x="80.535269" y="72.962716" fill="rgb(255,0,0)"  stroke="rgb(255,0,0)" stroke-width="1" font-size="12" >12</text>
<text x="40.000000" y="74.032633" fill="rgb(255,0,0)"  stroke="rgb(255,0,0)" stroke-width="1" font-size="12" >13</text>
<text x="99.295544" y="104.935088" fill="rgb(255,0,0)"  stroke="rgb(255,0,0)" stroke-width="1" font-size="12" >14</text>
<text x="99.295544" y="142.005028" fill="rgb(255,0,0)"  stroke="rgb(255,0,0)" stroke-width="1" font-size="12" >15</text>
<text x="131.399054" y="160.539998" fill="rgb(255,0,0)"  stroke="rgb(255,0,0)" stroke-width="1" font-size="12" >16</text>
<text x="131.399054" y="197.609939" fill="rgb(255,0,0)"  stroke="rgb(255,0,0)" stroke-width="1" font-size="12" >17</text>
<text x="136.804842" y="104.935088" fill="rgb(255,0,0)"  stroke="rgb(255,0,0)" stroke-width="1" font-size="12" >18</text>
<text font-size="18.000000" fill ="black" font-family="sans-serif"
x="140.000000" y="20.000000" ></text>
<title> - OBDepict</title>
</svg>
