<?xml version="1.0"?>
<svg xmlns="http://www.w3.org/2000/svg"
xmlns:xlink="http://www.w3.org/1999/xlink" xmlns:cml="http://www.xml-cml.org/schema" width="414.109" height="317.58" x="0" y="0" font-family="sans-serif" stroke="rgb(0,0,0)" stroke-width="1" >
<line x1="255.5" y1="116.0" x2="265.3" y2="133.3"/>
<line x1="281.5" y1="142.9" x2="312.2" y2="143.3"/>
<line x1="312.2" y1="143.3" x2="332.5" y2="179.5"/>
<line x1="332.5" y1="179.5" x2="363.3" y2="180.0"/>
<line x1="332.5" y1="179.5" x2="316.8" y2="206.0"/>
<line x1="154.0" y1="73.8" x2="116.0" y2="73.8"/>
<line x1="116.0" y1="73.8" x2="101.9" y2="98.1"/>
<line x1="87.1" y1="106.7" x2="59.0" y2="106.7"/>
<line x1="59.0" y1="106.7" x2="44.9" y2="82.3"/>
<line x1="59.0" y1="106.7" x2="44.9" y2="131.1"/>
<line x1="173.2" y1="106.6" x2="173.2" y2="144.6"/>
<line x1="173.2" y1="144.6" x2="206.2" y2="163.6"/>
<line x1="206.2" y1="163.6" x2="206.2" y2="201.6"/>
<line x1="206.2" y1="201.6" x2="239.1" y2="220.6"/>
<line x1="239.1" y1="220.6" x2="239.1" y2="248.7"/>
<line x1="247.6" y1="263.5" x2="263.4" y2="272.6"/>
<line x1="255.1" y1="97.8" x2="264.4" y2="81.6"/>
<line x1="264.4" y1="64.3" x2="250.1" y2="40.0"/>
<line x1="257.0" y1="66.0" x2="247.0" y2="48.8"/>
<line x1="250.1" y1="40.0" x2="221.7" y2="40.0"/>
<line x1="211.7" y1="57.3" x2="211.7" y2="106.6"/>
<line x1="211.7" y1="106.6" x2="240.1" y2="106.6"/>
<line x1="168.2" y1="48.8" x2="154.0" y2="73.8"/>
<line x1="173.5" y1="54.2" x2="163.2" y2="72.1"/>
<line x1="154.0" y1="73.8" x2="173.2" y2="106.6"/>
<line x1="173.2" y1="106.6" x2="211.7" y2="106.6"/>
<line x1="201.7" y1="40.0" x2="183.2" y2="40.0"/>
<text x="246.533968" y="114.888632" fill="rgb(12,12,255)"  stroke="rgb(12,12,255)" stroke-width="1" font-size="16" >N</text>
<text x="255.077096" y="147.507264" fill="rgb(12,12,255)"  stroke="rgb(12,12,255)" stroke-width="1" font-size="16" >HN</text>
<text x="368.109174" y="184.896444" fill="rgb(255,12,12)"  stroke="rgb(255,12,12)" stroke-width="1" font-size="16" >OH</text>
<text x="287.678295" y="220.058114" fill="rgb(102,102,102)"  stroke="rgb(102,102,102)" stroke-width="1" font-size="16" >H</text>
<text x="299.678295" y="224.858114" fill="rgb(102,102,102)"  stroke="rgb(102,102,102)" stroke-width="1" font-size="13" >3</text>
<text x="306.178295" y="220.058114" fill="rgb(102,102,102)"  stroke="rgb(102,102,102)" stroke-width="1" font-size="16" >C</text>
<text x="263.366188" y="81.096687" fill="rgb(12,12,255)"  stroke="rgb(12,12,255)" stroke-width="1" font-size="16" >N</text>
<text x="205.692602" y="48.320000" fill="rgb(12,12,255)"  stroke="rgb(12,12,255)" stroke-width="1" font-size="16" >N</text>
<text x="169.639699" y="48.320000" fill="rgb(12,12,255)"  stroke="rgb(12,12,255)" stroke-width="1" font-size="16" >N</text>
<text x="91.003740" y="111.503069" fill="rgb(255,12,12)"  stroke="rgb(255,12,12)" stroke-width="1" font-size="16" >O</text>
<text x="16.400000" y="82.111945" fill="rgb(102,102,102)"  stroke="rgb(102,102,102)" stroke-width="1" font-size="16" >H</text>
<text x="28.400000" y="89.791945" fill="rgb(102,102,102)"  stroke="rgb(102,102,102)" stroke-width="1" font-size="13" >3</text>
<text x="34.900000" y="82.111945" fill="rgb(102,102,102)"  stroke="rgb(102,102,102)" stroke-width="1" font-size="16" >C</text>
<text x="16.400000" y="144.414194" fill="rgb(102,102,102)"  stroke="rgb(102,102,102)" stroke-width="1" font-size="16" >H</text>
<text x="28.400000" y="149.214194" fill="rgb(102,102,102)"  stroke="rgb(102,102,102)" stroke-width="1" font-size="13" >3</text>
<text x="34.900000" y="144.414194" fill="rgb(102,102,102)"  stroke="rgb(102,102,102)" stroke-width="1" font-size="16" >C</text>
<text x="223.461948" y="263.378604" fill="rgb(12,12,255)"  stroke="rgb(12,12,255)" stroke-width="1" font-size="16" >HN</text>
<text x="265.973073" y="282.379851" fill="rgb(102,102,102)"  stroke="rgb(102,102,102)" stroke-width="1" font-size="16" >CH</text>
<text x="289.973073" y="287.179851" fill="rgb(102,102,102)"  stroke="rgb(102,102,102)" stroke-width="1" font-size="13" >3</text>
<text x="250.133968" y="106.568632" fill="rgb(255,0,0)"  stroke="rgb(255,0,0)" stroke-width="1" font-size="12" >1</text>
<text x="270.677096" y="142.707264" fill="rgb(255,0,0)"  stroke="rgb(255,0,0)" stroke-width="1" font-size="12" >2</text>
<text x="312.242836" y="143.264141" fill="rgb(255,0,0)"  stroke="rgb(255,0,0)" stroke-width="1" font-size="12" >3</text>
<text x="332.543435" y="179.539567" fill="rgb(255,0,0)"  stroke="rgb(255,0,0)" stroke-width="1" font-size="12" >4</text>
<text x="374.109174" y="180.096444" fill="rgb(255,0,0)"  stroke="rgb(255,0,0)" stroke-width="1" font-size="12" >5</text>
<text x="311.278295" y="215.258114" fill="rgb(255,0,0)"  stroke="rgb(255,0,0)" stroke-width="1" font-size="12" >6</text>
<text x="269.366188" y="72.776687" fill="rgb(255,0,0)"  stroke="rgb(255,0,0)" stroke-width="1" font-size="12" >7</text>
<text x="250.133968" y="40.000000" fill="rgb(255,0,0)"  stroke="rgb(255,0,0)" stroke-width="1" font-size="12" >8</text>
<text x="211.692602" y="40.000000" fill="rgb(255,0,0)"  stroke="rgb(255,0,0)" stroke-width="1" font-size="12" >9</text>
<text x="173.239699" y="40.000000" fill="rgb(255,0,0)"  stroke="rgb(255,0,0)" stroke-width="1" font-size="12" >10</text>
<text x="154.007479" y="73.791945" fill="rgb(255,0,0)"  stroke="rgb(255,0,0)" stroke-width="1" font-size="12" >11</text>
<text x="116.004986" y="73.791945" fill="rgb(255,0,0)"  stroke="rgb(255,0,0)" stroke-width="1" font-size="12" >12</text>
<text x="97.003740" y="106.703069" fill="rgb(255,0,0)"  stroke="rgb(255,0,0)" stroke-width="1" font-size="12" >13</text>
<text x="59.001247" y="106.703069" fill="rgb(255,0,0)"  stroke="rgb(255,0,0)" stroke-width="1" font-size="12" >14</text>
<text x="40.000000" y="73.791945" fill="rgb(255,0,0)"  stroke="rgb(255,0,0)" stroke-width="1" font-size="12" >15</text>
<text x="40.000000" y="139.614194" fill="rgb(255,0,0)"  stroke="rgb(255,0,0)" stroke-width="1" font-size="12" >16</text>
<text x="173.239699" y="106.568632" fill="rgb(255,0,0)"  stroke="rgb(255,0,0)" stroke-width="1" font-size="12" >17</text>
<text x="173.239699" y="144.571125" fill="rgb(255,0,0)"  stroke="rgb(255,0,0)" stroke-width="1" font-size="12" >18</text>
<text x="206.150824" y="163.572371" fill="rgb(255,0,0)"  stroke="rgb(255,0,0)" stroke-width="1" font-size="12" >19</text>
<text x="206.150824" y="201.574865" fill="rgb(255,0,0)"  stroke="rgb(255,0,0)" stroke-width="1" font-size="12" >20</text>
<text x="239.061948" y="220.576111" fill="rgb(255,0,0)"  stroke="rgb(255,0,0)" stroke-width="1" font-size="12" >21</text>
<text x="239.061948" y="258.578604" fill="rgb(255,0,0)"  stroke="rgb(255,0,0)" stroke-width="1" font-size="12" >22</text>
<text x="271.973073" y="277.579851" fill="rgb(255,0,0)"  stroke="rgb(255,0,0)" stroke-width="1" font-size="12" >23</text>
<text x="211.692602" y="106.568632" fill="rgb(255,0,0)"  stroke="rgb(255,0,0)" stroke-width="1" font-size="12" >24</text>
<text font-size="18.000000" fill ="black" font-family="sans-serif"
x="140.000000" y="20.000000" ></text>
<title> - OBDepict</title>
</svg>
