<?xml version="1.0"?>
<svg xmlns="http://www.w3.org/2000/svg"
xmlns:xlink="http://www.w3.org/1999/xlink" xmlns:cml="http://www.xml-cml.org/schema" x="0" y="0" font-family="sans-serif" stroke="rgb(0,0,0)" stroke-width="1" viewBox="0 0 471.753 241.839" width="377.4024" height="193.4712">
<line x1="312.9" y1="116.1" x2="328.2" y2="142.9"/>
<line x1="328.2" y1="142.9" x2="369.8" y2="143.4"/>
<line x1="369.8" y1="143.4" x2="384.8" y2="170.3"/>
<line x1="400.9" y1="179.9" x2="420.9" y2="180.2"/>
<line x1="211.3" y1="73.8" x2="173.2" y2="73.8"/>
<line x1="173.2" y1="73.8" x2="154.2" y2="106.8"/>
<line x1="154.2" y1="106.8" x2="116.1" y2="106.8"/>
<line x1="116.1" y1="106.8" x2="97.1" y2="139.8"/>
<line x1="97.1" y1="139.8" x2="68.9" y2="139.8"/>
<line x1="54.1" y1="148.3" x2="44.9" y2="164.2"/>
<line x1="230.6" y1="106.7" x2="230.6" y2="144.7"/>
<line x1="230.6" y1="144.7" x2="263.5" y2="163.8"/>
<line x1="266.5" y1="163.8" x2="266.5" y2="191.9"/>
<line x1="260.5" y1="163.8" x2="260.5" y2="191.9"/>
<line x1="263.5" y1="163.8" x2="296.5" y2="144.7"/>
<line x1="296.5" y1="144.7" x2="320.9" y2="158.8"/>
<line x1="312.6" y1="97.9" x2="321.8" y2="81.6"/>
<line x1="321.8" y1="64.3" x2="307.6" y2="40.0"/>
<line x1="314.5" y1="66.0" x2="304.4" y2="48.8"/>
<line x1="307.6" y1="40.0" x2="279.1" y2="40.0"/>
<line x1="269.1" y1="57.3" x2="269.1" y2="106.7"/>
<line x1="269.1" y1="106.7" x2="297.6" y2="106.7"/>
<line x1="225.5" y1="48.8" x2="211.3" y2="73.8"/>
<line x1="230.8" y1="54.2" x2="220.5" y2="72.2"/>
<line x1="211.3" y1="73.8" x2="230.6" y2="106.7"/>
<line x1="230.6" y1="106.7" x2="269.1" y2="106.7"/>
<line x1="259.1" y1="40.0" x2="240.6" y2="40.0"/>
<text x="303.975157" y="114.997641" fill="rgb(12,12,255)"  stroke="rgb(12,12,255)" stroke-width="1" font-size="16" >N</text>
<text x="374.519573" y="184.568068" fill="rgb(12,12,255)"  stroke="rgb(12,12,255)" stroke-width="1" font-size="16" >HN</text>
<text x="425.753378" y="185.125858" fill="rgb(102,102,102)"  stroke="rgb(102,102,102)" stroke-width="1" font-size="16" >CH</text>
<text x="449.753378" y="189.925858" fill="rgb(102,102,102)"  stroke="rgb(102,102,102)" stroke-width="1" font-size="13" >3</text>
<text x="320.838870" y="81.150360" fill="rgb(12,12,255)"  stroke="rgb(12,12,255)" stroke-width="1" font-size="16" >N</text>
<text x="263.070842" y="48.320000" fill="rgb(12,12,255)"  stroke="rgb(12,12,255)" stroke-width="1" font-size="16" >N</text>
<text x="226.954970" y="48.320000" fill="rgb(12,12,255)"  stroke="rgb(12,12,255)" stroke-width="1" font-size="16" >N</text>
<text x="43.432362" y="148.097316" fill="rgb(12,12,255)"  stroke="rgb(12,12,255)" stroke-width="1" font-size="16" >HN</text>
<text x="16.400000" y="177.542334" fill="rgb(102,102,102)"  stroke="rgb(102,102,102)" stroke-width="1" font-size="16" >H</text>
<text x="28.400000" y="182.342334" fill="rgb(102,102,102)"  stroke="rgb(102,102,102)" stroke-width="1" font-size="13" >3</text>
<text x="34.900000" y="177.542334" fill="rgb(102,102,102)"  stroke="rgb(102,102,102)" stroke-width="1" font-size="16" >C</text>
<text x="257.519988" y="206.639450" fill="rgb(255,12,12)"  stroke="rgb(255,12,12)" stroke-width="1" font-size="16" >O</text>
<text x="323.450024" y="168.574726" fill="rgb(102,102,102)"  stroke="rgb(102,102,102)" stroke-width="1" font-size="16" >CH</text>
<text x="347.450024" y="173.374726" fill="rgb(102,102,102)"  stroke="rgb(102,102,102)" stroke-width="1" font-size="13" >3</text>
<text x="307.575157" y="106.677641" fill="rgb(255,0,0)"  stroke="rgb(255,0,0)" stroke-width="1" font-size="12" >1</text>
<text x="328.151925" y="142.875451" fill="rgb(255,0,0)"  stroke="rgb(255,0,0)" stroke-width="1" font-size="12" >2</text>
<text x="369.785730" y="143.433241" fill="rgb(255,0,0)"  stroke="rgb(255,0,0)" stroke-width="1" font-size="12" >3</text>
<text x="390.119573" y="179.768068" fill="rgb(255,0,0)"  stroke="rgb(255,0,0)" stroke-width="1" font-size="12" >4</text>
<text x="431.753378" y="180.325858" fill="rgb(255,0,0)"  stroke="rgb(255,0,0)" stroke-width="1" font-size="12" >5</text>
<text x="326.838870" y="72.830360" fill="rgb(255,0,0)"  stroke="rgb(255,0,0)" stroke-width="1" font-size="12" >6</text>
<text x="307.575157" y="40.000000" fill="rgb(255,0,0)"  stroke="rgb(255,0,0)" stroke-width="1" font-size="12" >7</text>
<text x="269.070842" y="40.000000" fill="rgb(255,0,0)"  stroke="rgb(255,0,0)" stroke-width="1" font-size="12" >8</text>
<text x="230.554970" y="40.000000" fill="rgb(255,0,0)"  stroke="rgb(255,0,0)" stroke-width="1" font-size="12" >9</text>
<text x="211.291257" y="73.847281" fill="rgb(255,0,0)"  stroke="rgb(255,0,0)" stroke-width="1" font-size="12" >10</text>
<text x="173.226533" y="73.847281" fill="rgb(255,0,0)"  stroke="rgb(255,0,0)" stroke-width="1" font-size="12" >11</text>
<text x="154.194171" y="106.812298" fill="rgb(255,0,0)"  stroke="rgb(255,0,0)" stroke-width="1" font-size="12" >12</text>
<text x="116.129448" y="106.812298" fill="rgb(255,0,0)"  stroke="rgb(255,0,0)" stroke-width="1" font-size="12" >13</text>
<text x="97.097086" y="139.777316" fill="rgb(255,0,0)"  stroke="rgb(255,0,0)" stroke-width="1" font-size="12" >14</text>
<text x="59.032362" y="139.777316" fill="rgb(255,0,0)"  stroke="rgb(255,0,0)" stroke-width="1" font-size="12" >15</text>
<text x="40.000000" y="172.742334" fill="rgb(255,0,0)"  stroke="rgb(255,0,0)" stroke-width="1" font-size="12" >16</text>
<text x="230.554970" y="106.677641" fill="rgb(255,0,0)"  stroke="rgb(255,0,0)" stroke-width="1" font-size="12" >17</text>
<text x="230.554970" y="144.742364" fill="rgb(255,0,0)"  stroke="rgb(255,0,0)" stroke-width="1" font-size="12" >18</text>
<text x="263.519988" y="163.774726" fill="rgb(255,0,0)"  stroke="rgb(255,0,0)" stroke-width="1" font-size="12" >19</text>
<text x="263.519988" y="201.839450" fill="rgb(255,0,0)"  stroke="rgb(255,0,0)" stroke-width="1" font-size="12" >20</text>
<text x="296.485006" y="144.742364" fill="rgb(255,0,0)"  stroke="rgb(255,0,0)" stroke-width="1" font-size="12" >21</text>
<text x="329.450024" y="163.774726" fill="rgb(255,0,0)"  stroke="rgb(255,0,0)" stroke-width="1" font-size="12" >22</text>
<text x="269.070842" y="106.677641" fill="rgb(255,0,0)"  stroke="rgb(255,0,0)" stroke-width="1" font-size="12" >23</text>
<text font-size="18.000000" fill ="black" font-family="sans-serif"
x="140.000000" y="20.000000" ></text>
<title> - OBDepict</title>
</svg>
