<?xml version="1.0"?>
<svg xmlns="http://www.w3.org/2000/svg"
xmlns:xlink="http://www.w3.org/1999/xlink" xmlns:cml="http://www.xml-cml.org/schema" x="0" y="0" font-family="sans-serif" stroke="rgb(0,0,0)" stroke-width="1" viewBox="0 0 450.697 260.576" width="360.5576" height="208.4608">
<line x1="312.5" y1="116.0" x2="327.7" y2="142.7"/>
<line x1="327.7" y1="142.7" x2="369.2" y2="143.3"/>
<line x1="369.2" y1="143.3" x2="371.6" y2="173.9"/>
<line x1="369.2" y1="143.3" x2="382.6" y2="115.5"/>
<line x1="369.2" y1="143.3" x2="399.9" y2="140.9"/>
<line x1="211.0" y1="73.8" x2="173.0" y2="73.8"/>
<line x1="173.0" y1="73.8" x2="154.0" y2="106.7"/>
<line x1="154.0" y1="106.7" x2="116.0" y2="106.7"/>
<line x1="116.0" y1="106.7" x2="97.0" y2="139.6"/>
<line x1="97.0" y1="139.6" x2="68.9" y2="139.6"/>
<line x1="54.1" y1="148.2" x2="44.9" y2="164.0"/>
<line x1="230.2" y1="106.6" x2="230.2" y2="144.6"/>
<line x1="230.2" y1="144.6" x2="254.6" y2="158.6"/>
<line x1="263.2" y1="173.5" x2="263.2" y2="201.6"/>
<line x1="263.2" y1="201.6" x2="238.8" y2="215.6"/>
<line x1="263.2" y1="201.6" x2="287.5" y2="215.6"/>
<line x1="312.1" y1="97.8" x2="321.4" y2="81.6"/>
<line x1="321.4" y1="64.3" x2="307.1" y2="40.0"/>
<line x1="314.0" y1="66.0" x2="304.0" y2="48.8"/>
<line x1="307.1" y1="40.0" x2="278.7" y2="40.0"/>
<line x1="268.7" y1="57.3" x2="268.7" y2="106.6"/>
<line x1="268.7" y1="106.6" x2="297.1" y2="106.6"/>
<line x1="225.2" y1="48.8" x2="211.0" y2="73.8"/>
<line x1="230.5" y1="54.2" x2="220.2" y2="72.1"/>
<line x1="211.0" y1="73.8" x2="230.2" y2="106.6"/>
<line x1="230.2" y1="106.6" x2="268.7" y2="106.6"/>
<line x1="258.7" y1="40.0" x2="240.2" y2="40.0"/>
<text x="303.537708" y="114.888632" fill="rgb(12,12,255)"  stroke="rgb(12,12,255)" stroke-width="1" font-size="16" >N</text>
<text x="366.389687" y="189.514614" fill="rgb(102,102,102)"  stroke="rgb(102,102,102)" stroke-width="1" font-size="16" >CH</text>
<text x="390.389687" y="194.314614" fill="rgb(102,102,102)"  stroke="rgb(102,102,102)" stroke-width="1" font-size="13" >3</text>
<text x="381.249796" y="114.115423" fill="rgb(102,102,102)"  stroke="rgb(102,102,102)" stroke-width="1" font-size="16" >CH</text>
<text x="405.249796" y="121.795423" fill="rgb(102,102,102)"  stroke="rgb(102,102,102)" stroke-width="1" font-size="13" >3</text>
<text x="404.697048" y="148.441029" fill="rgb(255,12,12)"  stroke="rgb(255,12,12)" stroke-width="1" font-size="16" >OH</text>
<text x="320.369928" y="81.096687" fill="rgb(12,12,255)"  stroke="rgb(12,12,255)" stroke-width="1" font-size="16" >N</text>
<text x="262.696342" y="48.320000" fill="rgb(12,12,255)"  stroke="rgb(12,12,255)" stroke-width="1" font-size="16" >N</text>
<text x="226.643439" y="48.320000" fill="rgb(12,12,255)"  stroke="rgb(12,12,255)" stroke-width="1" font-size="16" >N</text>
<text x="43.401247" y="147.934194" fill="rgb(12,12,255)"  stroke="rgb(12,12,255)" stroke-width="1" font-size="16" >HN</text>
<text x="16.400000" y="177.325318" fill="rgb(102,102,102)"  stroke="rgb(102,102,102)" stroke-width="1" font-size="16" >H</text>
<text x="28.400000" y="182.125318" fill="rgb(102,102,102)"  stroke="rgb(102,102,102)" stroke-width="1" font-size="13" >3</text>
<text x="34.900000" y="177.325318" fill="rgb(102,102,102)"  stroke="rgb(102,102,102)" stroke-width="1" font-size="16" >C</text>
<text x="257.154563" y="171.892371" fill="rgb(255,12,12)"  stroke="rgb(255,12,12)" stroke-width="1" font-size="16" >O</text>
<text x="206.643439" y="225.376111" fill="rgb(102,102,102)"  stroke="rgb(102,102,102)" stroke-width="1" font-size="16" >H</text>
<text x="218.643439" y="230.176111" fill="rgb(102,102,102)"  stroke="rgb(102,102,102)" stroke-width="1" font-size="13" >3</text>
<text x="225.143439" y="225.376111" fill="rgb(102,102,102)"  stroke="rgb(102,102,102)" stroke-width="1" font-size="16" >C</text>
<text x="290.065688" y="225.376111" fill="rgb(102,102,102)"  stroke="rgb(102,102,102)" stroke-width="1" font-size="16" >CH</text>
<text x="314.065688" y="230.176111" fill="rgb(102,102,102)"  stroke="rgb(102,102,102)" stroke-width="1" font-size="13" >3</text>
<text x="307.137708" y="106.568632" fill="rgb(255,0,0)"  stroke="rgb(255,0,0)" stroke-width="1" font-size="12" >1</text>
<text x="327.680836" y="142.707264" fill="rgb(255,0,0)"  stroke="rgb(255,0,0)" stroke-width="1" font-size="12" >2</text>
<text x="369.246575" y="143.264141" fill="rgb(255,0,0)"  stroke="rgb(255,0,0)" stroke-width="1" font-size="12" >3</text>
<text x="372.389687" y="184.714614" fill="rgb(255,0,0)"  stroke="rgb(255,0,0)" stroke-width="1" font-size="12" >4</text>
<text x="387.249796" y="105.795423" fill="rgb(255,0,0)"  stroke="rgb(255,0,0)" stroke-width="1" font-size="12" >5</text>
<text x="410.697048" y="140.121029" fill="rgb(255,0,0)"  stroke="rgb(255,0,0)" stroke-width="1" font-size="12" >6</text>
<text x="326.369928" y="72.776687" fill="rgb(255,0,0)"  stroke="rgb(255,0,0)" stroke-width="1" font-size="12" >7</text>
<text x="307.137708" y="40.000000" fill="rgb(255,0,0)"  stroke="rgb(255,0,0)" stroke-width="1" font-size="12" >8</text>
<text x="268.696342" y="40.000000" fill="rgb(255,0,0)"  stroke="rgb(255,0,0)" stroke-width="1" font-size="12" >9</text>
<text x="230.243439" y="40.000000" fill="rgb(255,0,0)"  stroke="rgb(255,0,0)" stroke-width="1" font-size="12" >10</text>
<text x="211.011219" y="73.791945" fill="rgb(255,0,0)"  stroke="rgb(255,0,0)" stroke-width="1" font-size="12" >11</text>
<text x="173.008726" y="73.791945" fill="rgb(255,0,0)"  stroke="rgb(255,0,0)" stroke-width="1" font-size="12" >12</text>
<text x="154.007479" y="106.703069" fill="rgb(255,0,0)"  stroke="rgb(255,0,0)" stroke-width="1" font-size="12" >13</text>
<text x="116.004986" y="106.703069" fill="rgb(255,0,0)"  stroke="rgb(255,0,0)" stroke-width="1" font-size="12" >14</text>
<text x="97.003740" y="139.614194" fill="rgb(255,0,0)"  stroke="rgb(255,0,0)" stroke-width="1" font-size="12" >15</text>
<text x="59.001247" y="139.614194" fill="rgb(255,0,0)"  stroke="rgb(255,0,0)" stroke-width="1" font-size="12" >16</text>
<text x="40.000000" y="172.525318" fill="rgb(255,0,0)"  stroke="rgb(255,0,0)" stroke-width="1" font-size="12" >17</text>
<text x="230.243439" y="106.568632" fill="rgb(255,0,0)"  stroke="rgb(255,0,0)" stroke-width="1" font-size="12" >18</text>
<text x="230.243439" y="144.571125" fill="rgb(255,0,0)"  stroke="rgb(255,0,0)" stroke-width="1" font-size="12" >19</text>
<text x="263.154563" y="163.572371" fill="rgb(255,0,0)"  stroke="rgb(255,0,0)" stroke-width="1" font-size="12" >20</text>
<text x="263.154563" y="201.574865" fill="rgb(255,0,0)"  stroke="rgb(255,0,0)" stroke-width="1" font-size="12" >21</text>
<text x="230.243439" y="220.576111" fill="rgb(255,0,0)"  stroke="rgb(255,0,0)" stroke-width="1" font-size="12" >22</text>
<text x="296.065688" y="220.576111" fill="rgb(255,0,0)"  stroke="rgb(255,0,0)" stroke-width="1" font-size="12" >23</text>
<text x="268.696342" y="106.568632" fill="rgb(255,0,0)"  stroke="rgb(255,0,0)" stroke-width="1" font-size="12" >24</text>
<text font-size="18.000000" fill ="black" font-family="sans-serif"
x="140.000000" y="20.000000" ></text>
<title> - OBDepict</title>
</svg>
