<?xml version="1.0"?>
<svg xmlns="http://www.w3.org/2000/svg"
xmlns:xlink="http://www.w3.org/1999/xlink" xmlns:cml="http://www.xml-cml.org/schema" width="398.768" height="314.088" x="0" y="0" font-family="sans-serif" stroke="rgb(0,0,0)" stroke-width="1" >
<line x1="180.9" y1="114.8" x2="195.9" y2="141.2"/>
<line x1="195.9" y1="141.2" x2="236.9" y2="141.7"/>
<line x1="236.9" y1="141.7" x2="256.9" y2="177.5"/>
<line x1="256.9" y1="177.5" x2="297.8" y2="178.0"/>
<line x1="297.8" y1="178.0" x2="312.6" y2="204.5"/>
<line x1="328.5" y1="213.9" x2="348.1" y2="214.2"/>
<line x1="80.9" y1="73.3" x2="50.6" y2="74.1"/>
<line x1="99.9" y1="105.6" x2="99.9" y2="143.0"/>
<line x1="99.9" y1="143.0" x2="132.3" y2="161.8"/>
<line x1="132.3" y1="161.8" x2="132.3" y2="199.2"/>
<line x1="132.3" y1="199.2" x2="164.7" y2="217.9"/>
<line x1="164.7" y1="217.9" x2="164.7" y2="245.6"/>
<line x1="173.2" y1="260.2" x2="188.7" y2="269.2"/>
<line x1="180.6" y1="96.9" x2="189.7" y2="81.0"/>
<line x1="189.7" y1="63.9" x2="175.7" y2="40.0"/>
<line x1="182.3" y1="65.6" x2="172.5" y2="48.8"/>
<line x1="175.7" y1="40.0" x2="147.6" y2="40.0"/>
<line x1="137.8" y1="57.1" x2="137.8" y2="105.6"/>
<line x1="137.8" y1="105.6" x2="165.8" y2="105.6"/>
<line x1="95.0" y1="48.7" x2="80.9" y2="73.3"/>
<line x1="100.2" y1="54.1" x2="90.2" y2="71.6"/>
<line x1="80.9" y1="73.3" x2="99.9" y2="105.6"/>
<line x1="99.9" y1="105.6" x2="137.8" y2="105.6"/>
<line x1="127.9" y1="40.0" x2="109.7" y2="40.0"/>
<text x="172.057951" y="113.910258" fill="rgb(12,12,255)"  stroke="rgb(12,12,255)" stroke-width="1" font-size="16" >N</text>
<text x="302.213304" y="218.579694" fill="rgb(12,12,255)"  stroke="rgb(12,12,255)" stroke-width="1" font-size="16" >HN</text>
<text x="352.768143" y="219.128387" fill="rgb(102,102,102)"  stroke="rgb(102,102,102)" stroke-width="1" font-size="16" >CH</text>
<text x="376.768143" y="223.928387" fill="rgb(102,102,102)"  stroke="rgb(102,102,102)" stroke-width="1" font-size="13" >3</text>
<text x="188.607511" y="80.614961" fill="rgb(12,12,255)"  stroke="rgb(12,12,255)" stroke-width="1" font-size="16" >N</text>
<text x="131.781566" y="48.320000" fill="rgb(12,12,255)"  stroke="rgb(12,12,255)" stroke-width="1" font-size="16" >N</text>
<text x="96.293814" y="48.320000" fill="rgb(12,12,255)"  stroke="rgb(12,12,255)" stroke-width="1" font-size="16" >N</text>
<text x="24.400000" y="79.176010" fill="rgb(124,127,175)"  stroke="rgb(124,127,175)" stroke-width="1" font-size="16" >R</text>
<text x="149.148659" y="260.166107" fill="rgb(12,12,255)"  stroke="rgb(12,12,255)" stroke-width="1" font-size="16" >HN</text>
<text x="191.176081" y="278.888088" fill="rgb(102,102,102)"  stroke="rgb(102,102,102)" stroke-width="1" font-size="16" >CH</text>
<text x="215.176081" y="283.688088" fill="rgb(102,102,102)"  stroke="rgb(102,102,102)" stroke-width="1" font-size="13" >3</text>
<text x="175.657951" y="105.590258" fill="rgb(255,0,0)"  stroke="rgb(255,0,0)" stroke-width="1" font-size="12" >1</text>
<text x="195.899152" y="141.197753" fill="rgb(255,0,0)"  stroke="rgb(255,0,0)" stroke-width="1" font-size="12" >2</text>
<text x="236.853991" y="141.746446" fill="rgb(255,0,0)"  stroke="rgb(255,0,0)" stroke-width="1" font-size="12" >3</text>
<text x="256.856228" y="177.488723" fill="rgb(255,0,0)"  stroke="rgb(255,0,0)" stroke-width="1" font-size="12" >4</text>
<text x="297.811067" y="178.037417" fill="rgb(255,0,0)"  stroke="rgb(255,0,0)" stroke-width="1" font-size="12" >5</text>
<text x="317.813304" y="213.779694" fill="rgb(255,0,0)"  stroke="rgb(255,0,0)" stroke-width="1" font-size="12" >6</text>
<text x="358.768143" y="214.328387" fill="rgb(255,0,0)"  stroke="rgb(255,0,0)" stroke-width="1" font-size="12" >7</text>
<text x="194.607511" y="72.294961" fill="rgb(255,0,0)"  stroke="rgb(255,0,0)" stroke-width="1" font-size="12" >8</text>
<text x="175.657951" y="40.000000" fill="rgb(255,0,0)"  stroke="rgb(255,0,0)" stroke-width="1" font-size="12" >9</text>
<text x="137.781566" y="40.000000" fill="rgb(255,0,0)"  stroke="rgb(255,0,0)" stroke-width="1" font-size="12" >10</text>
<text x="99.893814" y="40.000000" fill="rgb(255,0,0)"  stroke="rgb(255,0,0)" stroke-width="1" font-size="12" >11</text>
<text x="80.944254" y="73.295297" fill="rgb(255,0,0)"  stroke="rgb(255,0,0)" stroke-width="1" font-size="12" >12</text>
<text x="40.000000" y="74.376010" fill="rgb(255,0,0)"  stroke="rgb(255,0,0)" stroke-width="1" font-size="12" >13</text>
<text x="99.893814" y="105.590258" fill="rgb(255,0,0)"  stroke="rgb(255,0,0)" stroke-width="1" font-size="12" >14</text>
<text x="99.893814" y="143.034220" fill="rgb(255,0,0)"  stroke="rgb(255,0,0)" stroke-width="1" font-size="12" >15</text>
<text x="132.321236" y="161.756201" fill="rgb(255,0,0)"  stroke="rgb(255,0,0)" stroke-width="1" font-size="12" >16</text>
<text x="132.321236" y="199.200164" fill="rgb(255,0,0)"  stroke="rgb(255,0,0)" stroke-width="1" font-size="12" >17</text>
<text x="164.748659" y="217.922145" fill="rgb(255,0,0)"  stroke="rgb(255,0,0)" stroke-width="1" font-size="12" >18</text>
<text x="164.748659" y="255.366107" fill="rgb(255,0,0)"  stroke="rgb(255,0,0)" stroke-width="1" font-size="12" >19</text>
<text x="197.176081" y="274.088088" fill="rgb(255,0,0)"  stroke="rgb(255,0,0)" stroke-width="1" font-size="12" >20</text>
<text x="137.781566" y="105.590258" fill="rgb(255,0,0)"  stroke="rgb(255,0,0)" stroke-width="1" font-size="12" >21</text>
<text font-size="18.000000" fill ="black" font-family="sans-serif"
x="140.000000" y="20.000000" ></text>
<title> - OBDepict</title>
</svg>
