<?xml version="1.0"?>
<svg xmlns="http://www.w3.org/2000/svg"
xmlns:xlink="http://www.w3.org/1999/xlink" xmlns:cml="http://www.xml-cml.org/schema" x="0" y="0" font-family="sans-serif" stroke="rgb(0,0,0)" stroke-width="1" viewBox="0 0 289.95 360.404" width="231.96" height="288.3232">
<line x1="234.9" y1="115.3" x2="250.0" y2="141.9"/>
<line x1="250.0" y1="141.9" x2="229.3" y2="177.6"/>
<line x1="229.3" y1="177.6" x2="250.0" y2="213.3"/>
<line x1="250.0" y1="213.3" x2="229.3" y2="249.0"/>
<line x1="229.3" y1="249.0" x2="244.6" y2="275.4"/>
<line x1="244.6" y1="294.0" x2="234.7" y2="311.1"/>
<line x1="134.2" y1="73.5" x2="106.3" y2="73.5"/>
<line x1="91.6" y1="82.0" x2="77.7" y2="106.2"/>
<line x1="77.7" y1="106.2" x2="49.8" y2="106.2"/>
<line x1="153.3" y1="106.0" x2="153.3" y2="143.7"/>
<line x1="153.3" y1="143.7" x2="177.5" y2="157.7"/>
<line x1="185.9" y1="172.4" x2="185.9" y2="200.3"/>
<line x1="185.9" y1="200.3" x2="161.8" y2="214.2"/>
<line x1="185.9" y1="200.3" x2="210.1" y2="214.2"/>
<line x1="234.5" y1="97.3" x2="243.7" y2="81.2"/>
<line x1="243.7" y1="64.1" x2="229.6" y2="40.0"/>
<line x1="236.4" y1="65.8" x2="226.4" y2="48.8"/>
<line x1="229.6" y1="40.0" x2="201.4" y2="40.0"/>
<line x1="191.4" y1="57.2" x2="191.4" y2="106.0"/>
<line x1="191.4" y1="106.0" x2="219.7" y2="106.0"/>
<line x1="148.3" y1="48.7" x2="134.2" y2="73.5"/>
<line x1="153.5" y1="54.1" x2="143.5" y2="71.9"/>
<line x1="134.2" y1="73.5" x2="153.3" y2="106.0"/>
<line x1="153.3" y1="106.0" x2="191.4" y2="106.0"/>
<line x1="181.5" y1="40.0" x2="163.2" y2="40.0"/>
<text x="225.974504" y="114.345928" fill="rgb(12,12,255)"  stroke="rgb(12,12,255)" stroke-width="1" font-size="16" >N</text>
<text x="243.950153" y="293.016832" fill="rgb(12,12,255)"  stroke="rgb(12,12,255)" stroke-width="1" font-size="16" >NH</text>
<text x="205.734866" y="325.203555" fill="rgb(102,102,102)"  stroke="rgb(102,102,102)" stroke-width="1" font-size="16" >H</text>
<text x="217.734866" y="330.003555" fill="rgb(102,102,102)"  stroke="rgb(102,102,102)" stroke-width="1" font-size="13" >3</text>
<text x="224.234866" y="325.203555" fill="rgb(102,102,102)"  stroke="rgb(102,102,102)" stroke-width="1" font-size="16" >C</text>
<text x="242.649932" y="80.829473" fill="rgb(12,12,255)"  stroke="rgb(12,12,255)" stroke-width="1" font-size="16" >N</text>
<text x="185.446533" y="48.320000" fill="rgb(12,12,255)"  stroke="rgb(12,12,255)" stroke-width="1" font-size="16" >N</text>
<text x="149.707119" y="48.320000" fill="rgb(12,12,255)"  stroke="rgb(12,12,255)" stroke-width="1" font-size="16" >N</text>
<text x="80.939014" y="81.836455" fill="rgb(12,12,255)"  stroke="rgb(12,12,255)" stroke-width="1" font-size="16" >HN</text>
<text x="16.400000" y="110.959270" fill="rgb(102,102,102)"  stroke="rgb(102,102,102)" stroke-width="1" font-size="16" >H</text>
<text x="28.400000" y="115.759270" fill="rgb(102,102,102)"  stroke="rgb(102,102,102)" stroke-width="1" font-size="13" >3</text>
<text x="34.900000" y="110.959270" fill="rgb(102,102,102)"  stroke="rgb(102,102,102)" stroke-width="1" font-size="16" >C</text>
<text x="179.949934" y="170.884942" fill="rgb(255,12,12)"  stroke="rgb(255,12,12)" stroke-width="1" font-size="16" >O</text>
<text x="129.707119" y="223.903956" fill="rgb(102,102,102)"  stroke="rgb(102,102,102)" stroke-width="1" font-size="16" >H</text>
<text x="141.707119" y="228.703956" fill="rgb(102,102,102)"  stroke="rgb(102,102,102)" stroke-width="1" font-size="13" >3</text>
<text x="148.207119" y="223.903956" fill="rgb(102,102,102)"  stroke="rgb(102,102,102)" stroke-width="1" font-size="16" >C</text>
<text x="212.592749" y="223.903956" fill="rgb(102,102,102)"  stroke="rgb(102,102,102)" stroke-width="1" font-size="16" >CH</text>
<text x="236.592749" y="228.703956" fill="rgb(102,102,102)"  stroke="rgb(102,102,102)" stroke-width="1" font-size="13" >3</text>
<text x="229.574504" y="106.025928" fill="rgb(255,0,0)"  stroke="rgb(255,0,0)" stroke-width="1" font-size="12" >1</text>
<text x="249.950153" y="141.869938" fill="rgb(255,0,0)"  stroke="rgb(255,0,0)" stroke-width="1" font-size="12" >2</text>
<text x="229.334866" y="177.576661" fill="rgb(255,0,0)"  stroke="rgb(255,0,0)" stroke-width="1" font-size="12" >3</text>
<text x="249.950153" y="213.283385" fill="rgb(255,0,0)"  stroke="rgb(255,0,0)" stroke-width="1" font-size="12" >4</text>
<text x="229.334866" y="248.990108" fill="rgb(255,0,0)"  stroke="rgb(255,0,0)" stroke-width="1" font-size="12" >5</text>
<text x="249.950153" y="284.696832" fill="rgb(255,0,0)"  stroke="rgb(255,0,0)" stroke-width="1" font-size="12" >6</text>
<text x="229.334866" y="320.403555" fill="rgb(255,0,0)"  stroke="rgb(255,0,0)" stroke-width="1" font-size="12" >7</text>
<text x="248.649932" y="72.509473" fill="rgb(255,0,0)"  stroke="rgb(255,0,0)" stroke-width="1" font-size="12" >8</text>
<text x="229.574504" y="40.000000" fill="rgb(255,0,0)"  stroke="rgb(255,0,0)" stroke-width="1" font-size="12" >9</text>
<text x="191.446533" y="40.000000" fill="rgb(255,0,0)"  stroke="rgb(255,0,0)" stroke-width="1" font-size="12" >10</text>
<text x="153.307119" y="40.000000" fill="rgb(255,0,0)"  stroke="rgb(255,0,0)" stroke-width="1" font-size="12" >11</text>
<text x="134.231690" y="73.516455" fill="rgb(255,0,0)"  stroke="rgb(255,0,0)" stroke-width="1" font-size="12" >12</text>
<text x="96.539014" y="73.516455" fill="rgb(255,0,0)"  stroke="rgb(255,0,0)" stroke-width="1" font-size="12" >13</text>
<text x="77.692676" y="106.159270" fill="rgb(255,0,0)"  stroke="rgb(255,0,0)" stroke-width="1" font-size="12" >14</text>
<text x="40.000000" y="106.159270" fill="rgb(255,0,0)"  stroke="rgb(255,0,0)" stroke-width="1" font-size="12" >15</text>
<text x="153.307119" y="106.025928" fill="rgb(255,0,0)"  stroke="rgb(255,0,0)" stroke-width="1" font-size="12" >16</text>
<text x="153.307119" y="143.718604" fill="rgb(255,0,0)"  stroke="rgb(255,0,0)" stroke-width="1" font-size="12" >17</text>
<text x="185.949934" y="162.564942" fill="rgb(255,0,0)"  stroke="rgb(255,0,0)" stroke-width="1" font-size="12" >18</text>
<text x="185.949934" y="200.257618" fill="rgb(255,0,0)"  stroke="rgb(255,0,0)" stroke-width="1" font-size="12" >19</text>
<text x="153.307119" y="219.103956" fill="rgb(255,0,0)"  stroke="rgb(255,0,0)" stroke-width="1" font-size="12" >20</text>
<text x="218.592749" y="219.103956" fill="rgb(255,0,0)"  stroke="rgb(255,0,0)" stroke-width="1" font-size="12" >21</text>
<text x="191.446533" y="106.025928" fill="rgb(255,0,0)"  stroke="rgb(255,0,0)" stroke-width="1" font-size="12" >22</text>
<text font-size="18.000000" fill ="black" font-family="sans-serif"
x="140.000000" y="20.000000" ></text>
<title> - OBDepict</title>
</svg>
