<?xml version="1.0"?>
<svg xmlns="http://www.w3.org/2000/svg"
xmlns:xlink="http://www.w3.org/1999/xlink" xmlns:cml="http://www.xml-cml.org/schema" width="294.575" height="319.369" x="0" y="0" font-family="sans-serif" stroke="rgb(0,0,0)" stroke-width="1" >
<line x1="238.0" y1="116.5" x2="247.9" y2="134.0"/>
<line x1="135.7" y1="74.0" x2="97.4" y2="74.0"/>
<line x1="97.4" y1="74.0" x2="78.3" y2="107.2"/>
<line x1="78.3" y1="110.2" x2="50.0" y2="110.2"/>
<line x1="78.3" y1="104.2" x2="50.0" y2="104.2"/>
<line x1="78.3" y1="107.2" x2="97.4" y2="140.4"/>
<line x1="97.4" y1="140.4" x2="83.3" y2="164.9"/>
<line x1="155.1" y1="107.1" x2="155.1" y2="145.4"/>
<line x1="155.1" y1="145.4" x2="188.3" y2="164.5"/>
<line x1="188.3" y1="164.5" x2="188.3" y2="202.8"/>
<line x1="188.3" y1="202.8" x2="221.4" y2="221.9"/>
<line x1="221.4" y1="221.9" x2="221.4" y2="250.3"/>
<line x1="230.0" y1="265.2" x2="246.0" y2="274.4"/>
<line x1="237.6" y1="98.2" x2="246.9" y2="81.9"/>
<line x1="246.9" y1="64.4" x2="232.6" y2="40.0"/>
<line x1="239.6" y1="66.2" x2="229.4" y2="48.8"/>
<line x1="232.6" y1="40.0" x2="203.9" y2="40.0"/>
<line x1="193.8" y1="57.4" x2="193.8" y2="107.1"/>
<line x1="193.8" y1="107.1" x2="222.5" y2="107.1"/>
<line x1="150.1" y1="48.9" x2="135.7" y2="74.0"/>
<line x1="155.3" y1="54.2" x2="144.9" y2="72.4"/>
<line x1="135.7" y1="74.0" x2="155.1" y2="107.1"/>
<line x1="155.1" y1="107.1" x2="193.8" y2="107.1"/>
<line x1="183.8" y1="40.0" x2="165.2" y2="40.0"/>
<text x="228.971940" y="115.389890" fill="rgb(12,12,255)"  stroke="rgb(12,12,255)" stroke-width="1" font-size="16" >N</text>
<text x="247.269756" y="148.280643" fill="rgb(124,127,175)"  stroke="rgb(124,127,175)" stroke-width="1" font-size="16" >R</text>
<text x="245.948977" y="81.343493" fill="rgb(12,12,255)"  stroke="rgb(12,12,255)" stroke-width="1" font-size="16" >N</text>
<text x="187.841113" y="48.320000" fill="rgb(12,12,255)"  stroke="rgb(12,12,255)" stroke-width="1" font-size="16" >N</text>
<text x="151.498662" y="48.320000" fill="rgb(12,12,255)"  stroke="rgb(12,12,255)" stroke-width="1" font-size="16" >N</text>
<text x="36.400000" y="112.005340" fill="rgb(255,12,12)"  stroke="rgb(255,12,12)" stroke-width="1" font-size="16" >O</text>
<text x="54.688650" y="178.323226" fill="rgb(102,102,102)"  stroke="rgb(102,102,102)" stroke-width="1" font-size="16" >H</text>
<text x="66.688650" y="183.123226" fill="rgb(102,102,102)"  stroke="rgb(102,102,102)" stroke-width="1" font-size="13" >3</text>
<text x="73.188650" y="178.323226" fill="rgb(102,102,102)"  stroke="rgb(102,102,102)" stroke-width="1" font-size="16" >C</text>
<text x="205.816548" y="265.024488" fill="rgb(12,12,255)"  stroke="rgb(12,12,255)" stroke-width="1" font-size="16" >HN</text>
<text x="248.575491" y="284.168813" fill="rgb(102,102,102)"  stroke="rgb(102,102,102)" stroke-width="1" font-size="16" >CH</text>
<text x="272.575491" y="288.968813" fill="rgb(102,102,102)"  stroke="rgb(102,102,102)" stroke-width="1" font-size="13" >3</text>
<text x="232.571940" y="107.069890" fill="rgb(255,0,0)"  stroke="rgb(255,0,0)" stroke-width="1" font-size="12" >1</text>
<text x="253.269756" y="143.480643" fill="rgb(255,0,0)"  stroke="rgb(255,0,0)" stroke-width="1" font-size="12" >2</text>
<text x="251.948977" y="73.023493" fill="rgb(255,0,0)"  stroke="rgb(255,0,0)" stroke-width="1" font-size="12" >3</text>
<text x="232.571940" y="40.000000" fill="rgb(255,0,0)"  stroke="rgb(255,0,0)" stroke-width="1" font-size="12" >4</text>
<text x="193.841113" y="40.000000" fill="rgb(255,0,0)"  stroke="rgb(255,0,0)" stroke-width="1" font-size="12" >5</text>
<text x="155.098662" y="40.000000" fill="rgb(255,0,0)"  stroke="rgb(255,0,0)" stroke-width="1" font-size="12" >6</text>
<text x="135.721624" y="74.046396" fill="rgb(255,0,0)"  stroke="rgb(255,0,0)" stroke-width="1" font-size="12" >7</text>
<text x="97.432974" y="74.046396" fill="rgb(255,0,0)"  stroke="rgb(255,0,0)" stroke-width="1" font-size="12" >8</text>
<text x="78.288650" y="107.205340" fill="rgb(255,0,0)"  stroke="rgb(255,0,0)" stroke-width="1" font-size="12" >9</text>
<text x="40.000000" y="107.205340" fill="rgb(255,0,0)"  stroke="rgb(255,0,0)" stroke-width="1" font-size="12" >10</text>
<text x="97.432974" y="140.364283" fill="rgb(255,0,0)"  stroke="rgb(255,0,0)" stroke-width="1" font-size="12" >11</text>
<text x="78.288650" y="173.523226" fill="rgb(255,0,0)"  stroke="rgb(255,0,0)" stroke-width="1" font-size="12" >12</text>
<text x="155.098662" y="107.069890" fill="rgb(255,0,0)"  stroke="rgb(255,0,0)" stroke-width="1" font-size="12" >13</text>
<text x="155.098662" y="145.358539" fill="rgb(255,0,0)"  stroke="rgb(255,0,0)" stroke-width="1" font-size="12" >14</text>
<text x="188.257605" y="164.502864" fill="rgb(255,0,0)"  stroke="rgb(255,0,0)" stroke-width="1" font-size="12" >15</text>
<text x="188.257605" y="202.791514" fill="rgb(255,0,0)"  stroke="rgb(255,0,0)" stroke-width="1" font-size="12" >16</text>
<text x="221.416548" y="221.935839" fill="rgb(255,0,0)"  stroke="rgb(255,0,0)" stroke-width="1" font-size="12" >17</text>
<text x="221.416548" y="260.224488" fill="rgb(255,0,0)"  stroke="rgb(255,0,0)" stroke-width="1" font-size="12" >18</text>
<text x="254.575491" y="279.368813" fill="rgb(255,0,0)"  stroke="rgb(255,0,0)" stroke-width="1" font-size="12" >19</text>
<text x="193.841113" y="107.069890" fill="rgb(255,0,0)"  stroke="rgb(255,0,0)" stroke-width="1" font-size="12" >20</text>
<text font-size="18.000000" fill ="black" font-family="sans-serif"
x="140.000000" y="20.000000" ></text>
<title> - OBDepict</title>
</svg>
