<?xml version="1.0"?>
<svg xmlns="http://www.w3.org/2000/svg"
xmlns:xlink="http://www.w3.org/1999/xlink" xmlns:cml="http://www.xml-cml.org/schema" x="0" y="0" font-family="sans-serif" stroke="rgb(0,0,0)" stroke-width="1" viewBox="0 0 311.918 261.547" width="249.5344" height="209.2376">
<line x1="256.6" y1="116.4" x2="266.5" y2="133.8"/>
<line x1="154.6" y1="74.0" x2="116.4" y2="74.0"/>
<line x1="116.4" y1="74.0" x2="97.3" y2="107.1"/>
<line x1="97.3" y1="107.1" x2="59.1" y2="107.1"/>
<line x1="56.5" y1="108.6" x2="42.4" y2="84.1"/>
<line x1="61.7" y1="105.6" x2="47.6" y2="81.1"/>
<line x1="59.1" y1="107.1" x2="45.0" y2="131.5"/>
<line x1="174.0" y1="106.9" x2="174.0" y2="145.1"/>
<line x1="174.0" y1="145.1" x2="198.4" y2="159.3"/>
<line x1="207.0" y1="174.2" x2="207.0" y2="202.4"/>
<line x1="207.0" y1="202.4" x2="182.6" y2="216.6"/>
<line x1="207.0" y1="202.4" x2="231.5" y2="216.6"/>
<line x1="256.3" y1="98.1" x2="265.6" y2="81.8"/>
<line x1="265.6" y1="64.4" x2="251.3" y2="40.0"/>
<line x1="258.3" y1="66.1" x2="248.1" y2="48.8"/>
<line x1="251.3" y1="40.0" x2="222.7" y2="40.0"/>
<line x1="212.6" y1="57.4" x2="212.6" y2="106.9"/>
<line x1="212.6" y1="106.9" x2="241.2" y2="106.9"/>
<line x1="168.9" y1="48.8" x2="154.6" y2="74.0"/>
<line x1="174.2" y1="54.2" x2="163.8" y2="72.3"/>
<line x1="154.6" y1="74.0" x2="174.0" y2="106.9"/>
<line x1="174.0" y1="106.9" x2="212.6" y2="106.9"/>
<line x1="202.6" y1="40.0" x2="184.0" y2="40.0"/>
<text x="247.664330" y="115.246721" fill="rgb(12,12,255)"  stroke="rgb(12,12,255)" stroke-width="1" font-size="16" >N</text>
<text x="265.917965" y="148.059751" fill="rgb(124,127,175)"  stroke="rgb(124,127,175)" stroke-width="1" font-size="16" >R</text>
<text x="264.600005" y="81.273001" fill="rgb(12,12,255)"  stroke="rgb(12,12,255)" stroke-width="1" font-size="16" >N</text>
<text x="206.616179" y="48.320000" fill="rgb(12,12,255)"  stroke="rgb(12,12,255)" stroke-width="1" font-size="16" >N</text>
<text x="170.356428" y="48.320000" fill="rgb(12,12,255)"  stroke="rgb(12,12,255)" stroke-width="1" font-size="16" >N</text>
<text x="36.400000" y="82.293720" fill="rgb(255,12,12)"  stroke="rgb(255,12,12)" stroke-width="1" font-size="16" >O</text>
<text x="16.400000" y="144.950043" fill="rgb(102,102,102)"  stroke="rgb(102,102,102)" stroke-width="1" font-size="16" >H</text>
<text x="28.400000" y="149.750043" fill="rgb(102,102,102)"  stroke="rgb(102,102,102)" stroke-width="1" font-size="13" >3</text>
<text x="34.900000" y="144.950043" fill="rgb(102,102,102)"  stroke="rgb(102,102,102)" stroke-width="1" font-size="16" >C</text>
<text x="201.044590" y="172.557098" fill="rgb(255,12,12)"  stroke="rgb(255,12,12)" stroke-width="1" font-size="16" >O</text>
<text x="150.356428" y="226.347475" fill="rgb(102,102,102)"  stroke="rgb(102,102,102)" stroke-width="1" font-size="16" >H</text>
<text x="162.356428" y="231.147475" fill="rgb(102,102,102)"  stroke="rgb(102,102,102)" stroke-width="1" font-size="13" >3</text>
<text x="168.856428" y="226.347475" fill="rgb(102,102,102)"  stroke="rgb(102,102,102)" stroke-width="1" font-size="16" >C</text>
<text x="234.132751" y="226.347475" fill="rgb(102,102,102)"  stroke="rgb(102,102,102)" stroke-width="1" font-size="16" >CH</text>
<text x="258.132751" y="231.147475" fill="rgb(102,102,102)"  stroke="rgb(102,102,102)" stroke-width="1" font-size="13" >3</text>
<text x="251.264330" y="106.926721" fill="rgb(255,0,0)"  stroke="rgb(255,0,0)" stroke-width="1" font-size="12" >1</text>
<text x="271.917965" y="143.259751" fill="rgb(255,0,0)"  stroke="rgb(255,0,0)" stroke-width="1" font-size="12" >2</text>
<text x="270.600005" y="72.953001" fill="rgb(255,0,0)"  stroke="rgb(255,0,0)" stroke-width="1" font-size="12" >3</text>
<text x="251.264330" y="40.000000" fill="rgb(255,0,0)"  stroke="rgb(255,0,0)" stroke-width="1" font-size="12" >4</text>
<text x="212.616179" y="40.000000" fill="rgb(255,0,0)"  stroke="rgb(255,0,0)" stroke-width="1" font-size="12" >5</text>
<text x="173.956428" y="40.000000" fill="rgb(255,0,0)"  stroke="rgb(255,0,0)" stroke-width="1" font-size="12" >6</text>
<text x="154.620754" y="73.973720" fill="rgb(255,0,0)"  stroke="rgb(255,0,0)" stroke-width="1" font-size="12" >7</text>
<text x="116.413836" y="73.973720" fill="rgb(255,0,0)"  stroke="rgb(255,0,0)" stroke-width="1" font-size="12" >8</text>
<text x="97.310377" y="107.061882" fill="rgb(255,0,0)"  stroke="rgb(255,0,0)" stroke-width="1" font-size="12" >9</text>
<text x="59.103459" y="107.061882" fill="rgb(255,0,0)"  stroke="rgb(255,0,0)" stroke-width="1" font-size="12" >10</text>
<text x="40.000000" y="73.973720" fill="rgb(255,0,0)"  stroke="rgb(255,0,0)" stroke-width="1" font-size="12" >11</text>
<text x="40.000000" y="140.150043" fill="rgb(255,0,0)"  stroke="rgb(255,0,0)" stroke-width="1" font-size="12" >12</text>
<text x="173.956428" y="106.926721" fill="rgb(255,0,0)"  stroke="rgb(255,0,0)" stroke-width="1" font-size="12" >13</text>
<text x="173.956428" y="145.133639" fill="rgb(255,0,0)"  stroke="rgb(255,0,0)" stroke-width="1" font-size="12" >14</text>
<text x="207.044590" y="164.237098" fill="rgb(255,0,0)"  stroke="rgb(255,0,0)" stroke-width="1" font-size="12" >15</text>
<text x="207.044590" y="202.444016" fill="rgb(255,0,0)"  stroke="rgb(255,0,0)" stroke-width="1" font-size="12" >16</text>
<text x="173.956428" y="221.547475" fill="rgb(255,0,0)"  stroke="rgb(255,0,0)" stroke-width="1" font-size="12" >17</text>
<text x="240.132751" y="221.547475" fill="rgb(255,0,0)"  stroke="rgb(255,0,0)" stroke-width="1" font-size="12" >18</text>
<text x="212.616179" y="106.926721" fill="rgb(255,0,0)"  stroke="rgb(255,0,0)" stroke-width="1" font-size="12" >19</text>
<text font-size="18.000000" fill ="black" font-family="sans-serif"
x="140.000000" y="20.000000" ></text>
<title> - OBDepict</title>
</svg>
