<?xml version="1.0"?>
<svg xmlns="http://www.w3.org/2000/svg"
xmlns:xlink="http://www.w3.org/1999/xlink" xmlns:cml="http://www.xml-cml.org/schema" x="0" y="0" font-family="sans-serif" stroke="rgb(0,0,0)" stroke-width="1" viewBox="0 0 415.409 317.58" width="332.3272" height="254.064">
<line x1="236.5" y1="116.0" x2="251.7" y2="142.7"/>
<line x1="251.7" y1="142.7" x2="293.2" y2="143.3"/>
<line x1="293.2" y1="143.3" x2="313.5" y2="179.5"/>
<line x1="313.5" y1="179.5" x2="355.1" y2="180.1"/>
<line x1="355.1" y1="180.1" x2="370.1" y2="206.9"/>
<line x1="135.0" y1="73.8" x2="97.0" y2="73.8"/>
<line x1="97.0" y1="73.8" x2="78.0" y2="106.7"/>
<line x1="78.0" y1="109.7" x2="49.9" y2="109.7"/>
<line x1="78.0" y1="103.7" x2="49.9" y2="103.7"/>
<line x1="78.0" y1="106.7" x2="97.0" y2="139.6"/>
<line x1="97.0" y1="139.6" x2="82.9" y2="164.0"/>
<line x1="154.2" y1="106.6" x2="154.2" y2="144.6"/>
<line x1="154.2" y1="144.6" x2="187.1" y2="163.6"/>
<line x1="187.1" y1="163.6" x2="187.1" y2="201.6"/>
<line x1="187.1" y1="201.6" x2="220.1" y2="220.6"/>
<line x1="220.1" y1="220.6" x2="220.1" y2="248.7"/>
<line x1="228.6" y1="263.5" x2="244.4" y2="272.6"/>
<line x1="236.1" y1="97.8" x2="245.4" y2="81.6"/>
<line x1="245.4" y1="64.3" x2="231.1" y2="40.0"/>
<line x1="238.0" y1="66.0" x2="228.0" y2="48.8"/>
<line x1="231.1" y1="40.0" x2="202.7" y2="40.0"/>
<line x1="192.7" y1="57.3" x2="192.7" y2="106.6"/>
<line x1="192.7" y1="106.6" x2="221.1" y2="106.6"/>
<line x1="149.2" y1="48.8" x2="135.0" y2="73.8"/>
<line x1="154.5" y1="54.2" x2="144.2" y2="72.1"/>
<line x1="135.0" y1="73.8" x2="154.2" y2="106.6"/>
<line x1="154.2" y1="106.6" x2="192.7" y2="106.6"/>
<line x1="182.7" y1="40.0" x2="164.2" y2="40.0"/>
<text x="227.532722" y="114.888632" fill="rgb(12,12,255)"  stroke="rgb(12,12,255)" stroke-width="1" font-size="16" >N</text>
<text x="369.408527" y="221.171870" fill="rgb(102,102,102)"  stroke="rgb(102,102,102)" stroke-width="1" font-size="16" >CH</text>
<text x="393.408527" y="225.971870" fill="rgb(102,102,102)"  stroke="rgb(102,102,102)" stroke-width="1" font-size="13" >3</text>
<text x="244.364941" y="81.096687" fill="rgb(12,12,255)"  stroke="rgb(12,12,255)" stroke-width="1" font-size="16" >N</text>
<text x="186.691356" y="48.320000" fill="rgb(12,12,255)"  stroke="rgb(12,12,255)" stroke-width="1" font-size="16" >N</text>
<text x="150.638453" y="48.320000" fill="rgb(12,12,255)"  stroke="rgb(12,12,255)" stroke-width="1" font-size="16" >N</text>
<text x="36.400000" y="111.503069" fill="rgb(255,12,12)"  stroke="rgb(255,12,12)" stroke-width="1" font-size="16" >O</text>
<text x="54.402493" y="177.325318" fill="rgb(102,102,102)"  stroke="rgb(102,102,102)" stroke-width="1" font-size="16" >H</text>
<text x="66.402493" y="182.125318" fill="rgb(102,102,102)"  stroke="rgb(102,102,102)" stroke-width="1" font-size="13" >3</text>
<text x="72.902493" y="177.325318" fill="rgb(102,102,102)"  stroke="rgb(102,102,102)" stroke-width="1" font-size="16" >C</text>
<text x="204.460702" y="263.378604" fill="rgb(12,12,255)"  stroke="rgb(12,12,255)" stroke-width="1" font-size="16" >HN</text>
<text x="246.971826" y="282.379851" fill="rgb(102,102,102)"  stroke="rgb(102,102,102)" stroke-width="1" font-size="16" >CH</text>
<text x="270.971826" y="287.179851" fill="rgb(102,102,102)"  stroke="rgb(102,102,102)" stroke-width="1" font-size="13" >3</text>
<text x="231.132722" y="106.568632" fill="rgb(255,0,0)"  stroke="rgb(255,0,0)" stroke-width="1" font-size="12" >1</text>
<text x="251.675850" y="142.707264" fill="rgb(255,0,0)"  stroke="rgb(255,0,0)" stroke-width="1" font-size="12" >2</text>
<text x="293.241589" y="143.264141" fill="rgb(255,0,0)"  stroke="rgb(255,0,0)" stroke-width="1" font-size="12" >3</text>
<text x="313.542188" y="179.539567" fill="rgb(255,0,0)"  stroke="rgb(255,0,0)" stroke-width="1" font-size="12" >4</text>
<text x="355.107928" y="180.096444" fill="rgb(255,0,0)"  stroke="rgb(255,0,0)" stroke-width="1" font-size="12" >5</text>
<text x="375.408527" y="216.371870" fill="rgb(255,0,0)"  stroke="rgb(255,0,0)" stroke-width="1" font-size="12" >6</text>
<text x="250.364941" y="72.776687" fill="rgb(255,0,0)"  stroke="rgb(255,0,0)" stroke-width="1" font-size="12" >7</text>
<text x="231.132722" y="40.000000" fill="rgb(255,0,0)"  stroke="rgb(255,0,0)" stroke-width="1" font-size="12" >8</text>
<text x="192.691356" y="40.000000" fill="rgb(255,0,0)"  stroke="rgb(255,0,0)" stroke-width="1" font-size="12" >9</text>
<text x="154.238453" y="40.000000" fill="rgb(255,0,0)"  stroke="rgb(255,0,0)" stroke-width="1" font-size="12" >10</text>
<text x="135.006233" y="73.791945" fill="rgb(255,0,0)"  stroke="rgb(255,0,0)" stroke-width="1" font-size="12" >11</text>
<text x="97.003740" y="73.791945" fill="rgb(255,0,0)"  stroke="rgb(255,0,0)" stroke-width="1" font-size="12" >12</text>
<text x="78.002493" y="106.703069" fill="rgb(255,0,0)"  stroke="rgb(255,0,0)" stroke-width="1" font-size="12" >13</text>
<text x="40.000000" y="106.703069" fill="rgb(255,0,0)"  stroke="rgb(255,0,0)" stroke-width="1" font-size="12" >14</text>
<text x="97.003740" y="139.614194" fill="rgb(255,0,0)"  stroke="rgb(255,0,0)" stroke-width="1" font-size="12" >15</text>
<text x="78.002493" y="172.525318" fill="rgb(255,0,0)"  stroke="rgb(255,0,0)" stroke-width="1" font-size="12" >16</text>
<text x="154.238453" y="106.568632" fill="rgb(255,0,0)"  stroke="rgb(255,0,0)" stroke-width="1" font-size="12" >17</text>
<text x="154.238453" y="144.571125" fill="rgb(255,0,0)"  stroke="rgb(255,0,0)" stroke-width="1" font-size="12" >18</text>
<text x="187.149577" y="163.572371" fill="rgb(255,0,0)"  stroke="rgb(255,0,0)" stroke-width="1" font-size="12" >19</text>
<text x="187.149577" y="201.574865" fill="rgb(255,0,0)"  stroke="rgb(255,0,0)" stroke-width="1" font-size="12" >20</text>
<text x="220.060702" y="220.576111" fill="rgb(255,0,0)"  stroke="rgb(255,0,0)" stroke-width="1" font-size="12" >21</text>
<text x="220.060702" y="258.578604" fill="rgb(255,0,0)"  stroke="rgb(255,0,0)" stroke-width="1" font-size="12" >22</text>
<text x="252.971826" y="277.579851" fill="rgb(255,0,0)"  stroke="rgb(255,0,0)" stroke-width="1" font-size="12" >23</text>
<text x="192.691356" y="106.568632" fill="rgb(255,0,0)"  stroke="rgb(255,0,0)" stroke-width="1" font-size="12" >24</text>
<text font-size="18.000000" fill ="black" font-family="sans-serif"
x="140.000000" y="20.000000" ></text>
<title> - OBDepict</title>
</svg>
