<?xml version="1.0"?>
<svg xmlns="http://www.w3.org/2000/svg"
xmlns:xlink="http://www.w3.org/1999/xlink" xmlns:cml="http://www.xml-cml.org/schema" width="313.72" height="319.369" x="0" y="0" font-family="sans-serif" stroke="rgb(0,0,0)" stroke-width="1" >
<line x1="257.1" y1="116.5" x2="267.0" y2="134.0"/>
<line x1="154.9" y1="74.0" x2="126.5" y2="74.0"/>
<line x1="111.6" y1="82.7" x2="97.4" y2="107.2"/>
<line x1="97.4" y1="107.2" x2="59.1" y2="107.2"/>
<line x1="59.1" y1="107.2" x2="45.0" y2="82.7"/>
<line x1="59.1" y1="107.2" x2="45.0" y2="131.7"/>
<line x1="174.2" y1="107.1" x2="174.2" y2="145.4"/>
<line x1="174.2" y1="145.4" x2="207.4" y2="164.5"/>
<line x1="207.4" y1="164.5" x2="207.4" y2="202.8"/>
<line x1="207.4" y1="202.8" x2="240.6" y2="221.9"/>
<line x1="240.6" y1="221.9" x2="240.6" y2="250.3"/>
<line x1="249.2" y1="265.2" x2="265.1" y2="274.4"/>
<line x1="256.8" y1="98.2" x2="266.1" y2="81.9"/>
<line x1="266.1" y1="64.4" x2="251.7" y2="40.0"/>
<line x1="258.7" y1="66.2" x2="248.5" y2="48.8"/>
<line x1="251.7" y1="40.0" x2="223.1" y2="40.0"/>
<line x1="213.0" y1="57.4" x2="213.0" y2="107.1"/>
<line x1="213.0" y1="107.1" x2="241.6" y2="107.1"/>
<line x1="169.2" y1="48.9" x2="154.9" y2="74.0"/>
<line x1="174.4" y1="54.2" x2="164.1" y2="72.4"/>
<line x1="154.9" y1="74.0" x2="174.2" y2="107.1"/>
<line x1="174.2" y1="107.1" x2="213.0" y2="107.1"/>
<line x1="202.9" y1="40.0" x2="184.3" y2="40.0"/>
<text x="248.116265" y="115.389890" fill="rgb(12,12,255)"  stroke="rgb(12,12,255)" stroke-width="1" font-size="16" >N</text>
<text x="266.414081" y="148.280643" fill="rgb(124,127,175)"  stroke="rgb(124,127,175)" stroke-width="1" font-size="16" >R</text>
<text x="265.093302" y="81.343493" fill="rgb(12,12,255)"  stroke="rgb(12,12,255)" stroke-width="1" font-size="16" >N</text>
<text x="206.985437" y="48.320000" fill="rgb(12,12,255)"  stroke="rgb(12,12,255)" stroke-width="1" font-size="16" >N</text>
<text x="170.642986" y="48.320000" fill="rgb(12,12,255)"  stroke="rgb(12,12,255)" stroke-width="1" font-size="16" >N</text>
<text x="100.977299" y="82.366396" fill="rgb(12,12,255)"  stroke="rgb(12,12,255)" stroke-width="1" font-size="16" >HN</text>
<text x="24.400000" y="82.366396" fill="rgb(255,12,12)"  stroke="rgb(255,12,12)" stroke-width="1" font-size="16" >HO</text>
<text x="16.400000" y="145.164283" fill="rgb(102,102,102)"  stroke="rgb(102,102,102)" stroke-width="1" font-size="16" >H</text>
<text x="28.400000" y="149.964283" fill="rgb(102,102,102)"  stroke="rgb(102,102,102)" stroke-width="1" font-size="13" >3</text>
<text x="34.900000" y="145.164283" fill="rgb(102,102,102)"  stroke="rgb(102,102,102)" stroke-width="1" font-size="16" >C</text>
<text x="224.960873" y="265.024488" fill="rgb(12,12,255)"  stroke="rgb(12,12,255)" stroke-width="1" font-size="16" >HN</text>
<text x="267.719816" y="284.168813" fill="rgb(102,102,102)"  stroke="rgb(102,102,102)" stroke-width="1" font-size="16" >CH</text>
<text x="291.719816" y="288.968813" fill="rgb(102,102,102)"  stroke="rgb(102,102,102)" stroke-width="1" font-size="13" >3</text>
<text x="251.716265" y="107.069890" fill="rgb(255,0,0)"  stroke="rgb(255,0,0)" stroke-width="1" font-size="12" >1</text>
<text x="272.414081" y="143.480643" fill="rgb(255,0,0)"  stroke="rgb(255,0,0)" stroke-width="1" font-size="12" >2</text>
<text x="271.093302" y="73.023493" fill="rgb(255,0,0)"  stroke="rgb(255,0,0)" stroke-width="1" font-size="12" >3</text>
<text x="251.716265" y="40.000000" fill="rgb(255,0,0)"  stroke="rgb(255,0,0)" stroke-width="1" font-size="12" >4</text>
<text x="212.985437" y="40.000000" fill="rgb(255,0,0)"  stroke="rgb(255,0,0)" stroke-width="1" font-size="12" >5</text>
<text x="174.242986" y="40.000000" fill="rgb(255,0,0)"  stroke="rgb(255,0,0)" stroke-width="1" font-size="12" >6</text>
<text x="154.865949" y="74.046396" fill="rgb(255,0,0)"  stroke="rgb(255,0,0)" stroke-width="1" font-size="12" >7</text>
<text x="116.577299" y="74.046396" fill="rgb(255,0,0)"  stroke="rgb(255,0,0)" stroke-width="1" font-size="12" >8</text>
<text x="97.432974" y="107.205340" fill="rgb(255,0,0)"  stroke="rgb(255,0,0)" stroke-width="1" font-size="12" >9</text>
<text x="59.144325" y="107.205340" fill="rgb(255,0,0)"  stroke="rgb(255,0,0)" stroke-width="1" font-size="12" >10</text>
<text x="40.000000" y="74.046396" fill="rgb(255,0,0)"  stroke="rgb(255,0,0)" stroke-width="1" font-size="12" >11</text>
<text x="40.000000" y="140.364283" fill="rgb(255,0,0)"  stroke="rgb(255,0,0)" stroke-width="1" font-size="12" >12</text>
<text x="174.242986" y="107.069890" fill="rgb(255,0,0)"  stroke="rgb(255,0,0)" stroke-width="1" font-size="12" >13</text>
<text x="174.242986" y="145.358539" fill="rgb(255,0,0)"  stroke="rgb(255,0,0)" stroke-width="1" font-size="12" >14</text>
<text x="207.401930" y="164.502864" fill="rgb(255,0,0)"  stroke="rgb(255,0,0)" stroke-width="1" font-size="12" >15</text>
<text x="207.401930" y="202.791514" fill="rgb(255,0,0)"  stroke="rgb(255,0,0)" stroke-width="1" font-size="12" >16</text>
<text x="240.560873" y="221.935839" fill="rgb(255,0,0)"  stroke="rgb(255,0,0)" stroke-width="1" font-size="12" >17</text>
<text x="240.560873" y="260.224488" fill="rgb(255,0,0)"  stroke="rgb(255,0,0)" stroke-width="1" font-size="12" >18</text>
<text x="273.719816" y="279.368813" fill="rgb(255,0,0)"  stroke="rgb(255,0,0)" stroke-width="1" font-size="12" >19</text>
<text x="212.985437" y="107.069890" fill="rgb(255,0,0)"  stroke="rgb(255,0,0)" stroke-width="1" font-size="12" >20</text>
<text font-size="18.000000" fill ="black" font-family="sans-serif"
x="140.000000" y="20.000000" ></text>
<title> - OBDepict</title>
</svg>
