<?xml version="1.0"?>
<svg xmlns="http://www.w3.org/2000/svg"
xmlns:xlink="http://www.w3.org/1999/xlink" xmlns:cml="http://www.xml-cml.org/schema" x="0" y="0" font-family="sans-serif" stroke="rgb(0,0,0)" stroke-width="1" viewBox="0 0 413.954 241.5" width="331.1632" height="193.2">
<line x1="255.4" y1="115.9" x2="270.6" y2="142.7"/>
<line x1="270.6" y1="142.7" x2="312.1" y2="143.2"/>
<line x1="312.1" y1="143.2" x2="327.1" y2="170.0"/>
<line x1="343.2" y1="179.6" x2="363.2" y2="179.9"/>
<line x1="154.0" y1="73.8" x2="116.0" y2="73.8"/>
<line x1="116.0" y1="73.8" x2="97.0" y2="106.7"/>
<line x1="97.0" y1="106.7" x2="59.0" y2="106.7"/>
<line x1="56.4" y1="108.2" x2="42.3" y2="83.8"/>
<line x1="61.6" y1="105.2" x2="47.5" y2="80.8"/>
<line x1="59.0" y1="106.7" x2="44.9" y2="131.0"/>
<line x1="173.2" y1="106.5" x2="173.2" y2="144.5"/>
<line x1="173.2" y1="144.5" x2="206.1" y2="163.5"/>
<line x1="209.1" y1="163.5" x2="209.1" y2="191.6"/>
<line x1="203.1" y1="163.5" x2="203.1" y2="191.6"/>
<line x1="206.1" y1="163.5" x2="239.0" y2="144.5"/>
<line x1="239.0" y1="144.5" x2="263.3" y2="158.6"/>
<line x1="255.0" y1="97.8" x2="264.3" y2="81.5"/>
<line x1="264.3" y1="64.2" x2="250.0" y2="40.0"/>
<line x1="256.9" y1="66.0" x2="246.9" y2="48.8"/>
<line x1="250.0" y1="40.0" x2="221.6" y2="40.0"/>
<line x1="211.6" y1="57.3" x2="211.6" y2="106.5"/>
<line x1="211.6" y1="106.5" x2="240.0" y2="106.5"/>
<line x1="168.2" y1="48.8" x2="154.0" y2="73.8"/>
<line x1="173.4" y1="54.2" x2="163.2" y2="72.1"/>
<line x1="154.0" y1="73.8" x2="173.2" y2="106.5"/>
<line x1="173.2" y1="106.5" x2="211.6" y2="106.5"/>
<line x1="201.6" y1="40.0" x2="183.2" y2="40.0"/>
<text x="246.436247" y="114.857675" fill="rgb(12,12,255)"  stroke="rgb(12,12,255)" stroke-width="1" font-size="16" >N</text>
<text x="316.807390" y="184.274675" fill="rgb(12,12,255)"  stroke="rgb(12,12,255)" stroke-width="1" font-size="16" >HN</text>
<text x="367.953800" y="184.831294" fill="rgb(102,102,102)"  stroke="rgb(102,102,102)" stroke-width="1" font-size="16" >CH</text>
<text x="391.953800" y="189.631294" fill="rgb(102,102,102)"  stroke="rgb(102,102,102)" stroke-width="1" font-size="13" >3</text>
<text x="263.259523" y="81.081444" fill="rgb(12,12,255)"  stroke="rgb(12,12,255)" stroke-width="1" font-size="16" >N</text>
<text x="205.612758" y="48.320000" fill="rgb(12,12,255)"  stroke="rgb(12,12,255)" stroke-width="1" font-size="16" >N</text>
<text x="169.577737" y="48.320000" fill="rgb(12,12,255)"  stroke="rgb(12,12,255)" stroke-width="1" font-size="16" >N</text>
<text x="36.400000" y="82.096230" fill="rgb(255,12,12)"  stroke="rgb(255,12,12)" stroke-width="1" font-size="16" >O</text>
<text x="16.400000" y="144.367869" fill="rgb(102,102,102)"  stroke="rgb(102,102,102)" stroke-width="1" font-size="16" >H</text>
<text x="28.400000" y="149.167869" fill="rgb(102,102,102)"  stroke="rgb(102,102,102)" stroke-width="1" font-size="13" >3</text>
<text x="34.900000" y="144.367869" fill="rgb(102,102,102)"  stroke="rgb(102,102,102)" stroke-width="1" font-size="16" >C</text>
<text x="200.073557" y="206.299726" fill="rgb(255,12,12)"  stroke="rgb(255,12,12)" stroke-width="1" font-size="16" >O</text>
<text x="265.865196" y="168.314905" fill="rgb(102,102,102)"  stroke="rgb(102,102,102)" stroke-width="1" font-size="16" >CH</text>
<text x="289.865196" y="173.114905" fill="rgb(102,102,102)"  stroke="rgb(102,102,102)" stroke-width="1" font-size="13" >3</text>
<text x="250.036247" y="106.537675" fill="rgb(255,0,0)"  stroke="rgb(255,0,0)" stroke-width="1" font-size="12" >1</text>
<text x="270.569822" y="142.659500" fill="rgb(255,0,0)"  stroke="rgb(255,0,0)" stroke-width="1" font-size="12" >2</text>
<text x="312.116231" y="143.216119" fill="rgb(255,0,0)"  stroke="rgb(255,0,0)" stroke-width="1" font-size="12" >3</text>
<text x="332.407390" y="179.474675" fill="rgb(255,0,0)"  stroke="rgb(255,0,0)" stroke-width="1" font-size="12" >4</text>
<text x="373.953800" y="180.031294" fill="rgb(255,0,0)"  stroke="rgb(255,0,0)" stroke-width="1" font-size="12" >5</text>
<text x="269.259523" y="72.761444" fill="rgb(255,0,0)"  stroke="rgb(255,0,0)" stroke-width="1" font-size="12" >6</text>
<text x="250.036247" y="40.000000" fill="rgb(255,0,0)"  stroke="rgb(255,0,0)" stroke-width="1" font-size="12" >7</text>
<text x="211.612758" y="40.000000" fill="rgb(255,0,0)"  stroke="rgb(255,0,0)" stroke-width="1" font-size="12" >8</text>
<text x="173.177737" y="40.000000" fill="rgb(255,0,0)"  stroke="rgb(255,0,0)" stroke-width="1" font-size="12" >9</text>
<text x="153.954461" y="73.776230" fill="rgb(255,0,0)"  stroke="rgb(255,0,0)" stroke-width="1" font-size="12" >10</text>
<text x="115.969641" y="73.776230" fill="rgb(255,0,0)"  stroke="rgb(255,0,0)" stroke-width="1" font-size="12" >11</text>
<text x="96.977231" y="106.672050" fill="rgb(255,0,0)"  stroke="rgb(255,0,0)" stroke-width="1" font-size="12" >12</text>
<text x="58.992410" y="106.672050" fill="rgb(255,0,0)"  stroke="rgb(255,0,0)" stroke-width="1" font-size="12" >13</text>
<text x="40.000000" y="73.776230" fill="rgb(255,0,0)"  stroke="rgb(255,0,0)" stroke-width="1" font-size="12" >14</text>
<text x="40.000000" y="139.567869" fill="rgb(255,0,0)"  stroke="rgb(255,0,0)" stroke-width="1" font-size="12" >15</text>
<text x="173.177737" y="106.537675" fill="rgb(255,0,0)"  stroke="rgb(255,0,0)" stroke-width="1" font-size="12" >16</text>
<text x="173.177737" y="144.522495" fill="rgb(255,0,0)"  stroke="rgb(255,0,0)" stroke-width="1" font-size="12" >17</text>
<text x="206.073557" y="163.514905" fill="rgb(255,0,0)"  stroke="rgb(255,0,0)" stroke-width="1" font-size="12" >18</text>
<text x="206.073557" y="201.499726" fill="rgb(255,0,0)"  stroke="rgb(255,0,0)" stroke-width="1" font-size="12" >19</text>
<text x="238.969376" y="144.522495" fill="rgb(255,0,0)"  stroke="rgb(255,0,0)" stroke-width="1" font-size="12" >20</text>
<text x="271.865196" y="163.514905" fill="rgb(255,0,0)"  stroke="rgb(255,0,0)" stroke-width="1" font-size="12" >21</text>
<text x="211.612758" y="106.537675" fill="rgb(255,0,0)"  stroke="rgb(255,0,0)" stroke-width="1" font-size="12" >22</text>
<text font-size="18.000000" fill ="black" font-family="sans-serif"
x="140.000000" y="20.000000" ></text>
<title> - OBDepict</title>
</svg>
