<?xml version="1.0"?>
<svg xmlns="http://www.w3.org/2000/svg"
xmlns:xlink="http://www.w3.org/1999/xlink" xmlns:cml="http://www.xml-cml.org/schema" width="394.454" height="241.239" x="0" y="0" font-family="sans-serif" stroke="rgb(0,0,0)" stroke-width="1" >
<line x1="236.1" y1="115.8" x2="251.2" y2="142.5"/>
<line x1="251.2" y1="142.5" x2="292.7" y2="143.0"/>
<line x1="290.1" y1="141.5" x2="305.8" y2="115.1"/>
<line x1="295.3" y1="144.6" x2="311.0" y2="118.2"/>
<line x1="292.7" y1="143.0" x2="313.0" y2="179.2"/>
<line x1="313.0" y1="179.2" x2="343.7" y2="179.7"/>
<line x1="134.8" y1="73.7" x2="96.9" y2="73.7"/>
<line x1="96.9" y1="73.7" x2="77.9" y2="106.6"/>
<line x1="77.9" y1="109.6" x2="49.9" y2="109.6"/>
<line x1="77.9" y1="103.6" x2="49.9" y2="103.6"/>
<line x1="77.9" y1="106.6" x2="96.9" y2="139.4"/>
<line x1="96.9" y1="139.4" x2="82.9" y2="163.7"/>
<line x1="154.0" y1="106.4" x2="154.0" y2="144.4"/>
<line x1="154.0" y1="144.4" x2="186.8" y2="163.3"/>
<line x1="189.8" y1="163.3" x2="189.8" y2="191.4"/>
<line x1="183.8" y1="163.3" x2="183.8" y2="191.4"/>
<line x1="186.8" y1="163.3" x2="219.7" y2="144.4"/>
<line x1="219.7" y1="144.4" x2="244.0" y2="158.4"/>
<line x1="235.7" y1="97.7" x2="244.9" y2="81.5"/>
<line x1="244.9" y1="64.2" x2="230.7" y2="40.0"/>
<line x1="237.6" y1="65.9" x2="227.6" y2="48.8"/>
<line x1="230.7" y1="40.0" x2="202.3" y2="40.0"/>
<line x1="192.4" y1="57.3" x2="192.4" y2="106.4"/>
<line x1="192.4" y1="106.4" x2="220.8" y2="106.4"/>
<line x1="149.0" y1="48.8" x2="134.8" y2="73.7"/>
<line x1="154.2" y1="54.2" x2="144.0" y2="72.1"/>
<line x1="134.8" y1="73.7" x2="154.0" y2="106.4"/>
<line x1="154.0" y1="106.4" x2="192.4" y2="106.4"/>
<line x1="182.4" y1="40.0" x2="164.0" y2="40.0"/>
<text x="227.135851" y="114.750408" fill="rgb(12,12,255)"  stroke="rgb(12,12,255)" stroke-width="1" font-size="16" >N</text>
<text x="307.936739" y="115.725341" fill="rgb(255,12,12)"  stroke="rgb(255,12,12)" stroke-width="1" font-size="16" >O</text>
<text x="348.453633" y="184.605546" fill="rgb(102,102,102)"  stroke="rgb(102,102,102)" stroke-width="1" font-size="16" >CH</text>
<text x="372.453633" y="189.405546" fill="rgb(102,102,102)"  stroke="rgb(102,102,102)" stroke-width="1" font-size="13" >3</text>
<text x="243.928136" y="81.028629" fill="rgb(12,12,255)"  stroke="rgb(12,12,255)" stroke-width="1" font-size="16" >N</text>
<text x="186.374305" y="48.320000" fill="rgb(12,12,255)"  stroke="rgb(12,12,255)" stroke-width="1" font-size="16" >N</text>
<text x="150.401246" y="48.320000" fill="rgb(12,12,255)"  stroke="rgb(12,12,255)" stroke-width="1" font-size="16" >N</text>
<text x="36.400000" y="111.364566" fill="rgb(255,12,12)"  stroke="rgb(255,12,12)" stroke-width="1" font-size="16" >O</text>
<text x="54.323584" y="177.050141" fill="rgb(102,102,102)"  stroke="rgb(102,102,102)" stroke-width="1" font-size="16" >H</text>
<text x="66.323584" y="181.850141" fill="rgb(102,102,102)"  stroke="rgb(102,102,102)" stroke-width="1" font-size="13" >3</text>
<text x="72.823584" y="177.050141" fill="rgb(102,102,102)"  stroke="rgb(102,102,102)" stroke-width="1" font-size="16" >C</text>
<text x="180.844033" y="206.039368" fill="rgb(255,12,12)"  stroke="rgb(255,12,12)" stroke-width="1" font-size="16" >O</text>
<text x="246.529608" y="168.115784" fill="rgb(102,102,102)"  stroke="rgb(102,102,102)" stroke-width="1" font-size="16" >CH</text>
<text x="270.529608" y="172.915784" fill="rgb(102,102,102)"  stroke="rgb(102,102,102)" stroke-width="1" font-size="13" >3</text>
<text x="230.735851" y="106.430408" fill="rgb(255,0,0)"  stroke="rgb(255,0,0)" stroke-width="1" font-size="12" >1</text>
<text x="251.236322" y="142.494001" fill="rgb(255,0,0)"  stroke="rgb(255,0,0)" stroke-width="1" font-size="12" >2</text>
<text x="292.715754" y="143.049722" fill="rgb(255,0,0)"  stroke="rgb(255,0,0)" stroke-width="1" font-size="12" >3</text>
<text x="313.936739" y="107.405341" fill="rgb(255,0,0)"  stroke="rgb(255,0,0)" stroke-width="1" font-size="12" >4</text>
<text x="312.974201" y="179.249824" fill="rgb(255,0,0)"  stroke="rgb(255,0,0)" stroke-width="1" font-size="12" >5</text>
<text x="354.453633" y="179.805546" fill="rgb(255,0,0)"  stroke="rgb(255,0,0)" stroke-width="1" font-size="12" >6</text>
<text x="249.928136" y="72.708629" fill="rgb(255,0,0)"  stroke="rgb(255,0,0)" stroke-width="1" font-size="12" >7</text>
<text x="230.735851" y="40.000000" fill="rgb(255,0,0)"  stroke="rgb(255,0,0)" stroke-width="1" font-size="12" >8</text>
<text x="192.374305" y="40.000000" fill="rgb(255,0,0)"  stroke="rgb(255,0,0)" stroke-width="1" font-size="12" >9</text>
<text x="154.001246" y="40.000000" fill="rgb(255,0,0)"  stroke="rgb(255,0,0)" stroke-width="1" font-size="12" >10</text>
<text x="134.808960" y="73.721779" fill="rgb(255,0,0)"  stroke="rgb(255,0,0)" stroke-width="1" font-size="12" >11</text>
<text x="96.885376" y="73.721779" fill="rgb(255,0,0)"  stroke="rgb(255,0,0)" stroke-width="1" font-size="12" >12</text>
<text x="77.923584" y="106.564566" fill="rgb(255,0,0)"  stroke="rgb(255,0,0)" stroke-width="1" font-size="12" >13</text>
<text x="40.000000" y="106.564566" fill="rgb(255,0,0)"  stroke="rgb(255,0,0)" stroke-width="1" font-size="12" >14</text>
<text x="96.885376" y="139.407353" fill="rgb(255,0,0)"  stroke="rgb(255,0,0)" stroke-width="1" font-size="12" >15</text>
<text x="77.923584" y="172.250141" fill="rgb(255,0,0)"  stroke="rgb(255,0,0)" stroke-width="1" font-size="12" >16</text>
<text x="154.001246" y="106.430408" fill="rgb(255,0,0)"  stroke="rgb(255,0,0)" stroke-width="1" font-size="12" >17</text>
<text x="154.001246" y="144.353992" fill="rgb(255,0,0)"  stroke="rgb(255,0,0)" stroke-width="1" font-size="12" >18</text>
<text x="186.844033" y="163.315784" fill="rgb(255,0,0)"  stroke="rgb(255,0,0)" stroke-width="1" font-size="12" >19</text>
<text x="186.844033" y="201.239368" fill="rgb(255,0,0)"  stroke="rgb(255,0,0)" stroke-width="1" font-size="12" >20</text>
<text x="219.686821" y="144.353992" fill="rgb(255,0,0)"  stroke="rgb(255,0,0)" stroke-width="1" font-size="12" >21</text>
<text x="252.529608" y="163.315784" fill="rgb(255,0,0)"  stroke="rgb(255,0,0)" stroke-width="1" font-size="12" >22</text>
<text x="192.374305" y="106.430408" fill="rgb(255,0,0)"  stroke="rgb(255,0,0)" stroke-width="1" font-size="12" >23</text>
<text font-size="18.000000" fill ="black" font-family="sans-serif"
x="140.000000" y="20.000000" ></text>
<title> - OBDepict</title>
</svg>
