<?xml version="1.0"?>
<svg xmlns="http://www.w3.org/2000/svg"
xmlns:xlink="http://www.w3.org/1999/xlink" xmlns:cml="http://www.xml-cml.org/schema" width="409.096" height="260.492" x="0" y="0" font-family="sans-serif" stroke="rgb(0,0,0)" stroke-width="1" >
<line x1="312.4" y1="115.9" x2="327.5" y2="142.7"/>
<line x1="327.5" y1="142.7" x2="358.3" y2="142.9"/>
<line x1="327.5" y1="142.7" x2="306.8" y2="178.6"/>
<line x1="306.8" y1="178.6" x2="322.1" y2="205.3"/>
<line x1="210.9" y1="73.8" x2="172.9" y2="73.8"/>
<line x1="172.9" y1="73.8" x2="154.0" y2="106.7"/>
<line x1="154.0" y1="106.7" x2="116.0" y2="106.7"/>
<line x1="116.0" y1="106.7" x2="97.0" y2="139.6"/>
<line x1="97.0" y1="139.6" x2="68.9" y2="139.6"/>
<line x1="54.1" y1="148.1" x2="44.9" y2="163.9"/>
<line x1="230.2" y1="106.5" x2="230.2" y2="144.5"/>
<line x1="230.2" y1="144.5" x2="263.1" y2="163.5"/>
<line x1="263.1" y1="163.5" x2="263.1" y2="191.6"/>
<line x1="271.6" y1="206.4" x2="287.4" y2="215.6"/>
<line x1="312.0" y1="97.8" x2="321.2" y2="81.5"/>
<line x1="321.2" y1="64.2" x2="307.0" y2="40.0"/>
<line x1="313.9" y1="66.0" x2="303.8" y2="48.8"/>
<line x1="307.0" y1="40.0" x2="278.6" y2="40.0"/>
<line x1="268.6" y1="57.3" x2="268.6" y2="106.5"/>
<line x1="268.6" y1="106.5" x2="297.0" y2="106.5"/>
<line x1="225.2" y1="48.8" x2="210.9" y2="73.8"/>
<line x1="230.4" y1="54.2" x2="220.2" y2="72.1"/>
<line x1="210.9" y1="73.8" x2="230.2" y2="106.5"/>
<line x1="230.2" y1="106.5" x2="268.6" y2="106.5"/>
<line x1="258.6" y1="40.0" x2="240.1" y2="40.0"/>
<text x="303.413478" y="114.857675" fill="rgb(12,12,255)"  stroke="rgb(12,12,255)" stroke-width="1" font-size="16" >N</text>
<text x="363.096258" y="147.737816" fill="rgb(255,12,12)"  stroke="rgb(255,12,12)" stroke-width="1" font-size="16" >OH</text>
<text x="321.547052" y="219.426451" fill="rgb(102,102,102)"  stroke="rgb(102,102,102)" stroke-width="1" font-size="16" >CH</text>
<text x="345.547052" y="224.226451" fill="rgb(102,102,102)"  stroke="rgb(102,102,102)" stroke-width="1" font-size="13" >3</text>
<text x="320.236754" y="81.081444" fill="rgb(12,12,255)"  stroke="rgb(12,12,255)" stroke-width="1" font-size="16" >N</text>
<text x="262.589989" y="48.320000" fill="rgb(12,12,255)"  stroke="rgb(12,12,255)" stroke-width="1" font-size="16" >N</text>
<text x="226.554968" y="48.320000" fill="rgb(12,12,255)"  stroke="rgb(12,12,255)" stroke-width="1" font-size="16" >N</text>
<text x="43.392410" y="147.887869" fill="rgb(12,12,255)"  stroke="rgb(12,12,255)" stroke-width="1" font-size="16" >HN</text>
<text x="16.400000" y="177.263689" fill="rgb(102,102,102)"  stroke="rgb(102,102,102)" stroke-width="1" font-size="16" >H</text>
<text x="28.400000" y="182.063689" fill="rgb(102,102,102)"  stroke="rgb(102,102,102)" stroke-width="1" font-size="13" >3</text>
<text x="34.900000" y="177.263689" fill="rgb(102,102,102)"  stroke="rgb(102,102,102)" stroke-width="1" font-size="16" >C</text>
<text x="247.450787" y="206.299726" fill="rgb(12,12,255)"  stroke="rgb(12,12,255)" stroke-width="1" font-size="16" >HN</text>
<text x="289.946607" y="225.292136" fill="rgb(102,102,102)"  stroke="rgb(102,102,102)" stroke-width="1" font-size="16" >CH</text>
<text x="313.946607" y="230.092136" fill="rgb(102,102,102)"  stroke="rgb(102,102,102)" stroke-width="1" font-size="13" >3</text>
<text x="307.013478" y="106.537675" fill="rgb(255,0,0)"  stroke="rgb(255,0,0)" stroke-width="1" font-size="12" >1</text>
<text x="327.547052" y="142.659500" fill="rgb(255,0,0)"  stroke="rgb(255,0,0)" stroke-width="1" font-size="12" >2</text>
<text x="369.096258" y="142.937816" fill="rgb(255,0,0)"  stroke="rgb(255,0,0)" stroke-width="1" font-size="12" >3</text>
<text x="306.771983" y="178.642976" fill="rgb(255,0,0)"  stroke="rgb(255,0,0)" stroke-width="1" font-size="12" >4</text>
<text x="327.547052" y="214.626451" fill="rgb(255,0,0)"  stroke="rgb(255,0,0)" stroke-width="1" font-size="12" >5</text>
<text x="326.236754" y="72.761444" fill="rgb(255,0,0)"  stroke="rgb(255,0,0)" stroke-width="1" font-size="12" >6</text>
<text x="307.013478" y="40.000000" fill="rgb(255,0,0)"  stroke="rgb(255,0,0)" stroke-width="1" font-size="12" >7</text>
<text x="268.589989" y="40.000000" fill="rgb(255,0,0)"  stroke="rgb(255,0,0)" stroke-width="1" font-size="12" >8</text>
<text x="230.154968" y="40.000000" fill="rgb(255,0,0)"  stroke="rgb(255,0,0)" stroke-width="1" font-size="12" >9</text>
<text x="210.931692" y="73.776230" fill="rgb(255,0,0)"  stroke="rgb(255,0,0)" stroke-width="1" font-size="12" >10</text>
<text x="172.946871" y="73.776230" fill="rgb(255,0,0)"  stroke="rgb(255,0,0)" stroke-width="1" font-size="12" >11</text>
<text x="153.954461" y="106.672050" fill="rgb(255,0,0)"  stroke="rgb(255,0,0)" stroke-width="1" font-size="12" >12</text>
<text x="115.969641" y="106.672050" fill="rgb(255,0,0)"  stroke="rgb(255,0,0)" stroke-width="1" font-size="12" >13</text>
<text x="96.977231" y="139.567869" fill="rgb(255,0,0)"  stroke="rgb(255,0,0)" stroke-width="1" font-size="12" >14</text>
<text x="58.992410" y="139.567869" fill="rgb(255,0,0)"  stroke="rgb(255,0,0)" stroke-width="1" font-size="12" >15</text>
<text x="40.000000" y="172.463689" fill="rgb(255,0,0)"  stroke="rgb(255,0,0)" stroke-width="1" font-size="12" >16</text>
<text x="230.154968" y="106.537675" fill="rgb(255,0,0)"  stroke="rgb(255,0,0)" stroke-width="1" font-size="12" >17</text>
<text x="230.154968" y="144.522495" fill="rgb(255,0,0)"  stroke="rgb(255,0,0)" stroke-width="1" font-size="12" >18</text>
<text x="263.050787" y="163.514905" fill="rgb(255,0,0)"  stroke="rgb(255,0,0)" stroke-width="1" font-size="12" >19</text>
<text x="263.050787" y="201.499726" fill="rgb(255,0,0)"  stroke="rgb(255,0,0)" stroke-width="1" font-size="12" >20</text>
<text x="295.946607" y="220.492136" fill="rgb(255,0,0)"  stroke="rgb(255,0,0)" stroke-width="1" font-size="12" >21</text>
<text x="268.589989" y="106.537675" fill="rgb(255,0,0)"  stroke="rgb(255,0,0)" stroke-width="1" font-size="12" >22</text>
<text font-size="18.000000" fill ="black" font-family="sans-serif"
x="140.000000" y="20.000000" ></text>
<title> - OBDepict</title>
</svg>
