<?xml version="1.0"?>
<svg xmlns="http://www.w3.org/2000/svg"
xmlns:xlink="http://www.w3.org/1999/xlink" xmlns:cml="http://www.xml-cml.org/schema" width="234.74" height="250.861" x="0" y="0" font-family="sans-serif" stroke="rgb(0,0,0)" stroke-width="1" >
<line x1="179.9" y1="114.3" x2="194.7" y2="140.4"/>
<line x1="194.7" y1="140.4" x2="179.7" y2="166.5"/>
<line x1="179.7" y1="184.8" x2="189.5" y2="201.7"/>
<line x1="80.6" y1="73.0" x2="50.6" y2="73.8"/>
<line x1="99.4" y1="105.1" x2="99.4" y2="132.6"/>
<line x1="107.8" y1="147.1" x2="131.6" y2="160.9"/>
<line x1="131.6" y1="160.9" x2="131.6" y2="188.4"/>
<line x1="179.5" y1="96.5" x2="188.6" y2="80.6"/>
<line x1="188.6" y1="63.7" x2="174.6" y2="40.0"/>
<line x1="181.2" y1="65.4" x2="171.5" y2="48.8"/>
<line x1="174.6" y1="40.0" x2="146.8" y2="40.0"/>
<line x1="137.1" y1="56.9" x2="137.1" y2="105.1"/>
<line x1="137.1" y1="105.1" x2="164.9" y2="105.1"/>
<line x1="94.6" y1="48.6" x2="80.6" y2="73.0"/>
<line x1="99.7" y1="54.1" x2="89.9" y2="71.4"/>
<line x1="80.6" y1="73.0" x2="99.4" y2="105.1"/>
<line x1="99.4" y1="105.1" x2="137.1" y2="105.1"/>
<line x1="127.3" y1="40.0" x2="109.2" y2="40.0"/>
<text x="171.049642" y="113.422743" fill="rgb(12,12,255)"  stroke="rgb(12,12,255)" stroke-width="1" font-size="16" >N</text>
<text x="158.813355" y="180.453043" fill="rgb(12,12,255)"  stroke="rgb(12,12,255)" stroke-width="1" font-size="16" >HN</text>
<text x="188.740395" y="215.660510" fill="rgb(102,102,102)"  stroke="rgb(102,102,102)" stroke-width="1" font-size="16" >CH</text>
<text x="212.740395" y="220.460510" fill="rgb(102,102,102)"  stroke="rgb(102,102,102)" stroke-width="1" font-size="13" >3</text>
<text x="187.458354" y="80.374921" fill="rgb(12,12,255)"  stroke="rgb(12,12,255)" stroke-width="1" font-size="16" >N</text>
<text x="131.054782" y="48.320000" fill="rgb(12,12,255)"  stroke="rgb(12,12,255)" stroke-width="1" font-size="16" >N</text>
<text x="95.848639" y="48.320000" fill="rgb(12,12,255)"  stroke="rgb(12,12,255)" stroke-width="1" font-size="16" >N</text>
<text x="24.400000" y="78.920502" fill="rgb(124,127,175)"  stroke="rgb(124,127,175)" stroke-width="1" font-size="16" >R</text>
<text x="83.848639" y="147.068395" fill="rgb(12,12,255)"  stroke="rgb(12,12,255)" stroke-width="1" font-size="16" >HN</text>
<text x="125.635037" y="202.816871" fill="rgb(102,102,102)"  stroke="rgb(102,102,102)" stroke-width="1" font-size="16" >CH</text>
<text x="149.635037" y="207.616871" fill="rgb(102,102,102)"  stroke="rgb(102,102,102)" stroke-width="1" font-size="13" >3</text>
<text x="174.649642" y="105.102743" fill="rgb(255,0,0)"  stroke="rgb(255,0,0)" stroke-width="1" font-size="12" >1</text>
<text x="194.740395" y="140.445577" fill="rgb(255,0,0)"  stroke="rgb(255,0,0)" stroke-width="1" font-size="12" >2</text>
<text x="174.413355" y="175.653043" fill="rgb(255,0,0)"  stroke="rgb(255,0,0)" stroke-width="1" font-size="12" >3</text>
<text x="194.740395" y="210.860510" fill="rgb(255,0,0)"  stroke="rgb(255,0,0)" stroke-width="1" font-size="12" >4</text>
<text x="193.458354" y="72.054921" fill="rgb(255,0,0)"  stroke="rgb(255,0,0)" stroke-width="1" font-size="12" >5</text>
<text x="174.649642" y="40.000000" fill="rgb(255,0,0)"  stroke="rgb(255,0,0)" stroke-width="1" font-size="12" >6</text>
<text x="137.054782" y="40.000000" fill="rgb(255,0,0)"  stroke="rgb(255,0,0)" stroke-width="1" font-size="12" >7</text>
<text x="99.448639" y="40.000000" fill="rgb(255,0,0)"  stroke="rgb(255,0,0)" stroke-width="1" font-size="12" >8</text>
<text x="80.639926" y="73.047822" fill="rgb(255,0,0)"  stroke="rgb(255,0,0)" stroke-width="1" font-size="12" >9</text>
<text x="40.000000" y="74.120502" fill="rgb(255,0,0)"  stroke="rgb(255,0,0)" stroke-width="1" font-size="12" >10</text>
<text x="99.448639" y="105.102743" fill="rgb(255,0,0)"  stroke="rgb(255,0,0)" stroke-width="1" font-size="12" >11</text>
<text x="99.448639" y="142.268395" fill="rgb(255,0,0)"  stroke="rgb(255,0,0)" stroke-width="1" font-size="12" >12</text>
<text x="131.635037" y="160.851220" fill="rgb(255,0,0)"  stroke="rgb(255,0,0)" stroke-width="1" font-size="12" >13</text>
<text x="131.635037" y="198.016871" fill="rgb(255,0,0)"  stroke="rgb(255,0,0)" stroke-width="1" font-size="12" >14</text>
<text x="137.054782" y="105.102743" fill="rgb(255,0,0)"  stroke="rgb(255,0,0)" stroke-width="1" font-size="12" >15</text>
<text font-size="18.000000" fill ="black" font-family="sans-serif"
x="140.000000" y="20.000000" ></text>
<title> - OBDepict</title>
</svg>
