<?xml version="1.0"?>
<svg xmlns="http://www.w3.org/2000/svg"
xmlns:xlink="http://www.w3.org/1999/xlink" xmlns:cml="http://www.xml-cml.org/schema" width="306.834" height="322.598" x="0" y="0" font-family="sans-serif" stroke="rgb(0,0,0)" stroke-width="1" >
<line x1="251.9" y1="114.7" x2="266.8" y2="141.0"/>
<line x1="266.8" y1="141.0" x2="246.4" y2="176.4"/>
<line x1="246.4" y1="176.4" x2="266.8" y2="211.8"/>
<line x1="266.8" y1="211.8" x2="251.7" y2="238.0"/>
<line x1="251.7" y1="256.4" x2="261.5" y2="273.4"/>
<line x1="152.1" y1="73.2" x2="114.7" y2="73.2"/>
<line x1="114.7" y1="73.2" x2="100.9" y2="97.2"/>
<line x1="86.3" y1="105.6" x2="58.7" y2="105.6"/>
<line x1="58.7" y1="105.6" x2="44.9" y2="81.6"/>
<line x1="58.7" y1="105.6" x2="44.9" y2="129.5"/>
<line x1="171.0" y1="105.5" x2="155.7" y2="131.6"/>
<line x1="251.6" y1="96.8" x2="260.6" y2="80.9"/>
<line x1="260.6" y1="63.9" x2="246.6" y2="40.0"/>
<line x1="253.3" y1="65.5" x2="243.5" y2="48.8"/>
<line x1="246.6" y1="40.0" x2="218.7" y2="40.0"/>
<line x1="208.8" y1="57.0" x2="208.8" y2="105.5"/>
<line x1="208.8" y1="105.5" x2="236.8" y2="105.5"/>
<line x1="166.1" y1="48.6" x2="152.1" y2="73.2"/>
<line x1="171.3" y1="54.1" x2="161.3" y2="71.6"/>
<line x1="152.1" y1="73.2" x2="171.0" y2="105.5"/>
<line x1="171.0" y1="105.5" x2="208.8" y2="105.5"/>
<line x1="199.0" y1="40.0" x2="180.9" y2="40.0"/>
<text x="243.032957" y="113.779542" fill="rgb(12,12,255)"  stroke="rgb(12,12,255)" stroke-width="1" font-size="16" >N</text>
<text x="230.795376" y="251.997341" fill="rgb(12,12,255)"  stroke="rgb(12,12,255)" stroke-width="1" font-size="16" >HN</text>
<text x="260.833819" y="287.397763" fill="rgb(102,102,102)"  stroke="rgb(102,102,102)" stroke-width="1" font-size="16" >CH</text>
<text x="284.833819" y="292.197763" fill="rgb(102,102,102)"  stroke="rgb(102,102,102)" stroke-width="1" font-size="13" >3</text>
<text x="259.544752" y="80.550599" fill="rgb(12,12,255)"  stroke="rgb(12,12,255)" stroke-width="1" font-size="16" >N</text>
<text x="202.832057" y="48.320000" fill="rgb(12,12,255)"  stroke="rgb(12,12,255)" stroke-width="1" font-size="16" >N</text>
<text x="167.419812" y="48.320000" fill="rgb(12,12,255)"  stroke="rgb(12,12,255)" stroke-width="1" font-size="16" >N</text>
<text x="90.054009" y="110.391739" fill="rgb(255,12,12)"  stroke="rgb(255,12,12)" stroke-width="1" font-size="16" >O</text>
<text x="16.400000" y="81.548942" fill="rgb(102,102,102)"  stroke="rgb(102,102,102)" stroke-width="1" font-size="16" >H</text>
<text x="28.400000" y="89.228942" fill="rgb(102,102,102)"  stroke="rgb(102,102,102)" stroke-width="1" font-size="13" >3</text>
<text x="34.900000" y="81.548942" fill="rgb(102,102,102)"  stroke="rgb(102,102,102)" stroke-width="1" font-size="16" >C</text>
<text x="16.400000" y="142.754537" fill="rgb(102,102,102)"  stroke="rgb(102,102,102)" stroke-width="1" font-size="16" >H</text>
<text x="28.400000" y="147.554537" fill="rgb(102,102,102)"  stroke="rgb(102,102,102)" stroke-width="1" font-size="13" >3</text>
<text x="34.900000" y="142.754537" fill="rgb(102,102,102)"  stroke="rgb(102,102,102)" stroke-width="1" font-size="16" >C</text>
<text x="134.742159" y="145.520774" fill="rgb(124,127,175)"  stroke="rgb(124,127,175)" stroke-width="1" font-size="16" >R</text>
<text x="246.632957" y="105.459542" fill="rgb(255,0,0)"  stroke="rgb(255,0,0)" stroke-width="1" font-size="12" >1</text>
<text x="266.833819" y="140.996073" fill="rgb(255,0,0)"  stroke="rgb(255,0,0)" stroke-width="1" font-size="12" >2</text>
<text x="246.395376" y="176.396496" fill="rgb(255,0,0)"  stroke="rgb(255,0,0)" stroke-width="1" font-size="12" >3</text>
<text x="266.833819" y="211.796918" fill="rgb(255,0,0)"  stroke="rgb(255,0,0)" stroke-width="1" font-size="12" >4</text>
<text x="246.395376" y="247.197341" fill="rgb(255,0,0)"  stroke="rgb(255,0,0)" stroke-width="1" font-size="12" >5</text>
<text x="266.833819" y="282.597763" fill="rgb(255,0,0)"  stroke="rgb(255,0,0)" stroke-width="1" font-size="12" >6</text>
<text x="265.544752" y="72.230599" fill="rgb(255,0,0)"  stroke="rgb(255,0,0)" stroke-width="1" font-size="12" >7</text>
<text x="246.632957" y="40.000000" fill="rgb(255,0,0)"  stroke="rgb(255,0,0)" stroke-width="1" font-size="12" >8</text>
<text x="208.832057" y="40.000000" fill="rgb(255,0,0)"  stroke="rgb(255,0,0)" stroke-width="1" font-size="12" >9</text>
<text x="171.019812" y="40.000000" fill="rgb(255,0,0)"  stroke="rgb(255,0,0)" stroke-width="1" font-size="12" >10</text>
<text x="152.108018" y="73.228942" fill="rgb(255,0,0)"  stroke="rgb(255,0,0)" stroke-width="1" font-size="12" >11</text>
<text x="114.738678" y="73.228942" fill="rgb(255,0,0)"  stroke="rgb(255,0,0)" stroke-width="1" font-size="12" >12</text>
<text x="96.054009" y="105.591739" fill="rgb(255,0,0)"  stroke="rgb(255,0,0)" stroke-width="1" font-size="12" >13</text>
<text x="58.684670" y="105.591739" fill="rgb(255,0,0)"  stroke="rgb(255,0,0)" stroke-width="1" font-size="12" >14</text>
<text x="40.000000" y="73.228942" fill="rgb(255,0,0)"  stroke="rgb(255,0,0)" stroke-width="1" font-size="12" >15</text>
<text x="40.000000" y="137.954537" fill="rgb(255,0,0)"  stroke="rgb(255,0,0)" stroke-width="1" font-size="12" >16</text>
<text x="171.019812" y="105.459542" fill="rgb(255,0,0)"  stroke="rgb(255,0,0)" stroke-width="1" font-size="12" >17</text>
<text x="150.342159" y="140.720774" fill="rgb(255,0,0)"  stroke="rgb(255,0,0)" stroke-width="1" font-size="12" >18</text>
<text x="208.832057" y="105.459542" fill="rgb(255,0,0)"  stroke="rgb(255,0,0)" stroke-width="1" font-size="12" >19</text>
<text font-size="18.000000" fill ="black" font-family="sans-serif"
x="140.000000" y="20.000000" ></text>
<title> - OBDepict</title>
</svg>
