<?xml version="1.0"?>
<svg xmlns="http://www.w3.org/2000/svg"
xmlns:xlink="http://www.w3.org/1999/xlink" xmlns:cml="http://www.xml-cml.org/schema" width="451.939" height="298.477" x="0" y="0" font-family="sans-serif" stroke="rgb(0,0,0)" stroke-width="1" >
<line x1="293.4" y1="115.9" x2="308.6" y2="142.7"/>
<line x1="308.6" y1="142.7" x2="350.1" y2="143.2"/>
<line x1="350.1" y1="143.2" x2="370.4" y2="179.5"/>
<line x1="370.4" y1="179.5" x2="401.1" y2="179.9"/>
<line x1="191.9" y1="73.8" x2="154.0" y2="73.8"/>
<line x1="154.0" y1="73.8" x2="135.0" y2="106.7"/>
<line x1="135.0" y1="106.7" x2="97.0" y2="106.7"/>
<line x1="97.0" y1="106.7" x2="78.0" y2="139.6"/>
<line x1="78.0" y1="139.6" x2="49.9" y2="139.6"/>
<line x1="211.2" y1="106.5" x2="211.2" y2="144.5"/>
<line x1="211.2" y1="144.5" x2="244.1" y2="163.5"/>
<line x1="244.1" y1="163.5" x2="244.1" y2="201.5"/>
<line x1="244.1" y1="201.5" x2="268.4" y2="215.6"/>
<line x1="277.0" y1="230.4" x2="277.0" y2="248.6"/>
<line x1="293.0" y1="97.8" x2="302.2" y2="81.5"/>
<line x1="302.2" y1="64.2" x2="288.0" y2="40.0"/>
<line x1="294.9" y1="66.0" x2="284.8" y2="48.8"/>
<line x1="288.0" y1="40.0" x2="259.6" y2="40.0"/>
<line x1="249.6" y1="57.3" x2="249.6" y2="106.5"/>
<line x1="249.6" y1="106.5" x2="278.0" y2="106.5"/>
<line x1="206.2" y1="48.8" x2="191.9" y2="73.8"/>
<line x1="211.4" y1="54.2" x2="201.2" y2="72.1"/>
<line x1="191.9" y1="73.8" x2="211.2" y2="106.5"/>
<line x1="211.2" y1="106.5" x2="249.6" y2="106.5"/>
<line x1="239.6" y1="40.0" x2="221.2" y2="40.0"/>
<text x="284.421067" y="114.857675" fill="rgb(12,12,255)"  stroke="rgb(12,12,255)" stroke-width="1" font-size="16" >N</text>
<text x="405.938620" y="184.831294" fill="rgb(102,102,102)"  stroke="rgb(102,102,102)" stroke-width="1" font-size="16" >CH</text>
<text x="429.938620" y="189.631294" fill="rgb(102,102,102)"  stroke="rgb(102,102,102)" stroke-width="1" font-size="13" >3</text>
<text x="301.244344" y="81.081444" fill="rgb(12,12,255)"  stroke="rgb(12,12,255)" stroke-width="1" font-size="16" >N</text>
<text x="243.597578" y="48.320000" fill="rgb(12,12,255)"  stroke="rgb(12,12,255)" stroke-width="1" font-size="16" >N</text>
<text x="207.562558" y="48.320000" fill="rgb(12,12,255)"  stroke="rgb(12,12,255)" stroke-width="1" font-size="16" >N</text>
<text x="16.400000" y="144.367869" fill="rgb(102,102,102)"  stroke="rgb(102,102,102)" stroke-width="1" font-size="16" >H</text>
<text x="28.400000" y="149.167869" fill="rgb(102,102,102)"  stroke="rgb(102,102,102)" stroke-width="1" font-size="13" >3</text>
<text x="34.900000" y="144.367869" fill="rgb(102,102,102)"  stroke="rgb(102,102,102)" stroke-width="1" font-size="16" >C</text>
<text x="270.954197" y="228.812136" fill="rgb(12,12,255)"  stroke="rgb(12,12,255)" stroke-width="1" font-size="16" >NH</text>
<text x="270.954197" y="263.276956" fill="rgb(102,102,102)"  stroke="rgb(102,102,102)" stroke-width="1" font-size="16" >CH</text>
<text x="294.954197" y="268.076956" fill="rgb(102,102,102)"  stroke="rgb(102,102,102)" stroke-width="1" font-size="13" >3</text>
<text x="288.021067" y="106.537675" fill="rgb(255,0,0)"  stroke="rgb(255,0,0)" stroke-width="1" font-size="12" >1</text>
<text x="308.554642" y="142.659500" fill="rgb(255,0,0)"  stroke="rgb(255,0,0)" stroke-width="1" font-size="12" >2</text>
<text x="350.101052" y="143.216119" fill="rgb(255,0,0)"  stroke="rgb(255,0,0)" stroke-width="1" font-size="12" >3</text>
<text x="370.392210" y="179.474675" fill="rgb(255,0,0)"  stroke="rgb(255,0,0)" stroke-width="1" font-size="12" >4</text>
<text x="411.938620" y="180.031294" fill="rgb(255,0,0)"  stroke="rgb(255,0,0)" stroke-width="1" font-size="12" >5</text>
<text x="307.244344" y="72.761444" fill="rgb(255,0,0)"  stroke="rgb(255,0,0)" stroke-width="1" font-size="12" >6</text>
<text x="288.021067" y="40.000000" fill="rgb(255,0,0)"  stroke="rgb(255,0,0)" stroke-width="1" font-size="12" >7</text>
<text x="249.597578" y="40.000000" fill="rgb(255,0,0)"  stroke="rgb(255,0,0)" stroke-width="1" font-size="12" >8</text>
<text x="211.162558" y="40.000000" fill="rgb(255,0,0)"  stroke="rgb(255,0,0)" stroke-width="1" font-size="12" >9</text>
<text x="191.939282" y="73.776230" fill="rgb(255,0,0)"  stroke="rgb(255,0,0)" stroke-width="1" font-size="12" >10</text>
<text x="153.954461" y="73.776230" fill="rgb(255,0,0)"  stroke="rgb(255,0,0)" stroke-width="1" font-size="12" >11</text>
<text x="134.962051" y="106.672050" fill="rgb(255,0,0)"  stroke="rgb(255,0,0)" stroke-width="1" font-size="12" >12</text>
<text x="96.977231" y="106.672050" fill="rgb(255,0,0)"  stroke="rgb(255,0,0)" stroke-width="1" font-size="12" >13</text>
<text x="77.984820" y="139.567869" fill="rgb(255,0,0)"  stroke="rgb(255,0,0)" stroke-width="1" font-size="12" >14</text>
<text x="40.000000" y="139.567869" fill="rgb(255,0,0)"  stroke="rgb(255,0,0)" stroke-width="1" font-size="12" >15</text>
<text x="211.162558" y="106.537675" fill="rgb(255,0,0)"  stroke="rgb(255,0,0)" stroke-width="1" font-size="12" >16</text>
<text x="211.162558" y="144.522495" fill="rgb(255,0,0)"  stroke="rgb(255,0,0)" stroke-width="1" font-size="12" >17</text>
<text x="244.058377" y="163.514905" fill="rgb(255,0,0)"  stroke="rgb(255,0,0)" stroke-width="1" font-size="12" >18</text>
<text x="244.058377" y="201.499726" fill="rgb(255,0,0)"  stroke="rgb(255,0,0)" stroke-width="1" font-size="12" >19</text>
<text x="276.954197" y="220.492136" fill="rgb(255,0,0)"  stroke="rgb(255,0,0)" stroke-width="1" font-size="12" >20</text>
<text x="276.954197" y="258.476956" fill="rgb(255,0,0)"  stroke="rgb(255,0,0)" stroke-width="1" font-size="12" >21</text>
<text x="249.597578" y="106.537675" fill="rgb(255,0,0)"  stroke="rgb(255,0,0)" stroke-width="1" font-size="12" >22</text>
<text font-size="18.000000" fill ="black" font-family="sans-serif"
x="140.000000" y="20.000000" ></text>
<title> - OBDepict</title>
</svg>
