<?xml version="1.0"?>
<svg xmlns="http://www.w3.org/2000/svg"
xmlns:xlink="http://www.w3.org/1999/xlink" xmlns:cml="http://www.xml-cml.org/schema" width="289.401" height="359.67" x="0" y="0" font-family="sans-serif" stroke="rgb(0,0,0)" stroke-width="1" >
<line x1="234.4" y1="115.1" x2="249.4" y2="141.6"/>
<line x1="249.4" y1="141.6" x2="228.8" y2="177.2"/>
<line x1="228.8" y1="177.2" x2="249.4" y2="212.8"/>
<line x1="249.4" y1="212.8" x2="228.8" y2="248.4"/>
<line x1="228.8" y1="248.4" x2="244.1" y2="274.8"/>
<line x1="244.1" y1="293.3" x2="234.2" y2="310.4"/>
<line x1="134.0" y1="73.4" x2="96.4" y2="73.4"/>
<line x1="96.4" y1="73.4" x2="82.5" y2="97.5"/>
<line x1="67.8" y1="106.0" x2="49.8" y2="106.0"/>
<line x1="153.0" y1="105.9" x2="153.0" y2="143.4"/>
<line x1="153.0" y1="143.4" x2="128.9" y2="157.4"/>
<line x1="153.0" y1="143.4" x2="185.6" y2="162.2"/>
<line x1="185.6" y1="162.2" x2="185.6" y2="190.1"/>
<line x1="234.0" y1="97.2" x2="243.2" y2="81.1"/>
<line x1="243.2" y1="64.0" x2="229.1" y2="40.0"/>
<line x1="235.8" y1="65.7" x2="225.9" y2="48.8"/>
<line x1="229.1" y1="40.0" x2="200.9" y2="40.0"/>
<line x1="191.1" y1="57.1" x2="191.1" y2="105.9"/>
<line x1="191.1" y1="105.9" x2="219.2" y2="105.9"/>
<line x1="148.1" y1="48.7" x2="134.0" y2="73.4"/>
<line x1="153.3" y1="54.1" x2="143.2" y2="71.8"/>
<line x1="134.0" y1="73.4" x2="153.0" y2="105.9"/>
<line x1="153.0" y1="105.9" x2="191.1" y2="105.9"/>
<line x1="181.2" y1="40.0" x2="162.9" y2="40.0"/>
<text x="225.478747" y="114.173263" fill="rgb(12,12,255)"  stroke="rgb(12,12,255)" stroke-width="1" font-size="16" >N</text>
<text x="243.401112" y="292.376924" fill="rgb(12,12,255)"  stroke="rgb(12,12,255)" stroke-width="1" font-size="16" >NH</text>
<text x="205.239736" y="324.470271" fill="rgb(102,102,102)"  stroke="rgb(102,102,102)" stroke-width="1" font-size="16" >H</text>
<text x="217.239736" y="329.270271" fill="rgb(102,102,102)"  stroke="rgb(102,102,102)" stroke-width="1" font-size="13" >3</text>
<text x="223.739736" y="324.470271" fill="rgb(102,102,102)"  stroke="rgb(102,102,102)" stroke-width="1" font-size="16" >C</text>
<text x="242.104291" y="80.744458" fill="rgb(12,12,255)"  stroke="rgb(12,12,255)" stroke-width="1" font-size="16" >N</text>
<text x="185.050484" y="48.320000" fill="rgb(12,12,255)"  stroke="rgb(12,12,255)" stroke-width="1" font-size="16" >N</text>
<text x="149.410809" y="48.320000" fill="rgb(12,12,255)"  stroke="rgb(12,12,255)" stroke-width="1" font-size="16" >N</text>
<text x="71.594106" y="110.786256" fill="rgb(12,12,255)"  stroke="rgb(12,12,255)" stroke-width="1" font-size="16" >NH</text>
<text x="16.400000" y="110.786256" fill="rgb(102,102,102)"  stroke="rgb(102,102,102)" stroke-width="1" font-size="16" >H</text>
<text x="28.400000" y="115.586256" fill="rgb(102,102,102)"  stroke="rgb(102,102,102)" stroke-width="1" font-size="13" >3</text>
<text x="34.900000" y="110.786256" fill="rgb(102,102,102)"  stroke="rgb(102,102,102)" stroke-width="1" font-size="16" >C</text>
<text x="104.853358" y="167.044422" fill="rgb(255,12,12)"  stroke="rgb(255,12,12)" stroke-width="1" font-size="16" >HO</text>
<text x="179.568260" y="204.638528" fill="rgb(102,102,102)"  stroke="rgb(102,102,102)" stroke-width="1" font-size="16" >CH</text>
<text x="203.568260" y="209.438528" fill="rgb(102,102,102)"  stroke="rgb(102,102,102)" stroke-width="1" font-size="13" >3</text>
<text x="229.078747" y="105.853263" fill="rgb(255,0,0)"  stroke="rgb(255,0,0)" stroke-width="1" font-size="12" >1</text>
<text x="249.401112" y="141.603538" fill="rgb(255,0,0)"  stroke="rgb(255,0,0)" stroke-width="1" font-size="12" >2</text>
<text x="228.839736" y="177.216884" fill="rgb(255,0,0)"  stroke="rgb(255,0,0)" stroke-width="1" font-size="12" >3</text>
<text x="249.401112" y="212.830231" fill="rgb(255,0,0)"  stroke="rgb(255,0,0)" stroke-width="1" font-size="12" >4</text>
<text x="228.839736" y="248.443578" fill="rgb(255,0,0)"  stroke="rgb(255,0,0)" stroke-width="1" font-size="12" >5</text>
<text x="249.401112" y="284.056924" fill="rgb(255,0,0)"  stroke="rgb(255,0,0)" stroke-width="1" font-size="12" >6</text>
<text x="228.839736" y="319.670271" fill="rgb(255,0,0)"  stroke="rgb(255,0,0)" stroke-width="1" font-size="12" >7</text>
<text x="248.104291" y="72.424458" fill="rgb(255,0,0)"  stroke="rgb(255,0,0)" stroke-width="1" font-size="12" >8</text>
<text x="229.078747" y="40.000000" fill="rgb(255,0,0)"  stroke="rgb(255,0,0)" stroke-width="1" font-size="12" >9</text>
<text x="191.050484" y="40.000000" fill="rgb(255,0,0)"  stroke="rgb(255,0,0)" stroke-width="1" font-size="12" >10</text>
<text x="153.010809" y="40.000000" fill="rgb(255,0,0)"  stroke="rgb(255,0,0)" stroke-width="1" font-size="12" >11</text>
<text x="133.985265" y="73.428806" fill="rgb(255,0,0)"  stroke="rgb(255,0,0)" stroke-width="1" font-size="12" >12</text>
<text x="96.391159" y="73.428806" fill="rgb(255,0,0)"  stroke="rgb(255,0,0)" stroke-width="1" font-size="12" >13</text>
<text x="77.594106" y="105.986256" fill="rgb(255,0,0)"  stroke="rgb(255,0,0)" stroke-width="1" font-size="12" >14</text>
<text x="40.000000" y="105.986256" fill="rgb(255,0,0)"  stroke="rgb(255,0,0)" stroke-width="1" font-size="12" >15</text>
<text x="153.010809" y="105.853263" fill="rgb(255,0,0)"  stroke="rgb(255,0,0)" stroke-width="1" font-size="12" >16</text>
<text x="153.010809" y="143.447369" fill="rgb(255,0,0)"  stroke="rgb(255,0,0)" stroke-width="1" font-size="12" >17</text>
<text x="120.453358" y="162.244422" fill="rgb(255,0,0)"  stroke="rgb(255,0,0)" stroke-width="1" font-size="12" >18</text>
<text x="185.568260" y="162.244422" fill="rgb(255,0,0)"  stroke="rgb(255,0,0)" stroke-width="1" font-size="12" >19</text>
<text x="185.568260" y="199.838528" fill="rgb(255,0,0)"  stroke="rgb(255,0,0)" stroke-width="1" font-size="12" >20</text>
<text x="191.050484" y="105.853263" fill="rgb(255,0,0)"  stroke="rgb(255,0,0)" stroke-width="1" font-size="12" >21</text>
<text font-size="18.000000" fill ="black" font-family="sans-serif"
x="140.000000" y="20.000000" ></text>
<title> - OBDepict</title>
</svg>
