<?xml version="1.0"?>
<svg xmlns="http://www.w3.org/2000/svg"
xmlns:xlink="http://www.w3.org/1999/xlink" xmlns:cml="http://www.xml-cml.org/schema" x="0" y="0" font-family="sans-serif" stroke="rgb(0,0,0)" stroke-width="1" viewBox="0 0 346.862 325.039" width="277.4896" height="260.0312">
<line x1="291.8" y1="115.5" x2="306.9" y2="142.0"/>
<line x1="306.9" y1="142.0" x2="286.2" y2="177.8"/>
<line x1="286.2" y1="177.8" x2="306.9" y2="213.5"/>
<line x1="306.9" y1="213.5" x2="291.6" y2="240.0"/>
<line x1="291.6" y1="258.6" x2="301.5" y2="275.7"/>
<line x1="191.0" y1="73.6" x2="153.2" y2="73.6"/>
<line x1="153.2" y1="73.6" x2="134.4" y2="106.3"/>
<line x1="134.4" y1="106.3" x2="96.6" y2="106.3"/>
<line x1="96.6" y1="106.3" x2="82.7" y2="130.4"/>
<line x1="67.9" y1="138.9" x2="49.8" y2="138.9"/>
<line x1="210.1" y1="106.1" x2="210.1" y2="134.1"/>
<line x1="218.6" y1="148.8" x2="242.8" y2="162.7"/>
<line x1="242.8" y1="162.7" x2="242.8" y2="190.7"/>
<line x1="291.4" y1="97.4" x2="300.6" y2="81.3"/>
<line x1="300.6" y1="64.1" x2="286.5" y2="40.0"/>
<line x1="293.3" y1="65.8" x2="283.3" y2="48.8"/>
<line x1="286.5" y1="40.0" x2="258.2" y2="40.0"/>
<line x1="248.3" y1="57.2" x2="248.3" y2="106.1"/>
<line x1="248.3" y1="106.1" x2="276.5" y2="106.1"/>
<line x1="205.1" y1="48.7" x2="191.0" y2="73.6"/>
<line x1="210.3" y1="54.1" x2="200.2" y2="71.9"/>
<line x1="191.0" y1="73.6" x2="210.1" y2="106.1"/>
<line x1="210.1" y1="106.1" x2="248.3" y2="106.1"/>
<line x1="238.3" y1="40.0" x2="220.0" y2="40.0"/>
<text x="282.858159" y="114.438387" fill="rgb(12,12,255)"  stroke="rgb(12,12,255)" stroke-width="1" font-size="16" >N</text>
<text x="270.618187" y="254.082765" fill="rgb(12,12,255)"  stroke="rgb(12,12,255)" stroke-width="1" font-size="16" >HN</text>
<text x="300.862341" y="289.839489" fill="rgb(102,102,102)"  stroke="rgb(102,102,102)" stroke-width="1" font-size="16" >CH</text>
<text x="324.862341" y="294.639489" fill="rgb(102,102,102)"  stroke="rgb(102,102,102)" stroke-width="1" font-size="13" >3</text>
<text x="299.560300" y="80.874998" fill="rgb(12,12,255)"  stroke="rgb(12,12,255)" stroke-width="1" font-size="16" >N</text>
<text x="242.276796" y="48.320000" fill="rgb(12,12,255)"  stroke="rgb(12,12,255)" stroke-width="1" font-size="16" >N</text>
<text x="206.483975" y="48.320000" fill="rgb(12,12,255)"  stroke="rgb(12,12,255)" stroke-width="1" font-size="16" >N</text>
<text x="71.745459" y="143.740441" fill="rgb(12,12,255)"  stroke="rgb(12,12,255)" stroke-width="1" font-size="16" >NH</text>
<text x="16.400000" y="143.740441" fill="rgb(102,102,102)"  stroke="rgb(102,102,102)" stroke-width="1" font-size="16" >H</text>
<text x="28.400000" y="148.540441" fill="rgb(102,102,102)"  stroke="rgb(102,102,102)" stroke-width="1" font-size="13" >3</text>
<text x="34.900000" y="143.740441" fill="rgb(102,102,102)"  stroke="rgb(102,102,102)" stroke-width="1" font-size="16" >C</text>
<text x="194.483975" y="148.663845" fill="rgb(12,12,255)"  stroke="rgb(12,12,255)" stroke-width="1" font-size="16" >HN</text>
<text x="236.772501" y="205.282033" fill="rgb(102,102,102)"  stroke="rgb(102,102,102)" stroke-width="1" font-size="16" >CH</text>
<text x="260.772501" y="210.082033" fill="rgb(102,102,102)"  stroke="rgb(102,102,102)" stroke-width="1" font-size="13" >3</text>
<text x="286.458159" y="106.118387" fill="rgb(255,0,0)"  stroke="rgb(255,0,0)" stroke-width="1" font-size="12" >1</text>
<text x="306.862341" y="142.012590" fill="rgb(255,0,0)"  stroke="rgb(255,0,0)" stroke-width="1" font-size="12" >2</text>
<text x="286.218187" y="177.769315" fill="rgb(255,0,0)"  stroke="rgb(255,0,0)" stroke-width="1" font-size="12" >3</text>
<text x="306.862341" y="213.526040" fill="rgb(255,0,0)"  stroke="rgb(255,0,0)" stroke-width="1" font-size="12" >4</text>
<text x="286.218187" y="249.282765" fill="rgb(255,0,0)"  stroke="rgb(255,0,0)" stroke-width="1" font-size="12" >5</text>
<text x="306.862341" y="285.039489" fill="rgb(255,0,0)"  stroke="rgb(255,0,0)" stroke-width="1" font-size="12" >6</text>
<text x="305.560300" y="72.554998" fill="rgb(255,0,0)"  stroke="rgb(255,0,0)" stroke-width="1" font-size="12" >7</text>
<text x="286.458159" y="40.000000" fill="rgb(255,0,0)"  stroke="rgb(255,0,0)" stroke-width="1" font-size="12" >8</text>
<text x="248.276796" y="40.000000" fill="rgb(255,0,0)"  stroke="rgb(255,0,0)" stroke-width="1" font-size="12" >9</text>
<text x="210.083975" y="40.000000" fill="rgb(255,0,0)"  stroke="rgb(255,0,0)" stroke-width="1" font-size="12" >10</text>
<text x="190.981834" y="73.563389" fill="rgb(255,0,0)"  stroke="rgb(255,0,0)" stroke-width="1" font-size="12" >11</text>
<text x="153.236376" y="73.563389" fill="rgb(255,0,0)"  stroke="rgb(255,0,0)" stroke-width="1" font-size="12" >12</text>
<text x="134.363646" y="106.251915" fill="rgb(255,0,0)"  stroke="rgb(255,0,0)" stroke-width="1" font-size="12" >13</text>
<text x="96.618188" y="106.251915" fill="rgb(255,0,0)"  stroke="rgb(255,0,0)" stroke-width="1" font-size="12" >14</text>
<text x="77.745459" y="138.940441" fill="rgb(255,0,0)"  stroke="rgb(255,0,0)" stroke-width="1" font-size="12" >15</text>
<text x="40.000000" y="138.940441" fill="rgb(255,0,0)"  stroke="rgb(255,0,0)" stroke-width="1" font-size="12" >16</text>
<text x="210.083975" y="106.118387" fill="rgb(255,0,0)"  stroke="rgb(255,0,0)" stroke-width="1" font-size="12" >17</text>
<text x="210.083975" y="143.863845" fill="rgb(255,0,0)"  stroke="rgb(255,0,0)" stroke-width="1" font-size="12" >18</text>
<text x="242.772501" y="162.736574" fill="rgb(255,0,0)"  stroke="rgb(255,0,0)" stroke-width="1" font-size="12" >19</text>
<text x="242.772501" y="200.482033" fill="rgb(255,0,0)"  stroke="rgb(255,0,0)" stroke-width="1" font-size="12" >20</text>
<text x="248.276796" y="106.118387" fill="rgb(255,0,0)"  stroke="rgb(255,0,0)" stroke-width="1" font-size="12" >21</text>
<text font-size="18.000000" fill ="black" font-family="sans-serif"
x="140.000000" y="20.000000" ></text>
<title> - OBDepict</title>
</svg>
