<?xml version="1.0"?>
<svg xmlns="http://www.w3.org/2000/svg"
xmlns:xlink="http://www.w3.org/1999/xlink" xmlns:cml="http://www.xml-cml.org/schema" width="414.656" height="317.969" x="0" y="0" font-family="sans-serif" stroke="rgb(0,0,0)" stroke-width="1" >
<line x1="255.8" y1="116.1" x2="271.1" y2="142.9"/>
<line x1="271.1" y1="142.9" x2="312.7" y2="143.4"/>
<line x1="312.7" y1="143.4" x2="327.7" y2="170.3"/>
<line x1="343.8" y1="179.9" x2="363.8" y2="180.2"/>
<line x1="154.2" y1="73.8" x2="126.0" y2="73.8"/>
<line x1="111.2" y1="82.4" x2="97.1" y2="106.8"/>
<line x1="97.1" y1="106.8" x2="59.0" y2="106.8"/>
<line x1="59.0" y1="106.8" x2="44.9" y2="82.4"/>
<line x1="59.0" y1="106.8" x2="44.9" y2="131.2"/>
<line x1="173.5" y1="106.7" x2="173.5" y2="144.7"/>
<line x1="173.5" y1="144.7" x2="206.4" y2="163.8"/>
<line x1="206.4" y1="163.8" x2="206.4" y2="201.8"/>
<line x1="206.4" y1="201.8" x2="239.4" y2="220.9"/>
<line x1="239.4" y1="220.9" x2="239.4" y2="249.0"/>
<line x1="248.0" y1="263.9" x2="263.8" y2="273.0"/>
<line x1="255.5" y1="97.9" x2="264.7" y2="81.6"/>
<line x1="264.7" y1="64.3" x2="250.5" y2="40.0"/>
<line x1="257.4" y1="66.0" x2="247.3" y2="48.8"/>
<line x1="250.5" y1="40.0" x2="222.0" y2="40.0"/>
<line x1="212.0" y1="57.3" x2="212.0" y2="106.7"/>
<line x1="212.0" y1="106.7" x2="240.5" y2="106.7"/>
<line x1="168.4" y1="48.8" x2="154.2" y2="73.8"/>
<line x1="173.7" y1="54.2" x2="163.4" y2="72.2"/>
<line x1="154.2" y1="73.8" x2="173.5" y2="106.7"/>
<line x1="173.5" y1="106.7" x2="212.0" y2="106.7"/>
<line x1="202.0" y1="40.0" x2="183.5" y2="40.0"/>
<text x="246.878071" y="114.997641" fill="rgb(12,12,255)"  stroke="rgb(12,12,255)" stroke-width="1" font-size="16" >N</text>
<text x="317.422487" y="184.568068" fill="rgb(12,12,255)"  stroke="rgb(12,12,255)" stroke-width="1" font-size="16" >HN</text>
<text x="368.656292" y="185.125858" fill="rgb(102,102,102)"  stroke="rgb(102,102,102)" stroke-width="1" font-size="16" >CH</text>
<text x="392.656292" y="189.925858" fill="rgb(102,102,102)"  stroke="rgb(102,102,102)" stroke-width="1" font-size="13" >3</text>
<text x="263.741785" y="81.150360" fill="rgb(12,12,255)"  stroke="rgb(12,12,255)" stroke-width="1" font-size="16" >N</text>
<text x="205.973756" y="48.320000" fill="rgb(12,12,255)"  stroke="rgb(12,12,255)" stroke-width="1" font-size="16" >N</text>
<text x="169.857885" y="48.320000" fill="rgb(12,12,255)"  stroke="rgb(12,12,255)" stroke-width="1" font-size="16" >N</text>
<text x="100.529448" y="82.167281" fill="rgb(12,12,255)"  stroke="rgb(12,12,255)" stroke-width="1" font-size="16" >HN</text>
<text x="24.400000" y="82.167281" fill="rgb(255,12,12)"  stroke="rgb(255,12,12)" stroke-width="1" font-size="16" >HO</text>
<text x="16.400000" y="144.577316" fill="rgb(102,102,102)"  stroke="rgb(102,102,102)" stroke-width="1" font-size="16" >H</text>
<text x="28.400000" y="149.377316" fill="rgb(102,102,102)"  stroke="rgb(102,102,102)" stroke-width="1" font-size="13" >3</text>
<text x="34.900000" y="144.577316" fill="rgb(102,102,102)"  stroke="rgb(102,102,102)" stroke-width="1" font-size="16" >C</text>
<text x="223.787920" y="263.736536" fill="rgb(12,12,255)"  stroke="rgb(12,12,255)" stroke-width="1" font-size="16" >HN</text>
<text x="266.352938" y="282.768898" fill="rgb(102,102,102)"  stroke="rgb(102,102,102)" stroke-width="1" font-size="16" >CH</text>
<text x="290.352938" y="287.568898" fill="rgb(102,102,102)"  stroke="rgb(102,102,102)" stroke-width="1" font-size="13" >3</text>
<text x="250.478071" y="106.677641" fill="rgb(255,0,0)"  stroke="rgb(255,0,0)" stroke-width="1" font-size="12" >1</text>
<text x="271.054839" y="142.875451" fill="rgb(255,0,0)"  stroke="rgb(255,0,0)" stroke-width="1" font-size="12" >2</text>
<text x="312.688644" y="143.433241" fill="rgb(255,0,0)"  stroke="rgb(255,0,0)" stroke-width="1" font-size="12" >3</text>
<text x="333.022487" y="179.768068" fill="rgb(255,0,0)"  stroke="rgb(255,0,0)" stroke-width="1" font-size="12" >4</text>
<text x="374.656292" y="180.325858" fill="rgb(255,0,0)"  stroke="rgb(255,0,0)" stroke-width="1" font-size="12" >5</text>
<text x="269.741785" y="72.830360" fill="rgb(255,0,0)"  stroke="rgb(255,0,0)" stroke-width="1" font-size="12" >6</text>
<text x="250.478071" y="40.000000" fill="rgb(255,0,0)"  stroke="rgb(255,0,0)" stroke-width="1" font-size="12" >7</text>
<text x="211.973756" y="40.000000" fill="rgb(255,0,0)"  stroke="rgb(255,0,0)" stroke-width="1" font-size="12" >8</text>
<text x="173.457885" y="40.000000" fill="rgb(255,0,0)"  stroke="rgb(255,0,0)" stroke-width="1" font-size="12" >9</text>
<text x="154.194171" y="73.847281" fill="rgb(255,0,0)"  stroke="rgb(255,0,0)" stroke-width="1" font-size="12" >10</text>
<text x="116.129448" y="73.847281" fill="rgb(255,0,0)"  stroke="rgb(255,0,0)" stroke-width="1" font-size="12" >11</text>
<text x="97.097086" y="106.812298" fill="rgb(255,0,0)"  stroke="rgb(255,0,0)" stroke-width="1" font-size="12" >12</text>
<text x="59.032362" y="106.812298" fill="rgb(255,0,0)"  stroke="rgb(255,0,0)" stroke-width="1" font-size="12" >13</text>
<text x="40.000000" y="73.847281" fill="rgb(255,0,0)"  stroke="rgb(255,0,0)" stroke-width="1" font-size="12" >14</text>
<text x="40.000000" y="139.777316" fill="rgb(255,0,0)"  stroke="rgb(255,0,0)" stroke-width="1" font-size="12" >15</text>
<text x="173.457885" y="106.677641" fill="rgb(255,0,0)"  stroke="rgb(255,0,0)" stroke-width="1" font-size="12" >16</text>
<text x="173.457885" y="144.742364" fill="rgb(255,0,0)"  stroke="rgb(255,0,0)" stroke-width="1" font-size="12" >17</text>
<text x="206.422903" y="163.774726" fill="rgb(255,0,0)"  stroke="rgb(255,0,0)" stroke-width="1" font-size="12" >18</text>
<text x="206.422903" y="201.839450" fill="rgb(255,0,0)"  stroke="rgb(255,0,0)" stroke-width="1" font-size="12" >19</text>
<text x="239.387920" y="220.871812" fill="rgb(255,0,0)"  stroke="rgb(255,0,0)" stroke-width="1" font-size="12" >20</text>
<text x="239.387920" y="258.936536" fill="rgb(255,0,0)"  stroke="rgb(255,0,0)" stroke-width="1" font-size="12" >21</text>
<text x="272.352938" y="277.968898" fill="rgb(255,0,0)"  stroke="rgb(255,0,0)" stroke-width="1" font-size="12" >22</text>
<text x="211.973756" y="106.677641" fill="rgb(255,0,0)"  stroke="rgb(255,0,0)" stroke-width="1" font-size="12" >23</text>
<text font-size="18.000000" fill ="black" font-family="sans-serif"
x="140.000000" y="20.000000" ></text>
<title> - OBDepict</title>
</svg>
