<?xml version="1.0"?>
<svg xmlns="http://www.w3.org/2000/svg"
xmlns:xlink="http://www.w3.org/1999/xlink" xmlns:cml="http://www.xml-cml.org/schema" width="394.454" height="236.159" x="0" y="0" font-family="sans-serif" stroke="rgb(0,0,0)" stroke-width="1" >
<line x1="236.1" y1="120.4" x2="251.2" y2="93.7"/>
<line x1="251.2" y1="93.7" x2="292.7" y2="93.1"/>
<line x1="295.3" y1="91.6" x2="311.0" y2="118.0"/>
<line x1="290.1" y1="94.6" x2="305.8" y2="121.0"/>
<line x1="292.7" y1="93.1" x2="313.0" y2="56.9"/>
<line x1="313.0" y1="56.9" x2="343.7" y2="56.5"/>
<line x1="134.8" y1="162.4" x2="96.9" y2="162.4"/>
<line x1="96.9" y1="162.4" x2="77.9" y2="129.6"/>
<line x1="77.9" y1="132.6" x2="49.9" y2="132.6"/>
<line x1="77.9" y1="126.6" x2="49.9" y2="126.6"/>
<line x1="77.9" y1="129.6" x2="96.9" y2="96.8"/>
<line x1="96.9" y1="96.8" x2="82.9" y2="72.4"/>
<line x1="154.0" y1="129.7" x2="154.0" y2="91.8"/>
<line x1="154.0" y1="91.8" x2="186.8" y2="72.8"/>
<line x1="186.8" y1="72.8" x2="200.9" y2="48.5"/>
<line x1="186.8" y1="72.8" x2="172.8" y2="48.5"/>
<line x1="186.8" y1="72.8" x2="211.1" y2="86.9"/>
<line x1="235.7" y1="138.5" x2="244.9" y2="154.7"/>
<line x1="244.9" y1="172.0" x2="230.7" y2="196.2"/>
<line x1="237.6" y1="170.2" x2="227.6" y2="187.3"/>
<line x1="230.7" y1="196.2" x2="202.3" y2="196.2"/>
<line x1="192.4" y1="178.9" x2="192.4" y2="129.7"/>
<line x1="192.4" y1="129.7" x2="220.8" y2="129.7"/>
<line x1="149.0" y1="187.4" x2="134.8" y2="162.4"/>
<line x1="154.2" y1="182.0" x2="144.0" y2="164.1"/>
<line x1="134.8" y1="162.4" x2="154.0" y2="129.7"/>
<line x1="154.0" y1="129.7" x2="192.4" y2="129.7"/>
<line x1="182.4" y1="196.2" x2="164.0" y2="196.2"/>
<text x="227.135851" y="134.528163" fill="rgb(12,12,255)"  stroke="rgb(12,12,255)" stroke-width="1" font-size="16" >N</text>
<text x="307.936739" y="133.553230" fill="rgb(255,12,12)"  stroke="rgb(255,12,12)" stroke-width="1" font-size="16" >O</text>
<text x="348.453633" y="64.673025" fill="rgb(102,102,102)"  stroke="rgb(102,102,102)" stroke-width="1" font-size="16" >CH</text>
<text x="372.453633" y="72.353025" fill="rgb(102,102,102)"  stroke="rgb(102,102,102)" stroke-width="1" font-size="13" >3</text>
<text x="243.928136" y="168.249942" fill="rgb(12,12,255)"  stroke="rgb(12,12,255)" stroke-width="1" font-size="16" >N</text>
<text x="186.374305" y="200.958571" fill="rgb(12,12,255)"  stroke="rgb(12,12,255)" stroke-width="1" font-size="16" >N</text>
<text x="150.401246" y="200.958571" fill="rgb(12,12,255)"  stroke="rgb(12,12,255)" stroke-width="1" font-size="16" >N</text>
<text x="36.400000" y="137.914005" fill="rgb(255,12,12)"  stroke="rgb(255,12,12)" stroke-width="1" font-size="16" >O</text>
<text x="54.323584" y="72.228430" fill="rgb(102,102,102)"  stroke="rgb(102,102,102)" stroke-width="1" font-size="16" >H</text>
<text x="66.323584" y="79.908430" fill="rgb(102,102,102)"  stroke="rgb(102,102,102)" stroke-width="1" font-size="13" >3</text>
<text x="72.823584" y="72.228430" fill="rgb(102,102,102)"  stroke="rgb(102,102,102)" stroke-width="1" font-size="16" >C</text>
<text x="199.805826" y="48.320000" fill="rgb(102,102,102)"  stroke="rgb(102,102,102)" stroke-width="1" font-size="16" >CH</text>
<text x="223.805826" y="56.000000" fill="rgb(102,102,102)"  stroke="rgb(102,102,102)" stroke-width="1" font-size="13" >3</text>
<text x="144.282241" y="48.320000" fill="rgb(102,102,102)"  stroke="rgb(102,102,102)" stroke-width="1" font-size="16" >H</text>
<text x="156.282241" y="56.000000" fill="rgb(102,102,102)"  stroke="rgb(102,102,102)" stroke-width="1" font-size="13" >3</text>
<text x="162.782241" y="48.320000" fill="rgb(102,102,102)"  stroke="rgb(102,102,102)" stroke-width="1" font-size="16" >C</text>
<text x="213.686821" y="96.604579" fill="rgb(255,12,12)"  stroke="rgb(255,12,12)" stroke-width="1" font-size="16" >OH</text>
<text x="230.735851" y="129.728163" fill="rgb(255,0,0)"  stroke="rgb(255,0,0)" stroke-width="1" font-size="12" >1</text>
<text x="251.236322" y="93.664571" fill="rgb(255,0,0)"  stroke="rgb(255,0,0)" stroke-width="1" font-size="12" >2</text>
<text x="292.715754" y="93.108849" fill="rgb(255,0,0)"  stroke="rgb(255,0,0)" stroke-width="1" font-size="12" >3</text>
<text x="313.936739" y="128.753230" fill="rgb(255,0,0)"  stroke="rgb(255,0,0)" stroke-width="1" font-size="12" >4</text>
<text x="312.974201" y="56.908747" fill="rgb(255,0,0)"  stroke="rgb(255,0,0)" stroke-width="1" font-size="12" >5</text>
<text x="354.453633" y="56.353025" fill="rgb(255,0,0)"  stroke="rgb(255,0,0)" stroke-width="1" font-size="12" >6</text>
<text x="249.928136" y="163.449942" fill="rgb(255,0,0)"  stroke="rgb(255,0,0)" stroke-width="1" font-size="12" >7</text>
<text x="230.735851" y="196.158571" fill="rgb(255,0,0)"  stroke="rgb(255,0,0)" stroke-width="1" font-size="12" >8</text>
<text x="192.374305" y="196.158571" fill="rgb(255,0,0)"  stroke="rgb(255,0,0)" stroke-width="1" font-size="12" >9</text>
<text x="154.001246" y="196.158571" fill="rgb(255,0,0)"  stroke="rgb(255,0,0)" stroke-width="1" font-size="12" >10</text>
<text x="134.808960" y="162.436792" fill="rgb(255,0,0)"  stroke="rgb(255,0,0)" stroke-width="1" font-size="12" >11</text>
<text x="96.885376" y="162.436792" fill="rgb(255,0,0)"  stroke="rgb(255,0,0)" stroke-width="1" font-size="12" >12</text>
<text x="77.923584" y="129.594005" fill="rgb(255,0,0)"  stroke="rgb(255,0,0)" stroke-width="1" font-size="12" >13</text>
<text x="40.000000" y="129.594005" fill="rgb(255,0,0)"  stroke="rgb(255,0,0)" stroke-width="1" font-size="12" >14</text>
<text x="96.885376" y="96.751218" fill="rgb(255,0,0)"  stroke="rgb(255,0,0)" stroke-width="1" font-size="12" >15</text>
<text x="77.923584" y="63.908430" fill="rgb(255,0,0)"  stroke="rgb(255,0,0)" stroke-width="1" font-size="12" >16</text>
<text x="154.001246" y="129.728163" fill="rgb(255,0,0)"  stroke="rgb(255,0,0)" stroke-width="1" font-size="12" >17</text>
<text x="154.001246" y="91.804579" fill="rgb(255,0,0)"  stroke="rgb(255,0,0)" stroke-width="1" font-size="12" >18</text>
<text x="186.844033" y="72.842787" fill="rgb(255,0,0)"  stroke="rgb(255,0,0)" stroke-width="1" font-size="12" >19</text>
<text x="205.805826" y="40.000000" fill="rgb(255,0,0)"  stroke="rgb(255,0,0)" stroke-width="1" font-size="12" >20</text>
<text x="167.882241" y="40.000000" fill="rgb(255,0,0)"  stroke="rgb(255,0,0)" stroke-width="1" font-size="12" >21</text>
<text x="219.686821" y="91.804579" fill="rgb(255,0,0)"  stroke="rgb(255,0,0)" stroke-width="1" font-size="12" >22</text>
<text x="192.374305" y="129.728163" fill="rgb(255,0,0)"  stroke="rgb(255,0,0)" stroke-width="1" font-size="12" >23</text>
<text font-size="18.000000" fill ="black" font-family="sans-serif"
x="140.000000" y="20.000000" ></text>
<title> - OBDepict</title>
</svg>
