<?xml version="1.0"?>
<svg xmlns="http://www.w3.org/2000/svg"
xmlns:xlink="http://www.w3.org/1999/xlink" xmlns:cml="http://www.xml-cml.org/schema" width="291.094" height="290.129" x="0" y="0" font-family="sans-serif" stroke="rgb(0,0,0)" stroke-width="1" >
<line x1="235.9" y1="115.8" x2="251.1" y2="142.4"/>
<line x1="251.1" y1="142.4" x2="230.4" y2="178.3"/>
<line x1="230.4" y1="178.3" x2="251.1" y2="214.2"/>
<line x1="251.1" y1="214.2" x2="235.8" y2="240.8"/>
<line x1="134.7" y1="73.7" x2="96.8" y2="73.7"/>
<line x1="96.8" y1="73.7" x2="77.9" y2="106.5"/>
<line x1="77.9" y1="109.5" x2="49.9" y2="109.5"/>
<line x1="77.9" y1="103.5" x2="49.9" y2="103.5"/>
<line x1="77.9" y1="106.5" x2="96.8" y2="139.3"/>
<line x1="96.8" y1="139.3" x2="82.8" y2="163.6"/>
<line x1="153.9" y1="106.4" x2="153.9" y2="144.3"/>
<line x1="153.9" y1="144.3" x2="186.7" y2="163.2"/>
<line x1="186.7" y1="163.2" x2="186.7" y2="191.3"/>
<line x1="195.3" y1="206.1" x2="211.0" y2="215.2"/>
<line x1="235.6" y1="97.6" x2="244.8" y2="81.4"/>
<line x1="244.8" y1="64.2" x2="230.6" y2="40.0"/>
<line x1="237.5" y1="65.9" x2="227.4" y2="48.8"/>
<line x1="230.6" y1="40.0" x2="202.2" y2="40.0"/>
<line x1="192.3" y1="57.3" x2="192.3" y2="106.4"/>
<line x1="192.3" y1="106.4" x2="220.6" y2="106.4"/>
<line x1="148.9" y1="48.8" x2="134.7" y2="73.7"/>
<line x1="154.1" y1="54.2" x2="144.0" y2="72.0"/>
<line x1="134.7" y1="73.7" x2="153.9" y2="106.4"/>
<line x1="153.9" y1="106.4" x2="192.3" y2="106.4"/>
<line x1="182.3" y1="40.0" x2="163.9" y2="40.0"/>
<text x="227.007350" y="114.705653" fill="rgb(12,12,255)"  stroke="rgb(12,12,255)" stroke-width="1" font-size="16" >N</text>
<text x="206.766408" y="254.928736" fill="rgb(102,102,102)"  stroke="rgb(102,102,102)" stroke-width="1" font-size="16" >H</text>
<text x="218.766408" y="259.728736" fill="rgb(102,102,102)"  stroke="rgb(102,102,102)" stroke-width="1" font-size="13" >3</text>
<text x="225.266408" y="254.928736" fill="rgb(102,102,102)"  stroke="rgb(102,102,102)" stroke-width="1" font-size="16" >C</text>
<text x="243.786706" y="81.006593" fill="rgb(12,12,255)"  stroke="rgb(12,12,255)" stroke-width="1" font-size="16" >N</text>
<text x="186.271649" y="48.320000" fill="rgb(12,12,255)"  stroke="rgb(12,12,255)" stroke-width="1" font-size="16" >N</text>
<text x="150.324443" y="48.320000" fill="rgb(12,12,255)"  stroke="rgb(12,12,255)" stroke-width="1" font-size="16" >N</text>
<text x="36.400000" y="111.319721" fill="rgb(255,12,12)"  stroke="rgb(255,12,12)" stroke-width="1" font-size="16" >O</text>
<text x="54.298035" y="176.961043" fill="rgb(102,102,102)"  stroke="rgb(102,102,102)" stroke-width="1" font-size="16" >H</text>
<text x="66.298035" y="181.761043" fill="rgb(102,102,102)"  stroke="rgb(102,102,102)" stroke-width="1" font-size="13" >3</text>
<text x="72.798035" y="176.961043" fill="rgb(102,102,102)"  stroke="rgb(102,102,102)" stroke-width="1" font-size="16" >C</text>
<text x="171.145104" y="205.930740" fill="rgb(12,12,255)"  stroke="rgb(12,12,255)" stroke-width="1" font-size="16" >HN</text>
<text x="213.565765" y="224.879757" fill="rgb(102,102,102)"  stroke="rgb(102,102,102)" stroke-width="1" font-size="16" >CH</text>
<text x="237.565765" y="229.679757" fill="rgb(102,102,102)"  stroke="rgb(102,102,102)" stroke-width="1" font-size="13" >3</text>
<text x="230.607350" y="106.385653" fill="rgb(255,0,0)"  stroke="rgb(255,0,0)" stroke-width="1" font-size="12" >1</text>
<text x="251.094011" y="142.424950" fill="rgb(255,0,0)"  stroke="rgb(255,0,0)" stroke-width="1" font-size="12" >2</text>
<text x="230.366408" y="178.326212" fill="rgb(255,0,0)"  stroke="rgb(255,0,0)" stroke-width="1" font-size="12" >3</text>
<text x="251.094011" y="214.227474" fill="rgb(255,0,0)"  stroke="rgb(255,0,0)" stroke-width="1" font-size="12" >4</text>
<text x="230.366408" y="250.128736" fill="rgb(255,0,0)"  stroke="rgb(255,0,0)" stroke-width="1" font-size="12" >5</text>
<text x="249.786706" y="72.686593" fill="rgb(255,0,0)"  stroke="rgb(255,0,0)" stroke-width="1" font-size="12" >6</text>
<text x="230.607350" y="40.000000" fill="rgb(255,0,0)"  stroke="rgb(255,0,0)" stroke-width="1" font-size="12" >7</text>
<text x="192.271649" y="40.000000" fill="rgb(255,0,0)"  stroke="rgb(255,0,0)" stroke-width="1" font-size="12" >8</text>
<text x="153.924443" y="40.000000" fill="rgb(255,0,0)"  stroke="rgb(255,0,0)" stroke-width="1" font-size="12" >9</text>
<text x="134.745087" y="73.699060" fill="rgb(255,0,0)"  stroke="rgb(255,0,0)" stroke-width="1" font-size="12" >10</text>
<text x="96.847052" y="73.699060" fill="rgb(255,0,0)"  stroke="rgb(255,0,0)" stroke-width="1" font-size="12" >11</text>
<text x="77.898035" y="106.519721" fill="rgb(255,0,0)"  stroke="rgb(255,0,0)" stroke-width="1" font-size="12" >12</text>
<text x="40.000000" y="106.519721" fill="rgb(255,0,0)"  stroke="rgb(255,0,0)" stroke-width="1" font-size="12" >13</text>
<text x="96.847052" y="139.340382" fill="rgb(255,0,0)"  stroke="rgb(255,0,0)" stroke-width="1" font-size="12" >14</text>
<text x="77.898035" y="172.161043" fill="rgb(255,0,0)"  stroke="rgb(255,0,0)" stroke-width="1" font-size="12" >15</text>
<text x="153.924443" y="106.385653" fill="rgb(255,0,0)"  stroke="rgb(255,0,0)" stroke-width="1" font-size="12" >16</text>
<text x="153.924443" y="144.283688" fill="rgb(255,0,0)"  stroke="rgb(255,0,0)" stroke-width="1" font-size="12" >17</text>
<text x="186.745104" y="163.232705" fill="rgb(255,0,0)"  stroke="rgb(255,0,0)" stroke-width="1" font-size="12" >18</text>
<text x="186.745104" y="201.130740" fill="rgb(255,0,0)"  stroke="rgb(255,0,0)" stroke-width="1" font-size="12" >19</text>
<text x="219.565765" y="220.079757" fill="rgb(255,0,0)"  stroke="rgb(255,0,0)" stroke-width="1" font-size="12" >20</text>
<text x="192.271649" y="106.385653" fill="rgb(255,0,0)"  stroke="rgb(255,0,0)" stroke-width="1" font-size="12" >21</text>
<text font-size="18.000000" fill ="black" font-family="sans-serif"
x="140.000000" y="20.000000" ></text>
<title> - OBDepict</title>
</svg>
