<?xml version="1.0"?>
<svg xmlns="http://www.w3.org/2000/svg"
xmlns:xlink="http://www.w3.org/1999/xlink" xmlns:cml="http://www.xml-cml.org/schema" x="0" y="0" font-family="sans-serif" stroke="rgb(0,0,0)" stroke-width="1" viewBox="0 0 290.244 325.039" width="232.1952" height="260.0312">
<line x1="235.1" y1="115.5" x2="250.2" y2="142.0"/>
<line x1="250.2" y1="142.0" x2="229.6" y2="177.8"/>
<line x1="229.6" y1="177.8" x2="250.2" y2="213.5"/>
<line x1="250.2" y1="213.5" x2="235.0" y2="240.0"/>
<line x1="235.0" y1="258.6" x2="244.9" y2="275.7"/>
<line x1="134.4" y1="73.6" x2="96.6" y2="73.6"/>
<line x1="96.6" y1="73.6" x2="82.7" y2="97.8"/>
<line x1="67.9" y1="106.3" x2="49.8" y2="106.3"/>
<line x1="153.5" y1="106.1" x2="153.5" y2="143.9"/>
<line x1="153.5" y1="143.9" x2="120.8" y2="162.7"/>
<line x1="120.8" y1="162.7" x2="106.8" y2="186.9"/>
<line x1="120.8" y1="162.7" x2="134.7" y2="186.9"/>
<line x1="120.8" y1="162.7" x2="96.6" y2="148.8"/>
<line x1="234.8" y1="97.4" x2="244.0" y2="81.3"/>
<line x1="244.0" y1="64.1" x2="229.8" y2="40.0"/>
<line x1="236.6" y1="65.8" x2="226.7" y2="48.8"/>
<line x1="229.8" y1="40.0" x2="201.6" y2="40.0"/>
<line x1="191.7" y1="57.2" x2="191.7" y2="106.1"/>
<line x1="191.7" y1="106.1" x2="219.9" y2="106.1"/>
<line x1="148.5" y1="48.7" x2="134.4" y2="73.6"/>
<line x1="153.7" y1="54.1" x2="143.6" y2="71.9"/>
<line x1="134.4" y1="73.6" x2="153.5" y2="106.1"/>
<line x1="153.5" y1="106.1" x2="191.7" y2="106.1"/>
<line x1="181.7" y1="40.0" x2="163.4" y2="40.0"/>
<text x="226.239972" y="114.438387" fill="rgb(12,12,255)"  stroke="rgb(12,12,255)" stroke-width="1" font-size="16" >N</text>
<text x="213.999999" y="254.082765" fill="rgb(12,12,255)"  stroke="rgb(12,12,255)" stroke-width="1" font-size="16" >HN</text>
<text x="244.244154" y="289.839489" fill="rgb(102,102,102)"  stroke="rgb(102,102,102)" stroke-width="1" font-size="16" >CH</text>
<text x="268.244154" y="294.639489" fill="rgb(102,102,102)"  stroke="rgb(102,102,102)" stroke-width="1" font-size="13" >3</text>
<text x="242.942112" y="80.874998" fill="rgb(12,12,255)"  stroke="rgb(12,12,255)" stroke-width="1" font-size="16" >N</text>
<text x="185.658609" y="48.320000" fill="rgb(12,12,255)"  stroke="rgb(12,12,255)" stroke-width="1" font-size="16" >N</text>
<text x="149.865787" y="48.320000" fill="rgb(12,12,255)"  stroke="rgb(12,12,255)" stroke-width="1" font-size="16" >N</text>
<text x="71.745459" y="111.051915" fill="rgb(12,12,255)"  stroke="rgb(12,12,255)" stroke-width="1" font-size="16" >NH</text>
<text x="16.400000" y="111.051915" fill="rgb(102,102,102)"  stroke="rgb(102,102,102)" stroke-width="1" font-size="16" >H</text>
<text x="28.400000" y="115.851915" fill="rgb(102,102,102)"  stroke="rgb(102,102,102)" stroke-width="1" font-size="13" >3</text>
<text x="34.900000" y="111.051915" fill="rgb(102,102,102)"  stroke="rgb(102,102,102)" stroke-width="1" font-size="16" >C</text>
<text x="78.304532" y="200.225100" fill="rgb(102,102,102)"  stroke="rgb(102,102,102)" stroke-width="1" font-size="16" >H</text>
<text x="90.304532" y="205.025100" fill="rgb(102,102,102)"  stroke="rgb(102,102,102)" stroke-width="1" font-size="13" >3</text>
<text x="96.804532" y="200.225100" fill="rgb(102,102,102)"  stroke="rgb(102,102,102)" stroke-width="1" font-size="16" >C</text>
<text x="133.649990" y="200.225100" fill="rgb(102,102,102)"  stroke="rgb(102,102,102)" stroke-width="1" font-size="16" >CH</text>
<text x="157.649990" y="205.025100" fill="rgb(102,102,102)"  stroke="rgb(102,102,102)" stroke-width="1" font-size="13" >3</text>
<text x="72.488735" y="152.183845" fill="rgb(255,12,12)"  stroke="rgb(255,12,12)" stroke-width="1" font-size="16" >HO</text>
<text x="229.839972" y="106.118387" fill="rgb(255,0,0)"  stroke="rgb(255,0,0)" stroke-width="1" font-size="12" >1</text>
<text x="250.244154" y="142.012590" fill="rgb(255,0,0)"  stroke="rgb(255,0,0)" stroke-width="1" font-size="12" >2</text>
<text x="229.599999" y="177.769315" fill="rgb(255,0,0)"  stroke="rgb(255,0,0)" stroke-width="1" font-size="12" >3</text>
<text x="250.244154" y="213.526040" fill="rgb(255,0,0)"  stroke="rgb(255,0,0)" stroke-width="1" font-size="12" >4</text>
<text x="229.599999" y="249.282765" fill="rgb(255,0,0)"  stroke="rgb(255,0,0)" stroke-width="1" font-size="12" >5</text>
<text x="250.244154" y="285.039489" fill="rgb(255,0,0)"  stroke="rgb(255,0,0)" stroke-width="1" font-size="12" >6</text>
<text x="248.942112" y="72.554998" fill="rgb(255,0,0)"  stroke="rgb(255,0,0)" stroke-width="1" font-size="12" >7</text>
<text x="229.839972" y="40.000000" fill="rgb(255,0,0)"  stroke="rgb(255,0,0)" stroke-width="1" font-size="12" >8</text>
<text x="191.658609" y="40.000000" fill="rgb(255,0,0)"  stroke="rgb(255,0,0)" stroke-width="1" font-size="12" >9</text>
<text x="153.465787" y="40.000000" fill="rgb(255,0,0)"  stroke="rgb(255,0,0)" stroke-width="1" font-size="12" >10</text>
<text x="134.363646" y="73.563389" fill="rgb(255,0,0)"  stroke="rgb(255,0,0)" stroke-width="1" font-size="12" >11</text>
<text x="96.618188" y="73.563389" fill="rgb(255,0,0)"  stroke="rgb(255,0,0)" stroke-width="1" font-size="12" >12</text>
<text x="77.745459" y="106.251915" fill="rgb(255,0,0)"  stroke="rgb(255,0,0)" stroke-width="1" font-size="12" >13</text>
<text x="40.000000" y="106.251915" fill="rgb(255,0,0)"  stroke="rgb(255,0,0)" stroke-width="1" font-size="12" >14</text>
<text x="153.465787" y="106.118387" fill="rgb(255,0,0)"  stroke="rgb(255,0,0)" stroke-width="1" font-size="12" >15</text>
<text x="153.465787" y="143.863845" fill="rgb(255,0,0)"  stroke="rgb(255,0,0)" stroke-width="1" font-size="12" >16</text>
<text x="120.777261" y="162.736574" fill="rgb(255,0,0)"  stroke="rgb(255,0,0)" stroke-width="1" font-size="12" >17</text>
<text x="101.904532" y="195.425100" fill="rgb(255,0,0)"  stroke="rgb(255,0,0)" stroke-width="1" font-size="12" >18</text>
<text x="139.649990" y="195.425100" fill="rgb(255,0,0)"  stroke="rgb(255,0,0)" stroke-width="1" font-size="12" >19</text>
<text x="88.088735" y="143.863845" fill="rgb(255,0,0)"  stroke="rgb(255,0,0)" stroke-width="1" font-size="12" >20</text>
<text x="191.658609" y="106.118387" fill="rgb(255,0,0)"  stroke="rgb(255,0,0)" stroke-width="1" font-size="12" >21</text>
<text font-size="18.000000" fill ="black" font-family="sans-serif"
x="140.000000" y="20.000000" ></text>
<title> - OBDepict</title>
</svg>
