<?xml version="1.0"?>
<svg xmlns="http://www.w3.org/2000/svg"
xmlns:xlink="http://www.w3.org/1999/xlink" xmlns:cml="http://www.xml-cml.org/schema" width="236.446" height="258.546" x="0" y="0" font-family="sans-serif" stroke="rgb(0,0,0)" stroke-width="1" >
<line x1="181.4" y1="115.1" x2="191.2" y2="132.3"/>
<line x1="81.1" y1="73.4" x2="50.7" y2="74.2"/>
<line x1="100.1" y1="105.8" x2="100.1" y2="143.4"/>
<line x1="100.1" y1="143.4" x2="132.6" y2="162.2"/>
<line x1="132.6" y1="162.2" x2="132.6" y2="199.8"/>
<line x1="134.1" y1="202.4" x2="110.1" y2="216.3"/>
<line x1="131.1" y1="197.2" x2="107.1" y2="211.1"/>
<line x1="132.6" y1="199.8" x2="156.7" y2="213.7"/>
<line x1="181.1" y1="97.1" x2="190.2" y2="81.1"/>
<line x1="190.2" y1="64.0" x2="176.1" y2="40.0"/>
<line x1="182.9" y1="65.7" x2="173.0" y2="48.8"/>
<line x1="176.1" y1="40.0" x2="148.0" y2="40.0"/>
<line x1="138.1" y1="57.1" x2="138.1" y2="105.8"/>
<line x1="138.1" y1="105.8" x2="166.3" y2="105.8"/>
<line x1="95.2" y1="48.7" x2="81.1" y2="73.4"/>
<line x1="100.4" y1="54.1" x2="90.3" y2="71.8"/>
<line x1="81.1" y1="73.4" x2="100.1" y2="105.8"/>
<line x1="100.1" y1="105.8" x2="138.1" y2="105.8"/>
<line x1="128.2" y1="40.0" x2="110.0" y2="40.0"/>
<text x="172.533681" y="114.140273" fill="rgb(12,12,255)"  stroke="rgb(12,12,255)" stroke-width="1" font-size="16" >N</text>
<text x="190.445865" y="146.352637" fill="rgb(124,127,175)"  stroke="rgb(124,127,175)" stroke-width="1" font-size="16" >R</text>
<text x="189.149694" y="80.728214" fill="rgb(12,12,255)"  stroke="rgb(12,12,255)" stroke-width="1" font-size="16" >N</text>
<text x="132.124470" y="48.320000" fill="rgb(12,12,255)"  stroke="rgb(12,12,255)" stroke-width="1" font-size="16" >N</text>
<text x="96.503852" y="48.320000" fill="rgb(12,12,255)"  stroke="rgb(12,12,255)" stroke-width="1" font-size="16" >N</text>
<text x="24.400000" y="79.296561" fill="rgb(124,127,175)"  stroke="rgb(124,127,175)" stroke-width="1" font-size="16" >R</text>
<text x="96.503852" y="223.346089" fill="rgb(255,12,12)"  stroke="rgb(255,12,12)" stroke-width="1" font-size="16" >O</text>
<text x="159.186132" y="223.346089" fill="rgb(102,102,102)"  stroke="rgb(102,102,102)" stroke-width="1" font-size="16" >CH</text>
<text x="183.186132" y="228.146089" fill="rgb(102,102,102)"  stroke="rgb(102,102,102)" stroke-width="1" font-size="13" >3</text>
<text x="176.133681" y="105.820273" fill="rgb(255,0,0)"  stroke="rgb(255,0,0)" stroke-width="1" font-size="12" >1</text>
<text x="196.445865" y="141.552637" fill="rgb(255,0,0)"  stroke="rgb(255,0,0)" stroke-width="1" font-size="12" >2</text>
<text x="195.149694" y="72.408214" fill="rgb(255,0,0)"  stroke="rgb(255,0,0)" stroke-width="1" font-size="12" >3</text>
<text x="176.133681" y="40.000000" fill="rgb(255,0,0)"  stroke="rgb(255,0,0)" stroke-width="1" font-size="12" >4</text>
<text x="138.124470" y="40.000000" fill="rgb(255,0,0)"  stroke="rgb(255,0,0)" stroke-width="1" font-size="12" >5</text>
<text x="100.103852" y="40.000000" fill="rgb(255,0,0)"  stroke="rgb(255,0,0)" stroke-width="1" font-size="12" >6</text>
<text x="81.087839" y="73.412059" fill="rgb(255,0,0)"  stroke="rgb(255,0,0)" stroke-width="1" font-size="12" >7</text>
<text x="40.000000" y="74.496561" fill="rgb(255,0,0)"  stroke="rgb(255,0,0)" stroke-width="1" font-size="12" >8</text>
<text x="100.103852" y="105.820273" fill="rgb(255,0,0)"  stroke="rgb(255,0,0)" stroke-width="1" font-size="12" >9</text>
<text x="100.103852" y="143.395545" fill="rgb(255,0,0)"  stroke="rgb(255,0,0)" stroke-width="1" font-size="12" >10</text>
<text x="132.644992" y="162.183181" fill="rgb(255,0,0)"  stroke="rgb(255,0,0)" stroke-width="1" font-size="12" >11</text>
<text x="132.644992" y="199.758453" fill="rgb(255,0,0)"  stroke="rgb(255,0,0)" stroke-width="1" font-size="12" >12</text>
<text x="100.103852" y="218.546089" fill="rgb(255,0,0)"  stroke="rgb(255,0,0)" stroke-width="1" font-size="12" >13</text>
<text x="165.186132" y="218.546089" fill="rgb(255,0,0)"  stroke="rgb(255,0,0)" stroke-width="1" font-size="12" >14</text>
<text x="138.124470" y="105.820273" fill="rgb(255,0,0)"  stroke="rgb(255,0,0)" stroke-width="1" font-size="12" >15</text>
<text font-size="18.000000" fill ="black" font-family="sans-serif"
x="140.000000" y="20.000000" ></text>
<title> - OBDepict</title>
</svg>
