<?xml version="1.0"?>
<svg xmlns="http://www.w3.org/2000/svg"
xmlns:xlink="http://www.w3.org/1999/xlink" xmlns:cml="http://www.xml-cml.org/schema" x="0" y="0" font-family="sans-serif" stroke="rgb(0,0,0)" stroke-width="1" viewBox="0 0 330.123 288.11" width="264.0984" height="230.488">
<line x1="234.1" y1="115.0" x2="249.1" y2="141.4"/>
<line x1="249.1" y1="141.4" x2="233.9" y2="167.8"/>
<line x1="233.9" y1="186.2" x2="249.1" y2="212.6"/>
<line x1="249.1" y1="212.6" x2="233.9" y2="238.9"/>
<line x1="249.1" y1="212.6" x2="279.4" y2="212.6"/>
<line x1="133.8" y1="73.4" x2="96.3" y2="73.4"/>
<line x1="96.3" y1="73.4" x2="82.4" y2="97.4"/>
<line x1="67.8" y1="105.9" x2="49.8" y2="105.9"/>
<line x1="152.8" y1="105.7" x2="152.8" y2="143.3"/>
<line x1="152.8" y1="143.3" x2="176.9" y2="157.2"/>
<line x1="185.3" y1="171.8" x2="185.3" y2="189.8"/>
<line x1="233.7" y1="97.1" x2="242.8" y2="81.1"/>
<line x1="242.8" y1="64.0" x2="228.8" y2="40.0"/>
<line x1="235.5" y1="65.7" x2="225.6" y2="48.8"/>
<line x1="228.8" y1="40.0" x2="200.7" y2="40.0"/>
<line x1="190.8" y1="57.1" x2="190.8" y2="105.7"/>
<line x1="190.8" y1="105.7" x2="218.9" y2="105.7"/>
<line x1="147.9" y1="48.7" x2="133.8" y2="73.4"/>
<line x1="153.1" y1="54.1" x2="143.1" y2="71.7"/>
<line x1="133.8" y1="73.4" x2="152.8" y2="105.7"/>
<line x1="152.8" y1="105.7" x2="190.8" y2="105.7"/>
<line x1="180.9" y1="40.0" x2="162.7" y2="40.0"/>
<text x="225.175963" y="114.067809" fill="rgb(12,12,255)"  stroke="rgb(12,12,255)" stroke-width="1" font-size="16" >N</text>
<text x="224.937336" y="181.797151" fill="rgb(255,12,12)"  stroke="rgb(255,12,12)" stroke-width="1" font-size="16" >O</text>
<text x="204.937336" y="252.909784" fill="rgb(102,102,102)"  stroke="rgb(102,102,102)" stroke-width="1" font-size="16" >H</text>
<text x="216.937336" y="257.709784" fill="rgb(102,102,102)"  stroke="rgb(102,102,102)" stroke-width="1" font-size="13" >3</text>
<text x="223.437336" y="252.909784" fill="rgb(102,102,102)"  stroke="rgb(102,102,102)" stroke-width="1" font-size="16" >C</text>
<text x="284.122683" y="217.353467" fill="rgb(102,102,102)"  stroke="rgb(102,102,102)" stroke-width="1" font-size="16" >CH</text>
<text x="308.122683" y="222.153467" fill="rgb(102,102,102)"  stroke="rgb(102,102,102)" stroke-width="1" font-size="13" >3</text>
<text x="241.771041" y="80.692535" fill="rgb(12,12,255)"  stroke="rgb(12,12,255)" stroke-width="1" font-size="16" >N</text>
<text x="184.808598" y="48.320000" fill="rgb(12,12,255)"  stroke="rgb(12,12,255)" stroke-width="1" font-size="16" >N</text>
<text x="149.229838" y="48.320000" fill="rgb(12,12,255)"  stroke="rgb(12,12,255)" stroke-width="1" font-size="16" >N</text>
<text x="71.533904" y="110.680589" fill="rgb(12,12,255)"  stroke="rgb(12,12,255)" stroke-width="1" font-size="16" >NH</text>
<text x="16.400000" y="110.680589" fill="rgb(102,102,102)"  stroke="rgb(102,102,102)" stroke-width="1" font-size="16" >H</text>
<text x="28.400000" y="115.480589" fill="rgb(102,102,102)"  stroke="rgb(102,102,102)" stroke-width="1" font-size="13" >3</text>
<text x="34.900000" y="110.680589" fill="rgb(102,102,102)"  stroke="rgb(102,102,102)" stroke-width="1" font-size="16" >C</text>
<text x="179.335152" y="170.368665" fill="rgb(12,12,255)"  stroke="rgb(12,12,255)" stroke-width="1" font-size="16" >NH</text>
<text x="179.335152" y="204.382569" fill="rgb(102,102,102)"  stroke="rgb(102,102,102)" stroke-width="1" font-size="16" >CH</text>
<text x="203.335152" y="209.182569" fill="rgb(102,102,102)"  stroke="rgb(102,102,102)" stroke-width="1" font-size="13" >3</text>
<text x="228.775963" y="105.747809" fill="rgb(255,0,0)"  stroke="rgb(255,0,0)" stroke-width="1" font-size="12" >1</text>
<text x="249.065785" y="141.440834" fill="rgb(255,0,0)"  stroke="rgb(255,0,0)" stroke-width="1" font-size="12" >2</text>
<text x="228.537336" y="176.997151" fill="rgb(255,0,0)"  stroke="rgb(255,0,0)" stroke-width="1" font-size="12" >3</text>
<text x="249.065785" y="212.553467" fill="rgb(255,0,0)"  stroke="rgb(255,0,0)" stroke-width="1" font-size="12" >4</text>
<text x="228.537336" y="248.109784" fill="rgb(255,0,0)"  stroke="rgb(255,0,0)" stroke-width="1" font-size="12" >5</text>
<text x="290.122683" y="212.553467" fill="rgb(255,0,0)"  stroke="rgb(255,0,0)" stroke-width="1" font-size="12" >6</text>
<text x="247.771041" y="72.372535" fill="rgb(255,0,0)"  stroke="rgb(255,0,0)" stroke-width="1" font-size="12" >7</text>
<text x="228.775963" y="40.000000" fill="rgb(255,0,0)"  stroke="rgb(255,0,0)" stroke-width="1" font-size="12" >8</text>
<text x="190.808598" y="40.000000" fill="rgb(255,0,0)"  stroke="rgb(255,0,0)" stroke-width="1" font-size="12" >9</text>
<text x="152.829838" y="40.000000" fill="rgb(255,0,0)"  stroke="rgb(255,0,0)" stroke-width="1" font-size="12" >10</text>
<text x="133.834760" y="73.375274" fill="rgb(255,0,0)"  stroke="rgb(255,0,0)" stroke-width="1" font-size="12" >11</text>
<text x="96.300856" y="73.375274" fill="rgb(255,0,0)"  stroke="rgb(255,0,0)" stroke-width="1" font-size="12" >12</text>
<text x="77.533904" y="105.880589" fill="rgb(255,0,0)"  stroke="rgb(255,0,0)" stroke-width="1" font-size="12" >13</text>
<text x="40.000000" y="105.880589" fill="rgb(255,0,0)"  stroke="rgb(255,0,0)" stroke-width="1" font-size="12" >14</text>
<text x="152.829838" y="105.747809" fill="rgb(255,0,0)"  stroke="rgb(255,0,0)" stroke-width="1" font-size="12" >15</text>
<text x="152.829838" y="143.281713" fill="rgb(255,0,0)"  stroke="rgb(255,0,0)" stroke-width="1" font-size="12" >16</text>
<text x="185.335152" y="162.048665" fill="rgb(255,0,0)"  stroke="rgb(255,0,0)" stroke-width="1" font-size="12" >17</text>
<text x="185.335152" y="199.582569" fill="rgb(255,0,0)"  stroke="rgb(255,0,0)" stroke-width="1" font-size="12" >18</text>
<text x="190.808598" y="105.747809" fill="rgb(255,0,0)"  stroke="rgb(255,0,0)" stroke-width="1" font-size="12" >19</text>
<text font-size="18.000000" fill ="black" font-family="sans-serif"
x="140.000000" y="20.000000" ></text>
<title> - OBDepict</title>
</svg>
