<?xml version="1.0"?>
<svg xmlns="http://www.w3.org/2000/svg"
xmlns:xlink="http://www.w3.org/1999/xlink" xmlns:cml="http://www.xml-cml.org/schema" width="306.597" height="357.708" x="0" y="0" font-family="sans-serif" stroke="rgb(0,0,0)" stroke-width="1" >
<line x1="251.7" y1="114.6" x2="266.6" y2="140.9"/>
<line x1="266.6" y1="140.9" x2="246.2" y2="176.3"/>
<line x1="246.2" y1="176.3" x2="266.6" y2="211.6"/>
<line x1="266.6" y1="211.6" x2="246.2" y2="247.0"/>
<line x1="246.2" y1="247.0" x2="261.3" y2="273.2"/>
<line x1="261.3" y1="291.5" x2="251.5" y2="308.5"/>
<line x1="152.0" y1="73.2" x2="124.4" y2="73.2"/>
<line x1="109.8" y1="81.6" x2="96.0" y2="105.5"/>
<line x1="96.0" y1="105.5" x2="58.7" y2="105.5"/>
<line x1="58.7" y1="105.5" x2="44.9" y2="81.6"/>
<line x1="58.7" y1="105.5" x2="44.9" y2="129.4"/>
<line x1="170.9" y1="105.4" x2="155.6" y2="131.5"/>
<line x1="251.3" y1="96.8" x2="260.4" y2="80.8"/>
<line x1="260.4" y1="63.8" x2="246.4" y2="40.0"/>
<line x1="253.0" y1="65.5" x2="243.2" y2="48.8"/>
<line x1="246.4" y1="40.0" x2="218.5" y2="40.0"/>
<line x1="208.7" y1="57.0" x2="208.7" y2="105.4"/>
<line x1="208.7" y1="105.4" x2="236.6" y2="105.4"/>
<line x1="166.0" y1="48.6" x2="152.0" y2="73.2"/>
<line x1="171.2" y1="54.1" x2="161.2" y2="71.5"/>
<line x1="152.0" y1="73.2" x2="170.9" y2="105.4"/>
<line x1="170.9" y1="105.4" x2="208.7" y2="105.4"/>
<line x1="198.8" y1="40.0" x2="180.7" y2="40.0"/>
<text x="242.817475" y="113.711279" fill="rgb(12,12,255)"  stroke="rgb(12,12,255)" stroke-width="1" font-size="16" >N</text>
<text x="260.597271" y="287.144776" fill="rgb(12,12,255)"  stroke="rgb(12,12,255)" stroke-width="1" font-size="16" >NH</text>
<text x="222.580142" y="322.508282" fill="rgb(102,102,102)"  stroke="rgb(102,102,102)" stroke-width="1" font-size="16" >H</text>
<text x="234.580142" y="327.308282" fill="rgb(102,102,102)"  stroke="rgb(102,102,102)" stroke-width="1" font-size="13" >3</text>
<text x="241.080142" y="322.508282" fill="rgb(102,102,102)"  stroke="rgb(102,102,102)" stroke-width="1" font-size="16" >C</text>
<text x="259.309548" y="80.516988" fill="rgb(12,12,255)"  stroke="rgb(12,12,255)" stroke-width="1" font-size="16" >N</text>
<text x="202.655995" y="48.320000" fill="rgb(12,12,255)"  stroke="rgb(12,12,255)" stroke-width="1" font-size="16" >N</text>
<text x="167.283182" y="48.320000" fill="rgb(12,12,255)"  stroke="rgb(12,12,255)" stroke-width="1" font-size="16" >N</text>
<text x="99.060739" y="81.514290" fill="rgb(12,12,255)"  stroke="rgb(12,12,255)" stroke-width="1" font-size="16" >HN</text>
<text x="24.400000" y="81.514290" fill="rgb(255,12,12)"  stroke="rgb(255,12,12)" stroke-width="1" font-size="16" >HO</text>
<text x="16.400000" y="142.652387" fill="rgb(102,102,102)"  stroke="rgb(102,102,102)" stroke-width="1" font-size="16" >H</text>
<text x="28.400000" y="147.452387" fill="rgb(102,102,102)"  stroke="rgb(102,102,102)" stroke-width="1" font-size="13" >3</text>
<text x="34.900000" y="142.652387" fill="rgb(102,102,102)"  stroke="rgb(102,102,102)" stroke-width="1" font-size="16" >C</text>
<text x="134.627091" y="145.415740" fill="rgb(124,127,175)"  stroke="rgb(124,127,175)" stroke-width="1" font-size="16" >R</text>
<text x="246.417475" y="105.391279" fill="rgb(255,0,0)"  stroke="rgb(255,0,0)" stroke-width="1" font-size="12" >1</text>
<text x="266.597271" y="140.890752" fill="rgb(255,0,0)"  stroke="rgb(255,0,0)" stroke-width="1" font-size="12" >2</text>
<text x="246.180142" y="176.254258" fill="rgb(255,0,0)"  stroke="rgb(255,0,0)" stroke-width="1" font-size="12" >3</text>
<text x="266.597271" y="211.617764" fill="rgb(255,0,0)"  stroke="rgb(255,0,0)" stroke-width="1" font-size="12" >4</text>
<text x="246.180142" y="246.981270" fill="rgb(255,0,0)"  stroke="rgb(255,0,0)" stroke-width="1" font-size="12" >5</text>
<text x="266.597271" y="282.344776" fill="rgb(255,0,0)"  stroke="rgb(255,0,0)" stroke-width="1" font-size="12" >6</text>
<text x="246.180142" y="317.708282" fill="rgb(255,0,0)"  stroke="rgb(255,0,0)" stroke-width="1" font-size="12" >7</text>
<text x="265.309548" y="72.196988" fill="rgb(255,0,0)"  stroke="rgb(255,0,0)" stroke-width="1" font-size="12" >8</text>
<text x="246.417475" y="40.000000" fill="rgb(255,0,0)"  stroke="rgb(255,0,0)" stroke-width="1" font-size="12" >9</text>
<text x="208.655995" y="40.000000" fill="rgb(255,0,0)"  stroke="rgb(255,0,0)" stroke-width="1" font-size="12" >10</text>
<text x="170.883182" y="40.000000" fill="rgb(255,0,0)"  stroke="rgb(255,0,0)" stroke-width="1" font-size="12" >11</text>
<text x="151.991109" y="73.194290" fill="rgb(255,0,0)"  stroke="rgb(255,0,0)" stroke-width="1" font-size="12" >12</text>
<text x="114.660739" y="73.194290" fill="rgb(255,0,0)"  stroke="rgb(255,0,0)" stroke-width="1" font-size="12" >13</text>
<text x="95.995554" y="105.523339" fill="rgb(255,0,0)"  stroke="rgb(255,0,0)" stroke-width="1" font-size="12" >14</text>
<text x="58.665185" y="105.523339" fill="rgb(255,0,0)"  stroke="rgb(255,0,0)" stroke-width="1" font-size="12" >15</text>
<text x="40.000000" y="73.194290" fill="rgb(255,0,0)"  stroke="rgb(255,0,0)" stroke-width="1" font-size="12" >16</text>
<text x="40.000000" y="137.852387" fill="rgb(255,0,0)"  stroke="rgb(255,0,0)" stroke-width="1" font-size="12" >17</text>
<text x="170.883182" y="105.391279" fill="rgb(255,0,0)"  stroke="rgb(255,0,0)" stroke-width="1" font-size="12" >18</text>
<text x="150.227091" y="140.615740" fill="rgb(255,0,0)"  stroke="rgb(255,0,0)" stroke-width="1" font-size="12" >19</text>
<text x="208.655995" y="105.391279" fill="rgb(255,0,0)"  stroke="rgb(255,0,0)" stroke-width="1" font-size="12" >20</text>
<text font-size="18.000000" fill ="black" font-family="sans-serif"
x="140.000000" y="20.000000" ></text>
<title> - OBDepict</title>
</svg>
