<?xml version="1.0"?>
<svg xmlns="http://www.w3.org/2000/svg"
xmlns:xlink="http://www.w3.org/1999/xlink" xmlns:cml="http://www.xml-cml.org/schema" width="235.816" height="239.115" x="0" y="0" font-family="sans-serif" stroke="rgb(0,0,0)" stroke-width="1" >
<line x1="180.8" y1="114.8" x2="190.6" y2="131.9"/>
<line x1="80.9" y1="73.3" x2="50.6" y2="74.1"/>
<line x1="99.9" y1="105.6" x2="99.9" y2="143.0"/>
<line x1="99.9" y1="143.0" x2="75.9" y2="156.8"/>
<line x1="99.9" y1="143.0" x2="132.3" y2="161.7"/>
<line x1="132.3" y1="161.7" x2="132.3" y2="189.4"/>
<line x1="180.5" y1="96.9" x2="189.6" y2="80.9"/>
<line x1="189.6" y1="63.9" x2="175.6" y2="40.0"/>
<line x1="182.2" y1="65.6" x2="172.4" y2="48.8"/>
<line x1="175.6" y1="40.0" x2="147.6" y2="40.0"/>
<line x1="137.7" y1="57.0" x2="137.7" y2="105.6"/>
<line x1="137.7" y1="105.6" x2="165.7" y2="105.6"/>
<line x1="94.9" y1="48.7" x2="80.9" y2="73.3"/>
<line x1="100.1" y1="54.1" x2="90.1" y2="71.6"/>
<line x1="80.9" y1="73.3" x2="99.9" y2="105.6"/>
<line x1="99.9" y1="105.6" x2="137.7" y2="105.6"/>
<line x1="127.9" y1="40.0" x2="109.7" y2="40.0"/>
<text x="171.985750" y="113.875349" fill="rgb(12,12,255)"  stroke="rgb(12,12,255)" stroke-width="1" font-size="16" >N</text>
<text x="189.816179" y="145.943893" fill="rgb(124,127,175)"  stroke="rgb(124,127,175)" stroke-width="1" font-size="16" >R</text>
<text x="188.525225" y="80.597773" fill="rgb(12,12,255)"  stroke="rgb(12,12,255)" stroke-width="1" font-size="16" >N</text>
<text x="131.729524" y="48.320000" fill="rgb(12,12,255)"  stroke="rgb(12,12,255)" stroke-width="1" font-size="16" >N</text>
<text x="96.261937" y="48.320000" fill="rgb(12,12,255)"  stroke="rgb(12,12,255)" stroke-width="1" font-size="16" >N</text>
<text x="24.400000" y="79.157714" fill="rgb(124,127,175)"  stroke="rgb(124,127,175)" stroke-width="1" font-size="16" >R</text>
<text x="51.851773" y="166.491400" fill="rgb(255,12,12)"  stroke="rgb(255,12,12)" stroke-width="1" font-size="16" >HO</text>
<text x="126.272101" y="203.915433" fill="rgb(102,102,102)"  stroke="rgb(102,102,102)" stroke-width="1" font-size="16" >CH</text>
<text x="150.272101" y="208.715433" fill="rgb(102,102,102)"  stroke="rgb(102,102,102)" stroke-width="1" font-size="13" >3</text>
<text x="175.585750" y="105.555349" fill="rgb(255,0,0)"  stroke="rgb(255,0,0)" stroke-width="1" font-size="12" >1</text>
<text x="195.816179" y="141.143893" fill="rgb(255,0,0)"  stroke="rgb(255,0,0)" stroke-width="1" font-size="12" >2</text>
<text x="194.525225" y="72.277773" fill="rgb(255,0,0)"  stroke="rgb(255,0,0)" stroke-width="1" font-size="12" >3</text>
<text x="175.585750" y="40.000000" fill="rgb(255,0,0)"  stroke="rgb(255,0,0)" stroke-width="1" font-size="12" >4</text>
<text x="137.729524" y="40.000000" fill="rgb(255,0,0)"  stroke="rgb(255,0,0)" stroke-width="1" font-size="12" >5</text>
<text x="99.861937" y="40.000000" fill="rgb(255,0,0)"  stroke="rgb(255,0,0)" stroke-width="1" font-size="12" >6</text>
<text x="80.922463" y="73.277577" fill="rgb(255,0,0)"  stroke="rgb(255,0,0)" stroke-width="1" font-size="12" >7</text>
<text x="40.000000" y="74.357714" fill="rgb(255,0,0)"  stroke="rgb(255,0,0)" stroke-width="1" font-size="12" >8</text>
<text x="99.861937" y="105.555349" fill="rgb(255,0,0)"  stroke="rgb(255,0,0)" stroke-width="1" font-size="12" >9</text>
<text x="99.861937" y="142.979383" fill="rgb(255,0,0)"  stroke="rgb(255,0,0)" stroke-width="1" font-size="12" >10</text>
<text x="67.451773" y="161.691400" fill="rgb(255,0,0)"  stroke="rgb(255,0,0)" stroke-width="1" font-size="12" >11</text>
<text x="132.272101" y="161.691400" fill="rgb(255,0,0)"  stroke="rgb(255,0,0)" stroke-width="1" font-size="12" >12</text>
<text x="132.272101" y="199.115433" fill="rgb(255,0,0)"  stroke="rgb(255,0,0)" stroke-width="1" font-size="12" >13</text>
<text x="137.729524" y="105.555349" fill="rgb(255,0,0)"  stroke="rgb(255,0,0)" stroke-width="1" font-size="12" >14</text>
<text font-size="18.000000" fill ="black" font-family="sans-serif"
x="140.000000" y="20.000000" ></text>
<title> - OBDepict</title>
</svg>
