<?xml version="1.0"?>
<svg xmlns="http://www.w3.org/2000/svg"
xmlns:xlink="http://www.w3.org/1999/xlink" xmlns:cml="http://www.xml-cml.org/schema" width="474.568" height="316.735" x="0" y="0" font-family="sans-serif" stroke="rgb(0,0,0)" stroke-width="1" >
<line x1="254.7" y1="115.7" x2="269.9" y2="142.3"/>
<line x1="269.9" y1="142.3" x2="311.3" y2="142.9"/>
<line x1="311.3" y1="142.9" x2="331.5" y2="179.0"/>
<line x1="331.5" y1="179.0" x2="372.9" y2="179.6"/>
<line x1="372.9" y1="179.6" x2="387.9" y2="206.3"/>
<line x1="403.9" y1="215.9" x2="423.8" y2="216.2"/>
<line x1="153.6" y1="73.7" x2="125.6" y2="73.7"/>
<line x1="110.8" y1="82.2" x2="96.8" y2="106.5"/>
<line x1="96.8" y1="106.5" x2="58.9" y2="106.5"/>
<line x1="58.9" y1="106.5" x2="44.9" y2="130.7"/>
<line x1="172.8" y1="106.3" x2="172.8" y2="144.2"/>
<line x1="172.8" y1="144.2" x2="205.6" y2="163.1"/>
<line x1="205.6" y1="163.1" x2="205.6" y2="201.0"/>
<line x1="205.6" y1="201.0" x2="238.4" y2="219.9"/>
<line x1="238.4" y1="219.9" x2="238.4" y2="248.0"/>
<line x1="246.9" y1="262.7" x2="262.6" y2="271.8"/>
<line x1="254.4" y1="97.6" x2="263.6" y2="81.4"/>
<line x1="263.6" y1="64.2" x2="249.4" y2="40.0"/>
<line x1="256.2" y1="65.9" x2="246.2" y2="48.8"/>
<line x1="249.4" y1="40.0" x2="221.0" y2="40.0"/>
<line x1="211.1" y1="57.2" x2="211.1" y2="106.3"/>
<line x1="211.1" y1="106.3" x2="239.4" y2="106.3"/>
<line x1="167.8" y1="48.8" x2="153.6" y2="73.7"/>
<line x1="173.0" y1="54.2" x2="162.8" y2="72.0"/>
<line x1="153.6" y1="73.7" x2="172.8" y2="106.3"/>
<line x1="172.8" y1="106.3" x2="211.1" y2="106.3"/>
<line x1="201.1" y1="40.0" x2="182.7" y2="40.0"/>
<text x="245.787089" y="114.652027" fill="rgb(12,12,255)"  stroke="rgb(12,12,255)" stroke-width="1" font-size="16" >N</text>
<text x="377.550096" y="220.544991" fill="rgb(12,12,255)"  stroke="rgb(12,12,255)" stroke-width="1" font-size="16" >HN</text>
<text x="428.568098" y="221.099890" fill="rgb(102,102,102)"  stroke="rgb(102,102,102)" stroke-width="1" font-size="16" >CH</text>
<text x="452.568098" y="225.899890" fill="rgb(102,102,102)"  stroke="rgb(102,102,102)" stroke-width="1" font-size="13" >3</text>
<text x="262.550952" y="80.980189" fill="rgb(12,12,255)"  stroke="rgb(12,12,255)" stroke-width="1" font-size="16" >N</text>
<text x="205.082355" y="48.320000" fill="rgb(12,12,255)"  stroke="rgb(12,12,255)" stroke-width="1" font-size="16" >N</text>
<text x="169.166126" y="48.320000" fill="rgb(12,12,255)"  stroke="rgb(12,12,255)" stroke-width="1" font-size="16" >N</text>
<text x="100.134842" y="81.991838" fill="rgb(12,12,255)"  stroke="rgb(12,12,255)" stroke-width="1" font-size="16" >HN</text>
<text x="24.400000" y="144.060135" fill="rgb(255,12,12)"  stroke="rgb(255,12,12)" stroke-width="1" font-size="16" >HO</text>
<text x="222.754423" y="262.601711" fill="rgb(12,12,255)"  stroke="rgb(12,12,255)" stroke-width="1" font-size="16" >HN</text>
<text x="265.148571" y="281.535421" fill="rgb(102,102,102)"  stroke="rgb(102,102,102)" stroke-width="1" font-size="16" >CH</text>
<text x="289.148571" y="286.335421" fill="rgb(102,102,102)"  stroke="rgb(102,102,102)" stroke-width="1" font-size="13" >3</text>
<text x="249.387089" y="106.332027" fill="rgb(255,0,0)"  stroke="rgb(255,0,0)" stroke-width="1" font-size="12" >1</text>
<text x="269.857201" y="142.342211" fill="rgb(255,0,0)"  stroke="rgb(255,0,0)" stroke-width="1" font-size="12" >2</text>
<text x="311.275203" y="142.897110" fill="rgb(255,0,0)"  stroke="rgb(255,0,0)" stroke-width="1" font-size="12" >3</text>
<text x="331.503648" y="179.043601" fill="rgb(255,0,0)"  stroke="rgb(255,0,0)" stroke-width="1" font-size="12" >4</text>
<text x="372.921651" y="179.598500" fill="rgb(255,0,0)"  stroke="rgb(255,0,0)" stroke-width="1" font-size="12" >5</text>
<text x="393.150096" y="215.744991" fill="rgb(255,0,0)"  stroke="rgb(255,0,0)" stroke-width="1" font-size="12" >6</text>
<text x="434.568098" y="216.299890" fill="rgb(255,0,0)"  stroke="rgb(255,0,0)" stroke-width="1" font-size="12" >7</text>
<text x="268.550952" y="72.660189" fill="rgb(255,0,0)"  stroke="rgb(255,0,0)" stroke-width="1" font-size="12" >8</text>
<text x="249.387089" y="40.000000" fill="rgb(255,0,0)"  stroke="rgb(255,0,0)" stroke-width="1" font-size="12" >9</text>
<text x="211.082355" y="40.000000" fill="rgb(255,0,0)"  stroke="rgb(255,0,0)" stroke-width="1" font-size="12" >10</text>
<text x="172.766126" y="40.000000" fill="rgb(255,0,0)"  stroke="rgb(255,0,0)" stroke-width="1" font-size="12" >11</text>
<text x="153.602263" y="73.671838" fill="rgb(255,0,0)"  stroke="rgb(255,0,0)" stroke-width="1" font-size="12" >12</text>
<text x="115.734842" y="73.671838" fill="rgb(255,0,0)"  stroke="rgb(255,0,0)" stroke-width="1" font-size="12" >13</text>
<text x="96.801131" y="106.465987" fill="rgb(255,0,0)"  stroke="rgb(255,0,0)" stroke-width="1" font-size="12" >14</text>
<text x="58.933710" y="106.465987" fill="rgb(255,0,0)"  stroke="rgb(255,0,0)" stroke-width="1" font-size="12" >15</text>
<text x="40.000000" y="139.260135" fill="rgb(255,0,0)"  stroke="rgb(255,0,0)" stroke-width="1" font-size="12" >16</text>
<text x="172.766126" y="106.332027" fill="rgb(255,0,0)"  stroke="rgb(255,0,0)" stroke-width="1" font-size="12" >17</text>
<text x="172.766126" y="144.199448" fill="rgb(255,0,0)"  stroke="rgb(255,0,0)" stroke-width="1" font-size="12" >18</text>
<text x="205.560274" y="163.133158" fill="rgb(255,0,0)"  stroke="rgb(255,0,0)" stroke-width="1" font-size="12" >19</text>
<text x="205.560274" y="201.000579" fill="rgb(255,0,0)"  stroke="rgb(255,0,0)" stroke-width="1" font-size="12" >20</text>
<text x="238.354423" y="219.934290" fill="rgb(255,0,0)"  stroke="rgb(255,0,0)" stroke-width="1" font-size="12" >21</text>
<text x="238.354423" y="257.801711" fill="rgb(255,0,0)"  stroke="rgb(255,0,0)" stroke-width="1" font-size="12" >22</text>
<text x="271.148571" y="276.735421" fill="rgb(255,0,0)"  stroke="rgb(255,0,0)" stroke-width="1" font-size="12" >23</text>
<text x="211.082355" y="106.332027" fill="rgb(255,0,0)"  stroke="rgb(255,0,0)" stroke-width="1" font-size="12" >24</text>
<text font-size="18.000000" fill ="black" font-family="sans-serif"
x="140.000000" y="20.000000" ></text>
<title> - OBDepict</title>
</svg>
