<?xml version="1.0"?>
<svg xmlns="http://www.w3.org/2000/svg"
xmlns:xlink="http://www.w3.org/1999/xlink" xmlns:cml="http://www.xml-cml.org/schema" x="0" y="0" font-family="sans-serif" stroke="rgb(0,0,0)" stroke-width="1" viewBox="0 0 368.548 242.062" width="294.8384" height="193.6496">
<line x1="313.3" y1="116.2" x2="323.2" y2="133.6"/>
<line x1="211.5" y1="73.9" x2="173.4" y2="73.9"/>
<line x1="173.4" y1="73.9" x2="154.4" y2="106.9"/>
<line x1="154.4" y1="106.9" x2="116.2" y2="106.9"/>
<line x1="116.2" y1="106.9" x2="97.2" y2="139.9"/>
<line x1="97.2" y1="139.9" x2="69.0" y2="139.9"/>
<line x1="54.1" y1="148.5" x2="45.0" y2="164.3"/>
<line x1="230.8" y1="106.8" x2="230.8" y2="144.9"/>
<line x1="230.8" y1="144.9" x2="255.2" y2="159.0"/>
<line x1="263.8" y1="173.9" x2="263.8" y2="192.2"/>
<line x1="313.0" y1="98.0" x2="322.2" y2="81.7"/>
<line x1="322.2" y1="64.3" x2="307.9" y2="40.0"/>
<line x1="314.9" y1="66.1" x2="304.8" y2="48.8"/>
<line x1="307.9" y1="40.0" x2="279.4" y2="40.0"/>
<line x1="269.4" y1="57.4" x2="269.4" y2="106.8"/>
<line x1="269.4" y1="106.8" x2="297.9" y2="106.8"/>
<line x1="225.8" y1="48.8" x2="211.5" y2="73.9"/>
<line x1="231.0" y1="54.2" x2="220.8" y2="72.2"/>
<line x1="211.5" y1="73.9" x2="230.8" y2="106.8"/>
<line x1="230.8" y1="106.8" x2="269.4" y2="106.8"/>
<line x1="259.4" y1="40.0" x2="240.8" y2="40.0"/>
<text x="304.342545" y="115.089191" fill="rgb(12,12,255)"  stroke="rgb(12,12,255)" stroke-width="1" font-size="16" >N</text>
<text x="322.547566" y="147.816702" fill="rgb(124,127,175)"  stroke="rgb(124,127,175)" stroke-width="1" font-size="16" >R</text>
<text x="321.232709" y="81.195437" fill="rgb(12,12,255)"  stroke="rgb(12,12,255)" stroke-width="1" font-size="16" >N</text>
<text x="263.385363" y="48.320000" fill="rgb(12,12,255)"  stroke="rgb(12,12,255)" stroke-width="1" font-size="16" >N</text>
<text x="227.216608" y="48.320000" fill="rgb(12,12,255)"  stroke="rgb(12,12,255)" stroke-width="1" font-size="16" >N</text>
<text x="43.458494" y="148.234313" fill="rgb(12,12,255)"  stroke="rgb(12,12,255)" stroke-width="1" font-size="16" >HN</text>
<text x="16.400000" y="177.724593" fill="rgb(102,102,102)"  stroke="rgb(102,102,102)" stroke-width="1" font-size="16" >H</text>
<text x="28.400000" y="182.524593" fill="rgb(102,102,102)"  stroke="rgb(102,102,102)" stroke-width="1" font-size="13" >3</text>
<text x="34.900000" y="177.724593" fill="rgb(102,102,102)"  stroke="rgb(102,102,102)" stroke-width="1" font-size="16" >C</text>
<text x="257.826888" y="172.264673" fill="rgb(12,12,255)"  stroke="rgb(12,12,255)" stroke-width="1" font-size="16" >NH</text>
<text x="257.826888" y="206.861660" fill="rgb(102,102,102)"  stroke="rgb(102,102,102)" stroke-width="1" font-size="16" >CH</text>
<text x="281.826888" y="211.661660" fill="rgb(102,102,102)"  stroke="rgb(102,102,102)" stroke-width="1" font-size="13" >3</text>
<text x="307.942545" y="106.769191" fill="rgb(255,0,0)"  stroke="rgb(255,0,0)" stroke-width="1" font-size="12" >1</text>
<text x="328.547566" y="143.016702" fill="rgb(255,0,0)"  stroke="rgb(255,0,0)" stroke-width="1" font-size="12" >2</text>
<text x="327.232709" y="72.875437" fill="rgb(255,0,0)"  stroke="rgb(255,0,0)" stroke-width="1" font-size="12" >3</text>
<text x="307.942545" y="40.000000" fill="rgb(255,0,0)"  stroke="rgb(255,0,0)" stroke-width="1" font-size="12" >4</text>
<text x="269.385363" y="40.000000" fill="rgb(255,0,0)"  stroke="rgb(255,0,0)" stroke-width="1" font-size="12" >5</text>
<text x="230.816608" y="40.000000" fill="rgb(255,0,0)"  stroke="rgb(255,0,0)" stroke-width="1" font-size="12" >6</text>
<text x="211.526445" y="73.893754" fill="rgb(255,0,0)"  stroke="rgb(255,0,0)" stroke-width="1" font-size="12" >7</text>
<text x="173.409457" y="73.893754" fill="rgb(255,0,0)"  stroke="rgb(255,0,0)" stroke-width="1" font-size="12" >8</text>
<text x="154.350963" y="106.904034" fill="rgb(255,0,0)"  stroke="rgb(255,0,0)" stroke-width="1" font-size="12" >9</text>
<text x="116.233976" y="106.904034" fill="rgb(255,0,0)"  stroke="rgb(255,0,0)" stroke-width="1" font-size="12" >10</text>
<text x="97.175482" y="139.914313" fill="rgb(255,0,0)"  stroke="rgb(255,0,0)" stroke-width="1" font-size="12" >11</text>
<text x="59.058494" y="139.914313" fill="rgb(255,0,0)"  stroke="rgb(255,0,0)" stroke-width="1" font-size="12" >12</text>
<text x="40.000000" y="172.924593" fill="rgb(255,0,0)"  stroke="rgb(255,0,0)" stroke-width="1" font-size="12" >13</text>
<text x="230.816608" y="106.769191" fill="rgb(255,0,0)"  stroke="rgb(255,0,0)" stroke-width="1" font-size="12" >14</text>
<text x="230.816608" y="144.886179" fill="rgb(255,0,0)"  stroke="rgb(255,0,0)" stroke-width="1" font-size="12" >15</text>
<text x="263.826888" y="163.944673" fill="rgb(255,0,0)"  stroke="rgb(255,0,0)" stroke-width="1" font-size="12" >16</text>
<text x="263.826888" y="202.061660" fill="rgb(255,0,0)"  stroke="rgb(255,0,0)" stroke-width="1" font-size="12" >17</text>
<text x="269.385363" y="106.769191" fill="rgb(255,0,0)"  stroke="rgb(255,0,0)" stroke-width="1" font-size="12" >18</text>
<text font-size="18.000000" fill ="black" font-family="sans-serif"
x="140.000000" y="20.000000" ></text>
<title> - OBDepict</title>
</svg>
