<?xml version="1.0"?>
<svg xmlns="http://www.w3.org/2000/svg"
xmlns:xlink="http://www.w3.org/1999/xlink" xmlns:cml="http://www.xml-cml.org/schema" x="0" y="0" font-family="sans-serif" stroke="rgb(0,0,0)" stroke-width="1" viewBox="0 0 350.125 299.754" width="280.1" height="239.8032">
<line x1="294.8" y1="116.4" x2="304.8" y2="133.8"/>
<line x1="192.8" y1="74.0" x2="154.6" y2="74.0"/>
<line x1="154.6" y1="74.0" x2="135.5" y2="107.1"/>
<line x1="135.5" y1="107.1" x2="97.3" y2="107.1"/>
<line x1="97.3" y1="107.1" x2="83.2" y2="131.5"/>
<line x1="68.3" y1="140.2" x2="49.9" y2="140.2"/>
<line x1="212.2" y1="106.9" x2="212.2" y2="145.1"/>
<line x1="212.2" y1="145.1" x2="245.3" y2="164.2"/>
<line x1="245.3" y1="164.2" x2="245.3" y2="202.4"/>
<line x1="245.3" y1="202.4" x2="269.7" y2="216.6"/>
<line x1="278.3" y1="231.5" x2="278.3" y2="249.8"/>
<line x1="294.5" y1="98.1" x2="303.8" y2="81.8"/>
<line x1="303.8" y1="64.4" x2="289.5" y2="40.0"/>
<line x1="296.5" y1="66.1" x2="286.3" y2="48.8"/>
<line x1="289.5" y1="40.0" x2="260.9" y2="40.0"/>
<line x1="250.8" y1="57.4" x2="250.8" y2="106.9"/>
<line x1="250.8" y1="106.9" x2="279.4" y2="106.9"/>
<line x1="207.1" y1="48.8" x2="192.8" y2="74.0"/>
<line x1="212.4" y1="54.2" x2="202.1" y2="72.3"/>
<line x1="192.8" y1="74.0" x2="212.2" y2="106.9"/>
<line x1="212.2" y1="106.9" x2="250.8" y2="106.9"/>
<line x1="240.8" y1="40.0" x2="222.2" y2="40.0"/>
<text x="285.871248" y="115.246721" fill="rgb(12,12,255)"  stroke="rgb(12,12,255)" stroke-width="1" font-size="16" >N</text>
<text x="304.124883" y="148.059751" fill="rgb(124,127,175)"  stroke="rgb(124,127,175)" stroke-width="1" font-size="16" >R</text>
<text x="302.806923" y="81.273001" fill="rgb(12,12,255)"  stroke="rgb(12,12,255)" stroke-width="1" font-size="16" >N</text>
<text x="244.823097" y="48.320000" fill="rgb(12,12,255)"  stroke="rgb(12,12,255)" stroke-width="1" font-size="16" >N</text>
<text x="208.563346" y="48.320000" fill="rgb(12,12,255)"  stroke="rgb(12,12,255)" stroke-width="1" font-size="16" >N</text>
<text x="72.206918" y="144.950043" fill="rgb(12,12,255)"  stroke="rgb(12,12,255)" stroke-width="1" font-size="16" >NH</text>
<text x="16.400000" y="144.950043" fill="rgb(102,102,102)"  stroke="rgb(102,102,102)" stroke-width="1" font-size="16" >H</text>
<text x="28.400000" y="149.750043" fill="rgb(102,102,102)"  stroke="rgb(102,102,102)" stroke-width="1" font-size="13" >3</text>
<text x="34.900000" y="144.950043" fill="rgb(102,102,102)"  stroke="rgb(102,102,102)" stroke-width="1" font-size="16" >C</text>
<text x="272.339669" y="229.867475" fill="rgb(12,12,255)"  stroke="rgb(12,12,255)" stroke-width="1" font-size="16" >NH</text>
<text x="272.339669" y="264.554392" fill="rgb(102,102,102)"  stroke="rgb(102,102,102)" stroke-width="1" font-size="16" >CH</text>
<text x="296.339669" y="269.354392" fill="rgb(102,102,102)"  stroke="rgb(102,102,102)" stroke-width="1" font-size="13" >3</text>
<text x="289.471248" y="106.926721" fill="rgb(255,0,0)"  stroke="rgb(255,0,0)" stroke-width="1" font-size="12" >1</text>
<text x="310.124883" y="143.259751" fill="rgb(255,0,0)"  stroke="rgb(255,0,0)" stroke-width="1" font-size="12" >2</text>
<text x="308.806923" y="72.953001" fill="rgb(255,0,0)"  stroke="rgb(255,0,0)" stroke-width="1" font-size="12" >3</text>
<text x="289.471248" y="40.000000" fill="rgb(255,0,0)"  stroke="rgb(255,0,0)" stroke-width="1" font-size="12" >4</text>
<text x="250.823097" y="40.000000" fill="rgb(255,0,0)"  stroke="rgb(255,0,0)" stroke-width="1" font-size="12" >5</text>
<text x="212.163346" y="40.000000" fill="rgb(255,0,0)"  stroke="rgb(255,0,0)" stroke-width="1" font-size="12" >6</text>
<text x="192.827672" y="73.973720" fill="rgb(255,0,0)"  stroke="rgb(255,0,0)" stroke-width="1" font-size="12" >7</text>
<text x="154.620754" y="73.973720" fill="rgb(255,0,0)"  stroke="rgb(255,0,0)" stroke-width="1" font-size="12" >8</text>
<text x="135.517295" y="107.061882" fill="rgb(255,0,0)"  stroke="rgb(255,0,0)" stroke-width="1" font-size="12" >9</text>
<text x="97.310377" y="107.061882" fill="rgb(255,0,0)"  stroke="rgb(255,0,0)" stroke-width="1" font-size="12" >10</text>
<text x="78.206918" y="140.150043" fill="rgb(255,0,0)"  stroke="rgb(255,0,0)" stroke-width="1" font-size="12" >11</text>
<text x="40.000000" y="140.150043" fill="rgb(255,0,0)"  stroke="rgb(255,0,0)" stroke-width="1" font-size="12" >12</text>
<text x="212.163346" y="106.926721" fill="rgb(255,0,0)"  stroke="rgb(255,0,0)" stroke-width="1" font-size="12" >13</text>
<text x="212.163346" y="145.133639" fill="rgb(255,0,0)"  stroke="rgb(255,0,0)" stroke-width="1" font-size="12" >14</text>
<text x="245.251508" y="164.237098" fill="rgb(255,0,0)"  stroke="rgb(255,0,0)" stroke-width="1" font-size="12" >15</text>
<text x="245.251508" y="202.444016" fill="rgb(255,0,0)"  stroke="rgb(255,0,0)" stroke-width="1" font-size="12" >16</text>
<text x="278.339669" y="221.547475" fill="rgb(255,0,0)"  stroke="rgb(255,0,0)" stroke-width="1" font-size="12" >17</text>
<text x="278.339669" y="259.754392" fill="rgb(255,0,0)"  stroke="rgb(255,0,0)" stroke-width="1" font-size="12" >18</text>
<text x="250.823097" y="106.926721" fill="rgb(255,0,0)"  stroke="rgb(255,0,0)" stroke-width="1" font-size="12" >19</text>
<text font-size="18.000000" fill ="black" font-family="sans-serif"
x="140.000000" y="20.000000" ></text>
<title> - OBDepict</title>
</svg>
