<?xml version="1.0"?>
<svg xmlns="http://www.w3.org/2000/svg"
xmlns:xlink="http://www.w3.org/1999/xlink" xmlns:cml="http://www.xml-cml.org/schema" width="388.623" height="253.793" x="0" y="0" font-family="sans-serif" stroke="rgb(0,0,0)" stroke-width="1" >
<line x1="292.1" y1="115.6" x2="307.3" y2="142.2"/>
<line x1="307.3" y1="142.2" x2="337.9" y2="142.4"/>
<line x1="307.3" y1="142.2" x2="286.6" y2="178.0"/>
<line x1="286.6" y1="178.0" x2="301.9" y2="204.5"/>
<line x1="191.2" y1="73.6" x2="153.4" y2="73.6"/>
<line x1="153.4" y1="73.6" x2="134.5" y2="106.4"/>
<line x1="134.5" y1="106.4" x2="96.7" y2="106.4"/>
<line x1="96.7" y1="106.4" x2="82.7" y2="130.6"/>
<line x1="68.0" y1="139.1" x2="49.8" y2="139.1"/>
<line x1="210.3" y1="106.2" x2="210.3" y2="134.2"/>
<line x1="218.9" y1="148.9" x2="243.1" y2="162.9"/>
<line x1="243.1" y1="162.9" x2="243.1" y2="190.9"/>
<line x1="291.8" y1="97.5" x2="301.0" y2="81.3"/>
<line x1="301.0" y1="64.1" x2="286.8" y2="40.0"/>
<line x1="293.7" y1="65.9" x2="283.7" y2="48.8"/>
<line x1="286.8" y1="40.0" x2="258.5" y2="40.0"/>
<line x1="248.6" y1="57.2" x2="248.6" y2="106.2"/>
<line x1="248.6" y1="106.2" x2="276.9" y2="106.2"/>
<line x1="205.4" y1="48.7" x2="191.2" y2="73.6"/>
<line x1="210.6" y1="54.2" x2="200.4" y2="72.0"/>
<line x1="191.2" y1="73.6" x2="210.3" y2="106.2"/>
<line x1="210.3" y1="106.2" x2="248.6" y2="106.2"/>
<line x1="238.7" y1="40.0" x2="220.3" y2="40.0"/>
<text x="283.236733" y="114.539948" fill="rgb(12,12,255)"  stroke="rgb(12,12,255)" stroke-width="1" font-size="16" >N</text>
<text x="342.623060" y="147.246274" fill="rgb(255,12,12)"  stroke="rgb(255,12,12)" stroke-width="1" font-size="16" >OH</text>
<text x="301.272257" y="218.592586" fill="rgb(102,102,102)"  stroke="rgb(102,102,102)" stroke-width="1" font-size="16" >CH</text>
<text x="325.272257" y="223.392586" fill="rgb(102,102,102)"  stroke="rgb(102,102,102)" stroke-width="1" font-size="13" >3</text>
<text x="299.968216" y="80.925004" fill="rgb(12,12,255)"  stroke="rgb(12,12,255)" stroke-width="1" font-size="16" >N</text>
<text x="242.596722" y="48.320000" fill="rgb(12,12,255)"  stroke="rgb(12,12,255)" stroke-width="1" font-size="16" >N</text>
<text x="206.745233" y="48.320000" fill="rgb(12,12,255)"  stroke="rgb(12,12,255)" stroke-width="1" font-size="16" >N</text>
<text x="71.803438" y="143.892419" fill="rgb(12,12,255)"  stroke="rgb(12,12,255)" stroke-width="1" font-size="16" >NH</text>
<text x="16.400000" y="143.892419" fill="rgb(102,102,102)"  stroke="rgb(102,102,102)" stroke-width="1" font-size="16" >H</text>
<text x="28.400000" y="148.692419" fill="rgb(102,102,102)"  stroke="rgb(102,102,102)" stroke-width="1" font-size="13" >3</text>
<text x="34.900000" y="143.892419" fill="rgb(102,102,102)"  stroke="rgb(102,102,102)" stroke-width="1" font-size="16" >C</text>
<text x="194.745233" y="148.823386" fill="rgb(12,12,255)"  stroke="rgb(12,12,255)" stroke-width="1" font-size="16" >HN</text>
<text x="237.083971" y="205.528543" fill="rgb(102,102,102)"  stroke="rgb(102,102,102)" stroke-width="1" font-size="16" >CH</text>
<text x="261.083971" y="210.328543" fill="rgb(102,102,102)"  stroke="rgb(102,102,102)" stroke-width="1" font-size="13" >3</text>
<text x="286.836733" y="106.219948" fill="rgb(255,0,0)"  stroke="rgb(255,0,0)" stroke-width="1" font-size="12" >1</text>
<text x="307.272257" y="142.169287" fill="rgb(255,0,0)"  stroke="rgb(255,0,0)" stroke-width="1" font-size="12" >2</text>
<text x="348.623060" y="142.446274" fill="rgb(255,0,0)"  stroke="rgb(255,0,0)" stroke-width="1" font-size="12" >3</text>
<text x="286.596392" y="177.980937" fill="rgb(255,0,0)"  stroke="rgb(255,0,0)" stroke-width="1" font-size="12" >4</text>
<text x="307.272257" y="213.792586" fill="rgb(255,0,0)"  stroke="rgb(255,0,0)" stroke-width="1" font-size="12" >5</text>
<text x="305.968216" y="72.605004" fill="rgb(255,0,0)"  stroke="rgb(255,0,0)" stroke-width="1" font-size="12" >6</text>
<text x="286.836733" y="40.000000" fill="rgb(255,0,0)"  stroke="rgb(255,0,0)" stroke-width="1" font-size="12" >7</text>
<text x="248.596722" y="40.000000" fill="rgb(255,0,0)"  stroke="rgb(255,0,0)" stroke-width="1" font-size="12" >8</text>
<text x="210.345233" y="40.000000" fill="rgb(255,0,0)"  stroke="rgb(255,0,0)" stroke-width="1" font-size="12" >9</text>
<text x="191.213751" y="73.614944" fill="rgb(255,0,0)"  stroke="rgb(255,0,0)" stroke-width="1" font-size="12" >10</text>
<text x="153.410313" y="73.614944" fill="rgb(255,0,0)"  stroke="rgb(255,0,0)" stroke-width="1" font-size="12" >11</text>
<text x="134.508594" y="106.353682" fill="rgb(255,0,0)"  stroke="rgb(255,0,0)" stroke-width="1" font-size="12" >12</text>
<text x="96.705157" y="106.353682" fill="rgb(255,0,0)"  stroke="rgb(255,0,0)" stroke-width="1" font-size="12" >13</text>
<text x="77.803438" y="139.092419" fill="rgb(255,0,0)"  stroke="rgb(255,0,0)" stroke-width="1" font-size="12" >14</text>
<text x="40.000000" y="139.092419" fill="rgb(255,0,0)"  stroke="rgb(255,0,0)" stroke-width="1" font-size="12" >15</text>
<text x="210.345233" y="106.219948" fill="rgb(255,0,0)"  stroke="rgb(255,0,0)" stroke-width="1" font-size="12" >16</text>
<text x="210.345233" y="144.023386" fill="rgb(255,0,0)"  stroke="rgb(255,0,0)" stroke-width="1" font-size="12" >17</text>
<text x="243.083971" y="162.925105" fill="rgb(255,0,0)"  stroke="rgb(255,0,0)" stroke-width="1" font-size="12" >18</text>
<text x="243.083971" y="200.728543" fill="rgb(255,0,0)"  stroke="rgb(255,0,0)" stroke-width="1" font-size="12" >19</text>
<text x="248.596722" y="106.219948" fill="rgb(255,0,0)"  stroke="rgb(255,0,0)" stroke-width="1" font-size="12" >20</text>
<text font-size="18.000000" fill ="black" font-family="sans-serif"
x="140.000000" y="20.000000" ></text>
<title> - OBDepict</title>
</svg>
