<?xml version="1.0"?>
<svg xmlns="http://www.w3.org/2000/svg"
xmlns:xlink="http://www.w3.org/1999/xlink" xmlns:cml="http://www.xml-cml.org/schema" width="308.796" height="360.404" x="0" y="0" font-family="sans-serif" stroke="rgb(0,0,0)" stroke-width="1" >
<line x1="253.7" y1="115.3" x2="268.8" y2="141.9"/>
<line x1="268.8" y1="141.9" x2="248.2" y2="177.6"/>
<line x1="248.2" y1="177.6" x2="268.8" y2="213.3"/>
<line x1="268.8" y1="213.3" x2="248.2" y2="249.0"/>
<line x1="248.2" y1="249.0" x2="263.4" y2="275.4"/>
<line x1="263.4" y1="294.0" x2="253.5" y2="311.1"/>
<line x1="153.1" y1="73.5" x2="115.4" y2="73.5"/>
<line x1="115.4" y1="73.5" x2="96.5" y2="106.2"/>
<line x1="96.5" y1="106.2" x2="68.6" y2="106.2"/>
<line x1="53.9" y1="114.6" x2="44.9" y2="130.3"/>
<line x1="172.2" y1="106.0" x2="172.2" y2="143.7"/>
<line x1="172.2" y1="143.7" x2="204.8" y2="162.6"/>
<line x1="204.8" y1="162.6" x2="204.8" y2="190.5"/>
<line x1="213.3" y1="205.2" x2="229.0" y2="214.2"/>
<line x1="253.4" y1="97.3" x2="262.5" y2="81.2"/>
<line x1="262.5" y1="64.1" x2="248.4" y2="40.0"/>
<line x1="255.2" y1="65.8" x2="245.2" y2="48.8"/>
<line x1="248.4" y1="40.0" x2="220.2" y2="40.0"/>
<line x1="210.3" y1="57.2" x2="210.3" y2="106.0"/>
<line x1="210.3" y1="106.0" x2="238.5" y2="106.0"/>
<line x1="167.2" y1="48.7" x2="153.1" y2="73.5"/>
<line x1="172.4" y1="54.1" x2="162.3" y2="71.9"/>
<line x1="153.1" y1="73.5" x2="172.2" y2="106.0"/>
<line x1="172.2" y1="106.0" x2="210.3" y2="106.0"/>
<line x1="200.4" y1="40.0" x2="182.1" y2="40.0"/>
<text x="244.820842" y="114.345928" fill="rgb(12,12,255)"  stroke="rgb(12,12,255)" stroke-width="1" font-size="16" >N</text>
<text x="262.796491" y="293.016832" fill="rgb(12,12,255)"  stroke="rgb(12,12,255)" stroke-width="1" font-size="16" >NH</text>
<text x="224.581204" y="325.203555" fill="rgb(102,102,102)"  stroke="rgb(102,102,102)" stroke-width="1" font-size="16" >H</text>
<text x="236.581204" y="330.003555" fill="rgb(102,102,102)"  stroke="rgb(102,102,102)" stroke-width="1" font-size="13" >3</text>
<text x="243.081204" y="325.203555" fill="rgb(102,102,102)"  stroke="rgb(102,102,102)" stroke-width="1" font-size="16" >C</text>
<text x="261.496270" y="80.829473" fill="rgb(12,12,255)"  stroke="rgb(12,12,255)" stroke-width="1" font-size="16" >N</text>
<text x="204.292871" y="48.320000" fill="rgb(12,12,255)"  stroke="rgb(12,12,255)" stroke-width="1" font-size="16" >N</text>
<text x="168.553457" y="48.320000" fill="rgb(12,12,255)"  stroke="rgb(12,12,255)" stroke-width="1" font-size="16" >N</text>
<text x="43.246338" y="114.479270" fill="rgb(12,12,255)"  stroke="rgb(12,12,255)" stroke-width="1" font-size="16" >HN</text>
<text x="16.400000" y="143.602085" fill="rgb(102,102,102)"  stroke="rgb(102,102,102)" stroke-width="1" font-size="16" >H</text>
<text x="28.400000" y="148.402085" fill="rgb(102,102,102)"  stroke="rgb(102,102,102)" stroke-width="1" font-size="13" >3</text>
<text x="34.900000" y="143.602085" fill="rgb(102,102,102)"  stroke="rgb(102,102,102)" stroke-width="1" font-size="16" >C</text>
<text x="189.196272" y="205.057618" fill="rgb(12,12,255)"  stroke="rgb(12,12,255)" stroke-width="1" font-size="16" >HN</text>
<text x="231.439087" y="223.903956" fill="rgb(102,102,102)"  stroke="rgb(102,102,102)" stroke-width="1" font-size="16" >CH</text>
<text x="255.439087" y="228.703956" fill="rgb(102,102,102)"  stroke="rgb(102,102,102)" stroke-width="1" font-size="13" >3</text>
<text x="248.420842" y="106.025928" fill="rgb(255,0,0)"  stroke="rgb(255,0,0)" stroke-width="1" font-size="12" >1</text>
<text x="268.796491" y="141.869938" fill="rgb(255,0,0)"  stroke="rgb(255,0,0)" stroke-width="1" font-size="12" >2</text>
<text x="248.181204" y="177.576661" fill="rgb(255,0,0)"  stroke="rgb(255,0,0)" stroke-width="1" font-size="12" >3</text>
<text x="268.796491" y="213.283385" fill="rgb(255,0,0)"  stroke="rgb(255,0,0)" stroke-width="1" font-size="12" >4</text>
<text x="248.181204" y="248.990108" fill="rgb(255,0,0)"  stroke="rgb(255,0,0)" stroke-width="1" font-size="12" >5</text>
<text x="268.796491" y="284.696832" fill="rgb(255,0,0)"  stroke="rgb(255,0,0)" stroke-width="1" font-size="12" >6</text>
<text x="248.181204" y="320.403555" fill="rgb(255,0,0)"  stroke="rgb(255,0,0)" stroke-width="1" font-size="12" >7</text>
<text x="267.496270" y="72.509473" fill="rgb(255,0,0)"  stroke="rgb(255,0,0)" stroke-width="1" font-size="12" >8</text>
<text x="248.420842" y="40.000000" fill="rgb(255,0,0)"  stroke="rgb(255,0,0)" stroke-width="1" font-size="12" >9</text>
<text x="210.292871" y="40.000000" fill="rgb(255,0,0)"  stroke="rgb(255,0,0)" stroke-width="1" font-size="12" >10</text>
<text x="172.153457" y="40.000000" fill="rgb(255,0,0)"  stroke="rgb(255,0,0)" stroke-width="1" font-size="12" >11</text>
<text x="153.078028" y="73.516455" fill="rgb(255,0,0)"  stroke="rgb(255,0,0)" stroke-width="1" font-size="12" >12</text>
<text x="115.385352" y="73.516455" fill="rgb(255,0,0)"  stroke="rgb(255,0,0)" stroke-width="1" font-size="12" >13</text>
<text x="96.539014" y="106.159270" fill="rgb(255,0,0)"  stroke="rgb(255,0,0)" stroke-width="1" font-size="12" >14</text>
<text x="58.846338" y="106.159270" fill="rgb(255,0,0)"  stroke="rgb(255,0,0)" stroke-width="1" font-size="12" >15</text>
<text x="40.000000" y="138.802085" fill="rgb(255,0,0)"  stroke="rgb(255,0,0)" stroke-width="1" font-size="12" >16</text>
<text x="172.153457" y="106.025928" fill="rgb(255,0,0)"  stroke="rgb(255,0,0)" stroke-width="1" font-size="12" >17</text>
<text x="172.153457" y="143.718604" fill="rgb(255,0,0)"  stroke="rgb(255,0,0)" stroke-width="1" font-size="12" >18</text>
<text x="204.796272" y="162.564942" fill="rgb(255,0,0)"  stroke="rgb(255,0,0)" stroke-width="1" font-size="12" >19</text>
<text x="204.796272" y="200.257618" fill="rgb(255,0,0)"  stroke="rgb(255,0,0)" stroke-width="1" font-size="12" >20</text>
<text x="237.439087" y="219.103956" fill="rgb(255,0,0)"  stroke="rgb(255,0,0)" stroke-width="1" font-size="12" >21</text>
<text x="210.292871" y="106.025928" fill="rgb(255,0,0)"  stroke="rgb(255,0,0)" stroke-width="1" font-size="12" >22</text>
<text font-size="18.000000" fill ="black" font-family="sans-serif"
x="140.000000" y="20.000000" ></text>
<title> - OBDepict</title>
</svg>
