<?xml version="1.0"?>
<svg xmlns="http://www.w3.org/2000/svg"
xmlns:xlink="http://www.w3.org/1999/xlink" xmlns:cml="http://www.xml-cml.org/schema" x="0" y="0" font-family="sans-serif" stroke="rgb(0,0,0)" stroke-width="1" viewBox="0 0 410.975 241.785" width="328.78" height="193.428">
<line x1="293.8" y1="116.1" x2="309.0" y2="142.8"/>
<line x1="309.0" y1="142.8" x2="339.8" y2="143.3"/>
<line x1="355.9" y1="152.8" x2="365.7" y2="170.3"/>
<line x1="192.2" y1="73.8" x2="154.2" y2="73.8"/>
<line x1="154.2" y1="73.8" x2="135.1" y2="106.8"/>
<line x1="135.1" y1="106.8" x2="97.1" y2="106.8"/>
<line x1="97.1" y1="106.8" x2="78.1" y2="139.7"/>
<line x1="78.1" y1="139.7" x2="49.9" y2="139.7"/>
<line x1="211.5" y1="106.7" x2="211.5" y2="144.7"/>
<line x1="211.5" y1="144.7" x2="244.4" y2="163.7"/>
<line x1="247.4" y1="163.7" x2="247.4" y2="191.9"/>
<line x1="241.4" y1="163.7" x2="241.4" y2="191.9"/>
<line x1="244.4" y1="163.7" x2="277.4" y2="144.7"/>
<line x1="277.4" y1="144.7" x2="301.8" y2="158.8"/>
<line x1="293.5" y1="97.9" x2="302.7" y2="81.6"/>
<line x1="302.7" y1="64.3" x2="288.5" y2="40.0"/>
<line x1="295.4" y1="66.0" x2="285.3" y2="48.8"/>
<line x1="288.5" y1="40.0" x2="260.0" y2="40.0"/>
<line x1="250.0" y1="57.3" x2="250.0" y2="106.7"/>
<line x1="250.0" y1="106.7" x2="278.5" y2="106.7"/>
<line x1="206.5" y1="48.8" x2="192.2" y2="73.8"/>
<line x1="211.7" y1="54.2" x2="201.4" y2="72.2"/>
<line x1="192.2" y1="73.8" x2="211.5" y2="106.7"/>
<line x1="211.5" y1="106.7" x2="250.0" y2="106.7"/>
<line x1="240.0" y1="40.0" x2="221.5" y2="40.0"/>
<text x="284.858733" y="114.975089" fill="rgb(12,12,255)"  stroke="rgb(12,12,255)" stroke-width="1" font-size="16" >N</text>
<text x="344.648265" y="151.718257" fill="rgb(12,12,255)"  stroke="rgb(12,12,255)" stroke-width="1" font-size="16" >NH</text>
<text x="364.975230" y="184.520796" fill="rgb(102,102,102)"  stroke="rgb(102,102,102)" stroke-width="1" font-size="16" >CH</text>
<text x="388.975230" y="189.320796" fill="rgb(102,102,102)"  stroke="rgb(102,102,102)" stroke-width="1" font-size="13" >3</text>
<text x="301.715931" y="81.139256" fill="rgb(12,12,255)"  stroke="rgb(12,12,255)" stroke-width="1" font-size="16" >N</text>
<text x="243.967440" y="48.320000" fill="rgb(12,12,255)"  stroke="rgb(12,12,255)" stroke-width="1" font-size="16" >N</text>
<text x="207.864596" y="48.320000" fill="rgb(12,12,255)"  stroke="rgb(12,12,255)" stroke-width="1" font-size="16" >N</text>
<text x="16.400000" y="144.543569" fill="rgb(102,102,102)"  stroke="rgb(102,102,102)" stroke-width="1" font-size="16" >H</text>
<text x="28.400000" y="149.343569" fill="rgb(102,102,102)"  stroke="rgb(102,102,102)" stroke-width="1" font-size="13" >3</text>
<text x="34.900000" y="144.543569" fill="rgb(102,102,102)"  stroke="rgb(102,102,102)" stroke-width="1" font-size="16" >C</text>
<text x="238.418464" y="206.584713" fill="rgb(255,12,12)"  stroke="rgb(255,12,12)" stroke-width="1" font-size="16" >O</text>
<text x="304.326201" y="168.532863" fill="rgb(102,102,102)"  stroke="rgb(102,102,102)" stroke-width="1" font-size="16" >CH</text>
<text x="328.326201" y="173.332863" fill="rgb(102,102,102)"  stroke="rgb(102,102,102)" stroke-width="1" font-size="13" >3</text>
<text x="288.458733" y="106.655089" fill="rgb(255,0,0)"  stroke="rgb(255,0,0)" stroke-width="1" font-size="12" >1</text>
<text x="309.028541" y="142.840656" fill="rgb(255,0,0)"  stroke="rgb(255,0,0)" stroke-width="1" font-size="12" >2</text>
<text x="350.648265" y="143.398257" fill="rgb(255,0,0)"  stroke="rgb(255,0,0)" stroke-width="1" font-size="12" >3</text>
<text x="370.975230" y="179.720796" fill="rgb(255,0,0)"  stroke="rgb(255,0,0)" stroke-width="1" font-size="12" >4</text>
<text x="307.715931" y="72.819256" fill="rgb(255,0,0)"  stroke="rgb(255,0,0)" stroke-width="1" font-size="12" >5</text>
<text x="288.458733" y="40.000000" fill="rgb(255,0,0)"  stroke="rgb(255,0,0)" stroke-width="1" font-size="12" >6</text>
<text x="249.967440" y="40.000000" fill="rgb(255,0,0)"  stroke="rgb(255,0,0)" stroke-width="1" font-size="12" >7</text>
<text x="211.464596" y="40.000000" fill="rgb(255,0,0)"  stroke="rgb(255,0,0)" stroke-width="1" font-size="12" >8</text>
<text x="192.207398" y="73.835833" fill="rgb(255,0,0)"  stroke="rgb(255,0,0)" stroke-width="1" font-size="12" >9</text>
<text x="154.155548" y="73.835833" fill="rgb(255,0,0)"  stroke="rgb(255,0,0)" stroke-width="1" font-size="12" >10</text>
<text x="135.129624" y="106.789701" fill="rgb(255,0,0)"  stroke="rgb(255,0,0)" stroke-width="1" font-size="12" >11</text>
<text x="97.077774" y="106.789701" fill="rgb(255,0,0)"  stroke="rgb(255,0,0)" stroke-width="1" font-size="12" >12</text>
<text x="78.051849" y="139.743569" fill="rgb(255,0,0)"  stroke="rgb(255,0,0)" stroke-width="1" font-size="12" >13</text>
<text x="40.000000" y="139.743569" fill="rgb(255,0,0)"  stroke="rgb(255,0,0)" stroke-width="1" font-size="12" >14</text>
<text x="211.464596" y="106.655089" fill="rgb(255,0,0)"  stroke="rgb(255,0,0)" stroke-width="1" font-size="12" >15</text>
<text x="211.464596" y="144.706938" fill="rgb(255,0,0)"  stroke="rgb(255,0,0)" stroke-width="1" font-size="12" >16</text>
<text x="244.418464" y="163.732863" fill="rgb(255,0,0)"  stroke="rgb(255,0,0)" stroke-width="1" font-size="12" >17</text>
<text x="244.418464" y="201.784713" fill="rgb(255,0,0)"  stroke="rgb(255,0,0)" stroke-width="1" font-size="12" >18</text>
<text x="277.372333" y="144.706938" fill="rgb(255,0,0)"  stroke="rgb(255,0,0)" stroke-width="1" font-size="12" >19</text>
<text x="310.326201" y="163.732863" fill="rgb(255,0,0)"  stroke="rgb(255,0,0)" stroke-width="1" font-size="12" >20</text>
<text x="249.967440" y="106.655089" fill="rgb(255,0,0)"  stroke="rgb(255,0,0)" stroke-width="1" font-size="12" >21</text>
<text font-size="18.000000" fill ="black" font-family="sans-serif"
x="140.000000" y="20.000000" ></text>
<title> - OBDepict</title>
</svg>
