<?xml version="1.0"?>
<svg xmlns="http://www.w3.org/2000/svg"
xmlns:xlink="http://www.w3.org/1999/xlink" xmlns:cml="http://www.xml-cml.org/schema" x="0" y="0" font-family="sans-serif" stroke="rgb(0,0,0)" stroke-width="1" viewBox="0 0 235.052 321.761" width="188.0416" height="257.4088">
<line x1="180.2" y1="114.4" x2="195.1" y2="140.6"/>
<line x1="195.1" y1="140.6" x2="174.7" y2="175.9"/>
<line x1="174.7" y1="175.9" x2="195.1" y2="211.2"/>
<line x1="195.1" y1="211.2" x2="174.7" y2="246.5"/>
<line x1="174.7" y1="246.5" x2="189.8" y2="272.6"/>
<line x1="80.7" y1="73.1" x2="50.6" y2="73.9"/>
<line x1="99.6" y1="105.2" x2="99.6" y2="142.5"/>
<line x1="99.6" y1="142.5" x2="131.8" y2="161.1"/>
<line x1="131.8" y1="161.1" x2="131.8" y2="198.3"/>
<line x1="131.8" y1="198.3" x2="155.7" y2="212.1"/>
<line x1="179.8" y1="96.6" x2="188.9" y2="80.7"/>
<line x1="188.9" y1="63.8" x2="174.9" y2="40.0"/>
<line x1="181.5" y1="65.4" x2="171.7" y2="48.8"/>
<line x1="174.9" y1="40.0" x2="147.0" y2="40.0"/>
<line x1="137.3" y1="57.0" x2="137.3" y2="105.2"/>
<line x1="137.3" y1="105.2" x2="165.1" y2="105.2"/>
<line x1="94.7" y1="48.6" x2="80.7" y2="73.1"/>
<line x1="99.8" y1="54.1" x2="89.9" y2="71.5"/>
<line x1="80.7" y1="73.1" x2="99.6" y2="105.2"/>
<line x1="99.6" y1="105.2" x2="137.3" y2="105.2"/>
<line x1="127.5" y1="40.0" x2="109.4" y2="40.0"/>
<text x="171.320581" y="113.553742" fill="rgb(12,12,255)"  stroke="rgb(12,12,255)" stroke-width="1" font-size="16" >N</text>
<text x="189.051761" y="286.560933" fill="rgb(102,102,102)"  stroke="rgb(102,102,102)" stroke-width="1" font-size="16" >CH</text>
<text x="213.051761" y="291.360933" fill="rgb(102,102,102)"  stroke="rgb(102,102,102)" stroke-width="1" font-size="13" >3</text>
<text x="187.767141" y="80.439421" fill="rgb(12,12,255)"  stroke="rgb(12,12,255)" stroke-width="1" font-size="16" >N</text>
<text x="131.250074" y="48.320000" fill="rgb(12,12,255)"  stroke="rgb(12,12,255)" stroke-width="1" font-size="16" >N</text>
<text x="95.968261" y="48.320000" fill="rgb(12,12,255)"  stroke="rgb(12,12,255)" stroke-width="1" font-size="16" >N</text>
<text x="24.400000" y="78.989159" fill="rgb(124,127,175)"  stroke="rgb(124,127,175)" stroke-width="1" font-size="16" >R</text>
<text x="158.070587" y="221.755048" fill="rgb(102,102,102)"  stroke="rgb(102,102,102)" stroke-width="1" font-size="16" >CH</text>
<text x="182.070587" y="226.555048" fill="rgb(102,102,102)"  stroke="rgb(102,102,102)" stroke-width="1" font-size="13" >3</text>
<text x="174.920581" y="105.233742" fill="rgb(255,0,0)"  stroke="rgb(255,0,0)" stroke-width="1" font-size="12" >1</text>
<text x="195.051761" y="140.647692" fill="rgb(255,0,0)"  stroke="rgb(255,0,0)" stroke-width="1" font-size="12" >2</text>
<text x="174.683819" y="175.926002" fill="rgb(255,0,0)"  stroke="rgb(255,0,0)" stroke-width="1" font-size="12" >3</text>
<text x="195.051761" y="211.204312" fill="rgb(255,0,0)"  stroke="rgb(255,0,0)" stroke-width="1" font-size="12" >4</text>
<text x="174.683819" y="246.482622" fill="rgb(255,0,0)"  stroke="rgb(255,0,0)" stroke-width="1" font-size="12" >5</text>
<text x="195.051761" y="281.760933" fill="rgb(255,0,0)"  stroke="rgb(255,0,0)" stroke-width="1" font-size="12" >6</text>
<text x="193.767141" y="72.119421" fill="rgb(255,0,0)"  stroke="rgb(255,0,0)" stroke-width="1" font-size="12" >7</text>
<text x="174.920581" y="40.000000" fill="rgb(255,0,0)"  stroke="rgb(255,0,0)" stroke-width="1" font-size="12" >8</text>
<text x="137.250074" y="40.000000" fill="rgb(255,0,0)"  stroke="rgb(255,0,0)" stroke-width="1" font-size="12" >9</text>
<text x="99.568261" y="40.000000" fill="rgb(255,0,0)"  stroke="rgb(255,0,0)" stroke-width="1" font-size="12" >10</text>
<text x="80.721701" y="73.114321" fill="rgb(255,0,0)"  stroke="rgb(255,0,0)" stroke-width="1" font-size="12" >11</text>
<text x="40.000000" y="74.189159" fill="rgb(255,0,0)"  stroke="rgb(255,0,0)" stroke-width="1" font-size="12" >12</text>
<text x="99.568261" y="105.233742" fill="rgb(255,0,0)"  stroke="rgb(255,0,0)" stroke-width="1" font-size="12" >13</text>
<text x="99.568261" y="142.474177" fill="rgb(255,0,0)"  stroke="rgb(255,0,0)" stroke-width="1" font-size="12" >14</text>
<text x="131.819424" y="161.094395" fill="rgb(255,0,0)"  stroke="rgb(255,0,0)" stroke-width="1" font-size="12" >15</text>
<text x="131.819424" y="198.334830" fill="rgb(255,0,0)"  stroke="rgb(255,0,0)" stroke-width="1" font-size="12" >16</text>
<text x="164.070587" y="216.955048" fill="rgb(255,0,0)"  stroke="rgb(255,0,0)" stroke-width="1" font-size="12" >17</text>
<text x="137.250074" y="105.233742" fill="rgb(255,0,0)"  stroke="rgb(255,0,0)" stroke-width="1" font-size="12" >18</text>
<text font-size="18.000000" fill ="black" font-family="sans-serif"
x="140.000000" y="20.000000" ></text>
<title> - OBDepict</title>
</svg>
