<?xml version="1.0"?>
<svg xmlns="http://www.w3.org/2000/svg"
xmlns:xlink="http://www.w3.org/1999/xlink" xmlns:cml="http://www.xml-cml.org/schema" width="344.848" height="252.216" x="0" y="0" font-family="sans-serif" stroke="rgb(0,0,0)" stroke-width="1" >
<line x1="289.9" y1="114.9" x2="304.8" y2="141.2"/>
<line x1="304.8" y1="141.2" x2="289.7" y2="167.5"/>
<line x1="289.7" y1="186.0" x2="299.5" y2="203.0"/>
<line x1="189.8" y1="73.3" x2="152.4" y2="73.3"/>
<line x1="152.4" y1="73.3" x2="133.7" y2="105.8"/>
<line x1="133.7" y1="105.8" x2="96.2" y2="105.8"/>
<line x1="96.2" y1="105.8" x2="77.5" y2="138.2"/>
<line x1="77.5" y1="138.2" x2="49.7" y2="138.2"/>
<line x1="208.8" y1="105.6" x2="193.5" y2="131.8"/>
<line x1="289.5" y1="97.0" x2="298.6" y2="81.0"/>
<line x1="298.6" y1="63.9" x2="284.6" y2="40.0"/>
<line x1="291.3" y1="65.6" x2="281.4" y2="48.8"/>
<line x1="284.6" y1="40.0" x2="256.6" y2="40.0"/>
<line x1="246.7" y1="57.1" x2="246.7" y2="105.6"/>
<line x1="246.7" y1="105.6" x2="274.7" y2="105.6"/>
<line x1="203.9" y1="48.7" x2="189.8" y2="73.3"/>
<line x1="209.1" y1="54.1" x2="199.1" y2="71.7"/>
<line x1="189.8" y1="73.3" x2="208.8" y2="105.6"/>
<line x1="208.8" y1="105.6" x2="246.7" y2="105.6"/>
<line x1="236.8" y1="40.0" x2="218.7" y2="40.0"/>
<text x="280.998088" y="113.939377" fill="rgb(12,12,255)"  stroke="rgb(12,12,255)" stroke-width="1" font-size="16" >N</text>
<text x="268.759926" y="181.529541" fill="rgb(12,12,255)"  stroke="rgb(12,12,255)" stroke-width="1" font-size="16" >HN</text>
<text x="298.848275" y="217.016402" fill="rgb(102,102,102)"  stroke="rgb(102,102,102)" stroke-width="1" font-size="16" >CH</text>
<text x="322.848275" y="221.816402" fill="rgb(102,102,102)"  stroke="rgb(102,102,102)" stroke-width="1" font-size="13" >3</text>
<text x="297.556060" y="80.629298" fill="rgb(12,12,255)"  stroke="rgb(12,12,255)" stroke-width="1" font-size="16" >N</text>
<text x="240.704888" y="48.320000" fill="rgb(12,12,255)"  stroke="rgb(12,12,255)" stroke-width="1" font-size="16" >N</text>
<text x="205.200315" y="48.320000" fill="rgb(12,12,255)"  stroke="rgb(12,12,255)" stroke-width="1" font-size="16" >N</text>
<text x="16.400000" y="142.993717" fill="rgb(102,102,102)"  stroke="rgb(102,102,102)" stroke-width="1" font-size="16" >H</text>
<text x="28.400000" y="147.793717" fill="rgb(102,102,102)"  stroke="rgb(102,102,102)" stroke-width="1" font-size="13" >3</text>
<text x="34.900000" y="142.993717" fill="rgb(102,102,102)"  stroke="rgb(102,102,102)" stroke-width="1" font-size="16" >C</text>
<text x="172.472172" y="145.766709" fill="rgb(124,127,175)"  stroke="rgb(124,127,175)" stroke-width="1" font-size="16" >R</text>
<text x="284.598088" y="105.619377" fill="rgb(255,0,0)"  stroke="rgb(255,0,0)" stroke-width="1" font-size="12" >1</text>
<text x="304.848275" y="141.242680" fill="rgb(255,0,0)"  stroke="rgb(255,0,0)" stroke-width="1" font-size="12" >2</text>
<text x="284.359926" y="176.729541" fill="rgb(255,0,0)"  stroke="rgb(255,0,0)" stroke-width="1" font-size="12" >3</text>
<text x="304.848275" y="212.216402" fill="rgb(255,0,0)"  stroke="rgb(255,0,0)" stroke-width="1" font-size="12" >4</text>
<text x="303.556060" y="72.309298" fill="rgb(255,0,0)"  stroke="rgb(255,0,0)" stroke-width="1" font-size="12" >5</text>
<text x="284.598088" y="40.000000" fill="rgb(255,0,0)"  stroke="rgb(255,0,0)" stroke-width="1" font-size="12" >6</text>
<text x="246.704888" y="40.000000" fill="rgb(255,0,0)"  stroke="rgb(255,0,0)" stroke-width="1" font-size="12" >7</text>
<text x="208.800315" y="40.000000" fill="rgb(255,0,0)"  stroke="rgb(255,0,0)" stroke-width="1" font-size="12" >8</text>
<text x="189.842342" y="73.310079" fill="rgb(255,0,0)"  stroke="rgb(255,0,0)" stroke-width="1" font-size="12" >9</text>
<text x="152.381757" y="73.310079" fill="rgb(255,0,0)"  stroke="rgb(255,0,0)" stroke-width="1" font-size="12" >10</text>
<text x="133.651464" y="105.751898" fill="rgb(255,0,0)"  stroke="rgb(255,0,0)" stroke-width="1" font-size="12" >11</text>
<text x="96.190878" y="105.751898" fill="rgb(255,0,0)"  stroke="rgb(255,0,0)" stroke-width="1" font-size="12" >12</text>
<text x="77.460586" y="138.193717" fill="rgb(255,0,0)"  stroke="rgb(255,0,0)" stroke-width="1" font-size="12" >13</text>
<text x="40.000000" y="138.193717" fill="rgb(255,0,0)"  stroke="rgb(255,0,0)" stroke-width="1" font-size="12" >14</text>
<text x="208.800315" y="105.619377" fill="rgb(255,0,0)"  stroke="rgb(255,0,0)" stroke-width="1" font-size="12" >15</text>
<text x="188.072172" y="140.966709" fill="rgb(255,0,0)"  stroke="rgb(255,0,0)" stroke-width="1" font-size="12" >16</text>
<text x="246.704888" y="105.619377" fill="rgb(255,0,0)"  stroke="rgb(255,0,0)" stroke-width="1" font-size="12" >17</text>
<text font-size="18.000000" fill ="black" font-family="sans-serif"
x="140.000000" y="20.000000" ></text>
<title> - OBDepict</title>
</svg>
