<?xml version="1.0"?>
<svg xmlns="http://www.w3.org/2000/svg"
xmlns:xlink="http://www.w3.org/1999/xlink" xmlns:cml="http://www.xml-cml.org/schema" x="0" y="0" font-family="sans-serif" stroke="rgb(0,0,0)" stroke-width="1" viewBox="0 0 472.513 318.43" width="378.0104" height="254.744">
<line x1="313.5" y1="116.2" x2="328.7" y2="143.1"/>
<line x1="328.7" y1="143.1" x2="370.4" y2="143.6"/>
<line x1="370.4" y1="143.6" x2="385.5" y2="170.6"/>
<line x1="401.6" y1="180.2" x2="421.7" y2="180.5"/>
<line x1="211.6" y1="73.9" x2="173.5" y2="73.9"/>
<line x1="173.5" y1="73.9" x2="154.4" y2="106.9"/>
<line x1="154.4" y1="106.9" x2="116.3" y2="106.9"/>
<line x1="116.3" y1="106.9" x2="97.2" y2="140.0"/>
<line x1="97.2" y1="140.0" x2="69.0" y2="140.0"/>
<line x1="54.1" y1="148.6" x2="45.0" y2="164.4"/>
<line x1="230.9" y1="106.8" x2="230.9" y2="144.9"/>
<line x1="230.9" y1="144.9" x2="264.0" y2="164.0"/>
<line x1="264.0" y1="164.0" x2="264.0" y2="202.2"/>
<line x1="264.0" y1="202.2" x2="297.0" y2="221.2"/>
<line x1="297.0" y1="221.2" x2="297.0" y2="249.4"/>
<line x1="305.6" y1="264.3" x2="321.4" y2="273.5"/>
<line x1="313.1" y1="98.0" x2="322.4" y2="81.7"/>
<line x1="322.4" y1="64.3" x2="308.1" y2="40.0"/>
<line x1="315.1" y1="66.1" x2="304.9" y2="48.8"/>
<line x1="308.1" y1="40.0" x2="279.5" y2="40.0"/>
<line x1="269.5" y1="57.4" x2="269.5" y2="106.8"/>
<line x1="269.5" y1="106.8" x2="298.1" y2="106.8"/>
<line x1="225.9" y1="48.8" x2="211.6" y2="73.9"/>
<line x1="231.1" y1="54.2" x2="220.8" y2="72.3"/>
<line x1="211.6" y1="73.9" x2="230.9" y2="106.8"/>
<line x1="230.9" y1="106.8" x2="269.5" y2="106.8"/>
<line x1="259.5" y1="40.0" x2="241.0" y2="40.0"/>
<text x="304.493993" y="115.126931" fill="rgb(12,12,255)"  stroke="rgb(12,12,255)" stroke-width="1" font-size="16" >N</text>
<text x="375.198464" y="184.839083" fill="rgb(12,12,255)"  stroke="rgb(12,12,255)" stroke-width="1" font-size="16" >HN</text>
<text x="426.512999" y="185.397954" fill="rgb(102,102,102)"  stroke="rgb(102,102,102)" stroke-width="1" font-size="16" >CH</text>
<text x="450.512999" y="190.197954" fill="rgb(102,102,102)"  stroke="rgb(102,102,102)" stroke-width="1" font-size="13" >3</text>
<text x="321.395059" y="81.214019" fill="rgb(12,12,255)"  stroke="rgb(12,12,255)" stroke-width="1" font-size="16" >N</text>
<text x="263.515017" y="48.320000" fill="rgb(12,12,255)"  stroke="rgb(12,12,255)" stroke-width="1" font-size="16" >N</text>
<text x="227.324462" y="48.320000" fill="rgb(12,12,255)"  stroke="rgb(12,12,255)" stroke-width="1" font-size="16" >N</text>
<text x="43.469266" y="148.290787" fill="rgb(12,12,255)"  stroke="rgb(12,12,255)" stroke-width="1" font-size="16" >HN</text>
<text x="16.400000" y="177.799725" fill="rgb(102,102,102)"  stroke="rgb(102,102,102)" stroke-width="1" font-size="16" >H</text>
<text x="28.400000" y="182.599725" fill="rgb(102,102,102)"  stroke="rgb(102,102,102)" stroke-width="1" font-size="13" >3</text>
<text x="34.900000" y="177.799725" fill="rgb(102,102,102)"  stroke="rgb(102,102,102)" stroke-width="1" font-size="16" >C</text>
<text x="281.382338" y="264.161060" fill="rgb(12,12,255)"  stroke="rgb(12,12,255)" stroke-width="1" font-size="16" >HN</text>
<text x="324.011276" y="283.230326" fill="rgb(102,102,102)"  stroke="rgb(102,102,102)" stroke-width="1" font-size="16" >CH</text>
<text x="348.011276" y="288.030326" fill="rgb(102,102,102)"  stroke="rgb(102,102,102)" stroke-width="1" font-size="13" >3</text>
<text x="308.093993" y="106.806931" fill="rgb(255,0,0)"  stroke="rgb(255,0,0)" stroke-width="1" font-size="12" >1</text>
<text x="328.710660" y="143.074929" fill="rgb(255,0,0)"  stroke="rgb(255,0,0)" stroke-width="1" font-size="12" >2</text>
<text x="370.425194" y="143.633801" fill="rgb(255,0,0)"  stroke="rgb(255,0,0)" stroke-width="1" font-size="12" >3</text>
<text x="390.798464" y="180.039083" fill="rgb(255,0,0)"  stroke="rgb(255,0,0)" stroke-width="1" font-size="12" >4</text>
<text x="432.512999" y="180.597954" fill="rgb(255,0,0)"  stroke="rgb(255,0,0)" stroke-width="1" font-size="12" >5</text>
<text x="327.395059" y="72.894019" fill="rgb(255,0,0)"  stroke="rgb(255,0,0)" stroke-width="1" font-size="12" >6</text>
<text x="308.093993" y="40.000000" fill="rgb(255,0,0)"  stroke="rgb(255,0,0)" stroke-width="1" font-size="12" >7</text>
<text x="269.515017" y="40.000000" fill="rgb(255,0,0)"  stroke="rgb(255,0,0)" stroke-width="1" font-size="12" >8</text>
<text x="230.924462" y="40.000000" fill="rgb(255,0,0)"  stroke="rgb(255,0,0)" stroke-width="1" font-size="12" >9</text>
<text x="211.623396" y="73.912912" fill="rgb(255,0,0)"  stroke="rgb(255,0,0)" stroke-width="1" font-size="12" >10</text>
<text x="173.484863" y="73.912912" fill="rgb(255,0,0)"  stroke="rgb(255,0,0)" stroke-width="1" font-size="12" >11</text>
<text x="154.415597" y="106.941849" fill="rgb(255,0,0)"  stroke="rgb(255,0,0)" stroke-width="1" font-size="12" >12</text>
<text x="116.277065" y="106.941849" fill="rgb(255,0,0)"  stroke="rgb(255,0,0)" stroke-width="1" font-size="12" >13</text>
<text x="97.207799" y="139.970787" fill="rgb(255,0,0)"  stroke="rgb(255,0,0)" stroke-width="1" font-size="12" >14</text>
<text x="59.069266" y="139.970787" fill="rgb(255,0,0)"  stroke="rgb(255,0,0)" stroke-width="1" font-size="12" >15</text>
<text x="40.000000" y="172.999725" fill="rgb(255,0,0)"  stroke="rgb(255,0,0)" stroke-width="1" font-size="12" >16</text>
<text x="230.924462" y="106.806931" fill="rgb(255,0,0)"  stroke="rgb(255,0,0)" stroke-width="1" font-size="12" >17</text>
<text x="230.924462" y="144.945463" fill="rgb(255,0,0)"  stroke="rgb(255,0,0)" stroke-width="1" font-size="12" >18</text>
<text x="263.953400" y="164.014729" fill="rgb(255,0,0)"  stroke="rgb(255,0,0)" stroke-width="1" font-size="12" >19</text>
<text x="263.953400" y="202.153261" fill="rgb(255,0,0)"  stroke="rgb(255,0,0)" stroke-width="1" font-size="12" >20</text>
<text x="296.982338" y="221.222528" fill="rgb(255,0,0)"  stroke="rgb(255,0,0)" stroke-width="1" font-size="12" >21</text>
<text x="296.982338" y="259.361060" fill="rgb(255,0,0)"  stroke="rgb(255,0,0)" stroke-width="1" font-size="12" >22</text>
<text x="330.011276" y="278.430326" fill="rgb(255,0,0)"  stroke="rgb(255,0,0)" stroke-width="1" font-size="12" >23</text>
<text x="269.515017" y="106.806931" fill="rgb(255,0,0)"  stroke="rgb(255,0,0)" stroke-width="1" font-size="12" >24</text>
<text font-size="18.000000" fill ="black" font-family="sans-serif"
x="140.000000" y="20.000000" ></text>
<title> - OBDepict</title>
</svg>
