<?xml version="1.0"?>
<svg xmlns="http://www.w3.org/2000/svg"
xmlns:xlink="http://www.w3.org/1999/xlink" xmlns:cml="http://www.xml-cml.org/schema" x="0" y="0" font-family="sans-serif" stroke="rgb(0,0,0)" stroke-width="1" viewBox="0 0 395.624 317.969" width="316.4992" height="254.3752">
<line x1="236.8" y1="116.1" x2="246.7" y2="133.5"/>
<line x1="262.8" y1="143.0" x2="293.7" y2="143.4"/>
<line x1="293.7" y1="143.4" x2="314.0" y2="179.8"/>
<line x1="314.0" y1="179.8" x2="344.8" y2="180.2"/>
<line x1="135.2" y1="73.8" x2="97.1" y2="73.8"/>
<line x1="97.1" y1="73.8" x2="78.1" y2="106.8"/>
<line x1="78.1" y1="109.8" x2="49.9" y2="109.8"/>
<line x1="78.1" y1="103.8" x2="49.9" y2="103.8"/>
<line x1="78.1" y1="106.8" x2="97.1" y2="139.8"/>
<line x1="97.1" y1="139.8" x2="83.0" y2="164.2"/>
<line x1="154.4" y1="106.7" x2="154.4" y2="144.7"/>
<line x1="154.4" y1="144.7" x2="187.4" y2="163.8"/>
<line x1="187.4" y1="163.8" x2="187.4" y2="201.8"/>
<line x1="187.4" y1="201.8" x2="220.4" y2="220.9"/>
<line x1="220.4" y1="220.9" x2="220.4" y2="249.0"/>
<line x1="228.9" y1="263.9" x2="244.7" y2="273.0"/>
<line x1="236.5" y1="97.9" x2="245.7" y2="81.6"/>
<line x1="245.7" y1="64.3" x2="231.4" y2="40.0"/>
<line x1="238.4" y1="66.0" x2="228.3" y2="48.8"/>
<line x1="231.4" y1="40.0" x2="203.0" y2="40.0"/>
<line x1="192.9" y1="57.3" x2="192.9" y2="106.7"/>
<line x1="192.9" y1="106.7" x2="221.4" y2="106.7"/>
<line x1="149.4" y1="48.8" x2="135.2" y2="73.8"/>
<line x1="154.6" y1="54.2" x2="144.4" y2="72.2"/>
<line x1="135.2" y1="73.8" x2="154.4" y2="106.7"/>
<line x1="154.4" y1="106.7" x2="192.9" y2="106.7"/>
<line x1="182.9" y1="40.0" x2="164.4" y2="40.0"/>
<text x="227.845709" y="114.997641" fill="rgb(12,12,255)"  stroke="rgb(12,12,255)" stroke-width="1" font-size="16" >N</text>
<text x="236.422477" y="147.675451" fill="rgb(12,12,255)"  stroke="rgb(12,12,255)" stroke-width="1" font-size="16" >HN</text>
<text x="349.623930" y="185.125858" fill="rgb(255,12,12)"  stroke="rgb(255,12,12)" stroke-width="1" font-size="16" >OH</text>
<text x="244.709423" y="81.150360" fill="rgb(12,12,255)"  stroke="rgb(12,12,255)" stroke-width="1" font-size="16" >N</text>
<text x="186.941394" y="48.320000" fill="rgb(12,12,255)"  stroke="rgb(12,12,255)" stroke-width="1" font-size="16" >N</text>
<text x="150.825523" y="48.320000" fill="rgb(12,12,255)"  stroke="rgb(12,12,255)" stroke-width="1" font-size="16" >N</text>
<text x="36.400000" y="111.612298" fill="rgb(255,12,12)"  stroke="rgb(255,12,12)" stroke-width="1" font-size="16" >O</text>
<text x="54.464724" y="177.542334" fill="rgb(102,102,102)"  stroke="rgb(102,102,102)" stroke-width="1" font-size="16" >H</text>
<text x="66.464724" y="182.342334" fill="rgb(102,102,102)"  stroke="rgb(102,102,102)" stroke-width="1" font-size="13" >3</text>
<text x="72.964724" y="177.542334" fill="rgb(102,102,102)"  stroke="rgb(102,102,102)" stroke-width="1" font-size="16" >C</text>
<text x="204.755558" y="263.736536" fill="rgb(12,12,255)"  stroke="rgb(12,12,255)" stroke-width="1" font-size="16" >HN</text>
<text x="247.320576" y="282.768898" fill="rgb(102,102,102)"  stroke="rgb(102,102,102)" stroke-width="1" font-size="16" >CH</text>
<text x="271.320576" y="287.568898" fill="rgb(102,102,102)"  stroke="rgb(102,102,102)" stroke-width="1" font-size="13" >3</text>
<text x="231.445709" y="106.677641" fill="rgb(255,0,0)"  stroke="rgb(255,0,0)" stroke-width="1" font-size="12" >1</text>
<text x="252.022477" y="142.875451" fill="rgb(255,0,0)"  stroke="rgb(255,0,0)" stroke-width="1" font-size="12" >2</text>
<text x="293.656283" y="143.433241" fill="rgb(255,0,0)"  stroke="rgb(255,0,0)" stroke-width="1" font-size="12" >3</text>
<text x="313.990125" y="179.768068" fill="rgb(255,0,0)"  stroke="rgb(255,0,0)" stroke-width="1" font-size="12" >4</text>
<text x="355.623930" y="180.325858" fill="rgb(255,0,0)"  stroke="rgb(255,0,0)" stroke-width="1" font-size="12" >5</text>
<text x="250.709423" y="72.830360" fill="rgb(255,0,0)"  stroke="rgb(255,0,0)" stroke-width="1" font-size="12" >6</text>
<text x="231.445709" y="40.000000" fill="rgb(255,0,0)"  stroke="rgb(255,0,0)" stroke-width="1" font-size="12" >7</text>
<text x="192.941394" y="40.000000" fill="rgb(255,0,0)"  stroke="rgb(255,0,0)" stroke-width="1" font-size="12" >8</text>
<text x="154.425523" y="40.000000" fill="rgb(255,0,0)"  stroke="rgb(255,0,0)" stroke-width="1" font-size="12" >9</text>
<text x="135.161809" y="73.847281" fill="rgb(255,0,0)"  stroke="rgb(255,0,0)" stroke-width="1" font-size="12" >10</text>
<text x="97.097086" y="73.847281" fill="rgb(255,0,0)"  stroke="rgb(255,0,0)" stroke-width="1" font-size="12" >11</text>
<text x="78.064724" y="106.812298" fill="rgb(255,0,0)"  stroke="rgb(255,0,0)" stroke-width="1" font-size="12" >12</text>
<text x="40.000000" y="106.812298" fill="rgb(255,0,0)"  stroke="rgb(255,0,0)" stroke-width="1" font-size="12" >13</text>
<text x="97.097086" y="139.777316" fill="rgb(255,0,0)"  stroke="rgb(255,0,0)" stroke-width="1" font-size="12" >14</text>
<text x="78.064724" y="172.742334" fill="rgb(255,0,0)"  stroke="rgb(255,0,0)" stroke-width="1" font-size="12" >15</text>
<text x="154.425523" y="106.677641" fill="rgb(255,0,0)"  stroke="rgb(255,0,0)" stroke-width="1" font-size="12" >16</text>
<text x="154.425523" y="144.742364" fill="rgb(255,0,0)"  stroke="rgb(255,0,0)" stroke-width="1" font-size="12" >17</text>
<text x="187.390541" y="163.774726" fill="rgb(255,0,0)"  stroke="rgb(255,0,0)" stroke-width="1" font-size="12" >18</text>
<text x="187.390541" y="201.839450" fill="rgb(255,0,0)"  stroke="rgb(255,0,0)" stroke-width="1" font-size="12" >19</text>
<text x="220.355558" y="220.871812" fill="rgb(255,0,0)"  stroke="rgb(255,0,0)" stroke-width="1" font-size="12" >20</text>
<text x="220.355558" y="258.936536" fill="rgb(255,0,0)"  stroke="rgb(255,0,0)" stroke-width="1" font-size="12" >21</text>
<text x="253.320576" y="277.968898" fill="rgb(255,0,0)"  stroke="rgb(255,0,0)" stroke-width="1" font-size="12" >22</text>
<text x="192.941394" y="106.677641" fill="rgb(255,0,0)"  stroke="rgb(255,0,0)" stroke-width="1" font-size="12" >23</text>
<text font-size="18.000000" fill ="black" font-family="sans-serif"
x="140.000000" y="20.000000" ></text>
<title> - OBDepict</title>
</svg>
