<?xml version="1.0"?>
<svg xmlns="http://www.w3.org/2000/svg"
xmlns:xlink="http://www.w3.org/1999/xlink" xmlns:cml="http://www.xml-cml.org/schema" width="388.676" height="291.687" x="0" y="0" font-family="sans-serif" stroke="rgb(0,0,0)" stroke-width="1" >
<line x1="230.6" y1="147.5" x2="245.7" y2="174.2"/>
<line x1="245.7" y1="174.2" x2="287.1" y2="174.7"/>
<line x1="284.5" y1="173.2" x2="300.2" y2="146.9"/>
<line x1="289.7" y1="176.2" x2="305.3" y2="149.9"/>
<line x1="287.1" y1="174.7" x2="307.3" y2="210.8"/>
<line x1="307.3" y1="210.8" x2="337.9" y2="211.2"/>
<line x1="129.5" y1="105.5" x2="91.7" y2="105.5"/>
<line x1="91.7" y1="105.5" x2="72.8" y2="72.8"/>
<line x1="72.8" y1="72.8" x2="48.5" y2="58.8"/>
<line x1="72.8" y1="72.8" x2="48.5" y2="86.8"/>
<line x1="72.8" y1="72.8" x2="86.8" y2="48.5"/>
<line x1="148.7" y1="138.2" x2="148.7" y2="176.0"/>
<line x1="148.7" y1="176.0" x2="181.4" y2="194.9"/>
<line x1="181.4" y1="194.9" x2="181.4" y2="222.9"/>
<line x1="190.0" y1="237.7" x2="205.7" y2="246.8"/>
<line x1="230.2" y1="129.4" x2="239.4" y2="113.3"/>
<line x1="239.4" y1="96.0" x2="225.2" y2="71.9"/>
<line x1="232.1" y1="97.8" x2="222.1" y2="80.7"/>
<line x1="225.2" y1="71.9" x2="196.9" y2="71.9"/>
<line x1="187.0" y1="89.1" x2="187.0" y2="138.2"/>
<line x1="187.0" y1="138.2" x2="215.3" y2="138.2"/>
<line x1="143.7" y1="80.6" x2="129.5" y2="105.5"/>
<line x1="148.9" y1="86.1" x2="138.8" y2="103.9"/>
<line x1="129.5" y1="105.5" x2="148.7" y2="138.2"/>
<line x1="148.7" y1="138.2" x2="187.0" y2="138.2"/>
<line x1="177.0" y1="71.9" x2="158.6" y2="71.9"/>
<text x="221.636979" y="146.492630" fill="rgb(12,12,255)"  stroke="rgb(12,12,255)" stroke-width="1" font-size="16" >N</text>
<text x="302.250508" y="147.465368" fill="rgb(255,12,12)"  stroke="rgb(255,12,12)" stroke-width="1" font-size="16" >O</text>
<text x="342.676162" y="216.182536" fill="rgb(102,102,102)"  stroke="rgb(102,102,102)" stroke-width="1" font-size="16" >CH</text>
<text x="366.676162" y="220.982536" fill="rgb(102,102,102)"  stroke="rgb(102,102,102)" stroke-width="1" font-size="13" >3</text>
<text x="238.386046" y="112.846789" fill="rgb(12,12,255)"  stroke="rgb(12,12,255)" stroke-width="1" font-size="16" >N</text>
<text x="180.961819" y="80.211817" fill="rgb(12,12,255)"  stroke="rgb(12,12,255)" stroke-width="1" font-size="16" >N</text>
<text x="145.075172" y="80.211817" fill="rgb(12,12,255)"  stroke="rgb(12,12,255)" stroke-width="1" font-size="16" >N</text>
<text x="16.400000" y="62.169737" fill="rgb(102,102,102)"  stroke="rgb(102,102,102)" stroke-width="1" font-size="16" >H</text>
<text x="28.400000" y="69.849737" fill="rgb(102,102,102)"  stroke="rgb(102,102,102)" stroke-width="1" font-size="13" >3</text>
<text x="34.900000" y="62.169737" fill="rgb(102,102,102)"  stroke="rgb(102,102,102)" stroke-width="1" font-size="16" >C</text>
<text x="16.400000" y="96.487921" fill="rgb(102,102,102)"  stroke="rgb(102,102,102)" stroke-width="1" font-size="16" >H</text>
<text x="28.400000" y="101.287921" fill="rgb(102,102,102)"  stroke="rgb(102,102,102)" stroke-width="1" font-size="13" >3</text>
<text x="34.900000" y="96.487921" fill="rgb(102,102,102)"  stroke="rgb(102,102,102)" stroke-width="1" font-size="16" >C</text>
<text x="85.687921" y="48.320000" fill="rgb(255,12,12)"  stroke="rgb(255,12,12)" stroke-width="1" font-size="16" >OH</text>
<text x="165.844001" y="237.568091" fill="rgb(12,12,255)"  stroke="rgb(12,12,255)" stroke-width="1" font-size="16" >HN</text>
<text x="208.212830" y="256.487183" fill="rgb(102,102,102)"  stroke="rgb(102,102,102)" stroke-width="1" font-size="16" >CH</text>
<text x="232.212830" y="261.287183" fill="rgb(102,102,102)"  stroke="rgb(102,102,102)" stroke-width="1" font-size="13" >3</text>
<text x="225.236979" y="138.172630" fill="rgb(255,0,0)"  stroke="rgb(255,0,0)" stroke-width="1" font-size="12" >1</text>
<text x="245.691286" y="174.155012" fill="rgb(255,0,0)"  stroke="rgb(255,0,0)" stroke-width="1" font-size="12" >2</text>
<text x="287.077310" y="174.709482" fill="rgb(255,0,0)"  stroke="rgb(255,0,0)" stroke-width="1" font-size="12" >3</text>
<text x="308.250508" y="139.145368" fill="rgb(255,0,0)"  stroke="rgb(255,0,0)" stroke-width="1" font-size="12" >4</text>
<text x="307.290137" y="210.828066" fill="rgb(255,0,0)"  stroke="rgb(255,0,0)" stroke-width="1" font-size="12" >5</text>
<text x="348.676162" y="211.382536" fill="rgb(255,0,0)"  stroke="rgb(255,0,0)" stroke-width="1" font-size="12" >6</text>
<text x="244.386046" y="104.526789" fill="rgb(255,0,0)"  stroke="rgb(255,0,0)" stroke-width="1" font-size="12" >7</text>
<text x="225.236979" y="71.891817" fill="rgb(255,0,0)"  stroke="rgb(255,0,0)" stroke-width="1" font-size="12" >8</text>
<text x="186.961819" y="71.891817" fill="rgb(255,0,0)"  stroke="rgb(255,0,0)" stroke-width="1" font-size="12" >9</text>
<text x="148.675172" y="71.891817" fill="rgb(255,0,0)"  stroke="rgb(255,0,0)" stroke-width="1" font-size="12" >10</text>
<text x="129.526105" y="105.537658" fill="rgb(255,0,0)"  stroke="rgb(255,0,0)" stroke-width="1" font-size="12" >11</text>
<text x="91.687921" y="105.537658" fill="rgb(255,0,0)"  stroke="rgb(255,0,0)" stroke-width="1" font-size="12" >12</text>
<text x="72.768829" y="72.768829" fill="rgb(255,0,0)"  stroke="rgb(255,0,0)" stroke-width="1" font-size="12" >13</text>
<text x="40.000000" y="53.849737" fill="rgb(255,0,0)"  stroke="rgb(255,0,0)" stroke-width="1" font-size="12" >14</text>
<text x="40.000000" y="91.687921" fill="rgb(255,0,0)"  stroke="rgb(255,0,0)" stroke-width="1" font-size="12" >15</text>
<text x="91.687921" y="40.000000" fill="rgb(255,0,0)"  stroke="rgb(255,0,0)" stroke-width="1" font-size="12" >16</text>
<text x="148.675172" y="138.172630" fill="rgb(255,0,0)"  stroke="rgb(255,0,0)" stroke-width="1" font-size="12" >17</text>
<text x="148.675172" y="176.010815" fill="rgb(255,0,0)"  stroke="rgb(255,0,0)" stroke-width="1" font-size="12" >18</text>
<text x="181.444001" y="194.929907" fill="rgb(255,0,0)"  stroke="rgb(255,0,0)" stroke-width="1" font-size="12" >19</text>
<text x="181.444001" y="232.768091" fill="rgb(255,0,0)"  stroke="rgb(255,0,0)" stroke-width="1" font-size="12" >20</text>
<text x="214.212830" y="251.687183" fill="rgb(255,0,0)"  stroke="rgb(255,0,0)" stroke-width="1" font-size="12" >21</text>
<text x="186.961819" y="138.172630" fill="rgb(255,0,0)"  stroke="rgb(255,0,0)" stroke-width="1" font-size="12" >22</text>
<text font-size="18.000000" fill ="black" font-family="sans-serif"
x="140.000000" y="20.000000" ></text>
<title> - OBDepict</title>
</svg>
