<?xml version="1.0"?>
<svg xmlns="http://www.w3.org/2000/svg"
xmlns:xlink="http://www.w3.org/1999/xlink" xmlns:cml="http://www.xml-cml.org/schema" x="0" y="0" font-family="sans-serif" stroke="rgb(0,0,0)" stroke-width="1" viewBox="0 0 323.394 252.357" width="258.7152" height="201.8856">
<line x1="255.0" y1="115.8" x2="270.2" y2="142.5"/>
<line x1="270.2" y1="142.5" x2="249.5" y2="178.4"/>
<line x1="249.5" y1="178.4" x2="274.6" y2="196.1"/>
<line x1="249.5" y1="178.4" x2="218.9" y2="175.7"/>
<line x1="249.5" y1="178.4" x2="231.8" y2="203.5"/>
<line x1="153.8" y1="73.7" x2="115.8" y2="73.7"/>
<line x1="115.8" y1="73.7" x2="101.8" y2="98.0"/>
<line x1="87.0" y1="106.6" x2="59.0" y2="106.6"/>
<line x1="59.0" y1="106.6" x2="44.9" y2="82.3"/>
<line x1="59.0" y1="106.6" x2="44.9" y2="130.9"/>
<line x1="173.0" y1="106.4" x2="173.0" y2="144.4"/>
<line x1="173.0" y1="144.4" x2="140.1" y2="163.3"/>
<line x1="140.1" y1="163.3" x2="126.1" y2="187.6"/>
<line x1="140.1" y1="163.3" x2="154.2" y2="187.6"/>
<line x1="140.1" y1="163.3" x2="115.8" y2="149.3"/>
<line x1="254.7" y1="97.7" x2="263.9" y2="81.5"/>
<line x1="263.9" y1="64.2" x2="249.7" y2="40.0"/>
<line x1="256.6" y1="65.9" x2="246.5" y2="48.8"/>
<line x1="249.7" y1="40.0" x2="221.3" y2="40.0"/>
<line x1="211.3" y1="57.3" x2="211.3" y2="106.4"/>
<line x1="211.3" y1="106.4" x2="239.7" y2="106.4"/>
<line x1="168.0" y1="48.8" x2="153.8" y2="73.7"/>
<line x1="173.2" y1="54.2" x2="163.0" y2="72.1"/>
<line x1="153.8" y1="73.7" x2="173.0" y2="106.4"/>
<line x1="173.0" y1="106.4" x2="211.3" y2="106.4"/>
<line x1="201.4" y1="40.0" x2="182.9" y2="40.0"/>
<text x="246.097643" y="114.750408" fill="rgb(12,12,255)"  stroke="rgb(12,12,255)" stroke-width="1" font-size="16" >N</text>
<text x="277.394341" y="207.074813" fill="rgb(102,102,102)"  stroke="rgb(102,102,102)" stroke-width="1" font-size="16" >CH</text>
<text x="301.394341" y="211.874813" fill="rgb(102,102,102)"  stroke="rgb(102,102,102)" stroke-width="1" font-size="13" >3</text>
<text x="184.537864" y="183.049031" fill="rgb(102,102,102)"  stroke="rgb(102,102,102)" stroke-width="1" font-size="16" >H</text>
<text x="196.537864" y="190.729031" fill="rgb(102,102,102)"  stroke="rgb(102,102,102)" stroke-width="1" font-size="13" >3</text>
<text x="203.037864" y="183.049031" fill="rgb(102,102,102)"  stroke="rgb(102,102,102)" stroke-width="1" font-size="16" >C</text>
<text x="210.001190" y="217.157269" fill="rgb(255,12,12)"  stroke="rgb(255,12,12)" stroke-width="1" font-size="16" >HO</text>
<text x="262.889928" y="81.028629" fill="rgb(12,12,255)"  stroke="rgb(12,12,255)" stroke-width="1" font-size="16" >N</text>
<text x="205.336097" y="48.320000" fill="rgb(12,12,255)"  stroke="rgb(12,12,255)" stroke-width="1" font-size="16" >N</text>
<text x="169.363038" y="48.320000" fill="rgb(12,12,255)"  stroke="rgb(12,12,255)" stroke-width="1" font-size="16" >N</text>
<text x="90.885376" y="111.364566" fill="rgb(255,12,12)"  stroke="rgb(255,12,12)" stroke-width="1" font-size="16" >O</text>
<text x="16.400000" y="82.041779" fill="rgb(102,102,102)"  stroke="rgb(102,102,102)" stroke-width="1" font-size="16" >H</text>
<text x="28.400000" y="89.721779" fill="rgb(102,102,102)"  stroke="rgb(102,102,102)" stroke-width="1" font-size="13" >3</text>
<text x="34.900000" y="82.041779" fill="rgb(102,102,102)"  stroke="rgb(102,102,102)" stroke-width="1" font-size="16" >C</text>
<text x="16.400000" y="144.207353" fill="rgb(102,102,102)"  stroke="rgb(102,102,102)" stroke-width="1" font-size="16" >H</text>
<text x="28.400000" y="149.007353" fill="rgb(102,102,102)"  stroke="rgb(102,102,102)" stroke-width="1" font-size="13" >3</text>
<text x="34.900000" y="144.207353" fill="rgb(102,102,102)"  stroke="rgb(102,102,102)" stroke-width="1" font-size="16" >C</text>
<text x="97.558459" y="200.958571" fill="rgb(102,102,102)"  stroke="rgb(102,102,102)" stroke-width="1" font-size="16" >H</text>
<text x="109.558459" y="205.758571" fill="rgb(102,102,102)"  stroke="rgb(102,102,102)" stroke-width="1" font-size="13" >3</text>
<text x="116.058459" y="200.958571" fill="rgb(102,102,102)"  stroke="rgb(102,102,102)" stroke-width="1" font-size="16" >C</text>
<text x="153.082043" y="200.958571" fill="rgb(102,102,102)"  stroke="rgb(102,102,102)" stroke-width="1" font-size="16" >CH</text>
<text x="177.082043" y="205.758571" fill="rgb(102,102,102)"  stroke="rgb(102,102,102)" stroke-width="1" font-size="13" >3</text>
<text x="91.677464" y="152.673992" fill="rgb(255,12,12)"  stroke="rgb(255,12,12)" stroke-width="1" font-size="16" >HO</text>
<text x="249.697643" y="106.430408" fill="rgb(255,0,0)"  stroke="rgb(255,0,0)" stroke-width="1" font-size="12" >1</text>
<text x="270.198114" y="142.494001" fill="rgb(255,0,0)"  stroke="rgb(255,0,0)" stroke-width="1" font-size="12" >2</text>
<text x="249.456537" y="178.419466" fill="rgb(255,0,0)"  stroke="rgb(255,0,0)" stroke-width="1" font-size="12" >3</text>
<text x="283.394341" y="202.274813" fill="rgb(255,0,0)"  stroke="rgb(255,0,0)" stroke-width="1" font-size="12" >4</text>
<text x="208.137864" y="174.729031" fill="rgb(255,0,0)"  stroke="rgb(255,0,0)" stroke-width="1" font-size="12" >5</text>
<text x="225.601190" y="212.357269" fill="rgb(255,0,0)"  stroke="rgb(255,0,0)" stroke-width="1" font-size="12" >6</text>
<text x="268.889928" y="72.708629" fill="rgb(255,0,0)"  stroke="rgb(255,0,0)" stroke-width="1" font-size="12" >7</text>
<text x="249.697643" y="40.000000" fill="rgb(255,0,0)"  stroke="rgb(255,0,0)" stroke-width="1" font-size="12" >8</text>
<text x="211.336097" y="40.000000" fill="rgb(255,0,0)"  stroke="rgb(255,0,0)" stroke-width="1" font-size="12" >9</text>
<text x="172.963038" y="40.000000" fill="rgb(255,0,0)"  stroke="rgb(255,0,0)" stroke-width="1" font-size="12" >10</text>
<text x="153.770752" y="73.721779" fill="rgb(255,0,0)"  stroke="rgb(255,0,0)" stroke-width="1" font-size="12" >11</text>
<text x="115.847168" y="73.721779" fill="rgb(255,0,0)"  stroke="rgb(255,0,0)" stroke-width="1" font-size="12" >12</text>
<text x="96.885376" y="106.564566" fill="rgb(255,0,0)"  stroke="rgb(255,0,0)" stroke-width="1" font-size="12" >13</text>
<text x="58.961792" y="106.564566" fill="rgb(255,0,0)"  stroke="rgb(255,0,0)" stroke-width="1" font-size="12" >14</text>
<text x="40.000000" y="73.721779" fill="rgb(255,0,0)"  stroke="rgb(255,0,0)" stroke-width="1" font-size="12" >15</text>
<text x="40.000000" y="139.407353" fill="rgb(255,0,0)"  stroke="rgb(255,0,0)" stroke-width="1" font-size="12" >16</text>
<text x="172.963038" y="106.430408" fill="rgb(255,0,0)"  stroke="rgb(255,0,0)" stroke-width="1" font-size="12" >17</text>
<text x="172.963038" y="144.353992" fill="rgb(255,0,0)"  stroke="rgb(255,0,0)" stroke-width="1" font-size="12" >18</text>
<text x="140.120251" y="163.315784" fill="rgb(255,0,0)"  stroke="rgb(255,0,0)" stroke-width="1" font-size="12" >19</text>
<text x="121.158459" y="196.158571" fill="rgb(255,0,0)"  stroke="rgb(255,0,0)" stroke-width="1" font-size="12" >20</text>
<text x="159.082043" y="196.158571" fill="rgb(255,0,0)"  stroke="rgb(255,0,0)" stroke-width="1" font-size="12" >21</text>
<text x="107.277464" y="144.353992" fill="rgb(255,0,0)"  stroke="rgb(255,0,0)" stroke-width="1" font-size="12" >22</text>
<text x="211.336097" y="106.430408" fill="rgb(255,0,0)"  stroke="rgb(255,0,0)" stroke-width="1" font-size="12" >23</text>
<text font-size="18.000000" fill ="black" font-family="sans-serif"
x="140.000000" y="20.000000" ></text>
<title> - OBDepict</title>
</svg>
