<?xml version="1.0"?>
<svg xmlns="http://www.w3.org/2000/svg"
xmlns:xlink="http://www.w3.org/1999/xlink" xmlns:cml="http://www.xml-cml.org/schema" width="337.594" height="295.185" x="0" y="0" font-family="sans-serif" stroke="rgb(0,0,0)" stroke-width="1" >
<line x1="180.8" y1="114.8" x2="195.8" y2="141.1"/>
<line x1="195.8" y1="141.1" x2="236.7" y2="141.7"/>
<line x1="236.7" y1="141.7" x2="251.5" y2="168.1"/>
<line x1="267.3" y1="177.5" x2="287.0" y2="177.8"/>
<line x1="80.9" y1="73.3" x2="50.6" y2="74.1"/>
<line x1="99.8" y1="105.5" x2="99.8" y2="142.9"/>
<line x1="99.8" y1="142.9" x2="132.2" y2="161.7"/>
<line x1="132.2" y1="161.7" x2="132.2" y2="199.1"/>
<line x1="132.2" y1="199.1" x2="156.2" y2="212.9"/>
<line x1="164.6" y1="227.5" x2="164.6" y2="245.5"/>
<line x1="180.5" y1="96.9" x2="189.6" y2="80.9"/>
<line x1="189.6" y1="63.9" x2="175.5" y2="40.0"/>
<line x1="182.2" y1="65.6" x2="172.4" y2="48.8"/>
<line x1="175.5" y1="40.0" x2="147.5" y2="40.0"/>
<line x1="137.7" y1="57.0" x2="137.7" y2="105.5"/>
<line x1="137.7" y1="105.5" x2="165.7" y2="105.5"/>
<line x1="94.9" y1="48.6" x2="80.9" y2="73.3"/>
<line x1="100.1" y1="54.1" x2="90.1" y2="71.6"/>
<line x1="80.9" y1="73.3" x2="99.8" y2="105.5"/>
<line x1="99.8" y1="105.5" x2="137.7" y2="105.5"/>
<line x1="127.9" y1="40.0" x2="109.7" y2="40.0"/>
<text x="171.943985" y="113.855156" fill="rgb(12,12,255)"  stroke="rgb(12,12,255)" stroke-width="1" font-size="16" >N</text>
<text x="241.074048" y="182.173220" fill="rgb(12,12,255)"  stroke="rgb(12,12,255)" stroke-width="1" font-size="16" >HN</text>
<text x="291.594481" y="182.721452" fill="rgb(102,102,102)"  stroke="rgb(102,102,102)" stroke-width="1" font-size="16" >CH</text>
<text x="315.594481" y="187.521452" fill="rgb(102,102,102)"  stroke="rgb(102,102,102)" stroke-width="1" font-size="13" >3</text>
<text x="188.477626" y="80.587830" fill="rgb(12,12,255)"  stroke="rgb(12,12,255)" stroke-width="1" font-size="16" >N</text>
<text x="131.699420" y="48.320000" fill="rgb(12,12,255)"  stroke="rgb(12,12,255)" stroke-width="1" font-size="16" >N</text>
<text x="96.243497" y="48.320000" fill="rgb(12,12,255)"  stroke="rgb(12,12,255)" stroke-width="1" font-size="16" >N</text>
<text x="24.400000" y="79.147130" fill="rgb(124,127,175)"  stroke="rgb(124,127,175)" stroke-width="1" font-size="16" >R</text>
<text x="158.643858" y="226.092673" fill="rgb(12,12,255)"  stroke="rgb(12,12,255)" stroke-width="1" font-size="16" >NH</text>
<text x="158.643858" y="259.985179" fill="rgb(102,102,102)"  stroke="rgb(102,102,102)" stroke-width="1" font-size="16" >CH</text>
<text x="182.643858" y="264.785179" fill="rgb(102,102,102)"  stroke="rgb(102,102,102)" stroke-width="1" font-size="13" >3</text>
<text x="175.543985" y="105.535156" fill="rgb(255,0,0)"  stroke="rgb(255,0,0)" stroke-width="1" font-size="12" >1</text>
<text x="195.768182" y="141.112737" fill="rgb(255,0,0)"  stroke="rgb(255,0,0)" stroke-width="1" font-size="12" >2</text>
<text x="236.688615" y="141.660969" fill="rgb(255,0,0)"  stroke="rgb(255,0,0)" stroke-width="1" font-size="12" >3</text>
<text x="256.674048" y="177.373220" fill="rgb(255,0,0)"  stroke="rgb(255,0,0)" stroke-width="1" font-size="12" >4</text>
<text x="297.594481" y="177.921452" fill="rgb(255,0,0)"  stroke="rgb(255,0,0)" stroke-width="1" font-size="12" >5</text>
<text x="194.477626" y="72.267830" fill="rgb(255,0,0)"  stroke="rgb(255,0,0)" stroke-width="1" font-size="12" >6</text>
<text x="175.543985" y="40.000000" fill="rgb(255,0,0)"  stroke="rgb(255,0,0)" stroke-width="1" font-size="12" >7</text>
<text x="137.699420" y="40.000000" fill="rgb(255,0,0)"  stroke="rgb(255,0,0)" stroke-width="1" font-size="12" >8</text>
<text x="99.843497" y="40.000000" fill="rgb(255,0,0)"  stroke="rgb(255,0,0)" stroke-width="1" font-size="12" >9</text>
<text x="80.909857" y="73.267326" fill="rgb(255,0,0)"  stroke="rgb(255,0,0)" stroke-width="1" font-size="12" >10</text>
<text x="40.000000" y="74.347130" fill="rgb(255,0,0)"  stroke="rgb(255,0,0)" stroke-width="1" font-size="12" >11</text>
<text x="99.843497" y="105.535156" fill="rgb(255,0,0)"  stroke="rgb(255,0,0)" stroke-width="1" font-size="12" >12</text>
<text x="99.843497" y="142.947662" fill="rgb(255,0,0)"  stroke="rgb(255,0,0)" stroke-width="1" font-size="12" >13</text>
<text x="132.243678" y="161.653915" fill="rgb(255,0,0)"  stroke="rgb(255,0,0)" stroke-width="1" font-size="12" >14</text>
<text x="132.243678" y="199.066420" fill="rgb(255,0,0)"  stroke="rgb(255,0,0)" stroke-width="1" font-size="12" >15</text>
<text x="164.643858" y="217.772673" fill="rgb(255,0,0)"  stroke="rgb(255,0,0)" stroke-width="1" font-size="12" >16</text>
<text x="164.643858" y="255.185179" fill="rgb(255,0,0)"  stroke="rgb(255,0,0)" stroke-width="1" font-size="12" >17</text>
<text x="137.699420" y="105.535156" fill="rgb(255,0,0)"  stroke="rgb(255,0,0)" stroke-width="1" font-size="12" >18</text>
<text font-size="18.000000" fill ="black" font-family="sans-serif"
x="140.000000" y="20.000000" ></text>
<title> - OBDepict</title>
</svg>
