<?xml version="1.0" encoding="UTF-8" standalone="no"?>
<!-- Created with Inkscape (http://www.inkscape.org/) -->
<svg id="svg2" xmlns:rdf="http://www.w3.org/1999/02/22-rdf-syntax-ns#" xmlns="http://www.w3.org/2000/svg" height="102.83" width="181.54" version="1.1" xmlns:cc="http://creativecommons.org/ns#" xmlns:dc="http://purl.org/dc/elements/1.1/">
 <metadata id="metadata7">
  <rdf:RDF>
   <cc:Work rdf:about="">
    <dc:format>image/svg+xml</dc:format>
    <dc:type rdf:resource="http://purl.org/dc/dcmitype/StillImage"/>
    <dc:title/>
   </cc:Work>
  </rdf:RDF>
 </metadata>
 <g id="layer1" transform="translate(-177.96006,-274.603)">
  <text id="text2997" style="letter-spacing:0px;word-spacing:0px;" font-weight="normal" xml:space="preserve" transform="matrix(0.99989454,-0.0145224,0.0145224,0.99989454,0,0)" font-size="40px" font-style="normal" y="294.23743" x="314.97217" font-family="Sans" line-height="125%" fill="#000000"><tspan id="tspan2999" font-size="20px" dy="0 0 9.5964479" y="294.23743" x="314.97217">CH3</tspan></text>
  <text id="text3001" style="letter-spacing:0px;word-spacing:0px;" font-weight="normal" xml:space="preserve" transform="matrix(0.76226143,-0.64726927,0.64726927,0.76226143,0,0)" font-size="40px" font-style="normal" y="393.90759" x="195.47617" font-family="Sans" line-height="125%" fill="#000000"><tspan id="tspan3003" x="195.47617" y="393.90759"/></text>
  <text id="text3144" style="letter-spacing:0px;word-spacing:0px;" font-weight="normal" xml:space="preserve" transform="matrix(0.76226143,-0.64726927,0.64726927,0.76226143,0,0)" font-size="40px" font-style="normal" y="351.93433" x="-27.991087" font-family="Sans" line-height="125%" fill="#000000"><tspan id="tspan3146" x="-27.991087" y="351.93433"/></text>
  <text id="text3148" style="letter-spacing:0px;word-spacing:0px;" font-family="Sans" font-weight="normal" xml:space="preserve" transform="matrix(0.99978234,0.02086306,-0.02086306,0.99978234,0,0)" font-size="40px" font-style="normal" y="312.37286" x="182.55438" ide="R" line-height="125%" fill="#000000"><tspan id="tspan3150" font-size="20px" y="312.37286" x="182.55438">R</tspan></text>
  <path id="path3185" d="m43.523,21.337c0,0.18742-0.15193,0.33935-0.33935,0.33935s-0.33935-0.15193-0.33935-0.33935,0.15193-0.33935,0.33935-0.33935,0.33935,0.15193,0.33935,0.33935z" transform="matrix(0.76226143,-0.64726927,0.64726927,0.76226143,147.02461,321.67484)" ide="marker" fill="#F00"/>
  <path id="path3407" stroke-linejoin="miter" d="m235.38,357.03-4.3726-38.395m-37.276-8.6329,37.31,8.9452,46.994-39.935,38.263,7.3244" stroke="#000" stroke-linecap="butt" stroke-width="1px" fill="none"/>
  <text id="text3410" style="letter-spacing:0px;word-spacing:0px;" font-weight="normal" xml:space="preserve" transform="matrix(0.99996199,-0.00871905,0.00871905,0.99996199,0,0)" font-size="32px" font-style="normal" y="379.09796" x="205.93687" font-family="Sans" line-height="125%" fill="#000000"><tspan id="tspan3412" font-size="20px" y="379.09796" x="205.93687">HO</tspan></text>
 </g>
</svg>
