<?xml version="1.0" encoding="UTF-8" standalone="no"?>
<!-- Created with Inkscape (http://www.inkscape.org/) -->
<svg id="svg2" xmlns:rdf="http://www.w3.org/1999/02/22-rdf-syntax-ns#" xmlns="http://www.w3.org/2000/svg" height="99.003" width="199.51" version="1.1" xmlns:cc="http://creativecommons.org/ns#" xmlns:dc="http://purl.org/dc/elements/1.1/">
 <metadata id="metadata7">
  <rdf:RDF>
   <cc:Work rdf:about="">
    <dc:format>image/svg+xml</dc:format>
    <dc:type rdf:resource="http://purl.org/dc/dcmitype/StillImage"/>
    <dc:title/>
   </cc:Work>
  </rdf:RDF>
 </metadata>
 <g id="layer1" transform="translate(-173.16183,-315.46714)">
  <text id="text2997" style="letter-spacing:0px;word-spacing:0px;" font-weight="normal" xml:space="preserve" transform="matrix(0.99989454,-0.0145224,0.0145224,0.99989454,0,0)" font-size="40px" font-style="normal" y="410.30945" x="326.46631" font-family="Sans" line-height="125%" fill="#000000"><tspan id="tspan2999" font-size="20px" dy="0 0 9.106245" y="410.30945" x="326.46631">CH3</tspan></text>
  <text id="text3001" style="letter-spacing:0px;word-spacing:0px;" font-weight="normal" xml:space="preserve" transform="matrix(0.76226143,-0.64726927,0.64726927,0.76226143,0,0)" font-size="40px" font-style="normal" y="393.90759" x="195.47617" font-family="Sans" line-height="125%" fill="#000000"><tspan id="tspan3003" x="195.47617" y="393.90759"/></text>
  <text id="text3144" style="letter-spacing:0px;word-spacing:0px;" font-weight="normal" xml:space="preserve" transform="matrix(0.76226143,-0.64726927,0.64726927,0.76226143,0,0)" font-size="40px" font-style="normal" y="351.93433" x="-27.991087" font-family="Sans" line-height="125%" fill="#000000"><tspan id="tspan3146" x="-27.991087" y="351.93433"/></text>
  <text id="text3148" style="letter-spacing:0px;word-spacing:0px;" font-family="Sans" font-weight="normal" xml:space="preserve" transform="matrix(0.99978234,0.02086306,-0.02086306,0.99978234,0,0)" font-size="40px" font-style="normal" y="326.35953" x="178.04698" ide="R" line-height="125%" fill="#000000"><tspan id="tspan3150" font-size="20px" y="326.35953" x="178.04698">R</tspan></text>
  <path id="path3185" d="m43.523,21.337c0,0.18742-0.15193,0.33935-0.33935,0.33935s-0.33935-0.15193-0.33935-0.33935,0.15193-0.33935,0.33935-0.33935,0.33935,0.15193,0.33935,0.33935z" transform="matrix(0.76226143,-0.64726927,0.64726927,0.76226143,145.59604,329.97283)" ide="marker" fill="#F00"/>
  <text id="text3410" style="letter-spacing:0px;word-spacing:0px;" font-weight="normal" xml:space="preserve" transform="matrix(0.99996199,-0.00871905,0.00871905,0.99996199,0,0)" font-size="32px" font-style="normal" y="403.61453" x="229.29039" font-family="Sans" line-height="125%" fill="#000000"><tspan id="tspan3412" font-size="20px" y="403.61453" x="229.29039">O</tspan></text>
  <path id="path5528-2" stroke-linejoin="miter" d="m192.22,318.34,38.825,0.61139,31.637,40.422m0.0476-0.0361,49.497,0.50508,22.864,27.332" stroke="#000" stroke-linecap="butt" stroke-width="1px" fill="none"/>
  <path id="path3087" stroke-linejoin="miter" d="M93.868,48.17,76.5,76.147" transform="translate(173.16183,311.32249)" stroke="#000" stroke-linecap="butt" stroke-width="1px" fill="none"/>
  <path id="path3087-1" stroke-linejoin="miter" d="m260.35,356.73-17.368,27.978" stroke="#000" stroke-linecap="butt" stroke-width="1px" fill="none"/>
 </g>
</svg>
