<?xml version="1.0" encoding="UTF-8" standalone="no"?>
<!-- Created with Inkscape (http://www.inkscape.org/) -->
<svg id="svg2" xmlns:rdf="http://www.w3.org/1999/02/22-rdf-syntax-ns#" xmlns="http://www.w3.org/2000/svg" height="82.828" width="193.4" version="1.1" xmlns:cc="http://creativecommons.org/ns#" xmlns:dc="http://purl.org/dc/elements/1.1/">
 <metadata id="metadata7">
  <rdf:RDF>
   <cc:Work rdf:about="">
    <dc:format>image/svg+xml</dc:format>
    <dc:type rdf:resource="http://purl.org/dc/dcmitype/StillImage"/>
    <dc:title/>
   </cc:Work>
  </rdf:RDF>
 </metadata>
 <g id="layer1" transform="translate(-176.66183,-310.96713)">
  <text id="text3001" style="letter-spacing:0px;word-spacing:0px;" font-weight="normal" xml:space="preserve" transform="matrix(0.76226143,-0.64726927,0.64726927,0.76226143,0,0)" font-size="40px" font-style="normal" y="393.90759" x="195.47617" font-family="Sans" line-height="125%" fill="#000000"><tspan id="tspan3003" x="195.47617" y="393.90759"/></text>
  <text id="text3144" style="letter-spacing:0px;word-spacing:0px;" font-weight="normal" xml:space="preserve" transform="matrix(0.76226143,-0.64726927,0.64726927,0.76226143,0,0)" font-size="40px" font-style="normal" y="351.93433" x="-27.991087" font-family="Sans" line-height="125%" fill="#000000"><tspan id="tspan3146" x="-27.991087" y="351.93433"/></text>
  <text id="text3148" style="letter-spacing:0px;word-spacing:0px;" font-family="Sans" font-weight="normal" xml:space="preserve" transform="matrix(0.99978234,0.02086306,-0.02086306,0.99978234,0,0)" font-size="40px" font-style="normal" y="321.78748" x="181.45233" ide="R" line-height="125%" fill="#000000"><tspan id="tspan3150" font-size="20px" y="321.78748" x="181.45233">R</tspan></text>
  <path id="path3185" d="m43.523,21.337c0,0.18742-0.15193,0.33935-0.33935,0.33935s-0.33935-0.15193-0.33935-0.33935,0.15193-0.33935,0.33935-0.33935,0.33935,0.15193,0.33935,0.33935z" transform="matrix(0.76226143,-0.64726927,0.64726927,0.76226143,146.03354,330.36346)" ide="marker" fill="#F00"/>
  <path id="path5528-2" stroke-linejoin="miter" d="m192.57,318.69,38.472,0.25784,17.506,23.47" stroke="#000" stroke-linecap="butt" stroke-width="1px" fill="none"/>
  <text id="text2997-6" style="letter-spacing:0px;word-spacing:0px;" font-weight="normal" xml:space="preserve" transform="matrix(0.99989454,-0.0145224,0.0145224,0.99989454,0,0)" font-size="40px" font-style="normal" y="389.59891" x="324.1608" font-family="Sans" line-height="125%" fill="#000000"><tspan id="tspan2999-6" font-size="20px" dy="0 0 9.106245" y="389.59891" x="324.1608">CH3</tspan></text>
  <text id="text2997-6-9" style="letter-spacing:0px;word-spacing:0px;" font-weight="normal" xml:space="preserve" transform="matrix(0.99989454,-0.0145224,0.0145224,0.99989454,0,0)" font-size="40px" font-style="normal" y="388.39395" x="285.87079" font-family="Sans" line-height="125%" fill="#000000"><tspan id="tspan2999-6-7" font-size="20px" dy="0 0" y="388.39395" x="285.87079">NH</tspan></text>
  <path id="path4611" stroke-linejoin="miter" d="m321.75,377.29,6.7175,0" stroke="#000" stroke-linecap="butt" stroke-width="1px" fill="none"/>
  <path id="path5528-2-9" stroke-linejoin="miter" d="m248.05,342.13,31.847,0.25784,17.506,23.47" stroke="#000" stroke-linecap="butt" stroke-width="1px" fill="none"/>
 </g>
</svg>
