<?xml version="1.0" encoding="UTF-8" standalone="no"?>
<!-- Created with Inkscape (http://www.inkscape.org/) -->
<svg id="svg2" xmlns:rdf="http://www.w3.org/1999/02/22-rdf-syntax-ns#" xmlns="http://www.w3.org/2000/svg" height="51.531" width="113.24" version="1.1" xmlns:cc="http://creativecommons.org/ns#" xmlns:dc="http://purl.org/dc/elements/1.1/">
 <metadata id="metadata7">
  <rdf:RDF>
   <cc:Work rdf:about="">
    <dc:format>image/svg+xml</dc:format>
    <dc:type rdf:resource="http://purl.org/dc/dcmitype/StillImage"/>
    <dc:title/>
   </cc:Work>
  </rdf:RDF>
 </metadata>
 <g id="layer1" transform="translate(-176.66183,-292.96875)">
  <text id="text3001" style="letter-spacing:0px;word-spacing:0px;" font-weight="normal" xml:space="preserve" transform="matrix(0.76226143,-0.64726927,0.64726927,0.76226143,0,0)" font-size="40px" font-style="normal" y="393.90759" x="195.47617" font-family="Sans" line-height="125%" fill="#000000"><tspan id="tspan3003" x="195.47617" y="393.90759"/></text>
  <text id="text3144" style="letter-spacing:0px;word-spacing:0px;" font-weight="normal" xml:space="preserve" transform="matrix(0.76226143,-0.64726927,0.64726927,0.76226143,0,0)" font-size="40px" font-style="normal" y="351.93433" x="-27.991087" font-family="Sans" line-height="125%" fill="#000000"><tspan id="tspan3146" x="-27.991087" y="351.93433"/></text>
  <text id="text3148" style="letter-spacing:0px;word-spacing:0px;" font-family="Sans" font-weight="normal" xml:space="preserve" transform="matrix(0.99978234,0.02086306,-0.02086306,0.99978234,0,0)" font-size="40px" font-style="normal" y="321.78748" x="181.45233" ide="R" line-height="125%" fill="#000000"><tspan id="tspan3150" font-size="20px" y="321.78748" x="181.45233">R</tspan></text>
  <path id="path3185" d="m43.523,21.337c0,0.18742-0.15193,0.33935-0.33935,0.33935s-0.33935-0.15193-0.33935-0.33935,0.15193-0.33935,0.33935-0.33935,0.33935,0.15193,0.33935,0.33935z" transform="matrix(0.76226143,-0.64726927,0.64726927,0.76226143,146.03354,330.36346)" ide="marker" fill="#F00"/>
  <path id="path5528-2" stroke-linejoin="miter" d="m192.57,318.69,38.472,0.25784" stroke="#000" stroke-linecap="butt" stroke-width="1px" fill="none"/>
  <path id="path6298" stroke-linejoin="miter" d="m247.22,339.91,25.771,0m-0.67921-42.369,12.825,21.149m-48.901-0.17067,11.49-20.86m-2.206-4.1657,29.522,0m-43.999,25.478,14.761-25.567m0.0713,50.646-14.761-25.567m58.331,0.42071-14.761-25.567m-0.0353,50.661,14.761-25.567m-43.982,25.542,29.522,0" stroke="#000" stroke-linecap="butt" stroke-width="1.03916168px" fill="none"/>
 </g>
</svg>
