<?xml version="1.0" standalone="no"?>
<!DOCTYPE svg PUBLIC "-//W3C//DTD SVG 20010904//EN"
 "http://www.w3.org/TR/2001/REC-SVG-20010904/DTD/svg10.dtd">
<svg version="1.0" xmlns="http://www.w3.org/2000/svg"
 width="256.000000pt" height="256.000000pt" viewBox="0 0 256.000000 256.000000"
 preserveAspectRatio="xMidYMid meet">
<metadata>
Created by potrace 1.11, written by Peter Selinger 2001-2013
</metadata>
<g transform="translate(0.000000,256.000000) scale(0.100000,-0.100000)"
fill="#000000" stroke="none">
<path d="M1209 2494 c-41 -12 -84 -52 -378 -345 -195 -195 -341 -349 -352
-372 -28 -53 -26 -117 3 -175 l23 -47 -23 -47 c-31 -63 -31 -126 1 -188 23
-43 23 -49 9 -63 -8 -9 -21 -42 -27 -74 -11 -51 -10 -64 6 -107 10 -27 23 -54
28 -59 6 -6 0 -26 -15 -55 -31 -59 -32 -131 -1 -190 25 -48 645 -675 692 -699
16 -9 56 -18 90 -20 50 -4 67 -1 103 19 57 31 677 649 704 702 28 55 28 121 0
182 l-23 50 24 48 c30 59 29 115 -2 179 l-22 46 22 43 c30 57 30 129 0 186
l-22 43 22 47 c30 62 30 127 -2 186 -29 57 -645 677 -695 701 -46 21 -110 25
-165 9z m137 -111 c41 -26 618 -611 636 -644 17 -31 16 -85 -1 -102 -7 -7
-110 90 -299 280 -174 175 -300 294 -318 300 -50 17 -136 15 -177 -4 -22 -11
-150 -131 -323 -303 -296 -296 -303 -301 -304 -227 0 16 7 43 15 60 16 33 620
633 658 653 27 15 81 9 113 -13z m-14 -265 c13 -7 148 -138 301 -290 l277
-277 -32 -30 c-18 -17 -35 -31 -38 -31 -3 0 -100 95 -215 211 -115 115 -225
220 -244 231 -45 28 -150 30 -201 3 -19 -10 -130 -114 -247 -232 l-212 -215
-24 19 c-58 42 -66 31 229 324 151 150 284 279 297 286 29 16 78 16 109 1z
m16 -284 c12 -8 113 -106 222 -217 l199 -202 -34 -34 -34 -35 -148 152 c-97
99 -161 157 -187 167 -49 21 -139 18 -187 -6 -20 -10 -101 -84 -181 -165
l-145 -147 -32 30 c-17 17 -31 34 -31 38 0 11 389 394 428 421 37 26 89 25
130 -2z m-15 -265 c28 -14 287 -278 287 -292 0 -6 -65 -75 -145 -154 -158
-155 -183 -170 -244 -139 -33 17 -301 279 -301 294 0 5 67 74 149 155 144 142
150 147 191 147 23 0 51 -5 63 -11z m-720 -127 l27 -29 -24 -26 c-29 -31 -41
-34 -50 -11 -12 32 -4 94 13 94 4 0 19 -13 34 -28z m1375 11 c10 -21 9 -49 -2
-80 -7 -22 -7 -22 -42 9 l-34 32 27 28 c31 33 39 34 51 11z m-1240 -144 l34
-31 -33 -34 -33 -34 -36 35 -35 35 30 30 c17 16 32 29 35 29 3 1 20 -13 38
-30z m1131 -3 l32 -33 -36 -32 -36 -31 -34 32 -33 33 31 33 c17 17 34 32 37
32 3 0 21 -15 39 -34z m-126 -179 c-34 -38 -413 -411 -426 -419 -20 -12 -76
-9 -105 6 -15 8 -119 107 -232 220 l-204 205 29 31 c16 16 32 30 37 30 8 0 63
-54 213 -210 75 -78 128 -108 202 -117 75 -8 128 27 292 191 l144 144 33 -31
c33 -29 33 -31 17 -50z m-1128 34 c19 -22 19 -22 -13 -53 l-31 -31 -12 26 c-7
15 -9 40 -5 61 6 30 10 35 24 27 10 -5 26 -19 37 -30z m1368 -20 c1 -57 -12
-65 -51 -31 l-33 27 32 32 c38 38 51 31 52 -28z m-821 -517 c17 -9 57 -19 89
-21 93 -9 119 10 363 255 l216 216 36 -35 35 -35 -143 -141 c-496 -489 -460
-459 -533 -429 -24 10 -127 108 -301 283 -146 148 -270 274 -276 281 -8 9 -2
20 23 42 l34 30 213 -215 c117 -118 226 -222 244 -231z m-283 -6 c257 -257
268 -267 324 -283 63 -18 109 -15 161 12 16 8 158 143 315 299 l286 285 11
-28 c13 -30 10 -64 -9 -98 -7 -12 -157 -164 -334 -338 -312 -307 -323 -317
-361 -317 -27 0 -51 9 -78 29 -74 54 -632 626 -639 654 -4 15 -4 43 0 63 l6
36 26 -23 c14 -13 145 -144 292 -291z"/>
</g>
</svg>
